<svg xmlns="http://www.w3.org/2000/svg" xmlns:xlink="http://www.w3.org/1999/xlink" width="512" height="512" viewBox="0 0 512 512"><defs><filter id="b" width="129.1%" height="129.1%" x="-14.6%" y="-14.6%" filterUnits="objectBoundingBox"><feOffset in="SourceAlpha" result="shadowOffsetOuter1"/><feGaussianBlur in="shadowOffsetOuter1" result="shadowBlurOuter1" stdDeviation="20"/><feColorMatrix in="shadowBlurOuter1" values="0 0 0 0 1 0 0 0 0 1 0 0 0 0 1 0 0 0 0.5 0"/></filter><filter id="d" width="120.4%" height="120.4%" x="-10.2%" y="-10.2%" filterUnits="objectBoundingBox"><feMorphology in="SourceAlpha" operator="dilate" radius="1" result="shadowSpreadInner1"/><feGaussianBlur in="shadowSpreadInner1" result="shadowBlurInner1" stdDeviation="1.5"/><feOffset dx="-1" dy="-2" in="shadowBlurInner1" result="shadowOffsetInner1"/><feComposite in="shadowOffsetInner1" in2="SourceAlpha" k2="-1" k3="1" operator="arithmetic" result="shadowInnerInner1"/><feColorMatrix in="shadowInnerInner1" result="shadowMatrixInner1" values="0 0 0 0 0 0 0 0 0 0 0 0 0 0 0 0 0 0 0.2 0"/><feMorphology in="SourceAlpha" operator="dilate" radius="1" result="shadowSpreadInner2"/><feGaussianBlur in="shadowSpreadInner2" result="shadowBlurInner2" stdDeviation="1.5"/><feOffset dx="2" dy="2" in="shadowBlurInner2" result="shadowOffsetInner2"/><feComposite in="shadowOffsetInner2" in2="SourceAlpha" k2="-1" k3="1" operator="arithmetic" result="shadowInnerInner2"/><feColorMatrix in="shadowInnerInner2" result="shadowMatrixInner2" values="0 0 0 0 1 0 0 0 0 1 0 0 0 0 1 0 0 0 0.5 0"/><feMerge><feMergeNode in="shadowMatrixInner1"/><feMergeNode in="shadowMatrixInner2"/></feMerge></filter><filter id="f" width="147.1%" height="163.2%" x="-23.6%" y="-29.1%" filterUnits="objectBoundingBox"><feMorphology in="SourceAlpha" operator="dilate" radius="4" result="shadowSpreadOuter1"/><feOffset dy="4" in="shadowSpreadOuter1" result="shadowOffsetOuter1"/><feGaussianBlur in="shadowOffsetOuter1" result="shadowBlurOuter1" stdDeviation="12"/><feColorMatrix in="shadowBlurOuter1" result="shadowMatrixOuter1" values="0 0 0 0 0 0 0 0 0 0 0 0 0 0 0 0 0 0 0.1 0"/><feMorphology in="SourceAlpha" radius="1" result="shadowSpreadOuter2"/><feOffset dy="2" in="shadowSpreadOuter2" result="shadowOffsetOuter2"/><feGaussianBlur in="shadowOffsetOuter2" result="shadowBlurOuter2" stdDeviation="4"/><feColorMatrix in="shadowBlurOuter2" result="shadowMatrixOuter2" values="0 0 0 0 0.109803922 0 0 0 0 0.541176471 0 0 0 0 0.956862745 0 0 0 0.4 0"/><feMorphology in="SourceAlpha" radius="1" result="shadowSpreadOuter3"/><feOffset dy="-2" in="shadowSpreadOuter3" result="shadowOffsetOuter3"/><feGaussianBlur in="shadowOffsetOuter3" result="shadowBlurOuter3" stdDeviation="4"/><feColorMatrix in="shadowBlurOuter3" result="shadowMatrixOuter3" values="0 0 0 0 1 0 0 0 0 1 0 0 0 0 1 0 0 0 0.5 0"/><feMerge><feMergeNode in="shadowMatrixOuter1"/><feMergeNode in="shadowMatrixOuter2"/><feMergeNode in="shadowMatrixOuter3"/></feMerge></filter><filter id="g" width="132%" height="143%" x="-16%" y="-18.9%" filterUnits="objectBoundingBox"><feGaussianBlur in="SourceAlpha" result="shadowBlurInner1" stdDeviation="1.5"/><feOffset dy="1" in="shadowBlurInner1" result="shadowOffsetInner1"/><feComposite in="shadowOffsetInner1" in2="SourceAlpha" k2="-1" k3="1" operator="arithmetic" result="shadowInnerInner1"/><feColorMatrix in="shadowInnerInner1" values="0 0 0 0 1 0 0 0 0 1 0 0 0 0 1 0 0 0 1 0"/></filter><filter id="i" width="241.6%" height="237.9%" x="-70.8%" y="-63.4%" filterUnits="objectBoundingBox"><feMorphology in="SourceAlpha" operator="dilate" radius="4" result="shadowSpreadOuter1"/><feOffset dy="4" in="shadowSpreadOuter1" result="shadowOffsetOuter1"/><feGaussianBlur in="shadowOffsetOuter1" result="shadowBlurOuter1" stdDeviation="12"/><feColorMatrix in="shadowBlurOuter1" result="shadowMatrixOuter1" values="0 0 0 0 0 0 0 0 0 0 0 0 0 0 0 0 0 0 0.1 0"/><feMorphology in="SourceAlpha" radius="1" result="shadowSpreadOuter2"/><feOffset dy="2" in="shadowSpreadOuter2" result="shadowOffsetOuter2"/><feGaussianBlur in="shadowOffsetOuter2" result="shadowBlurOuter2" stdDeviation="4"/><feColorMatrix in="shadowBlurOuter2" result="shadowMatrixOuter2" values="0 0 0 0 0.109803922 0 0 0 0 0.541176471 0 0 0 0 0.956862745 0 0 0 0.4 0"/><feMorphology in="SourceAlpha" radius="1" result="shadowSpreadOuter3"/><feOffset dy="-2" in="shadowSpreadOuter3" result="shadowOffsetOuter3"/><feGaussianBlur in="shadowOffsetOuter3" result="shadowBlurOuter3" stdDeviation="4"/><feColorMatrix in="shadowBlurOuter3" result="shadowMatrixOuter3" values="0 0 0 0 1 0 0 0 0 1 0 0 0 0 1 0 0 0 0.5 0"/><feMerge><feMergeNode in="shadowMatrixOuter1"/><feMergeNode in="shadowMatrixOuter2"/><feMergeNode in="shadowMatrixOuter3"/></feMerge></filter><filter id="j" width="196.3%" height="193.8%" x="-48.1%" y="-41.4%" filterUnits="objectBoundingBox"><feGaussianBlur in="SourceAlpha" result="shadowBlurInner1" stdDeviation="1.5"/><feOffset dy="1" in="shadowBlurInner1" result="shadowOffsetInner1"/><feComposite in="shadowOffsetInner1" in2="SourceAlpha" k2="-1" k3="1" operator="arithmetic" result="shadowInnerInner1"/><feColorMatrix in="shadowInnerInner1" values="0 0 0 0 1 0 0 0 0 1 0 0 0 0 1 0 0 0 1 0"/></filter><path id="a" d="M166.374834,50 L347.625166,50 C387.743509,50 402.29139,54.1771525 416.958057,62.0209717 C431.624723,69.8647908 443.135209,81.3752767 450.979028,96.0419433 C458.822847,110.70861 463,125.256491 463,165.374834 L463,346.625166 C463,386.743509 458.822847,401.29139 450.979028,415.958057 C443.135209,430.624723 431.624723,442.135209 416.958057,449.979028 C402.29139,457.822847 387.743509,462 347.625166,462 L166.374834,462 C126.256491,462 111.70861,457.822847 97.0419433,449.979028 C82.3752767,442.135209 70.8647908,430.624723 63.0209717,415.958057 C55.1771525,401.29139 51,386.743509 51,346.625166 L51,165.374834 C51,125.256491 55.1771525,110.70861 63.0209717,96.0419433 C70.8647908,81.3752767 82.3752767,69.8647908 97.0419433,62.0209717 C111.70861,54.1771525 126.256491,50 166.374834,50 Z"/><path id="e" d="M206.678324,338.147609 L358.37456,338.147609 C368.288234,338.147609 375.806731,335.600597 380.930052,330.506574 C386.053372,325.412551 388.615033,317.960321 388.615033,308.149885 L388.615033,255.150931 C388.615033,251.510616 388.428553,248.421603 388.055592,245.883892 C387.682632,243.346181 387.020418,241.071914 386.068951,239.061091 C385.117484,237.050268 383.780035,234.986895 382.056606,232.870974 L353.739994,198.053134 C349.945286,193.427869 346.619801,189.786623 343.763539,187.129398 C340.907278,184.472172 337.762227,182.590397 334.328389,181.484072 C330.89455,180.377748 326.443674,179.824585 320.975761,179.824585 L244.075727,179.824585 C238.608744,179.824585 234.168331,180.377748 230.754489,181.484072 C227.340647,182.590397 224.195365,184.472172 221.318641,187.129398 C218.441918,189.786623 215.126664,193.427869 211.372879,198.053134 L182.996277,232.870974 C181.290519,234.986895 179.957256,237.054918 178.996488,239.075042 C178.03572,241.095166 177.368856,243.369433 176.995896,245.897843 C176.622935,248.426253 176.436455,251.510616 176.436455,255.150931 L176.436455,308.149885 C176.436455,317.960321 179.008346,325.412551 184.152129,330.506574 C189.295911,335.600597 196.804643,338.147609 206.678324,338.147609 Z M207.931135,318.286778 C204.013657,318.286778 201.029278,317.290202 198.977996,315.29705 C196.926715,313.303898 195.901074,310.249996 195.901074,306.135342 L195.901074,264.07268 L247.477013,264.07268 C248.567992,269.2532 250.747391,273.875675 254.015211,277.940105 C257.283031,282.004534 261.358157,285.201901 266.240588,287.532205 C271.123019,289.862509 276.551637,291.027661 282.526442,291.027661 C288.54124,291.027661 293.989854,289.852278 298.872285,287.501513 C303.754716,285.150747 307.819843,281.943382 311.067667,277.879417 C314.31549,273.815453 316.484891,269.213207 317.57587,264.07268 L369.151809,264.07268 L369.151809,306.135342 C369.151809,310.249996 368.115937,313.303898 366.044194,315.29705 C363.972451,317.290202 360.998302,318.286778 357.121748,318.286778 L207.931135,318.286778 Z M282.526442,272.836781 C278.638726,272.836781 275.298128,271.879268 272.504646,269.964243 C269.711164,268.049217 267.560365,265.619628 266.052248,262.675474 C264.54413,259.73132 263.790072,256.721363 263.790072,253.645604 L263.790072,253.407039 C263.790072,251.69291 263.24342,250.167354 262.150116,248.830371 C261.056812,247.493387 259.321524,246.824895 256.944251,246.824895 L200.534245,246.824895 C199.084258,246.824895 198.200221,246.323585 197.882135,245.320963 C197.564049,244.318342 197.782617,243.350134 198.537838,242.416338 L230.220858,202.863484 C232.08473,200.499232 234.127408,198.76906 236.348893,197.672966 C238.570378,196.576872 241.099951,196.028825 243.937611,196.028825 L321.113877,196.028825 C323.99246,196.028825 326.532496,196.576872 328.733985,197.672966 C330.935474,198.76906 332.967688,200.499232 334.83063,202.863484 L366.575035,242.416338 C367.289333,243.350134 367.487439,244.318342 367.169353,245.320963 C366.851267,246.323585 365.987692,246.824895 364.578628,246.824895 L308.108632,246.824895 C305.730429,246.824895 304.004906,247.493387 302.932064,248.830371 C301.859222,250.167354 301.322801,251.69291 301.322801,253.407039 L301.322801,253.645604 C301.322801,256.721363 300.558512,259.73132 299.029933,262.675474 C297.501354,265.619628 295.340324,268.049217 292.546842,269.964243 C289.75336,271.879268 286.413227,272.836781 282.526442,272.836781 Z"/><path id="h" d="M144.582543,294.710004 C144.582543,293.779469 144.406747,292.89383 144.055155,292.053088 C143.703564,291.212346 143.268495,290.27963 142.74995,289.254939 L115.87008,233.659162 C114.902342,231.672705 113.895564,230.272884 112.849746,229.459699 C111.803928,228.646515 110.60149,228.239923 109.242431,228.239923 C107.907256,228.239923 106.710674,228.646515 105.652685,229.459699 C104.594695,230.272884 103.594003,231.672705 102.650608,233.659162 L75.7349132,289.254939 C75.2402508,290.309025 74.8171239,291.255175 74.4655324,292.093391 C74.1139409,292.931608 73.9381452,293.815753 73.9381452,294.745829 C73.9381452,296.532033 74.5679556,297.983066 75.8275763,299.098926 C77.087197,300.214787 78.7935983,300.772718 80.9467804,300.772718 L137.538082,300.736893 C139.715148,300.736893 141.433491,300.178962 142.693112,299.063101 C143.952732,297.94724 144.582543,296.496208 144.582543,294.710004 Z"/><linearGradient id="c" x1="0%" x2="0%" y1="100%" y2="0%"><stop offset="0%" stop-color="#1BC9FC"/><stop offset="100%" stop-color="#1C70F1"/></linearGradient></defs><g fill="none" fill-rule="evenodd"><g fill-rule="nonzero"><use xlink:href="#a" fill="#000" filter="url(#b)"/><use xlink:href="#a" fill="url(#c)"/><use xlink:href="#a" fill="#000" filter="url(#d)"/></g><g fill-rule="nonzero"><use xlink:href="#e" fill="#000" filter="url(#f)"/><use xlink:href="#e" fill="#F5FCFF"/><use xlink:href="#e" fill="#000" filter="url(#g)"/></g><g fill-rule="nonzero"><use xlink:href="#h" fill="#000" filter="url(#i)"/><use xlink:href="#h" fill="#F5FCFF"/><use xlink:href="#h" fill="#000" filter="url(#j)"/></g></g></svg>