<svg xmlns="http://www.w3.org/2000/svg" xmlns:xlink="http://www.w3.org/1999/xlink" width="512" height="512" viewBox="0 0 512 512"><defs><filter id="b" width="114.6%" height="114.6%" x="-7.3%" y="-7.3%" filterUnits="objectBoundingBox"><feMorphology in="SourceAlpha" radius="10" result="shadowSpreadOuter1"/><feOffset in="shadowSpreadOuter1" result="shadowOffsetOuter1"/><feGaussianBlur in="shadowOffsetOuter1" result="shadowBlurOuter1" stdDeviation="20"/><feColorMatrix in="shadowBlurOuter1" values="0 0 0 0 1 0 0 0 0 1 0 0 0 0 1 0 0 0 0.5 0"/></filter><filter id="d" width="110.7%" height="110.7%" x="-5.3%" y="-5.3%" filterUnits="objectBoundingBox"><feMorphology in="SourceAlpha" operator="dilate" radius="1" result="shadowSpreadInner1"/><feGaussianBlur in="shadowSpreadInner1" result="shadowBlurInner1" stdDeviation="1.5"/><feOffset dx="-1" dy="-2" in="shadowBlurInner1" result="shadowOffsetInner1"/><feComposite in="shadowOffsetInner1" in2="SourceAlpha" k2="-1" k3="1" operator="arithmetic" result="shadowInnerInner1"/><feColorMatrix in="shadowInnerInner1" result="shadowMatrixInner1" values="0 0 0 0 0 0 0 0 0 0 0 0 0 0 0 0 0 0 0.1 0"/><feMorphology in="SourceAlpha" operator="dilate" radius="1" result="shadowSpreadInner2"/><feGaussianBlur in="shadowSpreadInner2" result="shadowBlurInner2" stdDeviation="1.5"/><feOffset dx="2" dy="2" in="shadowBlurInner2" result="shadowOffsetInner2"/><feComposite in="shadowOffsetInner2" in2="SourceAlpha" k2="-1" k3="1" operator="arithmetic" result="shadowInnerInner2"/><feColorMatrix in="shadowInnerInner2" result="shadowMatrixInner2" values="0 0 0 0 1 0 0 0 0 1 0 0 0 0 1 0 0 0 0.1 0"/><feMerge><feMergeNode in="shadowMatrixInner1"/><feMergeNode in="shadowMatrixInner2"/></feMerge></filter><filter id="f" width="105.6%" height="106.5%" x="-2.8%" y="-3.3%" filterUnits="objectBoundingBox"><feOffset in="SourceAlpha" result="shadowOffsetOuter1"/><feGaussianBlur in="shadowOffsetOuter1" result="shadowBlurOuter1" stdDeviation="2"/><feColorMatrix in="shadowBlurOuter1" values="0 0 0 0 0.552677763 0 0 0 0 0.552677763 0 0 0 0 0.552677763 0 0 0 0.5 0"/></filter><linearGradient id="c" x1="0%" x2="0%" y1="100%" y2="0%"><stop offset="0%" stop-color="#D1D0D0"/><stop offset="100%" stop-color="#FFF"/></linearGradient><linearGradient id="g" x1="50%" x2="50%" y1="0%" y2="100%"><stop offset="0%" stop-color="#3A3A3A"/><stop offset="100%" stop-color="#1E1E1E"/></linearGradient><path id="a" d="M165.374834,50 L346.625166,50 C386.743509,50 401.29139,54.1771525 415.958057,62.0209717 C430.624723,69.8647908 442.135209,81.3752767 449.979028,96.0419433 C457.822847,110.70861 462,125.256491 462,165.374834 L462,346.625166 C462,386.743509 457.822847,401.29139 449.979028,415.958057 C442.135209,430.624723 430.624723,442.135209 415.958057,449.979028 C401.29139,457.822847 386.743509,462 346.625166,462 L165.374834,462 C125.256491,462 110.70861,457.822847 96.0419433,449.979028 C81.3752767,442.135209 69.8647908,430.624723 62.0209717,415.958057 C54.1771525,401.29139 50,386.743509 50,346.625166 L50,165.374834 C50,125.256491 54.1771525,110.70861 62.0209717,96.0419433 C69.8647908,81.3752767 81.3752767,69.8647908 96.0419433,62.0209717 C110.70861,54.1771525 125.256491,50 165.374834,50 Z"/><path id="e" d="M246.702606,340.515625 C250.516409,340.515625 253.672659,339.266276 256.171356,336.767578 C258.670054,334.26888 259.919403,331.145508 259.919403,327.397461 L259.919403,291.791016 L262.385224,291.791016 C274.484182,291.791016 285.103648,293.073242 294.243622,295.637695 C303.383596,298.202148 311.389293,302.377604 318.260712,308.164063 C325.132131,313.950521 331.165172,321.709635 336.359833,331.441406 C338.332489,334.992188 340.485972,337.326497 342.820282,338.444336 C345.154592,339.562174 347.603974,340.121094 350.168427,340.121094 C353.587698,340.121094 356.464488,338.559408 358.798798,335.436035 C361.133108,332.312663 362.300263,327.693359 362.300263,321.578125 C362.300263,303.692708 360.294729,287.631999 356.283661,273.395996 C352.272593,259.159993 346.173798,247.011719 337.987274,236.951172 C329.800751,226.890625 319.427867,219.213704 306.868622,213.92041 C294.309377,208.627116 279.481578,205.980469 262.385224,205.980469 L259.919403,205.980469 L259.919403,170.669922 C259.919403,166.921875 258.670054,163.716309 256.171356,161.053223 C253.672659,158.390137 250.450653,157.058594 246.505341,157.058594 C243.875132,157.058594 241.507945,157.633952 239.403778,158.784668 C237.299612,159.935384 234.833791,161.858724 232.006317,164.554688 L153.88913,237.345703 C151.916474,239.121094 150.535614,241.011556 149.746552,243.01709 C148.957489,245.022624 148.562958,246.945964 148.562958,248.787109 C148.562958,250.5625 148.957489,252.469401 149.746552,254.507813 C150.535614,256.546224 151.916474,258.453125 153.88913,260.228516 L232.006317,333.611328 C234.570771,336.044271 236.987274,337.803223 239.255829,338.888184 C241.524384,339.973145 244.006643,340.515625 246.702606,340.515625 Z"/></defs><g fill="none" fill-rule="evenodd"><rect width="512" height="512"/><g fill-rule="nonzero"><use xlink:href="#a" fill="#000" filter="url(#b)"/><use xlink:href="#a" fill="url(#c)"/><use xlink:href="#a" fill="#000" filter="url(#d)"/></g><g fill-rule="nonzero"><use xlink:href="#e" fill="#000" filter="url(#f)"/><use xlink:href="#e" fill="#2E2E2E"/><use xlink:href="#e" fill="url(#g)"/></g></g></svg>