<svg xmlns="http://www.w3.org/2000/svg" xmlns:xlink="http://www.w3.org/1999/xlink" width="512" height="512" viewBox="0 0 512 512"><defs><filter id="b" width="114.6%" height="114.6%" x="-7.3%" y="-7.3%" filterUnits="objectBoundingBox"><feMorphology in="SourceAlpha" radius="10" result="shadowSpreadOuter1"/><feOffset in="shadowSpreadOuter1" result="shadowOffsetOuter1"/><feGaussianBlur in="shadowOffsetOuter1" result="shadowBlurOuter1" stdDeviation="20"/><feColorMatrix in="shadowBlurOuter1" values="0 0 0 0 1 0 0 0 0 1 0 0 0 0 1 0 0 0 0.5 0"/></filter><filter id="d" width="110.7%" height="110.7%" x="-5.3%" y="-5.3%" filterUnits="objectBoundingBox"><feMorphology in="SourceAlpha" operator="dilate" radius="1" result="shadowSpreadInner1"/><feGaussianBlur in="shadowSpreadInner1" result="shadowBlurInner1" stdDeviation="1.5"/><feOffset dx="-1" dy="-2" in="shadowBlurInner1" result="shadowOffsetInner1"/><feComposite in="shadowOffsetInner1" in2="SourceAlpha" k2="-1" k3="1" operator="arithmetic" result="shadowInnerInner1"/><feColorMatrix in="shadowInnerInner1" result="shadowMatrixInner1" values="0 0 0 0 0 0 0 0 0 0 0 0 0 0 0 0 0 0 0.1 0"/><feMorphology in="SourceAlpha" operator="dilate" radius="1" result="shadowSpreadInner2"/><feGaussianBlur in="shadowSpreadInner2" result="shadowBlurInner2" stdDeviation="1.5"/><feOffset dx="2" dy="2" in="shadowBlurInner2" result="shadowOffsetInner2"/><feComposite in="shadowOffsetInner2" in2="SourceAlpha" k2="-1" k3="1" operator="arithmetic" result="shadowInnerInner2"/><feColorMatrix in="shadowInnerInner2" result="shadowMatrixInner2" values="0 0 0 0 1 0 0 0 0 1 0 0 0 0 1 0 0 0 0.1 0"/><feMerge><feMergeNode in="shadowMatrixInner1"/><feMergeNode in="shadowMatrixInner2"/></feMerge></filter><filter id="g" width="108.4%" height="104.9%" x="-4.2%" y="-1.9%" filterUnits="objectBoundingBox"><feMorphology in="SourceAlpha" operator="dilate" radius="1" result="shadowSpreadOuter1"/><feOffset dy="2" in="shadowSpreadOuter1" result="shadowOffsetOuter1"/><feGaussianBlur in="shadowOffsetOuter1" result="shadowBlurOuter1" stdDeviation="2"/><feColorMatrix in="shadowBlurOuter1" values="0 0 0 0 0 0 0 0 0 0 0 0 0 0 0 0 0 0 0.25 0"/></filter><filter id="i" width="106.7%" height="103.9%" x="-3.4%" y="-1.5%" filterUnits="objectBoundingBox"><feMorphology in="SourceAlpha" operator="dilate" radius="1" result="shadowSpreadInner1"/><feGaussianBlur in="shadowSpreadInner1" result="shadowBlurInner1" stdDeviation="1.5"/><feOffset dx="-1" dy="-2" in="shadowBlurInner1" result="shadowOffsetInner1"/><feComposite in="shadowOffsetInner1" in2="SourceAlpha" k2="-1" k3="1" operator="arithmetic" result="shadowInnerInner1"/><feColorMatrix in="shadowInnerInner1" result="shadowMatrixInner1" values="0 0 0 0 0 0 0 0 0 0 0 0 0 0 0 0 0 0 0.5 0"/><feMorphology in="SourceAlpha" operator="dilate" radius="1" result="shadowSpreadInner2"/><feGaussianBlur in="shadowSpreadInner2" result="shadowBlurInner2" stdDeviation="1.5"/><feOffset dx="2" dy="2" in="shadowBlurInner2" result="shadowOffsetInner2"/><feComposite in="shadowOffsetInner2" in2="SourceAlpha" k2="-1" k3="1" operator="arithmetic" result="shadowInnerInner2"/><feColorMatrix in="shadowInnerInner2" result="shadowMatrixInner2" values="0 0 0 0 1 0 0 0 0 1 0 0 0 0 1 0 0 0 1 0"/><feMerge><feMergeNode in="shadowMatrixInner1"/><feMergeNode in="shadowMatrixInner2"/></feMerge></filter><filter id="k" width="103.6%" height="104.2%" x="-1.8%" y="-2.1%" filterUnits="objectBoundingBox"><feMorphology in="SourceAlpha" radius="2" result="shadowSpreadInner1"/><feGaussianBlur in="shadowSpreadInner1" result="shadowBlurInner1" stdDeviation="1.5"/><feOffset dy="4" in="shadowBlurInner1" result="shadowOffsetInner1"/><feComposite in="shadowOffsetInner1" in2="SourceAlpha" k2="-1" k3="1" operator="arithmetic" result="shadowInnerInner1"/><feColorMatrix in="shadowInnerInner1" values="0 0 0 0 0 0 0 0 0 0 0 0 0 0 0 0 0 0 0.5 0"/></filter><path id="a" d="M165.374834,55 L346.625166,55 C386.743509,55 401.29139,59.1771525 415.958057,67.0209717 C430.624723,74.8647908 442.135209,86.3752767 449.979028,101.041943 C457.822847,115.70861 462,130.256491 462,170.374834 L462,351.625166 C462,391.743509 457.822847,406.29139 449.979028,420.958057 C442.135209,435.624723 430.624723,447.135209 415.958057,454.979028 C401.29139,462.822847 386.743509,467 346.625166,467 L165.374834,467 C125.256491,467 110.70861,462.822847 96.0419433,454.979028 C81.3752767,447.135209 69.8647908,435.624723 62.0209717,420.958057 C54.1771525,406.29139 50,391.743509 50,351.625166 L50,170.374834 C50,130.256491 54.1771525,115.70861 62.0209717,101.041943 C69.8647908,86.3752767 81.3752767,74.8647908 96.0419433,67.0209717 C110.70861,59.1771525 125.256491,55 165.374834,55 Z"/><path id="f" d="M373,55 L277,55 L277,55 C259.940625,94.590625 226.240625,163.111719 224.953125,286.872656 C224.909474,289.027254 225.740599,291.107617 227.256842,292.639022 C228.773085,294.170427 230.845075,295.02221 233,295 L285,296 C286.333333,375.333333 294.333333,432.333333 309,467 L373,467 C422.153343,467 462,427.153343 462,378 L462,144 C462,94.8466573 422.153343,55 373,55 Z"/><path id="j" d="M368.452506,327.67637 C370.688813,324.557228 376.765227,324.738619 379.829023,327.957899 C382.892819,331.17718 382.325763,336.243271 379.547494,339.334416 C320.403744,405.13867 191.219752,405.780351 132.452506,340.334416 C129.676654,337.243099 129.107181,332.17718 132.170977,328.957899 C135.234773,325.738619 141.318211,325.556879 143.547494,328.67637 C186.069984,388.179157 325.493237,387.594841 368.452506,327.67637 Z M352.539062,173.851562 C356.983229,173.851562 360.585938,177.454271 360.585938,181.898438 L360.585938,209.257812 C360.585938,213.701979 356.983229,217.304688 352.539062,217.304688 C348.094896,217.304688 344.492188,213.701979 344.492188,209.257812 L344.492188,181.898438 C344.492188,177.454271 348.094896,173.851562 352.539062,173.851562 Z M159.265625,173.851562 C163.709791,173.851562 167.3125,177.454271 167.3125,181.898438 L167.3125,209.257812 C167.3125,213.701979 163.709791,217.304688 159.265625,217.304688 C154.821459,217.304688 151.21875,213.701979 151.21875,209.257812 L151.21875,181.898438 C151.21875,177.454271 154.821459,173.851562 159.265625,173.851562 Z"/><linearGradient id="c" x1="0%" x2="0%" y1="100%" y2="0%"><stop offset="0%" stop-color="#1D70F2"/><stop offset="30.616%" stop-color="#1C8AF5"/><stop offset="68.868%" stop-color="#1BB1F9"/><stop offset="100%" stop-color="#1ACBFC"/></linearGradient><linearGradient id="h" x1="0%" x2="0%" y1="0%" y2="100%"><stop offset="0%" stop-color="#EEEEEF"/><stop offset="100%" stop-color="#D0DAE5"/></linearGradient></defs><g fill="none" fill-rule="evenodd"><rect width="512" height="512"/><mask id="e" fill="#fff"><use xlink:href="#a"/></mask><g fill-rule="nonzero"><use xlink:href="#a" fill="#000" filter="url(#b)"/><use xlink:href="#a" fill="url(#c)"/><use xlink:href="#a" fill="#000" filter="url(#d)"/></g><g fill-rule="nonzero" mask="url(#e)"><use xlink:href="#f" fill="#000" filter="url(#g)"/><use xlink:href="#f" fill="url(#h)"/><use xlink:href="#f" fill="#000" filter="url(#i)"/></g><g fill-rule="nonzero" mask="url(#e)"><use xlink:href="#j" fill="#464646"/><use xlink:href="#j" fill="#000" filter="url(#k)"/></g></g></svg>