<svg xmlns="http://www.w3.org/2000/svg" xmlns:xlink="http://www.w3.org/1999/xlink" width="512" height="512" viewBox="0 0 512 512"><defs><filter id="b" width="114.6%" height="114.6%" x="-7.3%" y="-7.3%" filterUnits="objectBoundingBox"><feMorphology in="SourceAlpha" radius="10" result="shadowSpreadOuter1"/><feOffset in="shadowSpreadOuter1" result="shadowOffsetOuter1"/><feGaussianBlur in="shadowOffsetOuter1" result="shadowBlurOuter1" stdDeviation="20"/><feColorMatrix in="shadowBlurOuter1" values="0 0 0 0 1 0 0 0 0 1 0 0 0 0 1 0 0 0 0.5 0"/></filter><filter id="d" width="110.7%" height="110.7%" x="-5.3%" y="-5.3%" filterUnits="objectBoundingBox"><feMorphology in="SourceAlpha" operator="dilate" radius="1" result="shadowSpreadInner1"/><feGaussianBlur in="shadowSpreadInner1" result="shadowBlurInner1" stdDeviation="1.5"/><feOffset dx="-1" dy="-2" in="shadowBlurInner1" result="shadowOffsetInner1"/><feComposite in="shadowOffsetInner1" in2="SourceAlpha" k2="-1" k3="1" operator="arithmetic" result="shadowInnerInner1"/><feColorMatrix in="shadowInnerInner1" result="shadowMatrixInner1" values="0 0 0 0 0 0 0 0 0 0 0 0 0 0 0 0 0 0 0.1 0"/><feMorphology in="SourceAlpha" operator="dilate" radius="1" result="shadowSpreadInner2"/><feGaussianBlur in="shadowSpreadInner2" result="shadowBlurInner2" stdDeviation="1.5"/><feOffset dx="2" dy="2" in="shadowBlurInner2" result="shadowOffsetInner2"/><feComposite in="shadowOffsetInner2" in2="SourceAlpha" k2="-1" k3="1" operator="arithmetic" result="shadowInnerInner2"/><feColorMatrix in="shadowInnerInner2" result="shadowMatrixInner2" values="0 0 0 0 1 0 0 0 0 1 0 0 0 0 1 0 0 0 0.1 0"/><feMerge><feMergeNode in="shadowMatrixInner1"/><feMergeNode in="shadowMatrixInner2"/></feMerge></filter><filter id="f" width="112.9%" height="112.4%" x="-6.5%" y="-4.6%" filterUnits="objectBoundingBox"><feOffset dy="5" in="SourceAlpha" result="shadowOffsetOuter1"/><feGaussianBlur in="shadowOffsetOuter1" result="shadowBlurOuter1" stdDeviation="5.5"/><feColorMatrix in="shadowBlurOuter1" values="0 0 0 0 0 0 0 0 0 0 0 0 0 0 0 0 0 0 0.24456403 0"/></filter><path id="a" d="M165.374834,50 L346.625166,50 C386.743509,50 401.29139,54.1771525 415.958057,62.0209717 C430.624723,69.8647908 442.135209,81.3752767 449.979028,96.0419433 C457.822847,110.70861 462,125.256491 462,165.374834 L462,346.625166 C462,386.743509 457.822847,401.29139 449.979028,415.958057 C442.135209,430.624723 430.624723,442.135209 415.958057,449.979028 C401.29139,457.822847 386.743509,462 346.625166,462 L165.374834,462 C125.256491,462 110.70861,457.822847 96.0419433,449.979028 C81.3752767,442.135209 69.8647908,430.624723 62.0209717,415.958057 C54.1771525,401.29139 50,386.743509 50,346.625166 L50,165.374834 C50,125.256491 54.1771525,110.70861 62.0209717,96.0419433 C69.8647908,81.3752767 81.3752767,69.8647908 96.0419433,62.0209717 C110.70861,54.1771525 125.256491,50 165.374834,50 Z"/><path id="e" d="M180.712179,0.632583662 C203.358776,-1.31478233 212.962957,0.87363831 228.62228,12.2859351 L228.511686,12.2085724 L274.852182,44.9326109 L275.191918,45.1776482 C275.475835,45.3867498 277.229201,46.6739757 277.716786,47.0341462 C278.711248,47.7687378 279.485582,48.3510855 280.224297,48.9249883 C282.44575,50.6508196 284.212227,52.1989644 285.898442,54.0306995 C291.483006,60.0972116 294,67.2089805 294,75.519589 L294,255.57039 C294,278.679044 280.7066,293.846728 255.823069,295.616648 L86.7177369,305.885214 L86.4396494,305.90025 C68.991261,306.727708 57.4847033,302.507631 47.2801339,289.470371 L12.8909998,244.636152 C4.18095251,232.984749 0,222.673504 0,210.430388 L0,50.3864042 C0,29.6530897 12.6584395,13.3651884 35.0707324,11.4172896 L35.3382935,11.3957571 L180.712179,0.632583662 Z"/><linearGradient id="c" x1="0%" x2="0%" y1="100%" y2="0%"><stop offset="0%" stop-color="#D1D0D0"/><stop offset="100%" stop-color="#FFF"/></linearGradient></defs><g fill="none" fill-rule="evenodd"><rect width="512" height="512"/><g fill-rule="nonzero"><use xlink:href="#a" fill="#000" filter="url(#b)"/><use xlink:href="#a" fill="url(#c)"/><use xlink:href="#a" fill="#000" filter="url(#d)"/></g><g transform="translate(108 103)"><g fill-rule="nonzero"><use xlink:href="#e" fill="#000" filter="url(#f)"/><use xlink:href="#e" fill="#FFF"/></g><path fill="#000" d="M182.511436,21.6650259 L36.8891535,32.4480751 C25.1410489,33.4664888 21.0539507,41.1626362 21.0539507,50.3864042 L21.0539507,210.430388 C21.0539507,217.61469 23.598847,223.76211 29.7387054,231.978018 L63.9697976,276.600898 C69.5938342,283.7852 74.7073125,285.326012 85.4448274,284.814167 L254.552792,274.550878 C268.851056,273.529826 272.948681,266.854731 272.948681,255.573028 L272.948681,75.5222274 C272.948681,69.691413 270.651169,68.0107664 263.887587,63.0347863 L216.242496,29.358535 C204.997055,21.1610958 200.399398,20.1242134 182.511436,21.6623876 L182.511436,21.6650259 Z M89.2687512,72.5751596 C75.4599912,73.5065069 72.3282161,73.7175771 64.4856194,67.3247883 L44.547528,51.425925 C42.5210853,49.3679905 43.5395701,46.8008491 48.6451532,46.2890039 L188.635503,36.0336302 C200.391503,35.004663 206.512939,39.1126169 211.110596,42.7008104 L235.119995,60.1404861 C236.146375,60.6602465 238.699167,63.7286796 235.627922,63.7286796 L91.058337,72.4537943 L89.2687512,72.577798 L89.2687512,72.5751596 Z M73.1703741,254.034854 L73.1703741,101.185726 C73.1703741,94.5106308 75.2152391,91.4316442 81.3366752,90.9145222 L247.383921,81.1683554 C253.015853,80.6591485 255.560749,84.247342 255.560749,90.9118838 L255.560749,242.742598 C255.560749,249.417693 254.534369,255.063821 245.341688,255.573028 L86.44489,264.80735 C77.2522088,265.316557 73.1730058,262.248124 73.1730058,254.034854 L73.1703741,254.034854 Z M230.022307,109.380527 C231.040792,113.997688 230.022307,118.614848 225.416755,119.142524 L217.758381,120.664868 L217.758381,233.516192 C211.107964,237.104385 204.986528,239.154405 199.870418,239.154405 C191.69359,239.154405 189.651357,236.587263 183.527289,228.899031 L133.445203,149.906006 L133.445203,226.33189 L149.288301,229.927998 C149.288301,229.927998 149.288301,239.16232 136.505921,239.16232 L101.266871,241.212339 C100.240491,239.154405 101.266871,234.028037 104.838148,233.006985 L114.041356,230.447759 L114.041356,129.397897 L101.269503,128.361015 C100.243123,123.743854 102.795915,117.076674 109.954258,116.559552 L147.764522,114.008241 L199.87305,194.022318 L199.87305,123.234647 L186.590639,121.704388 C185.564258,116.050345 189.651357,111.942391 194.75694,111.4411 L230.022307,109.383165 L230.022307,109.380527 Z"/></g></g></svg>