<svg xmlns="http://www.w3.org/2000/svg" xmlns:xlink="http://www.w3.org/1999/xlink" width="512" height="512" viewBox="0 0 512 512"><defs><filter id="b" width="129.1%" height="129.1%" x="-14.6%" y="-14.6%" filterUnits="objectBoundingBox"><feOffset in="SourceAlpha" result="shadowOffsetOuter1"/><feGaussianBlur in="shadowOffsetOuter1" result="shadowBlurOuter1" stdDeviation="20"/><feColorMatrix in="shadowBlurOuter1" values="0 0 0 0 1 0 0 0 0 1 0 0 0 0 1 0 0 0 0.5 0"/></filter><filter id="d" width="120.4%" height="120.4%" x="-10.2%" y="-10.2%" filterUnits="objectBoundingBox"><feMorphology in="SourceAlpha" operator="dilate" radius="1" result="shadowSpreadInner1"/><feGaussianBlur in="shadowSpreadInner1" result="shadowBlurInner1" stdDeviation="1.5"/><feOffset dx="-1" dy="-2" in="shadowBlurInner1" result="shadowOffsetInner1"/><feComposite in="shadowOffsetInner1" in2="SourceAlpha" k2="-1" k3="1" operator="arithmetic" result="shadowInnerInner1"/><feColorMatrix in="shadowInnerInner1" result="shadowMatrixInner1" values="0 0 0 0 0 0 0 0 0 0 0 0 0 0 0 0 0 0 0.2 0"/><feMorphology in="SourceAlpha" operator="dilate" radius="1" result="shadowSpreadInner2"/><feGaussianBlur in="shadowSpreadInner2" result="shadowBlurInner2" stdDeviation="1.5"/><feOffset dx="2" dy="2" in="shadowBlurInner2" result="shadowOffsetInner2"/><feComposite in="shadowOffsetInner2" in2="SourceAlpha" k2="-1" k3="1" operator="arithmetic" result="shadowInnerInner2"/><feColorMatrix in="shadowInnerInner2" result="shadowMatrixInner2" values="0 0 0 0 1 0 0 0 0 1 0 0 0 0 1 0 0 0 0.5 0"/><feMerge><feMergeNode in="shadowMatrixInner1"/><feMergeNode in="shadowMatrixInner2"/></feMerge></filter><filter id="f" width="132.9%" height="145.7%" x="-16.5%" y="-21%" filterUnits="objectBoundingBox"><feMorphology in="SourceAlpha" operator="dilate" radius="4" result="shadowSpreadOuter1"/><feOffset dy="4" in="shadowSpreadOuter1" result="shadowOffsetOuter1"/><feGaussianBlur in="shadowOffsetOuter1" result="shadowBlurOuter1" stdDeviation="12"/><feColorMatrix in="shadowBlurOuter1" result="shadowMatrixOuter1" values="0 0 0 0 0 0 0 0 0 0 0 0 0 0 0 0 0 0 0.1 0"/><feMorphology in="SourceAlpha" radius="1" result="shadowSpreadOuter2"/><feOffset dy="2" in="shadowSpreadOuter2" result="shadowOffsetOuter2"/><feGaussianBlur in="shadowOffsetOuter2" result="shadowBlurOuter2" stdDeviation="4"/><feColorMatrix in="shadowBlurOuter2" result="shadowMatrixOuter2" values="0 0 0 0 0.109803922 0 0 0 0 0.541176471 0 0 0 0 0.956862745 0 0 0 0.4 0"/><feMorphology in="SourceAlpha" radius="1" result="shadowSpreadOuter3"/><feOffset dy="-2" in="shadowSpreadOuter3" result="shadowOffsetOuter3"/><feGaussianBlur in="shadowOffsetOuter3" result="shadowBlurOuter3" stdDeviation="4"/><feColorMatrix in="shadowBlurOuter3" result="shadowMatrixOuter3" values="0 0 0 0 1 0 0 0 0 1 0 0 0 0 1 0 0 0 0.5 0"/><feMerge><feMergeNode in="shadowMatrixOuter1"/><feMergeNode in="shadowMatrixOuter2"/><feMergeNode in="shadowMatrixOuter3"/></feMerge></filter><filter id="g" width="122.4%" height="131.1%" x="-11.2%" y="-13.7%" filterUnits="objectBoundingBox"><feGaussianBlur in="SourceAlpha" result="shadowBlurInner1" stdDeviation="1.5"/><feOffset dy="1" in="shadowBlurInner1" result="shadowOffsetInner1"/><feComposite in="shadowOffsetInner1" in2="SourceAlpha" k2="-1" k3="1" operator="arithmetic" result="shadowInnerInner1"/><feColorMatrix in="shadowInnerInner1" values="0 0 0 0 1 0 0 0 0 1 0 0 0 0 1 0 0 0 1 0"/></filter><path id="a" d="M166.374834,50 L347.625166,50 C387.743509,50 402.29139,54.1771525 416.958057,62.0209717 C431.624723,69.8647908 443.135209,81.3752767 450.979028,96.0419433 C458.822847,110.70861 463,125.256491 463,165.374834 L463,346.625166 C463,386.743509 458.822847,401.29139 450.979028,415.958057 C443.135209,430.624723 431.624723,442.135209 416.958057,449.979028 C402.29139,457.822847 387.743509,462 347.625166,462 L166.374834,462 C126.256491,462 111.70861,457.822847 97.0419433,449.979028 C82.3752767,442.135209 70.8647908,430.624723 63.0209717,415.958057 C55.1771525,401.29139 51,386.743509 51,346.625166 L51,165.374834 C51,125.256491 55.1771525,110.70861 63.0209717,96.0419433 C70.8647908,81.3752767 82.3752767,69.8647908 97.0419433,62.0209717 C111.70861,54.1771525 126.256491,50 166.374834,50 Z"/><path id="e" d="M332.504064,277.254773 C342.449854,277.254773 351.560644,279.722665 359.836432,284.658449 C368.11222,289.594233 374.699451,296.181464 379.598124,304.420141 C384.496797,312.658818 386.946133,321.788164 386.946133,331.808176 C386.946133,339.230408 385.517354,346.225862 382.659795,352.794537 C379.802235,359.363212 375.868453,365.171108 370.858446,370.218226 C365.84844,375.265343 360.040543,379.217682 353.434757,382.075241 C346.828971,384.9328 339.852073,386.36158 332.504064,386.36158 C325.00761,386.36158 317.975045,384.9328 311.40637,382.075241 C304.837695,379.217682 299.048354,375.283899 294.038348,370.273892 C289.028341,365.263886 285.094558,359.45599 282.236999,352.850203 C279.37944,346.244417 277.95066,339.230408 277.95066,331.808176 C277.95066,321.788164 280.418552,312.658818 285.354337,304.420141 C290.290121,296.181464 296.877351,289.594233 305.116029,284.658449 C313.354706,279.722665 322.484051,277.254773 332.504064,277.254773 Z M321.78436,292.170678 C318.870408,291.37181 315.986599,291.351839 313.132936,292.110763 C310.279272,292.869687 307.767244,294.347593 305.596852,296.544479 C303.386267,298.781309 301.909195,301.287756 301.165634,304.063822 C300.422074,306.839887 300.462267,309.655896 301.286212,312.511849 C302.110157,315.367801 303.768095,318.01405 306.260027,320.450597 L340.503992,354.302619 C342.674384,356.459562 345.19646,357.567991 348.07022,357.627906 C350.94398,357.687821 353.44596,356.639307 355.57616,354.482364 C357.54559,352.485194 358.540353,350.028676 358.560449,347.112809 C358.580545,344.196941 357.485301,341.660536 355.274717,339.503593 L331.943001,316.196626 C331.018575,315.277928 329.903234,314.788622 328.59698,314.728707 C327.290725,314.668792 326.195481,315.098183 325.311247,316.016881 C324.427013,316.975522 324.004993,318.073965 324.045185,319.31221 C324.085378,320.550455 324.567687,321.628927 325.492113,322.547625 L348.823829,345.734762 C349.145368,346.094252 349.306138,346.453743 349.306138,346.813233 C349.306138,347.172724 349.165465,347.492271 348.884118,347.771875 C348.642963,348.091422 348.321423,348.251195 347.919499,348.251195 C347.517574,348.251195 347.155842,348.07145 346.834303,347.711959 L312.891781,313.979768 C311.324276,312.461919 310.349609,310.634509 309.96778,308.497538 C309.585952,306.360567 310.218983,304.513185 311.866874,302.955393 C313.554956,301.397601 315.464098,300.788464 317.594297,301.127983 C319.724497,301.467502 321.553253,302.396185 323.080566,303.914034 L357.686263,338.365207 C360.660505,341.321017 362.127529,344.53646 362.087336,348.011535 C362.047144,351.48661 360.760986,354.502335 358.228862,357.058712 C355.656545,359.615089 352.611967,360.913249 349.095128,360.953193 C345.578289,360.993136 342.352845,359.575146 339.418796,356.699222 L314.037266,331.534887 C313.112839,330.656133 312.007547,330.196784 310.721389,330.15684 C309.435231,330.116897 308.329938,330.556274 307.405512,331.474972 C306.521278,332.353727 306.079161,333.472142 306.079161,334.830217 C306.079161,336.188292 306.501182,337.306707 307.345223,338.185461 L332.90762,363.709286 C336.042631,366.824871 339.539374,368.871969 343.397848,369.850582 C347.256323,370.829195 351.084654,370.809224 354.88284,369.790667 C358.681027,368.772111 362.047144,366.804899 364.981193,363.889032 C367.915241,360.973164 369.904767,357.627906 370.949771,353.853255 C371.994775,350.078605 372.014871,346.273998 371.01006,342.439432 C370.005249,338.604867 367.915241,335.129792 364.740038,332.014208 L329.772609,297.0238 C327.361062,294.587253 324.698312,292.969546 321.78436,292.170678 Z M307.676699,167.702633 C319.106935,167.702633 327.828058,170.671525 333.840065,176.609311 C339.852073,182.547096 342.858077,191.193996 342.858077,202.550011 L342.858077,263.115422 C341.150964,262.74431 339.425295,262.484532 337.68107,262.336087 C335.936846,262.187643 334.174066,262.11342 332.39273,262.11342 C330.685617,262.11342 328.959948,262.187643 327.215724,262.336087 C325.471499,262.484532 323.74583,262.74431 322.038717,263.115422 L322.038717,203.552012 C322.038717,202.996281 322.021728,202.455814 321.987751,201.930613 L261.612709,256.219422 L285.744004,280.260777 C283.36889,282.413224 281.160776,284.714116 279.119662,287.163452 C277.078548,289.612789 275.278657,292.173459 273.719988,294.845462 L247.601322,268.81872 L233.639937,281.374112 C230.374155,284.343004 227.071262,286.532563 223.731258,287.942787 C220.391253,289.353011 216.828582,290.058123 213.043244,290.058123 C209.332128,290.058123 205.788012,289.353011 202.410897,287.942787 C199.033782,286.532563 195.712333,284.343004 192.446551,281.374112 L178.567054,268.866129 L114.960852,332.474824 C116.16524,332.698393 117.463331,332.810178 118.855123,332.810178 L262.809308,332.810178 C262.88353,336.74396 263.254642,340.436521 263.922642,343.887859 C264.590643,347.339196 265.518422,350.660645 266.705979,353.852205 L118.521123,353.852205 C107.090886,353.852205 98.3697636,350.901868 92.3577559,345.001193 C86.3457482,339.100519 83.3397443,330.435063 83.3397443,319.004827 L83.3397443,202.550011 C83.3397443,191.193996 86.2344147,182.547096 92.0237555,176.609311 C97.8130962,170.671525 105.866218,167.702633 116.18312,167.702633 L307.676699,167.702633 Z M104.209579,201.850954 C104.175929,202.366232 104.158725,202.89614 104.158725,203.440679 L104.158725,316.566698 L164.568084,256.24877 L104.209579,201.850954 Z M307.342698,188.74466 L118.855123,188.74466 C118.488025,188.74466 118.127445,188.752436 117.773384,188.76799 L203.913899,266.344092 C206.808569,269.016096 209.851684,270.352098 213.043244,270.352098 C216.234804,270.352098 219.31503,269.016096 222.283922,266.344092 L308.424438,188.76799 C308.070376,188.752436 307.709797,188.74466 307.342698,188.74466 Z"/><linearGradient id="c" x1="0%" x2="0%" y1="100%" y2="0%"><stop offset="0%" stop-color="#1BC9FC"/><stop offset="100%" stop-color="#1C70F1"/></linearGradient></defs><g fill="none" fill-rule="evenodd"><g fill-rule="nonzero"><use xlink:href="#a" fill="#000" filter="url(#b)"/><use xlink:href="#a" fill="url(#c)"/><use xlink:href="#a" fill="#000" filter="url(#d)"/></g><g fill-rule="nonzero" transform="matrix(-1 0 0 1 470.286 0)"><use xlink:href="#e" fill="#000" filter="url(#f)"/><use xlink:href="#e" fill="#F5FCFF"/><use xlink:href="#e" fill="#F5FCFF"/><use xlink:href="#e" fill="#000" filter="url(#g)"/></g></g></svg>