<svg xmlns="http://www.w3.org/2000/svg" xmlns:xlink="http://www.w3.org/1999/xlink" width="365" height="365" viewBox="0 0 365 365"><defs><filter id="b" width="111%" height="108.2%" x="-5.5%" y="-4.1%" filterUnits="objectBoundingBox"><feOffset in="SourceAlpha" result="shadowOffsetOuter1"/><feGaussianBlur in="shadowOffsetOuter1" result="shadowBlurOuter1" stdDeviation="2"/><feColorMatrix in="shadowBlurOuter1" values="0 0 0 0 0.552677763 0 0 0 0 0.552677763 0 0 0 0 0.552677763 0 0 0 0.5 0"/></filter><filter id="e" width="111%" height="108.2%" x="-5.5%" y="-4.1%" filterUnits="objectBoundingBox"><feOffset in="SourceAlpha" result="shadowOffsetOuter1"/><feGaussianBlur in="shadowOffsetOuter1" result="shadowBlurOuter1" stdDeviation="2"/><feColorMatrix in="shadowBlurOuter1" values="0 0 0 0 0.552677763 0 0 0 0 0.552677763 0 0 0 0 0.552677763 0 0 0 0.5 0"/></filter><path id="a" d="M54.3112335,147.132416 C65.6365407,147.132416 75.3652293,144.140554 83.4972992,138.15683 C91.6293691,132.173106 97.8704631,123.687859 102.220581,112.701088 C106.570699,101.714317 108.745758,88.6857961 108.745758,73.6155243 L108.745758,73.4182587 C108.745758,58.3479869 106.570699,45.3194656 102.220581,34.332695 C97.8704631,23.3459244 91.6293691,14.8771159 83.4972992,8.92626953 C75.3652293,2.97542318 65.6365407,0 54.3112335,0 C42.9859263,0 33.267512,2.97542318 25.1559906,8.92626953 C17.0444692,14.8771159 10.8239237,23.3459244 6.49435425,34.332695 C2.16478475,45.3194656 0,58.3479869 0,73.4182587 L0,73.6155243 C0,88.6857961 2.16478475,101.714317 6.49435425,112.701088 C10.8239237,123.687859 17.0444692,132.173106 25.1559906,138.15683 C33.267512,144.140554 42.9859263,147.132416 54.3112335,147.132416 Z M54.3112335,128.590988 C47.560023,128.590988 41.7977091,126.378942 37.024292,121.954849 C32.2508748,117.530757 28.6127625,111.207982 26.1099548,102.986526 C23.6071472,94.7650706 22.3557434,84.9747365 22.3557434,73.6155243 L22.3557434,73.4182587 C22.3557434,62.0590464 23.6071472,52.2851512 26.1099548,44.0965729 C28.6127625,35.9079946 32.2508748,29.6150157 37.024292,25.2176361 C41.7977091,20.8202566 47.560023,18.6215668 54.3112335,18.6215668 C61.0614166,18.6215668 66.833491,20.8202566 71.6274567,25.2176361 C76.4214223,29.6150157 80.0834223,35.9079946 82.6134567,44.0965729 C85.1434911,52.2851512 86.4085083,62.0590464 86.4085083,73.4182587 L86.4085083,73.6155243 C86.4085083,84.9747365 85.1434911,94.7650706 82.6134567,102.986526 C80.0834223,111.207982 76.4214223,117.530757 71.6274567,121.954849 C66.833491,126.378942 61.0614166,128.590988 54.3112335,128.590988 Z"/><path id="d" d="M180.466213,147.132416 C191.79152,147.132416 201.520209,144.140554 209.652278,138.15683 C217.784348,132.173106 224.025442,123.687859 228.37556,112.701088 C232.725678,101.714317 234.900737,88.6857961 234.900737,73.6155243 L234.900737,73.4182587 C234.900737,58.3479869 232.725678,45.3194656 228.37556,34.332695 C224.025442,23.3459244 217.784348,14.8771159 209.652278,8.92626953 C201.520209,2.97542318 191.79152,0 180.466213,0 C169.140906,0 159.422491,2.97542318 151.31097,8.92626953 C143.199448,14.8771159 136.978903,23.3459244 132.649333,34.332695 C128.319764,45.3194656 126.154979,58.3479869 126.154979,73.4182587 L126.154979,73.6155243 C126.154979,88.6857961 128.319764,101.714317 132.649333,112.701088 C136.978903,123.687859 143.199448,132.173106 151.31097,138.15683 C159.422491,144.140554 169.140906,147.132416 180.466213,147.132416 Z M180.466213,128.590988 C173.715002,128.590988 167.952688,126.378942 163.179271,121.954849 C158.405854,117.530757 154.767742,111.207982 152.264934,102.986526 C149.762126,94.7650706 148.510723,84.9747365 148.510723,73.6155243 L148.510723,73.4182587 C148.510723,62.0590464 149.762126,52.2851512 152.264934,44.0965729 C154.767742,35.9079946 158.405854,29.6150157 163.179271,25.2176361 C167.952688,20.8202566 173.715002,18.6215668 180.466213,18.6215668 C187.216396,18.6215668 192.98847,20.8202566 197.782436,25.2176361 C202.576402,29.6150157 206.238402,35.9079946 208.768436,44.0965729 C211.29847,52.2851512 212.563488,62.0590464 212.563488,73.4182587 L212.563488,73.6155243 C212.563488,84.9747365 211.29847,94.7650706 208.768436,102.986526 C206.238402,111.207982 202.576402,117.530757 197.782436,121.954849 C192.98847,126.378942 187.216396,128.590988 180.466213,128.590988 Z"/><linearGradient id="c" x1="50%" x2="50%" y1="0%" y2="100%"><stop offset="0%" stop-color="#D8D8D8"/><stop offset="81.272%" stop-color="silver"/><stop offset="100%" stop-color="#767777"/></linearGradient></defs><g fill="none" fill-rule="evenodd"><rect width="365" height="365"/><g fill-rule="nonzero" transform="translate(65.55 109.27)"><use xlink:href="#a" fill="#000" filter="url(#b)"/><use xlink:href="#a" fill="#2E2E2E"/><use xlink:href="#a" fill="url(#c)"/><use xlink:href="#d" fill="#000" filter="url(#e)"/><use xlink:href="#d" fill="#2E2E2E"/><use xlink:href="#d" fill="url(#c)"/></g></g></svg>