<svg xmlns="http://www.w3.org/2000/svg" xmlns:xlink="http://www.w3.org/1999/xlink" width="365" height="365" viewBox="0 0 365 365"><defs><linearGradient id="c" x1="50%" x2="50%" y1="0%" y2="100%"><stop offset="0%" stop-color="#D8D8D8"/><stop offset="81.272%" stop-color="silver"/><stop offset="100%" stop-color="#767777"/></linearGradient><filter id="b" width="112.2%" height="108.3%" x="-6.1%" y="-4.1%" filterUnits="objectBoundingBox"><feOffset in="SourceAlpha" result="shadowOffsetOuter1"/><feGaussianBlur in="shadowOffsetOuter1" result="shadowBlurOuter1" stdDeviation="2"/><feColorMatrix in="shadowBlurOuter1" values="0 0 0 0 0.552677763 0 0 0 0 0.552677763 0 0 0 0 0.552677763 0 0 0 0.5 0"/></filter><path id="a" d="M1.1774292,144.729782 L98.5834961,144.729782 L98.5834961,126.054276 L23.4052582,126.054276 L30.8751526,132.542465 L30.8751526,118.266907 L23.3867645,132.542465 L63.2405853,93.40065 C71.7815704,84.9644623 78.4428813,77.8166656 83.2245178,71.9572601 C88.0061544,66.0978546 91.3881811,60.7293015 93.3705978,55.8516006 C95.3530146,50.9738998 96.344223,45.8349762 96.344223,40.4348297 L96.344223,40.2375641 C96.344223,32.5668081 94.3422852,25.6943614 90.3384094,19.620224 C86.3345337,13.5460866 80.8134079,8.75751495 73.775032,5.25450897 C66.7366562,1.75150299 58.6454264,0 49.5013428,0 C40.2442424,0 31.8650767,1.88763682 24.3638458,5.66291046 C16.8626149,9.4381841 10.9266663,14.6364415 6.55599976,21.2576828 C2.18533325,27.8789241 0,35.4322968 0,43.9178009 L0,44.5820312 L20.99646,44.5820312 L21.0149536,43.9440002 C21.0632426,39.1284587 22.3267186,34.7909266 24.8053818,30.9314041 C27.2840449,27.0718816 30.6799418,24.0027059 34.9930725,21.723877 C39.3062032,19.445048 44.2229462,18.3056335 49.7433014,18.3056335 C54.5876109,18.3056335 58.8632406,19.2958145 62.5701904,21.2761765 C66.2771403,23.2565384 69.1865514,25.9820404 71.2984238,29.4526825 C73.4102961,32.9233246 74.4662323,36.9169261 74.4662323,41.4334869 L74.4662323,41.6307526 C74.4662323,45.3346202 73.8492635,48.8417358 72.6153259,52.1520996 C71.3813883,55.4624634 69.1133474,59.2015203 65.811203,63.3692703 C62.5090586,67.5370204 57.6904348,72.7997487 51.3553314,79.1574554 L1.1774292,129.515671 L1.1774292,144.729782 Z"/></defs><g fill="none" fill-rule="evenodd"><rect width="365" height="365"/><g fill-rule="nonzero" transform="translate(134.288 109.27)"><use xlink:href="#a" fill="#000" filter="url(#b)"/><use xlink:href="#a" fill="#2E2E2E"/><use xlink:href="#a" fill="url(#c)"/></g></g></svg>