<svg xmlns="http://www.w3.org/2000/svg" xmlns:xlink="http://www.w3.org/1999/xlink" width="365" height="365" viewBox="0 0 365 365"><defs><linearGradient id="c" x1="50%" x2="50%" y1="0%" y2="100%"><stop offset="0%" stop-color="#D8D8D8"/><stop offset="81.272%" stop-color="silver"/><stop offset="100%" stop-color="#767777"/></linearGradient><filter id="b" width="111.6%" height="108.2%" x="-5.8%" y="-4.1%" filterUnits="objectBoundingBox"><feOffset in="SourceAlpha" result="shadowOffsetOuter1"/><feGaussianBlur in="shadowOffsetOuter1" result="shadowBlurOuter1" stdDeviation="2"/><feColorMatrix in="shadowBlurOuter1" values="0 0 0 0 0.552677763 0 0 0 0 0.552677763 0 0 0 0 0.552677763 0 0 0 0.5 0"/></filter><path id="a" d="M52.246109,147.132416 C62.3590546,147.132416 71.2876358,145.343669 79.0318527,141.766174 C86.7760696,138.18868 92.848409,133.249591 97.2488708,126.948906 C101.649333,120.648221 103.849564,113.449824 103.849564,105.353714 L103.849564,105.156448 C103.849564,95.198644 100.652987,87.1970571 94.2598343,81.1516876 C87.8666814,75.1063182 79.4394836,71.6320801 68.978241,70.7289734 L68.978241,70.2620087 C74.7636719,69.0486196 79.915952,66.9536997 84.4350815,63.9772491 C88.9542109,61.0007985 92.5078176,57.2530085 95.0959015,52.7338791 C97.6839854,48.2147497 98.9780273,43.0172628 98.9780273,37.1414185 L98.9780273,36.9441528 C98.9780273,29.614502 97.0451838,23.1864166 93.1794968,17.6598969 C89.3138097,12.1333771 83.8633194,7.80843099 76.8280258,4.68505859 C69.7927322,1.5616862 61.5268402,0 52.0303497,0 C42.7557831,0 34.5800476,1.64105479 27.5031433,4.92316437 C20.426239,8.20527395 14.7725754,12.7968369 10.5421524,18.6978531 C6.31172943,24.5988693 3.82048035,31.5193481 3.06840515,39.4592896 L2.96977234,40.5365448 L23.8121185,40.5365448 L23.9107513,39.5671692 C24.4008331,35.1769816 25.8644002,31.3780772 28.3014526,28.1704559 C30.738505,24.9628347 33.9928741,22.4913635 38.0645599,20.7560425 C42.1362457,19.0207214 46.791509,18.1530609 52.0303497,18.1530609 C57.4068654,18.1530609 61.9845581,19.0042826 65.7634277,20.7067261 C69.5422974,22.4091695 72.4175466,24.8672841 74.3891754,28.0810699 C76.3608042,31.2948558 77.3466187,35.1954753 77.3466187,39.7829285 L77.3466187,39.9801941 C77.3466187,44.3765462 76.2054062,48.2876968 73.9229813,51.7136459 C71.6405563,55.139595 68.4501444,57.827596 64.3517456,59.7776489 C60.2533468,61.7277018 55.4968821,62.7027283 50.0823517,62.7027283 L33.453476,62.7027283 L33.453476,79.9927521 L50.7280884,79.9927521 C60.2163595,79.9927521 67.6862539,82.1444372 73.1377716,86.4478073 C78.5892893,90.7511775 81.3150482,96.9200948 81.3150482,104.954559 L81.3150482,105.151825 C81.3150482,109.739278 80.1024297,113.799662 77.6771927,117.332977 C75.2519557,120.866292 71.8604253,123.630323 67.5026016,125.625069 C63.1447779,127.619815 58.0531158,128.617187 52.2276154,128.617187 C46.3497162,128.617187 41.1853638,127.698926 36.7345581,125.862404 C32.2837524,124.025881 28.7337418,121.491994 26.0845261,118.260742 C23.4353104,115.02949 21.8600108,111.314835 21.3586273,107.116776 L21.2415009,106.09346 L0,106.09346 L0.0986328125,107.295547 C0.768513997,115.044388 3.3054835,121.914266 7.70954132,127.905182 C12.1135991,133.896098 18.1006622,138.598366 25.6707306,142.011986 C33.240799,145.425606 42.0992584,147.132416 52.246109,147.132416 Z"/></defs><g fill="none" fill-rule="evenodd"><rect width="365" height="365"/><g fill-rule="nonzero" transform="translate(130.34 109.27)"><use xlink:href="#a" fill="#000" filter="url(#b)"/><use xlink:href="#a" fill="#2E2E2E"/><use xlink:href="#a" fill="url(#c)"/></g></g></svg>