<svg xmlns="http://www.w3.org/2000/svg" xmlns:xlink="http://www.w3.org/1999/xlink" width="365" height="365" viewBox="0 0 365 365"><defs><linearGradient id="c" x1="50%" x2="50%" y1="0%" y2="100%"><stop offset="0%" stop-color="#D8D8D8"/><stop offset="81.272%" stop-color="silver"/><stop offset="100%" stop-color="#767777"/></linearGradient><filter id="b" width="110.7%" height="108.4%" x="-5.4%" y="-4.2%" filterUnits="objectBoundingBox"><feOffset in="SourceAlpha" result="shadowOffsetOuter1"/><feGaussianBlur in="shadowOffsetOuter1" result="shadowBlurOuter1" stdDeviation="2"/><feColorMatrix in="shadowBlurOuter1" values="0 0 0 0 0.552677763 0 0 0 0 0.552677763 0 0 0 0 0.552677763 0 0 0 0.5 0"/></filter><path id="a" d="M71.2375488,142.327148 L92.4867554,142.327148 L92.4867554,114.021072 L112.119308,114.021072 L112.119308,95.4164581 L92.4867554,95.4164581 L92.4867554,0 L60.4634552,0 C56.4534149,6.31147257 52.4269358,12.6257706 48.3840179,18.942894 C44.3411001,25.2600174 40.3117956,31.5773977 36.2961044,37.8950348 C32.2804133,44.2126719 28.2511088,50.5272268 24.2081909,56.8386993 C20.165273,63.1501719 16.1223551,69.4644699 12.0794373,75.7815933 C8.03651937,82.0987167 4.01004028,88.4130147 0,94.7244873 L0,114.021072 L71.2375488,114.021072 L71.2375488,142.327148 Z M20.6127167,95.7246857 L20.6127167,95.1852875 C23.9590403,89.9926809 27.3020248,84.8136876 30.6416702,79.6483078 C33.9813156,74.482928 37.3373998,69.3008525 40.7099228,64.1020813 C44.0824458,58.9033101 47.4387868,53.7212346 50.7789459,48.5558548 C54.119105,43.390475 57.4590073,38.2250951 60.7986526,33.0597153 C64.138298,27.8943354 67.4812826,22.7153422 70.8276062,17.5227356 L71.4548492,17.5227356 L71.4548492,95.7246857 L20.6127167,95.7246857 Z"/></defs><g fill="none" fill-rule="evenodd"><rect width="365" height="365"/><g fill-rule="nonzero" transform="translate(127.83 111.673)"><use xlink:href="#a" fill="#000" filter="url(#b)"/><use xlink:href="#a" fill="#2E2E2E"/><use xlink:href="#a" fill="url(#c)"/></g></g></svg>