<svg xmlns="http://www.w3.org/2000/svg" xmlns:xlink="http://www.w3.org/1999/xlink" width="365" height="365" viewBox="0 0 365 365"><defs><linearGradient id="c" x1="50%" x2="50%" y1="0%" y2="100%"><stop offset="0%" stop-color="#D8D8D8"/><stop offset="81.272%" stop-color="silver"/><stop offset="100%" stop-color="#767777"/></linearGradient><filter id="b" width="111.7%" height="108.3%" x="-5.8%" y="-4.1%" filterUnits="objectBoundingBox"><feOffset in="SourceAlpha" result="shadowOffsetOuter1"/><feGaussianBlur in="shadowOffsetOuter1" result="shadowBlurOuter1" stdDeviation="2"/><feColorMatrix in="shadowBlurOuter1" values="0 0 0 0 0.552677763 0 0 0 0 0.552677763 0 0 0 0 0.552677763 0 0 0 0.5 0"/></filter><path id="a" d="M50.4861298,144.729782 C60.7110647,144.729782 69.7549744,142.660034 77.6178589,138.520538 C85.4807434,134.381042 91.6393865,128.622581 96.0937881,121.245155 C100.54819,113.867729 102.775391,105.366557 102.775391,95.7416382 L102.775391,95.5443726 C102.775391,86.4639893 100.759326,78.4107742 96.7271957,71.3847275 C92.6950658,64.3586807 87.1598129,58.8221436 80.1214371,54.775116 C73.0830612,50.7280884 65.0118663,48.7045746 55.9078522,48.7045746 C51.2330678,48.7045746 46.8482742,49.2876383 42.7534714,50.4537659 C38.6586685,51.6198934 34.9884491,53.3089803 31.7428131,55.5210266 C28.4971771,57.7330729 25.798645,60.4500987 23.6472168,63.6721039 L23.1802521,63.6721039 L27.5247192,18.6739655 L94.4886932,18.6739655 L94.4886932,0 L9.5997467,0 L2.59065247,82.0609589 L22.0166931,82.0609589 C22.9002787,80.4653676 23.9205119,78.9861323 25.0773926,77.6232529 C26.2342733,76.2603734 27.4615326,75.0051168 28.7591705,73.8574829 C31.6503448,71.3022766 34.9668732,69.3902384 38.7087555,68.1213684 C42.4506378,66.8524984 46.5048574,66.2180634 50.8714142,66.2180634 C56.7493134,66.2180634 61.9555333,67.4902725 66.4900742,70.0346909 C71.024615,72.5791092 74.5926056,76.0839132 77.194046,80.5491028 C79.7954865,85.0142924 81.0962067,90.1411438 81.0962067,95.929657 L81.0962067,96.1269226 C81.0962067,102.023315 79.808843,107.236984 77.2341156,111.767929 C74.6593882,116.298874 71.0811234,119.839638 66.499321,122.390221 C61.9175186,124.940804 56.633728,126.216095 50.6479492,126.216095 C45.4029439,126.216095 40.6775589,125.221804 36.4717941,123.233223 C32.2660294,121.244642 28.8398234,118.525561 26.1931763,115.075981 C23.5465291,111.626401 21.9031626,107.772273 21.2630768,103.513596 L21.1459503,102.759979 L0,102.759979 L0.0986328125,103.971313 C0.773651123,111.749949 3.29341125,118.712039 7.65791321,124.857582 C12.0224152,131.003126 17.8684642,135.851545 25.1960602,139.40284 C32.5236562,142.954135 40.9536794,144.729782 50.4861298,144.729782 Z"/></defs><g fill="none" fill-rule="evenodd"><rect width="365" height="365"/><g fill-rule="nonzero" transform="translate(133.967 111.673)"><use xlink:href="#a" fill="#000" filter="url(#b)"/><use xlink:href="#a" fill="#2E2E2E"/><use xlink:href="#a" fill="url(#c)"/></g></g></svg>