<svg xmlns="http://www.w3.org/2000/svg" xmlns:xlink="http://www.w3.org/1999/xlink" width="365" height="365" viewBox="0 0 365 365"><defs><linearGradient id="c" x1="50%" x2="50%" y1="0%" y2="100%"><stop offset="0%" stop-color="#D8D8D8"/><stop offset="81.272%" stop-color="silver"/><stop offset="100%" stop-color="#767777"/></linearGradient><filter id="b" width="111.1%" height="108.2%" x="-5.6%" y="-4.1%" filterUnits="objectBoundingBox"><feOffset in="SourceAlpha" result="shadowOffsetOuter1"/><feGaussianBlur in="shadowOffsetOuter1" result="shadowBlurOuter1" stdDeviation="2"/><feColorMatrix in="shadowBlurOuter1" values="0 0 0 0 0.552677763 0 0 0 0 0.552677763 0 0 0 0 0.552677763 0 0 0 0.5 0"/></filter><path id="a" d="M56.0218964,147.132416 C66.0547028,147.132416 74.9786606,145.02979 82.7937698,140.824539 C90.6088791,136.619288 96.7721456,130.844388 101.283569,123.49984 C105.794993,116.155291 108.050705,107.748128 108.050705,98.2783508 L108.050705,98.0810852 C108.050705,89.1085815 106.032071,81.0987752 101.994804,74.0516663 C97.9575373,67.0045573 92.4181747,61.4605713 85.3767166,57.4197083 C78.3352585,53.3788452 70.2532756,51.3584137 61.1307678,51.3584137 C54.6990865,51.3584137 48.8712743,52.3791606 43.6473312,54.4206543 C38.4233882,56.462148 33.944842,59.2058868 30.2116928,62.6518707 C26.4785436,66.0978546 23.664683,69.9609731 21.7701111,74.2412262 L19.6803284,74.2412262 L19.6803284,98.3893127 L25.6352844,98.3893127 L25.6352844,98.2721863 C25.6352844,92.6686096 26.9660568,87.6804606 29.6276016,83.3077393 C32.2891464,78.9350179 35.9241765,75.5062434 40.532692,73.0214157 C45.1412074,70.536588 50.3130086,69.2941742 56.0480957,69.2941742 C61.8129781,69.2941742 66.9503606,70.5499446 71.4602432,73.0614853 C75.9701258,75.573026 79.5155131,79.0452092 82.096405,83.478035 C84.677297,87.9108607 85.9677429,92.9886525 85.9677429,98.7114105 L85.9677429,98.9086761 C85.9677429,104.40951 84.6207886,109.397146 81.9268799,113.871582 C79.2329712,118.346018 75.5979411,121.895772 71.0217896,124.520844 C66.445638,127.145915 61.3557739,128.45845 55.7521973,128.45845 C50.1373189,128.45845 45.041804,127.118945 40.4656525,124.439934 C35.8895009,121.760923 32.273735,118.144129 29.6183548,113.589554 C26.9629745,109.034978 25.6352844,103.968231 25.6352844,98.3893127 L21.3031464,74.9039154 C21.3031464,74.1261546 21.3062286,73.358668 21.3123932,72.6014557 C21.3185577,71.8442434 21.3545176,71.0824076 21.4202728,70.3159485 C21.7315826,60.8995972 23.119634,52.2846375 25.5844269,44.4710693 C28.0492198,36.6575012 31.823466,30.3912354 36.9071655,25.6722717 C41.9908651,20.9533081 48.5889893,18.5938263 56.7015381,18.5938263 C61.2170715,18.5938263 65.2476603,19.3060888 68.7933044,20.7306137 C72.3389486,22.1551387 75.3572667,24.154508 77.848259,26.7287216 C80.3392512,29.3029353 82.2325389,32.3700562 83.5281219,35.9300842 L83.9057007,36.924118 L106.115036,36.924118 L105.854584,35.7682648 C104.337077,28.7077993 101.32107,22.4836578 96.8065643,17.0958405 C92.2920583,11.7080231 86.6304321,7.51176198 79.8216858,4.50705719 C73.0129395,1.5023524 65.3596497,0 56.8618164,0 C45.011495,0 34.836647,2.9887797 26.3372726,8.96633911 C17.8378983,14.9438985 11.3235092,23.5709305 6.79410553,34.847435 C2.26470184,46.1239395 0,59.6728516 0,75.4941711 L0,75.6914368 C0,88.4859619 1.52855174,99.4038951 4.58565521,108.445236 C7.64275869,117.486577 11.8061422,124.862462 17.0758057,130.572891 C22.3454692,136.28332 28.3232854,140.470848 35.0092545,143.135475 C41.6952235,145.800102 48.6994375,147.132416 56.0218964,147.132416 Z"/></defs><g fill="none" fill-rule="evenodd"><rect width="365" height="365"/><g fill-rule="nonzero" transform="translate(128.003 109.27)"><use xlink:href="#a" fill="#000" filter="url(#b)"/><use xlink:href="#a" fill="#2E2E2E"/><use xlink:href="#a" fill="url(#c)"/></g></g></svg>