<svg xmlns="http://www.w3.org/2000/svg" xmlns:xlink="http://www.w3.org/1999/xlink" width="365" height="365" viewBox="0 0 365 365"><defs><linearGradient id="c" x1="50%" x2="50%" y1="0%" y2="100%"><stop offset="0%" stop-color="#D8D8D8"/><stop offset="81.272%" stop-color="silver"/><stop offset="100%" stop-color="#767777"/></linearGradient><filter id="b" width="111.2%" height="108.2%" x="-5.6%" y="-4.1%" filterUnits="objectBoundingBox"><feOffset in="SourceAlpha" result="shadowOffsetOuter1"/><feGaussianBlur in="shadowOffsetOuter1" result="shadowBlurOuter1" stdDeviation="2"/><feColorMatrix in="shadowBlurOuter1" values="0 0 0 0 0.552677763 0 0 0 0 0.552677763 0 0 0 0 0.552677763 0 0 0 0.5 0"/></filter><path id="a" d="M53.7625885,147.132416 C64.281367,147.132416 73.5906092,145.389903 81.6903152,141.904877 C89.7900213,138.419851 96.1210149,133.591466 100.683296,127.419724 C105.245577,121.247981 107.526718,114.147446 107.526718,106.118118 L107.526718,105.920853 C107.526718,99.9607595 106.199285,94.4938304 103.544418,89.5200653 C100.889552,84.5463003 97.2105993,80.3397649 92.5075607,76.9004593 C87.8045222,73.4611537 82.3476105,71.0813802 76.1368256,69.7611389 L76.1368256,69.2941742 C84.1055349,66.9937693 90.471461,63.0548782 95.2346039,57.4775009 C99.9977468,51.9001236 102.379318,45.3392436 102.379318,37.7948608 L102.379318,37.5975952 C102.379318,30.3706868 100.298525,23.931043 96.13694,18.2786636 C91.9753545,12.6262843 86.23924,8.1667455 78.9285965,4.9000473 C71.617953,1.6333491 63.2292837,0 53.7625885,0 C44.3503469,0 35.9755478,1.6333491 28.6381912,4.9000473 C21.3008347,8.1667455 15.5511068,12.6262843 11.3890076,18.2786636 C7.22690837,23.931043 5.14585876,30.3706868 5.14585876,37.5975952 L5.14585876,37.7948608 C5.14585876,45.3392436 7.54078674,51.9001236 12.3306427,57.4775009 C17.1204987,63.0548782 23.4735819,66.9937693 31.3898926,69.2941742 L31.3898926,69.7611389 C25.2315063,71.0813802 19.7876943,73.4611537 15.0584564,76.9004593 C10.3292185,80.3397649 6.63716634,84.5463003 3.9822998,89.5200653 C1.32743327,94.4938304 0,99.9607595 0,105.920853 L0,106.118118 C0,114.147446 2.29449717,121.247981 6.88349152,127.419724 C11.4724859,133.591466 17.8032227,138.419851 25.8757019,141.904877 C33.9481812,145.389903 43.24381,147.132416 53.7625885,147.132416 Z M53.7625885,129.387756 C47.7470144,129.387756 42.4067154,128.328738 37.7416916,126.210701 C33.0766678,124.092664 29.4120992,121.174263 26.7479858,117.455498 C24.0838725,113.736732 22.7518158,109.487559 22.7518158,104.707977 L22.7518158,104.510712 C22.7518158,99.6777039 24.0674337,95.3912862 26.6986694,91.6514587 C29.3299052,87.9116313 32.978035,84.9693425 37.6430588,82.8245926 C42.3080826,80.6798426 47.6812592,79.6074677 53.7625885,79.6074677 C59.8439178,79.6074677 65.2173513,80.6798426 69.8828888,82.8245926 C74.5484263,84.9693425 78.1968129,87.9116313 80.8280487,91.6514587 C83.4592845,95.3912862 84.7749023,99.6777039 84.7749023,104.510712 L84.7749023,104.707977 C84.7749023,109.487559 83.4428457,113.736732 80.7787323,117.455498 C78.1146189,121.174263 74.46315,124.092664 69.8243256,126.210701 C65.1855011,128.328738 59.8315887,129.387756 53.7625885,129.387756 Z M53.7625885,61.8165741 C48.500117,61.8165741 43.8677139,60.8803329 39.8653793,59.0078506 C35.8630447,57.1353683 32.7389018,54.5382945 30.4929504,51.216629 C28.2469991,47.8949636 27.1240234,44.0770518 27.1240234,39.7628937 L27.1240234,39.5656281 C27.1240234,35.2524974 28.2500814,31.441007 30.5021973,28.1311569 C32.7543132,24.8213069 35.8815384,22.2329661 39.883873,20.3661346 C43.8862076,18.4993032 48.5124461,17.5658875 53.7625885,17.5658875 C59.0137583,17.5658875 63.6402537,18.4993032 67.6420746,20.3661346 C71.6438955,22.2329661 74.7708639,24.8213069 77.0229797,28.1311569 C79.2750956,31.441007 80.4011536,35.2524974 80.4011536,39.5656281 L80.4011536,39.7628937 C80.4011536,44.0770518 79.2781779,47.8949636 77.0322266,51.216629 C74.7862752,54.5382945 71.6621323,57.1353683 67.6597977,59.0078506 C63.6574631,60.8803329 59.02506,61.8165741 53.7625885,61.8165741 Z"/></defs><g fill="none" fill-rule="evenodd"><rect width="365" height="365"/><g fill-rule="nonzero" transform="translate(129.237 109.27)"><use xlink:href="#a" fill="#000" filter="url(#b)"/><use xlink:href="#a" fill="#2E2E2E"/><use xlink:href="#a" fill="url(#c)"/></g></g></svg>