<svg xmlns="http://www.w3.org/2000/svg" xmlns:xlink="http://www.w3.org/1999/xlink" width="365" height="365" viewBox="0 0 365 365"><defs><linearGradient id="c" x1="50%" x2="50%" y1="0%" y2="100%"><stop offset="0%" stop-color="#D8D8D8"/><stop offset="81.272%" stop-color="silver"/><stop offset="100%" stop-color="#767777"/></linearGradient><filter id="b" width="111.1%" height="108.2%" x="-5.6%" y="-4.1%" filterUnits="objectBoundingBox"><feOffset in="SourceAlpha" result="shadowOffsetOuter1"/><feGaussianBlur in="shadowOffsetOuter1" result="shadowBlurOuter1" stdDeviation="2"/><feColorMatrix in="shadowBlurOuter1" values="0 0 0 0 0.552677763 0 0 0 0 0.552677763 0 0 0 0 0.552677763 0 0 0 0.5 0"/></filter><path id="a" d="M52.0288086,0 C41.9960022,0 33.0720444,2.10262553 25.2569351,6.30787659 C17.4418259,10.5131276 11.2785594,16.2880274 6.76713562,23.632576 C2.25571187,30.9771245 0,39.3842875 0,48.8540649 L0,49.0513306 C0,58.0115051 2.01863352,66.0182292 6.05590057,73.0715027 C10.0931676,80.1247762 15.648969,85.6718445 22.7233047,89.7127075 C29.7976405,93.7535706 37.8631846,95.7740021 46.9199371,95.7740021 C53.3639476,95.7740021 59.2084554,94.7532552 64.4534607,92.7117615 C69.698466,90.6702677 74.1739299,87.9265289 77.8798523,84.480545 C81.5857747,81.0345612 84.3860219,77.1714427 86.2805939,72.8911896 L88.3703766,72.8911896 L88.3703766,48.743103 L82.4154205,48.743103 L82.4154205,48.8602295 C82.4154205,54.4638062 81.0846481,59.4519552 78.4231033,63.8246765 C75.7615585,68.1973979 72.1398849,71.6261724 67.5580826,74.1110001 C62.9762802,76.5958277 57.7911224,77.8382416 52.0026093,77.8382416 C46.2500559,77.8382416 41.1157557,76.5824712 36.5997086,74.0709305 C32.0836614,71.5593898 28.5351919,68.0872065 25.9542999,63.6543808 C23.373408,59.2215551 22.082962,54.1437632 22.082962,48.4210052 L22.082962,48.2237396 C22.082962,42.7105764 23.4299164,37.7198588 26.1238251,33.2515869 C28.8177338,28.783315 32.4527639,25.2366435 37.0289154,22.6115723 C41.6050669,19.9865011 46.694931,18.6739655 52.2985077,18.6739655 C57.9678396,18.6739655 63.0769679,20.013471 67.6258926,22.692482 C72.1748174,25.371493 75.7769699,28.9749298 78.4323502,33.5027924 C81.0877304,38.0306549 82.4154205,43.1107585 82.4154205,48.743103 L86.7475586,72.2285004 C86.7475586,73.0062612 86.7444763,73.7709223 86.7383118,74.5224838 C86.7321472,75.2740453 86.6961873,76.0387065 86.6304321,76.8164673 C86.3314514,86.1670634 84.9464823,94.7655843 82.4755249,102.61203 C80.0045675,110.458476 76.2436778,116.74118 71.1928558,121.460144 C66.1420339,126.179108 59.5274709,128.538589 51.3491669,128.538589 C46.8449351,128.538589 42.8171717,127.826327 39.2658768,126.401802 C35.7145818,124.977277 32.7070516,122.961469 30.2432861,120.354378 C27.7795207,117.747286 25.8726196,114.696604 24.522583,111.202332 L24.1450043,110.208298 L1.93566895,110.208298 L2.19612122,111.364151 C3.72595723,118.424616 6.74530284,124.635401 11.254158,129.996506 C15.7630132,135.35761 21.4349136,139.553871 28.2698593,142.585289 C35.104805,145.616707 42.7444814,147.132416 51.1888885,147.132416 C63.1049652,147.132416 73.2962519,144.143636 81.7627487,138.166077 C90.2292455,132.188517 96.7271957,123.561485 101.256599,112.284981 C105.786003,101.008476 108.050705,87.4595642 108.050705,71.6382446 L108.050705,71.440979 C108.050705,58.6464539 106.522153,47.7285207 103.46505,38.6871796 C100.407946,29.6458384 96.2445628,22.2699534 90.9748993,16.5595245 C85.7052358,10.8490957 79.7274195,6.66156769 73.0414505,3.99694061 C66.3554815,1.33231354 59.3512675,0 52.0288086,0 Z"/></defs><g fill="none" fill-rule="evenodd"><rect width="365" height="365"/><g fill-rule="nonzero" transform="translate(129.946 109.27)"><use xlink:href="#a" fill="#000" filter="url(#b)"/><use xlink:href="#a" fill="#2E2E2E"/><use xlink:href="#a" fill="url(#c)"/></g></g></svg>