<svg xmlns="http://www.w3.org/2000/svg" xmlns:xlink="http://www.w3.org/1999/xlink" width="365" height="365" viewBox="0 0 365 365"><defs><linearGradient id="c" x1="50%" x2="50%" y1="0%" y2="100%"><stop offset="0%" stop-color="#D8D8D8"/><stop offset="81.272%" stop-color="silver"/><stop offset="100%" stop-color="#767777"/></linearGradient><filter id="b" width="105.2%" height="105.1%" x="-2.6%" y="-2.6%" filterUnits="objectBoundingBox"><feOffset in="SourceAlpha" result="shadowOffsetOuter1"/><feGaussianBlur in="shadowOffsetOuter1" result="shadowBlurOuter1" stdDeviation="2"/><feColorMatrix in="shadowBlurOuter1" values="0 0 0 0 0.552677763 0 0 0 0 0.552677763 0 0 0 0 0.552677763 0 0 0 0.5 0"/></filter><path id="a" d="M222.389252,234.960312 C224.790344,234.960312 226.880127,234.125015 228.6586,232.454422 C230.437073,230.783829 231.326309,228.747986 231.326309,226.346893 L231.326309,8.57797241 C231.326309,6.18920898 230.437073,4.16235606 228.6586,2.49741364 C226.880127,0.832471212 224.790344,0 222.389252,0 C219.958364,0 217.85394,0.832471212 216.075981,2.49741364 C214.298022,4.16235606 213.409042,6.18920898 213.409042,8.57797241 L213.409042,226.346893 C213.409042,228.747986 214.298022,230.783829 216.075981,232.454422 C217.85394,234.125015 219.958364,234.960312 222.389252,234.960312 Z M171.822983,108.283417 C179.447505,108.283417 185.344411,106.228823 189.513702,102.119637 C193.682994,98.0104497 195.767639,92.2093506 195.767639,84.7163391 L195.767639,49.4335327 C195.767639,41.9528503 193.682994,36.1579158 189.513702,32.0487289 C185.344411,27.9395421 179.447505,25.8849487 171.822983,25.8849487 L92.6362457,25.8849487 C85.0117238,25.8849487 79.1150742,27.9395421 74.9462967,32.0487289 C70.7775192,36.1579158 68.6931305,41.9528503 68.6931305,49.4335327 L68.6931305,84.7163391 C68.6931305,92.2093506 70.7775192,98.0104497 74.9462967,102.119637 C79.1150742,106.228823 85.0117238,108.283417 92.6362457,108.283417 L171.822983,108.283417 Z M171.822983,209.049164 C179.447505,209.049164 185.344411,207.007927 189.513702,202.925453 C193.682994,198.842979 195.767639,193.022359 195.767639,185.463593 L195.767639,150.19928 C195.767639,142.706268 193.682994,136.905169 189.513702,132.795982 C185.344411,128.686796 179.447505,126.632202 171.822983,126.632202 L23.9431152,126.632202 C16.3309224,126.632202 10.437355,128.686796 6.26241302,132.795982 C2.08747101,136.905169 0,142.706268 0,150.19928 L0,185.463593 C0,193.022359 2.08747101,198.842979 6.26241302,202.925453 C10.437355,207.007927 16.3309224,209.049164 23.9431152,209.049164 L171.822983,209.049164 Z"/></defs><g fill="none" fill-rule="evenodd"><rect width="365" height="365"/><g fill-rule="nonzero" transform="translate(67.337 65.28)"><use xlink:href="#a" fill="#000" filter="url(#b)"/><use xlink:href="#a" fill="#2E2E2E"/><use xlink:href="#a" fill="url(#c)"/></g></g></svg>