<svg xmlns="http://www.w3.org/2000/svg" xmlns:xlink="http://www.w3.org/1999/xlink" width="365" height="365" viewBox="0 0 365 365"><defs><linearGradient id="c" x1="50%" x2="50%" y1="0%" y2="100%"><stop offset="0%" stop-color="#D8D8D8"/><stop offset="81.272%" stop-color="silver"/><stop offset="100%" stop-color="#767777"/></linearGradient><filter id="b" width="105.1%" height="106.2%" x="-2.6%" y="-3.1%" filterUnits="objectBoundingBox"><feOffset in="SourceAlpha" result="shadowOffsetOuter1"/><feGaussianBlur in="shadowOffsetOuter1" result="shadowBlurOuter1" stdDeviation="2"/><feColorMatrix in="shadowBlurOuter1" values="0 0 0 0 0.552677763 0 0 0 0 0.552677763 0 0 0 0 0.552677763 0 0 0 0.5 0"/></filter><path id="a" d="M8.67660522,106.417099 L34.0514374,106.417099 L34.0514374,88.4998322 L8.67660522,88.4998322 C6.23338826,88.4998322 4.17648315,89.3888117 2.50588989,91.1667709 C0.835296631,92.9447301 0,95.034256 0,97.4353485 C0,99.8251394 0.835296631,101.919545 2.50588989,103.718567 C4.17648315,105.517588 6.23338826,106.417099 8.67660522,106.417099 Z M49.559906,195.034058 L84.8427124,195.034058 C92.3233948,195.034058 98.1183294,192.932973 102.227516,188.730804 C106.336703,184.528636 108.391296,178.582413 108.391296,170.892136 L108.391296,23.9431152 C108.391296,16.2764689 106.336703,10.3692881 102.227516,6.22157288 C98.1183294,2.07385763 92.3233948,0 84.8427124,0 L49.559906,0 C42.0668945,0 36.2657954,2.07385763 32.1566086,6.22157288 C28.0474218,10.3692881 25.9928284,16.2764689 25.9928284,23.9431152 L25.9928284,170.892136 C25.9928284,178.582413 28.0474218,184.528636 32.1566086,188.730804 C36.2657954,192.932973 42.0668945,195.034058 49.559906,195.034058 Z M98.7299042,106.417099 L135.544601,106.417099 L135.544601,88.4998322 L98.7299042,88.4998322 L98.7299042,106.417099 Z M150.405792,160.517197 L185.670105,160.517197 C193.163116,160.517197 198.964216,158.443082 203.073402,154.294853 C207.182589,150.146624 209.237183,144.233536 209.237183,136.555588 L209.237183,58.2981567 C209.237183,50.6325378 207.182589,44.7256139 203.073402,40.5773849 C198.964216,36.429156 193.163116,34.3550415 185.670105,34.3550415 L150.405792,34.3550415 C142.847026,34.3550415 137.013049,36.429156 132.903862,40.5773849 C128.794675,44.7256139 126.740082,50.6325378 126.740082,58.2981567 L126.740082,136.555588 C126.740082,144.233536 128.794675,150.146624 132.903862,154.294853 C137.013049,158.443082 142.847026,160.517197 150.405792,160.517197 Z M201.448273,106.417099 L226.382339,106.417099 C228.759801,106.417099 230.783829,105.517588 232.454422,103.718567 C234.125015,101.919545 234.960312,99.8251394 234.960312,97.4353485 C234.960312,95.034256 234.125015,92.9447301 232.454422,91.1667709 C230.783829,89.3888117 228.759801,88.4998322 226.382339,88.4998322 L201.448273,88.4998322 L201.448273,106.417099 Z"/></defs><g fill="none" fill-rule="evenodd"><rect width="365" height="365"/><g fill-rule="nonzero" transform="translate(65.52 85.114)"><use xlink:href="#a" fill="#000" filter="url(#b)"/><use xlink:href="#a" fill="#2E2E2E"/><use xlink:href="#a" fill="url(#c)"/></g></g></svg>