<svg xmlns="http://www.w3.org/2000/svg" xmlns:xlink="http://www.w3.org/1999/xlink" width="365" height="365" viewBox="0 0 365 365"><defs><linearGradient id="c" x1="50%" x2="50%" y1="0%" y2="100%"><stop offset="0%" stop-color="#D8D8D8"/><stop offset="81.272%" stop-color="silver"/><stop offset="100%" stop-color="#767777"/></linearGradient><filter id="b" width="105.2%" height="105.1%" x="-2.6%" y="-2.6%" filterUnits="objectBoundingBox"><feOffset in="SourceAlpha" result="shadowOffsetOuter1"/><feGaussianBlur in="shadowOffsetOuter1" result="shadowBlurOuter1" stdDeviation="2"/><feColorMatrix in="shadowBlurOuter1" values="0 0 0 0 0.552677763 0 0 0 0 0.552677763 0 0 0 0 0.552677763 0 0 0 0.5 0"/></filter><path id="a" d="M8.9370575,234.960312 C11.3669179,234.960312 13.4710846,234.125015 15.2495575,232.454422 C17.0280304,230.783829 17.9172668,228.747986 17.9172668,226.346893 L17.9172668,8.57797241 C17.9172668,6.18920898 17.0280304,4.16235606 15.2495575,2.49741364 C13.4710846,0.832471212 11.3669179,0 8.9370575,0 C6.53493754,0 4.44489797,0.832471212 2.66693878,2.49741364 C0.888979594,4.16235606 0,6.18920898 0,8.57797241 L0,226.346893 C0,228.747986 0.888979594,230.783829 2.66693878,232.454422 C4.44489797,234.125015 6.53493754,234.960312 8.9370575,234.960312 Z M59.5017853,108.283417 L138.690063,108.283417 C146.314585,108.283417 152.211235,106.228823 156.380013,102.119637 C160.54879,98.0104497 162.633179,92.2093506 162.633179,84.7163391 L162.633179,49.4335327 C162.633179,41.9528503 160.54879,36.1579158 156.380013,32.0487289 C152.211235,27.9395421 146.314585,25.8849487 138.690063,25.8849487 L59.5017853,25.8849487 C51.8772634,25.8849487 45.9777883,27.9395421 41.80336,32.0487289 C37.6289317,36.1579158 35.5417175,41.9528503 35.5417175,49.4335327 L35.5417175,84.7163391 C35.5417175,92.2093506 37.6289317,98.0104497 41.80336,102.119637 C45.9777883,106.228823 51.8772634,108.283417 59.5017853,108.283417 Z M59.5017853,209.049164 L207.3647,209.049164 C215.042648,209.049164 220.955737,207.007927 225.103966,202.925453 C229.252195,198.842979 231.326309,193.022359 231.326309,185.463593 L231.326309,150.19928 C231.326309,142.706268 229.252195,136.905169 225.103966,132.795982 C220.955737,128.686796 215.042648,126.632202 207.3647,126.632202 L59.5017853,126.632202 C51.8772634,126.632202 45.9777883,128.686796 41.80336,132.795982 C37.6289317,136.905169 35.5417175,142.706268 35.5417175,150.19928 L35.5417175,185.463593 C35.5417175,193.022359 37.6289317,198.842979 41.80336,202.925453 C45.9777883,207.007927 51.8772634,209.049164 59.5017853,209.049164 Z"/></defs><g fill="none" fill-rule="evenodd"><rect width="365" height="365"/><g fill-rule="nonzero" transform="translate(67.337 65.28)"><use xlink:href="#a" fill="#000" filter="url(#b)"/><use xlink:href="#a" fill="#2E2E2E"/><use xlink:href="#a" fill="url(#c)"/></g></g></svg>