<svg xmlns="http://www.w3.org/2000/svg" xmlns:xlink="http://www.w3.org/1999/xlink" width="365" height="365" viewBox="0 0 365 365"><defs><linearGradient id="c" x1="50%" x2="50%" y1="0%" y2="100%"><stop offset="0%" stop-color="#D8D8D8"/><stop offset="81.272%" stop-color="silver"/><stop offset="100%" stop-color="#767777"/></linearGradient><filter id="b" width="105.1%" height="105.2%" x="-2.6%" y="-2.6%" filterUnits="objectBoundingBox"><feOffset in="SourceAlpha" result="shadowOffsetOuter1"/><feGaussianBlur in="shadowOffsetOuter1" result="shadowBlurOuter1" stdDeviation="2"/><feColorMatrix in="shadowBlurOuter1" values="0 0 0 0 0.552677763 0 0 0 0 0.552677763 0 0 0 0 0.552677763 0 0 0 0.5 0"/></filter><path id="a" d="M49.559906,194.916931 L84.8427124,194.916931 C92.3233948,194.916931 98.1183294,192.832286 102.227516,188.662994 C106.336703,184.493703 108.391296,178.59731 108.391296,170.973816 L108.391296,23.9431152 C108.391296,16.3185933 106.336703,10.4219437 102.227516,6.2531662 C98.1183294,2.08438873 92.3233948,0 84.8427124,0 L49.559906,0 C42.0668945,0 36.2657954,2.08438873 32.1566086,6.2531662 C28.0474218,10.4219437 25.9928284,16.3185933 25.9928284,23.9431152 L25.9928284,170.973816 C25.9928284,178.59731 28.0474218,184.493703 32.1566086,188.662994 C36.2657954,192.832286 42.0668945,194.916931 49.559906,194.916931 Z M150.405792,194.916931 L185.670105,194.916931 C193.163116,194.916931 198.964216,192.832286 203.073402,188.662994 C207.182589,184.493703 209.237183,178.59731 209.237183,170.973816 L209.237183,92.6347046 C209.237183,85.0112101 207.182589,79.1119919 203.073402,74.9370499 C198.964216,70.7621078 193.163116,68.6746368 185.670105,68.6746368 L150.405792,68.6746368 C142.847026,68.6746368 137.013049,70.7621078 132.903862,74.9370499 C128.794675,79.1119919 126.740082,85.0112101 126.740082,92.6347046 L126.740082,170.973816 C126.740082,178.59731 128.794675,184.493703 132.903862,188.662994 C137.013049,192.832286 142.847026,194.916931 150.405792,194.916931 Z M8.67660522,230.71756 L226.382339,230.71756 C228.759801,230.71756 230.783829,229.828323 232.454422,228.04985 C234.125015,226.271378 234.960312,224.181595 234.960312,221.780502 C234.960312,219.349614 234.125015,217.245191 232.454422,215.467232 C230.783829,213.689273 228.759801,212.800293 226.382339,212.800293 L8.67660522,212.800293 C6.23338826,212.800293 4.17648315,213.689273 2.50588989,215.467232 C0.835296631,217.245191 0,219.349614 0,221.780502 C0,224.181595 0.835296631,226.271378 2.50588989,228.04985 C4.17648315,229.828323 6.23338826,230.71756 8.67660522,230.71756 Z"/></defs><g fill="none" fill-rule="evenodd"><rect width="365" height="365"/><g fill-rule="nonzero" transform="translate(65.52 67.532)"><use xlink:href="#a" fill="#000" filter="url(#b)"/><use xlink:href="#a" fill="#2E2E2E"/><use xlink:href="#a" fill="url(#c)"/></g></g></svg>