<svg xmlns="http://www.w3.org/2000/svg" xmlns:xlink="http://www.w3.org/1999/xlink" width="365" height="365" viewBox="0 0 365 365"><defs><linearGradient id="c" x1="50%" x2="50%" y1="0%" y2="100%"><stop offset="0%" stop-color="#D8D8D8"/><stop offset="81.272%" stop-color="silver"/><stop offset="100%" stop-color="#767777"/></linearGradient><filter id="b" width="105.1%" height="105.2%" x="-2.6%" y="-2.6%" filterUnits="objectBoundingBox"><feOffset in="SourceAlpha" result="shadowOffsetOuter1"/><feGaussianBlur in="shadowOffsetOuter1" result="shadowBlurOuter1" stdDeviation="2"/><feColorMatrix in="shadowBlurOuter1" values="0 0 0 0 0.552677763 0 0 0 0 0.552677763 0 0 0 0 0.552677763 0 0 0 0.5 0"/></filter><path id="a" d="M8.67660522,17.9157257 L226.382339,17.9157257 C228.759801,17.9157257 230.783829,17.0267461 232.454422,15.2487869 C234.125015,13.4708277 234.960312,11.3874664 234.960312,8.998703 C234.960312,6.55548604 234.125015,4.44489797 232.454422,2.66693878 C230.783829,0.888979594 228.759801,0 226.382339,0 L8.67660522,0 C6.23338826,0 4.17648315,0.888979594 2.50588989,2.66693878 C0.835296631,4.44489797 0,6.55548604 0,8.998703 C0,11.3874664 0.835296631,13.4708277 2.50588989,15.2487869 C4.17648315,17.0267461 6.23338826,17.9157257 8.67660522,17.9157257 Z M49.559906,230.71756 L84.8427124,230.71756 C92.3233948,230.71756 98.1183294,228.643445 102.227516,224.495216 C106.336703,220.346987 108.391296,214.440063 108.391296,206.774445 L108.391296,59.7437439 C108.391296,52.119222 106.336703,46.2194901 102.227516,42.044548 C98.1183294,37.869606 92.3233948,35.782135 84.8427124,35.782135 L49.559906,35.782135 C42.0668945,35.782135 36.2657954,37.869606 32.1566086,42.044548 C28.0474218,46.2194901 25.9928284,52.119222 25.9928284,59.7437439 L25.9928284,206.774445 C25.9928284,214.440063 28.0474218,220.346987 32.1566086,224.495216 C36.2657954,228.643445 42.0668945,230.71756 49.559906,230.71756 Z M150.405792,162.024429 L185.670105,162.024429 C193.163116,162.024429 198.964216,159.940041 203.073402,155.771263 C207.182589,151.602486 209.237183,145.705836 209.237183,138.081314 L209.237183,59.7437439 C209.237183,52.119222 207.182589,46.2194901 203.073402,42.044548 C198.964216,37.869606 193.163116,35.782135 185.670105,35.782135 L150.405792,35.782135 C142.847026,35.782135 137.013049,37.869606 132.903862,42.044548 C128.794675,46.2194901 126.740082,52.119222 126.740082,59.7437439 L126.740082,138.081314 C126.740082,145.705836 128.794675,151.602486 132.903862,155.771263 C137.013049,159.940041 142.847026,162.024429 150.405792,162.024429 Z"/></defs><g fill="none" fill-rule="evenodd"><rect width="365" height="365"/><g fill-rule="nonzero" transform="translate(65.52 67.532)"><use xlink:href="#a" fill="#000" filter="url(#b)"/><use xlink:href="#a" fill="#2E2E2E"/><use xlink:href="#a" fill="url(#c)"/></g></g></svg>