<svg xmlns="http://www.w3.org/2000/svg" xmlns:xlink="http://www.w3.org/1999/xlink" width="365" height="365" viewBox="0 0 365 365"><defs><linearGradient id="c" x1="50%" x2="50%" y1="0%" y2="100%"><stop offset="0%" stop-color="#D8D8D8"/><stop offset="81.272%" stop-color="silver"/><stop offset="100%" stop-color="#767777"/></linearGradient><filter id="b" width="106.1%" height="105.1%" x="-3.1%" y="-2.6%" filterUnits="objectBoundingBox"><feOffset in="SourceAlpha" result="shadowOffsetOuter1"/><feGaussianBlur in="shadowOffsetOuter1" result="shadowBlurOuter1" stdDeviation="2"/><feColorMatrix in="shadowBlurOuter1" values="0 0 0 0 0.552677763 0 0 0 0 0.552677763 0 0 0 0 0.552677763 0 0 0 0.5 0"/></filter><path id="a" d="M88.934433,33.4796753 L106.8517,33.4796753 L106.8517,8.57797241 C106.8517,6.18920898 105.962463,4.16235606 104.18399,2.49741364 C102.405518,0.832471212 100.295186,0 97.8529968,0 C95.463206,0 93.379331,0.832471212 91.6013718,2.49741364 C89.8234126,4.16235606 88.934433,6.18920898 88.934433,8.57797241 L88.934433,33.4796753 Z M58.2812042,108.283417 L137.467941,108.283417 C145.092463,108.283417 150.992195,106.228823 155.167137,102.119637 C159.342079,98.0104497 161.42955,92.2093506 161.42955,84.7163391 L161.42955,49.4335327 C161.42955,41.9528503 159.342079,36.1579158 155.167137,32.0487289 C150.992195,27.9395421 145.092463,25.8849487 137.467941,25.8849487 L58.2812042,25.8849487 C50.6566823,25.8849487 44.7600327,27.9395421 40.5912552,32.0487289 C36.4224777,36.1579158 34.338089,41.9528503 34.338089,49.4335327 L34.338089,84.7163391 C34.338089,92.2093506 36.4224777,98.0104497 40.5912552,102.119637 C44.7600327,106.228823 50.6566823,108.283417 58.2812042,108.283417 Z M88.934433,137.836273 L106.8517,137.836273 L106.8517,99.8950043 L88.934433,99.8950043 L88.934433,137.836273 Z M23.9431152,209.049164 L171.822983,209.049164 C179.447505,209.049164 185.344411,207.007927 189.513702,202.925453 C193.682994,198.842979 195.767639,193.022359 195.767639,185.463593 L195.767639,150.19928 C195.767639,142.706268 193.682994,136.905169 189.513702,132.795982 C185.344411,128.686796 179.447505,126.632202 171.822983,126.632202 L23.9431152,126.632202 C16.3309224,126.632202 10.437355,128.686796 6.26241302,132.795982 C2.08747101,136.905169 0,142.706268 0,150.19928 L0,185.463593 C0,193.022359 2.08747101,198.842979 6.26241302,202.925453 C10.437355,207.007927 16.3309224,209.049164 23.9431152,209.049164 Z M97.8529968,234.960312 C100.295186,234.960312 102.405518,234.125015 104.18399,232.454422 C105.962463,230.783829 106.8517,228.747986 106.8517,226.346893 L106.8517,201.68869 L88.934433,201.68869 L88.934433,226.346893 C88.934433,228.747986 89.8234126,230.783829 91.6013718,232.454422 C93.379331,234.125015 95.463206,234.960312 97.8529968,234.960312 Z"/></defs><g fill="none" fill-rule="evenodd"><rect width="365" height="365"/><g fill-rule="nonzero" transform="translate(85.117 65.28)"><use xlink:href="#a" fill="#000" filter="url(#b)"/><use xlink:href="#a" fill="#2E2E2E"/><use xlink:href="#a" fill="url(#c)"/></g></g></svg>