<svg xmlns="http://www.w3.org/2000/svg" xmlns:xlink="http://www.w3.org/1999/xlink" width="1400" height="1400" viewBox="0 0 1400 1400"><defs><linearGradient id="a" x1="50%" x2="50%" y1="0%" y2="100%"><stop offset="0%" stop-color="#616261"/><stop offset="100%" stop-color="#2F3030"/></linearGradient><linearGradient id="c" x1="50%" x2="50%" y1="0%" y2="100%"><stop offset="0%" stop-color="#454645"/><stop offset="100%" stop-color="#454545"/></linearGradient><linearGradient id="d" x1="50%" x2="50%" y1="0%" y2="100%"><stop offset="0%" stop-color="#232323"/><stop offset="53.029%" stop-color="#3E3F3E"/><stop offset="100%" stop-color="#5C5D5D"/></linearGradient><linearGradient id="h" x1="50%" x2="50%" y1="0%" y2="100%"><stop offset="0%" stop-color="#848484"/><stop offset="100%" stop-color="#3C3D3D"/></linearGradient><linearGradient id="i" x1="50%" x2="50%" y1="0%" y2="100%"><stop offset="0%" stop-color="#8B8B8B"/><stop offset="100%" stop-color="#363636"/></linearGradient><linearGradient id="j" x1="50%" x2="50%" y1="0%" y2="100%"><stop offset="0%" stop-color="#333"/><stop offset="100%" stop-color="#595959"/></linearGradient><linearGradient id="k" x1="50%" x2="50%" y1="0%" y2="100%"><stop offset="0%" stop-color="#595959"/><stop offset="100%" stop-color="#333"/></linearGradient><linearGradient id="m" x1="50%" x2="50%" y1="0%" y2="100%"><stop offset="0%" stop-color="#282929"/><stop offset="19.258%" stop-color="#383938"/><stop offset="50.063%" stop-color="#3B3C3B"/><stop offset="75.325%" stop-color="#2B2C2B"/><stop offset="100%" stop-color="#131313"/></linearGradient><linearGradient id="q" x1="50%" x2="50%" y1="0%" y2="100%"><stop offset="0%" stop-color="#282929"/><stop offset="19.258%" stop-color="#383938"/><stop offset="75.325%" stop-color="#2B2C2B"/><stop offset="100%" stop-color="#131313"/></linearGradient><linearGradient id="r" x1="50%" x2="50%" y1="0%" y2="100%"><stop offset="0%" stop-color="#FFF" stop-opacity=".5"/><stop offset="44.348%" stop-color="#FFF"/><stop offset="100%" stop-color="#FFF" stop-opacity=".5"/></linearGradient><linearGradient id="v" x1="50%" x2="50%" y1="0%" y2="100%"><stop offset="0%" stop-color="#D8D8D8"/><stop offset="81.272%" stop-color="silver"/><stop offset="100%" stop-color="#767777"/></linearGradient><filter id="g" width="165.3%" height="165.3%" x="-32.7%" y="-17.7%" filterUnits="objectBoundingBox"><feOffset dy="90" in="SourceAlpha" result="shadowOffsetOuter1"/><feGaussianBlur in="shadowOffsetOuter1" result="shadowBlurOuter1" stdDeviation="51"/><feComposite in="shadowBlurOuter1" in2="SourceAlpha" operator="out" result="shadowBlurOuter1"/><feColorMatrix in="shadowBlurOuter1" values="0 0 0 0 0 0 0 0 0 0 0 0 0 0 0 0 0 0 1 0"/></filter><filter id="n" width="102.2%" height="104.1%" x="-1.1%" y="-2%" filterUnits="objectBoundingBox"><feOffset dx="-6" in="SourceAlpha" result="shadowOffsetInner1"/><feComposite in="shadowOffsetInner1" in2="SourceAlpha" k2="-1" k3="1" operator="arithmetic" result="shadowInnerInner1"/><feColorMatrix in="shadowInnerInner1" result="shadowMatrixInner1" values="0 0 0 0 0.368627451 0 0 0 0 0.368627451 0 0 0 0 0.368627451 0 0 0 0.5 0"/><feOffset dx="6" in="SourceAlpha" result="shadowOffsetInner2"/><feComposite in="shadowOffsetInner2" in2="SourceAlpha" k2="-1" k3="1" operator="arithmetic" result="shadowInnerInner2"/><feColorMatrix in="shadowInnerInner2" result="shadowMatrixInner2" values="0 0 0 0 0.368627451 0 0 0 0 0.368627451 0 0 0 0 0.368627451 0 0 0 0.5 0"/><feMerge><feMergeNode in="shadowMatrixInner1"/><feMergeNode in="shadowMatrixInner2"/></feMerge></filter><filter id="u" width="105.4%" height="105.4%" x="-2.7%" y="-2.7%" filterUnits="objectBoundingBox"><feOffset in="SourceAlpha" result="shadowOffsetOuter1"/><feGaussianBlur in="shadowOffsetOuter1" result="shadowBlurOuter1" stdDeviation="4"/><feColorMatrix in="shadowBlurOuter1" values="0 0 0 0 0.552677763 0 0 0 0 0.552677763 0 0 0 0 0.552677763 0 0 0 0.5 0"/></filter><rect id="b" width="1104" height="1074" x="0" y="0" rx="144"/><rect id="l" width="267" height="147" x="0" y="0" rx="12"/><rect id="p" width="255" height="147" x="0" y="0" rx="6"/><radialGradient id="e" cx="50%" cy="50%" r="50%" fx="50%" fy="50%"><stop offset="0%" stop-color="#FFF"/><stop offset="64.724%" stop-color="#FFF"/><stop offset="100%" stop-color="#FFFEFE" stop-opacity="0"/></radialGradient><circle id="f" cx="562.5" cy="636" r="300"/><path id="t" d="M698.400673,891.577166 C712.635508,891.577166 726.060204,888.848522 738.674764,883.391233 C751.289323,877.933943 762.41087,870.388765 772.039404,860.755697 C781.667938,851.12263 789.182664,840.016549 794.583583,827.437457 C799.984501,814.858364 802.68496,801.406643 802.68496,787.082294 C802.68496,772.733102 799.984501,759.242045 794.583583,746.609125 C789.182664,733.976204 781.667938,722.849421 772.039404,713.228775 C762.41087,703.60813 751.289323,696.069162 738.674764,690.611873 C726.060204,685.154584 712.635508,682.425939 698.400673,682.425939 C684.165838,682.425939 670.741141,685.154584 658.126582,690.611873 C645.512023,696.069162 634.390993,703.60813 624.763494,713.228775 C615.135994,722.849421 607.621268,733.976204 602.219315,746.609125 C596.817362,759.242045 594.116385,772.733102 594.116385,787.082294 C594.116385,801.406643 596.817362,814.858364 602.219315,827.437457 C607.621268,840.016549 615.135994,851.12263 624.763494,860.755697 C634.390993,870.388765 645.512023,877.933943 658.126582,883.391233 C670.741141,888.848522 684.165838,891.577166 698.400673,891.577166 Z M698.400673,854.535506 C686.077887,854.535506 674.814075,851.48079 664.609236,845.371359 C654.404397,839.261928 646.248182,831.101873 640.140592,820.891194 C634.033001,810.680515 630.979206,799.410882 630.979206,787.082294 C630.979206,774.753707 634.033001,763.484073 640.140592,753.273394 C646.248182,743.062715 654.404397,734.869018 664.609236,728.692302 C674.814075,722.515587 686.077887,719.427229 698.400673,719.427229 C710.723458,719.427229 721.987788,722.515587 732.193661,728.692302 C742.399535,734.869018 750.561958,743.062715 756.68093,753.273394 C762.799901,763.484073 765.859387,774.753707 765.859387,787.082294 C765.859387,799.410882 762.799901,810.680515 756.68093,820.891194 C750.561958,831.101873 742.399535,839.261928 732.193661,845.371359 C721.987788,851.48079 710.723458,854.535506 698.400673,854.535506 Z M698.56208,646.676141 C703.92575,646.676141 708.563608,644.719715 712.475653,640.806864 C716.387697,636.894012 718.34372,632.200661 718.34372,626.726809 L718.34372,585.452437 C718.34372,580.001359 716.387697,575.313183 712.475653,571.38791 C708.563608,567.462637 703.92575,565.5 698.56208,565.5 C693.090804,565.5 688.405869,567.462637 684.507275,571.38791 C680.608681,575.313183 678.659384,580.001359 678.659384,585.452437 L678.659384,626.726809 C678.659384,632.200661 680.608681,636.894012 684.507275,640.806864 C688.405869,644.719715 693.090804,646.676141 698.56208,646.676141 Z M797.541672,688.186526 C801.338869,691.983441 806.003628,693.896908 811.535949,693.927269 C817.068269,693.956947 821.78683,692.006214 825.691632,688.07473 L854.993167,658.687974 C858.790365,654.913832 860.677065,650.226174 860.65349,644.624999 C860.62947,639.023825 858.706557,634.311323 854.884528,630.487494 C851.08733,626.690579 846.422571,624.810236 840.890251,624.845953 C835.357931,624.882697 830.693172,626.799269 826.895975,630.596184 L797.433033,660.147529 C793.637905,663.946515 791.752239,668.61347 791.775814,674.148395 C791.799833,679.68332 793.721712,684.362697 797.541672,688.186526 Z M838.526573,787.082294 C838.526573,792.44849 840.482078,797.082321 844.393088,800.983786 C848.304098,804.885251 852.995241,806.835983 858.466516,806.835983 L899.721464,806.835983 C905.085135,806.835983 909.722475,804.885251 913.633485,800.983786 C917.544495,797.082321 919.5,792.44849 919.5,787.082294 C919.5,781.608443 917.544495,776.914574 913.633485,773.000687 C909.722475,769.0868 905.085135,767.129857 899.721464,767.129857 L858.466516,767.129857 C852.995241,767.129857 848.304098,769.0868 844.393088,773.000687 C840.482078,776.914574 838.526573,781.608443 838.526573,787.082294 Z M797.433033,886.124018 C793.637905,890.030658 791.752239,894.718834 791.775814,900.188545 C791.799833,905.658256 793.721712,910.303991 797.541672,914.125749 L827.041862,943.801312 C830.839059,947.467798 835.503818,949.261706 841.036138,949.183035 C846.568458,949.104364 851.258049,947.207977 855.10491,943.493873 C858.875207,939.612076 860.748456,934.930629 860.724883,929.449531 C860.700862,923.968434 858.778983,919.315971 854.959023,915.492142 L825.458834,886.015327 C821.661636,882.326067 816.996877,880.493342 811.464557,880.516921 C805.932237,880.540958 801.255062,882.409914 797.433033,886.124018 Z M698.56208,927.488447 C693.090804,927.488447 688.405869,929.438662 684.507275,933.339092 C680.608681,937.239522 678.659384,941.872835 678.659384,947.239031 L678.659384,988.674886 C678.659384,994.041082 680.608681,998.686817 684.507275,1002.61209 C688.405869,1006.53736 693.090804,1008.5 698.56208,1008.5 C703.92575,1008.5 708.563608,1006.53736 712.475653,1002.61209 C716.387697,998.686817 718.34372,994.041082 718.34372,988.674886 L718.34372,947.239031 C718.34372,941.872835 716.387697,937.239522 712.475653,933.339092 C708.563608,929.438662 703.92575,927.488447 698.56208,927.488447 Z M599.566967,886.124018 C595.722175,882.409914 591.006201,880.540958 585.419044,880.516921 C579.831887,880.493342 575.140744,882.326067 571.345616,886.015327 L542.006833,915.330659 C538.186873,919.129644 536.264477,923.769686 536.239395,929.250783 C536.214813,934.731881 538.034778,939.42575 541.699539,943.33239 C545.544331,947.046494 550.259788,948.942881 555.845911,949.021552 C561.432033,949.100223 566.123693,947.306316 569.920891,943.639829 L599.259674,914.125749 C603.079634,910.303991 605.00203,905.658256 605.027112,900.188545 C605.051693,894.718834 603.231728,890.030658 599.566967,886.124018 Z M558.476531,787.082294 C558.476531,781.608443 556.514818,776.914574 552.591392,773.000687 C548.667966,769.0868 543.969581,767.129857 538.496236,767.129857 L497.244392,767.129857 C491.903484,767.129857 487.277525,769.0868 483.366515,773.000687 C479.455505,776.914574 477.5,781.608443 477.5,787.082294 C477.5,792.44849 479.455505,797.082321 483.366515,800.983786 C487.277525,804.885251 491.903484,806.835983 497.244392,806.835983 L538.496236,806.835983 C543.969581,806.835983 548.667966,804.885251 552.591392,800.983786 C556.514818,797.082321 558.476531,792.44849 558.476531,787.082294 Z M599.259674,688.186526 C603.079634,684.470352 605.00203,679.811678 605.027112,674.210504 C605.051693,668.609329 603.231728,663.921671 599.566967,660.147529 L570.228184,630.596184 C566.433056,626.906924 561.768815,625.017266 556.23546,624.927208 C550.702105,624.83715 546.037863,626.690579 542.242735,630.487494 C538.420706,634.311323 536.497793,639.023825 536.473767,644.624999 C536.450198,650.226174 538.282062,654.860004 541.969585,658.526491 L571.27112,688.07473 C575.068318,691.898559 579.733077,693.822378 585.265397,693.846409 C590.797717,693.869995 595.462476,691.983441 599.259674,688.186526 Z"/></defs><g fill="none" fill-rule="evenodd"><rect width="1400" height="1400"/><g transform="translate(136 151)"><rect width="1128" height="1098" fill="url(#a)" rx="156"/><use xlink:href="#b" fill="url(#c)" transform="translate(12 12)"/><rect width="381" height="177" x="663" y="81" fill="url(#d)" rx="88.5"/><circle cx="562.5" cy="636" r="336" fill="url(#e)"/><use xlink:href="#f" fill="#000" filter="url(#g)"/><use xlink:href="#f" fill="url(#h)" style="mix-blend-mode:darken"/><circle cx="562.5" cy="636" r="298.5" stroke="url(#i)" stroke-linejoin="square" stroke-width="3"/><circle cx="169.5" cy="166.5" r="82.5" fill="url(#j)" stroke="#010000" stroke-width="6"/><circle cx="169.5" cy="928.5" r="82.5" fill="#454645" stroke="#010000" stroke-width="6"/><circle cx="952.5" cy="928.5" r="82.5" fill="#454645" stroke="#010000" stroke-width="6"/><circle cx="370.5" cy="166.5" r="82.5" fill="url(#k)" stroke="#010000" stroke-width="6"/><g transform="translate(720 96)"><mask id="o" fill="#fff"><use xlink:href="#l"/></mask><use xlink:href="#l" fill="url(#m)"/><use xlink:href="#l" fill="#000" filter="url(#n)"/><g mask="url(#o)"><g transform="translate(6)"><mask id="s" fill="#fff"><use xlink:href="#p"/></mask><use xlink:href="#p" fill="url(#q)"/><path fill="url(#r)" fill-rule="nonzero" d="M255,135 L255,138 L0,138 L0,135 L255,135 Z M255,129 L255,132 L0,132 L0,129 L255,129 Z M255,123 L255,126 L0,126 L0,123 L255,123 Z M255,117 L255,120 L0,120 L0,117 L255,117 Z M255,111 L255,114 L0,114 L0,111 L255,111 Z M255,105 L255,108 L0,108 L0,105 L255,105 Z M255,99 L255,102 L0,102 L0,99 L255,99 Z M255,93 L255,96 L0,96 L0,93 L255,93 Z M255,87 L255,90 L0,90 L0,87 L255,87 Z M255,81 L255,84 L0,84 L0,81 L255,81 Z M255,75 L255,78 L0,78 L0,75 L255,75 Z M255,69 L255,72 L0,72 L0,69 L255,69 Z M255,63 L255,66 L0,66 L0,63 L255,63 Z M255,57 L255,60 L0,60 L0,57 L255,57 Z M255,51 L255,54 L0,54 L0,51 L255,51 Z M255,45 L255,48 L0,48 L0,45 L255,45 Z M255,39 L255,42 L0,42 L0,39 L255,39 Z M255,33 L255,36 L0,36 L0,33 L255,33 Z M255,27 L255,30 L0,30 L0,27 L255,27 Z M255,21 L255,24 L0,24 L0,21 L255,21 Z M255,15 L255,18 L0,18 L0,15 L255,15 Z M255,9 L255,12 L0,12 L0,9 L255,9 Z M255,3 L255,6 L0,6 L0,3 L255,3 Z" mask="url(#s)" opacity=".1"/></g></g></g></g><g fill-rule="nonzero"><use xlink:href="#t" fill="#000" filter="url(#u)"/><use xlink:href="#t" fill="#2E2E2E"/><use xlink:href="#t" fill="url(#v)"/></g></g></svg>