<svg xmlns="http://www.w3.org/2000/svg" xmlns:xlink="http://www.w3.org/1999/xlink" width="365" height="365" viewBox="0 0 365 365"><defs><linearGradient id="c" x1="50%" x2="50%" y1="0%" y2="100%"><stop offset="0%" stop-color="#D8D8D8"/><stop offset="81.272%" stop-color="silver"/><stop offset="100%" stop-color="#767777"/></linearGradient><linearGradient id="f" x1="50%" x2="50%" y1="0%" y2="100%"><stop offset="0%" stop-color="#D8D8D8"/><stop offset="81.272%" stop-color="silver"/><stop offset="100%" stop-color="#767777"/></linearGradient><filter id="b" width="103.5%" height="104.3%" x="-1.7%" y="-2.1%" filterUnits="objectBoundingBox"><feOffset in="SourceAlpha" result="shadowOffsetOuter1"/><feGaussianBlur in="shadowOffsetOuter1" result="shadowBlurOuter1" stdDeviation="1.5"/><feColorMatrix in="shadowBlurOuter1" values="0 0 0 0 0.552677763 0 0 0 0 0.552677763 0 0 0 0 0.552677763 0 0 0 0.5 0"/></filter><filter id="e" width="110.5%" height="109.4%" x="-5.3%" y="-4.7%" filterUnits="objectBoundingBox"><feOffset in="SourceAlpha" result="shadowOffsetOuter1"/><feGaussianBlur in="shadowOffsetOuter1" result="shadowBlurOuter1" stdDeviation="1.5"/><feColorMatrix in="shadowBlurOuter1" values="0 0 0 0 0.552677763 0 0 0 0 0.552677763 0 0 0 0 0.552677763 0 0 0 0.5 0"/></filter><path id="a" d="M53.7265625,117.742188 L70.3925781,117.742188 L70.3925781,102.421875 C70.3925781,91.65625 76.0859375,86.0664062 86.4375,86.0664062 L101.654297,86.0664062 L101.654297,69.4003906 L86.2304688,69.4003906 C64.4921875,69.4003906 53.7265625,80.1660156 53.7265625,101.490234 L53.7265625,117.742188 Z M137.367188,279.123047 L278.769531,279.123047 C300.300781,279.123047 311.273438,268.357422 311.273438,247.033203 L311.273438,149.417969 C311.273438,128.09375 300.300781,117.328125 278.769531,117.328125 L260.033203,117.328125 L260.033203,101.490234 C260.033203,80.1660156 249.164063,69.4003906 227.529297,69.4003906 L212.105469,69.4003906 L212.105469,86.0664062 L227.21875,86.0664062 C237.570313,86.0664062 243.367188,91.65625 243.367188,102.421875 L243.367188,117.328125 L137.367188,117.328125 C115.628906,117.328125 104.863281,128.09375 104.863281,149.417969 L104.863281,214.529297 L86.4375,214.529297 C76.0859375,214.529297 70.3925781,209.042969 70.3925781,198.277344 L70.3925781,182.957031 L53.7265625,182.957031 L53.7265625,199.105469 C53.7265625,220.533203 64.4921875,231.195313 86.2304687,231.195313 L104.863281,231.195313 L104.863281,247.033203 C104.863281,268.460938 115.628906,279.123047 137.367188,279.123047 Z M161.382812,86.0664062 L202.996094,86.0664062 L202.996094,69.4003906 L161.382812,69.4003906 L161.382812,86.0664062 Z M110.660156,86.0664062 L152.376953,86.0664062 L152.376953,69.4003906 L110.660156,69.4003906 L110.660156,86.0664062 Z M53.7265625,173.951172 L70.3925781,173.951172 L70.3925781,126.748047 L53.7265625,126.748047 L53.7265625,173.951172 Z M137.574219,262.457031 C127.222656,262.457031 121.529297,256.970703 121.529297,246.205078 L121.529297,150.349609 C121.529297,139.583984 127.222656,133.994141 137.574219,133.994141 L278.458984,133.994141 C288.707031,133.994141 294.607422,139.583984 294.607422,150.349609 L294.607422,246.205078 C294.607422,256.970703 288.707031,262.457031 278.458984,262.457031 L137.574219,262.457031 Z"/><path id="d" d="M230.363281,216.788086 L245.858398,201.292969 C250.50293,196.648437 250.342773,191.163086 245.658203,186.358398 L243.416016,184.036133 C239.251953,189.401367 227.400391,195.767578 225.118164,193.485352 C224.757812,193.125 224.717773,192.404297 225.27832,191.883789 C230.042969,187.079102 233.286133,182.314453 234.006836,174.707031 L213.466797,154.126953 C209.342773,150.00293 202.456055,151.604492 200.494141,158.97168 C197.891602,169.22168 195.649414,175.267578 193.487305,179.912109 L230.363281,216.788086 Z M168.623047,243.053711 C175.029297,249.5 183.397461,249.540039 189.723633,243.213867 C194.488281,238.489258 199.092773,227.958984 202.65625,222.353516 L211.985352,231.722656 C215.148437,234.925781 218.952148,234.925781 221.995117,231.842773 L225.358398,228.439453 C228.481445,225.276367 228.441406,221.672852 225.238281,218.469727 L193.207031,186.438477 C190.003906,183.235352 186.320312,183.195312 183.197266,186.318359 L179.833984,189.681641 C176.750977,192.764648 176.750977,196.52832 179.914062,199.691406 L189.283203,209.020508 C183.717773,212.543945 173.1875,217.188477 168.462891,221.913086 C162.09668,228.279297 162.176758,236.647461 168.623047,243.053711 Z M179.553711,237.368164 C176.911133,237.368164 174.708984,235.206055 174.708984,232.563477 C174.708984,229.920898 176.911133,227.71875 179.553711,227.71875 C182.196289,227.71875 184.358398,229.920898 184.358398,232.563477 C184.358398,235.206055 182.196289,237.368164 179.553711,237.368164 Z"/></defs><g fill="none" fill-rule="evenodd"><rect width="365" height="365"/><g fill-rule="nonzero"><use xlink:href="#a" fill="#000" filter="url(#b)"/><use xlink:href="#a" fill="#2E2E2E"/><use xlink:href="#a" fill="#2E2E2E"/><use xlink:href="#a" fill="url(#c)"/></g><g fill-rule="nonzero"><use xlink:href="#d" fill="#000" filter="url(#e)"/><use xlink:href="#d" fill="#2E2E2E"/><use xlink:href="#d" fill="#2E2E2E"/><use xlink:href="#d" fill="url(#f)"/></g></g></svg>