<svg xmlns="http://www.w3.org/2000/svg" xmlns:xlink="http://www.w3.org/1999/xlink" width="365" height="365" viewBox="0 0 365 365"><defs><linearGradient id="c" x1="50%" x2="50%" y1="0%" y2="100%"><stop offset="0%" stop-color="#D8D8D8"/><stop offset="81.272%" stop-color="silver"/><stop offset="100%" stop-color="#767777"/></linearGradient><filter id="b" width="146.2%" height="146.2%" x="-23.1%" y="-23.1%" filterUnits="objectBoundingBox"><feOffset in="SourceAlpha" result="shadowOffsetOuter1"/><feGaussianBlur in="shadowOffsetOuter1" result="shadowBlurOuter1" stdDeviation="2"/><feColorMatrix in="shadowBlurOuter1" values="0 0 0 0 0.552677763 0 0 0 0 0.552677763 0 0 0 0 0.552677763 0 0 0 0.5 0"/></filter><path id="a" d="M12.9810028,25.9604645 C16.6191152,25.9604645 19.6918869,24.706749 22.1993179,22.1993179 C24.706749,19.6918869 25.9604645,16.6191152 25.9604645,12.9810028 C25.9604645,9.34289042 24.706749,6.26986186 22.1993179,3.76191711 C19.6918869,1.25397237 16.6191152,0 12.9810028,0 C9.34289042,0 6.26986186,1.25397237 3.76191711,3.76191711 C1.25397237,6.26986186 0,9.34289042 0,12.9810028 C0,16.6191152 1.25397237,19.6918869 3.76191711,22.1993179 C6.26986186,24.706749 9.34289042,25.9604645 12.9810028,25.9604645 Z"/></defs><g fill="none" fill-rule="evenodd"><rect width="365" height="365"/><g fill-rule="nonzero" transform="translate(170.02 229.528)"><use xlink:href="#a" fill="#000" filter="url(#b)"/><use xlink:href="#a" fill="#2E2E2E"/><use xlink:href="#a" fill="url(#c)"/></g></g></svg>