<svg xmlns="http://www.w3.org/2000/svg" xmlns:xlink="http://www.w3.org/1999/xlink" width="365" height="365" viewBox="0 0 365 365"><defs><linearGradient id="c" x1="50%" x2="50%" y1="0%" y2="100%"><stop offset="0%" stop-color="#D8D8D8"/><stop offset="81.272%" stop-color="silver"/><stop offset="100%" stop-color="#767777"/></linearGradient><filter id="b" width="107%" height="108.2%" x="-3.5%" y="-4.1%" filterUnits="objectBoundingBox"><feOffset in="SourceAlpha" result="shadowOffsetOuter1"/><feGaussianBlur in="shadowOffsetOuter1" result="shadowBlurOuter1" stdDeviation="2"/><feColorMatrix in="shadowBlurOuter1" values="0 0 0 0 0.552677763 0 0 0 0 0.552677763 0 0 0 0 0.552677763 0 0 0 0.5 0"/></filter><path id="a" d="M144.398438,145.779297 C152.946615,145.779297 159.439941,143.691569 163.878418,139.516113 C168.316895,135.340658 170.536133,128.978841 170.536133,120.430664 L170.536133,25.9404297 C170.536133,17.4580078 168.316895,11.0139974 163.878418,6.60839844 C159.439941,2.20279948 152.946615,0 144.398438,0 L77.0322266,0 C73.4814453,0 70.2101237,0.345214844 67.2182617,1.03564453 C64.2263997,1.72607422 61.4318034,2.86035156 58.8344727,4.43847656 C56.2371419,6.01660156 53.7220052,8.12076823 51.2890625,10.7509766 L8.08789062,56.9111328 C5.19466146,60.0673828 3.1233724,62.8948568 1.87402344,65.3935547 C0.624674479,67.8922526 0,70.3580729 0,72.7910156 C0,75.2897135 0.624674479,77.7884115 1.87402344,80.2871094 C3.1233724,82.7858073 5.19466146,85.6132813 8.08789062,88.7695312 L51.2890625,134.929688 C53.7220052,137.494141 56.2371419,139.56543 58.8344727,141.143555 C61.4318034,142.72168 64.2263997,143.872396 67.2182617,144.595703 C70.2101237,145.31901 73.4814453,145.680664 77.0322266,145.680664 L144.398438,145.779297 Z M143.412109,128.814453 L76.3417969,128.814453 C73.7115885,128.814453 71.4923503,128.469238 69.684082,127.778809 C67.8758138,127.088379 66.0511068,125.789714 64.2099609,123.882813 L21.3046875,78.1171875 C20.2526042,76.999349 19.5292969,76.0294596 19.1347656,75.2075195 C18.7402344,74.3855794 18.5429688,73.5800781 18.5429688,72.7910156 C18.5429688,71.2786458 19.4635417,69.5361328 21.3046875,67.5634766 L64.1113281,21.7978516 C65.952474,19.9567057 67.7936198,18.690918 69.6347656,18.0004883 C71.4759115,17.3100586 73.6787109,16.9648438 76.2431641,16.9648438 L143.412109,16.9648438 C146.69987,16.9648438 149.231445,17.8361003 151.006836,19.5786133 C152.782227,21.3211263 153.669922,23.9348958 153.669922,27.4199219 L153.669922,118.359375 C153.669922,121.910156 152.782227,124.540365 151.006836,126.25 C149.231445,127.959635 146.69987,128.814453 143.412109,128.814453 Z M74.5664063,105.635742 C76.8020833,105.635742 78.6761068,104.879557 80.1884766,103.367187 L99.6191406,83.8378906 L119.148438,103.367187 C120.660807,104.879557 122.501953,105.635742 124.671875,105.635742 C126.841797,105.635742 128.666504,104.879557 130.145996,103.367187 C131.625488,101.854818 132.365234,100.013672 132.365234,97.84375 C132.365234,95.7395833 131.609049,93.9313151 130.09668,92.4189453 L110.567383,72.8896484 L130.195313,53.2617187 C131.707682,51.6835937 132.463867,49.9082031 132.463867,47.9355469 C132.463867,45.765625 131.707682,43.940918 130.195313,42.4614258 C128.682943,40.9819336 126.874674,40.2421875 124.770508,40.2421875 C122.732096,40.2421875 120.923828,40.9983724 119.345703,42.5107422 L99.6191406,62.1386719 L79.9912109,42.609375 C78.6103516,41.03125 76.8020833,40.2421875 74.5664063,40.2421875 C72.4622396,40.2421875 70.6539714,40.9983724 69.1416016,42.5107422 C67.6292318,44.023112 66.8730469,45.8642578 66.8730469,48.0341797 C66.8730469,50.0725911 67.6292318,51.8151042 69.1416016,53.2617187 L88.6708984,72.8896484 L69.1416016,92.5175781 C67.6292318,93.9641927 66.8730469,95.7395833 66.8730469,97.84375 C66.8730469,100.013672 67.6292318,101.854818 69.1416016,103.367187 C70.6539714,104.879557 72.4622396,105.635742 74.5664063,105.635742 Z"/></defs><g fill="none" fill-rule="evenodd"><rect width="365" height="365"/><g fill-rule="nonzero" transform="translate(95.747 109.996)"><use xlink:href="#a" fill="#000" filter="url(#b)"/><use xlink:href="#a" fill="#2E2E2E"/><use xlink:href="#a" fill="url(#c)"/></g></g></svg>