<svg xmlns="http://www.w3.org/2000/svg" xmlns:xlink="http://www.w3.org/1999/xlink" width="365" height="365" viewBox="0 0 365 365"><defs><linearGradient id="c" x1="50%" x2="50%" y1="0%" y2="100%"><stop offset="0%" stop-color="#D8D8D8"/><stop offset="81.272%" stop-color="silver"/><stop offset="100%" stop-color="#767777"/></linearGradient><filter id="b" width="105.7%" height="104.7%" x="-2.9%" y="-2.4%" filterUnits="objectBoundingBox"><feOffset in="SourceAlpha" result="shadowOffsetOuter1"/><feGaussianBlur in="shadowOffsetOuter1" result="shadowBlurOuter1" stdDeviation="2"/><feColorMatrix in="shadowBlurOuter1" values="0 0 0 0 0.552677763 0 0 0 0 0.552677763 0 0 0 0 0.552677763 0 0 0 0.5 0"/></filter><path id="a" d="M185.922852,12.1765289 C185.922852,8.82301331 187.098226,5.95521291 189.448975,3.57312775 C191.799723,1.19104258 194.5861,0 197.808105,0 C201.062988,0 203.865804,1.19104258 206.216553,3.57312775 C208.567301,5.95521291 209.742676,8.82301331 209.742676,12.1765289 L209.742676,242.710693 C209.742676,246.064209 208.567301,248.922763 206.216553,251.286354 C203.865804,253.649946 201.062988,254.831741 197.808105,254.831741 C194.5861,254.831741 191.799723,253.649946 189.448975,251.286354 C187.098226,248.922763 185.922852,246.064209 185.922852,242.710693 L185.922852,12.1765289 Z M64.6538086,51.2197113 C64.6538086,42.915034 66.9634603,36.3872884 71.5827637,31.6364746 C76.2020671,26.8856608 82.5556641,24.5102539 90.6435547,24.5102539 L119.197754,24.5102539 C127.219889,24.5102539 133.540609,26.8856608 138.159912,31.6364746 C142.779215,36.3872884 145.088867,42.915034 145.088867,51.2197113 L145.088867,203.61203 C145.088867,211.916707 142.779215,218.451902 138.159912,223.217613 C133.540609,227.983325 127.219889,230.36618 119.197754,230.36618 L90.6435547,230.36618 C82.5556641,230.36618 76.2020671,227.983325 71.5827637,223.217613 C66.9634603,218.451902 64.6538086,211.916707 64.6538086,203.61203 L64.6538086,51.2197113 Z M23.8198242,12.1765289 L23.8198242,242.710693 C23.8198242,246.064209 22.6444499,248.922763 20.2937012,251.286354 C17.9429525,253.649946 15.1565755,254.831741 11.9345703,254.831741 C8.6796875,254.831741 5.87687174,253.649946 3.52612305,251.286354 C1.17537435,248.922763 0,246.064209 0,242.710693 L0,12.1765289 C0,8.82301331 1.17537435,5.95521291 3.52612305,3.57312775 C5.87687174,1.19104258 8.6796875,0 11.9345703,0 C15.1565755,0 17.9429525,1.19104258 20.2937012,3.57312775 C22.6444499,5.95521291 23.8198242,8.82301331 23.8198242,12.1765289 Z"/></defs><g fill="none" fill-rule="evenodd"><rect width="365" height="365"/><g fill-rule="nonzero" transform="translate(78.129 55.398)"><use xlink:href="#a" fill="#000" filter="url(#b)"/><use xlink:href="#a" fill="#2E2E2E"/><use xlink:href="#a" fill="url(#c)"/></g></g></svg>