<svg xmlns="http://www.w3.org/2000/svg" xmlns:xlink="http://www.w3.org/1999/xlink" width="365" height="365" viewBox="0 0 365 365"><defs><linearGradient id="c" x1="50%" x2="50%" y1="0%" y2="100%"><stop offset="0%" stop-color="#D8D8D8"/><stop offset="81.272%" stop-color="silver"/><stop offset="100%" stop-color="#767777"/></linearGradient><filter id="b" width="104.7%" height="105.7%" x="-2.4%" y="-2.8%" filterUnits="objectBoundingBox"><feOffset in="SourceAlpha" result="shadowOffsetOuter1"/><feGaussianBlur in="shadowOffsetOuter1" result="shadowBlurOuter1" stdDeviation="2"/><feColorMatrix in="shadowBlurOuter1" values="0 0 0 0 0.552677763 0 0 0 0 0.552677763 0 0 0 0 0.552677763 0 0 0 0.5 0"/></filter><path id="a" d="M11.7373047,24.7522125 C8.48242188,24.7522125 5.71248372,23.5241826 3.42749023,21.0681229 C1.14249674,18.6120631 0,15.7072754 0,12.3537598 C0,9.00024414 1.14249674,6.10290527 3.42749023,3.66174316 C5.71248372,1.22058105 8.48242188,0 11.7373047,0 L241.79834,0 C245.053223,0 247.814941,1.22058105 250.083496,3.66174316 C252.352051,6.10290527 253.486328,9.00024414 253.486328,12.3537598 C253.486328,15.7072754 252.352051,18.6120631 250.083496,21.0681229 C247.814941,23.5241826 245.053223,24.7522125 241.79834,24.7522125 L11.7373047,24.7522125 Z M49.7602539,146.770248 C41.5408529,146.770248 35.0968424,144.427719 30.4282227,139.742661 C25.7596029,135.057602 23.425293,128.610509 23.425293,120.401382 L23.425293,91.7978668 C23.425293,83.6544952 25.7596029,77.2328313 30.4282227,72.5328751 C35.0968424,67.8329188 41.5408529,65.4829407 49.7602539,65.4829407 L203.726074,65.4829407 C211.945475,65.4829407 218.389486,67.8329188 223.058105,72.5328751 C227.726725,77.2328313 230.061035,83.6544952 230.061035,91.7978668 L230.061035,120.401382 C230.061035,128.610509 227.726725,135.057602 223.058105,139.742661 C218.389486,144.427719 211.945475,146.770248 203.726074,146.770248 L49.7602539,146.770248 Z M11.7373047,187.54567 L241.79834,187.54567 C245.053223,187.54567 247.814941,188.766251 250.083496,191.207413 C252.352051,193.648575 253.486328,196.560811 253.486328,199.944122 C253.486328,203.297638 252.352051,206.194977 250.083496,208.636139 C247.814941,211.077301 245.053223,212.297882 241.79834,212.297882 L11.7373047,212.297882 C8.48242188,212.297882 5.71248372,211.077301 3.42749023,208.636139 C1.14249674,206.194977 0,203.297638 0,199.944122 C0,196.560811 1.14249674,193.648575 3.42749023,191.207413 C5.71248372,188.766251 8.48242188,187.54567 11.7373047,187.54567 Z"/></defs><g fill="none" fill-rule="evenodd"><rect width="365" height="365"/><g fill-rule="nonzero" transform="translate(56.257 76.638)"><use xlink:href="#a" fill="#000" filter="url(#b)"/><use xlink:href="#a" fill="#2E2E2E"/><use xlink:href="#a" fill="url(#c)"/></g></g></svg>