<svg xmlns="http://www.w3.org/2000/svg" xmlns:xlink="http://www.w3.org/1999/xlink" width="365" height="365" viewBox="0 0 365 365"><defs><linearGradient id="c" x1="50%" x2="50%" y1="0%" y2="100%"><stop offset="0%" stop-color="#D8D8D8"/><stop offset="81.272%" stop-color="silver"/><stop offset="100%" stop-color="#767777"/></linearGradient><linearGradient id="f" x1="50%" x2="50%" y1="0%" y2="100%"><stop offset="0%" stop-color="#D8D8D8"/><stop offset="81.272%" stop-color="silver"/><stop offset="100%" stop-color="#767777"/></linearGradient><filter id="b" width="107.5%" height="107.5%" x="-3.7%" y="-3.7%" filterUnits="objectBoundingBox"><feOffset in="SourceAlpha" result="shadowOffsetOuter1"/><feGaussianBlur in="shadowOffsetOuter1" result="shadowBlurOuter1" stdDeviation="2.5"/><feColorMatrix in="shadowBlurOuter1" values="0 0 0 0 0.552677763 0 0 0 0 0.552677763 0 0 0 0 0.552677763 0 0 0 0.5 0"/></filter><filter id="e" width="115.4%" height="115.2%" x="-7.7%" y="-7.6%" filterUnits="objectBoundingBox"><feOffset in="SourceAlpha" result="shadowOffsetOuter1"/><feGaussianBlur in="shadowOffsetOuter1" result="shadowBlurOuter1" stdDeviation="2.5"/><feColorMatrix in="shadowBlurOuter1" values="0 0 0 0 0.552677763 0 0 0 0 0.552677763 0 0 0 0 0.552677763 0 0 0 0.5 0"/></filter><path id="a" d="M200.307096,100.211816 C200.307096,104.08716 200.085279,107.912394 199.602364,111.658225 C194.837912,110.18965 189.784635,109.411035 184.559603,109.411035 C155.794973,109.411035 132.147546,133.136431 132.147546,161.870403 C132.147546,172.834996 135.538734,183.027141 141.32447,191.45237 C128.784086,197.241873 114.817294,200.423401 100.119582,200.423401 C44.932498,200.423401 0,155.449528 0,100.211816 C0,44.9741039 44.932498,0 100.119582,0 C155.373674,0 200.307096,44.9741039 200.307096,100.211816 Z M122.077962,51.9816375 C115.88633,58.0494369 115.76695,66.5879894 108.651079,74.8975829 L107.541222,73.7258061 C104.338734,70.4170784 100.326766,70.4471438 97.0256921,73.6641336 L95.1795246,75.3932753 C91.5149167,78.9402128 91.8129838,82.4540014 95.335875,85.9469755 L97.1358306,87.743186 L63.72998,121.209748 C46.8641576,138.118795 51.1503162,141.542388 44.5758957,150.317609 L50.7675272,156.867224 C59.3660313,150.159573 63.9402444,155.028614 80.6851455,138.363173 L114.349013,104.917425 L116.215206,106.779163 C119.771215,110.272908 123.116961,110.571248 126.66989,106.936427 L128.454441,105.121715 C131.6215,101.893162 131.646147,97.9993165 128.359707,94.6389382 L127.189004,93.4525142 C135.490981,86.3632646 144.025559,86.1813308 150.083946,80.0549426 C158.171808,71.8648395 156.998794,59.4208783 149.898328,52.2337237 C142.873341,45.0457981 130.376088,43.8871267 122.077962,51.9816375 Z M107.768431,98.3516205 L67.7411775,138.406343 C66.3139984,139.806308 64.738941,140.153987 63.5982759,138.911287 C62.2766141,137.449649 62.4992017,136.127546 64.0334385,134.596527 L103.942081,94.5333241 L107.768431,98.3516205 Z"/><path id="d" d="M184.559603,201.237478 C206.116709,201.237478 223.795091,183.504332 223.795091,161.870403 C223.795091,140.389113 206.116709,122.637465 184.559603,122.637465 C163.041007,122.637465 145.334127,140.389113 145.334127,161.870403 C145.334127,183.504332 163.041007,201.237478 184.559603,201.237478 Z M184.5881,187.502249 C170.650575,187.502249 159.085264,175.983375 159.085264,161.841879 C159.085264,147.930113 170.650575,136.439763 184.5881,136.439763 C198.592633,136.439763 210.100949,147.930113 210.100949,161.841879 C210.100949,176.011898 198.592633,187.502249 184.5881,187.502249 Z M234.222819,221.046673 C239.276866,221.046673 242.938393,217.286194 242.938393,212.055598 C242.938393,209.736714 241.842399,207.550425 240.050146,205.728004 L214.715983,180.218731 L201.890626,192.770619 L227.214006,217.983864 C229.207281,219.988219 231.477058,221.046673 234.222819,221.046673 Z"/></defs><g fill="none" fill-rule="evenodd"><rect width="365" height="365"/><g fill-rule="nonzero" transform="translate(81.825 82.726)"><g opacity=".8"><use xlink:href="#a" fill="#000" filter="url(#b)"/><use xlink:href="#a" fill="#2E2E2E"/><use xlink:href="#a" fill="url(#c)"/></g><use xlink:href="#d" fill="#000" filter="url(#e)"/><use xlink:href="#d" fill="#2E2E2E"/><use xlink:href="#d" fill="url(#f)"/></g></g></svg>