<svg xmlns="http://www.w3.org/2000/svg" xmlns:xlink="http://www.w3.org/1999/xlink" width="1400" height="1400" viewBox="0 0 1400 1400"><defs><linearGradient id="a" x1="50%" x2="50%" y1="0%" y2="100%"><stop offset="0%" stop-color="#616261"/><stop offset="100%" stop-color="#2F3030"/></linearGradient><linearGradient id="c" x1="50%" x2="50%" y1="0%" y2="100%"><stop offset="0%" stop-color="#454645"/><stop offset="100%" stop-color="#454545"/></linearGradient><linearGradient id="d" x1="50%" x2="50%" y1="0%" y2="100%"><stop offset="0%" stop-color="#232323"/><stop offset="53.029%" stop-color="#3E3F3E"/><stop offset="100%" stop-color="#5C5D5D"/></linearGradient><linearGradient id="h" x1="50%" x2="50%" y1="0%" y2="100%"><stop offset="0%" stop-color="#848484"/><stop offset="100%" stop-color="#3C3D3D"/></linearGradient><linearGradient id="i" x1="50%" x2="50%" y1="0%" y2="100%"><stop offset="0%" stop-color="#8B8B8B"/><stop offset="100%" stop-color="#363636"/></linearGradient><linearGradient id="j" x1="50%" x2="50%" y1="0%" y2="100%"><stop offset="0%" stop-color="#333"/><stop offset="100%" stop-color="#595959"/></linearGradient><linearGradient id="k" x1="50%" x2="50%" y1="0%" y2="100%"><stop offset="0%" stop-color="#595959"/><stop offset="100%" stop-color="#333"/></linearGradient><linearGradient id="m" x1="50%" x2="50%" y1="0%" y2="100%"><stop offset="0%" stop-color="#282929"/><stop offset="19.258%" stop-color="#383938"/><stop offset="50.063%" stop-color="#3B3C3B"/><stop offset="75.325%" stop-color="#2B2C2B"/><stop offset="100%" stop-color="#131313"/></linearGradient><linearGradient id="q" x1="50%" x2="50%" y1="0%" y2="100%"><stop offset="0%" stop-color="#282929"/><stop offset="19.258%" stop-color="#383938"/><stop offset="75.325%" stop-color="#2B2C2B"/><stop offset="100%" stop-color="#131313"/></linearGradient><linearGradient id="r" x1="50%" x2="50%" y1="0%" y2="100%"><stop offset="0%" stop-color="#FFF" stop-opacity=".5"/><stop offset="44.348%" stop-color="#FFF"/><stop offset="100%" stop-color="#FFF" stop-opacity=".5"/></linearGradient><linearGradient id="v" x1="50%" x2="50%" y1="0%" y2="100%"><stop offset="0%" stop-color="#D8D8D8"/><stop offset="81.272%" stop-color="silver"/><stop offset="100%" stop-color="#767777"/></linearGradient><filter id="g" width="165.3%" height="165.3%" x="-32.7%" y="-17.7%" filterUnits="objectBoundingBox"><feOffset dy="90" in="SourceAlpha" result="shadowOffsetOuter1"/><feGaussianBlur in="shadowOffsetOuter1" result="shadowBlurOuter1" stdDeviation="51"/><feComposite in="shadowBlurOuter1" in2="SourceAlpha" operator="out" result="shadowBlurOuter1"/><feColorMatrix in="shadowBlurOuter1" values="0 0 0 0 0 0 0 0 0 0 0 0 0 0 0 0 0 0 1 0"/></filter><filter id="n" width="102.2%" height="104.1%" x="-1.1%" y="-2%" filterUnits="objectBoundingBox"><feOffset dx="-6" in="SourceAlpha" result="shadowOffsetInner1"/><feComposite in="shadowOffsetInner1" in2="SourceAlpha" k2="-1" k3="1" operator="arithmetic" result="shadowInnerInner1"/><feColorMatrix in="shadowInnerInner1" result="shadowMatrixInner1" values="0 0 0 0 0.368627451 0 0 0 0 0.368627451 0 0 0 0 0.368627451 0 0 0 0.5 0"/><feOffset dx="6" in="SourceAlpha" result="shadowOffsetInner2"/><feComposite in="shadowOffsetInner2" in2="SourceAlpha" k2="-1" k3="1" operator="arithmetic" result="shadowInnerInner2"/><feColorMatrix in="shadowInnerInner2" result="shadowMatrixInner2" values="0 0 0 0 0.368627451 0 0 0 0 0.368627451 0 0 0 0 0.368627451 0 0 0 0.5 0"/><feMerge><feMergeNode in="shadowMatrixInner1"/><feMergeNode in="shadowMatrixInner2"/></feMerge></filter><filter id="u" width="106.8%" height="106.2%" x="-3.4%" y="-3.1%" filterUnits="objectBoundingBox"><feOffset in="SourceAlpha" result="shadowOffsetOuter1"/><feGaussianBlur in="shadowOffsetOuter1" result="shadowBlurOuter1" stdDeviation="4.5"/><feColorMatrix in="shadowBlurOuter1" values="0 0 0 0 0.552677763 0 0 0 0 0.552677763 0 0 0 0 0.552677763 0 0 0 0.5 0"/></filter><rect id="b" width="1104" height="1074" x="0" y="0" rx="144"/><rect id="l" width="267" height="147" x="0" y="0" rx="12"/><rect id="p" width="255" height="147" x="0" y="0" rx="6"/><radialGradient id="e" cx="50%" cy="50%" r="50%" fx="50%" fy="50%"><stop offset="0%" stop-color="#FFF"/><stop offset="64.724%" stop-color="#FFF"/><stop offset="100%" stop-color="#FFFEFE" stop-opacity="0"/></radialGradient><circle id="f" cx="562.5" cy="636" r="300"/><path id="t" d="M794.190622,839.971426 L848.3308,870.741124 C849.283729,871.229295 849.760194,871.803144 849.760194,872.462673 C849.760194,873.205888 849.283729,873.820584 848.3308,874.306763 L707.270271,954.585936 C704.285624,956.229776 701.695533,957.051696 699.5,957.051696 C697.200583,957.051696 694.558551,956.229776 691.573904,954.585936 L550.513375,874.306763 C549.664329,873.820584 549.239806,873.205888 549.239806,872.462673 C549.239806,871.803144 549.664329,871.229295 550.513375,870.741124 L609.960591,837.063323 L572.640517,815 L524.307815,842.945282 C516.23888,847.723377 510.337011,852.320152 506.602206,856.735606 C502.867402,861.15106 501,866.393416 501,872.462673 C501,878.613624 502.867402,883.896826 506.602206,888.31228 C510.337011,892.727735 516.23888,897.336464 524.307815,902.13847 L673.456258,988.314547 C678.480614,991.225638 683.033998,993.400986 687.116412,994.840592 C691.198826,996.280197 695.326688,997 699.5,997 C703.569428,997 707.67132,996.280197 711.805675,994.840592 C715.940031,993.400986 720.519386,991.225638 725.543742,988.314547 L874.53636,902.13847 C882.711176,897.336464 888.665487,892.727735 892.399292,888.31228 C896.133097,883.896826 898,878.613624 898,872.462673 C898,866.393416 896.133097,861.15106 892.399292,856.735606 C888.665487,852.320152 882.711176,847.723377 874.53636,842.945282 L829.314163,816.601997 L794.190622,839.971426 Z M790.921295,749.046495 L848.3308,781.614109 C849.283729,782.100178 849.760194,782.725693 849.760194,783.490654 C849.760194,784.233702 849.283729,784.84826 848.3308,785.334329 L707.270271,865.437095 C704.285624,867.082558 701.695533,867.905289 699.5,867.905289 C697.200583,867.905289 694.558551,867.082558 691.573904,865.437095 L550.513375,785.334329 C549.664329,784.84826 549.239806,784.233702 549.239806,783.490654 C549.239806,782.725693 549.664329,782.100178 550.513375,781.614109 L612.226046,746.494633 L576.194525,724 L524.307815,753.824512 C516.23888,758.601534 510.337011,763.223173 506.602206,767.689429 C502.867402,772.155686 501,777.422761 501,783.490654 C501,789.536634 502.867402,794.793251 506.602206,799.260503 C510.337011,803.727755 516.23888,808.309055 524.307815,813.004401 L673.456258,899.316498 C678.480614,902.228927 683.033998,904.404285 687.116412,905.842571 C691.198826,907.280857 695.326688,908 699.5,908 C703.569428,908 707.67132,907.280857 711.805675,905.842571 C715.940031,904.404285 720.519386,902.228927 725.543742,899.316498 L874.53636,813.004401 C882.711176,808.309055 888.665487,803.727755 892.399292,799.260503 C896.133097,794.793251 898,789.536634 898,783.490654 C898,777.422761 896.133097,772.155686 892.399292,767.689429 C888.665487,763.223173 882.711176,758.601534 874.53636,753.824512 L826.695106,726.088702 L790.921295,749.046495 Z M699.5,813 C703.569428,813 707.67132,812.277555 711.805675,810.832665 C715.940031,809.387775 720.519386,807.202429 725.543742,804.276626 L874.53636,717.72431 C882.711176,712.925354 888.665487,708.30851 892.399292,703.873778 C896.133097,699.439046 898,694.121771 898,687.921952 C898,681.824196 896.133097,676.563955 892.399292,672.141231 C888.665487,667.718507 882.711176,663.095659 874.53636,658.272688 L725.543742,571.720372 C720.519386,568.796571 715.940031,566.612225 711.805675,565.167335 C707.67132,563.722445 703.569428,563 699.5,563 C695.326688,563 691.198826,563.722445 687.116412,565.167335 C683.033998,566.612225 678.480614,568.796571 673.456258,571.720372 L524.307815,658.272688 C516.23888,663.095659 510.337011,667.718507 506.602206,672.141231 C502.867402,676.563955 501,681.824196 501,687.921952 C501,694.121771 502.867402,699.439046 506.602206,703.873778 C510.337011,708.30851 516.23888,712.925354 524.307815,717.72431 L673.456258,804.276626 C678.480614,807.202429 683.033998,809.387775 687.116412,810.832665 C691.198826,812.277555 695.326688,813 699.5,813 Z M700,773 C697.704565,773 695.067108,772.166399 692.087629,770.499196 L551.271364,690.282234 C550.423788,689.772313 550,689.146863 550,688.405884 C550,687.768482 550.423788,687.194821 551.271364,686.6849 L692.087629,606.467938 C695.067108,604.822646 697.704565,604 700,604 C702.191732,604 704.777337,604.822646 707.756816,606.467938 L848.573081,686.6849 C849.52436,687.194821 850,687.768482 850,688.405884 C850,689.146863 849.52436,689.772313 848.573081,690.282234 L707.756816,770.499196 C704.777337,772.166399 702.191732,773 700,773 Z"/></defs><g fill="none" fill-rule="evenodd"><rect width="1400" height="1400"/><g transform="translate(136.153 151)"><rect width="1128" height="1098" fill="url(#a)" rx="156"/><use xlink:href="#b" fill="url(#c)" transform="translate(12 12)"/><rect width="381" height="177" x="663" y="81" fill="url(#d)" rx="88.5"/><circle cx="562.5" cy="636" r="336" fill="url(#e)"/><use xlink:href="#f" fill="#000" filter="url(#g)"/><use xlink:href="#f" fill="url(#h)" style="mix-blend-mode:darken"/><circle cx="562.5" cy="636" r="298.5" stroke="url(#i)" stroke-linejoin="square" stroke-width="3"/><circle cx="169.5" cy="166.5" r="82.5" fill="url(#j)" stroke="#010000" stroke-width="6"/><circle cx="169.5" cy="928.5" r="82.5" fill="#454645" stroke="#010000" stroke-width="6"/><circle cx="952.5" cy="928.5" r="82.5" fill="#454645" stroke="#010000" stroke-width="6"/><circle cx="370.5" cy="166.5" r="82.5" fill="url(#k)" stroke="#010000" stroke-width="6"/><g transform="translate(720 96)"><mask id="o" fill="#fff"><use xlink:href="#l"/></mask><use xlink:href="#l" fill="url(#m)"/><use xlink:href="#l" fill="#000" filter="url(#n)"/><g mask="url(#o)"><g transform="translate(6)"><mask id="s" fill="#fff"><use xlink:href="#p"/></mask><use xlink:href="#p" fill="url(#q)"/><path fill="url(#r)" fill-rule="nonzero" d="M255,135 L255,138 L0,138 L0,135 L255,135 Z M255,129 L255,132 L0,132 L0,129 L255,129 Z M255,123 L255,126 L0,126 L0,123 L255,123 Z M255,117 L255,120 L0,120 L0,117 L255,117 Z M255,111 L255,114 L0,114 L0,111 L255,111 Z M255,105 L255,108 L0,108 L0,105 L255,105 Z M255,99 L255,102 L0,102 L0,99 L255,99 Z M255,93 L255,96 L0,96 L0,93 L255,93 Z M255,87 L255,90 L0,90 L0,87 L255,87 Z M255,81 L255,84 L0,84 L0,81 L255,81 Z M255,75 L255,78 L0,78 L0,75 L255,75 Z M255,69 L255,72 L0,72 L0,69 L255,69 Z M255,63 L255,66 L0,66 L0,63 L255,63 Z M255,57 L255,60 L0,60 L0,57 L255,57 Z M255,51 L255,54 L0,54 L0,51 L255,51 Z M255,45 L255,48 L0,48 L0,45 L255,45 Z M255,39 L255,42 L0,42 L0,39 L255,39 Z M255,33 L255,36 L0,36 L0,33 L255,33 Z M255,27 L255,30 L0,30 L0,27 L255,27 Z M255,21 L255,24 L0,24 L0,21 L255,21 Z M255,15 L255,18 L0,18 L0,15 L255,15 Z M255,9 L255,12 L0,12 L0,9 L255,9 Z M255,3 L255,6 L0,6 L0,3 L255,3 Z" mask="url(#s)" opacity=".1"/></g></g></g></g><g fill-rule="nonzero"><use xlink:href="#t" fill="#000" filter="url(#u)"/><use xlink:href="#t" fill="#2E2E2E"/><use xlink:href="#t" fill="url(#v)"/></g></g></svg>