<svg xmlns="http://www.w3.org/2000/svg" xmlns:xlink="http://www.w3.org/1999/xlink" width="365" height="365" viewBox="0 0 365 365"><defs><linearGradient id="c" x1="50%" x2="50%" y1="0%" y2="100%"><stop offset="0%" stop-color="#D8D8D8"/><stop offset="81.272%" stop-color="silver"/><stop offset="100%" stop-color="#767777"/></linearGradient><filter id="b" width="118.9%" height="118.3%" x="-9.4%" y="-9.2%" filterUnits="objectBoundingBox"><feOffset in="SourceAlpha" result="shadowOffsetOuter1"/><feGaussianBlur in="shadowOffsetOuter1" result="shadowBlurOuter1" stdDeviation="2"/><feColorMatrix in="shadowBlurOuter1" values="0 0 0 0 0.552677763 0 0 0 0 0.552677763 0 0 0 0 0.552677763 0 0 0 0.5 0"/></filter><path id="a" d="M24.5025482,0 L26.0822144,32.7877045 L37.4342346,32.7877045 L39.0139008,0 L24.5025482,0 Z M24.5025482,65.5569153 L39.0139008,65.5569153 L37.4342346,32.7877045 L26.0822144,32.7877045 L24.5025482,65.5569153 Z M0,21.9473419 L28.9117432,37.2415924 L34.595459,28.2521362 L7.39900208,10.632309 L0,21.9473419 Z M63.5703888,21.9473419 L56.1698456,10.632309 L28.9733887,28.2521362 L34.6586456,37.2415924 L63.5703888,21.9473419 Z M63.5518951,43.5463867 L34.640152,28.2521362 L28.9564362,37.2415924 L56.1528931,54.8614197 L63.5518951,43.5463867 Z M0,43.6897125 L7.39900208,55.0047455 L34.595459,37.3849182 L28.9117432,28.3939209 L0,43.6897125 Z"/></defs><g fill="none" fill-rule="evenodd"><rect width="365" height="365"/><g fill-rule="nonzero" transform="translate(151.215 113.052)"><use xlink:href="#a" fill="#000" filter="url(#b)"/><use xlink:href="#a" fill="#2E2E2E"/><use xlink:href="#a" fill="url(#c)"/></g></g></svg>