<svg xmlns="http://www.w3.org/2000/svg" xmlns:xlink="http://www.w3.org/1999/xlink" width="1281" height="1281" viewBox="0 0 1281 1281"><defs><filter id="b" width="112.4%" height="108.4%" x="-6.2%" y="-4.2%" filterUnits="objectBoundingBox"><feOffset in="SourceAlpha" result="shadowOffsetOuter1"/><feGaussianBlur in="shadowOffsetOuter1" result="shadowBlurOuter1" stdDeviation="2"/><feColorMatrix in="shadowBlurOuter1" values="0 0 0 0 0.552677763 0 0 0 0 0.552677763 0 0 0 0 0.552677763 0 0 0 0.5 0"/></filter><filter id="e" width="111.2%" height="108.2%" x="-5.6%" y="-4.1%" filterUnits="objectBoundingBox"><feOffset in="SourceAlpha" result="shadowOffsetOuter1"/><feGaussianBlur in="shadowOffsetOuter1" result="shadowBlurOuter1" stdDeviation="2"/><feColorMatrix in="shadowBlurOuter1" values="0 0 0 0 0.552677763 0 0 0 0 0.552677763 0 0 0 0 0.552677763 0 0 0 0.5 0"/></filter><filter id="h" width="111.1%" height="108.2%" x="-5.6%" y="-4.1%" filterUnits="objectBoundingBox"><feOffset in="SourceAlpha" result="shadowOffsetOuter1"/><feGaussianBlur in="shadowOffsetOuter1" result="shadowBlurOuter1" stdDeviation="2"/><feColorMatrix in="shadowBlurOuter1" values="0 0 0 0 0.552677763 0 0 0 0 0.552677763 0 0 0 0 0.552677763 0 0 0 0.5 0"/></filter><filter id="k" width="110.7%" height="108.4%" x="-5.4%" y="-4.2%" filterUnits="objectBoundingBox"><feOffset in="SourceAlpha" result="shadowOffsetOuter1"/><feGaussianBlur in="shadowOffsetOuter1" result="shadowBlurOuter1" stdDeviation="2"/><feColorMatrix in="shadowBlurOuter1" values="0 0 0 0 0.552677763 0 0 0 0 0.552677763 0 0 0 0 0.552677763 0 0 0 0.5 0"/></filter><filter id="n" width="111.7%" height="108.3%" x="-5.8%" y="-4.1%" filterUnits="objectBoundingBox"><feOffset in="SourceAlpha" result="shadowOffsetOuter1"/><feGaussianBlur in="shadowOffsetOuter1" result="shadowBlurOuter1" stdDeviation="2"/><feColorMatrix in="shadowBlurOuter1" values="0 0 0 0 0.552677763 0 0 0 0 0.552677763 0 0 0 0 0.552677763 0 0 0 0.5 0"/></filter><filter id="q" width="111.1%" height="108.2%" x="-5.6%" y="-4.1%" filterUnits="objectBoundingBox"><feOffset in="SourceAlpha" result="shadowOffsetOuter1"/><feGaussianBlur in="shadowOffsetOuter1" result="shadowBlurOuter1" stdDeviation="2"/><feColorMatrix in="shadowBlurOuter1" values="0 0 0 0 0.552677763 0 0 0 0 0.552677763 0 0 0 0 0.552677763 0 0 0 0.5 0"/></filter><filter id="s" width="120.2%" height="108.4%" x="-10.1%" y="-4.2%" filterUnits="objectBoundingBox"><feOffset in="SourceAlpha" result="shadowOffsetOuter1"/><feGaussianBlur in="shadowOffsetOuter1" result="shadowBlurOuter1" stdDeviation="2"/><feColorMatrix in="shadowBlurOuter1" values="0 0 0 0 0.552677763 0 0 0 0 0.552677763 0 0 0 0 0.552677763 0 0 0 0.5 0"/></filter><filter id="v" width="112.2%" height="108.3%" x="-6.1%" y="-4.1%" filterUnits="objectBoundingBox"><feOffset in="SourceAlpha" result="shadowOffsetOuter1"/><feGaussianBlur in="shadowOffsetOuter1" result="shadowBlurOuter1" stdDeviation="2"/><feColorMatrix in="shadowBlurOuter1" values="0 0 0 0 0.552677763 0 0 0 0 0.552677763 0 0 0 0 0.552677763 0 0 0 0.5 0"/></filter><filter id="y" width="111.6%" height="108.2%" x="-5.8%" y="-4.1%" filterUnits="objectBoundingBox"><feOffset in="SourceAlpha" result="shadowOffsetOuter1"/><feGaussianBlur in="shadowOffsetOuter1" result="shadowBlurOuter1" stdDeviation="2"/><feColorMatrix in="shadowBlurOuter1" values="0 0 0 0 0.552677763 0 0 0 0 0.552677763 0 0 0 0 0.552677763 0 0 0 0.5 0"/></filter><linearGradient id="c" x1="50%" x2="50%" y1="0%" y2="100%"><stop offset="0%" stop-color="#D8D8D8"/><stop offset="81.272%" stop-color="silver"/><stop offset="100%" stop-color="#767777"/></linearGradient><linearGradient id="f" x1="50%" x2="50%" y1="0%" y2="100%"><stop offset="0%" stop-color="#D8D8D8"/><stop offset="81.272%" stop-color="silver"/><stop offset="100%" stop-color="#767777"/></linearGradient><linearGradient id="i" x1="50%" x2="50%" y1="0%" y2="100%"><stop offset="0%" stop-color="#D8D8D8"/><stop offset="81.272%" stop-color="silver"/><stop offset="100%" stop-color="#767777"/></linearGradient><linearGradient id="l" x1="50%" x2="50%" y1="0%" y2="100%"><stop offset="0%" stop-color="#D8D8D8"/><stop offset="81.272%" stop-color="silver"/><stop offset="100%" stop-color="#767777"/></linearGradient><linearGradient id="o" x1="50%" x2="50%" y1="0%" y2="100%"><stop offset="0%" stop-color="#D8D8D8"/><stop offset="81.272%" stop-color="silver"/><stop offset="100%" stop-color="#767777"/></linearGradient><linearGradient id="t" x1="50%" x2="50%" y1="0%" y2="100%"><stop offset="0%" stop-color="#D8D8D8"/><stop offset="81.272%" stop-color="silver"/><stop offset="100%" stop-color="#767777"/></linearGradient><linearGradient id="w" x1="50%" x2="50%" y1="0%" y2="100%"><stop offset="0%" stop-color="#D8D8D8"/><stop offset="81.272%" stop-color="silver"/><stop offset="100%" stop-color="#767777"/></linearGradient><linearGradient id="z" x1="50%" x2="50%" y1="0%" y2="100%"><stop offset="0%" stop-color="#D8D8D8"/><stop offset="81.272%" stop-color="silver"/><stop offset="100%" stop-color="#767777"/></linearGradient><path id="d" d="M53.7625885,147.132416 C64.281367,147.132416 73.5906092,145.389903 81.6903152,141.904877 C89.7900213,138.419851 96.1210149,133.591466 100.683296,127.419724 C105.245577,121.247981 107.526718,114.147446 107.526718,106.118118 L107.526718,105.920853 C107.526718,99.9607595 106.199285,94.4938304 103.544418,89.5200653 C100.889552,84.5463003 97.2105993,80.3397649 92.5075607,76.9004593 C87.8045222,73.4611537 82.3476105,71.0813802 76.1368256,69.7611389 L76.1368256,69.2941742 C84.1055349,66.9937693 90.471461,63.0548782 95.2346039,57.4775009 C99.9977468,51.9001236 102.379318,45.3392436 102.379318,37.7948608 L102.379318,37.5975952 C102.379318,30.3706868 100.298525,23.931043 96.13694,18.2786636 C91.9753545,12.6262843 86.23924,8.1667455 78.9285965,4.9000473 C71.617953,1.6333491 63.2292837,0 53.7625885,0 C44.3503469,0 35.9755478,1.6333491 28.6381912,4.9000473 C21.3008347,8.1667455 15.5511068,12.6262843 11.3890076,18.2786636 C7.22690837,23.931043 5.14585876,30.3706868 5.14585876,37.5975952 L5.14585876,37.7948608 C5.14585876,45.3392436 7.54078674,51.9001236 12.3306427,57.4775009 C17.1204987,63.0548782 23.4735819,66.9937693 31.3898926,69.2941742 L31.3898926,69.7611389 C25.2315063,71.0813802 19.7876943,73.4611537 15.0584564,76.9004593 C10.3292185,80.3397649 6.63716634,84.5463003 3.9822998,89.5200653 C1.32743327,94.4938304 0,99.9607595 0,105.920853 L0,106.118118 C0,114.147446 2.29449717,121.247981 6.88349152,127.419724 C11.4724859,133.591466 17.8032227,138.419851 25.8757019,141.904877 C33.9481812,145.389903 43.24381,147.132416 53.7625885,147.132416 Z M53.7625885,129.387756 C47.7470144,129.387756 42.4067154,128.328738 37.7416916,126.210701 C33.0766678,124.092664 29.4120992,121.174263 26.7479858,117.455498 C24.0838725,113.736732 22.7518158,109.487559 22.7518158,104.707977 L22.7518158,104.510712 C22.7518158,99.6777039 24.0674337,95.3912862 26.6986694,91.6514587 C29.3299052,87.9116313 32.978035,84.9693425 37.6430588,82.8245926 C42.3080826,80.6798426 47.6812592,79.6074677 53.7625885,79.6074677 C59.8439178,79.6074677 65.2173513,80.6798426 69.8828888,82.8245926 C74.5484263,84.9693425 78.1968129,87.9116313 80.8280487,91.6514587 C83.4592845,95.3912862 84.7749023,99.6777039 84.7749023,104.510712 L84.7749023,104.707977 C84.7749023,109.487559 83.4428457,113.736732 80.7787323,117.455498 C78.1146189,121.174263 74.46315,124.092664 69.8243256,126.210701 C65.1855011,128.328738 59.8315887,129.387756 53.7625885,129.387756 Z M53.7625885,61.8165741 C48.500117,61.8165741 43.8677139,60.8803329 39.8653793,59.0078506 C35.8630447,57.1353683 32.7389018,54.5382945 30.4929504,51.216629 C28.2469991,47.8949636 27.1240234,44.0770518 27.1240234,39.7628937 L27.1240234,39.5656281 C27.1240234,35.2524974 28.2500814,31.441007 30.5021973,28.1311569 C32.7543132,24.8213069 35.8815384,22.2329661 39.883873,20.3661346 C43.8862076,18.4993032 48.5124461,17.5658875 53.7625885,17.5658875 C59.0137583,17.5658875 63.6402537,18.4993032 67.6420746,20.3661346 C71.6438955,22.2329661 74.7708639,24.8213069 77.0229797,28.1311569 C79.2750956,31.441007 80.4011536,35.2524974 80.4011536,39.5656281 L80.4011536,39.7628937 C80.4011536,44.0770518 79.2781779,47.8949636 77.0322266,51.216629 C74.7862752,54.5382945 71.6621323,57.1353683 67.6597977,59.0078506 C63.6574631,60.8803329 59.02506,61.8165741 53.7625885,61.8165741 Z"/><path id="g" d="M52.0288086,0 C41.9960022,0 33.0720444,2.10262553 25.2569351,6.30787659 C17.4418259,10.5131276 11.2785594,16.2880274 6.76713562,23.632576 C2.25571187,30.9771245 0,39.3842875 0,48.8540649 L0,49.0513306 C0,58.0115051 2.01863352,66.0182292 6.05590057,73.0715027 C10.0931676,80.1247762 15.648969,85.6718445 22.7233047,89.7127075 C29.7976405,93.7535706 37.8631846,95.7740021 46.9199371,95.7740021 C53.3639476,95.7740021 59.2084554,94.7532552 64.4534607,92.7117615 C69.698466,90.6702677 74.1739299,87.9265289 77.8798523,84.480545 C81.5857747,81.0345612 84.3860219,77.1714427 86.2805939,72.8911896 L88.3703766,72.8911896 L88.3703766,48.743103 L82.4154205,48.743103 L82.4154205,48.8602295 C82.4154205,54.4638062 81.0846481,59.4519552 78.4231033,63.8246765 C75.7615585,68.1973979 72.1398849,71.6261724 67.5580826,74.1110001 C62.9762802,76.5958277 57.7911224,77.8382416 52.0026093,77.8382416 C46.2500559,77.8382416 41.1157557,76.5824712 36.5997086,74.0709305 C32.0836614,71.5593898 28.5351919,68.0872065 25.9542999,63.6543808 C23.373408,59.2215551 22.082962,54.1437632 22.082962,48.4210052 L22.082962,48.2237396 C22.082962,42.7105764 23.4299164,37.7198588 26.1238251,33.2515869 C28.8177338,28.783315 32.4527639,25.2366435 37.0289154,22.6115723 C41.6050669,19.9865011 46.694931,18.6739655 52.2985077,18.6739655 C57.9678396,18.6739655 63.0769679,20.013471 67.6258926,22.692482 C72.1748174,25.371493 75.7769699,28.9749298 78.4323502,33.5027924 C81.0877304,38.0306549 82.4154205,43.1107585 82.4154205,48.743103 L86.7475586,72.2285004 C86.7475586,73.0062612 86.7444763,73.7709223 86.7383118,74.5224838 C86.7321472,75.2740453 86.6961873,76.0387065 86.6304321,76.8164673 C86.3314514,86.1670634 84.9464823,94.7655843 82.4755249,102.61203 C80.0045675,110.458476 76.2436778,116.74118 71.1928558,121.460144 C66.1420339,126.179108 59.5274709,128.538589 51.3491669,128.538589 C46.8449351,128.538589 42.8171717,127.826327 39.2658768,126.401802 C35.7145818,124.977277 32.7070516,122.961469 30.2432861,120.354378 C27.7795207,117.747286 25.8726196,114.696604 24.522583,111.202332 L24.1450043,110.208298 L1.93566895,110.208298 L2.19612122,111.364151 C3.72595723,118.424616 6.74530284,124.635401 11.254158,129.996506 C15.7630132,135.35761 21.4349136,139.553871 28.2698593,142.585289 C35.104805,145.616707 42.7444814,147.132416 51.1888885,147.132416 C63.1049652,147.132416 73.2962519,144.143636 81.7627487,138.166077 C90.2292455,132.188517 96.7271957,123.561485 101.256599,112.284981 C105.786003,101.008476 108.050705,87.4595642 108.050705,71.6382446 L108.050705,71.440979 C108.050705,58.6464539 106.522153,47.7285207 103.46505,38.6871796 C100.407946,29.6458384 96.2445628,22.2699534 90.9748993,16.5595245 C85.7052358,10.8490957 79.7274195,6.66156769 73.0414505,3.99694061 C66.3554815,1.33231354 59.3512675,0 52.0288086,0 Z"/><path id="j" d="M71.2375488,142.327148 L92.4867554,142.327148 L92.4867554,114.021072 L112.119308,114.021072 L112.119308,95.4164581 L92.4867554,95.4164581 L92.4867554,0 L60.4634552,0 C56.4534149,6.31147257 52.4269358,12.6257706 48.3840179,18.942894 C44.3411001,25.2600174 40.3117956,31.5773977 36.2961044,37.8950348 C32.2804133,44.2126719 28.2511088,50.5272268 24.2081909,56.8386993 C20.165273,63.1501719 16.1223551,69.4644699 12.0794373,75.7815933 C8.03651937,82.0987167 4.01004028,88.4130147 0,94.7244873 L0,114.021072 L71.2375488,114.021072 L71.2375488,142.327148 Z M20.6127167,95.7246857 L20.6127167,95.1852875 C23.9590403,89.9926809 27.3020248,84.8136876 30.6416702,79.6483078 C33.9813156,74.482928 37.3373998,69.3008525 40.7099228,64.1020813 C44.0824458,58.9033101 47.4387868,53.7212346 50.7789459,48.5558548 C54.119105,43.390475 57.4590073,38.2250951 60.7986526,33.0597153 C64.138298,27.8943354 67.4812826,22.7153422 70.8276062,17.5227356 L71.4548492,17.5227356 L71.4548492,95.7246857 L20.6127167,95.7246857 Z"/><path id="m" d="M50.4861298,144.729782 C60.7110647,144.729782 69.7549744,142.660034 77.6178589,138.520538 C85.4807434,134.381042 91.6393865,128.622581 96.0937881,121.245155 C100.54819,113.867729 102.775391,105.366557 102.775391,95.7416382 L102.775391,95.5443726 C102.775391,86.4639893 100.759326,78.4107742 96.7271957,71.3847275 C92.6950658,64.3586807 87.1598129,58.8221436 80.1214371,54.775116 C73.0830612,50.7280884 65.0118663,48.7045746 55.9078522,48.7045746 C51.2330678,48.7045746 46.8482742,49.2876383 42.7534714,50.4537659 C38.6586685,51.6198934 34.9884491,53.3089803 31.7428131,55.5210266 C28.4971771,57.7330729 25.798645,60.4500987 23.6472168,63.6721039 L23.1802521,63.6721039 L27.5247192,18.6739655 L94.4886932,18.6739655 L94.4886932,0 L9.5997467,0 L2.59065247,82.0609589 L22.0166931,82.0609589 C22.9002787,80.4653676 23.9205119,78.9861323 25.0773926,77.6232529 C26.2342733,76.2603734 27.4615326,75.0051168 28.7591705,73.8574829 C31.6503448,71.3022766 34.9668732,69.3902384 38.7087555,68.1213684 C42.4506378,66.8524984 46.5048574,66.2180634 50.8714142,66.2180634 C56.7493134,66.2180634 61.9555333,67.4902725 66.4900742,70.0346909 C71.024615,72.5791092 74.5926056,76.0839132 77.194046,80.5491028 C79.7954865,85.0142924 81.0962067,90.1411438 81.0962067,95.929657 L81.0962067,96.1269226 C81.0962067,102.023315 79.808843,107.236984 77.2341156,111.767929 C74.6593882,116.298874 71.0811234,119.839638 66.499321,122.390221 C61.9175186,124.940804 56.633728,126.216095 50.6479492,126.216095 C45.4029439,126.216095 40.6775589,125.221804 36.4717941,123.233223 C32.2660294,121.244642 28.8398234,118.525561 26.1931763,115.075981 C23.5465291,111.626401 21.9031626,107.772273 21.2630768,103.513596 L21.1459503,102.759979 L0,102.759979 L0.0986328125,103.971313 C0.773651123,111.749949 3.29341125,118.712039 7.65791321,124.857582 C12.0224152,131.003126 17.8684642,135.851545 25.1960602,139.40284 C32.5236562,142.954135 40.9536794,144.729782 50.4861298,144.729782 Z"/><path id="p" d="M56.0218964,147.132416 C66.0547028,147.132416 74.9786606,145.02979 82.7937698,140.824539 C90.6088791,136.619288 96.7721456,130.844388 101.283569,123.49984 C105.794993,116.155291 108.050705,107.748128 108.050705,98.2783508 L108.050705,98.0810852 C108.050705,89.1085815 106.032071,81.0987752 101.994804,74.0516663 C97.9575373,67.0045573 92.4181747,61.4605713 85.3767166,57.4197083 C78.3352585,53.3788452 70.2532756,51.3584137 61.1307678,51.3584137 C54.6990865,51.3584137 48.8712743,52.3791606 43.6473312,54.4206543 C38.4233882,56.462148 33.944842,59.2058868 30.2116928,62.6518707 C26.4785436,66.0978546 23.664683,69.9609731 21.7701111,74.2412262 L19.6803284,74.2412262 L19.6803284,98.3893127 L25.6352844,98.3893127 L25.6352844,98.2721863 C25.6352844,92.6686096 26.9660568,87.6804606 29.6276016,83.3077393 C32.2891464,78.9350179 35.9241765,75.5062434 40.532692,73.0214157 C45.1412074,70.536588 50.3130086,69.2941742 56.0480957,69.2941742 C61.8129781,69.2941742 66.9503606,70.5499446 71.4602432,73.0614853 C75.9701258,75.573026 79.5155131,79.0452092 82.096405,83.478035 C84.677297,87.9108607 85.9677429,92.9886525 85.9677429,98.7114105 L85.9677429,98.9086761 C85.9677429,104.40951 84.6207886,109.397146 81.9268799,113.871582 C79.2329712,118.346018 75.5979411,121.895772 71.0217896,124.520844 C66.445638,127.145915 61.3557739,128.45845 55.7521973,128.45845 C50.1373189,128.45845 45.041804,127.118945 40.4656525,124.439934 C35.8895009,121.760923 32.273735,118.144129 29.6183548,113.589554 C26.9629745,109.034978 25.6352844,103.968231 25.6352844,98.3893127 L21.3031464,74.9039154 C21.3031464,74.1261546 21.3062286,73.358668 21.3123932,72.6014557 C21.3185577,71.8442434 21.3545176,71.0824076 21.4202728,70.3159485 C21.7315826,60.8995972 23.119634,52.2846375 25.5844269,44.4710693 C28.0492198,36.6575012 31.823466,30.3912354 36.9071655,25.6722717 C41.9908651,20.9533081 48.5889893,18.5938263 56.7015381,18.5938263 C61.2170715,18.5938263 65.2476603,19.3060888 68.7933044,20.7306137 C72.3389486,22.1551387 75.3572667,24.154508 77.848259,26.7287216 C80.3392512,29.3029353 82.2325389,32.3700562 83.5281219,35.9300842 L83.9057007,36.924118 L106.115036,36.924118 L105.854584,35.7682648 C104.337077,28.7077993 101.32107,22.4836578 96.8065643,17.0958405 C92.2920583,11.7080231 86.6304321,7.51176198 79.8216858,4.50705719 C73.0129395,1.5023524 65.3596497,0 56.8618164,0 C45.011495,0 34.836647,2.9887797 26.3372726,8.96633911 C17.8378983,14.9438985 11.3235092,23.5709305 6.79410553,34.847435 C2.26470184,46.1239395 0,59.6728516 0,75.4941711 L0,75.6914368 C0,88.4859619 1.52855174,99.4038951 4.58565521,108.445236 C7.64275869,117.486577 11.8061422,124.862462 17.0758057,130.572891 C22.3454692,136.28332 28.3232854,140.470848 35.0092545,143.135475 C41.6952235,145.800102 48.6994375,147.132416 56.0218964,147.132416 Z"/><path id="u" d="M1.1774292,144.729782 L98.5834961,144.729782 L98.5834961,126.054276 L23.4052582,126.054276 L30.8751526,132.542465 L30.8751526,118.266907 L23.3867645,132.542465 L63.2405853,93.40065 C71.7815704,84.9644623 78.4428813,77.8166656 83.2245178,71.9572601 C88.0061544,66.0978546 91.3881811,60.7293015 93.3705978,55.8516006 C95.3530146,50.9738998 96.344223,45.8349762 96.344223,40.4348297 L96.344223,40.2375641 C96.344223,32.5668081 94.3422852,25.6943614 90.3384094,19.620224 C86.3345337,13.5460866 80.8134079,8.75751495 73.775032,5.25450897 C66.7366562,1.75150299 58.6454264,0 49.5013428,0 C40.2442424,0 31.8650767,1.88763682 24.3638458,5.66291046 C16.8626149,9.4381841 10.9266663,14.6364415 6.55599976,21.2576828 C2.18533325,27.8789241 0,35.4322968 0,43.9178009 L0,44.5820312 L20.99646,44.5820312 L21.0149536,43.9440002 C21.0632426,39.1284587 22.3267186,34.7909266 24.8053818,30.9314041 C27.2840449,27.0718816 30.6799418,24.0027059 34.9930725,21.723877 C39.3062032,19.445048 44.2229462,18.3056335 49.7433014,18.3056335 C54.5876109,18.3056335 58.8632406,19.2958145 62.5701904,21.2761765 C66.2771403,23.2565384 69.1865514,25.9820404 71.2984238,29.4526825 C73.4102961,32.9233246 74.4662323,36.9169261 74.4662323,41.4334869 L74.4662323,41.6307526 C74.4662323,45.3346202 73.8492635,48.8417358 72.6153259,52.1520996 C71.3813883,55.4624634 69.1133474,59.2015203 65.811203,63.3692703 C62.5090586,67.5370204 57.6904348,72.7997487 51.3553314,79.1574554 L1.1774292,129.515671 L1.1774292,144.729782 Z"/><path id="x" d="M52.246109,147.132416 C62.3590546,147.132416 71.2876358,145.343669 79.0318527,141.766174 C86.7760696,138.18868 92.848409,133.249591 97.2488708,126.948906 C101.649333,120.648221 103.849564,113.449824 103.849564,105.353714 L103.849564,105.156448 C103.849564,95.198644 100.652987,87.1970571 94.2598343,81.1516876 C87.8666814,75.1063182 79.4394836,71.6320801 68.978241,70.7289734 L68.978241,70.2620087 C74.7636719,69.0486196 79.915952,66.9536997 84.4350815,63.9772491 C88.9542109,61.0007985 92.5078176,57.2530085 95.0959015,52.7338791 C97.6839854,48.2147497 98.9780273,43.0172628 98.9780273,37.1414185 L98.9780273,36.9441528 C98.9780273,29.614502 97.0451838,23.1864166 93.1794968,17.6598969 C89.3138097,12.1333771 83.8633194,7.80843099 76.8280258,4.68505859 C69.7927322,1.5616862 61.5268402,0 52.0303497,0 C42.7557831,0 34.5800476,1.64105479 27.5031433,4.92316437 C20.426239,8.20527395 14.7725754,12.7968369 10.5421524,18.6978531 C6.31172943,24.5988693 3.82048035,31.5193481 3.06840515,39.4592896 L2.96977234,40.5365448 L23.8121185,40.5365448 L23.9107513,39.5671692 C24.4008331,35.1769816 25.8644002,31.3780772 28.3014526,28.1704559 C30.738505,24.9628347 33.9928741,22.4913635 38.0645599,20.7560425 C42.1362457,19.0207214 46.791509,18.1530609 52.0303497,18.1530609 C57.4068654,18.1530609 61.9845581,19.0042826 65.7634277,20.7067261 C69.5422974,22.4091695 72.4175466,24.8672841 74.3891754,28.0810699 C76.3608042,31.2948558 77.3466187,35.1954753 77.3466187,39.7829285 L77.3466187,39.9801941 C77.3466187,44.3765462 76.2054062,48.2876968 73.9229813,51.7136459 C71.6405563,55.139595 68.4501444,57.827596 64.3517456,59.7776489 C60.2533468,61.7277018 55.4968821,62.7027283 50.0823517,62.7027283 L33.453476,62.7027283 L33.453476,79.9927521 L50.7280884,79.9927521 C60.2163595,79.9927521 67.6862539,82.1444372 73.1377716,86.4478073 C78.5892893,90.7511775 81.3150482,96.9200948 81.3150482,104.954559 L81.3150482,105.151825 C81.3150482,109.739278 80.1024297,113.799662 77.6771927,117.332977 C75.2519557,120.866292 71.8604253,123.630323 67.5026016,125.625069 C63.1447779,127.619815 58.0531158,128.617187 52.2276154,128.617187 C46.3497162,128.617187 41.1853638,127.698926 36.7345581,125.862404 C32.2837524,124.025881 28.7337418,121.491994 26.0845261,118.260742 C23.4353104,115.02949 21.8600108,111.314835 21.3586273,107.116776 L21.2415009,106.09346 L0,106.09346 L0.0986328125,107.295547 C0.768513997,115.044388 3.3054835,121.914266 7.70954132,127.905182 C12.1135991,133.896098 18.1006622,138.598366 25.6707306,142.011986 C33.240799,145.425606 42.0992584,147.132416 52.246109,147.132416 Z"/><polygon id="a" points="11.85 142.327 35.102 142.327 96.996 19.221 96.996 0 0 0 0 18.674 75.1 18.674 75.1 19.141"/><polygon id="r" points="37.638 142.327 59.321 142.327 59.321 0 37.476 0 0 26.608 0 47.607 37.171 21.949 37.638 21.949"/></defs><g fill="none" fill-rule="evenodd"><rect width="1281" height="1281"/><g transform="translate(93 93)"><rect width="309" height="309" x="8" y="8" stroke="#979797" stroke-width="16" opacity=".2" rx="80"/><g fill-rule="nonzero" transform="translate(113.879 91.673)"><use xlink:href="#a" fill="#000" filter="url(#b)"/><use xlink:href="#a" fill="#2E2E2E"/><use xlink:href="#a" fill="url(#c)"/></g><g transform="translate(385)"><rect width="309" height="309" x="8" y="8" stroke="#979797" stroke-width="16" opacity=".2" rx="80"/><g fill-rule="nonzero" transform="translate(109.237 89.27)"><use xlink:href="#d" fill="#000" filter="url(#e)"/><use xlink:href="#d" fill="#2E2E2E"/><use xlink:href="#d" fill="url(#f)"/></g></g><g transform="translate(770)"><rect width="309" height="309" x="8" y="8" stroke="#979797" stroke-width="16" opacity=".2" rx="80"/><g fill-rule="nonzero" transform="translate(109.946 89.27)"><use xlink:href="#g" fill="#000" filter="url(#h)"/><use xlink:href="#g" fill="#2E2E2E"/><use xlink:href="#g" fill="url(#i)"/></g></g><g transform="translate(0 385)"><rect width="309" height="309" x="8" y="8" stroke="#979797" stroke-width="16" opacity=".2" rx="80"/><g fill-rule="nonzero" transform="translate(107.83 91.673)"><use xlink:href="#j" fill="#000" filter="url(#k)"/><use xlink:href="#j" fill="#2E2E2E"/><use xlink:href="#j" fill="url(#l)"/></g></g><g transform="translate(385 385)"><rect width="309" height="309" x="8" y="8" stroke="#979797" stroke-width="16" opacity=".2" rx="80"/><g fill-rule="nonzero" transform="translate(113.967 91.673)"><use xlink:href="#m" fill="#000" filter="url(#n)"/><use xlink:href="#m" fill="#2E2E2E"/><use xlink:href="#m" fill="url(#o)"/></g></g><g transform="translate(770 385)"><rect width="309" height="309" x="8" y="8" stroke="#979797" stroke-width="16" opacity=".2" rx="80"/><g fill-rule="nonzero" transform="translate(108.003 89.27)"><use xlink:href="#p" fill="#000" filter="url(#q)"/><use xlink:href="#p" fill="#2E2E2E"/><use xlink:href="#p" fill="url(#i)"/></g></g><g transform="translate(0 770)"><rect width="309" height="309" x="8" y="8" stroke="#979797" stroke-width="16" opacity=".2" rx="80"/><g fill-rule="nonzero" transform="translate(126.25 91.673)"><use xlink:href="#r" fill="#000" filter="url(#s)"/><use xlink:href="#r" fill="#2E2E2E"/><use xlink:href="#r" fill="url(#t)"/></g></g><g transform="translate(385 770)"><rect width="309" height="309" x="8" y="8" stroke="#979797" stroke-width="16" opacity=".2" rx="80"/><g fill-rule="nonzero" transform="translate(114.288 89.27)"><use xlink:href="#u" fill="#000" filter="url(#v)"/><use xlink:href="#u" fill="#2E2E2E"/><use xlink:href="#u" fill="url(#w)"/></g></g><g transform="translate(770 770)"><rect width="309" height="309" x="8" y="8" stroke="#979797" stroke-width="16" opacity=".2" rx="80"/><g fill-rule="nonzero" transform="translate(110.34 89.27)"><use xlink:href="#x" fill="#000" filter="url(#y)"/><use xlink:href="#x" fill="#2E2E2E"/><use xlink:href="#x" fill="url(#z)"/></g></g></g></g></svg>