<svg xmlns="http://www.w3.org/2000/svg" xmlns:xlink="http://www.w3.org/1999/xlink" width="365" height="365" viewBox="0 0 365 365"><defs><linearGradient id="c" x1="50%" x2="50%" y1="0%" y2="100%"><stop offset="0%" stop-color="#D8D8D8"/><stop offset="81.272%" stop-color="silver"/><stop offset="100%" stop-color="#767777"/></linearGradient><linearGradient id="f" x1="50%" x2="50%" y1="0%" y2="100%"><stop offset="0%" stop-color="#D8D8D8"/><stop offset="81.272%" stop-color="silver"/><stop offset="100%" stop-color="#767777"/></linearGradient><filter id="b" width="105.2%" height="103.9%" x="-2.6%" y="-1.9%" filterUnits="objectBoundingBox"><feOffset in="SourceAlpha" result="shadowOffsetOuter1"/><feGaussianBlur in="shadowOffsetOuter1" result="shadowBlurOuter1" stdDeviation="1.5"/><feColorMatrix in="shadowBlurOuter1" values="0 0 0 0 0.552677763 0 0 0 0 0.552677763 0 0 0 0 0.552677763 0 0 0 0.5 0"/></filter><filter id="e" width="110.5%" height="109.4%" x="-5.3%" y="-4.7%" filterUnits="objectBoundingBox"><feOffset in="SourceAlpha" result="shadowOffsetOuter1"/><feGaussianBlur in="shadowOffsetOuter1" result="shadowBlurOuter1" stdDeviation="1.5"/><feColorMatrix in="shadowBlurOuter1" values="0 0 0 0 0.552677763 0 0 0 0 0.552677763 0 0 0 0 0.552677763 0 0 0 0.5 0"/></filter><path id="a" d="M150.513672,119.486328 L214.486328,119.486328 C220.490234,119.486328 224.113281,115.65625 224.113281,109.238281 L224.113281,98.3691406 C224.113281,91.9511719 220.490234,88.1210938 214.486328,88.1210938 L204.962891,88.1210938 C204.238281,76.4238281 194.507812,66.9003906 182.5,66.9003906 C170.492188,66.9003906 160.761719,76.4238281 160.037109,88.1210938 L150.513672,88.1210938 C144.509766,88.1210938 140.886719,91.9511719 140.886719,98.3691406 L140.886719,109.238281 C140.886719,115.65625 144.509766,119.486328 150.513672,119.486328 Z M182.5,97.9550781 C177.53125,97.9550781 173.494141,93.8144531 173.494141,88.9492188 C173.494141,83.8769531 177.53125,79.8398438 182.5,79.8398438 C187.46875,79.8398438 191.505859,83.8769531 191.505859,88.9492188 C191.505859,93.8144531 187.46875,97.9550781 182.5,97.9550781 Z M127.533203,297.71875 L237.466797,297.71875 C258.894531,297.71875 269.556641,286.953125 269.556641,265.214844 L269.556641,128.285156 C269.556641,107.064453 259.308594,95.78125 238.605469,95.78125 L236.121094,95.78125 C236.224609,96.609375 236.224609,97.5410156 236.224609,98.3691406 L236.224609,107.685547 C236.224609,109.341797 236.121094,110.998047 235.810547,112.447266 L238.294922,112.447266 C248.025391,112.447266 252.890625,118.761719 252.890625,128.492188 L252.890625,265.007812 C252.890625,275.359375 247.404297,281.052734 236.638672,281.052734 L128.361328,281.052734 C117.595703,281.052734 112.109375,275.359375 112.109375,265.007812 L112.109375,128.492188 C112.109375,118.761719 116.974609,112.447266 126.705078,112.447266 L129.189453,112.447266 C128.878906,110.998047 128.775391,109.341797 128.775391,107.685547 L128.775391,98.3691406 C128.775391,97.5410156 128.775391,96.609375 128.878906,95.78125 L126.394531,95.78125 C105.691406,95.78125 95.4433594,107.064453 95.4433594,128.285156 L95.4433594,265.214844 C95.4433594,286.953125 106.105469,297.71875 127.533203,297.71875 Z"/><path id="d" d="M206.363281,216.788086 L221.858398,201.292969 C226.50293,196.648437 226.342773,191.163086 221.658203,186.358398 L219.416016,184.036133 C215.251953,189.401367 203.400391,195.767578 201.118164,193.485352 C200.757812,193.125 200.717773,192.404297 201.27832,191.883789 C206.042969,187.079102 209.286133,182.314453 210.006836,174.707031 L189.466797,154.126953 C185.342773,150.00293 178.456055,151.604492 176.494141,158.97168 C173.891602,169.22168 171.649414,175.267578 169.487305,179.912109 L206.363281,216.788086 Z M144.623047,243.053711 C151.029297,249.5 159.397461,249.540039 165.723633,243.213867 C170.488281,238.489258 175.092773,227.958984 178.65625,222.353516 L187.985352,231.722656 C191.148437,234.925781 194.952148,234.925781 197.995117,231.842773 L201.358398,228.439453 C204.481445,225.276367 204.441406,221.672852 201.238281,218.469727 L169.207031,186.438477 C166.003906,183.235352 162.320312,183.195312 159.197266,186.318359 L155.833984,189.681641 C152.750977,192.764648 152.750977,196.52832 155.914062,199.691406 L165.283203,209.020508 C159.717773,212.543945 149.1875,217.188477 144.462891,221.913086 C138.09668,228.279297 138.176758,236.647461 144.623047,243.053711 Z M155.553711,237.368164 C152.911133,237.368164 150.708984,235.206055 150.708984,232.563477 C150.708984,229.920898 152.911133,227.71875 155.553711,227.71875 C158.196289,227.71875 160.358398,229.920898 160.358398,232.563477 C160.358398,235.206055 158.196289,237.368164 155.553711,237.368164 Z"/></defs><g fill="none" fill-rule="evenodd"><rect width="365" height="365"/><g fill-rule="nonzero"><use xlink:href="#a" fill="#000" filter="url(#b)"/><use xlink:href="#a" fill="#2E2E2E"/><use xlink:href="#a" fill="#2E2E2E"/><use xlink:href="#a" fill="url(#c)"/></g><g fill-rule="nonzero"><use xlink:href="#d" fill="#000" filter="url(#e)"/><use xlink:href="#d" fill="#2E2E2E"/><use xlink:href="#d" fill="#2E2E2E"/><use xlink:href="#d" fill="url(#f)"/></g></g></svg>