<svg xmlns="http://www.w3.org/2000/svg" xmlns:xlink="http://www.w3.org/1999/xlink" width="365" height="365" viewBox="0 0 365 365"><defs><linearGradient id="c" x1="50%" x2="50%" y1="0%" y2="100%"><stop offset="0%" stop-color="#D8D8D8"/><stop offset="81.272%" stop-color="silver"/><stop offset="100%" stop-color="#767777"/></linearGradient><filter id="b" width="103.5%" height="104.3%" x="-1.7%" y="-2.1%" filterUnits="objectBoundingBox"><feOffset in="SourceAlpha" result="shadowOffsetOuter1"/><feGaussianBlur in="shadowOffsetOuter1" result="shadowBlurOuter1" stdDeviation="1.5"/><feColorMatrix in="shadowBlurOuter1" values="0 0 0 0 0.552677763 0 0 0 0 0.552677763 0 0 0 0 0.552677763 0 0 0 0.5 0"/></filter><path id="a" d="M227.529297,69.4003906 C249.164063,69.4003906 260.033203,80.1660156 260.033203,101.490234 L260.033203,117.328125 L278.769531,117.328125 C300.300781,117.328125 311.273438,128.09375 311.273438,149.417969 L311.273438,247.033203 C311.273438,268.357422 300.300781,279.123047 278.769531,279.123047 L137.367188,279.123047 C115.628906,279.123047 104.863281,268.460938 104.863281,247.033203 L104.863281,231.195313 L86.2304687,231.195313 C64.4921875,231.195313 53.7265625,220.533203 53.7265625,199.105469 L53.7265625,182.957031 L70.3925781,182.957031 L70.3925781,198.277344 C70.3925781,209.042969 76.0859375,214.529297 86.4375,214.529297 L104.863281,214.529297 L104.863281,149.417969 C104.863281,128.09375 115.628906,117.328125 137.367188,117.328125 L243.367188,117.328125 L243.367188,102.421875 C243.367188,91.65625 237.570313,86.0664062 227.21875,86.0664062 L212.105469,86.0664062 L212.105469,69.4003906 L227.529297,69.4003906 Z M257.954971,152.616202 L139.033109,152.616202 C133.273791,152.616202 128.828444,154.156942 125.697066,157.238423 C122.565689,160.319903 121,164.74006 121,170.498893 L121,227.117309 C121,232.835729 122.565689,237.245782 125.697066,240.347469 C128.828444,243.449156 133.273791,245 139.033109,245 L275.716224,245 C281.475542,245 285.92089,243.449156 289.052267,240.347469 C292.183645,237.245782 293.749333,232.835729 293.749333,227.117309 L293.749333,171.55973 L277.800453,187.532913 L277.800453,223.722629 C277.800453,225.803892 277.211432,227.440612 276.033389,228.632792 C274.855347,229.824971 273.19904,230.421061 271.064467,230.421061 L143.65466,230.421061 C141.49995,230.421061 139.843643,229.824971 138.685738,228.632792 C137.527833,227.440612 136.948881,225.803892 136.948881,223.722629 L136.948881,173.863263 C136.948881,169.397642 139.18414,167.164832 143.65466,167.164832 L243.395576,167.164832 L257.954971,152.616202 Z M159.21086,189.169634 C156.552713,189.169634 154.287247,190.109233 152.414462,191.988431 C150.541677,193.867629 149.605284,196.130749 149.605284,198.777791 C149.605284,201.424834 150.541677,203.687954 152.414462,205.567152 C154.287247,207.44635 156.552713,208.385949 159.21086,208.385949 C161.828732,208.385949 164.07406,207.44635 165.946845,205.567152 C167.81963,203.687954 168.756023,201.424834 168.756023,198.777791 C168.756023,196.130749 167.81963,193.867629 165.946845,191.988431 C164.07406,190.109233 161.828732,189.169634 159.21086,189.169634 Z M186.97037,189.169634 C184.33236,189.169634 182.076963,190.109233 180.204178,191.988431 C178.331393,193.867629 177.395,196.130749 177.395,198.777791 C177.395,201.424834 178.331393,203.687954 180.204178,205.567152 C182.076963,207.44635 184.33236,208.385949 186.97037,208.385949 C189.608379,208.385949 191.863776,207.44635 193.736561,205.567152 C195.609347,203.687954 196.545739,201.424834 196.545739,198.777791 C196.545739,196.130749 195.609347,193.867629 193.736561,191.988431 C191.863776,190.109233 189.608379,189.169634 186.97037,189.169634 Z M214.760086,189.169634 C212.122077,189.169634 209.871714,190.109233 208.008997,191.988431 C206.146281,193.867629 205.214922,196.130749 205.214922,198.777791 C205.214922,201.424834 206.146281,203.687954 208.008997,205.567152 C209.871714,207.44635 212.122077,208.385949 214.760086,208.385949 C217.418233,208.385949 219.678664,207.44635 221.541381,205.567152 C223.404097,203.687954 224.335455,201.424834 224.335455,198.777791 C224.335455,196.130749 223.404097,193.867629 221.541381,191.988431 C219.678664,190.109233 217.418233,189.169634 214.760086,189.169634 Z M275.808433,151.250673 L242.00609,185.22938 L236.357528,198.505005 C235.934641,199.515326 236.120913,200.394306 236.916343,201.141944 C237.711774,201.889582 238.562582,202.071439 239.468768,201.687517 L252.940739,196.201472 L286.803494,162.253074 L275.808433,151.250673 Z M70.3925781,126.748047 L70.3925781,173.951172 L53.7265625,173.951172 L53.7265625,126.748047 L70.3925781,126.748047 Z M289.491847,140.036104 C287.659337,140.217962 286.058408,140.985806 284.689059,142.339637 L280.701839,146.310201 L291.696901,157.312602 L295.77474,153.19049 C297.184363,151.735627 297.924415,150.088803 297.994896,148.250018 C298.065377,146.411233 297.405875,144.825028 296.016389,143.491404 L294.052985,141.551586 C292.844737,140.359407 291.324357,139.854246 289.491847,140.036104 Z M101.654297,69.4003906 L101.654297,86.0664062 L86.4375,86.0664062 C76.0859375,86.0664062 70.3925781,91.65625 70.3925781,102.421875 L70.3925781,117.742188 L53.7265625,117.742188 L53.7265625,101.490234 C53.7265625,80.1660156 64.4921875,69.4003906 86.2304688,69.4003906 L101.654297,69.4003906 Z M202.996094,69.4003906 L202.996094,86.0664062 L161.382812,86.0664062 L161.382812,69.4003906 L202.996094,69.4003906 Z M152.376953,69.4003906 L152.376953,86.0664062 L110.660156,86.0664062 L110.660156,69.4003906 L152.376953,69.4003906 Z"/></defs><g fill="none" fill-rule="evenodd"><rect width="365" height="365"/><g fill-rule="nonzero"><use xlink:href="#a" fill="#000" filter="url(#b)"/><use xlink:href="#a" fill="#2E2E2E"/><use xlink:href="#a" fill="#2E2E2E"/><use xlink:href="#a" fill="url(#c)"/></g></g></svg>