<svg xmlns="http://www.w3.org/2000/svg" xmlns:xlink="http://www.w3.org/1999/xlink" width="365" height="365" viewBox="0 0 365 365"><defs><linearGradient id="c" x1="50%" x2="50%" y1="0%" y2="100%"><stop offset="0%" stop-color="#D8D8D8"/><stop offset="81.272%" stop-color="silver"/><stop offset="100%" stop-color="#767777"/></linearGradient><linearGradient id="f" x1="50%" x2="50%" y1="0%" y2="100%"><stop offset="0%" stop-color="#D8D8D8"/><stop offset="81.272%" stop-color="silver"/><stop offset="100%" stop-color="#767777"/></linearGradient><filter id="b" width="102.9%" height="103.5%" x="-1.5%" y="-1.8%" filterUnits="objectBoundingBox"><feOffset in="SourceAlpha" result="shadowOffsetOuter1"/><feGaussianBlur in="shadowOffsetOuter1" result="shadowBlurOuter1" stdDeviation="1.5"/><feColorMatrix in="shadowBlurOuter1" values="0 0 0 0 0.552677763 0 0 0 0 0.552677763 0 0 0 0 0.552677763 0 0 0 0.5 0"/></filter><filter id="e" width="104.8%" height="108.1%" x="-2.4%" y="-4.1%" filterUnits="objectBoundingBox"><feOffset in="SourceAlpha" result="shadowOffsetOuter1"/><feGaussianBlur in="shadowOffsetOuter1" result="shadowBlurOuter1" stdDeviation="1.5"/><feColorMatrix in="shadowBlurOuter1" values="0 0 0 0 0.552677763 0 0 0 0 0.552677763 0 0 0 0 0.552677763 0 0 0 0.5 0"/></filter><path id="a" d="M85.2703751,121.5296 C82.6044163,121.5296 80.2300468,120.48821 78.1472666,118.40543 L77.2778083,117.161071 L46.9108721,85.4195 L48.7853743,114.286834 L48.7853743,131.032388 C48.7853743,134.114903 47.868951,136.635067 46.0361044,138.59288 C44.2032577,140.550694 41.7872326,141.5296 38.7880291,141.5296 C35.8721367,141.5296 33.4561116,140.529866 31.5399537,138.530397 C29.6237959,136.530928 28.665717,134.031591 28.665717,131.032388 L28.665717,71.798117 C28.665717,66.0496435 30.24863,61.6133215 33.414456,58.4891511 C36.580282,55.3649808 40.9957761,53.8028956 46.6609384,53.8028956 L106.145143,53.8028956 C109.144346,53.8028956 111.643683,54.7193189 113.643152,56.5521655 C115.642621,58.3850121 116.642355,60.8010372 116.642355,63.8002408 C116.642355,66.7994444 115.642621,69.2362973 113.643152,71.1107995 C111.643683,72.9853018 109.144346,73.9225529 106.145143,73.9225529 L89.3995895,73.9225529 L60.4072882,72.0480507 L92.2738262,102.29002 L93.1432845,103.284445 C95.3093759,105.533848 96.3924217,108.07484 96.3924217,110.907421 C96.3924217,114.073247 95.3302038,116.635067 93.2057679,118.59288 C91.081332,120.550694 88.4362011,121.5296 85.2703751,121.5296 Z M302.717944,145.653505 L302.717944,105.289224 C302.717944,100.20724 301.093375,96.0000237 297.844238,92.6675753 C294.595101,89.3351269 290.179607,87.6689026 284.597756,87.6689026 L151.258163,87.6689026 L151.258163,67.7991789 L287.222059,67.7991789 C297.63596,67.7991789 306.133704,70.9441771 312.715289,77.2341735 C319.296875,83.5241699 322.587668,91.5012183 322.587668,101.165319 L322.587668,145.653505 L302.717944,145.653505 Z M212.741837,295.37437 L76.7779411,295.37437 C66.3640397,295.37437 57.8662963,292.208543 51.2847106,285.876891 C44.703125,279.545239 41.4123322,271.589019 41.4123322,262.00823 L41.4123322,217.395076 L61.2820559,217.395076 L61.2820559,257.759358 C61.2820559,262.841342 62.9066245,267.069386 66.1557617,270.44349 C69.4048989,273.817594 73.8203931,275.504646 79.4022442,275.504646 L212.741837,275.504646 L212.741837,295.37437 Z M278.729625,240.39428 C281.395584,240.39428 283.769953,241.394015 285.852733,243.393484 L286.847158,244.637842 L317.089128,276.379413 L315.214626,247.512079 L315.214626,230.766526 C315.214626,227.684011 316.131049,225.163847 317.963896,223.206033 C319.796742,221.24822 322.212767,220.269313 325.211971,220.269313 C328.127863,220.269313 330.543888,221.269048 332.460046,223.268517 C334.376204,225.267986 335.334283,227.767322 335.334283,230.766526 L335.334283,290.125763 C335.334283,295.790926 333.75137,300.20642 330.585544,303.372246 C327.419718,306.538072 323.004224,308.120985 317.339062,308.120985 L257.854857,308.120985 C254.855654,308.120985 252.356317,307.183734 250.356848,305.309231 C248.357379,303.434729 247.357645,300.997876 247.357645,297.998673 C247.357645,294.999469 248.357379,292.583444 250.356848,290.750597 C252.356317,288.917751 254.855654,288.001327 257.854857,288.001327 L274.600411,288.001327 L303.717679,289.87583 L271.726174,259.508893 L270.856716,258.514468 C268.690624,256.265066 267.607578,253.724074 267.607578,250.891493 C267.607578,247.808978 268.669796,245.288814 270.794232,243.331 C272.918668,241.373187 275.563799,240.39428 278.729625,240.39428 Z"/><path id="d" d="M110.051929,235 L254.457254,235 C260.541957,235 265.238454,233.360537 268.546746,230.081611 C271.855037,226.802684 273.509183,222.140628 273.509183,216.095441 L273.509183,157.363143 L256.659235,174.24908 L256.659235,212.506779 C256.659235,214.706971 256.036936,216.437219 254.792338,217.697523 C253.54774,218.957827 251.797856,219.587979 249.542686,219.587979 L114.934584,219.587979 C112.658139,219.587979 110.908255,218.957827 109.684932,217.697523 C108.461609,216.437219 107.849947,214.706971 107.849947,212.506779 L107.849947,159.798307 C107.849947,155.077507 110.211493,152.717108 114.934584,152.717108 L220.31058,152.717108 L235.69254,137.337128 L110.051929,137.337128 C103.967226,137.337128 99.2707285,138.96591 95.9624371,142.223476 C92.6541457,145.481041 91,150.153778 91,156.241686 L91,216.095441 C91,222.140628 92.6541457,226.802684 95.9624371,230.081611 C99.2707285,233.360537 103.967226,235 110.051929,235 Z M131.369665,196.293717 C134.13544,196.293717 136.507623,195.300427 138.486215,193.313846 C140.464807,191.327266 141.454104,188.934824 141.454104,186.136522 C141.454104,183.33822 140.464807,180.945779 138.486215,178.959198 C136.507623,176.972618 134.13544,175.979327 131.369665,175.979327 C128.561341,175.979327 126.167882,176.972618 124.18929,178.959198 C122.210698,180.945779 121.221402,183.33822 121.221402,186.136522 C121.221402,188.934824 122.210698,191.327266 124.18929,193.313846 C126.167882,195.300427 128.561341,196.293717 131.369665,196.293717 Z M160.697509,196.293717 C163.484559,196.293717 165.867379,195.300427 167.845972,193.313846 C169.824564,191.327266 170.81386,188.934824 170.81386,186.136522 C170.81386,183.33822 169.824564,180.945779 167.845972,178.959198 C165.867379,176.972618 163.484559,175.979327 160.697509,175.979327 C157.91046,175.979327 155.527639,176.972618 153.549047,178.959198 C151.570454,180.945779 150.581158,183.33822 150.581158,186.136522 C150.581158,188.934824 151.570454,191.327266 153.549047,193.313846 C155.527639,195.300427 157.91046,196.293717 160.697509,196.293717 Z M190.057266,196.293717 C192.86559,196.293717 195.25373,195.300427 197.221685,193.313846 C199.189639,191.327266 200.173617,188.934824 200.173617,186.136522 C200.173617,183.33822 199.189639,180.945779 197.221685,178.959198 C195.25373,176.972618 192.86559,175.979327 190.057266,175.979327 C187.270216,175.979327 184.892714,176.972618 182.92476,178.959198 C180.956805,180.945779 179.972828,183.33822 179.972828,186.136522 C179.972828,188.934824 180.956805,191.327266 182.92476,193.313846 C184.892714,195.300427 187.270216,196.293717 190.057266,196.293717 Z M216.161919,189.212518 L230.395018,183.412984 L266.170923,147.524678 L254.554672,135.893568 L218.842592,171.813916 L212.874903,185.848148 C212.428124,186.916202 212.624919,187.845409 213.465289,188.635769 C214.305659,189.426129 215.204536,189.618379 216.161919,189.212518 Z M271.340793,142.301893 L275.649019,137.944232 C277.138282,136.406234 277.920145,134.665306 277.994608,132.721448 C278.069071,130.777589 277.372309,129.100744 275.904321,127.690912 L273.82999,125.640248 C272.553479,124.379945 270.947202,123.845917 269.011161,124.038167 C267.075119,124.230417 265.383741,125.042138 263.937029,126.473331 L259.724542,130.670784 L271.340793,142.301893 Z"/></defs><g fill="none" fill-rule="evenodd"><g fill-rule="nonzero" opacity=".4"><use xlink:href="#a" fill="#000" filter="url(#b)"/><use xlink:href="#a" fill="#2E2E2E"/><use xlink:href="#a" fill="url(#c)"/></g><rect width="365" height="365"/><g fill-rule="nonzero"><use xlink:href="#d" fill="#000" filter="url(#e)"/><use xlink:href="#d" fill="#2E2E2E"/><use xlink:href="#d" fill="url(#f)"/></g></g></svg>