<svg xmlns="http://www.w3.org/2000/svg" xmlns:xlink="http://www.w3.org/1999/xlink" width="365" height="365" viewBox="0 0 365 365"><defs><linearGradient id="c" x1="50%" x2="50%" y1="0%" y2="100%"><stop offset="0%" stop-color="#D8D8D8"/><stop offset="81.272%" stop-color="silver"/><stop offset="100%" stop-color="#767777"/></linearGradient><linearGradient id="f" x1="50%" x2="50%" y1="0%" y2="100%"><stop offset="0%" stop-color="#D8D8D8"/><stop offset="81.272%" stop-color="silver"/><stop offset="100%" stop-color="#767777"/></linearGradient><linearGradient id="i" x1="50%" x2="50%" y1="0%" y2="100%"><stop offset="0%" stop-color="#D8D8D8"/><stop offset="81.272%" stop-color="silver"/><stop offset="100%" stop-color="#767777"/></linearGradient><filter id="b" width="103.1%" height="103.8%" x="-1.6%" y="-1.9%" filterUnits="objectBoundingBox"><feOffset in="SourceAlpha" result="shadowOffsetOuter1"/><feGaussianBlur in="shadowOffsetOuter1" result="shadowBlurOuter1" stdDeviation="1.5"/><feColorMatrix in="shadowBlurOuter1" values="0 0 0 0 0.552677763 0 0 0 0 0.552677763 0 0 0 0 0.552677763 0 0 0 0.5 0"/></filter><filter id="e" width="132.4%" height="123.5%" x="-16.2%" y="-11.8%" filterUnits="objectBoundingBox"><feOffset in="SourceAlpha" result="shadowOffsetOuter1"/><feGaussianBlur in="shadowOffsetOuter1" result="shadowBlurOuter1" stdDeviation="4"/><feColorMatrix in="shadowBlurOuter1" values="0 0 0 0 0.552677763 0 0 0 0 0.552677763 0 0 0 0 0.552677763 0 0 0 0.5 0"/></filter><filter id="h" width="123.5%" height="133.3%" x="-11.8%" y="-16.7%" filterUnits="objectBoundingBox"><feOffset in="SourceAlpha" result="shadowOffsetOuter1"/><feGaussianBlur in="shadowOffsetOuter1" result="shadowBlurOuter1" stdDeviation="4"/><feColorMatrix in="shadowBlurOuter1" values="0 0 0 0 0.552677763 0 0 0 0 0.552677763 0 0 0 0 0.552677763 0 0 0 0.5 0"/></filter><path id="a" d="M47.1023089,137.885147 C53.1325886,137.885147 56.3183967,134.561768 56.3183967,128.602605 L56.3183967,101.557173 C56.3183967,89.6388468 62.5762341,83.4504853 73.9541202,83.4504853 L101.488605,83.4504853 C107.518884,83.4504853 110.818471,80.127106 110.818471,74.2825423 C110.818471,68.3233793 107.518884,65 101.488605,65 L73.7265625,65 C49.9467805,65 38,76.9183259 38,100.525779 L38,128.602605 C38,134.561768 41.299587,137.885147 47.1023089,137.885147 Z M317.897691,137.885147 C323.814192,137.885147 327,134.561768 327,128.602605 L327,100.525779 C327,76.9183259 315.166998,65 291.273437,65 L263.511395,65 C257.481116,65 254.181529,68.3233793 254.181529,74.2825423 C254.181529,80.127106 257.481116,83.4504853 263.511395,83.4504853 L291.04588,83.4504853 C302.423766,83.4504853 308.681603,89.6388468 308.681603,101.557173 L308.681603,128.602605 C308.681603,134.561768 311.98119,137.885147 317.897691,137.885147 Z M47.1023089,226.114853 C41.1858081,226.114853 38,229.552832 38,235.511995 L38,263.58882 C38,287.196273 49.9467805,299 73.7265625,299 L101.488605,299 C107.518884,299 110.818471,295.79122 110.818471,289.832057 C110.818471,283.872894 107.518884,280.549515 101.488605,280.549515 L73.9541202,280.549515 C62.5762341,280.549515 56.3183967,274.475752 56.3183967,262.557427 L56.3183967,235.511995 C56.3183967,229.552832 53.0188097,226.114853 47.1023089,226.114853 Z M317.897691,226.114853 C311.867411,226.114853 308.681603,229.552832 308.681603,235.511995 L308.681603,262.557427 C308.681603,274.475752 302.423766,280.549515 291.04588,280.549515 L263.511395,280.549515 C257.481116,280.549515 254.181529,283.872894 254.181529,289.832057 C254.181529,295.79122 257.481116,299 263.511395,299 L291.273437,299 C315.166998,299 327,287.196273 327,263.58882 L327,235.511995 C327,229.552832 323.700413,226.114853 317.897691,226.114853 Z"/><path id="d" d="M94.3496689,258 L143.650331,258 C151.883444,258 156,253.851675 156,244.920574 L156,207.292823 C156,199.288995 152.618543,195.091866 145.855629,194.408612 L145.855629,183.476555 C145.855629,166.590431 134.192053,156 119,156 C103.856954,156 92.2423841,166.590431 92.2423841,183.476555 L92.2423841,194.359809 C85.4304636,195.091866 82,199.240191 82,207.292823 L82,244.920574 C82,253.851675 86.1165563,258 94.3496689,258 Z M105.915232,183.134928 C105.915232,174.545455 111.550993,169.177033 119,169.177033 C126.449007,169.177033 132.182781,174.545455 132.182781,183.134928 L132.182781,194.262201 L105.915232,194.262201 L105.915232,183.134928 Z"/><path id="g" d="M262.407057,177.024642 C263.705711,178.325119 265.746453,178.325119 267.008003,177.024642 C268.306657,175.724165 268.306657,173.680557 267.008003,172.417236 L201.592943,106.947491 C200.331393,105.68417 198.216442,105.68417 196.954893,106.947491 C195.730447,108.210812 195.730447,110.328732 196.954893,111.554896 L262.407057,177.024642 Z M232.018552,109.585602 C225.93343,109.585602 220.293561,110.551671 215.136049,112.1494 L226.712623,123.81654 C228.419425,123.259192 230.163332,122.999097 232.018552,122.999097 C242.593307,122.999097 251.201528,131.582247 251.201528,142.209005 C251.201528,144.029674 250.904693,145.813185 250.385231,147.448071 L266.377228,163.462521 C276.989087,155.808283 283,146.29622 283,142.171849 C283,134.666237 263.260458,109.585602 232.018552,109.585602 Z M231.981448,174.795252 C238.66024,174.795252 244.819571,173.606244 250.422335,171.711263 L238.771553,160.118436 C236.693707,160.973036 234.393234,161.418914 232.018552,161.418914 C221.406693,161.418914 212.798472,152.835763 212.798472,142.209005 C212.798472,139.793833 213.280829,137.527287 214.097126,135.409367 L198.810113,120.138047 C187.530375,127.940911 181,137.898852 181,142.171849 C181,149.714617 201.184794,174.795252 231.981448,174.795252 Z M244.448527,141.503032 C244.2259,135.335054 239.068389,129.910205 232.686431,129.724423 L244.448527,141.503032 Z M232.018552,154.730744 C232.426701,154.730744 232.834849,154.693588 233.280102,154.619275 L219.588578,140.908528 C219.514369,141.354406 219.477264,141.763127 219.477264,142.209005 C219.477264,149.120114 225.080029,154.730744 232.018552,154.730744 Z"/></defs><g fill="none" fill-rule="evenodd"><rect width="365" height="365"/><g fill-rule="nonzero" opacity=".4"><use xlink:href="#a" fill="#000" filter="url(#b)"/><use xlink:href="#a" fill="#2E2E2E"/><use xlink:href="#a" fill="url(#c)"/></g><g fill-rule="nonzero"><use xlink:href="#d" fill="#000" filter="url(#e)"/><use xlink:href="#d" fill="#2E2E2E"/><use xlink:href="#d" fill="url(#f)"/></g><g fill-rule="nonzero"><use xlink:href="#g" fill="#000" filter="url(#h)"/><use xlink:href="#g" fill="#2E2E2E"/><use xlink:href="#g" fill="url(#i)"/></g></g></svg>