<svg xmlns="http://www.w3.org/2000/svg" xmlns:xlink="http://www.w3.org/1999/xlink" width="365" height="365" viewBox="0 0 365 365"><defs><linearGradient id="c" x1="50%" x2="50%" y1="0%" y2="100%"><stop offset="0%" stop-color="#D8D8D8"/><stop offset="81.272%" stop-color="silver"/><stop offset="100%" stop-color="#767777"/></linearGradient><linearGradient id="e" x1="50%" x2="50%" y1="0%" y2="100%"><stop offset="0%" stop-color="#D8D8D8"/><stop offset="81.272%" stop-color="silver"/><stop offset="100%" stop-color="#767777"/></linearGradient><path id="a" d="M47.1023089,137.885147 C53.1325886,137.885147 56.3183967,134.561768 56.3183967,128.602605 L56.3183967,101.557173 C56.3183967,89.6388468 62.5762341,83.4504853 73.9541202,83.4504853 L101.488605,83.4504853 C107.518884,83.4504853 110.818471,80.127106 110.818471,74.2825423 C110.818471,68.3233793 107.518884,65 101.488605,65 L73.7265625,65 C49.9467805,65 38,76.9183259 38,100.525779 L38,128.602605 C38,134.561768 41.299587,137.885147 47.1023089,137.885147 Z M317.897691,137.885147 C323.814192,137.885147 327,134.561768 327,128.602605 L327,100.525779 C327,76.9183259 315.166998,65 291.273437,65 L263.511395,65 C257.481116,65 254.181529,68.3233793 254.181529,74.2825423 C254.181529,80.127106 257.481116,83.4504853 263.511395,83.4504853 L291.04588,83.4504853 C302.423766,83.4504853 308.681603,89.6388468 308.681603,101.557173 L308.681603,128.602605 C308.681603,134.561768 311.98119,137.885147 317.897691,137.885147 Z M47.1023089,226.114853 C41.1858081,226.114853 38,229.552832 38,235.511995 L38,263.58882 C38,287.196273 49.9467805,299 73.7265625,299 L101.488605,299 C107.518884,299 110.818471,295.79122 110.818471,289.832057 C110.818471,283.872894 107.518884,280.549515 101.488605,280.549515 L73.9541202,280.549515 C62.5762341,280.549515 56.3183967,274.475752 56.3183967,262.557427 L56.3183967,235.511995 C56.3183967,229.552832 53.0188097,226.114853 47.1023089,226.114853 Z M317.897691,226.114853 C311.867411,226.114853 308.681603,229.552832 308.681603,235.511995 L308.681603,262.557427 C308.681603,274.475752 302.423766,280.549515 291.04588,280.549515 L263.511395,280.549515 C257.481116,280.549515 254.181529,283.872894 254.181529,289.832057 C254.181529,295.79122 257.481116,299 263.511395,299 L291.273437,299 C315.166998,299 327,287.196273 327,263.58882 L327,235.511995 C327,229.552832 323.700413,226.114853 317.897691,226.114853 Z"/><path id="f" d="M92.2352941,181.175824 C96.7835215,181.175824 100.470588,177.485863 100.470588,172.934066 L100.470588,135.021978 C100.470588,128.649462 105.632482,123.483516 112,123.483516 L150.705882,123.483516 C155.25411,123.483516 158.941176,119.793556 158.941176,115.241758 C158.941176,110.689961 155.25411,107 150.705882,107 L110.352941,107 C95.7986137,107 84,118.807875 84,133.373626 L84,172.934066 C84,177.485863 87.6870668,181.175824 92.2352941,181.175824 Z M271.764706,182.824176 C267.216479,182.824176 263.529412,186.514137 263.529412,191.065934 L263.529412,228.978022 C263.529412,235.350538 258.367518,240.516484 252,240.516484 L213.294118,240.516484 C208.74589,240.516484 205.058824,244.206444 205.058824,248.758242 C205.058824,253.310039 208.74589,257 213.294118,257 L253.647059,257 C268.201386,257 280,245.192125 280,230.626374 L280,191.065934 C280,186.514137 276.312933,182.824176 271.764706,182.824176 Z"/><filter id="b" width="103.1%" height="103.8%" x="-1.6%" y="-1.9%" filterUnits="objectBoundingBox"><feOffset in="SourceAlpha" result="shadowOffsetOuter1"/><feGaussianBlur in="shadowOffsetOuter1" result="shadowBlurOuter1" stdDeviation="1.5"/><feColorMatrix in="shadowBlurOuter1" values="0 0 0 0 0.552677763 0 0 0 0 0.552677763 0 0 0 0 0.552677763 0 0 0 0.5 0"/></filter><rect id="d" width="196" height="150" x="84" y="107" rx="26.374"/></defs><g fill="none" fill-rule="evenodd"><rect width="365" height="365"/><g fill-rule="nonzero" opacity=".4"><use xlink:href="#a" fill="#000" filter="url(#b)"/><use xlink:href="#a" fill="#2E2E2E"/><use xlink:href="#a" fill="url(#c)"/></g><use xlink:href="#d" fill="url(#e)" opacity=".2"/><use xlink:href="#f" fill="url(#e)" opacity=".6"/></g></svg>