<svg xmlns="http://www.w3.org/2000/svg" xmlns:xlink="http://www.w3.org/1999/xlink" width="365" height="365" viewBox="0 0 365 365"><defs><linearGradient id="c" x1="50%" x2="50%" y1="0%" y2="100%"><stop offset="0%" stop-color="#D8D8D8"/><stop offset="81.272%" stop-color="silver"/><stop offset="100%" stop-color="#767777"/></linearGradient><linearGradient id="f" x1="50%" x2="50%" y1="0%" y2="100%"><stop offset="0%" stop-color="#D8D8D8"/><stop offset="81.272%" stop-color="silver"/><stop offset="100%" stop-color="#767777"/></linearGradient><filter id="b" width="103.1%" height="103.8%" x="-1.6%" y="-1.9%" filterUnits="objectBoundingBox"><feOffset in="SourceAlpha" result="shadowOffsetOuter1"/><feGaussianBlur in="shadowOffsetOuter1" result="shadowBlurOuter1" stdDeviation="1.5"/><feColorMatrix in="shadowBlurOuter1" values="0 0 0 0 0.552677763 0 0 0 0 0.552677763 0 0 0 0 0.552677763 0 0 0 0.5 0"/></filter><filter id="e" width="108.7%" height="106.7%" x="-4.4%" y="-3.3%" filterUnits="objectBoundingBox"><feOffset in="SourceAlpha" result="shadowOffsetOuter1"/><feGaussianBlur in="shadowOffsetOuter1" result="shadowBlurOuter1" stdDeviation="2"/><feColorMatrix in="shadowBlurOuter1" values="0 0 0 0 0.552677763 0 0 0 0 0.552677763 0 0 0 0 0.552677763 0 0 0 0.5 0"/></filter><path id="a" d="M47.1023089,137.885147 C53.1325886,137.885147 56.3183967,134.561768 56.3183967,128.602605 L56.3183967,101.557173 C56.3183967,89.6388468 62.5762341,83.4504853 73.9541202,83.4504853 L101.488605,83.4504853 C107.518884,83.4504853 110.818471,80.127106 110.818471,74.2825423 C110.818471,68.3233793 107.518884,65 101.488605,65 L73.7265625,65 C49.9467805,65 38,76.9183259 38,100.525779 L38,128.602605 C38,134.561768 41.299587,137.885147 47.1023089,137.885147 Z M317.897691,137.885147 C323.814192,137.885147 327,134.561768 327,128.602605 L327,100.525779 C327,76.9183259 315.166998,65 291.273437,65 L263.511395,65 C257.481116,65 254.181529,68.3233793 254.181529,74.2825423 C254.181529,80.127106 257.481116,83.4504853 263.511395,83.4504853 L291.04588,83.4504853 C302.423766,83.4504853 308.681603,89.6388468 308.681603,101.557173 L308.681603,128.602605 C308.681603,134.561768 311.98119,137.885147 317.897691,137.885147 Z M47.1023089,226.114853 C41.1858081,226.114853 38,229.552832 38,235.511995 L38,263.58882 C38,287.196273 49.9467805,299 73.7265625,299 L101.488605,299 C107.518884,299 110.818471,295.79122 110.818471,289.832057 C110.818471,283.872894 107.518884,280.549515 101.488605,280.549515 L73.9541202,280.549515 C62.5762341,280.549515 56.3183967,274.475752 56.3183967,262.557427 L56.3183967,235.511995 C56.3183967,229.552832 53.0188097,226.114853 47.1023089,226.114853 Z M317.897691,226.114853 C311.867411,226.114853 308.681603,229.552832 308.681603,235.511995 L308.681603,262.557427 C308.681603,274.475752 302.423766,280.549515 291.04588,280.549515 L263.511395,280.549515 C257.481116,280.549515 254.181529,283.872894 254.181529,289.832057 C254.181529,295.79122 257.481116,299 263.511395,299 L291.273437,299 C315.166998,299 327,287.196273 327,263.58882 L327,235.511995 C327,229.552832 323.700413,226.114853 317.897691,226.114853 Z"/><path id="d" d="M182.278881,272.337708 C185.032028,272.337708 187.329555,271.427371 189.171463,269.606697 C191.01337,267.786024 193.201566,265.158923 195.736052,261.725395 L247.12377,193.164164 C248.460135,191.322708 249.474155,189.518073 250.16583,187.750258 C250.857506,185.982443 251.203343,184.178259 251.203343,182.337708 C251.203343,180.497156 250.857506,178.681226 250.16583,176.889918 C249.474155,175.09861 248.460135,173.305721 247.12377,171.511251 L195.736052,102.879542 C193.201566,99.4821566 191.01337,96.8758378 189.171463,95.0605857 C187.329555,93.2453336 185.032028,92.3377075 182.278881,92.3377075 C179.53748,92.3377075 177.257572,93.2453336 175.439157,95.0605857 C173.620743,96.8758378 171.438871,99.4821566 168.893543,102.879542 L117.522089,171.511251 C116.137835,173.305721 115.111843,175.09861 114.444112,176.889918 C113.776381,178.681226 113.442516,180.497156 113.442516,182.337708 C113.442516,184.178259 113.776381,185.982443 114.444112,187.750258 C115.111843,189.518073 116.137835,191.322708 117.522089,193.164164 L168.893543,261.725395 C171.438871,265.158923 173.620743,267.786024 175.439157,269.606697 C177.257572,271.427371 179.53748,272.337708 182.278881,272.337708 Z"/></defs><g fill="none" fill-rule="evenodd"><rect width="365" height="365"/><g fill-rule="nonzero" opacity=".4"><use xlink:href="#a" fill="#000" filter="url(#b)"/><use xlink:href="#a" fill="#2E2E2E"/><use xlink:href="#a" fill="url(#c)"/></g><g fill-rule="nonzero" opacity=".8"><use xlink:href="#d" fill="#000" filter="url(#e)"/><use xlink:href="#d" fill="#2E2E2E"/><use xlink:href="#d" fill="url(#f)"/></g></g></svg>