<svg xmlns="http://www.w3.org/2000/svg" xmlns:xlink="http://www.w3.org/1999/xlink" width="1400" height="1400" viewBox="0 0 1400 1400"><defs><linearGradient id="a" x1="50%" x2="50%" y1="0%" y2="100%"><stop offset="0%" stop-color="#616261"/><stop offset="100%" stop-color="#2F3030"/></linearGradient><linearGradient id="c" x1="50%" x2="50%" y1="0%" y2="100%"><stop offset="0%" stop-color="#454645"/><stop offset="100%" stop-color="#454545"/></linearGradient><linearGradient id="d" x1="50%" x2="50%" y1="0%" y2="100%"><stop offset="0%" stop-color="#232323"/><stop offset="53.029%" stop-color="#3E3F3E"/><stop offset="100%" stop-color="#5C5D5D"/></linearGradient><linearGradient id="h" x1="50%" x2="50%" y1="0%" y2="100%"><stop offset="0%" stop-color="#848484"/><stop offset="100%" stop-color="#3C3D3D"/></linearGradient><linearGradient id="i" x1="50%" x2="50%" y1="0%" y2="100%"><stop offset="0%" stop-color="#8B8B8B"/><stop offset="100%" stop-color="#363636"/></linearGradient><linearGradient id="j" x1="50%" x2="50%" y1="0%" y2="100%"><stop offset="0%" stop-color="#333"/><stop offset="100%" stop-color="#595959"/></linearGradient><linearGradient id="k" x1="50%" x2="50%" y1="0%" y2="100%"><stop offset="0%" stop-color="#595959"/><stop offset="100%" stop-color="#333"/></linearGradient><linearGradient id="m" x1="50%" x2="50%" y1="0%" y2="100%"><stop offset="0%" stop-color="#282929"/><stop offset="19.258%" stop-color="#383938"/><stop offset="50.063%" stop-color="#3B3C3B"/><stop offset="75.325%" stop-color="#2B2C2B"/><stop offset="100%" stop-color="#131313"/></linearGradient><linearGradient id="q" x1="50%" x2="50%" y1="0%" y2="100%"><stop offset="0%" stop-color="#282929"/><stop offset="19.258%" stop-color="#383938"/><stop offset="75.325%" stop-color="#2B2C2B"/><stop offset="100%" stop-color="#131313"/></linearGradient><linearGradient id="r" x1="50%" x2="50%" y1="0%" y2="100%"><stop offset="0%" stop-color="#FFF" stop-opacity=".5"/><stop offset="44.348%" stop-color="#FFF"/><stop offset="100%" stop-color="#FFF" stop-opacity=".5"/></linearGradient><linearGradient id="v" x1="50%" x2="50%" y1="0%" y2="100%"><stop offset="0%" stop-color="#D8D8D8"/><stop offset="81.272%" stop-color="silver"/><stop offset="100%" stop-color="#767777"/></linearGradient><filter id="g" width="165.3%" height="165.3%" x="-32.7%" y="-17.7%" filterUnits="objectBoundingBox"><feOffset dy="90" in="SourceAlpha" result="shadowOffsetOuter1"/><feGaussianBlur in="shadowOffsetOuter1" result="shadowBlurOuter1" stdDeviation="51"/><feComposite in="shadowBlurOuter1" in2="SourceAlpha" operator="out" result="shadowBlurOuter1"/><feColorMatrix in="shadowBlurOuter1" values="0 0 0 0 0 0 0 0 0 0 0 0 0 0 0 0 0 0 1 0"/></filter><filter id="n" width="102.2%" height="104.1%" x="-1.1%" y="-2%" filterUnits="objectBoundingBox"><feOffset dx="-6" in="SourceAlpha" result="shadowOffsetInner1"/><feComposite in="shadowOffsetInner1" in2="SourceAlpha" k2="-1" k3="1" operator="arithmetic" result="shadowInnerInner1"/><feColorMatrix in="shadowInnerInner1" result="shadowMatrixInner1" values="0 0 0 0 0.368627451 0 0 0 0 0.368627451 0 0 0 0 0.368627451 0 0 0 0.5 0"/><feOffset dx="6" in="SourceAlpha" result="shadowOffsetInner2"/><feComposite in="shadowOffsetInner2" in2="SourceAlpha" k2="-1" k3="1" operator="arithmetic" result="shadowInnerInner2"/><feColorMatrix in="shadowInnerInner2" result="shadowMatrixInner2" values="0 0 0 0 0.368627451 0 0 0 0 0.368627451 0 0 0 0 0.368627451 0 0 0 0.5 0"/><feMerge><feMergeNode in="shadowMatrixInner1"/><feMergeNode in="shadowMatrixInner2"/></feMerge></filter><filter id="u" width="102.6%" height="102.6%" x="-1.3%" y="-1.3%" filterUnits="objectBoundingBox"><feOffset in="SourceAlpha" result="shadowOffsetOuter1"/><feGaussianBlur in="shadowOffsetOuter1" result="shadowBlurOuter1" stdDeviation="2"/><feColorMatrix in="shadowBlurOuter1" values="0 0 0 0 0.552677763 0 0 0 0 0.552677763 0 0 0 0 0.552677763 0 0 0 0.5 0"/></filter><rect id="b" width="1104" height="1074" x="0" y="0" rx="144"/><rect id="l" width="267" height="147" x="0" y="0" rx="12"/><rect id="p" width="255" height="147" x="0" y="0" rx="6"/><radialGradient id="e" cx="50%" cy="50%" r="50%" fx="50%" fy="50%"><stop offset="0%" stop-color="#FFF"/><stop offset="64.724%" stop-color="#FFF"/><stop offset="100%" stop-color="#FFFEFE" stop-opacity="0"/></radialGradient><circle id="f" cx="562.5" cy="636" r="300"/><path id="t" d="M232,464 C263.691503,464 293.52549,457.934641 321.501961,445.803922 C349.478431,433.673203 374.156863,416.917647 395.537255,395.537255 C416.917647,374.156863 433.673203,349.478431 445.803922,321.501961 C457.934641,293.52549 464,263.691503 464,232 C464,200.308497 457.934641,170.47451 445.803922,142.498039 C433.673203,114.521569 416.917647,89.8431373 395.537255,68.4627451 C374.156863,47.0823529 349.440523,30.3267974 321.388235,18.1960784 C293.335948,6.06535948 263.464052,0 231.772549,0 C200.081046,0 170.247059,6.06535948 142.270588,18.1960784 C114.294118,30.3267974 89.6535948,47.0823529 68.3490196,68.4627451 C47.0444444,89.8431373 30.3267974,114.521569 18.1960784,142.498039 C6.06535948,170.47451 0,200.308497 0,232 C0,263.691503 6.06535948,293.52549 18.1960784,321.501961 C30.3267974,349.478431 47.0823529,374.156863 68.4627451,395.537255 C89.8431373,416.917647 114.521569,433.673203 142.498039,445.803922 C170.47451,457.934641 200.308497,464 232,464 Z M232,425.333333 C205.160784,425.333333 180.065359,420.329412 156.713725,410.321569 C133.362092,400.313725 112.853595,386.477124 95.1882353,368.811765 C77.5228758,351.146405 63.724183,330.637908 53.7921569,307.286275 C43.8601307,283.934641 38.8941176,258.839216 38.8941176,232 C38.8941176,205.160784 43.8601307,180.065359 53.7921569,156.713725 C63.724183,133.362092 77.4849673,112.815686 95.0745098,95.0745098 C112.664052,77.3333333 133.134641,63.496732 156.486275,53.5647059 C179.837908,43.6326797 204.933333,38.6666667 231.772549,38.6666667 C258.611765,38.6666667 283.745098,43.6326797 307.172549,53.5647059 C330.6,63.496732 351.146405,77.3333333 368.811765,95.0745098 C386.477124,112.815686 400.313725,133.362092 410.321569,156.713725 C420.329412,180.065359 425.333333,205.160784 425.333333,232 C425.333333,258.839216 420.36732,283.934641 410.435294,307.286275 C400.503268,330.637908 386.666667,351.146405 368.92549,368.811765 C351.184314,386.477124 330.637908,400.313725 307.286275,410.321569 C283.934641,420.329412 258.839216,425.333333 232,425.333333 Z M349.137255,259.74902 C349.137255,241.401307 345.118954,225.669281 337.082353,212.552941 C329.045752,199.436601 318.052288,189.352941 304.101961,182.301961 C290.151634,175.25098 274.305882,171.72549 256.564706,171.72549 L188.784314,171.72549 L161.717647,172.635294 L179.686275,158.533333 L203.341176,135.788235 C206.677124,132.603922 208.345098,128.661438 208.345098,123.960784 C208.345098,119.260131 206.79085,115.317647 203.682353,112.133333 C200.573856,108.94902 196.745098,107.356863 192.196078,107.356863 C187.495425,107.356863 183.552941,109.024837 180.368627,112.360784 L120.094118,173.772549 C116,177.715033 113.952941,182.339869 113.952941,187.647059 C113.952941,192.802614 116,197.351634 120.094118,201.294118 L180.596078,263.388235 C183.780392,266.572549 187.722876,268.164706 192.423529,268.164706 C196.820915,268.164706 200.573856,266.572549 203.682353,263.388235 C206.79085,260.203922 208.345098,256.261438 208.345098,251.560784 C208.345098,246.708497 206.752941,242.766013 203.568627,239.733333 L175.137255,212.439216 L161.717647,202.658824 L188.784314,203.568627 L256.564706,203.568627 C273.396078,203.568627 287.460131,208.231373 298.756863,217.556863 C310.053595,226.882353 315.701961,240.339869 315.701961,257.929412 C315.701961,275.822222 310.129412,289.962092 298.984314,300.34902 C287.839216,310.735948 273.623529,315.929412 256.337255,315.929412 C255.427451,315.929412 252.470588,315.929412 247.466667,315.929412 C242.462745,315.929412 237.496732,315.929412 232.568627,315.929412 C227.640523,315.929412 225.024837,315.929412 224.721569,315.929412 C220.020915,315.929412 216.002614,317.294118 212.666667,320.023529 C209.330719,322.752941 207.662745,326.771242 207.662745,332.078431 C207.662745,337.385621 209.330719,341.44183 212.666667,344.247059 C216.002614,347.052288 220.172549,348.454902 225.176471,348.454902 C225.631373,348.454902 228.247059,348.454902 233.023529,348.454902 C237.8,348.454902 242.652288,348.454902 247.580392,348.454902 C252.508497,348.454902 255.427451,348.454902 256.337255,348.454902 C274.078431,348.454902 289.962092,344.853595 303.988235,337.65098 C318.014379,330.448366 329.045752,320.213072 337.082353,306.945098 C345.118954,293.677124 349.137255,277.945098 349.137255,259.74902 Z"/></defs><g fill="none" fill-rule="evenodd"><rect width="1400" height="1400"/><g transform="translate(136 151)"><rect width="1128" height="1098" fill="url(#a)" rx="156"/><use xlink:href="#b" fill="url(#c)" transform="translate(12 12)"/><rect width="381" height="177" x="663" y="81" fill="url(#d)" rx="88.5"/><circle cx="562.5" cy="636" r="336" fill="url(#e)"/><use xlink:href="#f" fill="#000" filter="url(#g)"/><use xlink:href="#f" fill="url(#h)" style="mix-blend-mode:darken"/><circle cx="562.5" cy="636" r="298.5" stroke="url(#i)" stroke-linejoin="square" stroke-width="3"/><circle cx="169.5" cy="166.5" r="82.5" fill="url(#j)" stroke="#010000" stroke-width="6"/><circle cx="169.5" cy="928.5" r="82.5" fill="#454645" stroke="#010000" stroke-width="6"/><circle cx="952.5" cy="928.5" r="82.5" fill="#454645" stroke="#010000" stroke-width="6"/><circle cx="370.5" cy="166.5" r="82.5" fill="url(#k)" stroke="#010000" stroke-width="6"/><g transform="translate(720 96)"><mask id="o" fill="#fff"><use xlink:href="#l"/></mask><use xlink:href="#l" fill="url(#m)"/><use xlink:href="#l" fill="#000" filter="url(#n)"/><g mask="url(#o)"><g transform="translate(6)"><mask id="s" fill="#fff"><use xlink:href="#p"/></mask><use xlink:href="#p" fill="url(#q)"/><path fill="url(#r)" fill-rule="nonzero" d="M255,135 L255,138 L0,138 L0,135 L255,135 Z M255,129 L255,132 L0,132 L0,129 L255,129 Z M255,123 L255,126 L0,126 L0,123 L255,123 Z M255,117 L255,120 L0,120 L0,117 L255,117 Z M255,111 L255,114 L0,114 L0,111 L255,111 Z M255,105 L255,108 L0,108 L0,105 L255,105 Z M255,99 L255,102 L0,102 L0,99 L255,99 Z M255,93 L255,96 L0,96 L0,93 L255,93 Z M255,87 L255,90 L0,90 L0,87 L255,87 Z M255,81 L255,84 L0,84 L0,81 L255,81 Z M255,75 L255,78 L0,78 L0,75 L255,75 Z M255,69 L255,72 L0,72 L0,69 L255,69 Z M255,63 L255,66 L0,66 L0,63 L255,63 Z M255,57 L255,60 L0,60 L0,57 L255,57 Z M255,51 L255,54 L0,54 L0,51 L255,51 Z M255,45 L255,48 L0,48 L0,45 L255,45 Z M255,39 L255,42 L0,42 L0,39 L255,39 Z M255,33 L255,36 L0,36 L0,33 L255,33 Z M255,27 L255,30 L0,30 L0,27 L255,27 Z M255,21 L255,24 L0,24 L0,21 L255,21 Z M255,15 L255,18 L0,18 L0,15 L255,15 Z M255,9 L255,12 L0,12 L0,9 L255,9 Z M255,3 L255,6 L0,6 L0,3 L255,3 Z" mask="url(#s)" opacity=".1"/></g></g></g></g><g fill-rule="nonzero" transform="translate(466.5 555)"><use xlink:href="#t" fill="#000" filter="url(#u)"/><use xlink:href="#t" fill="#2E2E2E"/><use xlink:href="#t" fill="url(#v)"/></g></g></svg>