<svg xmlns="http://www.w3.org/2000/svg" xmlns:xlink="http://www.w3.org/1999/xlink" width="1400" height="1400" viewBox="0 0 1400 1400"><defs><linearGradient id="a" x1="50%" x2="50%" y1="0%" y2="100%"><stop offset="0%" stop-color="#616261"/><stop offset="100%" stop-color="#2F3030"/></linearGradient><linearGradient id="c" x1="50%" x2="50%" y1="0%" y2="100%"><stop offset="0%" stop-color="#454645"/><stop offset="100%" stop-color="#454545"/></linearGradient><linearGradient id="d" x1="50%" x2="50%" y1="0%" y2="100%"><stop offset="0%" stop-color="#232323"/><stop offset="53.029%" stop-color="#3E3F3E"/><stop offset="100%" stop-color="#5C5D5D"/></linearGradient><linearGradient id="h" x1="50%" x2="50%" y1="0%" y2="100%"><stop offset="0%" stop-color="#848484"/><stop offset="100%" stop-color="#3C3D3D"/></linearGradient><linearGradient id="i" x1="50%" x2="50%" y1="0%" y2="100%"><stop offset="0%" stop-color="#8B8B8B"/><stop offset="100%" stop-color="#363636"/></linearGradient><linearGradient id="j" x1="50%" x2="50%" y1="0%" y2="100%"><stop offset="0%" stop-color="#333"/><stop offset="100%" stop-color="#595959"/></linearGradient><linearGradient id="k" x1="50%" x2="50%" y1="0%" y2="100%"><stop offset="0%" stop-color="#595959"/><stop offset="100%" stop-color="#333"/></linearGradient><linearGradient id="m" x1="50%" x2="50%" y1="0%" y2="100%"><stop offset="0%" stop-color="#282929"/><stop offset="19.258%" stop-color="#383938"/><stop offset="50.063%" stop-color="#3B3C3B"/><stop offset="75.325%" stop-color="#2B2C2B"/><stop offset="100%" stop-color="#131313"/></linearGradient><linearGradient id="q" x1="50%" x2="50%" y1="0%" y2="100%"><stop offset="0%" stop-color="#282929"/><stop offset="19.258%" stop-color="#383938"/><stop offset="75.325%" stop-color="#2B2C2B"/><stop offset="100%" stop-color="#131313"/></linearGradient><linearGradient id="r" x1="50%" x2="50%" y1="0%" y2="100%"><stop offset="0%" stop-color="#FFF" stop-opacity=".5"/><stop offset="44.348%" stop-color="#FFF"/><stop offset="100%" stop-color="#FFF" stop-opacity=".5"/></linearGradient><linearGradient id="v" x1="50%" x2="50%" y1="0%" y2="100%"><stop offset="0%" stop-color="#D8D8D8"/><stop offset="81.272%" stop-color="silver"/><stop offset="100%" stop-color="#767777"/></linearGradient><filter id="g" width="165.3%" height="165.3%" x="-32.7%" y="-17.7%" filterUnits="objectBoundingBox"><feOffset dy="90" in="SourceAlpha" result="shadowOffsetOuter1"/><feGaussianBlur in="shadowOffsetOuter1" result="shadowBlurOuter1" stdDeviation="51"/><feComposite in="shadowBlurOuter1" in2="SourceAlpha" operator="out" result="shadowBlurOuter1"/><feColorMatrix in="shadowBlurOuter1" values="0 0 0 0 0 0 0 0 0 0 0 0 0 0 0 0 0 0 1 0"/></filter><filter id="n" width="102.2%" height="104.1%" x="-1.1%" y="-2%" filterUnits="objectBoundingBox"><feOffset dx="-6" in="SourceAlpha" result="shadowOffsetInner1"/><feComposite in="shadowOffsetInner1" in2="SourceAlpha" k2="-1" k3="1" operator="arithmetic" result="shadowInnerInner1"/><feColorMatrix in="shadowInnerInner1" result="shadowMatrixInner1" values="0 0 0 0 0.368627451 0 0 0 0 0.368627451 0 0 0 0 0.368627451 0 0 0 0.5 0"/><feOffset dx="6" in="SourceAlpha" result="shadowOffsetInner2"/><feComposite in="shadowOffsetInner2" in2="SourceAlpha" k2="-1" k3="1" operator="arithmetic" result="shadowInnerInner2"/><feColorMatrix in="shadowInnerInner2" result="shadowMatrixInner2" values="0 0 0 0 0.368627451 0 0 0 0 0.368627451 0 0 0 0 0.368627451 0 0 0 0.5 0"/><feMerge><feMergeNode in="shadowMatrixInner1"/><feMergeNode in="shadowMatrixInner2"/></feMerge></filter><filter id="u" width="104.8%" height="106.2%" x="-2.4%" y="-3.1%" filterUnits="objectBoundingBox"><feOffset in="SourceAlpha" result="shadowOffsetOuter1"/><feGaussianBlur in="shadowOffsetOuter1" result="shadowBlurOuter1" stdDeviation="3.5"/><feColorMatrix in="shadowBlurOuter1" values="0 0 0 0 0.552677763 0 0 0 0 0.552677763 0 0 0 0 0.552677763 0 0 0 0.5 0"/></filter><rect id="b" width="1104" height="1074" x="0" y="0" rx="144"/><rect id="l" width="267" height="147" x="0" y="0" rx="12"/><rect id="p" width="255" height="147" x="0" y="0" rx="6"/><radialGradient id="e" cx="50%" cy="50%" r="50%" fx="50%" fy="50%"><stop offset="0%" stop-color="#FFF"/><stop offset="64.724%" stop-color="#FFF"/><stop offset="100%" stop-color="#FFFEFE" stop-opacity="0"/></radialGradient><circle id="f" cx="562.5" cy="636" r="300"/><path id="t" d="M521.984456,867.988827 L575.505181,867.988827 C577.144214,867.988827 578.531088,868.556983 579.665803,869.693296 L662.689119,944.121788 C667.606218,948.414525 672.176598,951.634078 676.400259,953.780447 C680.623921,955.926816 685.194301,957 690.111399,957 C697.171848,957 703.003022,954.664246 707.604922,949.992737 C712.206822,945.321229 714.507772,939.513408 714.507772,932.569274 L714.507772,643.377654 C714.507772,636.307263 712.175302,630.310056 707.510363,625.386034 C702.845423,620.462011 696.919689,618 689.733161,618 C684.816062,618 680.434801,619.136313 676.589378,621.408939 C672.743955,623.681564 668.110535,627.21676 662.689119,632.014525 L579.665803,705.685475 C578.531088,706.821788 577.144214,707.389944 575.505181,707.389944 L521.984456,707.389944 C508.115717,707.389944 497.651123,711.019832 490.590674,718.279609 C483.530225,725.539385 480,736.555307 480,751.327374 L480,824.240782 C480,838.760335 483.530225,849.681564 490.590674,857.004469 C497.651123,864.327374 508.115717,867.988827 521.984456,867.988827 Z M525.199482,834.467598 C522.047496,834.467598 519.683506,833.710056 518.107513,832.194972 C516.53152,830.679888 515.743523,828.344134 515.743523,825.187709 L515.743523,750.191061 C515.743523,747.034637 516.53152,744.667318 518.107513,743.089106 C519.683506,741.510894 522.047496,740.721788 525.199482,740.721788 L584.204663,740.721788 C586.726252,740.721788 589.027202,740.406145 591.107513,739.77486 C593.187824,739.143575 595.299655,737.817877 597.443005,735.797765 L673.090674,666.861453 C673.594991,666.356425 674.099309,665.977654 674.603627,665.72514 C675.107945,665.472626 675.675302,665.346369 676.305699,665.346369 C677.944732,665.346369 678.764249,666.293296 678.764249,668.187151 L678.764249,906.812849 C678.764249,908.706704 677.944732,909.653631 676.305699,909.653631 C675.297064,909.653631 674.288428,909.148603 673.279793,908.138547 L597.443005,839.581006 C595.299655,837.687151 593.187824,836.361453 591.107513,835.603911 C589.027202,834.846369 586.726252,834.467598 584.204663,834.467598 L525.199482,834.467598 Z M778.80829,871.397765 C782.842832,873.922905 787.192573,874.77514 791.857513,873.954469 C796.522453,873.133799 800.241796,870.640223 803.015544,866.473743 C810.70639,856.246927 816.695164,844.252514 820.981865,830.490503 C825.268566,816.728492 827.411917,802.335196 827.411917,787.310615 C827.411917,772.286034 825.268566,757.861173 820.981865,744.036034 C816.695164,730.210894 810.70639,718.184916 803.015544,707.958101 C800.241796,703.917877 796.522453,701.455866 791.857513,700.572067 C787.192573,699.688268 782.842832,700.572067 778.80829,703.223464 C774.26943,706.253631 771.621762,710.325419 770.865285,715.438827 C770.108808,720.552235 771.558722,725.760335 775.215026,731.063128 C780.510363,738.512291 784.576425,747.097765 787.413212,756.819553 C790.25,766.541341 791.668394,776.705028 791.668394,787.310615 C791.668394,797.916201 790.21848,808.048324 787.318653,817.706983 C784.418826,827.365642 780.384283,835.982682 775.215026,843.558101 C771.684801,848.987151 770.266408,854.226816 770.959845,859.277095 C771.653282,864.327374 774.26943,868.367598 778.80829,871.397765 Z M854.266839,921.963687 C858.553541,924.615084 863.060881,925.498883 867.78886,924.615084 C872.516839,923.731285 876.330743,921.143017 879.23057,916.850279 C891.460276,899.300559 900.979275,879.320391 907.787565,856.909777 C914.595855,834.499162 918,811.299441 918,787.310615 C918,763.321788 914.627375,740.058939 907.882124,717.522067 C901.136874,694.985196 891.586356,675.068156 879.23057,657.77095 C876.330743,653.478212 872.516839,650.85838 867.78886,649.911453 C863.060881,648.964525 858.553541,649.879888 854.266839,652.657542 C849.854059,655.435196 847.30095,659.317598 846.607513,664.304749 C845.914076,669.291899 847.26943,674.247486 850.673575,679.171508 C860.759931,693.943575 868.545337,710.641061 874.029793,729.263966 C879.514249,747.886872 882.256477,767.235754 882.256477,787.310615 C882.256477,807.385475 879.482729,826.702793 873.935233,845.26257 C868.387737,863.822346 860.633851,880.551397 850.673575,895.449721 C847.395509,900.373743 846.071675,905.32933 846.702073,910.31648 C847.33247,915.303631 849.854059,919.186034 854.266839,921.963687 Z"/></defs><g fill="none" fill-rule="evenodd"><rect width="1400" height="1400"/><g transform="translate(136 151)"><rect width="1128" height="1098" fill="url(#a)" rx="156"/><use xlink:href="#b" fill="url(#c)" transform="translate(12 12)"/><rect width="381" height="177" x="663" y="81" fill="url(#d)" rx="88.5"/><circle cx="562.5" cy="636" r="336" fill="url(#e)"/><use xlink:href="#f" fill="#000" filter="url(#g)"/><use xlink:href="#f" fill="url(#h)" style="mix-blend-mode:darken"/><circle cx="562.5" cy="636" r="298.5" stroke="url(#i)" stroke-linejoin="square" stroke-width="3"/><circle cx="169.5" cy="166.5" r="82.5" fill="url(#j)" stroke="#010000" stroke-width="6"/><circle cx="169.5" cy="928.5" r="82.5" fill="#454645" stroke="#010000" stroke-width="6"/><circle cx="952.5" cy="928.5" r="82.5" fill="#454645" stroke="#010000" stroke-width="6"/><circle cx="370.5" cy="166.5" r="82.5" fill="url(#k)" stroke="#010000" stroke-width="6"/><g transform="translate(720 96)"><mask id="o" fill="#fff"><use xlink:href="#l"/></mask><use xlink:href="#l" fill="url(#m)"/><use xlink:href="#l" fill="#000" filter="url(#n)"/><g mask="url(#o)"><g transform="translate(6)"><mask id="s" fill="#fff"><use xlink:href="#p"/></mask><use xlink:href="#p" fill="url(#q)"/><path fill="url(#r)" fill-rule="nonzero" d="M255,135 L255,138 L0,138 L0,135 L255,135 Z M255,129 L255,132 L0,132 L0,129 L255,129 Z M255,123 L255,126 L0,126 L0,123 L255,123 Z M255,117 L255,120 L0,120 L0,117 L255,117 Z M255,111 L255,114 L0,114 L0,111 L255,111 Z M255,105 L255,108 L0,108 L0,105 L255,105 Z M255,99 L255,102 L0,102 L0,99 L255,99 Z M255,93 L255,96 L0,96 L0,93 L255,93 Z M255,87 L255,90 L0,90 L0,87 L255,87 Z M255,81 L255,84 L0,84 L0,81 L255,81 Z M255,75 L255,78 L0,78 L0,75 L255,75 Z M255,69 L255,72 L0,72 L0,69 L255,69 Z M255,63 L255,66 L0,66 L0,63 L255,63 Z M255,57 L255,60 L0,60 L0,57 L255,57 Z M255,51 L255,54 L0,54 L0,51 L255,51 Z M255,45 L255,48 L0,48 L0,45 L255,45 Z M255,39 L255,42 L0,42 L0,39 L255,39 Z M255,33 L255,36 L0,36 L0,33 L255,33 Z M255,27 L255,30 L0,30 L0,27 L255,27 Z M255,21 L255,24 L0,24 L0,21 L255,21 Z M255,15 L255,18 L0,18 L0,15 L255,15 Z M255,9 L255,12 L0,12 L0,9 L255,9 Z M255,3 L255,6 L0,6 L0,3 L255,3 Z" mask="url(#s)" opacity=".1"/></g></g></g></g><g fill-rule="nonzero"><use xlink:href="#t" fill="#000" filter="url(#u)"/><use xlink:href="#t" fill="#2E2E2E"/><use xlink:href="#t" fill="url(#v)"/></g></g></svg>