<svg xmlns="http://www.w3.org/2000/svg" xmlns:xlink="http://www.w3.org/1999/xlink" width="1400" height="1400" viewBox="0 0 1400 1400"><defs><linearGradient id="a" x1="50%" x2="50%" y1="0%" y2="100%"><stop offset="0%" stop-color="#616261"/><stop offset="100%" stop-color="#2F3030"/></linearGradient><linearGradient id="c" x1="50%" x2="50%" y1="0%" y2="100%"><stop offset="0%" stop-color="#454645"/><stop offset="100%" stop-color="#454545"/></linearGradient><linearGradient id="d" x1="50%" x2="50%" y1="0%" y2="100%"><stop offset="0%" stop-color="#232323"/><stop offset="53.029%" stop-color="#3E3F3E"/><stop offset="100%" stop-color="#5C5D5D"/></linearGradient><linearGradient id="h" x1="50%" x2="50%" y1="0%" y2="100%"><stop offset="0%" stop-color="#848484"/><stop offset="100%" stop-color="#3C3D3D"/></linearGradient><linearGradient id="i" x1="50%" x2="50%" y1="0%" y2="100%"><stop offset="0%" stop-color="#8B8B8B"/><stop offset="100%" stop-color="#363636"/></linearGradient><linearGradient id="j" x1="50%" x2="50%" y1="0%" y2="100%"><stop offset="0%" stop-color="#333"/><stop offset="100%" stop-color="#595959"/></linearGradient><linearGradient id="k" x1="50%" x2="50%" y1="0%" y2="100%"><stop offset="0%" stop-color="#595959"/><stop offset="100%" stop-color="#333"/></linearGradient><linearGradient id="m" x1="50%" x2="50%" y1="0%" y2="100%"><stop offset="0%" stop-color="#282929"/><stop offset="19.258%" stop-color="#383938"/><stop offset="50.063%" stop-color="#3B3C3B"/><stop offset="75.325%" stop-color="#2B2C2B"/><stop offset="100%" stop-color="#131313"/></linearGradient><linearGradient id="q" x1="50%" x2="50%" y1="0%" y2="100%"><stop offset="0%" stop-color="#282929"/><stop offset="19.258%" stop-color="#383938"/><stop offset="75.325%" stop-color="#2B2C2B"/><stop offset="100%" stop-color="#131313"/></linearGradient><linearGradient id="r" x1="50%" x2="50%" y1="0%" y2="100%"><stop offset="0%" stop-color="#FFF" stop-opacity=".5"/><stop offset="44.348%" stop-color="#FFF"/><stop offset="100%" stop-color="#FFF" stop-opacity=".5"/></linearGradient><linearGradient id="v" x1="50%" x2="50%" y1="0%" y2="100%"><stop offset="0%" stop-color="#D8D8D8"/><stop offset="81.272%" stop-color="silver"/><stop offset="100%" stop-color="#767777"/></linearGradient><filter id="g" width="165.3%" height="165.3%" x="-32.7%" y="-17.7%" filterUnits="objectBoundingBox"><feOffset dy="90" in="SourceAlpha" result="shadowOffsetOuter1"/><feGaussianBlur in="shadowOffsetOuter1" result="shadowBlurOuter1" stdDeviation="51"/><feComposite in="shadowBlurOuter1" in2="SourceAlpha" operator="out" result="shadowBlurOuter1"/><feColorMatrix in="shadowBlurOuter1" values="0 0 0 0 0 0 0 0 0 0 0 0 0 0 0 0 0 0 1 0"/></filter><filter id="n" width="102.2%" height="104.1%" x="-1.1%" y="-2%" filterUnits="objectBoundingBox"><feOffset dx="-6" in="SourceAlpha" result="shadowOffsetInner1"/><feComposite in="shadowOffsetInner1" in2="SourceAlpha" k2="-1" k3="1" operator="arithmetic" result="shadowInnerInner1"/><feColorMatrix in="shadowInnerInner1" result="shadowMatrixInner1" values="0 0 0 0 0.368627451 0 0 0 0 0.368627451 0 0 0 0 0.368627451 0 0 0 0.5 0"/><feOffset dx="6" in="SourceAlpha" result="shadowOffsetInner2"/><feComposite in="shadowOffsetInner2" in2="SourceAlpha" k2="-1" k3="1" operator="arithmetic" result="shadowInnerInner2"/><feColorMatrix in="shadowInnerInner2" result="shadowMatrixInner2" values="0 0 0 0 0.368627451 0 0 0 0 0.368627451 0 0 0 0 0.368627451 0 0 0 0.5 0"/><feMerge><feMergeNode in="shadowMatrixInner1"/><feMergeNode in="shadowMatrixInner2"/></feMerge></filter><filter id="u" width="106.5%" height="106.4%" x="-3.2%" y="-3.2%" filterUnits="objectBoundingBox"><feOffset in="SourceAlpha" result="shadowOffsetOuter1"/><feGaussianBlur in="shadowOffsetOuter1" result="shadowBlurOuter1" stdDeviation="4.5"/><feColorMatrix in="shadowBlurOuter1" values="0 0 0 0 0.552677763 0 0 0 0 0.552677763 0 0 0 0 0.552677763 0 0 0 0.5 0"/></filter><rect id="b" width="1104" height="1074" x="0" y="0" rx="144"/><rect id="l" width="267" height="147" x="0" y="0" rx="12"/><rect id="p" width="255" height="147" x="0" y="0" rx="6"/><radialGradient id="e" cx="50%" cy="50%" r="50%" fx="50%" fy="50%"><stop offset="0%" stop-color="#FFF"/><stop offset="64.724%" stop-color="#FFF"/><stop offset="100%" stop-color="#FFFEFE" stop-opacity="0"/></radialGradient><circle id="f" cx="562.5" cy="636" r="300"/><path id="t" d="M479,729.540391 C479,753.283492 483.458397,775.516307 492.37519,796.238836 C501.291983,816.961365 513.614008,835.190166 529.341266,850.925238 C545.068523,866.660311 563.28827,878.953337 584.000506,887.804315 C604.712743,896.655294 626.864304,901.080783 650.45519,901.080783 C668.007932,901.080783 684.753249,898.516809 700.691139,893.388861 C716.62903,888.260913 731.338228,881.201204 744.818734,872.209734 L841.499241,968.938284 C844.588523,972.029102 848.063966,974.312092 851.92557,975.787255 C855.787173,977.262418 859.824304,978 864.036962,978 C870.075105,978 875.411139,976.630206 880.045063,973.890617 C884.678987,971.151029 888.329958,967.392875 890.997975,962.616157 C893.665992,957.839438 895,952.500753 895,946.6001 C895,942.385349 894.262785,938.381335 892.788354,934.588058 C891.313924,930.794782 889.102278,927.493226 886.153418,924.683392 L790.10481,828.16558 C800.074768,814.397391 807.903291,799.154039 813.59038,782.435524 C819.277468,765.71701 822.121013,748.085299 822.121013,729.540391 C822.121013,705.937782 817.662616,683.775213 808.745823,663.052684 C799.82903,642.330156 787.507004,624.066232 771.779747,608.260913 C756.052489,592.455595 737.832743,580.127446 717.120506,571.276468 C696.40827,562.425489 674.186498,558 650.45519,558 C626.864304,558 604.712743,562.425489 584.000506,571.276468 C563.28827,580.127446 545.068523,592.455595 529.341266,608.260913 C513.614008,624.066232 501.291983,642.330156 492.37519,663.052684 C483.458397,683.775213 479,705.937782 479,729.540391 Z M524,729.894431 C524,712.440288 527.272652,696.04184 533.817955,680.699086 C540.363259,665.356331 549.477418,651.843447 561.160432,640.160432 C572.843447,628.477418 586.356331,619.363259 601.699086,612.817955 C617.04184,606.272652 633.440288,603 650.894431,603 C668.489332,603 684.95816,606.272652 700.300914,612.817955 C715.643669,619.363259 729.121363,628.477418 740.733998,640.160432 C752.346633,651.843447 761.460792,665.356331 768.076475,680.699086 C774.692158,696.04184 778,712.440288 778,729.894431 C778,747.489332 774.692158,763.95816 768.076475,779.300914 C761.460792,794.643669 752.346633,808.121363 740.733998,819.733998 C729.121363,831.346633 715.643669,840.460792 700.300914,847.076475 C684.95816,853.692158 668.489332,857 650.894431,857 C633.440288,857 617.04184,853.692158 601.699086,847.076475 C586.356331,840.460792 572.843447,831.346633 561.160432,819.733998 C549.477418,808.121363 540.363259,794.643669 533.817955,779.300914 C527.272652,763.95816 524,747.489332 524,729.894431 Z M578,720.859031 C578,726.638767 580.396476,730.162996 585.189427,731.431718 C589.982379,732.700441 594.070485,731.643172 597.453744,728.259912 L613.312775,712.612335 L666.387665,765.475771 L649.682819,781.757709 C646.15859,785.140969 645.066079,789.193833 646.405286,793.9163 C647.744493,798.638767 651.374449,801 657.295154,801 L709.524229,801 C713.330396,801 716.361233,799.801762 718.61674,797.405286 C720.872247,795.008811 722,791.555066 722,787.044053 L722,737.563877 C722,731.643172 719.603524,728.0837 714.810573,726.885463 C710.017621,725.687225 705.929515,726.709251 702.546256,729.951542 L686.475771,745.810573 L633.823789,692.735683 L650.317181,676.665198 C653.700441,673.140969 654.757709,668.982379 653.488987,664.189427 C652.220264,659.396476 648.625551,657 642.704846,657 L590.475771,657 C586.669604,657 583.638767,658.268722 581.38326,660.806167 C579.127753,663.343612 578,666.867841 578,671.378855 L578,720.859031 Z"/></defs><g fill="none" fill-rule="evenodd"><rect width="1400" height="1400"/><g transform="translate(136.153 151)"><rect width="1128" height="1098" fill="url(#a)" rx="156"/><use xlink:href="#b" fill="url(#c)" transform="translate(12 12)"/><rect width="381" height="177" x="663" y="81" fill="url(#d)" rx="88.5"/><circle cx="562.5" cy="636" r="336" fill="url(#e)"/><use xlink:href="#f" fill="#000" filter="url(#g)"/><use xlink:href="#f" fill="url(#h)" style="mix-blend-mode:darken"/><circle cx="562.5" cy="636" r="298.5" stroke="url(#i)" stroke-linejoin="square" stroke-width="3"/><circle cx="169.5" cy="166.5" r="82.5" fill="url(#j)" stroke="#010000" stroke-width="6"/><circle cx="169.5" cy="928.5" r="82.5" fill="#454645" stroke="#010000" stroke-width="6"/><circle cx="952.5" cy="928.5" r="82.5" fill="#454645" stroke="#010000" stroke-width="6"/><circle cx="370.5" cy="166.5" r="82.5" fill="url(#k)" stroke="#010000" stroke-width="6"/><g transform="translate(720 96)"><mask id="o" fill="#fff"><use xlink:href="#l"/></mask><use xlink:href="#l" fill="url(#m)"/><use xlink:href="#l" fill="#000" filter="url(#n)"/><g mask="url(#o)"><g transform="translate(6)"><mask id="s" fill="#fff"><use xlink:href="#p"/></mask><use xlink:href="#p" fill="url(#q)"/><path fill="url(#r)" fill-rule="nonzero" d="M255,135 L255,138 L0,138 L0,135 L255,135 Z M255,129 L255,132 L0,132 L0,129 L255,129 Z M255,123 L255,126 L0,126 L0,123 L255,123 Z M255,117 L255,120 L0,120 L0,117 L255,117 Z M255,111 L255,114 L0,114 L0,111 L255,111 Z M255,105 L255,108 L0,108 L0,105 L255,105 Z M255,99 L255,102 L0,102 L0,99 L255,99 Z M255,93 L255,96 L0,96 L0,93 L255,93 Z M255,87 L255,90 L0,90 L0,87 L255,87 Z M255,81 L255,84 L0,84 L0,81 L255,81 Z M255,75 L255,78 L0,78 L0,75 L255,75 Z M255,69 L255,72 L0,72 L0,69 L255,69 Z M255,63 L255,66 L0,66 L0,63 L255,63 Z M255,57 L255,60 L0,60 L0,57 L255,57 Z M255,51 L255,54 L0,54 L0,51 L255,51 Z M255,45 L255,48 L0,48 L0,45 L255,45 Z M255,39 L255,42 L0,42 L0,39 L255,39 Z M255,33 L255,36 L0,36 L0,33 L255,33 Z M255,27 L255,30 L0,30 L0,27 L255,27 Z M255,21 L255,24 L0,24 L0,21 L255,21 Z M255,15 L255,18 L0,18 L0,15 L255,15 Z M255,9 L255,12 L0,12 L0,9 L255,9 Z M255,3 L255,6 L0,6 L0,3 L255,3 Z" mask="url(#s)" opacity=".1"/></g></g></g></g><g fill-rule="nonzero"><use xlink:href="#t" fill="#000" filter="url(#u)"/><use xlink:href="#t" fill="#2E2E2E"/><use xlink:href="#t" fill="url(#v)"/></g></g></svg>