<svg xmlns="http://www.w3.org/2000/svg" xmlns:xlink="http://www.w3.org/1999/xlink" width="512" height="512" viewBox="0 0 512 512"><defs><filter id="b" width="129.1%" height="129.1%" x="-14.6%" y="-14.6%" filterUnits="objectBoundingBox"><feOffset in="SourceAlpha" result="shadowOffsetOuter1"/><feGaussianBlur in="shadowOffsetOuter1" result="shadowBlurOuter1" stdDeviation="20"/><feColorMatrix in="shadowBlurOuter1" values="0 0 0 0 1 0 0 0 0 1 0 0 0 0 1 0 0 0 0.5 0"/></filter><filter id="d" width="120.4%" height="120.4%" x="-10.2%" y="-10.2%" filterUnits="objectBoundingBox"><feMorphology in="SourceAlpha" operator="dilate" radius="1" result="shadowSpreadInner1"/><feGaussianBlur in="shadowSpreadInner1" result="shadowBlurInner1" stdDeviation="1.5"/><feOffset dx="-1" dy="-2" in="shadowBlurInner1" result="shadowOffsetInner1"/><feComposite in="shadowOffsetInner1" in2="SourceAlpha" k2="-1" k3="1" operator="arithmetic" result="shadowInnerInner1"/><feColorMatrix in="shadowInnerInner1" result="shadowMatrixInner1" values="0 0 0 0 0 0 0 0 0 0 0 0 0 0 0 0 0 0 0.2 0"/><feMorphology in="SourceAlpha" operator="dilate" radius="1" result="shadowSpreadInner2"/><feGaussianBlur in="shadowSpreadInner2" result="shadowBlurInner2" stdDeviation="1.5"/><feOffset dx="2" dy="2" in="shadowBlurInner2" result="shadowOffsetInner2"/><feComposite in="shadowOffsetInner2" in2="SourceAlpha" k2="-1" k3="1" operator="arithmetic" result="shadowInnerInner2"/><feColorMatrix in="shadowInnerInner2" result="shadowMatrixInner2" values="0 0 0 0 1 0 0 0 0 1 0 0 0 0 1 0 0 0 0.5 0"/><feMerge><feMergeNode in="shadowMatrixInner1"/><feMergeNode in="shadowMatrixInner2"/></feMerge></filter><filter id="f" width="140%" height="151.2%" x="-20%" y="-23.5%" filterUnits="objectBoundingBox"><feMorphology in="SourceAlpha" operator="dilate" radius="4" result="shadowSpreadOuter1"/><feOffset dy="4" in="shadowSpreadOuter1" result="shadowOffsetOuter1"/><feGaussianBlur in="shadowOffsetOuter1" result="shadowBlurOuter1" stdDeviation="12"/><feColorMatrix in="shadowBlurOuter1" result="shadowMatrixOuter1" values="0 0 0 0 0 0 0 0 0 0 0 0 0 0 0 0 0 0 0.1 0"/><feMorphology in="SourceAlpha" radius="1" result="shadowSpreadOuter2"/><feOffset dy="2" in="shadowSpreadOuter2" result="shadowOffsetOuter2"/><feGaussianBlur in="shadowOffsetOuter2" result="shadowBlurOuter2" stdDeviation="4"/><feColorMatrix in="shadowBlurOuter2" result="shadowMatrixOuter2" values="0 0 0 0 0.109803922 0 0 0 0 0.541176471 0 0 0 0 0.956862745 0 0 0 0.4 0"/><feMorphology in="SourceAlpha" radius="1" result="shadowSpreadOuter3"/><feOffset dy="-2" in="shadowSpreadOuter3" result="shadowOffsetOuter3"/><feGaussianBlur in="shadowOffsetOuter3" result="shadowBlurOuter3" stdDeviation="4"/><feColorMatrix in="shadowBlurOuter3" result="shadowMatrixOuter3" values="0 0 0 0 1 0 0 0 0 1 0 0 0 0 1 0 0 0 0.5 0"/><feMerge><feMergeNode in="shadowMatrixOuter1"/><feMergeNode in="shadowMatrixOuter2"/><feMergeNode in="shadowMatrixOuter3"/></feMerge></filter><filter id="h" width="127.2%" height="134.8%" x="-13.6%" y="-15.4%" filterUnits="objectBoundingBox"><feGaussianBlur in="SourceAlpha" result="shadowBlurInner1" stdDeviation="1.5"/><feOffset dy="1" in="shadowBlurInner1" result="shadowOffsetInner1"/><feComposite in="shadowOffsetInner1" in2="SourceAlpha" k2="-1" k3="1" operator="arithmetic" result="shadowInnerInner1"/><feColorMatrix in="shadowInnerInner1" values="0 0 0 0 1 0 0 0 0 1 0 0 0 0 1 0 0 0 1 0"/></filter><filter id="j" width="225.4%" height="225.5%" x="-62.7%" y="-57.7%" filterUnits="objectBoundingBox"><feMorphology in="SourceAlpha" operator="dilate" radius="4" result="shadowSpreadOuter1"/><feOffset dy="4" in="shadowSpreadOuter1" result="shadowOffsetOuter1"/><feGaussianBlur in="shadowOffsetOuter1" result="shadowBlurOuter1" stdDeviation="12"/><feColorMatrix in="shadowBlurOuter1" result="shadowMatrixOuter1" values="0 0 0 0 0 0 0 0 0 0 0 0 0 0 0 0 0 0 0.1 0"/><feMorphology in="SourceAlpha" radius="1" result="shadowSpreadOuter2"/><feOffset dy="2" in="shadowSpreadOuter2" result="shadowOffsetOuter2"/><feGaussianBlur in="shadowOffsetOuter2" result="shadowBlurOuter2" stdDeviation="4"/><feColorMatrix in="shadowBlurOuter2" result="shadowMatrixOuter2" values="0 0 0 0 0.109803922 0 0 0 0 0.541176471 0 0 0 0 0.956862745 0 0 0 0.4 0"/><feMorphology in="SourceAlpha" radius="1" result="shadowSpreadOuter3"/><feOffset dy="-2" in="shadowSpreadOuter3" result="shadowOffsetOuter3"/><feGaussianBlur in="shadowOffsetOuter3" result="shadowBlurOuter3" stdDeviation="4"/><feColorMatrix in="shadowBlurOuter3" result="shadowMatrixOuter3" values="0 0 0 0 1 0 0 0 0 1 0 0 0 0 1 0 0 0 0.5 0"/><feMerge><feMergeNode in="shadowMatrixOuter1"/><feMergeNode in="shadowMatrixOuter2"/><feMergeNode in="shadowMatrixOuter3"/></feMerge></filter><filter id="k" width="185.3%" height="185.3%" x="-42.6%" y="-37.6%" filterUnits="objectBoundingBox"><feGaussianBlur in="SourceAlpha" result="shadowBlurInner1" stdDeviation="1.5"/><feOffset dy="1" in="shadowBlurInner1" result="shadowOffsetInner1"/><feComposite in="shadowOffsetInner1" in2="SourceAlpha" k2="-1" k3="1" operator="arithmetic" result="shadowInnerInner1"/><feColorMatrix in="shadowInnerInner1" values="0 0 0 0 1 0 0 0 0 1 0 0 0 0 1 0 0 0 1 0"/></filter><path id="a" d="M166.374834,50 L347.625166,50 C387.743509,50 402.29139,54.1771525 416.958057,62.0209717 C431.624723,69.8647908 443.135209,81.3752767 450.979028,96.0419433 C458.822847,110.70861 463,125.256491 463,165.374834 L463,346.625166 C463,386.743509 458.822847,401.29139 450.979028,415.958057 C443.135209,430.624723 431.624723,442.135209 416.958057,449.979028 C402.29139,457.822847 387.743509,462 347.625166,462 L166.374834,462 C126.256491,462 111.70861,457.822847 97.0419433,449.979028 C82.3752767,442.135209 70.8647908,430.624723 63.0209717,415.958057 C55.1771525,401.29139 51,386.743509 51,346.625166 L51,165.374834 C51,125.256491 55.1771525,110.70861 63.0209717,96.0419433 C70.8647908,81.3752767 82.3752767,69.8647908 97.0419433,62.0209717 C111.70861,54.1771525 126.256491,50 166.374834,50 Z"/><path id="e" d="M167.08897,354.186205 L346.669867,354.186205 C357.35788,354.186205 365.652224,351.124534 371.552898,345.001193 C377.453573,338.877852 380.40391,329.878396 380.40391,318.002825 L380.40391,228.490711 C377.21235,229.826712 373.890901,230.791602 370.439564,231.385381 C366.988226,231.97916 363.481221,232.201826 359.91855,232.053382 L359.91855,317.334824 C359.91855,322.678831 358.526882,326.705392 355.743545,329.414507 C352.960208,332.123621 349.00787,333.478179 343.88653,333.478179 L167.08897,333.478179 C161.893407,333.478179 157.922513,332.123621 155.176288,329.414507 C152.430062,326.705392 151.056949,322.64172 151.056949,317.223491 L151.056949,195.647335 C151.056949,190.303328 152.430062,186.276768 155.176288,183.567653 C157.922513,180.858538 161.893407,179.503981 167.08897,179.503981 L307.146483,179.503981 C306.849593,175.94131 306.998038,172.397194 307.591816,168.871634 C308.185595,165.346074 309.113374,161.987514 310.375153,158.795955 L164.305633,158.795955 C153.617619,158.795955 145.323275,161.857625 139.422601,167.980966 C133.521927,174.104308 130.57159,183.066652 130.57159,194.868001 L130.57159,318.002825 C130.57159,329.878396 133.651816,338.877852 139.812268,345.001193 C145.97272,351.124534 155.064954,354.186205 167.08897,354.186205 Z M255.710417,286.829452 C259.866866,286.829452 263.911983,285.920229 267.845765,284.101782 C271.779548,282.283335 275.750442,279.40722 279.758447,275.473438 L332.196515,223.926038 C329.524511,222.218925 327.019508,220.289145 324.681505,218.136697 C322.343502,215.98425 320.246722,213.646247 318.391164,211.122688 L268.402433,260.443418 C266.027319,262.74431 263.819205,264.414312 261.778091,265.453425 C259.736977,266.492537 257.714419,267.012093 255.710417,267.012093 C253.557969,267.012093 251.461189,266.492537 249.420075,265.453425 C247.378961,264.414312 245.207959,262.74431 242.907067,260.443418 L155.064954,173.603307 L141.816271,187.185991 L231.551052,275.473438 C235.484835,279.40722 239.455729,282.283335 243.463734,284.101782 C247.471739,285.920229 251.553967,286.829452 255.710417,286.829452 Z M355.910545,338.822185 L369.381896,325.350835 L291.893796,248.64207 L278.533779,262.11342 L355.910545,338.822185 Z M156.734956,337.486184 L230.771718,264.006089 L217.411701,250.646072 L143.263606,324.126167 L156.734956,337.486184 Z"/><path id="i" d="M149.381386,218.935873 C154.834154,218.935873 159.965415,217.900619 164.775168,215.83011 C169.584921,213.759602 173.828821,210.885324 177.506868,207.207277 C181.184914,203.529231 184.065622,199.285331 186.148991,194.475578 C188.23236,189.665825 189.274044,184.534564 189.274044,179.081796 C189.274044,173.629028 188.23236,168.497767 186.148991,163.688014 C184.065622,158.878261 181.184914,154.640791 177.506868,150.975605 C173.828821,147.310418 169.584921,144.436141 164.775168,142.352772 C159.965415,140.269403 154.821294,139.227718 149.342805,139.227718 C143.890037,139.227718 138.765206,140.269403 133.968313,142.352772 C129.171421,144.436141 124.940381,147.310418 121.275195,150.975605 C117.610009,154.640791 114.735731,158.878261 112.652362,163.688014 C110.568993,168.497767 109.527309,173.629028 109.527309,179.081796 C109.527309,184.534564 110.568993,189.665825 112.652362,194.475578 C114.735731,199.285331 117.610009,203.529231 121.275195,207.207277 C124.940381,210.885324 129.177851,213.759602 133.987604,215.83011 C138.797357,217.900619 143.928618,218.935873 149.381386,218.935873 Z M132.058559,181.782459 C132.058559,181.190885 132.290044,180.637892 132.753015,180.12348 L154.319742,153.271169 C154.937037,152.525271 155.599342,152.165183 156.306659,152.190903 C157.013976,152.216624 157.560538,152.512411 157.946348,153.078264 C158.332157,153.644117 158.357877,154.377155 158.023509,155.277376 L150.963203,173.989116 L164.157874,173.989116 C164.698006,173.989116 165.160977,174.16916 165.546786,174.529249 C165.932595,174.889337 166.1255,175.352308 166.1255,175.918161 C166.1255,176.458294 165.894014,176.998427 165.431044,177.53856 L143.825735,204.390871 C143.259882,205.136769 142.616867,205.496857 141.89669,205.471137 C141.176513,205.445416 140.61709,205.149629 140.218421,204.583776 C139.819751,204.017922 139.800461,203.284885 140.160549,202.384664 L147.182274,183.634343 L134.026185,183.634343 C133.460332,183.634343 132.99093,183.460729 132.617982,183.113501 C132.245033,182.766272 132.058559,182.322592 132.058559,181.782459 Z"/><linearGradient id="c" x1="0%" x2="0%" y1="100%" y2="0%"><stop offset="0%" stop-color="#F5FCFF"/><stop offset="100%" stop-color="#C5F1FE"/></linearGradient><linearGradient id="g" x1="50%" x2="50%" y1="0%" y2="97.929%"><stop offset="0%" stop-color="#2374F1"/><stop offset="100%" stop-color="#1BB5FA"/></linearGradient></defs><g fill="none" fill-rule="evenodd"><g fill-rule="nonzero"><use xlink:href="#a" fill="#000" filter="url(#b)"/><use xlink:href="#a" fill="url(#c)"/><use xlink:href="#a" fill="#000" filter="url(#d)"/></g><g fill-rule="nonzero" transform="matrix(-1 0 0 1 510.975 0)"><use xlink:href="#e" fill="#000" filter="url(#f)"/><use xlink:href="#e" fill="url(#g)"/><use xlink:href="#e" fill="#000" filter="url(#h)"/></g><g fill-rule="nonzero"><use xlink:href="#i" fill="#000" filter="url(#j)"/><use xlink:href="#i" fill="#F5FCFF"/><use xlink:href="#i" fill="#1C73F1"/><use xlink:href="#i" fill="#000" filter="url(#k)"/></g><path fill="#FFF" fill-rule="nonzero" d="M132.058559,181.782459 C132.058559,181.190885 132.290044,180.637892 132.753015,180.12348 L154.319742,153.271169 C154.937037,152.525271 155.599342,152.165183 156.306659,152.190903 C157.013976,152.216624 157.560538,152.512411 157.946348,153.078264 C158.332157,153.644117 158.357877,154.377155 158.023509,155.277376 L150.963203,173.989116 L164.157874,173.989116 C164.698006,173.989116 165.160977,174.16916 165.546786,174.529249 C165.932595,174.889337 166.1255,175.352308 166.1255,175.918161 C166.1255,176.458294 165.894014,176.998427 165.431044,177.53856 L143.825735,204.390871 C143.259882,205.136769 142.616867,205.496857 141.89669,205.471137 C141.176513,205.445416 140.61709,205.149629 140.218421,204.583776 C139.819751,204.017922 139.800461,203.284885 140.160549,202.384664 L147.182274,183.634343 L134.026185,183.634343 C133.460332,183.634343 132.99093,183.460729 132.617982,183.113501 C132.245033,182.766272 132.058559,182.322592 132.058559,181.782459 Z"/></g></svg>