<svg xmlns="http://www.w3.org/2000/svg" xmlns:xlink="http://www.w3.org/1999/xlink" width="512" height="512" viewBox="0 0 512 512"><defs><filter id="b" width="129.1%" height="129.1%" x="-14.6%" y="-14.6%" filterUnits="objectBoundingBox"><feOffset in="SourceAlpha" result="shadowOffsetOuter1"/><feGaussianBlur in="shadowOffsetOuter1" result="shadowBlurOuter1" stdDeviation="20"/><feColorMatrix in="shadowBlurOuter1" values="0 0 0 0 1 0 0 0 0 1 0 0 0 0 1 0 0 0 0.5 0"/></filter><filter id="d" width="120.4%" height="120.4%" x="-10.2%" y="-10.2%" filterUnits="objectBoundingBox"><feMorphology in="SourceAlpha" operator="dilate" radius="1" result="shadowSpreadInner1"/><feGaussianBlur in="shadowSpreadInner1" result="shadowBlurInner1" stdDeviation="1.5"/><feOffset dx="-1" dy="-2" in="shadowBlurInner1" result="shadowOffsetInner1"/><feComposite in="shadowOffsetInner1" in2="SourceAlpha" k2="-1" k3="1" operator="arithmetic" result="shadowInnerInner1"/><feColorMatrix in="shadowInnerInner1" result="shadowMatrixInner1" values="0 0 0 0 0 0 0 0 0 0 0 0 0 0 0 0 0 0 0.2 0"/><feMorphology in="SourceAlpha" operator="dilate" radius="1" result="shadowSpreadInner2"/><feGaussianBlur in="shadowSpreadInner2" result="shadowBlurInner2" stdDeviation="1.5"/><feOffset dx="2" dy="2" in="shadowBlurInner2" result="shadowOffsetInner2"/><feComposite in="shadowOffsetInner2" in2="SourceAlpha" k2="-1" k3="1" operator="arithmetic" result="shadowInnerInner2"/><feColorMatrix in="shadowInnerInner2" result="shadowMatrixInner2" values="0 0 0 0 1 0 0 0 0 1 0 0 0 0 1 0 0 0 0.5 0"/><feMerge><feMergeNode in="shadowMatrixInner1"/><feMergeNode in="shadowMatrixInner2"/></feMerge></filter><filter id="f" width="144.3%" height="148.1%" x="-22.1%" y="-22.1%" filterUnits="objectBoundingBox"><feMorphology in="SourceAlpha" operator="dilate" radius="4" result="shadowSpreadOuter1"/><feOffset dy="4" in="shadowSpreadOuter1" result="shadowOffsetOuter1"/><feGaussianBlur in="shadowOffsetOuter1" result="shadowBlurOuter1" stdDeviation="12"/><feColorMatrix in="shadowBlurOuter1" result="shadowMatrixOuter1" values="0 0 0 0 0 0 0 0 0 0 0 0 0 0 0 0 0 0 0.1 0"/><feMorphology in="SourceAlpha" radius="1" result="shadowSpreadOuter2"/><feOffset dy="2" in="shadowSpreadOuter2" result="shadowOffsetOuter2"/><feGaussianBlur in="shadowOffsetOuter2" result="shadowBlurOuter2" stdDeviation="4"/><feColorMatrix in="shadowBlurOuter2" result="shadowMatrixOuter2" values="0 0 0 0 0.109803922 0 0 0 0 0.541176471 0 0 0 0 0.956862745 0 0 0 0.4 0"/><feMorphology in="SourceAlpha" radius="1" result="shadowSpreadOuter3"/><feOffset dy="-2" in="shadowSpreadOuter3" result="shadowOffsetOuter3"/><feGaussianBlur in="shadowOffsetOuter3" result="shadowBlurOuter3" stdDeviation="4"/><feColorMatrix in="shadowBlurOuter3" result="shadowMatrixOuter3" values="0 0 0 0 1 0 0 0 0 1 0 0 0 0 1 0 0 0 0.5 0"/><feMerge><feMergeNode in="shadowMatrixOuter1"/><feMergeNode in="shadowMatrixOuter2"/><feMergeNode in="shadowMatrixOuter3"/></feMerge></filter><filter id="g" width="130.1%" height="132.7%" x="-15.1%" y="-14.4%" filterUnits="objectBoundingBox"><feGaussianBlur in="SourceAlpha" result="shadowBlurInner1" stdDeviation="1.5"/><feOffset dy="1" in="shadowBlurInner1" result="shadowOffsetInner1"/><feComposite in="shadowOffsetInner1" in2="SourceAlpha" k2="-1" k3="1" operator="arithmetic" result="shadowInnerInner1"/><feColorMatrix in="shadowInnerInner1" values="0 0 0 0 1 0 0 0 0 1 0 0 0 0 1 0 0 0 1 0"/></filter><path id="a" d="M166.374834,50 L347.625166,50 C387.743509,50 402.29139,54.1771525 416.958057,62.0209717 C431.624723,69.8647908 443.135209,81.3752767 450.979028,96.0419433 C458.822847,110.70861 463,125.256491 463,165.374834 L463,346.625166 C463,386.743509 458.822847,401.29139 450.979028,415.958057 C443.135209,430.624723 431.624723,442.135209 416.958057,449.979028 C402.29139,457.822847 387.743509,462 347.625166,462 L166.374834,462 C126.256491,462 111.70861,457.822847 97.0419433,449.979028 C82.3752767,442.135209 70.8647908,430.624723 63.0209717,415.958057 C55.1771525,401.29139 51,386.743509 51,346.625166 L51,165.374834 C51,125.256491 55.1771525,110.70861 63.0209717,96.0419433 C70.8647908,81.3752767 82.3752767,69.8647908 97.0419433,62.0209717 C111.70861,54.1771525 126.256491,50 166.374834,50 Z"/><path id="e" d="M195.528673,360.699332 L317.600611,360.699332 C329.088834,360.699332 337.867362,357.710434 343.936196,351.732638 C350.005031,345.754842 353.039448,337.051985 353.039448,325.624068 L353.039448,207.781063 L331.155461,207.781063 L331.155461,325.269192 C331.155461,329.997386 329.899481,333.59195 327.387519,336.052883 C324.875557,338.513817 321.312886,339.744284 316.699505,339.744284 L196.428039,339.744284 C191.755512,339.744284 188.178344,338.513817 185.696535,336.052883 C183.214727,333.59195 181.973822,329.997386 181.973822,325.269192 L181.973822,207.781063 L160.089836,207.781063 L160.089836,325.624068 C160.089836,337.112291 163.124253,345.830224 169.193087,351.777867 C175.261921,357.72551 184.04045,360.699332 195.528673,360.699332 Z M220.707434,263.959239 L292.533183,263.959239 C295.194749,263.959239 297.376479,263.108002 299.078373,261.405527 C300.780268,259.703053 301.631215,257.484501 301.631215,254.749873 L301.631215,251.166327 C301.631215,248.430538 300.783457,246.233732 299.087941,244.575907 C297.392425,242.918082 295.207506,242.089169 292.533183,242.089169 L220.707434,242.089169 C218.031952,242.089169 215.861819,242.918082 214.197035,244.575907 C212.532252,246.233732 211.69986,248.430538 211.69986,251.166327 L211.69986,254.749873 C211.69986,257.484501 212.535731,259.703053 214.207473,261.405527 C215.879215,263.108002 218.045868,263.959239 220.707434,263.959239 Z M167.510908,218.540399 L345.658386,218.540399 C353.208188,218.540399 359.070301,216.291405 363.244726,211.793417 C367.419152,207.295428 369.506365,201.301686 369.506365,193.812191 L369.506365,177.543586 C369.506365,170.006542 367.419152,164.004392 363.244726,159.537136 C359.070301,155.069881 353.208188,152.836253 345.658386,152.836253 L167.510908,152.836253 C160.217405,152.836253 154.412698,155.069881 150.096787,159.537136 C145.780875,164.004392 143.622919,170.006542 143.622919,177.543586 L143.622919,193.812191 C143.622919,201.301686 145.7168,207.295428 149.904562,211.793417 C154.092325,216.291405 159.961107,218.540399 167.510908,218.540399 Z M171.790288,198.380342 C169.214542,198.380342 167.349996,197.773227 166.196651,196.558996 C165.043306,195.344766 164.466633,193.48051 164.466633,190.966229 L164.466633,180.410423 C164.466633,177.82076 165.043306,175.93418 166.196651,174.750682 C167.349996,173.567184 169.214542,172.975435 171.790288,172.975435 L341.429454,172.975435 C344.017957,172.975435 345.870616,173.567184 346.98743,174.750682 C348.104243,175.93418 348.66265,177.82076 348.66265,180.410423 L348.66265,190.966229 C348.66265,193.48051 348.104243,195.344766 346.98743,196.558996 C345.870616,197.773227 344.017957,198.380342 341.429454,198.380342 L171.790288,198.380342 Z"/><linearGradient id="c" x1="0%" x2="0%" y1="100%" y2="0%"><stop offset="0%" stop-color="#1BC9FC"/><stop offset="100%" stop-color="#1C70F1"/></linearGradient></defs><g fill="none" fill-rule="evenodd"><g fill-rule="nonzero"><use xlink:href="#a" fill="#000" filter="url(#b)"/><use xlink:href="#a" fill="url(#c)"/><use xlink:href="#a" fill="#000" filter="url(#d)"/></g><g fill-rule="nonzero"><use xlink:href="#e" fill="#000" filter="url(#f)"/><use xlink:href="#e" fill="#F5FCFF"/><use xlink:href="#e" fill="#000" filter="url(#g)"/></g></g></svg>