<svg xmlns="http://www.w3.org/2000/svg" xmlns:xlink="http://www.w3.org/1999/xlink" width="512" height="512" viewBox="0 0 512 512"><defs><filter id="b" width="129.1%" height="129.1%" x="-14.6%" y="-14.6%" filterUnits="objectBoundingBox"><feOffset in="SourceAlpha" result="shadowOffsetOuter1"/><feGaussianBlur in="shadowOffsetOuter1" result="shadowBlurOuter1" stdDeviation="20"/><feColorMatrix in="shadowBlurOuter1" values="0 0 0 0 1 0 0 0 0 1 0 0 0 0 1 0 0 0 0.5 0"/></filter><filter id="e" width="142.1%" height="138.3%" x="-21.1%" y="-17.6%" filterUnits="objectBoundingBox"><feMorphology in="SourceAlpha" operator="dilate" radius="4" result="shadowSpreadOuter1"/><feOffset dy="4" in="shadowSpreadOuter1" result="shadowOffsetOuter1"/><feGaussianBlur in="shadowOffsetOuter1" result="shadowBlurOuter1" stdDeviation="12"/><feColorMatrix in="shadowBlurOuter1" result="shadowMatrixOuter1" values="0 0 0 0 0 0 0 0 0 0 0 0 0 0 0 0 0 0 0.1 0"/><feMorphology in="SourceAlpha" radius="1" result="shadowSpreadOuter2"/><feOffset dy="2" in="shadowSpreadOuter2" result="shadowOffsetOuter2"/><feGaussianBlur in="shadowOffsetOuter2" result="shadowBlurOuter2" stdDeviation="4"/><feColorMatrix in="shadowBlurOuter2" result="shadowMatrixOuter2" values="0 0 0 0 0.109803922 0 0 0 0 0.541176471 0 0 0 0 0.956862745 0 0 0 0.4 0"/><feMorphology in="SourceAlpha" radius="1" result="shadowSpreadOuter3"/><feOffset dy="-2" in="shadowSpreadOuter3" result="shadowOffsetOuter3"/><feGaussianBlur in="shadowOffsetOuter3" result="shadowBlurOuter3" stdDeviation="4"/><feColorMatrix in="shadowBlurOuter3" result="shadowMatrixOuter3" values="0 0 0 0 1 0 0 0 0 1 0 0 0 0 1 0 0 0 0.5 0"/><feMerge><feMergeNode in="shadowMatrixOuter1"/><feMergeNode in="shadowMatrixOuter2"/><feMergeNode in="shadowMatrixOuter3"/></feMerge></filter><filter id="f" width="128.7%" height="126%" x="-14.3%" y="-11.5%" filterUnits="objectBoundingBox"><feGaussianBlur in="SourceAlpha" result="shadowBlurInner1" stdDeviation="1.5"/><feOffset dy="1" in="shadowBlurInner1" result="shadowOffsetInner1"/><feComposite in="shadowOffsetInner1" in2="SourceAlpha" k2="-1" k3="1" operator="arithmetic" result="shadowInnerInner1"/><feColorMatrix in="shadowInnerInner1" values="0 0 0 0 1 0 0 0 0 1 0 0 0 0 1 0 0 0 1 0"/></filter><path id="a" d="M166.374834,50 L347.625166,50 C387.743509,50 402.29139,54.1771525 416.958057,62.0209717 C431.624723,69.8647908 443.135209,81.3752767 450.979028,96.0419433 C458.822847,110.70861 463,125.256491 463,165.374834 L463,346.625166 C463,386.743509 458.822847,401.29139 450.979028,415.958057 C443.135209,430.624723 431.624723,442.135209 416.958057,449.979028 C402.29139,457.822847 387.743509,462 347.625166,462 L166.374834,462 C126.256491,462 111.70861,457.822847 97.0419433,449.979028 C82.3752767,442.135209 70.8647908,430.624723 63.0209717,415.958057 C55.1771525,401.29139 51,386.743509 51,346.625166 L51,165.374834 C51,125.256491 55.1771525,110.70861 63.0209717,96.0419433 C70.8647908,81.3752767 82.3752767,69.8647908 97.0419433,62.0209717 C111.70861,54.1771525 126.256491,50 166.374834,50 Z"/><path id="d" d="M175.428001,282.59878 C183.295566,282.59878 190.680687,284.083226 197.583362,287.052119 C204.486038,290.021012 210.572268,294.14035 215.842052,299.410135 C221.111837,304.679919 225.249731,310.784705 228.255735,317.724492 C231.261739,324.664278 232.764741,332.067954 232.764741,339.93552 C232.764741,347.728863 231.261739,355.095428 228.255735,362.035215 C225.249731,368.975002 221.093281,375.079787 215.786386,380.349572 C210.47949,385.619356 204.356149,389.757251 197.416362,392.763254 C190.476575,395.769258 183.147122,397.27226 175.428001,397.27226 C167.560435,397.27226 160.175314,395.787814 153.272639,392.818921 C146.369963,389.850029 140.283733,385.712134 135.013949,380.405239 C129.744164,375.098343 125.60627,368.993557 122.600266,362.090882 C119.594262,355.188206 118.09126,347.803086 118.09126,339.93552 C118.09126,332.067954 119.594262,324.682834 122.600266,317.780158 C125.60627,310.877483 129.744164,304.772697 135.013949,299.465802 C140.283733,294.158906 146.369963,290.021012 153.272639,287.052119 C160.175314,284.083226 167.560435,282.59878 175.428001,282.59878 Z M188.008367,298.943281 C185.094415,299.742149 182.431665,301.359856 180.020118,303.796402 L145.052689,338.786811 C141.877486,341.902395 139.787479,345.37747 138.782667,349.212035 C137.777856,353.0466 137.797952,356.851208 138.842956,360.625858 C139.88796,364.400508 141.877486,367.745767 144.811534,370.661634 C147.745583,373.577502 151.111701,375.544714 154.909887,376.56327 C158.708073,377.581827 162.536404,377.601798 166.394879,376.623185 C170.253354,375.644572 173.750097,373.597474 176.885107,370.481889 L202.447504,344.958064 C203.291545,344.07931 203.713566,342.960895 203.713566,341.602819 C203.713566,340.244744 203.271449,339.126329 202.387215,338.247575 C201.462789,337.328877 200.357497,336.8895 199.071338,336.929443 C197.78518,336.969386 196.679888,337.428735 195.755461,338.30749 L170.373931,363.471825 C167.439882,366.347749 164.214438,367.765739 160.697599,367.725795 C157.18076,367.685852 154.136182,366.387692 151.563866,363.831315 C149.031741,361.274938 147.745583,358.259212 147.705391,354.784138 C147.665198,351.309063 149.132223,348.09362 152.106464,345.137809 L186.712161,310.686637 C188.239474,309.168788 190.06823,308.240104 192.19843,307.900586 C194.32863,307.561067 196.237771,308.170203 197.925854,309.727996 C199.573744,311.285788 200.206775,313.133169 199.824947,315.270141 C199.443118,317.407112 198.468452,319.234522 196.900946,320.752371 L162.958424,354.484562 C162.636885,354.844053 162.275153,355.023798 161.873228,355.023798 C161.471304,355.023798 161.149764,354.864024 160.90861,354.544477 C160.627262,354.264874 160.486589,353.945326 160.486589,353.585836 C160.486589,353.226345 160.647359,352.866855 160.968898,352.507365 L184.300614,329.320228 C185.22504,328.40153 185.70735,327.323058 185.747542,326.084813 C185.787734,324.846568 185.365714,323.748125 184.48148,322.789484 C183.597246,321.870786 182.502002,321.441394 181.195747,321.501309 C179.889493,321.561224 178.774152,322.050531 177.849726,322.969229 L154.51801,346.276196 C152.307426,348.433139 151.212182,350.969544 151.232278,353.885411 C151.252374,356.801279 152.247137,359.257797 154.216567,361.254967 C156.346767,363.41191 158.848747,364.460423 161.722507,364.400508 C164.596267,364.340593 167.118343,363.232164 169.288735,361.075221 L203.5327,327.2232 C206.024632,324.786653 207.68257,322.140404 208.506515,319.284451 C209.33046,316.428499 209.370653,313.61249 208.627093,310.836425 C207.883532,308.060359 206.40646,305.553912 204.195875,303.317082 C202.025483,301.120195 199.513455,299.64229 196.659791,298.883366 C193.806128,298.124441 190.92232,298.144413 188.008367,298.943281 Z M254.252102,135.861259 C258.928108,135.861259 263.010335,136.176703 266.498784,136.807593 C269.987233,137.438483 273.215904,138.588929 276.184796,140.258931 C279.153689,141.928933 282.196804,144.359714 285.314141,147.551274 L343.652883,206.892016 C346.918665,210.157798 349.386557,213.293691 351.056559,216.299695 C352.726561,219.305699 353.858452,222.608592 354.45223,226.208374 C355.046009,229.808157 355.342898,234.205829 355.342898,239.401391 L355.342898,340.380854 C355.342898,352.330647 352.299783,361.404325 346.213553,367.601889 C340.127323,373.799452 331.109311,376.898234 319.159518,376.898234 L238.108748,376.898234 C240.186972,373.55823 241.912641,370.051225 243.285754,366.377221 C244.658867,362.703216 245.679424,358.899322 246.347425,354.965539 L317.378183,354.965539 C322.796412,354.965539 326.841528,353.592427 329.513531,350.846201 C332.185535,348.099975 333.521537,344.166192 333.521537,339.044852 L333.521537,242.407395 L273.512793,242.407395 C265.571005,242.407395 259.651775,240.440504 255.755104,236.506721 C251.858432,232.572938 249.910096,226.635153 249.910096,218.693365 L249.910096,157.68262 L202.482035,157.68262 C197.063806,157.68262 193.01869,159.092844 190.346686,161.913292 C187.674683,164.73374 186.338681,168.704634 186.338681,173.825974 L186.338681,267.680094 C184.483123,267.383205 182.627565,267.141982 180.772007,266.956427 C178.91645,266.770871 177.060892,266.678093 175.205334,266.678093 C173.349776,266.678093 171.531329,266.770871 169.749993,266.956427 C167.968658,267.141982 166.187322,267.383205 164.405986,267.680094 L164.405986,172.378639 C164.405986,160.428846 167.449101,151.355167 173.535331,145.157604 C179.621562,138.96004 188.639573,135.861259 200.589366,135.861259 Z M269.170787,160.688624 L269.170787,216.578029 C269.170787,218.878921 269.671788,220.548923 270.673789,221.588035 C271.675791,222.627148 273.327237,223.146704 275.628129,223.146704 L330.515533,223.146704 L269.170787,160.688624 Z"/><linearGradient id="c" x1="0%" x2="0%" y1="100%" y2="0%"><stop offset="0%" stop-color="#1BC9FC"/><stop offset="100%" stop-color="#1C70F1"/></linearGradient></defs><g fill="none" fill-rule="evenodd"><g fill-rule="nonzero"><use xlink:href="#a" fill="#000" filter="url(#b)"/><use xlink:href="#a" fill="url(#c)"/></g><g fill-rule="nonzero"><use xlink:href="#d" fill="#000" filter="url(#e)"/><use xlink:href="#d" fill="#F5FCFF"/><use xlink:href="#d" fill="#000" filter="url(#f)"/></g></g></svg>