<svg xmlns="http://www.w3.org/2000/svg" xmlns:xlink="http://www.w3.org/1999/xlink" width="512" height="512" viewBox="0 0 512 512"><defs><filter id="b" width="129.1%" height="129.1%" x="-14.6%" y="-14.6%" filterUnits="objectBoundingBox"><feOffset in="SourceAlpha" result="shadowOffsetOuter1"/><feGaussianBlur in="shadowOffsetOuter1" result="shadowBlurOuter1" stdDeviation="20"/><feColorMatrix in="shadowBlurOuter1" values="0 0 0 0 1 0 0 0 0 1 0 0 0 0 1 0 0 0 0.5 0"/></filter><filter id="d" width="120.4%" height="120.4%" x="-10.2%" y="-10.2%" filterUnits="objectBoundingBox"><feMorphology in="SourceAlpha" operator="dilate" radius="1" result="shadowSpreadInner1"/><feGaussianBlur in="shadowSpreadInner1" result="shadowBlurInner1" stdDeviation="1.5"/><feOffset dx="-1" dy="-2" in="shadowBlurInner1" result="shadowOffsetInner1"/><feComposite in="shadowOffsetInner1" in2="SourceAlpha" k2="-1" k3="1" operator="arithmetic" result="shadowInnerInner1"/><feColorMatrix in="shadowInnerInner1" result="shadowMatrixInner1" values="0 0 0 0 0 0 0 0 0 0 0 0 0 0 0 0 0 0 0.2 0"/><feMorphology in="SourceAlpha" operator="dilate" radius="1" result="shadowSpreadInner2"/><feGaussianBlur in="shadowSpreadInner2" result="shadowBlurInner2" stdDeviation="1.5"/><feOffset dx="2" dy="2" in="shadowBlurInner2" result="shadowOffsetInner2"/><feComposite in="shadowOffsetInner2" in2="SourceAlpha" k2="-1" k3="1" operator="arithmetic" result="shadowInnerInner2"/><feColorMatrix in="shadowInnerInner2" result="shadowMatrixInner2" values="0 0 0 0 1 0 0 0 0 1 0 0 0 0 1 0 0 0 0.5 0"/><feMerge><feMergeNode in="shadowMatrixInner1"/><feMergeNode in="shadowMatrixInner2"/></feMerge></filter><filter id="f" width="311.5%" height="257.2%" x="-105.8%" y="-72.3%" filterUnits="objectBoundingBox"><feMorphology in="SourceAlpha" operator="dilate" radius="4" result="shadowSpreadOuter1"/><feOffset dy="4" in="shadowSpreadOuter1" result="shadowOffsetOuter1"/><feGaussianBlur in="shadowOffsetOuter1" result="shadowBlurOuter1" stdDeviation="12"/><feColorMatrix in="shadowBlurOuter1" result="shadowMatrixOuter1" values="0 0 0 0 0 0 0 0 0 0 0 0 0 0 0 0 0 0 0.1 0"/><feMorphology in="SourceAlpha" radius="1" result="shadowSpreadOuter2"/><feOffset dy="2" in="shadowSpreadOuter2" result="shadowOffsetOuter2"/><feGaussianBlur in="shadowOffsetOuter2" result="shadowBlurOuter2" stdDeviation="4"/><feColorMatrix in="shadowBlurOuter2" result="shadowMatrixOuter2" values="0 0 0 0 0.109803922 0 0 0 0 0.541176471 0 0 0 0 0.956862745 0 0 0 0.4 0"/><feMorphology in="SourceAlpha" radius="1" result="shadowSpreadOuter3"/><feOffset dy="-2" in="shadowSpreadOuter3" result="shadowOffsetOuter3"/><feGaussianBlur in="shadowOffsetOuter3" result="shadowBlurOuter3" stdDeviation="4"/><feColorMatrix in="shadowBlurOuter3" result="shadowMatrixOuter3" values="0 0 0 0 1 0 0 0 0 1 0 0 0 0 1 0 0 0 0.5 0"/><feMerge><feMergeNode in="shadowMatrixOuter1"/><feMergeNode in="shadowMatrixOuter2"/><feMergeNode in="shadowMatrixOuter3"/></feMerge></filter><filter id="g" width="243.8%" height="206.9%" x="-71.9%" y="-47.2%" filterUnits="objectBoundingBox"><feGaussianBlur in="SourceAlpha" result="shadowBlurInner1" stdDeviation="1.5"/><feOffset dy="1" in="shadowBlurInner1" result="shadowOffsetInner1"/><feComposite in="shadowOffsetInner1" in2="SourceAlpha" k2="-1" k3="1" operator="arithmetic" result="shadowInnerInner1"/><feColorMatrix in="shadowInnerInner1" values="0 0 0 0 1 0 0 0 0 1 0 0 0 0 1 0 0 0 1 0"/></filter><filter id="i" width="338.4%" height="307.5%" x="-119%" y="-95.4%" filterUnits="objectBoundingBox"><feMorphology in="SourceAlpha" operator="dilate" radius="4" result="shadowSpreadOuter1"/><feOffset dy="4" in="shadowSpreadOuter1" result="shadowOffsetOuter1"/><feGaussianBlur in="shadowOffsetOuter1" result="shadowBlurOuter1" stdDeviation="12"/><feColorMatrix in="shadowBlurOuter1" result="shadowMatrixOuter1" values="0 0 0 0 0 0 0 0 0 0 0 0 0 0 0 0 0 0 0.1 0"/><feMorphology in="SourceAlpha" radius="1" result="shadowSpreadOuter2"/><feOffset dy="2" in="shadowSpreadOuter2" result="shadowOffsetOuter2"/><feGaussianBlur in="shadowOffsetOuter2" result="shadowBlurOuter2" stdDeviation="4"/><feColorMatrix in="shadowBlurOuter2" result="shadowMatrixOuter2" values="0 0 0 0 0.109803922 0 0 0 0 0.541176471 0 0 0 0 0.956862745 0 0 0 0.4 0"/><feMorphology in="SourceAlpha" radius="1" result="shadowSpreadOuter3"/><feOffset dy="-2" in="shadowSpreadOuter3" result="shadowOffsetOuter3"/><feGaussianBlur in="shadowOffsetOuter3" result="shadowBlurOuter3" stdDeviation="4"/><feColorMatrix in="shadowBlurOuter3" result="shadowMatrixOuter3" values="0 0 0 0 1 0 0 0 0 1 0 0 0 0 1 0 0 0 0.5 0"/><feMerge><feMergeNode in="shadowMatrixOuter1"/><feMergeNode in="shadowMatrixOuter2"/><feMergeNode in="shadowMatrixOuter3"/></feMerge></filter><filter id="j" width="262.3%" height="241.1%" x="-80.9%" y="-62.2%" filterUnits="objectBoundingBox"><feGaussianBlur in="SourceAlpha" result="shadowBlurInner1" stdDeviation="1.5"/><feOffset dy="1" in="shadowBlurInner1" result="shadowOffsetInner1"/><feComposite in="shadowOffsetInner1" in2="SourceAlpha" k2="-1" k3="1" operator="arithmetic" result="shadowInnerInner1"/><feColorMatrix in="shadowInnerInner1" values="0 0 0 0 1 0 0 0 0 1 0 0 0 0 1 0 0 0 1 0"/></filter><filter id="l" width="338.4%" height="307.5%" x="-119%" y="-95.4%" filterUnits="objectBoundingBox"><feMorphology in="SourceAlpha" operator="dilate" radius="4" result="shadowSpreadOuter1"/><feOffset dy="4" in="shadowSpreadOuter1" result="shadowOffsetOuter1"/><feGaussianBlur in="shadowOffsetOuter1" result="shadowBlurOuter1" stdDeviation="12"/><feColorMatrix in="shadowBlurOuter1" result="shadowMatrixOuter1" values="0 0 0 0 0 0 0 0 0 0 0 0 0 0 0 0 0 0 0.1 0"/><feMorphology in="SourceAlpha" radius="1" result="shadowSpreadOuter2"/><feOffset dy="2" in="shadowSpreadOuter2" result="shadowOffsetOuter2"/><feGaussianBlur in="shadowOffsetOuter2" result="shadowBlurOuter2" stdDeviation="4"/><feColorMatrix in="shadowBlurOuter2" result="shadowMatrixOuter2" values="0 0 0 0 0.109803922 0 0 0 0 0.541176471 0 0 0 0 0.956862745 0 0 0 0.4 0"/><feMorphology in="SourceAlpha" radius="1" result="shadowSpreadOuter3"/><feOffset dy="-2" in="shadowSpreadOuter3" result="shadowOffsetOuter3"/><feGaussianBlur in="shadowOffsetOuter3" result="shadowBlurOuter3" stdDeviation="4"/><feColorMatrix in="shadowBlurOuter3" result="shadowMatrixOuter3" values="0 0 0 0 1 0 0 0 0 1 0 0 0 0 1 0 0 0 0.5 0"/><feMerge><feMergeNode in="shadowMatrixOuter1"/><feMergeNode in="shadowMatrixOuter2"/><feMergeNode in="shadowMatrixOuter3"/></feMerge></filter><filter id="m" width="262.3%" height="241.1%" x="-80.9%" y="-62.2%" filterUnits="objectBoundingBox"><feGaussianBlur in="SourceAlpha" result="shadowBlurInner1" stdDeviation="1.5"/><feOffset dy="1" in="shadowBlurInner1" result="shadowOffsetInner1"/><feComposite in="shadowOffsetInner1" in2="SourceAlpha" k2="-1" k3="1" operator="arithmetic" result="shadowInnerInner1"/><feColorMatrix in="shadowInnerInner1" values="0 0 0 0 1 0 0 0 0 1 0 0 0 0 1 0 0 0 1 0"/></filter><filter id="o" width="961.7%" height="323.6%" x="-430.8%" y="-102.9%" filterUnits="objectBoundingBox"><feMorphology in="SourceAlpha" operator="dilate" radius="4" result="shadowSpreadOuter1"/><feOffset dy="4" in="shadowSpreadOuter1" result="shadowOffsetOuter1"/><feGaussianBlur in="shadowOffsetOuter1" result="shadowBlurOuter1" stdDeviation="12"/><feColorMatrix in="shadowBlurOuter1" result="shadowMatrixOuter1" values="0 0 0 0 0 0 0 0 0 0 0 0 0 0 0 0 0 0 0.1 0"/><feMorphology in="SourceAlpha" radius="1" result="shadowSpreadOuter2"/><feOffset dy="2" in="shadowSpreadOuter2" result="shadowOffsetOuter2"/><feGaussianBlur in="shadowOffsetOuter2" result="shadowBlurOuter2" stdDeviation="4"/><feColorMatrix in="shadowBlurOuter2" result="shadowMatrixOuter2" values="0 0 0 0 0.109803922 0 0 0 0 0.541176471 0 0 0 0 0.956862745 0 0 0 0.4 0"/><feMorphology in="SourceAlpha" radius="1" result="shadowSpreadOuter3"/><feOffset dy="-2" in="shadowSpreadOuter3" result="shadowOffsetOuter3"/><feGaussianBlur in="shadowOffsetOuter3" result="shadowBlurOuter3" stdDeviation="4"/><feColorMatrix in="shadowBlurOuter3" result="shadowMatrixOuter3" values="0 0 0 0 1 0 0 0 0 1 0 0 0 0 1 0 0 0 0.5 0"/><feMerge><feMergeNode in="shadowMatrixOuter1"/><feMergeNode in="shadowMatrixOuter2"/><feMergeNode in="shadowMatrixOuter3"/></feMerge></filter><filter id="p" width="685.9%" height="252%" x="-293%" y="-67.1%" filterUnits="objectBoundingBox"><feGaussianBlur in="SourceAlpha" result="shadowBlurInner1" stdDeviation="1.5"/><feOffset dy="1" in="shadowBlurInner1" result="shadowOffsetInner1"/><feComposite in="shadowOffsetInner1" in2="SourceAlpha" k2="-1" k3="1" operator="arithmetic" result="shadowInnerInner1"/><feColorMatrix in="shadowInnerInner1" values="0 0 0 0 1 0 0 0 0 1 0 0 0 0 1 0 0 0 1 0"/></filter><path id="a" d="M166.374834,50 L347.625166,50 C387.743509,50 402.29139,54.1771525 416.958057,62.0209717 C431.624723,69.8647908 443.135209,81.3752767 450.979028,96.0419433 C458.822847,110.70861 463,125.256491 463,165.374834 L463,346.625166 C463,386.743509 458.822847,401.29139 450.979028,415.958057 C443.135209,430.624723 431.624723,442.135209 416.958057,449.979028 C402.29139,457.822847 387.743509,462 347.625166,462 L166.374834,462 C126.256491,462 111.70861,457.822847 97.0419433,449.979028 C82.3752767,442.135209 70.8647908,430.624723 63.0209717,415.958057 C55.1771525,401.29139 51,386.743509 51,346.625166 L51,165.374834 C51,125.256491 55.1771525,110.70861 63.0209717,96.0419433 C70.8647908,81.3752767 82.3752767,69.8647908 97.0419433,62.0209717 C111.70861,54.1771525 126.256491,50 166.374834,50 Z"/><path id="e" d="M182.678329,288.383562 L203.274333,288.383562 C207.806212,288.383562 211.687726,287.661318 214.918877,286.21683 C218.150028,284.772343 220.637464,282.711824 222.381183,280.035273 C224.124902,277.358723 224.996762,274.159378 224.996762,270.437239 L224.996762,270.349054 C224.996762,267.5377 224.384634,265.022363 223.160379,262.803042 C221.936124,260.583721 220.204232,258.776734 217.964702,257.38208 C215.725172,255.987426 213.0957,255.140598 210.076285,254.841596 L210.076285,254.632846 C212.329134,254.309501 214.345675,253.475189 216.125909,252.12991 C217.906142,250.78463 219.309408,249.115317 220.335706,247.12197 C221.362004,245.128623 221.875153,243.005295 221.875153,240.751987 L221.875153,240.663802 C221.875153,237.456993 221.10009,234.661715 219.549964,232.277966 C217.999838,229.894217 215.824266,228.044974 213.023246,226.730238 C210.222226,225.415502 206.931941,224.758134 203.15239,224.758134 L182.678329,224.758134 L182.678329,232.827744 L200.745905,232.827744 C204.3275,232.827744 207.097058,233.608318 209.054579,235.169467 C211.012101,236.730616 211.990862,238.970605 211.990862,241.889434 L211.990862,241.977619 C211.990862,245.163759 210.844573,247.610087 208.551994,249.316604 C206.259416,251.02312 202.93675,251.876378 198.583997,251.876378 L182.678329,251.876378 L182.678329,259.519531 L200.581937,259.519531 C203.71985,259.519531 206.347027,259.904077 208.463465,260.673169 C210.579903,261.442261 212.172284,262.593258 213.240608,264.126161 C214.308932,265.659063 214.843093,267.565717 214.843093,269.846125 L214.843093,269.934309 C214.843093,273.320703 213.684748,275.897241 211.368056,277.663925 C209.051364,279.430609 205.684491,280.313951 201.267437,280.313951 L182.678329,280.313951 L182.678329,288.383562 Z M177.724127,288.383562 L187.63322,288.383562 L187.63322,224.758134 L177.724127,224.758134 L177.724127,288.383562 Z"/><path id="h" d="M252.265713,289.297791 C256.009439,289.297791 259.314881,288.572562 262.182039,287.122104 C265.049198,285.671645 267.356129,283.705282 269.102834,281.223014 C270.849539,278.740746 271.890764,275.947419 272.22651,272.843034 L272.263024,272.542654 L263.089724,272.542654 L263.009806,272.91124 C262.443953,275.409354 261.253686,277.431177 259.439006,278.97671 C257.624325,280.522242 255.246777,281.295009 252.30636,281.295009 C249.855095,281.295009 247.707539,280.659342 245.863693,279.38801 C244.019847,278.116677 242.585924,276.284428 241.561922,273.891264 C240.537921,271.498099 240.02592,268.611995 240.02592,265.23295 L240.02592,265.188858 C240.02592,261.887434 240.533213,259.035433 241.547799,256.632853 C242.562385,254.230273 243.98563,252.373911 245.817534,251.063768 C247.649438,249.753624 249.788497,249.098553 252.23471,249.098553 C255.351037,249.098553 257.796561,249.926664 259.571283,251.582887 C261.346005,253.239111 262.480238,255.205589 262.973981,257.482322 L263.053899,257.850907 L272.190685,257.850907 L272.154859,257.514702 C271.890764,254.607355 270.934623,251.90784 269.286438,249.416156 C267.638252,246.924472 265.370591,244.914821 262.483453,243.3872 C259.596315,241.85958 256.15848,241.09577 252.169949,241.09577 C247.759325,241.09577 243.911339,242.073842 240.625991,244.029986 C237.340643,245.98613 234.790514,248.762807 232.975603,252.360017 C231.160693,255.957227 230.253238,260.206639 230.253238,265.108251 L230.253238,265.152344 C230.253238,270.08381 231.148751,274.356761 232.939778,277.971195 C234.730805,281.585629 237.276226,284.377003 240.576042,286.345319 C243.875858,288.313634 247.772415,289.297791 252.265713,289.297791 Z"/><path id="k" d="M298.951679,289.297791 C302.695405,289.297791 306.000847,288.572562 308.868005,287.122104 C311.735164,285.671645 314.042095,283.705282 315.7888,281.223014 C317.535505,278.740746 318.57673,275.947419 318.912476,272.843034 L318.94899,272.542654 L309.77569,272.542654 L309.695773,272.91124 C309.129919,275.409354 307.939652,277.431177 306.124972,278.97671 C304.310291,280.522242 301.932743,281.295009 298.992326,281.295009 C296.541061,281.295009 294.393505,280.659342 292.549659,279.38801 C290.705813,278.116677 289.27189,276.284428 288.247888,273.891264 C287.223887,271.498099 286.711886,268.611995 286.711886,265.23295 L286.711886,265.188858 C286.711886,261.887434 287.219179,259.035433 288.233765,256.632853 C289.248351,254.230273 290.671596,252.373911 292.5035,251.063768 C294.335404,249.753624 296.474463,249.098553 298.920676,249.098553 C302.037003,249.098553 304.482527,249.926664 306.257249,251.582887 C308.031971,253.239111 309.166204,255.205589 309.659947,257.482322 L309.739865,257.850907 L318.876651,257.850907 L318.840825,257.514702 C318.57673,254.607355 317.620589,251.90784 315.972404,249.416156 C314.324218,246.924472 312.056557,244.914821 309.169419,243.3872 C306.282281,241.85958 302.844446,241.09577 298.855915,241.09577 C294.445291,241.09577 290.597305,242.073842 287.311957,244.029986 C284.026609,245.98613 281.47648,248.762807 279.661569,252.360017 C277.846659,255.957227 276.939204,260.206639 276.939204,265.108251 L276.939204,265.152344 C276.939204,270.08381 277.834718,274.356761 279.625744,277.971195 C281.416771,281.585629 283.962192,284.377003 287.262008,286.345319 C290.561824,288.313634 294.458381,289.297791 298.951679,289.297791 Z"/><path id="n" d="M331.125712,289.049082 C332.752081,289.049082 334.125722,288.488626 335.246635,287.367713 C336.367548,286.246799 336.928005,284.873158 336.928005,283.246789 C336.928005,281.62042 336.367548,280.246665 335.246635,279.125522 C334.125722,278.004379 332.752081,277.443808 331.125712,277.443808 C329.499343,277.443808 328.125587,278.004379 327.004444,279.125522 C325.883302,280.246665 325.32273,281.62042 325.32273,283.246789 C325.32273,284.873158 325.883302,286.246799 327.004444,287.367713 C328.125587,288.488626 329.499343,289.049082 331.125712,289.049082 Z M331.125712,255.932196 C332.752081,255.932196 334.125722,255.371739 335.246635,254.250826 C336.367548,253.129913 336.928005,251.756272 336.928005,250.129903 C336.928005,248.503075 336.367548,247.129204 335.246635,246.008291 C334.125722,244.887378 332.752081,244.326921 331.125712,244.326921 C329.499343,244.326921 328.125587,244.887378 327.004444,246.008291 C325.883302,247.129204 325.32273,248.503075 325.32273,250.129903 C325.32273,251.756272 325.883302,253.129913 327.004444,254.250826 C328.125587,255.371739 329.499343,255.932196 331.125712,255.932196 Z"/><linearGradient id="c" x1="0%" x2="0%" y1="100%" y2="0%"><stop offset="0%" stop-color="#1BC9FC"/><stop offset="100%" stop-color="#1C70F1"/></linearGradient></defs><g fill="none" fill-rule="evenodd"><g fill-rule="nonzero"><use xlink:href="#a" fill="#000" filter="url(#b)"/><use xlink:href="#a" fill="url(#c)"/><use xlink:href="#a" fill="#000" filter="url(#d)"/></g><g fill-rule="nonzero"><use xlink:href="#e" fill="#000" filter="url(#f)"/><use xlink:href="#e" fill="#F5FCFF"/><use xlink:href="#e" fill="#000" filter="url(#g)"/></g><g fill-rule="nonzero"><use xlink:href="#h" fill="#000" filter="url(#i)"/><use xlink:href="#h" fill="#F5FCFF"/><use xlink:href="#h" fill="#000" filter="url(#j)"/></g><g fill-rule="nonzero"><use xlink:href="#k" fill="#000" filter="url(#l)"/><use xlink:href="#k" fill="#F5FCFF"/><use xlink:href="#k" fill="#000" filter="url(#m)"/></g><g fill-rule="nonzero"><use xlink:href="#n" fill="#000" filter="url(#o)"/><use xlink:href="#n" fill="#F5FCFF"/><use xlink:href="#n" fill="#000" filter="url(#p)"/></g></g></svg>