<svg xmlns="http://www.w3.org/2000/svg" xmlns:xlink="http://www.w3.org/1999/xlink" width="512" height="512" viewBox="0 0 512 512"><defs><filter id="b" width="129.1%" height="129.1%" x="-14.6%" y="-14.6%" filterUnits="objectBoundingBox"><feOffset in="SourceAlpha" result="shadowOffsetOuter1"/><feGaussianBlur in="shadowOffsetOuter1" result="shadowBlurOuter1" stdDeviation="20"/><feColorMatrix in="shadowBlurOuter1" values="0 0 0 0 1 0 0 0 0 1 0 0 0 0 1 0 0 0 0.5 0"/></filter><filter id="d" width="120.4%" height="120.4%" x="-10.2%" y="-10.2%" filterUnits="objectBoundingBox"><feMorphology in="SourceAlpha" operator="dilate" radius="1" result="shadowSpreadInner1"/><feGaussianBlur in="shadowSpreadInner1" result="shadowBlurInner1" stdDeviation="1.5"/><feOffset dx="-1" dy="-2" in="shadowBlurInner1" result="shadowOffsetInner1"/><feComposite in="shadowOffsetInner1" in2="SourceAlpha" k2="-1" k3="1" operator="arithmetic" result="shadowInnerInner1"/><feColorMatrix in="shadowInnerInner1" result="shadowMatrixInner1" values="0 0 0 0 0 0 0 0 0 0 0 0 0 0 0 0 0 0 0.2 0"/><feMorphology in="SourceAlpha" operator="dilate" radius="1" result="shadowSpreadInner2"/><feGaussianBlur in="shadowSpreadInner2" result="shadowBlurInner2" stdDeviation="1.5"/><feOffset dx="2" dy="2" in="shadowBlurInner2" result="shadowOffsetInner2"/><feComposite in="shadowOffsetInner2" in2="SourceAlpha" k2="-1" k3="1" operator="arithmetic" result="shadowInnerInner2"/><feColorMatrix in="shadowInnerInner2" result="shadowMatrixInner2" values="0 0 0 0 1 0 0 0 0 1 0 0 0 0 1 0 0 0 0.5 0"/><feMerge><feMergeNode in="shadowMatrixInner1"/><feMergeNode in="shadowMatrixInner2"/></feMerge></filter><filter id="f" width="145.5%" height="139.8%" x="-22.8%" y="-18.3%" filterUnits="objectBoundingBox"><feMorphology in="SourceAlpha" operator="dilate" radius="4" result="shadowSpreadOuter1"/><feOffset dy="4" in="shadowSpreadOuter1" result="shadowOffsetOuter1"/><feGaussianBlur in="shadowOffsetOuter1" result="shadowBlurOuter1" stdDeviation="12"/><feColorMatrix in="shadowBlurOuter1" result="shadowMatrixOuter1" values="0 0 0 0 0 0 0 0 0 0 0 0 0 0 0 0 0 0 0.1 0"/><feMorphology in="SourceAlpha" radius="1" result="shadowSpreadOuter2"/><feOffset dy="2" in="shadowSpreadOuter2" result="shadowOffsetOuter2"/><feGaussianBlur in="shadowOffsetOuter2" result="shadowBlurOuter2" stdDeviation="4"/><feColorMatrix in="shadowBlurOuter2" result="shadowMatrixOuter2" values="0 0 0 0 0.109803922 0 0 0 0 0.541176471 0 0 0 0 0.956862745 0 0 0 0.4 0"/><feMorphology in="SourceAlpha" radius="1" result="shadowSpreadOuter3"/><feOffset dy="-2" in="shadowSpreadOuter3" result="shadowOffsetOuter3"/><feGaussianBlur in="shadowOffsetOuter3" result="shadowBlurOuter3" stdDeviation="4"/><feColorMatrix in="shadowBlurOuter3" result="shadowMatrixOuter3" values="0 0 0 0 1 0 0 0 0 1 0 0 0 0 1 0 0 0 0.5 0"/><feMerge><feMergeNode in="shadowMatrixOuter1"/><feMergeNode in="shadowMatrixOuter2"/><feMergeNode in="shadowMatrixOuter3"/></feMerge></filter><filter id="g" width="131%" height="127.1%" x="-15.5%" y="-11.9%" filterUnits="objectBoundingBox"><feGaussianBlur in="SourceAlpha" result="shadowBlurInner1" stdDeviation="1.5"/><feOffset dy="1" in="shadowBlurInner1" result="shadowOffsetInner1"/><feComposite in="shadowOffsetInner1" in2="SourceAlpha" k2="-1" k3="1" operator="arithmetic" result="shadowInnerInner1"/><feColorMatrix in="shadowInnerInner1" values="0 0 0 0 1 0 0 0 0 1 0 0 0 0 1 0 0 0 1 0"/></filter><path id="a" d="M166.374834,50 L347.625166,50 C387.743509,50 402.29139,54.1771525 416.958057,62.0209717 C431.624723,69.8647908 443.135209,81.3752767 450.979028,96.0419433 C458.822847,110.70861 463,125.256491 463,165.374834 L463,346.625166 C463,386.743509 458.822847,401.29139 450.979028,415.958057 C443.135209,430.624723 431.624723,442.135209 416.958057,449.979028 C402.29139,457.822847 387.743509,462 347.625166,462 L166.374834,462 C126.256491,462 111.70861,457.822847 97.0419433,449.979028 C82.3752767,442.135209 70.8647908,430.624723 63.0209717,415.958057 C55.1771525,401.29139 51,386.743509 51,346.625166 L51,165.374834 C51,125.256491 55.1771525,110.70861 63.0209717,96.0419433 C70.8647908,81.3752767 82.3752767,69.8647908 97.0419433,62.0209717 C111.70861,54.1771525 126.256491,50 166.374834,50 Z"/><path id="e" d="M205.963604,171.922986 L226.565516,171.922986 L226.565516,148.810852 C226.565516,145.979966 227.494165,143.69821 229.351462,141.965583 C231.20876,140.232955 233.68506,139.366642 236.780362,139.366642 L276.168059,139.366642 C279.262202,139.366642 281.738212,140.232955 283.596089,141.965583 C285.453966,143.69821 286.382905,145.979966 286.382905,148.810852 L286.382905,171.922986 L306.983077,171.922986 L306.983077,147.779277 C306.983077,139.300537 304.392544,132.666918 299.211479,127.878419 C294.030413,123.089919 286.838677,120.69567 277.636269,120.69567 L235.310413,120.69567 C226.108005,120.69567 218.916268,123.089919 213.735203,127.878419 C208.554137,132.666918 205.963604,139.300537 205.963604,147.779277 L205.963604,171.922986 Z M156.663749,184.094866 L356.556047,184.094866 C359.319669,184.094866 361.642305,183.140703 363.523957,181.232378 C365.405609,179.324052 366.346435,176.988079 366.346435,174.224457 C366.346435,171.474752 365.390532,169.164293 363.478728,167.293079 C361.566923,165.421864 359.259363,164.486257 356.556047,164.486257 L156.663749,164.486257 C153.960433,164.486257 151.637797,165.436941 149.695839,167.338308 C147.753882,169.239675 146.782903,171.535058 146.782903,174.224457 C146.782903,176.988079 147.753882,179.324052 149.695839,181.232378 C151.637797,183.140703 153.960433,184.094866 156.663749,184.094866 Z M205.441728,371.984023 L307.778068,371.984023 C316.2916,371.984023 323.147016,369.544254 328.344318,364.664717 C333.54162,359.785179 336.332785,353.051534 336.717813,344.46378 L344.368511,181.958655 L323.667442,181.958655 L316.350746,341.122036 C316.216218,344.46204 315.144053,347.14883 313.134252,349.182405 C311.124451,351.215981 308.541166,352.232769 305.384398,352.232769 L207.652742,352.232769 C204.556279,352.232769 202.006627,351.200615 200.003784,349.136306 C198.000941,347.071998 196.925297,344.400575 196.776853,341.122036 L189.096582,181.958655 L168.760827,181.958655 L176.501983,344.554238 C176.885852,353.141992 179.66136,359.860561 184.828509,364.709946 C189.995658,369.559331 196.866731,371.984023 205.441728,371.984023 Z M223.783919,334.255891 C226.092929,334.255891 227.942978,333.572234 229.334066,332.20492 C230.725155,330.837606 231.413741,329.066128 231.399824,326.890486 L227.990237,210.213003 C227.97632,208.052438 227.251782,206.307054 225.816624,204.976851 C224.381466,203.646648 222.539535,202.981546 220.290831,202.981546 C217.994578,202.981546 216.142789,203.661724 214.735464,205.02208 C213.32814,206.382436 212.661588,208.149855 212.735811,210.324337 L216.05494,326.953111 C216.129162,329.173982 216.868486,330.94633 218.272912,332.270155 C219.677337,333.593979 221.514339,334.255891 223.783919,334.255891 Z M256.575106,334.255891 C258.917748,334.255891 260.814766,333.582382 262.266161,332.235363 C263.717555,330.888344 264.443252,329.133972 264.443252,326.972247 L264.443252,210.284326 C264.443252,208.122601 263.717555,206.36504 262.266161,205.011642 C260.814766,203.658245 258.917748,202.981546 256.575106,202.981546 C254.278854,202.981546 252.40474,203.658245 250.952766,205.011642 C249.500792,206.36504 248.774805,208.122601 248.774805,210.284326 L248.774805,326.972247 C248.774805,329.133972 249.500792,330.888344 250.952766,332.235363 C252.40474,333.582382 254.278854,334.255891 256.575106,334.255891 Z M289.435878,334.255891 C291.643992,334.255891 293.450551,333.593979 294.855557,332.270155 C296.260562,330.94633 297.000176,329.173982 297.074398,326.953111 L300.393527,210.324337 C300.46775,208.149855 299.816275,206.382436 298.439103,205.02208 C297.061931,203.661724 295.195066,202.981546 292.838507,202.981546 C290.588643,202.981546 288.761498,203.646648 287.357073,204.976851 C285.952648,206.307054 285.213324,208.083171 285.139101,210.305201 L281.819972,326.890486 C281.74575,329.066128 282.404183,330.837606 283.795272,332.20492 C285.18636,333.572234 287.066562,334.255891 289.435878,334.255891 Z"/><linearGradient id="c" x1="0%" x2="0%" y1="100%" y2="0%"><stop offset="0%" stop-color="#1BC9FC"/><stop offset="100%" stop-color="#1C70F1"/></linearGradient></defs><g fill="none" fill-rule="evenodd"><g fill-rule="nonzero"><use xlink:href="#a" fill="#000" filter="url(#b)"/><use xlink:href="#a" fill="url(#c)"/><use xlink:href="#a" fill="#000" filter="url(#d)"/></g><g fill-rule="nonzero"><use xlink:href="#e" fill="#000" filter="url(#f)"/><use xlink:href="#e" fill="#F5FCFF"/><use xlink:href="#e" fill="#000" filter="url(#g)"/></g></g></svg>