<svg xmlns="http://www.w3.org/2000/svg" xmlns:xlink="http://www.w3.org/1999/xlink" width="512" height="512" viewBox="0 0 512 512"><defs><filter id="b" width="129.1%" height="129.1%" x="-14.6%" y="-14.6%" filterUnits="objectBoundingBox"><feOffset in="SourceAlpha" result="shadowOffsetOuter1"/><feGaussianBlur in="shadowOffsetOuter1" result="shadowBlurOuter1" stdDeviation="20"/><feColorMatrix in="shadowBlurOuter1" values="0 0 0 0 1 0 0 0 0 1 0 0 0 0 1 0 0 0 0.5 0"/></filter><filter id="d" width="120.4%" height="120.4%" x="-10.2%" y="-10.2%" filterUnits="objectBoundingBox"><feMorphology in="SourceAlpha" operator="dilate" radius="1" result="shadowSpreadInner1"/><feGaussianBlur in="shadowSpreadInner1" result="shadowBlurInner1" stdDeviation="1.5"/><feOffset dx="-1" dy="-2" in="shadowBlurInner1" result="shadowOffsetInner1"/><feComposite in="shadowOffsetInner1" in2="SourceAlpha" k2="-1" k3="1" operator="arithmetic" result="shadowInnerInner1"/><feColorMatrix in="shadowInnerInner1" result="shadowMatrixInner1" values="0 0 0 0 0 0 0 0 0 0 0 0 0 0 0 0 0 0 0.2 0"/><feMorphology in="SourceAlpha" operator="dilate" radius="1" result="shadowSpreadInner2"/><feGaussianBlur in="shadowSpreadInner2" result="shadowBlurInner2" stdDeviation="1.5"/><feOffset dx="2" dy="2" in="shadowBlurInner2" result="shadowOffsetInner2"/><feComposite in="shadowOffsetInner2" in2="SourceAlpha" k2="-1" k3="1" operator="arithmetic" result="shadowInnerInner2"/><feColorMatrix in="shadowInnerInner2" result="shadowMatrixInner2" values="0 0 0 0 1 0 0 0 0 1 0 0 0 0 1 0 0 0 0.5 0"/><feMerge><feMergeNode in="shadowMatrixInner1"/><feMergeNode in="shadowMatrixInner2"/></feMerge></filter><filter id="f" width="152.4%" height="141.5%" x="-26.2%" y="-19.1%" filterUnits="objectBoundingBox"><feMorphology in="SourceAlpha" operator="dilate" radius="4" result="shadowSpreadOuter1"/><feOffset dy="4" in="shadowSpreadOuter1" result="shadowOffsetOuter1"/><feGaussianBlur in="shadowOffsetOuter1" result="shadowBlurOuter1" stdDeviation="12"/><feColorMatrix in="shadowBlurOuter1" result="shadowMatrixOuter1" values="0 0 0 0 0 0 0 0 0 0 0 0 0 0 0 0 0 0 0.1 0"/><feMorphology in="SourceAlpha" radius="1" result="shadowSpreadOuter2"/><feOffset dy="2" in="shadowSpreadOuter2" result="shadowOffsetOuter2"/><feGaussianBlur in="shadowOffsetOuter2" result="shadowBlurOuter2" stdDeviation="4"/><feColorMatrix in="shadowBlurOuter2" result="shadowMatrixOuter2" values="0 0 0 0 0.109803922 0 0 0 0 0.541176471 0 0 0 0 0.956862745 0 0 0 0.4 0"/><feMorphology in="SourceAlpha" radius="1" result="shadowSpreadOuter3"/><feOffset dy="-2" in="shadowSpreadOuter3" result="shadowOffsetOuter3"/><feGaussianBlur in="shadowOffsetOuter3" result="shadowBlurOuter3" stdDeviation="4"/><feColorMatrix in="shadowBlurOuter3" result="shadowMatrixOuter3" values="0 0 0 0 1 0 0 0 0 1 0 0 0 0 1 0 0 0 0.5 0"/><feMerge><feMergeNode in="shadowMatrixOuter1"/><feMergeNode in="shadowMatrixOuter2"/><feMergeNode in="shadowMatrixOuter3"/></feMerge></filter><filter id="h" width="135.6%" height="128.2%" x="-17.8%" y="-12.4%" filterUnits="objectBoundingBox"><feGaussianBlur in="SourceAlpha" result="shadowBlurInner1" stdDeviation="1.5"/><feOffset dy="1" in="shadowBlurInner1" result="shadowOffsetInner1"/><feComposite in="shadowOffsetInner1" in2="SourceAlpha" k2="-1" k3="1" operator="arithmetic" result="shadowInnerInner1"/><feColorMatrix in="shadowInnerInner1" values="0 0 0 0 1 0 0 0 0 1 0 0 0 0 1 0 0 0 1 0"/></filter><filter id="j" width="225.4%" height="225.5%" x="-62.7%" y="-57.7%" filterUnits="objectBoundingBox"><feMorphology in="SourceAlpha" operator="dilate" radius="4" result="shadowSpreadOuter1"/><feOffset dy="4" in="shadowSpreadOuter1" result="shadowOffsetOuter1"/><feGaussianBlur in="shadowOffsetOuter1" result="shadowBlurOuter1" stdDeviation="12"/><feColorMatrix in="shadowBlurOuter1" result="shadowMatrixOuter1" values="0 0 0 0 0 0 0 0 0 0 0 0 0 0 0 0 0 0 0.1 0"/><feMorphology in="SourceAlpha" radius="1" result="shadowSpreadOuter2"/><feOffset dy="2" in="shadowSpreadOuter2" result="shadowOffsetOuter2"/><feGaussianBlur in="shadowOffsetOuter2" result="shadowBlurOuter2" stdDeviation="4"/><feColorMatrix in="shadowBlurOuter2" result="shadowMatrixOuter2" values="0 0 0 0 0.109803922 0 0 0 0 0.541176471 0 0 0 0 0.956862745 0 0 0 0.4 0"/><feMorphology in="SourceAlpha" radius="1" result="shadowSpreadOuter3"/><feOffset dy="-2" in="shadowSpreadOuter3" result="shadowOffsetOuter3"/><feGaussianBlur in="shadowOffsetOuter3" result="shadowBlurOuter3" stdDeviation="4"/><feColorMatrix in="shadowBlurOuter3" result="shadowMatrixOuter3" values="0 0 0 0 1 0 0 0 0 1 0 0 0 0 1 0 0 0 0.5 0"/><feMerge><feMergeNode in="shadowMatrixOuter1"/><feMergeNode in="shadowMatrixOuter2"/><feMergeNode in="shadowMatrixOuter3"/></feMerge></filter><filter id="k" width="185.3%" height="185.3%" x="-42.6%" y="-37.6%" filterUnits="objectBoundingBox"><feGaussianBlur in="SourceAlpha" result="shadowBlurInner1" stdDeviation="1.5"/><feOffset dy="1" in="shadowBlurInner1" result="shadowOffsetInner1"/><feComposite in="shadowOffsetInner1" in2="SourceAlpha" k2="-1" k3="1" operator="arithmetic" result="shadowInnerInner1"/><feColorMatrix in="shadowInnerInner1" values="0 0 0 0 1 0 0 0 0 1 0 0 0 0 1 0 0 0 1 0"/></filter><path id="a" d="M166.374834,50 L347.625166,50 C387.743509,50 402.29139,54.1771525 416.958057,62.0209717 C431.624723,69.8647908 443.135209,81.3752767 450.979028,96.0419433 C458.822847,110.70861 463,125.256491 463,165.374834 L463,346.625166 C463,386.743509 458.822847,401.29139 450.979028,415.958057 C443.135209,430.624723 431.624723,442.135209 416.958057,449.979028 C402.29139,457.822847 387.743509,462 347.625166,462 L166.374834,462 C126.256491,462 111.70861,457.822847 97.0419433,449.979028 C82.3752767,442.135209 70.8647908,430.624723 63.0209717,415.958057 C55.1771525,401.29139 51,386.743509 51,346.625166 L51,165.374834 C51,125.256491 55.1771525,110.70861 63.0209717,96.0419433 C70.8647908,81.3752767 82.3752767,69.8647908 97.0419433,62.0209717 C111.70861,54.1771525 126.256491,50 166.374834,50 Z"/><path id="e" d="M315.865415,135.831686 C327.792013,135.831686 336.805096,138.930177 342.904663,145.127161 C349.00423,151.324145 352.054013,160.416089 352.054013,172.402993 L352.054013,340.377375 C352.054013,352.424585 349.00423,361.516529 342.904663,367.653207 C336.805096,373.789885 327.792013,376.858224 315.865415,376.858224 L197.262211,376.858224 C185.335612,376.858224 176.322819,373.789885 170.223832,367.653207 C164.124845,361.516529 161.075352,352.424585 161.075352,340.377375 L161.074775,206.205581 C166.986477,208.440866 173.245274,209.558508 179.851164,209.558508 C180.896042,209.558508 181.932236,209.530546 182.959746,209.474622 L182.959338,339.001363 C182.959338,344.17373 184.299399,348.128678 186.97952,350.866206 C189.659642,353.603734 193.704178,354.972498 199.11313,354.972498 L314.03711,354.972498 C319.430985,354.972498 323.467984,353.603734 326.148105,350.866206 C328.828227,348.128678 330.168287,344.17373 330.168287,339.001363 L330.168287,173.777265 C330.168287,168.606057 328.828227,164.636323 326.148105,161.868063 C323.467984,159.099802 319.430985,157.715672 314.03711,157.715672 L234.036862,157.716314 C234.068578,156.941666 234.084436,156.162123 234.084436,155.377686 C234.084436,148.483853 232.859676,141.968031 230.410157,135.830222 Z M255.256514,265.51431 C257.315024,265.51431 259.01054,266.202896 260.343062,267.580068 C261.675585,268.95724 262.341846,270.668122 262.341846,272.712715 C262.341846,274.635537 261.675585,276.263499 260.343062,277.596602 C259.01054,278.929704 257.315024,279.596255 255.256514,279.596255 L215.85838,279.596255 C213.801031,279.596255 212.102325,278.929704 210.762264,277.596602 C209.422204,276.263499 208.752173,274.635537 208.752173,272.712715 C208.752173,270.668122 209.422204,268.95724 210.762264,267.580068 C212.102325,266.202896 213.801031,265.51431 215.85838,265.51431 Z M297.380579,227.455657 C299.378783,227.455657 301.047625,228.122208 302.387106,229.455311 C303.726587,230.788413 304.396327,232.446528 304.396327,234.429656 C304.396327,236.42786 303.726587,238.115548 302.387106,239.49272 C301.047625,240.869891 299.378783,241.558477 297.380579,241.558477 L215.85838,241.558477 C213.801031,241.558477 212.102325,240.869891 210.762264,239.49272 C209.422204,238.115548 208.752173,236.42786 208.752173,234.429656 C208.752173,232.446528 209.422204,230.788413 210.762264,229.455311 C212.102325,228.122208 213.801031,227.455657 215.85838,227.455657 Z M297.380579,189.395265 C299.378783,189.395265 301.047625,190.061816 302.387106,191.394918 C303.726587,192.728021 304.396327,194.386716 304.396327,196.371003 C304.396327,198.369207 303.726587,200.056605 302.387106,201.433197 C301.047625,202.809789 299.378783,203.498085 297.380579,203.498085 L215.85838,203.498085 C213.801031,203.498085 212.102325,202.809789 210.762264,201.433197 C210.43452,201.096517 210.146854,200.741246 209.899267,200.367384 C212.8271,198.396571 215.555732,196.145179 218.087194,193.613716 C219.436989,192.263921 220.707794,190.858069 221.89961,189.396159 Z"/><path id="i" d="M179.858098,195.231764 C185.310867,195.231764 190.442127,194.196509 195.25188,192.126001 C200.061634,190.055492 204.305533,187.181214 207.98358,183.503168 C211.661626,179.825121 214.542334,175.581221 216.625703,170.771468 C218.709072,165.961715 219.750757,160.830454 219.750757,155.377686 C219.750757,149.924918 218.709072,144.793657 216.625703,139.983904 C214.542334,135.174151 211.661626,130.936681 207.98358,127.271495 C204.305533,123.606309 200.061634,120.732031 195.25188,118.648662 C190.442127,116.565293 185.298006,115.523609 179.819517,115.523609 C174.366749,115.523609 169.241919,116.565293 164.445026,118.648662 C159.648133,120.732031 155.417093,123.606309 151.751907,127.271495 C148.086721,130.936681 145.212443,135.174151 143.129074,139.983904 C141.045705,144.793657 140.004021,149.924918 140.004021,155.377686 C140.004021,160.830454 141.045705,165.961715 143.129074,170.771468 C145.212443,175.581221 148.086721,179.825121 151.751907,183.503168 C155.417093,187.181214 159.654563,190.055492 164.464316,192.126001 C169.274069,194.196509 174.40533,195.231764 179.858098,195.231764 Z M162.535271,158.07835 C162.535271,157.486776 162.766756,156.933783 163.229727,156.419371 L184.796455,129.567059 C185.413749,128.821162 186.076055,128.461073 186.783371,128.486794 C187.490688,128.512514 188.037251,128.808301 188.42306,129.374155 C188.808869,129.940008 188.83459,130.673045 188.500222,131.573266 L181.439916,150.285006 L194.634586,150.285006 C195.174719,150.285006 195.63769,150.465051 196.023499,150.825139 C196.409308,151.185228 196.602212,151.648198 196.602212,152.214052 C196.602212,152.754185 196.370727,153.294317 195.907756,153.83445 L174.302448,180.686762 C173.736594,181.432659 173.093579,181.792748 172.373402,181.767027 C171.653225,181.741306 171.093802,181.445519 170.695133,180.879666 C170.296463,180.313813 170.277173,179.580776 170.637261,178.680554 L177.658987,159.930233 L164.502897,159.930233 C163.937044,159.930233 163.467643,159.756619 163.094694,159.409391 C162.721745,159.062163 162.535271,158.618482 162.535271,158.07835 Z"/><linearGradient id="c" x1="0%" x2="0%" y1="100%" y2="0%"><stop offset="0%" stop-color="#F5FCFF"/><stop offset="100%" stop-color="#C5F1FE"/></linearGradient><linearGradient id="g" x1="50%" x2="50%" y1="0%" y2="97.929%"><stop offset="0%" stop-color="#2374F1"/><stop offset="100%" stop-color="#1BB5FA"/></linearGradient></defs><g fill="none" fill-rule="evenodd"><g fill-rule="nonzero"><use xlink:href="#a" fill="#000" filter="url(#b)"/><use xlink:href="#a" fill="url(#c)"/><use xlink:href="#a" fill="#000" filter="url(#d)"/></g><g fill-rule="nonzero"><use xlink:href="#e" fill="#000" filter="url(#f)"/><use xlink:href="#e" fill="url(#g)"/><use xlink:href="#e" fill="#000" filter="url(#h)"/></g><g fill-rule="nonzero"><use xlink:href="#i" fill="#000" filter="url(#j)"/><use xlink:href="#i" fill="#F5FCFF"/><use xlink:href="#i" fill="#1C73F1"/><use xlink:href="#i" fill="#000" filter="url(#k)"/></g><path fill="#FFF" fill-rule="nonzero" d="M162.535271,158.07835 C162.535271,157.486776 162.766756,156.933783 163.229727,156.419371 L184.796455,129.567059 C185.413749,128.821162 186.076055,128.461073 186.783371,128.486794 C187.490688,128.512514 188.037251,128.808301 188.42306,129.374155 C188.808869,129.940008 188.83459,130.673045 188.500222,131.573266 L181.439916,150.285006 L194.634586,150.285006 C195.174719,150.285006 195.63769,150.465051 196.023499,150.825139 C196.409308,151.185228 196.602212,151.648198 196.602212,152.214052 C196.602212,152.754185 196.370727,153.294317 195.907756,153.83445 L174.302448,180.686762 C173.736594,181.432659 173.093579,181.792748 172.373402,181.767027 C171.653225,181.741306 171.093802,181.445519 170.695133,180.879666 C170.296463,180.313813 170.277173,179.580776 170.637261,178.680554 L177.658987,159.930233 L164.502897,159.930233 C163.937044,159.930233 163.467643,159.756619 163.094694,159.409391 C162.721745,159.062163 162.535271,158.618482 162.535271,158.07835 Z"/></g></svg>