<svg xmlns="http://www.w3.org/2000/svg" xmlns:xlink="http://www.w3.org/1999/xlink" width="512" height="512" viewBox="0 0 512 512"><defs><filter id="b" width="129.1%" height="129.1%" x="-14.6%" y="-14.6%" filterUnits="objectBoundingBox"><feOffset in="SourceAlpha" result="shadowOffsetOuter1"/><feGaussianBlur in="shadowOffsetOuter1" result="shadowBlurOuter1" stdDeviation="20"/><feColorMatrix in="shadowBlurOuter1" values="0 0 0 0 1 0 0 0 0 1 0 0 0 0 1 0 0 0 0.5 0"/></filter><filter id="d" width="120.4%" height="120.4%" x="-10.2%" y="-10.2%" filterUnits="objectBoundingBox"><feMorphology in="SourceAlpha" operator="dilate" radius="1" result="shadowSpreadInner1"/><feGaussianBlur in="shadowSpreadInner1" result="shadowBlurInner1" stdDeviation="1.5"/><feOffset dx="-1" dy="-2" in="shadowBlurInner1" result="shadowOffsetInner1"/><feComposite in="shadowOffsetInner1" in2="SourceAlpha" k2="-1" k3="1" operator="arithmetic" result="shadowInnerInner1"/><feColorMatrix in="shadowInnerInner1" result="shadowMatrixInner1" values="0 0 0 0 0 0 0 0 0 0 0 0 0 0 0 0 0 0 0.2 0"/><feMorphology in="SourceAlpha" operator="dilate" radius="1" result="shadowSpreadInner2"/><feGaussianBlur in="shadowSpreadInner2" result="shadowBlurInner2" stdDeviation="1.5"/><feOffset dx="2" dy="2" in="shadowBlurInner2" result="shadowOffsetInner2"/><feComposite in="shadowOffsetInner2" in2="SourceAlpha" k2="-1" k3="1" operator="arithmetic" result="shadowInnerInner2"/><feColorMatrix in="shadowInnerInner2" result="shadowMatrixInner2" values="0 0 0 0 1 0 0 0 0 1 0 0 0 0 1 0 0 0 0.5 0"/><feMerge><feMergeNode in="shadowMatrixInner1"/><feMergeNode in="shadowMatrixInner2"/></feMerge></filter><filter id="f" width="143.8%" height="173.4%" x="-21.9%" y="-33.8%" filterUnits="objectBoundingBox"><feMorphology in="SourceAlpha" operator="dilate" radius="4" result="shadowSpreadOuter1"/><feOffset dy="4" in="shadowSpreadOuter1" result="shadowOffsetOuter1"/><feGaussianBlur in="shadowOffsetOuter1" result="shadowBlurOuter1" stdDeviation="12"/><feColorMatrix in="shadowBlurOuter1" result="shadowMatrixOuter1" values="0 0 0 0 0 0 0 0 0 0 0 0 0 0 0 0 0 0 0.1 0"/><feMorphology in="SourceAlpha" radius="1" result="shadowSpreadOuter2"/><feOffset dy="2" in="shadowSpreadOuter2" result="shadowOffsetOuter2"/><feGaussianBlur in="shadowOffsetOuter2" result="shadowBlurOuter2" stdDeviation="4"/><feColorMatrix in="shadowBlurOuter2" result="shadowMatrixOuter2" values="0 0 0 0 0.109803922 0 0 0 0 0.541176471 0 0 0 0 0.956862745 0 0 0 0.4 0"/><feMorphology in="SourceAlpha" radius="1" result="shadowSpreadOuter3"/><feOffset dy="-2" in="shadowSpreadOuter3" result="shadowOffsetOuter3"/><feGaussianBlur in="shadowOffsetOuter3" result="shadowBlurOuter3" stdDeviation="4"/><feColorMatrix in="shadowBlurOuter3" result="shadowMatrixOuter3" values="0 0 0 0 1 0 0 0 0 1 0 0 0 0 1 0 0 0 0.5 0"/><feMerge><feMergeNode in="shadowMatrixOuter1"/><feMergeNode in="shadowMatrixOuter2"/><feMergeNode in="shadowMatrixOuter3"/></feMerge></filter><filter id="g" width="129.8%" height="149.9%" x="-14.9%" y="-22%" filterUnits="objectBoundingBox"><feGaussianBlur in="SourceAlpha" result="shadowBlurInner1" stdDeviation="1.5"/><feOffset dy="1" in="shadowBlurInner1" result="shadowOffsetInner1"/><feComposite in="shadowOffsetInner1" in2="SourceAlpha" k2="-1" k3="1" operator="arithmetic" result="shadowInnerInner1"/><feColorMatrix in="shadowInnerInner1" values="0 0 0 0 1 0 0 0 0 1 0 0 0 0 1 0 0 0 1 0"/></filter><filter id="i" width="172.6%" height="172.6%" x="-36.3%" y="-33.4%" filterUnits="objectBoundingBox"><feMorphology in="SourceAlpha" operator="dilate" radius="4" result="shadowSpreadOuter1"/><feOffset dy="4" in="shadowSpreadOuter1" result="shadowOffsetOuter1"/><feGaussianBlur in="shadowOffsetOuter1" result="shadowBlurOuter1" stdDeviation="12"/><feColorMatrix in="shadowBlurOuter1" result="shadowMatrixOuter1" values="0 0 0 0 0 0 0 0 0 0 0 0 0 0 0 0 0 0 0.1 0"/><feMorphology in="SourceAlpha" radius="1" result="shadowSpreadOuter2"/><feOffset dy="2" in="shadowSpreadOuter2" result="shadowOffsetOuter2"/><feGaussianBlur in="shadowOffsetOuter2" result="shadowBlurOuter2" stdDeviation="4"/><feColorMatrix in="shadowBlurOuter2" result="shadowMatrixOuter2" values="0 0 0 0 0.109803922 0 0 0 0 0.541176471 0 0 0 0 0.956862745 0 0 0 0.4 0"/><feMorphology in="SourceAlpha" radius="1" result="shadowSpreadOuter3"/><feOffset dy="-2" in="shadowSpreadOuter3" result="shadowOffsetOuter3"/><feGaussianBlur in="shadowOffsetOuter3" result="shadowBlurOuter3" stdDeviation="4"/><feColorMatrix in="shadowBlurOuter3" result="shadowMatrixOuter3" values="0 0 0 0 1 0 0 0 0 1 0 0 0 0 1 0 0 0 0.5 0"/><feMerge><feMergeNode in="shadowMatrixOuter1"/><feMergeNode in="shadowMatrixOuter2"/><feMergeNode in="shadowMatrixOuter3"/></feMerge></filter><filter id="j" width="149.4%" height="149.4%" x="-24.7%" y="-21.8%" filterUnits="objectBoundingBox"><feGaussianBlur in="SourceAlpha" result="shadowBlurInner1" stdDeviation="1.5"/><feOffset dy="1" in="shadowBlurInner1" result="shadowOffsetInner1"/><feComposite in="shadowOffsetInner1" in2="SourceAlpha" k2="-1" k3="1" operator="arithmetic" result="shadowInnerInner1"/><feColorMatrix in="shadowInnerInner1" values="0 0 0 0 1 0 0 0 0 1 0 0 0 0 1 0 0 0 1 0"/></filter><path id="a" d="M166.374834,50 L347.625166,50 C387.743509,50 402.29139,54.1771525 416.958057,62.0209717 C431.624723,69.8647908 443.135209,81.3752767 450.979028,96.0419433 C458.822847,110.70861 463,125.256491 463,165.374834 L463,346.625166 C463,386.743509 458.822847,401.29139 450.979028,415.958057 C443.135209,430.624723 431.624723,442.135209 416.958057,449.979028 C402.29139,457.822847 387.743509,462 347.625166,462 L166.374834,462 C126.256491,462 111.70861,457.822847 97.0419433,449.979028 C82.3752767,442.135209 70.8647908,430.624723 63.0209717,415.958057 C55.1771525,401.29139 51,386.743509 51,346.625166 L51,165.374834 C51,125.256491 55.1771525,110.70861 63.0209717,96.0419433 C70.8647908,81.3752767 82.3752767,69.8647908 97.0419433,62.0209717 C111.70861,54.1771525 126.256491,50 166.374834,50 Z"/><path id="e" d="M213.208219,313.00274 C213.208219,316.853825 213.458684,320.646411 213.944213,324.365098 L149.549654,324.36449 C146.617872,324.36449 144.145341,323.330596 142.132061,321.262809 C140.11878,319.195021 139.11214,316.715532 139.11214,313.824341 C139.11214,310.892559 140.115301,308.387846 142.121623,306.310201 C144.127945,304.232556 146.603955,303.193733 149.549654,303.193733 L213.755623,303.193459 C213.393966,306.413279 213.208219,309.686317 213.208219,313.00274 Z M226.452708,266.862983 L126.990708,266.864229 C124.058926,266.864229 121.574798,265.830335 119.538323,263.762547 C117.501849,261.69476 116.483611,259.215271 116.483611,256.32408 C116.483611,253.392298 117.498659,250.887585 119.528756,248.80994 C121.558852,246.732295 124.046169,245.693472 126.990708,245.693472 L245.134182,245.69088 C237.818639,251.674294 231.496432,258.826711 226.452708,266.862983 Z M311.240652,188.193211 C314.200267,188.193211 316.676277,189.225365 318.668683,191.289673 C320.661088,193.353982 321.657291,195.865363 321.657291,198.823818 C321.657291,201.741683 320.657609,204.227841 318.658245,206.282292 C316.658882,208.336742 314.186351,209.363967 311.240652,209.363967 L103.887272,209.363967 C101.016956,209.363967 98.5632705,208.330074 96.5262158,206.262286 C94.4891611,204.194499 93.4706337,201.71501 93.4706337,198.823818 C93.4706337,195.892037 94.4856819,193.387324 96.5157783,191.309679 C98.5458746,189.232034 101.003039,188.193211 103.887272,188.193211 L311.240652,188.193211 Z"/><path id="h" d="M349.123288,244.147945 C387.150741,244.147945 417.978082,274.975287 417.978082,313.00274 C417.978082,351.030193 387.150741,381.857534 349.123288,381.857534 C311.095835,381.857534 280.268493,351.030193 280.268493,313.00274 C280.268493,274.975287 311.095835,244.147945 349.123288,244.147945 Z M360.154968,315.262481 L357.820697,317.627785 C355.310728,320.080692 352.68781,321.307146 349.951943,321.307146 C347.165877,321.307146 344.530409,320.080692 342.04554,317.627785 L339.711268,315.300025 L312.227104,342.519793 C313.758185,343.796306 316.343454,344.434563 319.982909,344.434563 L380.711617,344.434563 C383.999677,344.434563 386.321399,343.796306 387.676782,342.519793 L360.154968,315.262481 Z M308.688047,284.813885 C307.985256,286.01531 307.63386,287.980139 307.63386,290.708373 L307.63386,332.232598 C307.63386,334.960832 307.972706,336.913146 308.650398,338.089541 L335.682767,311.357852 L308.688047,284.813885 Z M375.440682,300.282222 L364.221119,311.357852 L391.14054,338.014452 C391.793132,336.863087 392.119428,334.935802 392.119428,332.232598 L392.119428,302.084359 C391.11544,302.484833 390.054978,302.797704 388.938042,303.022971 C387.821105,303.248238 386.685344,303.360872 385.530758,303.360872 C383.673381,303.360872 381.885028,303.091803 380.165699,302.553665 C378.44637,302.015527 376.871364,301.25838 375.440682,300.282222 Z M368.400218,278.543953 L319.041671,278.543953 C315.80381,278.543953 313.519738,279.144665 312.189455,280.346089 L345.208101,312.972266 C346.814481,314.599194 348.395762,315.412659 349.951943,315.412659 C351.432825,315.412659 353.014106,314.599194 354.695785,312.972266 L371.299232,296.527772 C370.019148,294.975932 369.01516,293.217598 368.287269,291.252768 C367.559378,289.287939 367.195432,287.216734 367.195432,285.039153 C367.195432,283.887788 367.302106,282.76771 367.515453,281.678919 C367.728801,280.590128 368.023722,279.54514 368.400218,278.543953 Z M385.530758,272.048753 C383.146287,272.048753 380.968889,272.630693 378.998563,273.794573 C377.028237,274.958452 375.453231,276.529064 374.273546,278.506408 C373.09386,280.483752 372.504017,282.661334 372.504017,285.039153 C372.504017,287.416971 373.09386,289.588295 374.273546,291.553124 C375.453231,293.517954 377.028237,295.088566 378.998563,296.26496 C380.968889,297.441355 383.146287,298.029552 385.530758,298.029552 C387.915229,298.029552 390.092628,297.441355 392.062953,296.26496 C394.033279,295.088566 395.608285,293.517954 396.787971,291.553124 C397.967656,289.588295 398.557499,287.416971 398.557499,285.039153 C398.557499,282.661334 397.967656,280.49001 396.787971,278.525181 C395.608285,276.560351 394.033279,274.989739 392.062953,273.813345 C390.092628,272.63695 387.915229,272.048753 385.530758,272.048753 Z M385.530758,278.468864 C386.710444,278.468864 387.808555,278.76922 388.825093,279.369932 C389.841631,279.970644 390.644821,280.765336 391.234664,281.754008 C391.824506,282.74268 392.119428,283.837728 392.119428,285.039153 C392.119428,286.240577 391.824506,287.335625 391.234664,288.324297 C390.644821,289.312969 389.841631,290.107661 388.825093,290.708373 C387.808555,291.309085 386.710444,291.609441 385.530758,291.609441 C384.325973,291.609441 383.221587,291.309085 382.217599,290.708373 C381.213611,290.107661 380.416696,289.312969 379.826853,288.324297 C379.23701,287.335625 378.942089,286.240577 378.942089,285.039153 C378.942089,283.837728 379.23701,282.74268 379.826853,281.754008 C380.416696,280.765336 381.213611,279.970644 382.217599,279.369932 C383.221587,278.76922 384.325973,278.468864 385.530758,278.468864 Z"/><linearGradient id="c" x1="0%" x2="0%" y1="100%" y2="0%"><stop offset="0%" stop-color="#1BC9FC"/><stop offset="100%" stop-color="#1C70F1"/></linearGradient></defs><g fill="none" fill-rule="evenodd"><g fill-rule="nonzero"><use xlink:href="#a" fill="#000" filter="url(#b)"/><use xlink:href="#a" fill="url(#c)"/><use xlink:href="#a" fill="#000" filter="url(#d)"/></g><g fill-rule="nonzero"><use xlink:href="#e" fill="#000" filter="url(#f)"/><use xlink:href="#e" fill="#F5FCFF"/><use xlink:href="#e" fill="#000" filter="url(#g)"/></g><g fill-rule="nonzero"><use xlink:href="#h" fill="#000" filter="url(#i)"/><use xlink:href="#h" fill="#F5FCFF"/><use xlink:href="#h" fill="#000" filter="url(#j)"/></g></g></svg>