<svg xmlns="http://www.w3.org/2000/svg" xmlns:xlink="http://www.w3.org/1999/xlink" width="512" height="512" viewBox="0 0 512 512"><defs><filter id="b" width="129.1%" height="129.1%" x="-14.6%" y="-14.6%" filterUnits="objectBoundingBox"><feOffset in="SourceAlpha" result="shadowOffsetOuter1"/><feGaussianBlur in="shadowOffsetOuter1" result="shadowBlurOuter1" stdDeviation="20"/><feColorMatrix in="shadowBlurOuter1" values="0 0 0 0 1 0 0 0 0 1 0 0 0 0 1 0 0 0 0.5 0"/></filter><filter id="d" width="120.4%" height="120.4%" x="-10.2%" y="-10.2%" filterUnits="objectBoundingBox"><feMorphology in="SourceAlpha" operator="dilate" radius="1" result="shadowSpreadInner1"/><feGaussianBlur in="shadowSpreadInner1" result="shadowBlurInner1" stdDeviation="1.5"/><feOffset dx="-1" dy="-2" in="shadowBlurInner1" result="shadowOffsetInner1"/><feComposite in="shadowOffsetInner1" in2="SourceAlpha" k2="-1" k3="1" operator="arithmetic" result="shadowInnerInner1"/><feColorMatrix in="shadowInnerInner1" result="shadowMatrixInner1" values="0 0 0 0 0 0 0 0 0 0 0 0 0 0 0 0 0 0 0.2 0"/><feMorphology in="SourceAlpha" operator="dilate" radius="1" result="shadowSpreadInner2"/><feGaussianBlur in="shadowSpreadInner2" result="shadowBlurInner2" stdDeviation="1.5"/><feOffset dx="2" dy="2" in="shadowBlurInner2" result="shadowOffsetInner2"/><feComposite in="shadowOffsetInner2" in2="SourceAlpha" k2="-1" k3="1" operator="arithmetic" result="shadowInnerInner2"/><feColorMatrix in="shadowInnerInner2" result="shadowMatrixInner2" values="0 0 0 0 1 0 0 0 0 1 0 0 0 0 1 0 0 0 0.5 0"/><feMerge><feMergeNode in="shadowMatrixInner1"/><feMergeNode in="shadowMatrixInner2"/></feMerge></filter><filter id="f" width="149.9%" height="145.3%" x="-24.9%" y="-20.8%" filterUnits="objectBoundingBox"><feMorphology in="SourceAlpha" operator="dilate" radius="4" result="shadowSpreadOuter1"/><feOffset dy="4" in="shadowSpreadOuter1" result="shadowOffsetOuter1"/><feGaussianBlur in="shadowOffsetOuter1" result="shadowBlurOuter1" stdDeviation="12"/><feColorMatrix in="shadowBlurOuter1" result="shadowMatrixOuter1" values="0 0 0 0 0 0 0 0 0 0 0 0 0 0 0 0 0 0 0.1 0"/><feMorphology in="SourceAlpha" radius="1" result="shadowSpreadOuter2"/><feOffset dy="2" in="shadowSpreadOuter2" result="shadowOffsetOuter2"/><feGaussianBlur in="shadowOffsetOuter2" result="shadowBlurOuter2" stdDeviation="4"/><feColorMatrix in="shadowBlurOuter2" result="shadowMatrixOuter2" values="0 0 0 0 0.109803922 0 0 0 0 0.541176471 0 0 0 0 0.956862745 0 0 0 0.4 0"/><feMorphology in="SourceAlpha" radius="1" result="shadowSpreadOuter3"/><feOffset dy="-2" in="shadowSpreadOuter3" result="shadowOffsetOuter3"/><feGaussianBlur in="shadowOffsetOuter3" result="shadowBlurOuter3" stdDeviation="4"/><feColorMatrix in="shadowBlurOuter3" result="shadowMatrixOuter3" values="0 0 0 0 1 0 0 0 0 1 0 0 0 0 1 0 0 0 0.5 0"/><feMerge><feMergeNode in="shadowMatrixOuter1"/><feMergeNode in="shadowMatrixOuter2"/><feMergeNode in="shadowMatrixOuter3"/></feMerge></filter><filter id="g" width="133.9%" height="130.8%" x="-17%" y="-13.6%" filterUnits="objectBoundingBox"><feGaussianBlur in="SourceAlpha" result="shadowBlurInner1" stdDeviation="1.5"/><feOffset dy="1" in="shadowBlurInner1" result="shadowOffsetInner1"/><feComposite in="shadowOffsetInner1" in2="SourceAlpha" k2="-1" k3="1" operator="arithmetic" result="shadowInnerInner1"/><feColorMatrix in="shadowInnerInner1" values="0 0 0 0 1 0 0 0 0 1 0 0 0 0 1 0 0 0 1 0"/></filter><path id="a" d="M166.374834,50 L347.625166,50 C387.743509,50 402.29139,54.1771525 416.958057,62.0209717 C431.624723,69.8647908 443.135209,81.3752767 450.979028,96.0419433 C458.822847,110.70861 463,125.256491 463,165.374834 L463,346.625166 C463,386.743509 458.822847,401.29139 450.979028,415.958057 C443.135209,430.624723 431.624723,442.135209 416.958057,449.979028 C402.29139,457.822847 387.743509,462 347.625166,462 L166.374834,462 C126.256491,462 111.70861,457.822847 97.0419433,449.979028 C82.3752767,442.135209 70.8647908,430.624723 63.0209717,415.958057 C55.1771525,401.29139 51,386.743509 51,346.625166 L51,165.374834 C51,125.256491 55.1771525,110.70861 63.0209717,96.0419433 C70.8647908,81.3752767 82.3752767,69.8647908 97.0419433,62.0209717 C111.70861,54.1771525 126.256491,50 166.374834,50 Z"/><path id="e" d="M172.308535,367.012288 C175.174213,367.012288 177.610502,366.015505 179.617404,364.02194 C181.624306,362.028375 182.627757,359.61557 182.627757,356.783525 L182.627757,295.863238 C184.146995,295.31005 187.207216,294.415323 191.80842,293.179058 C196.409624,291.942792 202.295511,291.324659 209.466083,291.324659 C219.606707,291.324659 229.054396,292.348405 237.809151,294.395898 C246.563905,296.44339 255.084975,298.79502 263.37236,301.450787 C271.659746,304.106554 280.098766,306.458184 288.689419,308.505676 C297.280072,310.553168 306.48045,311.576914 316.290553,311.576914 C321.998713,311.576914 326.803449,311.349029 330.704759,310.893257 C334.60607,310.437486 338.038852,309.752089 341.003106,308.837067 C343.96736,307.922045 346.886964,306.813349 349.761919,305.51098 C353.74441,303.708769 356.85189,301.151868 359.084358,297.840277 C361.316826,294.528686 362.43306,290.284967 362.43306,285.10912 L362.43306,174.066155 C362.43306,170.423463 361.193895,167.557785 358.715566,165.469123 C356.237236,163.380461 353.106562,162.336129 349.323543,162.336129 C346.183012,162.336129 341.939583,163.050809 336.593256,164.480169 C331.24693,165.909528 324.078678,166.624208 315.0885,166.624208 C305.400168,166.624208 296.267633,165.600462 287.690897,163.55297 C279.11416,161.505477 270.665283,159.138771 262.344265,156.452851 C254.023248,153.766931 245.464777,151.415301 236.668852,149.397962 C227.872928,147.380622 218.404653,146.371953 208.264029,146.371953 C202.624293,146.371953 197.872615,146.596359 194.008995,147.045172 C190.145376,147.493985 186.72796,148.175903 183.756748,149.090925 C180.785536,150.005947 177.801567,151.134938 174.804841,152.477898 C170.896572,154.266192 167.790542,156.697263 165.486751,159.771111 C163.182959,162.844958 162.031064,166.905441 162.031064,171.952558 L162.031064,356.783525 C162.031064,359.541348 163.042923,361.935597 165.066641,363.966273 C167.090359,365.99695 169.504323,367.012288 172.308535,367.012288 Z M315.902626,290.785388 C306.842864,290.785388 298.180018,289.764831 289.914087,287.723717 C281.648156,285.682604 273.36338,283.341121 265.059758,280.699271 C256.756137,278.05742 248.09677,275.715938 239.081657,273.674824 C230.066545,271.633711 220.303701,270.613154 209.793125,270.613154 C204.347063,270.613154 199.261094,270.918161 194.53522,271.528176 C189.809346,272.13819 185.989796,273.006244 183.07657,274.132335 L183.07657,174.734156 C184.022905,173.095466 186.609668,171.410388 190.836861,169.67892 C195.064054,167.947453 200.982124,167.081719 208.591071,167.081719 C218.115882,167.081719 227.127515,168.105755 235.625971,170.153827 C244.124426,172.201899 252.525465,174.54657 260.829086,177.187841 C269.132708,179.829112 277.679292,182.170304 286.468838,184.211418 C295.258384,186.252532 304.668962,187.273089 314.700572,187.273089 C320.147794,187.273089 325.123009,186.990116 329.626216,186.424171 C334.129423,185.858226 338.080022,185.110204 341.478013,184.180105 L341.478013,283.214711 C340.559511,284.866158 337.973038,286.540799 333.718591,288.238635 C329.464145,289.93647 323.52549,290.785388 315.902626,290.785388 Z"/><linearGradient id="c" x1="0%" x2="0%" y1="100%" y2="0%"><stop offset="0%" stop-color="#1BC9FC"/><stop offset="100%" stop-color="#1C70F1"/></linearGradient></defs><g fill="none" fill-rule="evenodd"><g fill-rule="nonzero"><use xlink:href="#a" fill="#000" filter="url(#b)"/><use xlink:href="#a" fill="url(#c)"/><use xlink:href="#a" fill="#000" filter="url(#d)"/></g><g fill-rule="nonzero"><use xlink:href="#e" fill="#000" filter="url(#f)"/><use xlink:href="#e" fill="#F5FCFF"/><use xlink:href="#e" fill="#000" filter="url(#g)"/></g></g></svg>