<svg xmlns="http://www.w3.org/2000/svg" xmlns:xlink="http://www.w3.org/1999/xlink" width="512" height="512" viewBox="0 0 512 512"><defs><filter id="b" width="129.1%" height="129.1%" x="-14.6%" y="-14.6%" filterUnits="objectBoundingBox"><feOffset in="SourceAlpha" result="shadowOffsetOuter1"/><feGaussianBlur in="shadowOffsetOuter1" result="shadowBlurOuter1" stdDeviation="20"/><feColorMatrix in="shadowBlurOuter1" values="0 0 0 0 1 0 0 0 0 1 0 0 0 0 1 0 0 0 0.5 0"/></filter><filter id="d" width="120.4%" height="120.4%" x="-10.2%" y="-10.2%" filterUnits="objectBoundingBox"><feMorphology in="SourceAlpha" operator="dilate" radius="1" result="shadowSpreadInner1"/><feGaussianBlur in="shadowSpreadInner1" result="shadowBlurInner1" stdDeviation="1.5"/><feOffset dx="-1" dy="-2" in="shadowBlurInner1" result="shadowOffsetInner1"/><feComposite in="shadowOffsetInner1" in2="SourceAlpha" k2="-1" k3="1" operator="arithmetic" result="shadowInnerInner1"/><feColorMatrix in="shadowInnerInner1" result="shadowMatrixInner1" values="0 0 0 0 0 0 0 0 0 0 0 0 0 0 0 0 0 0 0.2 0"/><feMorphology in="SourceAlpha" operator="dilate" radius="1" result="shadowSpreadInner2"/><feGaussianBlur in="shadowSpreadInner2" result="shadowBlurInner2" stdDeviation="1.5"/><feOffset dx="2" dy="2" in="shadowBlurInner2" result="shadowOffsetInner2"/><feComposite in="shadowOffsetInner2" in2="SourceAlpha" k2="-1" k3="1" operator="arithmetic" result="shadowInnerInner2"/><feColorMatrix in="shadowInnerInner2" result="shadowMatrixInner2" values="0 0 0 0 1 0 0 0 0 1 0 0 0 0 1 0 0 0 0.5 0"/><feMerge><feMergeNode in="shadowMatrixInner1"/><feMergeNode in="shadowMatrixInner2"/></feMerge></filter><filter id="f" width="141.5%" height="148.3%" x="-20.7%" y="-22.2%" filterUnits="objectBoundingBox"><feMorphology in="SourceAlpha" operator="dilate" radius="4" result="shadowSpreadOuter1"/><feOffset dy="4" in="shadowSpreadOuter1" result="shadowOffsetOuter1"/><feGaussianBlur in="shadowOffsetOuter1" result="shadowBlurOuter1" stdDeviation="12"/><feColorMatrix in="shadowBlurOuter1" result="shadowMatrixOuter1" values="0 0 0 0 0 0 0 0 0 0 0 0 0 0 0 0 0 0 0.1 0"/><feMorphology in="SourceAlpha" radius="1" result="shadowSpreadOuter2"/><feOffset dy="2" in="shadowSpreadOuter2" result="shadowOffsetOuter2"/><feGaussianBlur in="shadowOffsetOuter2" result="shadowBlurOuter2" stdDeviation="4"/><feColorMatrix in="shadowBlurOuter2" result="shadowMatrixOuter2" values="0 0 0 0 0.109803922 0 0 0 0 0.541176471 0 0 0 0 0.956862745 0 0 0 0.4 0"/><feMorphology in="SourceAlpha" radius="1" result="shadowSpreadOuter3"/><feOffset dy="-2" in="shadowSpreadOuter3" result="shadowOffsetOuter3"/><feGaussianBlur in="shadowOffsetOuter3" result="shadowBlurOuter3" stdDeviation="4"/><feColorMatrix in="shadowBlurOuter3" result="shadowMatrixOuter3" values="0 0 0 0 1 0 0 0 0 1 0 0 0 0 1 0 0 0 0.5 0"/><feMerge><feMergeNode in="shadowMatrixOuter1"/><feMergeNode in="shadowMatrixOuter2"/><feMergeNode in="shadowMatrixOuter3"/></feMerge></filter><filter id="g" width="128.2%" height="132.8%" x="-14.1%" y="-14.5%" filterUnits="objectBoundingBox"><feGaussianBlur in="SourceAlpha" result="shadowBlurInner1" stdDeviation="1.5"/><feOffset dy="1" in="shadowBlurInner1" result="shadowOffsetInner1"/><feComposite in="shadowOffsetInner1" in2="SourceAlpha" k2="-1" k3="1" operator="arithmetic" result="shadowInnerInner1"/><feColorMatrix in="shadowInnerInner1" values="0 0 0 0 1 0 0 0 0 1 0 0 0 0 1 0 0 0 1 0"/></filter><path id="a" d="M166.374834,50 L347.625166,50 C387.743509,50 402.29139,54.1771525 416.958057,62.0209717 C431.624723,69.8647908 443.135209,81.3752767 450.979028,96.0419433 C458.822847,110.70861 463,125.256491 463,165.374834 L463,346.625166 C463,386.743509 458.822847,401.29139 450.979028,415.958057 C443.135209,430.624723 431.624723,442.135209 416.958057,449.979028 C402.29139,457.822847 387.743509,462 347.625166,462 L166.374834,462 C126.256491,462 111.70861,457.822847 97.0419433,449.979028 C82.3752767,442.135209 70.8647908,430.624723 63.0209717,415.958057 C55.1771525,401.29139 51,386.743509 51,346.625166 L51,165.374834 C51,125.256491 55.1771525,110.70861 63.0209717,96.0419433 C70.8647908,81.3752767 82.3752767,69.8647908 97.0419433,62.0209717 C111.70861,54.1771525 126.256491,50 166.374834,50 Z"/><path id="e" d="M271.567793,360.184414 C274.526248,360.184414 277.310165,359.561353 279.919543,358.31523 C282.528921,357.069106 285.291963,355.075831 288.208668,352.335404 L376.337812,269.534611 C378.53085,267.490018 380.079661,265.323074 380.984245,263.033779 C381.88883,260.744485 382.341122,258.607114 382.341122,256.621667 C382.341122,254.534164 381.892019,252.359392 380.993813,250.097351 C380.095607,247.83531 378.549985,245.681993 376.356948,243.6374 L288.208668,161.473295 C284.995074,158.448736 282.177815,156.2902 279.756892,154.997688 C277.335968,153.705176 274.667154,153.05892 271.750449,153.05892 C267.326103,153.05892 263.68718,154.561632 260.83368,157.567056 C257.98018,160.57248 256.55343,164.195746 256.55343,168.436856 L256.55343,208.33773 L253.794447,208.33773 C234.536075,208.33773 217.821847,211.322569 203.651763,217.292247 C189.481679,223.261925 177.779777,231.916943 168.546056,243.257301 C159.312336,254.597659 152.436624,268.307623 147.918921,284.387192 C143.401217,300.466761 141.142365,318.609479 141.142365,338.815345 C141.142365,345.68091 142.454302,350.880531 145.078177,354.414209 C147.702052,357.947887 150.933912,359.714726 154.773757,359.714726 C157.666108,359.714726 160.444227,359.085866 163.108112,357.828146 C165.771997,356.570425 168.177844,353.921906 170.325652,349.882589 C176.184577,338.908123 183.001143,330.154819 190.775351,323.622675 C198.549558,317.090531 207.598593,312.383502 217.922453,309.501589 C228.246313,306.619676 240.203645,305.178719 253.794447,305.178719 L256.55343,305.178719 L256.55343,345.279645 C256.55343,349.568303 257.98018,353.124596 260.83368,355.948523 C263.68718,358.772451 267.265218,360.184414 271.567793,360.184414 Z M278.54701,331.797857 C277.439474,331.797857 276.885706,331.20002 276.885706,330.004344 L276.885706,288.694406 C276.885706,286.271743 275.674954,285.060412 273.253451,285.060412 L258.967974,285.060412 C233.361275,285.060412 212.429422,288.950995 196.172415,296.732161 C179.915408,304.513327 168.452699,315.33326 161.784287,329.191958 C161.635843,329.549153 161.487398,329.817049 161.338953,329.995646 C161.190509,330.174244 160.981759,330.263543 160.712703,330.263543 C160.193146,330.263543 159.933368,329.876195 159.933368,329.101499 C160.310278,318.553812 161.679912,308.327079 164.042269,298.421299 C166.404627,288.515519 169.993102,279.310212 174.807695,270.805378 C179.622288,262.300544 185.834638,254.863816 193.444745,248.495193 C201.054852,242.12657 210.262768,237.163823 221.068494,233.60695 C231.874219,230.050077 244.507379,228.271641 258.967974,228.271641 L273.253451,228.271641 C275.674954,228.271641 276.885706,227.06089 276.885706,224.639386 L276.885706,182.419645 C276.885706,181.312109 277.469627,180.758341 278.637468,180.758341 C278.934358,180.758341 279.243134,180.840971 279.563798,181.006232 C279.884461,181.171492 280.193238,181.365456 280.490127,181.588123 L356.779652,254.546341 C357.507958,255.288565 357.872112,255.98034 357.872112,256.621667 C357.872112,256.918556 357.797889,257.230522 357.649445,257.557564 C357.501,257.884606 357.211069,258.263836 356.779652,258.695253 L280.399669,330.814991 C279.818647,331.470235 279.201094,331.797857 278.54701,331.797857 Z"/><linearGradient id="c" x1="0%" x2="0%" y1="100%" y2="0%"><stop offset="0%" stop-color="#1BC9FC"/><stop offset="100%" stop-color="#1C70F1"/></linearGradient></defs><g fill="none" fill-rule="evenodd"><g fill-rule="nonzero"><use xlink:href="#a" fill="#000" filter="url(#b)"/><use xlink:href="#a" fill="url(#c)"/><use xlink:href="#a" fill="#000" filter="url(#d)"/></g><g fill-rule="nonzero"><use xlink:href="#e" fill="#000" filter="url(#f)"/><use xlink:href="#e" fill="#F5FCFF"/><use xlink:href="#e" fill="#000" filter="url(#g)"/></g></g></svg>