<svg xmlns="http://www.w3.org/2000/svg" xmlns:xlink="http://www.w3.org/1999/xlink" width="512" height="512" viewBox="0 0 512 512"><defs><filter id="b" width="129.1%" height="129.1%" x="-14.6%" y="-14.6%" filterUnits="objectBoundingBox"><feOffset in="SourceAlpha" result="shadowOffsetOuter1"/><feGaussianBlur in="shadowOffsetOuter1" result="shadowBlurOuter1" stdDeviation="20"/><feColorMatrix in="shadowBlurOuter1" values="0 0 0 0 1 0 0 0 0 1 0 0 0 0 1 0 0 0 0.5 0"/></filter><filter id="d" width="120.4%" height="120.4%" x="-10.2%" y="-10.2%" filterUnits="objectBoundingBox"><feMorphology in="SourceAlpha" operator="dilate" radius="1" result="shadowSpreadInner1"/><feGaussianBlur in="shadowSpreadInner1" result="shadowBlurInner1" stdDeviation="1.5"/><feOffset dx="-1" dy="-2" in="shadowBlurInner1" result="shadowOffsetInner1"/><feComposite in="shadowOffsetInner1" in2="SourceAlpha" k2="-1" k3="1" operator="arithmetic" result="shadowInnerInner1"/><feColorMatrix in="shadowInnerInner1" result="shadowMatrixInner1" values="0 0 0 0 0 0 0 0 0 0 0 0 0 0 0 0 0 0 0.2 0"/><feMorphology in="SourceAlpha" operator="dilate" radius="1" result="shadowSpreadInner2"/><feGaussianBlur in="shadowSpreadInner2" result="shadowBlurInner2" stdDeviation="1.5"/><feOffset dx="2" dy="2" in="shadowBlurInner2" result="shadowOffsetInner2"/><feComposite in="shadowOffsetInner2" in2="SourceAlpha" k2="-1" k3="1" operator="arithmetic" result="shadowInnerInner2"/><feColorMatrix in="shadowInnerInner2" result="shadowMatrixInner2" values="0 0 0 0 1 0 0 0 0 1 0 0 0 0 1 0 0 0 0.5 0"/><feMerge><feMergeNode in="shadowMatrixInner1"/><feMergeNode in="shadowMatrixInner2"/></feMerge></filter><filter id="f" width="150.3%" height="141.3%" x="-25.1%" y="-19%" filterUnits="objectBoundingBox"><feMorphology in="SourceAlpha" operator="dilate" radius="4" result="shadowSpreadOuter1"/><feOffset dy="4" in="shadowSpreadOuter1" result="shadowOffsetOuter1"/><feGaussianBlur in="shadowOffsetOuter1" result="shadowBlurOuter1" stdDeviation="12"/><feColorMatrix in="shadowBlurOuter1" result="shadowMatrixOuter1" values="0 0 0 0 0 0 0 0 0 0 0 0 0 0 0 0 0 0 0.1 0"/><feMorphology in="SourceAlpha" radius="1" result="shadowSpreadOuter2"/><feOffset dy="2" in="shadowSpreadOuter2" result="shadowOffsetOuter2"/><feGaussianBlur in="shadowOffsetOuter2" result="shadowBlurOuter2" stdDeviation="4"/><feColorMatrix in="shadowBlurOuter2" result="shadowMatrixOuter2" values="0 0 0 0 0.109803922 0 0 0 0 0.541176471 0 0 0 0 0.956862745 0 0 0 0.4 0"/><feMorphology in="SourceAlpha" radius="1" result="shadowSpreadOuter3"/><feOffset dy="-2" in="shadowSpreadOuter3" result="shadowOffsetOuter3"/><feGaussianBlur in="shadowOffsetOuter3" result="shadowBlurOuter3" stdDeviation="4"/><feColorMatrix in="shadowBlurOuter3" result="shadowMatrixOuter3" values="0 0 0 0 1 0 0 0 0 1 0 0 0 0 1 0 0 0 0.5 0"/><feMerge><feMergeNode in="shadowMatrixOuter1"/><feMergeNode in="shadowMatrixOuter2"/><feMergeNode in="shadowMatrixOuter3"/></feMerge></filter><filter id="g" width="134.2%" height="128.1%" x="-17.1%" y="-12.4%" filterUnits="objectBoundingBox"><feGaussianBlur in="SourceAlpha" result="shadowBlurInner1" stdDeviation="1.5"/><feOffset dy="1" in="shadowBlurInner1" result="shadowOffsetInner1"/><feComposite in="shadowOffsetInner1" in2="SourceAlpha" k2="-1" k3="1" operator="arithmetic" result="shadowInnerInner1"/><feColorMatrix in="shadowInnerInner1" values="0 0 0 0 1 0 0 0 0 1 0 0 0 0 1 0 0 0 1 0"/></filter><path id="a" d="M166.374834,50 L347.625166,50 C387.743509,50 402.29139,54.1771525 416.958057,62.0209717 C431.624723,69.8647908 443.135209,81.3752767 450.979028,96.0419433 C458.822847,110.70861 463,125.256491 463,165.374834 L463,346.625166 C463,386.743509 458.822847,401.29139 450.979028,415.958057 C443.135209,430.624723 431.624723,442.135209 416.958057,449.979028 C402.29139,457.822847 387.743509,462 347.625166,462 L166.374834,462 C126.256491,462 111.70861,457.822847 97.0419433,449.979028 C82.3752767,442.135209 70.8647908,430.624723 63.0209717,415.958057 C55.1771525,401.29139 51,386.743509 51,346.625166 L51,165.374834 C51,125.256491 55.1771525,110.70861 63.0209717,96.0419433 C70.8647908,81.3752767 82.3752767,69.8647908 97.0419433,62.0209717 C111.70861,54.1771525 126.256491,50 166.374834,50 Z"/><path id="e" d="M157.119371,264.474156 C157.119371,278.327056 159.692218,291.274501 164.837912,303.316492 C169.983606,315.358484 177.097932,325.939513 186.180888,335.05958 C195.263844,344.179647 205.826317,351.297452 217.868308,356.412993 C229.9103,361.528534 242.827592,364.086305 256.620186,364.086305 C270.352475,364.086305 283.236135,361.528534 295.271168,356.412993 C307.306201,351.297452 317.883751,344.179647 327.003818,335.05958 C336.123885,325.939513 343.23821,315.358484 348.346793,303.316492 C353.455376,291.274501 356.009668,278.327056 356.009668,264.474156 C356.009668,261.189819 354.972295,258.495201 352.897549,256.390302 C350.822803,254.285404 348.140363,253.232954 344.850226,253.232954 C341.620396,253.232954 339.035662,254.285404 337.096024,256.390302 C335.156386,258.495201 334.186567,261.189819 334.186567,264.474156 C334.186567,275.259587 332.179665,285.355561 328.165861,294.76208 C324.152057,304.168599 318.596981,312.43511 311.500632,319.561612 C304.404282,326.688114 296.168214,332.242901 286.792428,336.225972 C277.416642,340.209043 267.359228,342.200579 256.620186,342.200579 C245.820839,342.200579 235.732982,340.209043 226.356616,336.225972 C216.98025,332.242901 208.747371,326.688114 201.65798,319.561612 C194.568589,312.43511 189.020471,304.168599 185.013626,294.76208 C181.00678,285.355561 179.003358,275.259587 179.003358,264.474156 C179.003358,253.653934 180.993154,243.538824 184.972745,234.128826 C188.952337,224.718827 194.463054,216.465654 201.504897,209.369304 C208.546739,202.272955 216.738738,196.721358 226.080892,192.714512 C235.423046,188.707667 245.486839,186.704244 256.272269,186.704244 C259.904524,186.704244 263.396742,186.859067 266.748923,187.168713 C270.101105,187.47836 273.192638,187.93645 276.023524,188.542986 L245.735599,218.49691 C244.782306,219.523265 244.031965,220.649357 243.484576,221.875185 C242.937186,223.101013 242.663491,224.450931 242.663491,225.92494 C242.663491,228.951819 243.700864,231.499152 245.77561,233.56694 C247.850356,235.634727 250.371015,236.668621 253.337588,236.668621 C256.51987,236.668621 259.060245,235.658501 260.958713,233.638263 L306.685459,187.567078 C307.840544,186.411994 308.691781,185.165291 309.23917,183.82697 C309.78656,182.488648 310.060255,181.05291 310.060255,179.519756 C310.060255,176.465043 308.935323,173.788981 306.685459,171.491568 L260.958713,125.056811 C258.986023,122.934516 256.445648,121.873369 253.337588,121.873369 C250.310709,121.873369 247.774973,122.929298 245.730381,125.041155 C243.685788,127.153011 242.663491,129.75949 242.663491,132.860592 C242.663491,134.273135 242.92211,135.607687 243.439346,136.864248 C243.956583,138.120809 244.691848,139.262267 245.645141,140.288622 L272.523477,166.813823 C270.064863,166.329058 267.466212,165.946929 264.727525,165.667436 C261.988837,165.387942 259.170419,165.248196 256.272269,165.248196 C242.493592,165.248196 229.603553,167.810605 217.602152,172.935424 C205.600751,178.060243 195.075679,185.150504 186.026934,194.206207 C176.97819,203.261909 169.898077,213.800609 164.786595,225.822305 C159.675112,237.844001 157.119371,250.727951 157.119371,264.474156 Z"/><linearGradient id="c" x1="0%" x2="0%" y1="100%" y2="0%"><stop offset="0%" stop-color="#1BC9FC"/><stop offset="100%" stop-color="#1C70F1"/></linearGradient></defs><g fill="none" fill-rule="evenodd"><g fill-rule="nonzero"><use xlink:href="#a" fill="#000" filter="url(#b)"/><use xlink:href="#a" fill="url(#c)"/><use xlink:href="#a" fill="#000" filter="url(#d)"/></g><g fill-rule="nonzero"><use xlink:href="#e" fill="#000" filter="url(#f)"/><use xlink:href="#e" fill="#F5FCFF"/><use xlink:href="#e" fill="#000" filter="url(#g)"/></g></g></svg>