<svg xmlns="http://www.w3.org/2000/svg" xmlns:xlink="http://www.w3.org/1999/xlink" width="512" height="512" viewBox="0 0 512 512"><defs><filter id="b" width="129.1%" height="129.1%" x="-14.6%" y="-14.6%" filterUnits="objectBoundingBox"><feOffset in="SourceAlpha" result="shadowOffsetOuter1"/><feGaussianBlur in="shadowOffsetOuter1" result="shadowBlurOuter1" stdDeviation="20"/><feColorMatrix in="shadowBlurOuter1" values="0 0 0 0 1 0 0 0 0 1 0 0 0 0 1 0 0 0 0.5 0"/></filter><filter id="d" width="120.4%" height="120.4%" x="-10.2%" y="-10.2%" filterUnits="objectBoundingBox"><feMorphology in="SourceAlpha" operator="dilate" radius="1" result="shadowSpreadInner1"/><feGaussianBlur in="shadowSpreadInner1" result="shadowBlurInner1" stdDeviation="1.5"/><feOffset dx="-1" dy="-2" in="shadowBlurInner1" result="shadowOffsetInner1"/><feComposite in="shadowOffsetInner1" in2="SourceAlpha" k2="-1" k3="1" operator="arithmetic" result="shadowInnerInner1"/><feColorMatrix in="shadowInnerInner1" result="shadowMatrixInner1" values="0 0 0 0 0 0 0 0 0 0 0 0 0 0 0 0 0 0 0.2 0"/><feMorphology in="SourceAlpha" operator="dilate" radius="1" result="shadowSpreadInner2"/><feGaussianBlur in="shadowSpreadInner2" result="shadowBlurInner2" stdDeviation="1.5"/><feOffset dx="2" dy="2" in="shadowBlurInner2" result="shadowOffsetInner2"/><feComposite in="shadowOffsetInner2" in2="SourceAlpha" k2="-1" k3="1" operator="arithmetic" result="shadowInnerInner2"/><feColorMatrix in="shadowInnerInner2" result="shadowMatrixInner2" values="0 0 0 0 1 0 0 0 0 1 0 0 0 0 1 0 0 0 0.5 0"/><feMerge><feMergeNode in="shadowMatrixInner1"/><feMergeNode in="shadowMatrixInner2"/></feMerge></filter><filter id="f" width="137.6%" height="151.2%" x="-18.8%" y="-23.6%" filterUnits="objectBoundingBox"><feMorphology in="SourceAlpha" operator="dilate" radius="4" result="shadowSpreadOuter1"/><feOffset dy="4" in="shadowSpreadOuter1" result="shadowOffsetOuter1"/><feGaussianBlur in="shadowOffsetOuter1" result="shadowBlurOuter1" stdDeviation="12"/><feColorMatrix in="shadowBlurOuter1" result="shadowMatrixOuter1" values="0 0 0 0 0 0 0 0 0 0 0 0 0 0 0 0 0 0 0.1 0"/><feMorphology in="SourceAlpha" radius="1" result="shadowSpreadOuter2"/><feOffset dy="2" in="shadowSpreadOuter2" result="shadowOffsetOuter2"/><feGaussianBlur in="shadowOffsetOuter2" result="shadowBlurOuter2" stdDeviation="4"/><feColorMatrix in="shadowBlurOuter2" result="shadowMatrixOuter2" values="0 0 0 0 0.109803922 0 0 0 0 0.541176471 0 0 0 0 0.956862745 0 0 0 0.4 0"/><feMorphology in="SourceAlpha" radius="1" result="shadowSpreadOuter3"/><feOffset dy="-2" in="shadowSpreadOuter3" result="shadowOffsetOuter3"/><feGaussianBlur in="shadowOffsetOuter3" result="shadowBlurOuter3" stdDeviation="4"/><feColorMatrix in="shadowBlurOuter3" result="shadowMatrixOuter3" values="0 0 0 0 1 0 0 0 0 1 0 0 0 0 1 0 0 0 0.5 0"/><feMerge><feMergeNode in="shadowMatrixOuter1"/><feMergeNode in="shadowMatrixOuter2"/><feMergeNode in="shadowMatrixOuter3"/></feMerge></filter><filter id="g" width="125.5%" height="134.8%" x="-12.8%" y="-15.4%" filterUnits="objectBoundingBox"><feGaussianBlur in="SourceAlpha" result="shadowBlurInner1" stdDeviation="1.5"/><feOffset dy="1" in="shadowBlurInner1" result="shadowOffsetInner1"/><feComposite in="shadowOffsetInner1" in2="SourceAlpha" k2="-1" k3="1" operator="arithmetic" result="shadowInnerInner1"/><feColorMatrix in="shadowInnerInner1" values="0 0 0 0 1 0 0 0 0 1 0 0 0 0 1 0 0 0 1 0"/></filter><path id="a" d="M166.374834,50 L347.625166,50 C387.743509,50 402.29139,54.1771525 416.958057,62.0209717 C431.624723,69.8647908 443.135209,81.3752767 450.979028,96.0419433 C458.822847,110.70861 463,125.256491 463,165.374834 L463,346.625166 C463,386.743509 458.822847,401.29139 450.979028,415.958057 C443.135209,430.624723 431.624723,442.135209 416.958057,449.979028 C402.29139,457.822847 387.743509,462 347.625166,462 L166.374834,462 C126.256491,462 111.70861,457.822847 97.0419433,449.979028 C82.3752767,442.135209 70.8647908,430.624723 63.0209717,415.958057 C55.1771525,401.29139 51,386.743509 51,346.625166 L51,165.374834 C51,125.256491 55.1771525,110.70861 63.0209717,96.0419433 C70.8647908,81.3752767 82.3752767,69.8647908 97.0419433,62.0209717 C111.70861,54.1771525 126.256491,50 166.374834,50 Z"/><path id="e" d="M276.915904,178.342056 C279.665609,178.342056 282.013469,177.342084 283.959486,175.342141 C285.905502,173.342197 286.87851,170.956936 286.87851,168.186356 C286.87851,165.436651 285.908981,163.071974 283.969923,161.092326 C282.030865,159.112677 279.679525,158.122853 276.915904,158.122853 L133.525345,158.122853 C130.748966,158.122853 128.379361,159.109198 126.416529,161.081888 C124.453696,163.054578 123.47228,165.422734 123.47228,168.186356 C123.47228,170.983609 124.456885,173.375539 126.426096,175.362146 C128.395307,177.348753 130.761723,178.342056 133.525345,178.342056 L276.915904,178.342056 Z M276.915904,236.701673 C279.665609,236.701673 282.013469,235.698222 283.959486,233.69132 C285.905502,231.684418 286.87851,229.295677 286.87851,226.525097 C286.87851,223.729003 285.908981,221.352729 283.969923,219.396276 C282.030865,217.439822 279.679525,216.461595 276.915904,216.461595 L133.525345,216.461595 C130.748966,216.461595 128.379361,217.432863 126.416529,219.3754 C124.453696,221.317938 123.47228,223.70117 123.47228,226.525097 C123.47228,229.322351 124.456885,231.71776 126.426096,233.711325 C128.395307,235.70489 130.761723,236.701673 133.525345,236.701673 L276.915904,236.701673 Z M276.915904,295.082164 C279.665609,295.082164 282.013469,294.078423 283.959486,292.070942 C285.905502,290.06346 286.87851,287.675009 286.87851,284.905589 C286.87851,282.108335 285.908981,279.731481 283.969923,277.775027 C282.030865,275.818574 279.679525,274.840347 276.915904,274.840347 L133.525345,274.840347 C130.748966,274.840347 128.379361,275.811905 126.416529,277.755022 C124.453696,279.698139 123.47228,282.081661 123.47228,284.905589 C123.47228,287.702842 124.456885,290.098252 126.426096,292.091817 C128.395307,294.085382 130.761723,295.082164 133.525345,295.082164 L276.915904,295.082164 Z M217.656922,353.328708 C220.454175,353.328708 222.810444,352.343812 224.725728,350.374022 C226.641011,348.404231 227.598653,346.034625 227.598653,343.265205 C227.598653,340.454035 226.6442,338.055146 224.735295,336.06854 C222.82639,334.081933 220.466932,333.08863 217.656922,333.08863 L133.525345,333.08863 C130.748966,333.08863 128.379361,334.075265 126.416529,336.048534 C124.453696,338.021804 123.47228,340.427361 123.47228,343.265205 C123.47228,346.048542 124.456885,348.421627 126.426096,350.384459 C128.395307,352.347291 130.761723,353.328708 133.525345,353.328708 L217.656922,353.328708 Z M371.431067,292.11965 C374.238758,293.996083 377.058626,294.93111 379.890671,294.924764 C382.722716,294.918353 385.0584,294.002171 386.897722,292.176187 C388.737044,290.350202 389.656705,287.692405 389.656705,284.202796 L389.656705,228.878756 C389.656705,223.525472 387.727794,220.09124 383.869973,218.576061 C380.012152,217.060882 375.86585,217.818471 371.431067,220.848829 L332.845319,247.104394 C330.596615,248.656105 329.080856,250.636913 328.298043,253.046819 C327.515229,255.456725 327.493484,257.885186 328.232808,260.332203 C328.972132,262.77922 330.509636,264.785542 332.845319,266.351169 L371.431067,292.11965 Z"/><linearGradient id="c" x1="0%" x2="0%" y1="100%" y2="0%"><stop offset="0%" stop-color="#1BC9FC"/><stop offset="100%" stop-color="#1C70F1"/></linearGradient></defs><g fill="none" fill-rule="evenodd"><g fill-rule="nonzero"><use xlink:href="#a" fill="#000" filter="url(#b)"/><use xlink:href="#a" fill="url(#c)"/><use xlink:href="#a" fill="#000" filter="url(#d)"/></g><g fill-rule="nonzero"><use xlink:href="#e" fill="#000" filter="url(#f)"/><use xlink:href="#e" fill="#F5FCFF"/><use xlink:href="#e" fill="#000" filter="url(#g)"/></g></g></svg>