<svg xmlns="http://www.w3.org/2000/svg" xmlns:xlink="http://www.w3.org/1999/xlink" width="512" height="512" viewBox="0 0 512 512"><defs><filter id="b" width="129.1%" height="129.1%" x="-14.6%" y="-14.6%" filterUnits="objectBoundingBox"><feOffset in="SourceAlpha" result="shadowOffsetOuter1"/><feGaussianBlur in="shadowOffsetOuter1" result="shadowBlurOuter1" stdDeviation="20"/><feColorMatrix in="shadowBlurOuter1" values="0 0 0 0 1 0 0 0 0 1 0 0 0 0 1 0 0 0 0.5 0"/></filter><filter id="d" width="120.4%" height="120.4%" x="-10.2%" y="-10.2%" filterUnits="objectBoundingBox"><feMorphology in="SourceAlpha" operator="dilate" radius="1" result="shadowSpreadInner1"/><feGaussianBlur in="shadowSpreadInner1" result="shadowBlurInner1" stdDeviation="1.5"/><feOffset dx="-1" dy="-2" in="shadowBlurInner1" result="shadowOffsetInner1"/><feComposite in="shadowOffsetInner1" in2="SourceAlpha" k2="-1" k3="1" operator="arithmetic" result="shadowInnerInner1"/><feColorMatrix in="shadowInnerInner1" result="shadowMatrixInner1" values="0 0 0 0 0 0 0 0 0 0 0 0 0 0 0 0 0 0 0.2 0"/><feMorphology in="SourceAlpha" operator="dilate" radius="1" result="shadowSpreadInner2"/><feGaussianBlur in="shadowSpreadInner2" result="shadowBlurInner2" stdDeviation="1.5"/><feOffset dx="2" dy="2" in="shadowBlurInner2" result="shadowOffsetInner2"/><feComposite in="shadowOffsetInner2" in2="SourceAlpha" k2="-1" k3="1" operator="arithmetic" result="shadowInnerInner2"/><feColorMatrix in="shadowInnerInner2" result="shadowMatrixInner2" values="0 0 0 0 1 0 0 0 0 1 0 0 0 0 1 0 0 0 0.5 0"/><feMerge><feMergeNode in="shadowMatrixInner1"/><feMergeNode in="shadowMatrixInner2"/></feMerge></filter><filter id="f" width="137.7%" height="151.2%" x="-18.8%" y="-23.6%" filterUnits="objectBoundingBox"><feMorphology in="SourceAlpha" operator="dilate" radius="4" result="shadowSpreadOuter1"/><feOffset dy="4" in="shadowSpreadOuter1" result="shadowOffsetOuter1"/><feGaussianBlur in="shadowOffsetOuter1" result="shadowBlurOuter1" stdDeviation="12"/><feColorMatrix in="shadowBlurOuter1" result="shadowMatrixOuter1" values="0 0 0 0 0 0 0 0 0 0 0 0 0 0 0 0 0 0 0.1 0"/><feMorphology in="SourceAlpha" radius="1" result="shadowSpreadOuter2"/><feOffset dy="2" in="shadowSpreadOuter2" result="shadowOffsetOuter2"/><feGaussianBlur in="shadowOffsetOuter2" result="shadowBlurOuter2" stdDeviation="4"/><feColorMatrix in="shadowBlurOuter2" result="shadowMatrixOuter2" values="0 0 0 0 0.109803922 0 0 0 0 0.541176471 0 0 0 0 0.956862745 0 0 0 0.4 0"/><feMorphology in="SourceAlpha" radius="1" result="shadowSpreadOuter3"/><feOffset dy="-2" in="shadowSpreadOuter3" result="shadowOffsetOuter3"/><feGaussianBlur in="shadowOffsetOuter3" result="shadowBlurOuter3" stdDeviation="4"/><feColorMatrix in="shadowBlurOuter3" result="shadowMatrixOuter3" values="0 0 0 0 1 0 0 0 0 1 0 0 0 0 1 0 0 0 0.5 0"/><feMerge><feMergeNode in="shadowMatrixOuter1"/><feMergeNode in="shadowMatrixOuter2"/><feMergeNode in="shadowMatrixOuter3"/></feMerge></filter><filter id="g" width="125.6%" height="134.8%" x="-12.8%" y="-15.4%" filterUnits="objectBoundingBox"><feGaussianBlur in="SourceAlpha" result="shadowBlurInner1" stdDeviation="1.5"/><feOffset dy="1" in="shadowBlurInner1" result="shadowOffsetInner1"/><feComposite in="shadowOffsetInner1" in2="SourceAlpha" k2="-1" k3="1" operator="arithmetic" result="shadowInnerInner1"/><feColorMatrix in="shadowInnerInner1" values="0 0 0 0 1 0 0 0 0 1 0 0 0 0 1 0 0 0 1 0"/></filter><path id="a" d="M166.374834,50 L347.625166,50 C387.743509,50 402.29139,54.1771525 416.958057,62.0209717 C431.624723,69.8647908 443.135209,81.3752767 450.979028,96.0419433 C458.822847,110.70861 463,125.256491 463,165.374834 L463,346.625166 C463,386.743509 458.822847,401.29139 450.979028,415.958057 C443.135209,430.624723 431.624723,442.135209 416.958057,449.979028 C402.29139,457.822847 387.743509,462 347.625166,462 L166.374834,462 C126.256491,462 111.70861,457.822847 97.0419433,449.979028 C82.3752767,442.135209 70.8647908,430.624723 63.0209717,415.958057 C55.1771525,401.29139 51,386.743509 51,346.625166 L51,165.374834 C51,125.256491 55.1771525,110.70861 63.0209717,96.0419433 C70.8647908,81.3752767 82.3752767,69.8647908 97.0419433,62.0209717 C111.70861,54.1771525 126.256491,50 166.374834,50 Z"/><path id="e" d="M235.974404,178.342056 L379.29538,178.342056 C382.045084,178.342056 384.404542,177.348753 386.373753,175.362146 C388.342964,173.375539 389.32757,170.983609 389.32757,168.186356 C389.32757,165.422734 388.346443,163.054578 386.384191,161.081888 C384.421938,159.109198 382.059001,158.122853 379.29538,158.122853 L235.974404,158.122853 C233.164394,158.122853 230.789859,159.112677 228.850801,161.092326 C226.911743,163.071974 225.942214,165.436651 225.942214,168.186356 C225.942214,170.956936 226.915222,173.342197 228.861239,175.342141 C230.807255,177.342084 233.17831,178.342056 235.974404,178.342056 Z M235.974404,236.701673 L379.29538,236.701673 C382.045084,236.701673 384.404542,235.70489 386.373753,233.711325 C388.342964,231.71776 389.32757,229.322351 389.32757,226.525097 C389.32757,223.70117 388.346443,221.317938 386.384191,219.3754 C384.421938,217.432863 382.059001,216.461595 379.29538,216.461595 L235.974404,216.461595 C233.164394,216.461595 230.789859,217.439822 228.850801,219.396276 C226.911743,221.352729 225.942214,223.729003 225.942214,226.525097 C225.942214,229.295677 226.915222,231.684418 228.861239,233.69132 C230.807255,235.698222 233.17831,236.701673 235.974404,236.701673 Z M235.974404,295.082164 L379.29538,295.082164 C382.045084,295.082164 384.404542,294.085382 386.373753,292.091817 C388.342964,290.098252 389.32757,287.702842 389.32757,284.905589 C389.32757,282.081661 388.346443,279.698139 386.384191,277.755022 C384.421938,275.811905 382.059001,274.840347 379.29538,274.840347 L235.974404,274.840347 C233.164394,274.840347 230.789859,275.818574 228.850801,277.775027 C226.911743,279.731481 225.942214,282.108335 225.942214,284.905589 C225.942214,287.675009 226.915222,290.06346 228.861239,292.070942 C230.807255,294.078423 233.17831,295.082164 235.974404,295.082164 Z M235.974404,353.328708 L320.015522,353.328708 C322.83945,353.328708 325.236019,352.347291 327.205229,350.384459 C329.17444,348.421627 330.159046,346.048542 330.159046,343.265205 C330.159046,340.427361 329.17444,338.021804 327.205229,336.048534 C325.236019,334.075265 322.83945,333.08863 320.015522,333.08863 L235.974404,333.08863 C233.164394,333.08863 230.789859,334.081933 228.850801,336.06854 C226.911743,338.055146 225.942214,340.454035 225.942214,343.265205 C225.942214,346.034625 226.915222,348.404231 228.861239,350.374022 C230.807255,352.343812 233.17831,353.328708 235.974404,353.328708 Z M142.09593,292.11965 L180.704292,266.351169 C182.97851,264.785542 184.485281,262.77922 185.224605,260.332203 C185.963929,257.885186 185.941894,255.456725 185.158501,253.046819 C184.375107,250.636913 182.890371,248.656105 180.704292,247.104394 L142.09593,220.848829 C139.093405,218.823952 136.191486,217.814992 133.390174,217.821915 C130.588861,217.828909 128.290289,218.779013 126.494457,220.672262 C124.698624,222.56551 123.800708,225.301009 123.800708,228.878756 L123.800708,284.202796 C123.800708,287.692405 124.71718,290.334835 126.550123,292.130087 C128.383067,293.92534 130.71875,294.838332 133.557174,294.869813 C136.395598,294.899798 139.24185,293.983326 142.09593,292.11965 Z"/><linearGradient id="c" x1="0%" x2="0%" y1="100%" y2="0%"><stop offset="0%" stop-color="#1BC9FC"/><stop offset="100%" stop-color="#1C70F1"/></linearGradient></defs><g fill="none" fill-rule="evenodd"><g fill-rule="nonzero"><use xlink:href="#a" fill="#000" filter="url(#b)"/><use xlink:href="#a" fill="url(#c)"/><use xlink:href="#a" fill="#000" filter="url(#d)"/></g><g fill-rule="nonzero"><use xlink:href="#e" fill="#000" filter="url(#f)"/><use xlink:href="#e" fill="#F5FCFF"/><use xlink:href="#e" fill="#000" filter="url(#g)"/></g></g></svg>