<svg xmlns="http://www.w3.org/2000/svg" xmlns:xlink="http://www.w3.org/1999/xlink" width="512" height="512" viewBox="0 0 512 512"><defs><filter id="b" width="129.1%" height="129.1%" x="-14.6%" y="-14.6%" filterUnits="objectBoundingBox"><feOffset in="SourceAlpha" result="shadowOffsetOuter1"/><feGaussianBlur in="shadowOffsetOuter1" result="shadowBlurOuter1" stdDeviation="20"/><feColorMatrix in="shadowBlurOuter1" values="0 0 0 0 1 0 0 0 0 1 0 0 0 0 1 0 0 0 0.5 0"/></filter><filter id="d" width="120.4%" height="120.4%" x="-10.2%" y="-10.2%" filterUnits="objectBoundingBox"><feMorphology in="SourceAlpha" operator="dilate" radius="1" result="shadowSpreadInner1"/><feGaussianBlur in="shadowSpreadInner1" result="shadowBlurInner1" stdDeviation="1.5"/><feOffset dx="-1" dy="-2" in="shadowBlurInner1" result="shadowOffsetInner1"/><feComposite in="shadowOffsetInner1" in2="SourceAlpha" k2="-1" k3="1" operator="arithmetic" result="shadowInnerInner1"/><feColorMatrix in="shadowInnerInner1" result="shadowMatrixInner1" values="0 0 0 0 0 0 0 0 0 0 0 0 0 0 0 0 0 0 0.2 0"/><feMorphology in="SourceAlpha" operator="dilate" radius="1" result="shadowSpreadInner2"/><feGaussianBlur in="shadowSpreadInner2" result="shadowBlurInner2" stdDeviation="1.5"/><feOffset dx="2" dy="2" in="shadowBlurInner2" result="shadowOffsetInner2"/><feComposite in="shadowOffsetInner2" in2="SourceAlpha" k2="-1" k3="1" operator="arithmetic" result="shadowInnerInner2"/><feColorMatrix in="shadowInnerInner2" result="shadowMatrixInner2" values="0 0 0 0 1 0 0 0 0 1 0 0 0 0 1 0 0 0 0.5 0"/><feMerge><feMergeNode in="shadowMatrixInner1"/><feMergeNode in="shadowMatrixInner2"/></feMerge></filter><filter id="f" width="136.7%" height="148.1%" x="-18.4%" y="-22.1%" filterUnits="objectBoundingBox"><feMorphology in="SourceAlpha" operator="dilate" radius="4" result="shadowSpreadOuter1"/><feOffset dy="4" in="shadowSpreadOuter1" result="shadowOffsetOuter1"/><feGaussianBlur in="shadowOffsetOuter1" result="shadowBlurOuter1" stdDeviation="12"/><feColorMatrix in="shadowBlurOuter1" result="shadowMatrixOuter1" values="0 0 0 0 0 0 0 0 0 0 0 0 0 0 0 0 0 0 0.1 0"/><feMorphology in="SourceAlpha" radius="1" result="shadowSpreadOuter2"/><feOffset dy="2" in="shadowSpreadOuter2" result="shadowOffsetOuter2"/><feGaussianBlur in="shadowOffsetOuter2" result="shadowBlurOuter2" stdDeviation="4"/><feColorMatrix in="shadowBlurOuter2" result="shadowMatrixOuter2" values="0 0 0 0 0.109803922 0 0 0 0 0.541176471 0 0 0 0 0.956862745 0 0 0 0.4 0"/><feMorphology in="SourceAlpha" radius="1" result="shadowSpreadOuter3"/><feOffset dy="-2" in="shadowSpreadOuter3" result="shadowOffsetOuter3"/><feGaussianBlur in="shadowOffsetOuter3" result="shadowBlurOuter3" stdDeviation="4"/><feColorMatrix in="shadowBlurOuter3" result="shadowMatrixOuter3" values="0 0 0 0 1 0 0 0 0 1 0 0 0 0 1 0 0 0 0.5 0"/><feMerge><feMergeNode in="shadowMatrixOuter1"/><feMergeNode in="shadowMatrixOuter2"/><feMergeNode in="shadowMatrixOuter3"/></feMerge></filter><filter id="g" width="125%" height="132.7%" x="-12.5%" y="-14.4%" filterUnits="objectBoundingBox"><feGaussianBlur in="SourceAlpha" result="shadowBlurInner1" stdDeviation="1.5"/><feOffset dy="1" in="shadowBlurInner1" result="shadowOffsetInner1"/><feComposite in="shadowOffsetInner1" in2="SourceAlpha" k2="-1" k3="1" operator="arithmetic" result="shadowInnerInner1"/><feColorMatrix in="shadowInnerInner1" values="0 0 0 0 1 0 0 0 0 1 0 0 0 0 1 0 0 0 1 0"/></filter><path id="a" d="M166.374834,50 L347.625166,50 C387.743509,50 402.29139,54.1771525 416.958057,62.0209717 C431.624723,69.8647908 443.135209,81.3752767 450.979028,96.0419433 C458.822847,110.70861 463,125.256491 463,165.374834 L463,346.625166 C463,386.743509 458.822847,401.29139 450.979028,415.958057 C443.135209,430.624723 431.624723,442.135209 416.958057,449.979028 C402.29139,457.822847 387.743509,462 347.625166,462 L166.374834,462 C126.256491,462 111.70861,457.822847 97.0419433,449.979028 C82.3752767,442.135209 70.8647908,430.624723 63.0209717,415.958057 C55.1771525,401.29139 51,386.743509 51,346.625166 L51,165.374834 C51,125.256491 55.1771525,110.70861 63.0209717,96.0419433 C70.8647908,81.3752767 82.3752767,69.8647908 97.0419433,62.0209717 C111.70861,54.1771525 126.256491,50 166.374834,50 Z"/><path id="e" d="M197.378342,360.697592 L315.614493,360.697592 C327.118952,360.697592 335.654519,357.858588 341.221193,352.180581 C346.787866,346.502574 350.461871,337.948452 352.243207,326.518215 L370.167896,206.834728 L348.569202,207.836729 L330.644512,325.293547 C329.828067,330.414887 328.102398,334.107447 325.467506,336.371228 C322.832614,338.635008 319.214276,339.766899 314.612492,339.766899 L198.491676,339.766899 C193.81567,339.766899 190.178777,338.635008 187.580996,336.371228 C184.983215,334.107447 183.276101,330.414887 182.459656,325.293547 L164.534966,207.836729 L142.936272,206.834728 L160.972295,326.518215 C162.679408,338.022674 166.316302,346.595352 171.882976,352.236248 C177.449649,357.877144 185.948105,360.697592 197.378342,360.697592 Z M144.272274,218.524743 L368.943228,218.524743 C376.513905,218.524743 382.377468,216.279518 386.533917,211.789068 C390.690367,207.298618 392.768592,201.305166 392.768592,193.808711 L392.768592,177.554024 C392.768592,169.983348 390.690367,163.97134 386.533917,159.518001 C382.377468,155.064662 376.513905,152.837992 368.943228,152.837992 L144.272274,152.837992 C136.924264,152.837992 131.097812,155.064662 126.792918,159.518001 C122.488023,163.97134 120.335576,169.983348 120.335576,177.554024 L120.335576,193.808711 C120.335576,201.305166 122.432357,207.298618 126.625918,211.789068 C130.819479,216.279518 136.701597,218.524743 144.272274,218.524743 Z M148.502946,198.596051 C145.905165,198.596051 144.031051,198.002272 142.880605,196.814715 C141.730159,195.627158 141.154936,193.734489 141.154936,191.136708 L141.154936,180.114694 C141.154936,177.591135 141.730159,175.735577 142.880605,174.54802 C144.031051,173.360463 145.905165,172.766685 148.502946,172.766685 L364.712556,172.766685 C367.236115,172.766685 369.073117,173.360463 370.223563,174.54802 C371.374009,175.735577 371.949232,177.591135 371.949232,180.114694 L371.949232,191.136708 C371.949232,193.734489 371.374009,195.627158 370.223563,196.814715 C369.073117,198.002272 367.236115,198.596051 364.712556,198.596051 L148.502946,198.596051 Z M225.657045,318.836205 C228.180603,318.836205 230.370162,317.871315 232.22572,315.941535 L256.607751,291.559503 L280.878449,315.941535 C281.843339,316.75798 282.84534,317.444537 283.884453,318.001204 C284.923565,318.557871 286.148233,318.836205 287.558457,318.836205 C290.156238,318.836205 292.382908,317.889871 294.238466,315.997201 C296.094024,314.104532 297.021803,311.859307 297.021803,309.261526 C297.021803,307.925524 296.762025,306.719412 296.242468,305.643188 C295.722912,304.566965 295.0178,303.546408 294.127132,302.581518 L269.967768,278.31082 L294.238466,254.040122 C296.168246,252.036119 297.133136,249.846561 297.133136,247.471447 C297.133136,244.799443 296.205357,242.535663 294.349799,240.680105 C292.494241,238.824547 290.230461,237.896768 287.558457,237.896768 C285.257565,237.896768 283.105118,238.861658 281.101116,240.791438 L256.607751,265.284803 L232.114386,240.902772 C230.184606,238.972992 228.032159,238.008101 225.657045,238.008101 C223.059263,238.008101 220.832594,238.917325 218.977036,240.735772 C217.121478,242.554218 216.193699,244.799443 216.193699,247.471447 C216.193699,249.920783 217.158589,252.110342 219.088369,254.040122 L243.247734,278.31082 L219.088369,302.692851 C217.158589,304.548409 216.193699,306.737967 216.193699,309.261526 C216.193699,311.859307 217.121478,314.104532 218.977036,315.997201 C220.832594,317.889871 223.059263,318.836205 225.657045,318.836205 Z"/><linearGradient id="c" x1="0%" x2="0%" y1="100%" y2="0%"><stop offset="0%" stop-color="#1BC9FC"/><stop offset="100%" stop-color="#1C70F1"/></linearGradient></defs><g fill="none" fill-rule="evenodd"><g fill-rule="nonzero"><use xlink:href="#a" fill="#000" filter="url(#b)"/><use xlink:href="#a" fill="url(#c)"/><use xlink:href="#a" fill="#000" filter="url(#d)"/></g><g fill-rule="nonzero"><use xlink:href="#e" fill="#000" filter="url(#f)"/><use xlink:href="#e" fill="#F5FCFF"/><use xlink:href="#e" fill="#000" filter="url(#g)"/></g></g></svg>