<svg xmlns="http://www.w3.org/2000/svg" xmlns:xlink="http://www.w3.org/1999/xlink" width="512" height="512" viewBox="0 0 512 512"><defs><filter id="b" width="129.1%" height="129.1%" x="-14.6%" y="-14.6%" filterUnits="objectBoundingBox"><feOffset in="SourceAlpha" result="shadowOffsetOuter1"/><feGaussianBlur in="shadowOffsetOuter1" result="shadowBlurOuter1" stdDeviation="20"/><feColorMatrix in="shadowBlurOuter1" values="0 0 0 0 1 0 0 0 0 1 0 0 0 0 1 0 0 0 0.5 0"/></filter><filter id="d" width="120.4%" height="120.4%" x="-10.2%" y="-10.2%" filterUnits="objectBoundingBox"><feMorphology in="SourceAlpha" operator="dilate" radius="1" result="shadowSpreadInner1"/><feGaussianBlur in="shadowSpreadInner1" result="shadowBlurInner1" stdDeviation="1.5"/><feOffset dx="-1" dy="-2" in="shadowBlurInner1" result="shadowOffsetInner1"/><feComposite in="shadowOffsetInner1" in2="SourceAlpha" k2="-1" k3="1" operator="arithmetic" result="shadowInnerInner1"/><feColorMatrix in="shadowInnerInner1" result="shadowMatrixInner1" values="0 0 0 0 0 0 0 0 0 0 0 0 0 0 0 0 0 0 0.2 0"/><feMorphology in="SourceAlpha" operator="dilate" radius="1" result="shadowSpreadInner2"/><feGaussianBlur in="shadowSpreadInner2" result="shadowBlurInner2" stdDeviation="1.5"/><feOffset dx="2" dy="2" in="shadowBlurInner2" result="shadowOffsetInner2"/><feComposite in="shadowOffsetInner2" in2="SourceAlpha" k2="-1" k3="1" operator="arithmetic" result="shadowInnerInner2"/><feColorMatrix in="shadowInnerInner2" result="shadowMatrixInner2" values="0 0 0 0 1 0 0 0 0 1 0 0 0 0 1 0 0 0 0.5 0"/><feMerge><feMergeNode in="shadowMatrixInner1"/><feMergeNode in="shadowMatrixInner2"/></feMerge></filter><filter id="f" width="140%" height="151.2%" x="-20%" y="-23.5%" filterUnits="objectBoundingBox"><feMorphology in="SourceAlpha" operator="dilate" radius="4" result="shadowSpreadOuter1"/><feOffset dy="4" in="shadowSpreadOuter1" result="shadowOffsetOuter1"/><feGaussianBlur in="shadowOffsetOuter1" result="shadowBlurOuter1" stdDeviation="12"/><feColorMatrix in="shadowBlurOuter1" result="shadowMatrixOuter1" values="0 0 0 0 0 0 0 0 0 0 0 0 0 0 0 0 0 0 0.1 0"/><feMorphology in="SourceAlpha" radius="1" result="shadowSpreadOuter2"/><feOffset dy="2" in="shadowSpreadOuter2" result="shadowOffsetOuter2"/><feGaussianBlur in="shadowOffsetOuter2" result="shadowBlurOuter2" stdDeviation="4"/><feColorMatrix in="shadowBlurOuter2" result="shadowMatrixOuter2" values="0 0 0 0 0.109803922 0 0 0 0 0.541176471 0 0 0 0 0.956862745 0 0 0 0.4 0"/><feMorphology in="SourceAlpha" radius="1" result="shadowSpreadOuter3"/><feOffset dy="-2" in="shadowSpreadOuter3" result="shadowOffsetOuter3"/><feGaussianBlur in="shadowOffsetOuter3" result="shadowBlurOuter3" stdDeviation="4"/><feColorMatrix in="shadowBlurOuter3" result="shadowMatrixOuter3" values="0 0 0 0 1 0 0 0 0 1 0 0 0 0 1 0 0 0 0.5 0"/><feMerge><feMergeNode in="shadowMatrixOuter1"/><feMergeNode in="shadowMatrixOuter2"/><feMergeNode in="shadowMatrixOuter3"/></feMerge></filter><filter id="g" width="127.2%" height="134.8%" x="-13.6%" y="-15.4%" filterUnits="objectBoundingBox"><feGaussianBlur in="SourceAlpha" result="shadowBlurInner1" stdDeviation="1.5"/><feOffset dy="1" in="shadowBlurInner1" result="shadowOffsetInner1"/><feComposite in="shadowOffsetInner1" in2="SourceAlpha" k2="-1" k3="1" operator="arithmetic" result="shadowInnerInner1"/><feColorMatrix in="shadowInnerInner1" values="0 0 0 0 1 0 0 0 0 1 0 0 0 0 1 0 0 0 1 0"/></filter><filter id="i" width="230.2%" height="229.8%" x="-65.1%" y="-59.7%" filterUnits="objectBoundingBox"><feMorphology in="SourceAlpha" operator="dilate" radius="4" result="shadowSpreadOuter1"/><feOffset dy="4" in="shadowSpreadOuter1" result="shadowOffsetOuter1"/><feGaussianBlur in="shadowOffsetOuter1" result="shadowBlurOuter1" stdDeviation="12"/><feColorMatrix in="shadowBlurOuter1" result="shadowMatrixOuter1" values="0 0 0 0 0 0 0 0 0 0 0 0 0 0 0 0 0 0 0.1 0"/><feMorphology in="SourceAlpha" radius="1" result="shadowSpreadOuter2"/><feOffset dy="2" in="shadowSpreadOuter2" result="shadowOffsetOuter2"/><feGaussianBlur in="shadowOffsetOuter2" result="shadowBlurOuter2" stdDeviation="4"/><feColorMatrix in="shadowBlurOuter2" result="shadowMatrixOuter2" values="0 0 0 0 0.109803922 0 0 0 0 0.541176471 0 0 0 0 0.956862745 0 0 0 0.4 0"/><feMorphology in="SourceAlpha" radius="1" result="shadowSpreadOuter3"/><feOffset dy="-2" in="shadowSpreadOuter3" result="shadowOffsetOuter3"/><feGaussianBlur in="shadowOffsetOuter3" result="shadowBlurOuter3" stdDeviation="4"/><feColorMatrix in="shadowBlurOuter3" result="shadowMatrixOuter3" values="0 0 0 0 1 0 0 0 0 0.779866555 0 0 0 0 0.767568598 0 0 0 0.5 0"/><feMerge><feMergeNode in="shadowMatrixOuter1"/><feMergeNode in="shadowMatrixOuter2"/><feMergeNode in="shadowMatrixOuter3"/></feMerge></filter><filter id="j" width="188.5%" height="188.3%" x="-44.3%" y="-38.9%" filterUnits="objectBoundingBox"><feGaussianBlur in="SourceAlpha" result="shadowBlurInner1" stdDeviation="1.5"/><feOffset dy="1" in="shadowBlurInner1" result="shadowOffsetInner1"/><feComposite in="shadowOffsetInner1" in2="SourceAlpha" k2="-1" k3="1" operator="arithmetic" result="shadowInnerInner1"/><feColorMatrix in="shadowInnerInner1" values="0 0 0 0 1 0 0 0 0 1 0 0 0 0 1 0 0 0 0.5 0"/></filter><path id="a" d="M166.374834,50 L347.625166,50 C387.743509,50 402.29139,54.1771525 416.958057,62.0209717 C431.624723,69.8647908 443.135209,81.3752767 450.979028,96.0419433 C458.822847,110.70861 463,125.256491 463,165.374834 L463,346.625166 C463,386.743509 458.822847,401.29139 450.979028,415.958057 C443.135209,430.624723 431.624723,442.135209 416.958057,449.979028 C402.29139,457.822847 387.743509,462 347.625166,462 L166.374834,462 C126.256491,462 111.70861,457.822847 97.0419433,449.979028 C82.3752767,442.135209 70.8647908,430.624723 63.0209717,415.958057 C55.1771525,401.29139 51,386.743509 51,346.625166 L51,165.374834 C51,125.256491 55.1771525,110.70861 63.0209717,96.0419433 C70.8647908,81.3752767 82.3752767,69.8647908 97.0419433,62.0209717 C111.70861,54.1771525 126.256491,50 166.374834,50 Z"/><path id="e" d="M168.11347,354.462917 L347.694367,354.462917 C358.382381,354.462917 366.676725,351.401247 372.577399,345.277906 C378.478073,339.154564 381.42841,330.155108 381.42841,318.279538 L381.42841,228.767423 C378.236851,230.103425 374.915402,231.068315 371.464064,231.662093 C368.012727,232.255872 364.505722,232.478539 360.943051,232.330094 L360.943051,317.611537 C360.943051,322.955544 359.551382,326.982104 356.768046,329.691219 C353.984709,332.400334 350.03237,333.754891 344.91103,333.754891 L168.11347,333.754891 C162.917908,333.754891 158.947014,332.400334 156.200788,329.691219 C153.454563,326.982104 152.08145,322.918433 152.08145,317.500203 L152.08145,195.924048 C152.08145,190.580041 153.454563,186.55348 156.200788,183.844365 C158.947014,181.135251 162.917908,179.780693 168.11347,179.780693 L308.170983,179.780693 C307.874094,176.218022 308.022539,172.673907 308.616317,169.148347 C309.210096,165.622786 310.137875,162.264227 311.399654,159.072667 L165.330133,159.072667 C154.64212,159.072667 146.347776,162.134338 140.447102,168.257679 C134.546427,174.38102 131.59609,183.343365 131.59609,195.144713 L131.59609,318.279538 C131.59609,330.155108 134.676316,339.154564 140.836769,345.277906 C146.997221,351.401247 156.089455,354.462917 168.11347,354.462917 Z M256.734917,287.106164 C260.891367,287.106164 264.936483,286.196941 268.870266,284.378494 C272.804049,282.560047 276.774943,279.683933 280.782948,275.75015 L333.221015,224.20275 C330.549012,222.495637 328.044009,220.565857 325.706006,218.41341 C323.368003,216.260962 321.271222,213.922959 319.415664,211.399401 L269.426934,260.720131 C267.051819,263.021022 264.843705,264.691025 262.802592,265.730137 C260.761478,266.769249 258.73892,267.288806 256.734917,267.288806 C254.58247,267.288806 252.48569,266.769249 250.444576,265.730137 C248.403462,264.691025 246.232459,263.021022 243.931568,260.720131 L156.089455,173.880019 L142.840771,187.462703 L232.575553,275.75015 C236.509336,279.683933 240.48023,282.560047 244.488235,284.378494 C248.49624,286.196941 252.578468,287.106164 256.734917,287.106164 Z M356.935046,339.098898 L370.406396,325.627547 L292.918297,248.918782 L279.55828,262.390133 L356.935046,339.098898 Z M157.759457,337.762896 L231.796219,264.282802 L218.436202,250.922785 L144.288107,324.402879 L157.759457,337.762896 Z"/><path id="h" d="M362.167719,212.354741 C369.070395,212.354741 375.434958,210.610517 381.26141,207.122068 C387.087862,203.633619 391.745313,198.957613 395.233761,193.09405 C398.72221,187.230487 400.466435,180.810257 400.466435,173.833359 C400.466435,166.782239 398.72221,160.343453 395.233761,154.517001 C391.745313,148.690549 387.087862,144.033098 381.26141,140.544649 C375.434958,137.0562 369.070395,135.311976 362.167719,135.311976 C355.042377,135.311976 348.585035,137.0562 342.795694,140.544649 C337.006354,144.033098 332.367459,148.690549 328.87901,154.517001 C325.390561,160.343453 323.646336,166.782239 323.646336,173.833359 C323.646336,180.810257 325.390561,187.230487 328.87901,193.09405 C332.367459,198.957613 337.006354,203.633619 342.795694,207.122068 C348.585035,210.610517 355.042377,212.354741 362.167719,212.354741 Z"/><linearGradient id="c" x1="0%" x2="0%" y1="100%" y2="0%"><stop offset="0%" stop-color="#1BC9FC"/><stop offset="100%" stop-color="#1C70F1"/></linearGradient></defs><g fill="none" fill-rule="evenodd"><g fill-rule="nonzero"><use xlink:href="#a" fill="#000" filter="url(#b)"/><use xlink:href="#a" fill="url(#c)"/><use xlink:href="#a" fill="#000" filter="url(#d)"/></g><g fill-rule="nonzero"><use xlink:href="#e" fill="#000" filter="url(#f)"/><use xlink:href="#e" fill="#F5FCFF"/><use xlink:href="#e" fill="#000" filter="url(#g)"/></g><g fill-rule="nonzero"><use xlink:href="#h" fill="#000" filter="url(#i)"/><use xlink:href="#h" fill="#F9463C"/><use xlink:href="#h" fill="#000" filter="url(#j)"/></g></g></svg>