<svg xmlns="http://www.w3.org/2000/svg" xmlns:xlink="http://www.w3.org/1999/xlink" width="512" height="512" viewBox="0 0 512 512"><defs><filter id="b" width="129.1%" height="129.1%" x="-14.6%" y="-14.6%" filterUnits="objectBoundingBox"><feOffset in="SourceAlpha" result="shadowOffsetOuter1"/><feGaussianBlur in="shadowOffsetOuter1" result="shadowBlurOuter1" stdDeviation="20"/><feColorMatrix in="shadowBlurOuter1" values="0 0 0 0 1 0 0 0 0 1 0 0 0 0 1 0 0 0 0.5 0"/></filter><filter id="d" width="120.4%" height="120.4%" x="-10.2%" y="-10.2%" filterUnits="objectBoundingBox"><feMorphology in="SourceAlpha" operator="dilate" radius="1" result="shadowSpreadInner1"/><feGaussianBlur in="shadowSpreadInner1" result="shadowBlurInner1" stdDeviation="1.5"/><feOffset dx="-1" dy="-2" in="shadowBlurInner1" result="shadowOffsetInner1"/><feComposite in="shadowOffsetInner1" in2="SourceAlpha" k2="-1" k3="1" operator="arithmetic" result="shadowInnerInner1"/><feColorMatrix in="shadowInnerInner1" result="shadowMatrixInner1" values="0 0 0 0 0 0 0 0 0 0 0 0 0 0 0 0 0 0 0.2 0"/><feMorphology in="SourceAlpha" operator="dilate" radius="1" result="shadowSpreadInner2"/><feGaussianBlur in="shadowSpreadInner2" result="shadowBlurInner2" stdDeviation="1.5"/><feOffset dx="2" dy="2" in="shadowBlurInner2" result="shadowOffsetInner2"/><feComposite in="shadowOffsetInner2" in2="SourceAlpha" k2="-1" k3="1" operator="arithmetic" result="shadowInnerInner2"/><feColorMatrix in="shadowInnerInner2" result="shadowMatrixInner2" values="0 0 0 0 1 0 0 0 0 1 0 0 0 0 1 0 0 0 0.5 0"/><feMerge><feMergeNode in="shadowMatrixInner1"/><feMergeNode in="shadowMatrixInner2"/></feMerge></filter><filter id="f" width="144.9%" height="145%" x="-22.5%" y="-20.7%" filterUnits="objectBoundingBox"><feMorphology in="SourceAlpha" operator="dilate" radius="4" result="shadowSpreadOuter1"/><feOffset dy="4" in="shadowSpreadOuter1" result="shadowOffsetOuter1"/><feGaussianBlur in="shadowOffsetOuter1" result="shadowBlurOuter1" stdDeviation="12"/><feColorMatrix in="shadowBlurOuter1" result="shadowMatrixOuter1" values="0 0 0 0 0 0 0 0 0 0 0 0 0 0 0 0 0 0 0.1 0"/><feMorphology in="SourceAlpha" radius="1" result="shadowSpreadOuter2"/><feOffset dy="2" in="shadowSpreadOuter2" result="shadowOffsetOuter2"/><feGaussianBlur in="shadowOffsetOuter2" result="shadowBlurOuter2" stdDeviation="4"/><feColorMatrix in="shadowBlurOuter2" result="shadowMatrixOuter2" values="0 0 0 0 0.109803922 0 0 0 0 0.541176471 0 0 0 0 0.956862745 0 0 0 0.4 0"/><feMorphology in="SourceAlpha" radius="1" result="shadowSpreadOuter3"/><feOffset dy="-2" in="shadowSpreadOuter3" result="shadowOffsetOuter3"/><feGaussianBlur in="shadowOffsetOuter3" result="shadowBlurOuter3" stdDeviation="4"/><feColorMatrix in="shadowBlurOuter3" result="shadowMatrixOuter3" values="0 0 0 0 1 0 0 0 0 1 0 0 0 0 1 0 0 0 0.5 0"/><feMerge><feMergeNode in="shadowMatrixOuter1"/><feMergeNode in="shadowMatrixOuter2"/><feMergeNode in="shadowMatrixOuter3"/></feMerge></filter><filter id="g" width="130.6%" height="130.6%" x="-15.3%" y="-13.5%" filterUnits="objectBoundingBox"><feGaussianBlur in="SourceAlpha" result="shadowBlurInner1" stdDeviation="1.5"/><feOffset dy="1" in="shadowBlurInner1" result="shadowOffsetInner1"/><feComposite in="shadowOffsetInner1" in2="SourceAlpha" k2="-1" k3="1" operator="arithmetic" result="shadowInnerInner1"/><feColorMatrix in="shadowInnerInner1" values="0 0 0 0 1 0 0 0 0 1 0 0 0 0 1 0 0 0 1 0"/></filter><path id="a" d="M166.374834,50 L347.625166,50 C387.743509,50 402.29139,54.1771525 416.958057,62.0209717 C431.624723,69.8647908 443.135209,81.3752767 450.979028,96.0419433 C458.822847,110.70861 463,125.256491 463,165.374834 L463,346.625166 C463,386.743509 458.822847,401.29139 450.979028,415.958057 C443.135209,430.624723 431.624723,442.135209 416.958057,449.979028 C402.29139,457.822847 387.743509,462 347.625166,462 L166.374834,462 C126.256491,462 111.70861,457.822847 97.0419433,449.979028 C82.3752767,442.135209 70.8647908,430.624723 63.0209717,415.958057 C55.1771525,401.29139 51,386.743509 51,346.625166 L51,165.374834 C51,125.256491 55.1771525,110.70861 63.0209717,96.0419433 C70.8647908,81.3752767 82.3752767,69.8647908 97.0419433,62.0209717 C111.70861,54.1771525 126.256491,50 166.374834,50 Z"/><path id="e" d="M193.105716,360.426217 L322.810955,360.426217 C333.497809,360.426217 341.799981,357.373244 347.717471,351.267299 C353.634961,345.161353 356.593706,336.15204 356.593706,324.239358 L356.593706,206.591186 L334.688845,228.476912 L334.688845,322.390178 C334.688845,327.79797 333.417788,331.841927 330.875673,334.522048 C328.333559,337.20217 325.217381,338.54223 321.527141,338.54223 L194.460853,338.54223 C189.302402,338.54223 185.339336,337.20217 182.571655,334.522048 C179.803975,331.841927 178.420134,327.79797 178.420134,322.390178 L178.420134,198.495155 C178.420134,193.087363 179.803975,189.02833 182.571655,186.318056 C185.339336,183.607782 189.302402,182.252645 194.460853,182.252645 L289.517027,182.252645 L311.401013,160.366919 L193.105716,160.366919 C181.118811,160.366919 172.026867,163.420181 165.829884,169.526706 C159.6329,175.633232 156.534408,184.642835 156.534408,196.555517 L156.534408,324.239358 C156.534408,336.15204 159.6329,345.161353 165.829884,351.267299 C172.026867,357.373244 181.118811,360.426217 193.105716,360.426217 Z M235.182811,286.038059 L257.85309,276.451203 L359.469241,174.92551 L342.442178,158.098499 L240.935621,259.605056 L230.894733,281.636907 C230.340385,282.914923 230.599003,284.096101 231.670588,285.180443 C232.742173,286.264785 233.912914,286.550657 235.182811,286.038059 Z M367.974075,166.511135 L375.744804,158.538614 C377.872897,156.302667 378.969126,153.808681 379.03349,151.056657 C379.097855,148.304632 378.049175,145.891827 375.88745,143.818241 L372.959727,140.819196 C371.076336,138.962478 368.758338,138.139074 366.005734,138.348984 C363.25313,138.558894 360.826698,139.683826 358.726438,141.72378 L350.945272,149.433623 L367.974075,166.511135 Z"/><linearGradient id="c" x1="0%" x2="0%" y1="100%" y2="0%"><stop offset="0%" stop-color="#1BC9FC"/><stop offset="100%" stop-color="#1C70F1"/></linearGradient></defs><g fill="none" fill-rule="evenodd"><g fill-rule="nonzero"><use xlink:href="#a" fill="#000" filter="url(#b)"/><use xlink:href="#a" fill="url(#c)"/><use xlink:href="#a" fill="#000" filter="url(#d)"/></g><g fill-rule="nonzero"><use xlink:href="#e" fill="#000" filter="url(#f)"/><use xlink:href="#e" fill="#F5FCFF"/><use xlink:href="#e" fill="#000" filter="url(#g)"/></g></g></svg>