<svg xmlns="http://www.w3.org/2000/svg" xmlns:xlink="http://www.w3.org/1999/xlink" width="512" height="512" viewBox="0 0 512 512"><defs><filter id="b" width="129.1%" height="129.1%" x="-14.6%" y="-14.6%" filterUnits="objectBoundingBox"><feOffset in="SourceAlpha" result="shadowOffsetOuter1"/><feGaussianBlur in="shadowOffsetOuter1" result="shadowBlurOuter1" stdDeviation="20"/><feColorMatrix in="shadowBlurOuter1" values="0 0 0 0 1 0 0 0 0 1 0 0 0 0 1 0 0 0 0.5 0"/></filter><filter id="e" width="150.9%" height="138.4%" x="-25.4%" y="-17.7%" filterUnits="objectBoundingBox"><feMorphology in="SourceAlpha" operator="dilate" radius="4" result="shadowSpreadOuter1"/><feOffset dy="4" in="shadowSpreadOuter1" result="shadowOffsetOuter1"/><feGaussianBlur in="shadowOffsetOuter1" result="shadowBlurOuter1" stdDeviation="12"/><feColorMatrix in="shadowBlurOuter1" result="shadowMatrixOuter1" values="0 0 0 0 0 0 0 0 0 0 0 0 0 0 0 0 0 0 0.1 0"/><feMorphology in="SourceAlpha" radius="1" result="shadowSpreadOuter2"/><feOffset dy="2" in="shadowSpreadOuter2" result="shadowOffsetOuter2"/><feGaussianBlur in="shadowOffsetOuter2" result="shadowBlurOuter2" stdDeviation="4"/><feColorMatrix in="shadowBlurOuter2" result="shadowMatrixOuter2" values="0 0 0 0 0.109803922 0 0 0 0 0.541176471 0 0 0 0 0.956862745 0 0 0 0.4 0"/><feMorphology in="SourceAlpha" radius="1" result="shadowSpreadOuter3"/><feOffset dy="-2" in="shadowSpreadOuter3" result="shadowOffsetOuter3"/><feGaussianBlur in="shadowOffsetOuter3" result="shadowBlurOuter3" stdDeviation="4"/><feColorMatrix in="shadowBlurOuter3" result="shadowMatrixOuter3" values="0 0 0 0 1 0 0 0 0 1 0 0 0 0 1 0 0 0 0.5 0"/><feMerge><feMergeNode in="shadowMatrixOuter1"/><feMergeNode in="shadowMatrixOuter2"/><feMergeNode in="shadowMatrixOuter3"/></feMerge></filter><filter id="f" width="134.6%" height="126.1%" x="-17.3%" y="-11.5%" filterUnits="objectBoundingBox"><feGaussianBlur in="SourceAlpha" result="shadowBlurInner1" stdDeviation="1.5"/><feOffset dy="1" in="shadowBlurInner1" result="shadowOffsetInner1"/><feComposite in="shadowOffsetInner1" in2="SourceAlpha" k2="-1" k3="1" operator="arithmetic" result="shadowInnerInner1"/><feColorMatrix in="shadowInnerInner1" values="0 0 0 0 1 0 0 0 0 1 0 0 0 0 1 0 0 0 1 0"/></filter><path id="a" d="M166.374834,50 L347.625166,50 C387.743509,50 402.29139,54.1771525 416.958057,62.0209717 C431.624723,69.8647908 443.135209,81.3752767 450.979028,96.0419433 C458.822847,110.70861 463,125.256491 463,165.374834 L463,346.625166 C463,386.743509 458.822847,401.29139 450.979028,415.958057 C443.135209,430.624723 431.624723,442.135209 416.958057,449.979028 C402.29139,457.822847 387.743509,462 347.625166,462 L166.374834,462 C126.256491,462 111.70861,457.822847 97.0419433,449.979028 C82.3752767,442.135209 70.8647908,430.624723 63.0209717,415.958057 C55.1771525,401.29139 51,386.743509 51,346.625166 L51,165.374834 C51,125.256491 55.1771525,110.70861 63.0209717,96.0419433 C70.8647908,81.3752767 82.3752767,69.8647908 97.0419433,62.0209717 C111.70861,54.1771525 126.256491,50 166.374834,50 Z"/><path id="d" d="M195.474272,158.114726 C195.357427,159.049486 195.357427,160.101092 195.357427,161.035852 L195.357427,171.551905 C195.357427,173.421426 195.474272,175.290946 195.824807,176.926777 L193.020527,176.926777 C182.037093,176.926777 176.545377,184.054324 176.545377,195.037757 L176.545377,349.132106 C176.545377,360.81661 182.738164,367.243086 194.890047,367.243086 L317.109953,367.243086 C329.261836,367.243086 335.454623,360.81661 335.454623,349.132106 L335.454623,195.037757 C335.454623,184.054324 329.962907,176.926777 318.979473,176.926777 L316.175193,176.926777 C316.525728,175.290946 316.642573,173.421426 316.642573,171.551905 L316.642573,161.035852 C316.642573,160.101092 316.642573,159.049486 316.525728,158.114726 L319.330009,158.114726 C342.699015,158.114726 354.266674,170.850835 354.266674,194.804067 L354.266674,349.365796 C354.266674,373.903253 342.231635,386.055137 318.044713,386.055137 L193.955287,386.055137 C169.768365,386.055137 157.733326,373.903253 157.733326,349.365796 L157.733326,194.804067 C157.733326,170.850835 169.300985,158.114726 192.669991,158.114726 Z M226.673381,256.700662 L278.004154,307.948141 L274.954495,311.037593 C271.294282,314.7405 266.635439,314.726107 262.86379,310.907277 L251.469749,299.497856 C246.992475,306.255983 241.396175,319.169674 235.507338,325.097283 C227.754574,332.83764 217.614139,332.760617 209.736147,324.875941 C201.824257,317.010715 201.747109,306.920398 209.548071,299.132194 C215.451402,293.252822 228.386208,287.665201 235.121484,283.195571 L223.698377,271.834386 C219.907441,268.063792 219.92178,263.465791 223.596838,259.796727 L226.673381,256.700662 Z M212.38295,224.160899 L303.72012,315.350066 C305.163711,316.791318 305.163711,319.131941 303.72012,320.573193 C302.27614,322.014444 299.932107,322.014444 298.488517,320.573193 L207.151229,229.384103 C205.707483,227.942735 205.707483,225.602267 207.151229,224.160899 C208.594937,222.719492 210.939203,222.719492 212.38295,224.160899 Z M222.847535,306.443482 C219.660764,306.443482 217.091056,309.042792 217.091056,312.176201 C217.091056,315.357846 219.660764,317.942763 222.847535,317.942763 C226.034344,317.942763 228.560725,315.357846 228.560725,312.176201 C228.560725,309.042792 226.034344,306.443482 222.847535,306.443482 Z M264.609347,216.405834 L289.386506,241.142848 C288.542171,250.460335 284.655581,256.174342 278.817708,262.002756 C278.15728,262.662114 278.234427,263.543203 278.673154,263.980829 C281.420847,266.724459 295.845064,258.998884 300.796912,252.520566 L303.871117,255.652302 C309.585086,261.434035 309.73003,268.240788 304.1123,273.834633 L287.589908,290.28824 L241.79399,244.566725 C243.958402,239.353168 246.196455,232.522647 248.831154,222.236896 C251.170121,213.36849 259.512946,211.317637 264.609347,216.405834 Z M256,125.514961 C269.554024,125.514961 280.537457,136.264705 281.355372,149.468193 L292.105116,149.468193 C298.882128,149.468193 302.971704,153.79146 302.971704,161.035852 L302.971704,173.30458 C302.971704,180.548973 298.882128,184.872239 292.105116,184.872239 L219.894884,184.872239 C213.117872,184.872239 209.028296,180.548973 209.028296,173.30458 L209.028296,161.035852 C209.028296,153.79146 213.117872,149.468193 219.894884,149.468193 L230.644628,149.468193 C231.462543,136.264705 242.445976,125.514961 256,125.514961 Z M256,140.120591 C250.391438,140.120591 245.834482,144.677547 245.834482,150.402954 C245.834482,155.89467 250.391438,160.568472 256,160.568472 C261.608562,160.568472 266.165518,155.89467 266.165518,150.402954 C266.165518,144.677547 261.608562,140.120591 256,140.120591 Z"/><linearGradient id="c" x1="0%" x2="0%" y1="100%" y2="0%"><stop offset="0%" stop-color="#1BC9FC"/><stop offset="100%" stop-color="#1C70F1"/></linearGradient></defs><g fill="none" fill-rule="evenodd"><g fill-rule="nonzero"><use xlink:href="#a" fill="#000" filter="url(#b)"/><use xlink:href="#a" fill="url(#c)"/></g><g fill-rule="nonzero"><use xlink:href="#d" fill="#000" filter="url(#e)"/><use xlink:href="#d" fill="#F5FCFF"/><use xlink:href="#d" fill="#000" filter="url(#f)"/></g></g></svg>