<svg xmlns="http://www.w3.org/2000/svg" xmlns:xlink="http://www.w3.org/1999/xlink" width="512" height="512" viewBox="0 0 512 512"><defs><filter id="b" width="129.1%" height="129.1%" x="-14.6%" y="-14.6%" filterUnits="objectBoundingBox"><feOffset in="SourceAlpha" result="shadowOffsetOuter1"/><feGaussianBlur in="shadowOffsetOuter1" result="shadowBlurOuter1" stdDeviation="20"/><feColorMatrix in="shadowBlurOuter1" values="0 0 0 0 1 0 0 0 0 1 0 0 0 0 1 0 0 0 0.5 0"/></filter><filter id="d" width="120.4%" height="120.4%" x="-10.2%" y="-10.2%" filterUnits="objectBoundingBox"><feMorphology in="SourceAlpha" operator="dilate" radius="1" result="shadowSpreadInner1"/><feGaussianBlur in="shadowSpreadInner1" result="shadowBlurInner1" stdDeviation="1.5"/><feOffset dx="-1" dy="-2" in="shadowBlurInner1" result="shadowOffsetInner1"/><feComposite in="shadowOffsetInner1" in2="SourceAlpha" k2="-1" k3="1" operator="arithmetic" result="shadowInnerInner1"/><feColorMatrix in="shadowInnerInner1" result="shadowMatrixInner1" values="0 0 0 0 0 0 0 0 0 0 0 0 0 0 0 0 0 0 0.2 0"/><feMorphology in="SourceAlpha" operator="dilate" radius="1" result="shadowSpreadInner2"/><feGaussianBlur in="shadowSpreadInner2" result="shadowBlurInner2" stdDeviation="1.5"/><feOffset dx="2" dy="2" in="shadowBlurInner2" result="shadowOffsetInner2"/><feComposite in="shadowOffsetInner2" in2="SourceAlpha" k2="-1" k3="1" operator="arithmetic" result="shadowInnerInner2"/><feColorMatrix in="shadowInnerInner2" result="shadowMatrixInner2" values="0 0 0 0 1 0 0 0 0 1 0 0 0 0 1 0 0 0 0.5 0"/><feMerge><feMergeNode in="shadowMatrixInner1"/><feMergeNode in="shadowMatrixInner2"/></feMerge></filter><filter id="f" width="141.5%" height="148.3%" x="-20.7%" y="-22.2%" filterUnits="objectBoundingBox"><feMorphology in="SourceAlpha" operator="dilate" radius="4" result="shadowSpreadOuter1"/><feOffset dy="4" in="shadowSpreadOuter1" result="shadowOffsetOuter1"/><feGaussianBlur in="shadowOffsetOuter1" result="shadowBlurOuter1" stdDeviation="12"/><feColorMatrix in="shadowBlurOuter1" result="shadowMatrixOuter1" values="0 0 0 0 0 0 0 0 0 0 0 0 0 0 0 0 0 0 0.1 0"/><feMorphology in="SourceAlpha" radius="1" result="shadowSpreadOuter2"/><feOffset dy="2" in="shadowSpreadOuter2" result="shadowOffsetOuter2"/><feGaussianBlur in="shadowOffsetOuter2" result="shadowBlurOuter2" stdDeviation="4"/><feColorMatrix in="shadowBlurOuter2" result="shadowMatrixOuter2" values="0 0 0 0 0.109803922 0 0 0 0 0.541176471 0 0 0 0 0.956862745 0 0 0 0.4 0"/><feMorphology in="SourceAlpha" radius="1" result="shadowSpreadOuter3"/><feOffset dy="-2" in="shadowSpreadOuter3" result="shadowOffsetOuter3"/><feGaussianBlur in="shadowOffsetOuter3" result="shadowBlurOuter3" stdDeviation="4"/><feColorMatrix in="shadowBlurOuter3" result="shadowMatrixOuter3" values="0 0 0 0 1 0 0 0 0 1 0 0 0 0 1 0 0 0 0.5 0"/><feMerge><feMergeNode in="shadowMatrixOuter1"/><feMergeNode in="shadowMatrixOuter2"/><feMergeNode in="shadowMatrixOuter3"/></feMerge></filter><filter id="g" width="128.2%" height="132.8%" x="-14.1%" y="-14.5%" filterUnits="objectBoundingBox"><feGaussianBlur in="SourceAlpha" result="shadowBlurInner1" stdDeviation="1.5"/><feOffset dy="1" in="shadowBlurInner1" result="shadowOffsetInner1"/><feComposite in="shadowOffsetInner1" in2="SourceAlpha" k2="-1" k3="1" operator="arithmetic" result="shadowInnerInner1"/><feColorMatrix in="shadowInnerInner1" values="0 0 0 0 1 0 0 0 0 1 0 0 0 0 1 0 0 0 1 0"/></filter><path id="a" d="M166.374834,50 L347.625166,50 C387.743509,50 402.29139,54.1771525 416.958057,62.0209717 C431.624723,69.8647908 443.135209,81.3752767 450.979028,96.0419433 C458.822847,110.70861 463,125.256491 463,165.374834 L463,346.625166 C463,386.743509 458.822847,401.29139 450.979028,415.958057 C443.135209,430.624723 431.624723,442.135209 416.958057,449.979028 C402.29139,457.822847 387.743509,462 347.625166,462 L166.374834,462 C126.256491,462 111.70861,457.822847 97.0419433,449.979028 C82.3752767,442.135209 70.8647908,430.624723 63.0209717,415.958057 C55.1771525,401.29139 51,386.743509 51,346.625166 L51,165.374834 C51,125.256491 55.1771525,110.70861 63.0209717,96.0419433 C70.8647908,81.3752767 82.3752767,69.8647908 97.0419433,62.0209717 C111.70861,54.1771525 126.256491,50 166.374834,50 Z"/><path id="e" d="M241.540806,360.184414 C245.842221,360.184414 249.404893,358.772451 252.22882,355.948523 C255.052747,353.124596 256.464711,349.568303 256.464711,345.279645 L256.464711,305.178719 L259.244568,305.178719 C272.894517,305.178719 284.881711,306.619676 295.206151,309.501589 C305.530591,312.383502 314.579915,317.090531 322.354123,323.622675 C330.128331,330.154819 336.944897,338.908123 342.803821,349.882589 C344.99106,353.895233 347.406475,356.537083 350.050065,357.80814 C352.693655,359.079198 355.461626,359.714726 358.353977,359.714726 C362.181065,359.714726 365.409736,357.947887 368.039989,354.414209 C370.670243,350.880531 371.985369,345.68091 371.985369,338.815345 C371.985369,318.609479 369.726517,300.466761 365.208814,284.387192 C360.69111,268.307623 353.815688,254.597659 344.582548,243.257301 C335.349407,231.916943 323.644316,223.261925 309.467273,217.292247 C295.290231,211.322569 278.549329,208.33773 259.244568,208.33773 L256.464711,208.33773 L256.464711,168.436856 C256.464711,164.195746 255.052747,160.57248 252.22882,157.567056 C249.404893,154.561632 245.781336,153.05892 241.35815,153.05892 C238.393896,153.05892 235.716674,153.705176 233.326483,154.997688 C230.936293,156.2902 228.13382,158.448736 224.919066,161.473295 L136.751651,243.6374 C134.557454,245.681993 133.011542,247.83531 132.113916,250.097351 C131.21629,252.359392 130.767477,254.534164 130.767477,256.621667 C130.767477,258.607114 131.223248,260.744485 132.134791,263.033779 C133.046334,265.323074 134.598624,267.490018 136.791662,269.534611 L224.919066,352.335404 C227.823014,355.075831 230.56808,357.069106 233.154264,358.31523 C235.740448,359.561353 238.535962,360.184414 241.540806,360.184414 Z M234.582464,331.797857 C233.92722,331.797857 233.302709,331.470235 232.70893,330.814991 L156.349822,258.695253 C155.904488,258.263836 155.592522,257.884606 155.413925,257.557564 C155.235328,257.230522 155.146029,256.918556 155.146029,256.621667 C155.146029,255.98034 155.547293,255.288565 156.349822,254.546341 L232.618472,181.588123 C232.915361,181.365456 233.21225,181.171492 233.50914,181.006232 C233.806029,180.840971 234.133071,180.758341 234.490266,180.758341 C235.583885,180.758341 236.130695,181.312109 236.130695,182.419645 L236.130695,224.639386 C236.130695,227.06089 237.372179,228.271641 239.855148,228.271641 L254.140624,228.271641 C268.60006,228.271641 281.236409,230.050077 292.049673,233.60695 C302.862937,237.163823 312.071143,242.12657 319.674292,248.495193 C327.27744,254.863816 333.474714,262.300544 338.266112,270.805378 C343.057511,279.310212 346.649465,288.515519 349.041975,298.421299 C351.434485,308.327079 352.812237,318.553812 353.175231,329.101499 C353.175231,329.876195 352.892258,330.263543 352.326313,330.263543 C352.103646,330.263543 351.91809,330.174244 351.769645,329.995646 C351.621201,329.817049 351.472756,329.549153 351.324311,329.191958 C346.917361,319.954759 340.359414,312.031526 331.650469,305.422261 C322.941523,298.812995 312.12623,293.767038 299.204588,290.284387 C286.282947,286.801737 271.261626,285.060412 254.140624,285.060412 L239.855148,285.060412 C237.372179,285.060412 236.130695,286.271743 236.130695,288.694406 L236.130695,330.004344 C236.130695,331.20002 235.614618,331.797857 234.582464,331.797857 Z"/><linearGradient id="c" x1="0%" x2="0%" y1="100%" y2="0%"><stop offset="0%" stop-color="#1BC9FC"/><stop offset="100%" stop-color="#1C70F1"/></linearGradient></defs><g fill="none" fill-rule="evenodd"><g fill-rule="nonzero"><use xlink:href="#a" fill="#000" filter="url(#b)"/><use xlink:href="#a" fill="url(#c)"/><use xlink:href="#a" fill="#000" filter="url(#d)"/></g><g fill-rule="nonzero"><use xlink:href="#e" fill="#000" filter="url(#f)"/><use xlink:href="#e" fill="#F5FCFF"/><use xlink:href="#e" fill="#000" filter="url(#g)"/></g></g></svg>