<svg xmlns="http://www.w3.org/2000/svg" xmlns:xlink="http://www.w3.org/1999/xlink" width="512" height="512" viewBox="0 0 512 512"><defs><filter id="b" width="129.1%" height="129.1%" x="-14.6%" y="-14.6%" filterUnits="objectBoundingBox"><feOffset in="SourceAlpha" result="shadowOffsetOuter1"/><feGaussianBlur in="shadowOffsetOuter1" result="shadowBlurOuter1" stdDeviation="20"/><feColorMatrix in="shadowBlurOuter1" values="0 0 0 0 1 0 0 0 0 1 0 0 0 0 1 0 0 0 0.5 0"/></filter><filter id="d" width="120.4%" height="120.4%" x="-10.2%" y="-10.2%" filterUnits="objectBoundingBox"><feMorphology in="SourceAlpha" operator="dilate" radius="1" result="shadowSpreadInner1"/><feGaussianBlur in="shadowSpreadInner1" result="shadowBlurInner1" stdDeviation="1.5"/><feOffset dx="-1" dy="-2" in="shadowBlurInner1" result="shadowOffsetInner1"/><feComposite in="shadowOffsetInner1" in2="SourceAlpha" k2="-1" k3="1" operator="arithmetic" result="shadowInnerInner1"/><feColorMatrix in="shadowInnerInner1" result="shadowMatrixInner1" values="0 0 0 0 0 0 0 0 0 0 0 0 0 0 0 0 0 0 0.2 0"/><feMorphology in="SourceAlpha" operator="dilate" radius="1" result="shadowSpreadInner2"/><feGaussianBlur in="shadowSpreadInner2" result="shadowBlurInner2" stdDeviation="1.5"/><feOffset dx="2" dy="2" in="shadowBlurInner2" result="shadowOffsetInner2"/><feComposite in="shadowOffsetInner2" in2="SourceAlpha" k2="-1" k3="1" operator="arithmetic" result="shadowInnerInner2"/><feColorMatrix in="shadowInnerInner2" result="shadowMatrixInner2" values="0 0 0 0 1 0 0 0 0 1 0 0 0 0 1 0 0 0 0.5 0"/><feMerge><feMergeNode in="shadowMatrixInner1"/><feMergeNode in="shadowMatrixInner2"/></feMerge></filter><filter id="f" width="320.5%" height="257.2%" x="-104.5%" y="-72.3%" filterUnits="objectBoundingBox"><feMorphology in="SourceAlpha" operator="dilate" radius="4" result="shadowSpreadOuter1"/><feOffset dy="4" in="shadowSpreadOuter1" result="shadowOffsetOuter1"/><feGaussianBlur in="shadowOffsetOuter1" result="shadowBlurOuter1" stdDeviation="12"/><feColorMatrix in="shadowBlurOuter1" result="shadowMatrixOuter1" values="0 0 0 0 0 0 0 0 0 0 0 0 0 0 0 0 0 0 0.1 0"/><feMorphology in="SourceAlpha" radius="1" result="shadowSpreadOuter2"/><feOffset dy="2" in="shadowSpreadOuter2" result="shadowOffsetOuter2"/><feGaussianBlur in="shadowOffsetOuter2" result="shadowBlurOuter2" stdDeviation="4"/><feColorMatrix in="shadowBlurOuter2" result="shadowMatrixOuter2" values="0 0 0 0 0.109803922 0 0 0 0 0.541176471 0 0 0 0 0.956862745 0 0 0 0.4 0"/><feMorphology in="SourceAlpha" radius="1" result="shadowSpreadOuter3"/><feOffset dy="-2" in="shadowSpreadOuter3" result="shadowOffsetOuter3"/><feGaussianBlur in="shadowOffsetOuter3" result="shadowBlurOuter3" stdDeviation="4"/><feColorMatrix in="shadowBlurOuter3" result="shadowMatrixOuter3" values="0 0 0 0 1 0 0 0 0 1 0 0 0 0 1 0 0 0 0.5 0"/><feMerge><feMergeNode in="shadowMatrixOuter1"/><feMergeNode in="shadowMatrixOuter2"/><feMergeNode in="shadowMatrixOuter3"/></feMerge></filter><filter id="g" width="253.6%" height="206.9%" x="-71%" y="-47.2%" filterUnits="objectBoundingBox"><feGaussianBlur in="SourceAlpha" result="shadowBlurInner1" stdDeviation="1.5"/><feOffset dy="1" in="shadowBlurInner1" result="shadowOffsetInner1"/><feComposite in="shadowOffsetInner1" in2="SourceAlpha" k2="-1" k3="1" operator="arithmetic" result="shadowInnerInner1"/><feColorMatrix in="shadowInnerInner1" values="0 0 0 0 1 0 0 0 0 1 0 0 0 0 1 0 0 0 1 0"/></filter><filter id="i" width="336.5%" height="307.5%" x="-117.9%" y="-95.4%" filterUnits="objectBoundingBox"><feMorphology in="SourceAlpha" operator="dilate" radius="4" result="shadowSpreadOuter1"/><feOffset dy="4" in="shadowSpreadOuter1" result="shadowOffsetOuter1"/><feGaussianBlur in="shadowOffsetOuter1" result="shadowBlurOuter1" stdDeviation="12"/><feColorMatrix in="shadowBlurOuter1" result="shadowMatrixOuter1" values="0 0 0 0 0 0 0 0 0 0 0 0 0 0 0 0 0 0 0.1 0"/><feMorphology in="SourceAlpha" radius="1" result="shadowSpreadOuter2"/><feOffset dy="2" in="shadowSpreadOuter2" result="shadowOffsetOuter2"/><feGaussianBlur in="shadowOffsetOuter2" result="shadowBlurOuter2" stdDeviation="4"/><feColorMatrix in="shadowBlurOuter2" result="shadowMatrixOuter2" values="0 0 0 0 0.109803922 0 0 0 0 0.541176471 0 0 0 0 0.956862745 0 0 0 0.4 0"/><feMorphology in="SourceAlpha" radius="1" result="shadowSpreadOuter3"/><feOffset dy="-2" in="shadowSpreadOuter3" result="shadowOffsetOuter3"/><feGaussianBlur in="shadowOffsetOuter3" result="shadowBlurOuter3" stdDeviation="4"/><feColorMatrix in="shadowBlurOuter3" result="shadowMatrixOuter3" values="0 0 0 0 1 0 0 0 0 1 0 0 0 0 1 0 0 0 0.5 0"/><feMerge><feMergeNode in="shadowMatrixOuter1"/><feMergeNode in="shadowMatrixOuter2"/><feMergeNode in="shadowMatrixOuter3"/></feMerge></filter><filter id="j" width="261%" height="241.1%" x="-80.2%" y="-62.2%" filterUnits="objectBoundingBox"><feGaussianBlur in="SourceAlpha" result="shadowBlurInner1" stdDeviation="1.5"/><feOffset dy="1" in="shadowBlurInner1" result="shadowOffsetInner1"/><feComposite in="shadowOffsetInner1" in2="SourceAlpha" k2="-1" k3="1" operator="arithmetic" result="shadowInnerInner1"/><feColorMatrix in="shadowInnerInner1" values="0 0 0 0 1 0 0 0 0 1 0 0 0 0 1 0 0 0 1 0"/></filter><filter id="l" width="328.7%" height="259.4%" x="-114.4%" y="-73.3%" filterUnits="objectBoundingBox"><feMorphology in="SourceAlpha" operator="dilate" radius="4" result="shadowSpreadOuter1"/><feOffset dy="4" in="shadowSpreadOuter1" result="shadowOffsetOuter1"/><feGaussianBlur in="shadowOffsetOuter1" result="shadowBlurOuter1" stdDeviation="12"/><feColorMatrix in="shadowBlurOuter1" result="shadowMatrixOuter1" values="0 0 0 0 0 0 0 0 0 0 0 0 0 0 0 0 0 0 0.1 0"/><feMorphology in="SourceAlpha" radius="1" result="shadowSpreadOuter2"/><feOffset dy="2" in="shadowSpreadOuter2" result="shadowOffsetOuter2"/><feGaussianBlur in="shadowOffsetOuter2" result="shadowBlurOuter2" stdDeviation="4"/><feColorMatrix in="shadowBlurOuter2" result="shadowMatrixOuter2" values="0 0 0 0 0.109803922 0 0 0 0 0.541176471 0 0 0 0 0.956862745 0 0 0 0.4 0"/><feMorphology in="SourceAlpha" radius="1" result="shadowSpreadOuter3"/><feOffset dy="-2" in="shadowSpreadOuter3" result="shadowOffsetOuter3"/><feGaussianBlur in="shadowOffsetOuter3" result="shadowBlurOuter3" stdDeviation="4"/><feColorMatrix in="shadowBlurOuter3" result="shadowMatrixOuter3" values="0 0 0 0 1 0 0 0 0 1 0 0 0 0 1 0 0 0 0.5 0"/><feMerge><feMergeNode in="shadowMatrixOuter1"/><feMergeNode in="shadowMatrixOuter2"/><feMergeNode in="shadowMatrixOuter3"/></feMerge></filter><filter id="m" width="255.5%" height="208.4%" x="-77.8%" y="-47.8%" filterUnits="objectBoundingBox"><feGaussianBlur in="SourceAlpha" result="shadowBlurInner1" stdDeviation="1.5"/><feOffset dy="1" in="shadowBlurInner1" result="shadowOffsetInner1"/><feComposite in="shadowOffsetInner1" in2="SourceAlpha" k2="-1" k3="1" operator="arithmetic" result="shadowInnerInner1"/><feColorMatrix in="shadowInnerInner1" values="0 0 0 0 1 0 0 0 0 1 0 0 0 0 1 0 0 0 1 0"/></filter><filter id="o" width="1143.9%" height="257.2%" x="-521.9%" y="-72.3%" filterUnits="objectBoundingBox"><feMorphology in="SourceAlpha" operator="dilate" radius="4" result="shadowSpreadOuter1"/><feOffset dy="4" in="shadowSpreadOuter1" result="shadowOffsetOuter1"/><feGaussianBlur in="shadowOffsetOuter1" result="shadowBlurOuter1" stdDeviation="12"/><feColorMatrix in="shadowBlurOuter1" result="shadowMatrixOuter1" values="0 0 0 0 0 0 0 0 0 0 0 0 0 0 0 0 0 0 0.1 0"/><feMorphology in="SourceAlpha" radius="1" result="shadowSpreadOuter2"/><feOffset dy="2" in="shadowSpreadOuter2" result="shadowOffsetOuter2"/><feGaussianBlur in="shadowOffsetOuter2" result="shadowBlurOuter2" stdDeviation="4"/><feColorMatrix in="shadowBlurOuter2" result="shadowMatrixOuter2" values="0 0 0 0 0.109803922 0 0 0 0 0.541176471 0 0 0 0 0.956862745 0 0 0 0.4 0"/><feMorphology in="SourceAlpha" radius="1" result="shadowSpreadOuter3"/><feOffset dy="-2" in="shadowSpreadOuter3" result="shadowOffsetOuter3"/><feGaussianBlur in="shadowOffsetOuter3" result="shadowBlurOuter3" stdDeviation="4"/><feColorMatrix in="shadowBlurOuter3" result="shadowMatrixOuter3" values="0 0 0 0 1 0 0 0 0 1 0 0 0 0 1 0 0 0 0.5 0"/><feMerge><feMergeNode in="shadowMatrixOuter1"/><feMergeNode in="shadowMatrixOuter2"/><feMergeNode in="shadowMatrixOuter3"/></feMerge></filter><filter id="p" width="809.8%" height="206.9%" x="-354.9%" y="-47.2%" filterUnits="objectBoundingBox"><feGaussianBlur in="SourceAlpha" result="shadowBlurInner1" stdDeviation="1.5"/><feOffset dy="1" in="shadowBlurInner1" result="shadowOffsetInner1"/><feComposite in="shadowOffsetInner1" in2="SourceAlpha" k2="-1" k3="1" operator="arithmetic" result="shadowInnerInner1"/><feColorMatrix in="shadowInnerInner1" values="0 0 0 0 1 0 0 0 0 1 0 0 0 0 1 0 0 0 1 0"/></filter><filter id="r" width="342.2%" height="261.7%" x="-121.2%" y="-74.4%" filterUnits="objectBoundingBox"><feMorphology in="SourceAlpha" operator="dilate" radius="4" result="shadowSpreadOuter1"/><feOffset dy="4" in="shadowSpreadOuter1" result="shadowOffsetOuter1"/><feGaussianBlur in="shadowOffsetOuter1" result="shadowBlurOuter1" stdDeviation="12"/><feColorMatrix in="shadowBlurOuter1" result="shadowMatrixOuter1" values="0 0 0 0 0 0 0 0 0 0 0 0 0 0 0 0 0 0 0.1 0"/><feMorphology in="SourceAlpha" radius="1" result="shadowSpreadOuter2"/><feOffset dy="2" in="shadowSpreadOuter2" result="shadowOffsetOuter2"/><feGaussianBlur in="shadowOffsetOuter2" result="shadowBlurOuter2" stdDeviation="4"/><feColorMatrix in="shadowBlurOuter2" result="shadowMatrixOuter2" values="0 0 0 0 0.109803922 0 0 0 0 0.541176471 0 0 0 0 0.956862745 0 0 0 0.4 0"/><feMorphology in="SourceAlpha" radius="1" result="shadowSpreadOuter3"/><feOffset dy="-2" in="shadowSpreadOuter3" result="shadowOffsetOuter3"/><feGaussianBlur in="shadowOffsetOuter3" result="shadowBlurOuter3" stdDeviation="4"/><feColorMatrix in="shadowBlurOuter3" result="shadowMatrixOuter3" values="0 0 0 0 1 0 0 0 0 1 0 0 0 0 1 0 0 0 0.5 0"/><feMerge><feMergeNode in="shadowMatrixOuter1"/><feMergeNode in="shadowMatrixOuter2"/><feMergeNode in="shadowMatrixOuter3"/></feMerge></filter><filter id="s" width="269.6%" height="209.9%" x="-84.9%" y="-48.5%" filterUnits="objectBoundingBox"><feGaussianBlur in="SourceAlpha" result="shadowBlurInner1" stdDeviation="1.5"/><feOffset dy="1" in="shadowBlurInner1" result="shadowOffsetInner1"/><feComposite in="shadowOffsetInner1" in2="SourceAlpha" k2="-1" k3="1" operator="arithmetic" result="shadowInnerInner1"/><feColorMatrix in="shadowInnerInner1" values="0 0 0 0 1 0 0 0 0 1 0 0 0 0 1 0 0 0 1 0"/></filter><filter id="u" width="497.7%" height="268.5%" x="-198.8%" y="-77.5%" filterUnits="objectBoundingBox"><feMorphology in="SourceAlpha" operator="dilate" radius="4" result="shadowSpreadOuter1"/><feOffset dy="4" in="shadowSpreadOuter1" result="shadowOffsetOuter1"/><feGaussianBlur in="shadowOffsetOuter1" result="shadowBlurOuter1" stdDeviation="12"/><feColorMatrix in="shadowBlurOuter1" result="shadowMatrixOuter1" values="0 0 0 0 0 0 0 0 0 0 0 0 0 0 0 0 0 0 0.1 0"/><feMorphology in="SourceAlpha" radius="1" result="shadowSpreadOuter2"/><feOffset dy="2" in="shadowSpreadOuter2" result="shadowOffsetOuter2"/><feGaussianBlur in="shadowOffsetOuter2" result="shadowBlurOuter2" stdDeviation="4"/><feColorMatrix in="shadowBlurOuter2" result="shadowMatrixOuter2" values="0 0 0 0 0.109803922 0 0 0 0 0.541176471 0 0 0 0 0.956862745 0 0 0 0.4 0"/><feMorphology in="SourceAlpha" radius="1" result="shadowSpreadOuter3"/><feOffset dy="-2" in="shadowSpreadOuter3" result="shadowOffsetOuter3"/><feGaussianBlur in="shadowOffsetOuter3" result="shadowBlurOuter3" stdDeviation="4"/><feColorMatrix in="shadowBlurOuter3" result="shadowMatrixOuter3" values="0 0 0 0 1 0 0 0 0 1 0 0 0 0 1 0 0 0 0.5 0"/><feMerge><feMergeNode in="shadowMatrixOuter1"/><feMergeNode in="shadowMatrixOuter2"/><feMergeNode in="shadowMatrixOuter3"/></feMerge></filter><filter id="v" width="370.4%" height="214.6%" x="-135.2%" y="-50.5%" filterUnits="objectBoundingBox"><feGaussianBlur in="SourceAlpha" result="shadowBlurInner1" stdDeviation="1.5"/><feOffset dy="1" in="shadowBlurInner1" result="shadowOffsetInner1"/><feComposite in="shadowOffsetInner1" in2="SourceAlpha" k2="-1" k3="1" operator="arithmetic" result="shadowInnerInner1"/><feColorMatrix in="shadowInnerInner1" values="0 0 0 0 1 0 0 0 0 1 0 0 0 0 1 0 0 0 1 0"/></filter><filter id="x" width="327%" height="307.5%" x="-113.5%" y="-95.4%" filterUnits="objectBoundingBox"><feMorphology in="SourceAlpha" operator="dilate" radius="4" result="shadowSpreadOuter1"/><feOffset dy="4" in="shadowSpreadOuter1" result="shadowOffsetOuter1"/><feGaussianBlur in="shadowOffsetOuter1" result="shadowBlurOuter1" stdDeviation="12"/><feColorMatrix in="shadowBlurOuter1" result="shadowMatrixOuter1" values="0 0 0 0 0 0 0 0 0 0 0 0 0 0 0 0 0 0 0.1 0"/><feMorphology in="SourceAlpha" radius="1" result="shadowSpreadOuter2"/><feOffset dy="2" in="shadowSpreadOuter2" result="shadowOffsetOuter2"/><feGaussianBlur in="shadowOffsetOuter2" result="shadowBlurOuter2" stdDeviation="4"/><feColorMatrix in="shadowBlurOuter2" result="shadowMatrixOuter2" values="0 0 0 0 0.109803922 0 0 0 0 0.541176471 0 0 0 0 0.956862745 0 0 0 0.4 0"/><feMorphology in="SourceAlpha" radius="1" result="shadowSpreadOuter3"/><feOffset dy="-2" in="shadowSpreadOuter3" result="shadowOffsetOuter3"/><feGaussianBlur in="shadowOffsetOuter3" result="shadowBlurOuter3" stdDeviation="4"/><feColorMatrix in="shadowBlurOuter3" result="shadowMatrixOuter3" values="0 0 0 0 1 0 0 0 0 1 0 0 0 0 1 0 0 0 0.5 0"/><feMerge><feMergeNode in="shadowMatrixOuter1"/><feMergeNode in="shadowMatrixOuter2"/><feMergeNode in="shadowMatrixOuter3"/></feMerge></filter><filter id="y" width="254.3%" height="241.1%" x="-77.2%" y="-62.2%" filterUnits="objectBoundingBox"><feGaussianBlur in="SourceAlpha" result="shadowBlurInner1" stdDeviation="1.5"/><feOffset dy="1" in="shadowBlurInner1" result="shadowOffsetInner1"/><feComposite in="shadowOffsetInner1" in2="SourceAlpha" k2="-1" k3="1" operator="arithmetic" result="shadowInnerInner1"/><feColorMatrix in="shadowInnerInner1" values="0 0 0 0 1 0 0 0 0 1 0 0 0 0 1 0 0 0 1 0"/></filter><filter id="A" width="961.7%" height="323.6%" x="-430.8%" y="-102.9%" filterUnits="objectBoundingBox"><feMorphology in="SourceAlpha" operator="dilate" radius="4" result="shadowSpreadOuter1"/><feOffset dy="4" in="shadowSpreadOuter1" result="shadowOffsetOuter1"/><feGaussianBlur in="shadowOffsetOuter1" result="shadowBlurOuter1" stdDeviation="12"/><feColorMatrix in="shadowBlurOuter1" result="shadowMatrixOuter1" values="0 0 0 0 0 0 0 0 0 0 0 0 0 0 0 0 0 0 0.1 0"/><feMorphology in="SourceAlpha" radius="1" result="shadowSpreadOuter2"/><feOffset dy="2" in="shadowSpreadOuter2" result="shadowOffsetOuter2"/><feGaussianBlur in="shadowOffsetOuter2" result="shadowBlurOuter2" stdDeviation="4"/><feColorMatrix in="shadowBlurOuter2" result="shadowMatrixOuter2" values="0 0 0 0 0.109803922 0 0 0 0 0.541176471 0 0 0 0 0.956862745 0 0 0 0.4 0"/><feMorphology in="SourceAlpha" radius="1" result="shadowSpreadOuter3"/><feOffset dy="-2" in="shadowSpreadOuter3" result="shadowOffsetOuter3"/><feGaussianBlur in="shadowOffsetOuter3" result="shadowBlurOuter3" stdDeviation="4"/><feColorMatrix in="shadowBlurOuter3" result="shadowMatrixOuter3" values="0 0 0 0 1 0 0 0 0 1 0 0 0 0 1 0 0 0 0.5 0"/><feMerge><feMergeNode in="shadowMatrixOuter1"/><feMergeNode in="shadowMatrixOuter2"/><feMergeNode in="shadowMatrixOuter3"/></feMerge></filter><filter id="B" width="685.9%" height="252%" x="-293%" y="-67.1%" filterUnits="objectBoundingBox"><feGaussianBlur in="SourceAlpha" result="shadowBlurInner1" stdDeviation="1.5"/><feOffset dy="1" in="shadowBlurInner1" result="shadowOffsetInner1"/><feComposite in="shadowOffsetInner1" in2="SourceAlpha" k2="-1" k3="1" operator="arithmetic" result="shadowInnerInner1"/><feColorMatrix in="shadowInnerInner1" values="0 0 0 0 1 0 0 0 0 1 0 0 0 0 1 0 0 0 1 0"/></filter><path id="a" d="M166.374834,50 L347.625166,50 C387.743509,50 402.29139,54.1771525 416.958057,62.0209717 C431.624723,69.8647908 443.135209,81.3752767 450.979028,96.0419433 C458.822847,110.70861 463,125.256491 463,165.374834 L463,346.625166 C463,386.743509 458.822847,401.29139 450.979028,415.958057 C443.135209,430.624723 431.624723,442.135209 416.958057,449.979028 C402.29139,457.822847 387.743509,462 347.625166,462 L166.374834,462 C126.256491,462 111.70861,457.822847 97.0419433,449.979028 C82.3752767,442.135209 70.8647908,430.624723 63.0209717,415.958057 C55.1771525,401.29139 51,386.743509 51,346.625166 L51,165.374834 C51,125.256491 55.1771525,110.70861 63.0209717,96.0419433 C70.8647908,81.3752767 82.3752767,69.8647908 97.0419433,62.0209717 C111.70861,54.1771525 126.256491,50 166.374834,50 Z"/><path id="e" d="M94.8465513,288.383562 L104.755644,288.383562 L104.755644,263.990783 L117.752587,263.990783 C117.851336,263.990783 117.944229,263.990783 118.031265,263.990783 C118.118302,263.990783 118.208669,263.990783 118.302365,263.990783 L131.271751,288.383562 L142.701345,288.383562 L128.459478,262.473726 C132.266128,261.166569 135.270845,258.89684 137.473632,255.664541 C139.676418,252.432242 140.777811,248.651887 140.777811,244.323476 L140.777811,244.235291 C140.777811,240.252272 139.915711,236.806055 138.191512,233.896642 C136.467313,230.987228 134.019377,228.73679 130.847705,227.145327 C127.676033,225.553865 123.92071,224.758134 119.581736,224.758134 L94.8465513,224.758134 L94.8465513,288.383562 Z M104.755644,255.848145 L104.755644,233.049584 L118.320967,233.049584 C122.110622,233.049584 125.10248,234.053262 127.296539,236.060617 C129.490599,238.067973 130.587628,240.832823 130.587628,244.355168 L130.587628,244.443353 C130.587628,248.061691 129.541351,250.867074 127.448796,252.859502 C125.356241,254.85193 122.409624,255.848145 118.608946,255.848145 L104.755644,255.848145 Z"/><path id="h" d="M168.827982,289.297791 C171.644388,289.297791 174.194173,288.917379 176.477336,288.156554 C178.760499,287.39573 180.753386,286.350256 182.455999,285.020133 C184.158611,283.690011 185.53696,282.181681 186.591045,280.495144 C187.645131,278.808607 188.360485,277.051568 188.737108,275.224027 L188.83356,274.75899 L179.725022,274.75899 L179.609279,275.107596 C179.222092,276.27375 178.553126,277.338973 177.602383,278.303266 C176.651639,279.267559 175.455171,280.036881 174.01298,280.611231 C172.570789,281.185581 170.91204,281.472757 169.036732,281.472757 C166.467428,281.472757 164.244088,280.90587 162.366713,279.772096 C160.489339,278.638323 159.041292,277.005868 158.022572,274.874732 C157.003852,272.743597 156.494493,270.177277 156.494493,267.175775 L156.494493,263.469941 C156.494493,260.324219 157.00856,257.667763 158.036695,255.500572 C159.064831,253.333381 160.476134,251.694956 162.270606,250.585295 C164.065077,249.475635 166.101368,248.920805 168.379479,248.920805 C170.65759,248.920805 172.669883,249.451637 174.416358,250.513301 C176.162833,251.574965 177.53211,253.183306 178.524191,255.338325 C179.516271,257.493345 180.012312,260.203883 180.012312,263.469941 L180.012312,267.159929 L184.708848,260.860218 L151.672568,260.860218 L151.672568,267.633234 L189.342002,267.633234 L189.342002,264.390371 C189.342002,259.740453 188.4946,255.665 186.799795,252.164012 C185.104991,248.663025 182.686336,245.943071 179.543829,244.00415 C176.401322,242.06523 172.662189,241.09577 168.32643,241.09577 C163.990671,241.09577 160.221684,242.103926 157.019469,244.120238 C153.817253,246.136549 151.333952,248.961338 149.569564,252.594603 C147.805177,256.227868 146.922983,260.462008 146.922983,265.297022 L146.922983,265.341115 C146.922983,270.218384 147.800469,274.452409 149.555441,278.043189 C151.310413,281.63397 153.825865,284.407432 157.101797,286.363576 C160.37773,288.319719 164.286458,289.297791 168.827982,289.297791 Z"/><path id="k" d="M196.654128,303.815925 L206.233905,303.815925 L206.233905,280.574373 L206.442655,280.574373 C207.375027,282.375734 208.561964,283.927811 210.003466,285.230606 C211.444968,286.5334 213.110378,287.536963 214.999694,288.241295 C216.88901,288.945626 218.925416,289.297791 221.108912,289.297791 C224.997316,289.297791 228.381183,288.317653 231.260513,286.357375 C234.139843,284.397098 236.379028,281.618354 237.978069,278.021143 C239.57711,274.423933 240.37663,270.161202 240.37663,265.23295 L240.37663,265.188858 C240.37663,260.254635 239.58044,255.982948 237.988059,252.373796 C236.395678,248.764644 234.145125,245.982685 231.2364,244.027919 C228.327675,242.073153 224.902471,241.09577 220.960789,241.09577 C218.763973,241.09577 216.736868,241.455284 214.879473,242.174313 C213.022078,242.893342 211.385949,243.90965 209.971086,245.223238 C208.556223,246.536826 207.382835,248.11451 206.450923,249.956289 L206.233905,249.956289 L206.233905,242.01 L196.654128,242.01 L196.654128,303.815925 Z M218.450963,281.084881 C216.047464,281.084881 213.929074,280.430613 212.095792,279.122077 C210.26251,277.813541 208.818481,275.972796 207.763707,273.59984 C206.708932,271.226885 206.181545,268.440448 206.181545,265.240529 L206.181545,265.196436 C206.181545,261.967582 206.702962,259.166677 207.745794,256.793721 C208.788627,254.420766 210.234033,252.58002 212.082013,251.271484 C213.929992,249.962949 216.052976,249.308681 218.450963,249.308681 C220.944943,249.308681 223.102603,249.945036 224.923943,251.217747 C226.745284,252.490457 228.147286,254.313176 229.129951,256.685901 C230.112616,259.058627 230.603949,261.892946 230.603949,265.188858 L230.603949,265.23295 C230.603949,268.475124 230.113994,271.282689 229.134085,273.655645 C228.154176,276.0286 226.753551,277.860045 224.932211,279.149979 C223.11087,280.439914 220.950454,281.084881 218.450963,281.084881 Z"/><path id="q" d="M272.905675,303.864151 C275.943462,303.864151 278.547099,303.419207 280.716586,302.52932 C282.886073,301.639433 284.741172,300.214695 286.281882,298.255107 C287.822592,296.295518 289.163623,293.715076 290.304975,290.513779 L307.584399,242.01 L297.494114,242.01 L285.17647,281.804139 L286.840272,279.741438 L284.506816,279.741438 L286.16235,281.804139 L273.872953,242.01 L263.496756,242.01 L280.395193,288.419387 L279.60704,290.632966 C278.824859,292.853206 277.766869,294.350512 276.433072,295.124886 C275.099275,295.89926 273.30687,296.286447 271.055858,296.286447 C270.407791,296.286447 269.814035,296.250278 269.274591,296.177938 C268.735147,296.105599 268.27941,296.034753 267.90738,295.965399 L267.90738,303.439072 C268.504006,303.543332 269.255301,303.640244 270.161263,303.729807 C271.067226,303.819369 271.982029,303.864151 272.905675,303.864151 Z"/><path id="t" d="M347.661598,289.297791 C348.635766,289.297791 349.551603,289.255651 350.409109,289.17137 C351.266616,289.087089 351.976229,289.00476 352.537949,288.924383 L352.537949,281.535451 C352.187965,281.569898 351.797104,281.609168 351.365365,281.65326 C350.933626,281.697353 350.463766,281.719399 349.955784,281.719399 C347.935798,281.719399 346.411507,281.287201 345.382913,280.422805 C344.354318,279.558409 343.840021,277.949493 343.840021,275.596058 L343.840021,249.588392 L352.537949,249.588392 L352.537949,242.01 L343.840021,242.01 L343.840021,229.935554 L334.043915,229.935554 L334.043915,242.01 L327.390775,242.01 L327.390775,249.588392 L334.043915,249.588392 L334.043915,276.141013 C334.043915,280.768885 335.16701,284.118649 337.4132,286.190306 C339.659389,288.261963 343.075522,289.297791 347.661598,289.297791 Z"/><path id="w" d="M379.228584,289.297791 C383.661255,289.297791 387.524169,288.325001 390.817325,286.379421 C394.110481,284.433841 396.671862,281.662446 398.50147,278.065236 C400.331078,274.468025 401.245882,270.181181 401.245882,265.204704 L401.245882,265.116519 C401.245882,260.150605 400.327059,255.875128 398.489414,252.290089 C396.651768,248.70505 394.080282,245.943071 390.774954,244.00415 C387.469627,242.06523 383.608895,241.09577 379.192759,241.09577 C374.806018,241.09577 370.960099,242.066493 367.655001,244.00794 C364.349903,245.949386 361.778417,248.714121 359.940542,252.302146 C358.102667,255.89017 357.18373,260.161628 357.18373,265.116519 L357.18373,265.204704 C357.18373,270.151786 358.09727,274.430019 359.924352,278.0394 C361.751433,281.648782 364.317523,284.427526 367.622621,286.375632 C370.927719,288.323738 374.796373,289.297791 379.228584,289.297791 Z M379.272677,281.295009 C376.784208,281.295009 374.618051,280.663935 372.774205,279.401789 C370.930359,278.139642 369.499766,276.307393 368.482424,273.905043 C367.465082,271.502692 366.956411,268.602579 366.956411,265.204704 L366.956411,265.116519 C366.956411,261.724614 367.46646,258.839313 368.486558,256.460616 C369.506655,254.08192 370.938627,252.260235 372.782473,250.995562 C374.626319,249.730889 376.763081,249.098553 379.192759,249.098553 C381.670664,249.098553 383.831539,249.724918 385.675385,250.977649 C387.519231,252.230381 388.946495,254.052065 389.957177,256.442704 C390.967859,258.833342 391.4732,261.724614 391.4732,265.116519 L391.4732,265.204704 C391.4732,268.602579 390.970615,271.502692 389.965444,273.905043 C388.960274,276.307393 387.547707,278.139642 385.727745,279.401789 C383.907783,280.663935 381.756093,281.295009 379.272677,281.295009 Z"/><path id="z" d="M414.003287,289.049082 C415.629656,289.049082 417.003297,288.488626 418.124211,287.367713 C419.245124,286.246799 419.80558,284.873158 419.80558,283.246789 C419.80558,281.62042 419.245124,280.246665 418.124211,279.125522 C417.003297,278.004379 415.629656,277.443808 414.003287,277.443808 C412.376918,277.443808 411.003163,278.004379 409.88202,279.125522 C408.760877,280.246665 408.200306,281.62042 408.200306,283.246789 C408.200306,284.873158 408.760877,286.246799 409.88202,287.367713 C411.003163,288.488626 412.376918,289.049082 414.003287,289.049082 Z M414.003287,255.932196 C415.629656,255.932196 417.003297,255.371739 418.124211,254.250826 C419.245124,253.129913 419.80558,251.756272 419.80558,250.129903 C419.80558,248.503075 419.245124,247.129204 418.124211,246.008291 C417.003297,244.887378 415.629656,244.326921 414.003287,244.326921 C412.376918,244.326921 411.003163,244.887378 409.88202,246.008291 C408.760877,247.129204 408.200306,248.503075 408.200306,250.129903 C408.200306,251.756272 408.760877,253.129913 409.88202,254.250826 C411.003163,255.371739 412.376918,255.932196 414.003287,255.932196 Z"/><linearGradient id="c" x1="0%" x2="0%" y1="100%" y2="0%"><stop offset="0%" stop-color="#1BC9FC"/><stop offset="100%" stop-color="#1C70F1"/></linearGradient><polygon id="n" points="248.078 288.384 257.658 288.384 257.658 224.758 248.078 224.758"/></defs><g fill="none" fill-rule="evenodd"><g fill-rule="nonzero"><use xlink:href="#a" fill="#000" filter="url(#b)"/><use xlink:href="#a" fill="url(#c)"/><use xlink:href="#a" fill="#000" filter="url(#d)"/></g><g fill-rule="nonzero"><use xlink:href="#e" fill="#000" filter="url(#f)"/><use xlink:href="#e" fill="#F5FCFF"/><use xlink:href="#e" fill="#000" filter="url(#g)"/></g><g fill-rule="nonzero"><use xlink:href="#h" fill="#000" filter="url(#i)"/><use xlink:href="#h" fill="#F5FCFF"/><use xlink:href="#h" fill="#000" filter="url(#j)"/></g><g fill-rule="nonzero"><use xlink:href="#k" fill="#000" filter="url(#l)"/><use xlink:href="#k" fill="#F5FCFF"/><use xlink:href="#k" fill="#000" filter="url(#m)"/></g><g fill-rule="nonzero"><use xlink:href="#n" fill="#000" filter="url(#o)"/><use xlink:href="#n" fill="#F5FCFF"/><use xlink:href="#n" fill="#000" filter="url(#p)"/></g><g fill-rule="nonzero"><use xlink:href="#q" fill="#000" filter="url(#r)"/><use xlink:href="#q" fill="#F5FCFF"/><use xlink:href="#q" fill="#000" filter="url(#s)"/></g><g fill-rule="nonzero"><use xlink:href="#t" fill="#000" filter="url(#u)"/><use xlink:href="#t" fill="#F5FCFF"/><use xlink:href="#t" fill="#000" filter="url(#v)"/></g><g fill-rule="nonzero"><use xlink:href="#w" fill="#000" filter="url(#x)"/><use xlink:href="#w" fill="#F5FCFF"/><use xlink:href="#w" fill="#000" filter="url(#y)"/></g><g fill-rule="nonzero"><use xlink:href="#z" fill="#000" filter="url(#A)"/><use xlink:href="#z" fill="#F5FCFF"/><use xlink:href="#z" fill="#000" filter="url(#B)"/></g></g></svg>