<svg xmlns="http://www.w3.org/2000/svg" xmlns:xlink="http://www.w3.org/1999/xlink" width="512" height="512" viewBox="0 0 512 512"><defs><filter id="b" width="129.1%" height="129.1%" x="-14.6%" y="-14.6%" filterUnits="objectBoundingBox"><feOffset in="SourceAlpha" result="shadowOffsetOuter1"/><feGaussianBlur in="shadowOffsetOuter1" result="shadowBlurOuter1" stdDeviation="20"/><feColorMatrix in="shadowBlurOuter1" values="0 0 0 0 1 0 0 0 0 1 0 0 0 0 1 0 0 0 0.5 0"/></filter><filter id="d" width="120.4%" height="120.4%" x="-10.2%" y="-10.2%" filterUnits="objectBoundingBox"><feMorphology in="SourceAlpha" operator="dilate" radius="1" result="shadowSpreadInner1"/><feGaussianBlur in="shadowSpreadInner1" result="shadowBlurInner1" stdDeviation="1.5"/><feOffset dx="-1" dy="-2" in="shadowBlurInner1" result="shadowOffsetInner1"/><feComposite in="shadowOffsetInner1" in2="SourceAlpha" k2="-1" k3="1" operator="arithmetic" result="shadowInnerInner1"/><feColorMatrix in="shadowInnerInner1" result="shadowMatrixInner1" values="0 0 0 0 0 0 0 0 0 0 0 0 0 0 0 0 0 0 0.2 0"/><feMorphology in="SourceAlpha" operator="dilate" radius="1" result="shadowSpreadInner2"/><feGaussianBlur in="shadowSpreadInner2" result="shadowBlurInner2" stdDeviation="1.5"/><feOffset dx="2" dy="2" in="shadowBlurInner2" result="shadowOffsetInner2"/><feComposite in="shadowOffsetInner2" in2="SourceAlpha" k2="-1" k3="1" operator="arithmetic" result="shadowInnerInner2"/><feColorMatrix in="shadowInnerInner2" result="shadowMatrixInner2" values="0 0 0 0 1 0 0 0 0 1 0 0 0 0 1 0 0 0 0.5 0"/><feMerge><feMergeNode in="shadowMatrixInner1"/><feMergeNode in="shadowMatrixInner2"/></feMerge></filter><filter id="f" width="133.3%" height="148.3%" x="-16.7%" y="-22.2%" filterUnits="objectBoundingBox"><feMorphology in="SourceAlpha" operator="dilate" radius="4" result="shadowSpreadOuter1"/><feOffset dy="4" in="shadowSpreadOuter1" result="shadowOffsetOuter1"/><feGaussianBlur in="shadowOffsetOuter1" result="shadowBlurOuter1" stdDeviation="12"/><feColorMatrix in="shadowBlurOuter1" result="shadowMatrixOuter1" values="0 0 0 0 0 0 0 0 0 0 0 0 0 0 0 0 0 0 0.1 0"/><feMorphology in="SourceAlpha" radius="1" result="shadowSpreadOuter2"/><feOffset dy="2" in="shadowSpreadOuter2" result="shadowOffsetOuter2"/><feGaussianBlur in="shadowOffsetOuter2" result="shadowBlurOuter2" stdDeviation="4"/><feColorMatrix in="shadowBlurOuter2" result="shadowMatrixOuter2" values="0 0 0 0 0.109803922 0 0 0 0 0.541176471 0 0 0 0 0.956862745 0 0 0 0.4 0"/><feMorphology in="SourceAlpha" radius="1" result="shadowSpreadOuter3"/><feOffset dy="-2" in="shadowSpreadOuter3" result="shadowOffsetOuter3"/><feGaussianBlur in="shadowOffsetOuter3" result="shadowBlurOuter3" stdDeviation="4"/><feColorMatrix in="shadowBlurOuter3" result="shadowMatrixOuter3" values="0 0 0 0 1 0 0 0 0 1 0 0 0 0 1 0 0 0 0.5 0"/><feMerge><feMergeNode in="shadowMatrixOuter1"/><feMergeNode in="shadowMatrixOuter2"/><feMergeNode in="shadowMatrixOuter3"/></feMerge></filter><filter id="g" width="122.7%" height="132.8%" x="-11.3%" y="-14.5%" filterUnits="objectBoundingBox"><feGaussianBlur in="SourceAlpha" result="shadowBlurInner1" stdDeviation="1.5"/><feOffset dy="1" in="shadowBlurInner1" result="shadowOffsetInner1"/><feComposite in="shadowOffsetInner1" in2="SourceAlpha" k2="-1" k3="1" operator="arithmetic" result="shadowInnerInner1"/><feColorMatrix in="shadowInnerInner1" values="0 0 0 0 1 0 0 0 0 1 0 0 0 0 1 0 0 0 1 0"/></filter><path id="a" d="M166.374834,50 L347.625166,50 C387.743509,50 402.29139,54.1771525 416.958057,62.0209717 C431.624723,69.8647908 443.135209,81.3752767 450.979028,96.0419433 C458.822847,110.70861 463,125.256491 463,165.374834 L463,346.625166 C463,386.743509 458.822847,401.29139 450.979028,415.958057 C443.135209,430.624723 431.624723,442.135209 416.958057,449.979028 C402.29139,457.822847 387.743509,462 347.625166,462 L166.374834,462 C126.256491,462 111.70861,457.822847 97.0419433,449.979028 C82.3752767,442.135209 70.8647908,430.624723 63.0209717,415.958057 C55.1771525,401.29139 51,386.743509 51,346.625166 L51,165.374834 C51,125.256491 55.1771525,110.70861 63.0209717,96.0419433 C70.8647908,81.3752767 82.3752767,69.8647908 97.0419433,62.0209717 C111.70861,54.1771525 126.256491,50 166.374834,50 Z"/><path id="e" d="M272.270096,360.184414 C276.572671,360.184414 280.135632,358.772451 282.958979,355.948523 C285.782327,353.124596 287.194,349.568303 287.194,345.279645 L287.194,305.178719 L289.952983,305.178719 C303.604091,305.178719 315.591865,306.619676 325.916305,309.501589 C336.240746,312.383502 345.29007,317.090531 353.064278,323.622675 C360.838485,330.154819 367.654472,338.908123 373.512236,349.882589 C375.700635,353.895233 378.116629,356.537083 380.760219,357.80814 C383.40381,359.079198 386.17178,359.714726 389.064131,359.714726 C392.903976,359.714726 396.135836,357.947887 398.759711,354.414209 C401.383586,350.880531 402.695523,345.68091 402.695523,338.815345 C402.695523,318.609479 400.436672,300.466761 395.918968,284.387192 C391.401264,268.307623 384.525842,254.597659 375.292702,243.257301 C366.059562,231.916943 354.357659,223.261925 340.186995,217.292247 C326.016331,211.322569 309.271661,208.33773 289.952983,208.33773 L287.194,208.33773 L287.194,168.436856 C287.194,164.195746 285.782327,160.57248 282.958979,157.567056 C280.135632,154.561632 276.511785,153.05892 272.087439,153.05892 C269.110429,153.05892 266.426538,153.705176 264.035768,154.997688 C261.644997,156.2902 258.842815,158.448736 255.62922,161.473295 L167.480941,243.6374 C165.287903,245.681993 163.742281,247.83531 162.844075,250.097351 C161.945869,252.359392 161.496766,254.534164 161.496766,256.621667 C161.496766,258.607114 161.949349,260.744485 162.854513,263.033779 C163.759677,265.323074 165.308778,267.490018 167.501816,269.534611 L255.62922,352.335404 C258.545926,355.075831 261.293891,357.069106 263.873116,358.31523 C266.452342,359.561353 269.251335,360.184414 272.270096,360.184414 Z M265.290879,331.797857 C264.636794,331.797857 263.989089,331.470235 263.347762,330.814991 L187.059976,258.695253 C186.627399,258.263836 186.318333,257.884606 186.132777,257.557564 C185.947221,257.230522 185.854443,256.918556 185.854443,256.621667 C185.854443,255.98034 186.256288,255.288565 187.059976,254.546341 L263.347762,181.588123 C263.631894,181.365456 263.922405,181.171492 264.219294,181.006232 C264.516183,180.840971 264.843225,180.758341 265.20042,180.758341 C266.307956,180.758341 266.861724,181.312109 266.861724,182.419645 L266.861724,224.639386 C266.861724,227.06089 268.102629,228.271641 270.584438,228.271641 L284.871654,228.271641 C299.317172,228.271641 311.946563,230.050077 322.759827,233.60695 C333.573091,237.163823 342.784777,242.12657 350.394884,248.495193 C358.004991,254.863816 364.201974,262.300544 368.985834,270.805378 C373.769695,279.310212 377.35788,288.515519 379.75039,298.421299 C382.1429,308.327079 383.52819,318.553812 383.90626,329.101499 C383.90626,329.876195 383.615749,330.263543 383.034727,330.263543 C382.812061,330.263543 382.626505,330.174244 382.47806,329.995646 C382.329615,329.817049 382.188129,329.549153 382.053601,329.191958 C377.633894,319.954759 371.072757,312.031526 362.370191,305.422261 C353.667624,298.812995 342.836964,293.767038 329.878211,290.284387 C316.919459,286.801737 301.917273,285.060412 284.871654,285.060412 L270.584438,285.060412 C268.102629,285.060412 266.861724,286.271743 266.861724,288.694406 L266.861724,330.004344 C266.861724,331.20002 266.338109,331.797857 265.290879,331.797857 Z M213.458187,360.184414 C217.760762,360.184414 221.323723,358.772451 224.147071,355.948523 C226.970418,353.124596 228.382092,349.568303 228.382092,345.279645 L228.382092,316.769577 L208.048076,299.231076 L208.048076,330.004344 C208.048076,331.20002 207.494888,331.797857 206.388511,331.797857 C205.80865,331.797857 205.191097,331.470235 204.535853,330.814991 L128.246328,258.695253 C127.814911,258.263836 127.509903,257.884606 127.331306,257.557564 C127.152709,257.230522 127.06341,256.918556 127.06341,256.621667 C127.06341,255.98034 127.457716,255.288565 128.246328,254.546341 L204.535853,181.588123 C204.832742,181.365456 205.126442,181.171492 205.416953,181.006232 C205.707464,180.840971 206.031317,180.758341 206.388511,180.758341 C207.494888,180.758341 208.048076,181.312109 208.048076,182.419645 L208.048076,213.827862 L228.382092,196.58683 L228.382092,168.436856 C228.382092,164.195746 226.955052,160.57248 224.100972,157.567056 C221.246892,154.561632 217.638411,153.05892 213.275531,153.05892 C210.29852,153.05892 207.618109,153.705176 205.234296,154.997688 C202.850484,156.2902 200.044823,158.448736 196.817312,161.473295 L108.578574,243.6374 C106.384376,245.681993 104.853541,247.83531 103.986068,250.097351 C103.118594,252.359392 102.684858,254.534164 102.684858,256.621667 C102.684858,258.607114 103.13715,260.744485 104.041734,263.033779 C104.946319,265.323074 106.464977,267.490018 108.597709,269.534611 L196.817312,352.335404 C199.673711,355.075831 202.4066,357.069106 205.015978,358.31523 C207.625357,359.561353 210.439426,360.184414 213.458187,360.184414 Z"/><linearGradient id="c" x1="0%" x2="0%" y1="100%" y2="0%"><stop offset="0%" stop-color="#1BC9FC"/><stop offset="100%" stop-color="#1C70F1"/></linearGradient></defs><g fill="none" fill-rule="evenodd"><g fill-rule="nonzero"><use xlink:href="#a" fill="#000" filter="url(#b)"/><use xlink:href="#a" fill="url(#c)"/><use xlink:href="#a" fill="#000" filter="url(#d)"/></g><g fill-rule="nonzero"><use xlink:href="#e" fill="#000" filter="url(#f)"/><use xlink:href="#e" fill="#F5FCFF"/><use xlink:href="#e" fill="#000" filter="url(#g)"/></g></g></svg>