<svg xmlns="http://www.w3.org/2000/svg" xmlns:xlink="http://www.w3.org/1999/xlink" width="512" height="512" viewBox="0 0 512 512"><defs><filter id="b" width="129.1%" height="129.1%" x="-14.6%" y="-14.6%" filterUnits="objectBoundingBox"><feOffset in="SourceAlpha" result="shadowOffsetOuter1"/><feGaussianBlur in="shadowOffsetOuter1" result="shadowBlurOuter1" stdDeviation="20"/><feColorMatrix in="shadowBlurOuter1" values="0 0 0 0 1 0 0 0 0 1 0 0 0 0 1 0 0 0 0.5 0"/></filter><filter id="d" width="120.4%" height="120.4%" x="-10.2%" y="-10.2%" filterUnits="objectBoundingBox"><feMorphology in="SourceAlpha" operator="dilate" radius="1" result="shadowSpreadInner1"/><feGaussianBlur in="shadowSpreadInner1" result="shadowBlurInner1" stdDeviation="1.5"/><feOffset dx="-1" dy="-2" in="shadowBlurInner1" result="shadowOffsetInner1"/><feComposite in="shadowOffsetInner1" in2="SourceAlpha" k2="-1" k3="1" operator="arithmetic" result="shadowInnerInner1"/><feColorMatrix in="shadowInnerInner1" result="shadowMatrixInner1" values="0 0 0 0 0 0 0 0 0 0 0 0 0 0 0 0 0 0 0.2 0"/><feMorphology in="SourceAlpha" operator="dilate" radius="1" result="shadowSpreadInner2"/><feGaussianBlur in="shadowSpreadInner2" result="shadowBlurInner2" stdDeviation="1.5"/><feOffset dx="2" dy="2" in="shadowBlurInner2" result="shadowOffsetInner2"/><feComposite in="shadowOffsetInner2" in2="SourceAlpha" k2="-1" k3="1" operator="arithmetic" result="shadowInnerInner2"/><feColorMatrix in="shadowInnerInner2" result="shadowMatrixInner2" values="0 0 0 0 1 0 0 0 0 1 0 0 0 0 1 0 0 0 0.5 0"/><feMerge><feMergeNode in="shadowMatrixInner1"/><feMergeNode in="shadowMatrixInner2"/></feMerge></filter><filter id="f" width="154%" height="133.7%" x="-27%" y="-15.5%" filterUnits="objectBoundingBox"><feMorphology in="SourceAlpha" operator="dilate" radius="4" result="shadowSpreadOuter1"/><feOffset dy="4" in="shadowSpreadOuter1" result="shadowOffsetOuter1"/><feGaussianBlur in="shadowOffsetOuter1" result="shadowBlurOuter1" stdDeviation="12"/><feColorMatrix in="shadowBlurOuter1" result="shadowMatrixOuter1" values="0 0 0 0 0 0 0 0 0 0 0 0 0 0 0 0 0 0 0.1 0"/><feMorphology in="SourceAlpha" radius="1" result="shadowSpreadOuter2"/><feOffset dy="2" in="shadowSpreadOuter2" result="shadowOffsetOuter2"/><feGaussianBlur in="shadowOffsetOuter2" result="shadowBlurOuter2" stdDeviation="4"/><feColorMatrix in="shadowBlurOuter2" result="shadowMatrixOuter2" values="0 0 0 0 0.109803922 0 0 0 0 0.541176471 0 0 0 0 0.956862745 0 0 0 0.4 0"/><feMorphology in="SourceAlpha" radius="1" result="shadowSpreadOuter3"/><feOffset dy="-2" in="shadowSpreadOuter3" result="shadowOffsetOuter3"/><feGaussianBlur in="shadowOffsetOuter3" result="shadowBlurOuter3" stdDeviation="4"/><feColorMatrix in="shadowBlurOuter3" result="shadowMatrixOuter3" values="0 0 0 0 1 0 0 0 0 1 0 0 0 0 1 0 0 0 0.5 0"/><feMerge><feMergeNode in="shadowMatrixOuter1"/><feMergeNode in="shadowMatrixOuter2"/><feMergeNode in="shadowMatrixOuter3"/></feMerge></filter><filter id="g" width="136.7%" height="122.9%" x="-18.3%" y="-10.1%" filterUnits="objectBoundingBox"><feGaussianBlur in="SourceAlpha" result="shadowBlurInner1" stdDeviation="1.5"/><feOffset dy="1" in="shadowBlurInner1" result="shadowOffsetInner1"/><feComposite in="shadowOffsetInner1" in2="SourceAlpha" k2="-1" k3="1" operator="arithmetic" result="shadowInnerInner1"/><feColorMatrix in="shadowInnerInner1" values="0 0 0 0 1 0 0 0 0 1 0 0 0 0 1 0 0 0 1 0"/></filter><path id="a" d="M166.374834,50 L347.625166,50 C387.743509,50 402.29139,54.1771525 416.958057,62.0209717 C431.624723,69.8647908 443.135209,81.3752767 450.979028,96.0419433 C458.822847,110.70861 463,125.256491 463,165.374834 L463,346.625166 C463,386.743509 458.822847,401.29139 450.979028,415.958057 C443.135209,430.624723 431.624723,442.135209 416.958057,449.979028 C402.29139,457.822847 387.743509,462 347.625166,462 L166.374834,462 C126.256491,462 111.70861,457.822847 97.0419433,449.979028 C82.3752767,442.135209 70.8647908,430.624723 63.0209717,415.958057 C55.1771525,401.29139 51,386.743509 51,346.625166 L51,165.374834 C51,125.256491 55.1771525,110.70861 63.0209717,96.0419433 C70.8647908,81.3752767 82.3752767,69.8647908 97.0419433,62.0209717 C111.70861,54.1771525 126.256491,50 166.374834,50 Z"/><path id="e" d="M207.900714,339.462471 L323.336133,339.462471 C326.102074,339.462471 328.482117,338.344207 330.476262,336.10768 C332.470407,333.871153 333.467479,331.511985 333.467479,329.030176 C333.467479,326.488062 332.470407,324.098741 330.476262,321.862214 C328.482117,319.625687 326.102074,318.507423 323.336133,318.507423 L209.139299,318.507423 C200.419337,318.507423 196.059355,314.117289 196.059355,305.337021 L196.059355,135.13249 L174.175369,135.13249 L174.175369,306.210293 C174.175369,317.172002 177.02568,325.454458 182.726302,331.057663 C188.426924,336.660869 196.818394,339.462471 207.900714,339.462471 Z M317.230188,384.00108 L339.115914,384.00108 L339.115914,210.174732 C339.115914,199.529629 336.344464,191.481436 330.801564,186.030155 C325.258665,180.578873 317.128132,177.853233 306.409965,177.853233 L189.862951,177.853233 C187.09701,177.853233 184.732334,178.95613 182.768922,181.161924 C180.805509,183.367719 179.823803,185.741673 179.823803,188.283788 C179.823803,190.827062 180.805509,193.216962 182.768922,195.45349 C184.732334,197.690017 187.09701,198.80828 189.862951,198.80828 L304.150244,198.80828 C312.870206,198.80828 317.230188,203.198414 317.230188,211.978683 L317.230188,384.00108 Z M327.994743,406.88011 C331.904172,406.88011 335.457275,405.919568 338.654054,403.998486 C341.850832,402.077404 344.410052,399.514994 346.331715,396.311257 C348.253377,393.107521 349.214208,389.557896 349.214208,385.662384 C349.214208,379.774467 347.168455,374.7662 343.07695,370.637584 C338.985445,366.508968 333.958042,364.444659 327.994743,364.444659 C324.118946,364.444659 320.582659,365.410129 317.385881,367.341069 C314.189102,369.272009 311.621764,371.835868 309.683865,375.032647 C307.745967,378.229425 306.777018,381.772671 306.777018,385.662384 C306.777018,389.557896 307.745967,393.107521 309.683865,396.311257 C311.621764,399.514994 314.189102,402.077404 317.385881,403.998486 C320.582659,405.919568 324.118946,406.88011 327.994743,406.88011 Z M185.133018,152.871044 C189.02853,152.871044 192.578445,151.907024 195.782761,149.978983 C198.987078,148.050943 201.549777,145.473167 203.47086,142.245656 C205.391942,139.018145 206.352483,135.487366 206.352483,131.653319 C206.352483,125.751485 204.303251,120.739449 200.204788,116.617211 C196.106324,112.494974 191.082401,110.433855 185.133018,110.433855 C181.258381,110.433855 177.722384,111.384248 174.525026,113.285035 C171.327667,115.185823 168.760039,117.749972 166.822141,120.977483 C164.884242,124.204994 163.915293,127.763606 163.915293,131.653319 C163.915293,135.487366 164.884242,139.018145 166.822141,142.245656 C168.760039,145.473167 171.327667,148.050943 174.525026,149.978983 C177.722384,151.907024 181.258381,152.871044 185.133018,152.871044 Z"/><linearGradient id="c" x1="0%" x2="0%" y1="100%" y2="0%"><stop offset="0%" stop-color="#1BC9FC"/><stop offset="100%" stop-color="#1C70F1"/></linearGradient></defs><g fill="none" fill-rule="evenodd"><g fill-rule="nonzero"><use xlink:href="#a" fill="#000" filter="url(#b)"/><use xlink:href="#a" fill="url(#c)"/><use xlink:href="#a" fill="#000" filter="url(#d)"/></g><g fill-rule="nonzero"><use xlink:href="#e" fill="#000" filter="url(#f)"/><use xlink:href="#e" fill="#F5FCFF"/><use xlink:href="#e" fill="#000" filter="url(#g)"/></g></g></svg>