<svg xmlns="http://www.w3.org/2000/svg" xmlns:xlink="http://www.w3.org/1999/xlink" width="365" height="365" viewBox="0 0 365 365"><defs><linearGradient id="c" x1="50%" x2="50%" y1="0%" y2="100%"><stop offset="0%" stop-color="#D8D8D8"/><stop offset="81.272%" stop-color="silver"/><stop offset="100%" stop-color="#767777"/></linearGradient><linearGradient id="f" x1="50%" x2="50%" y1="0%" y2="100%"><stop offset="0%" stop-color="#D8D8D8"/><stop offset="81.272%" stop-color="silver"/><stop offset="100%" stop-color="#767777"/></linearGradient><filter id="b" width="105.1%" height="106.3%" x="-2.5%" y="-3.2%" filterUnits="objectBoundingBox"><feOffset in="SourceAlpha" result="shadowOffsetOuter1"/><feGaussianBlur in="shadowOffsetOuter1" result="shadowBlurOuter1" stdDeviation="2"/><feColorMatrix in="shadowBlurOuter1" values="0 0 0 0 0.552677763 0 0 0 0 0.552677763 0 0 0 0 0.552677763 0 0 0 0.5 0"/></filter><filter id="e" width="118.7%" height="110.8%" x="-9.4%" y="-5.4%" filterUnits="objectBoundingBox"><feOffset in="SourceAlpha" result="shadowOffsetOuter1"/><feGaussianBlur in="shadowOffsetOuter1" result="shadowBlurOuter1" stdDeviation="2"/><feColorMatrix in="shadowBlurOuter1" values="0 0 0 0 0.552677763 0 0 0 0 0.552677763 0 0 0 0 0.552677763 0 0 0 0.5 0"/></filter><path id="a" d="M100.074463,277.573242 C88.8303223,277.573242 80.21639,274.548503 74.232666,268.499023 C68.2489421,262.449544 65.2570801,253.802734 65.2570801,242.558594 L65.2570801,123.311523 C65.2570801,112.001628 68.2489421,103.338379 74.232666,97.3217773 C80.21639,91.3051758 88.8303223,88.296875 100.074463,88.296875 L265.876221,88.296875 C277.186117,88.296875 285.816488,91.3051758 291.767334,97.3217773 C297.71818,103.338379 300.693604,112.001628 300.693604,123.311523 L300.693604,222.536133 L275.246338,196.003906 L275.246338,126.566406 C275.246338,122.489583 274.210693,119.481283 272.139404,117.541504 C270.068115,115.601725 267.059814,114.631836 263.114502,114.631836 L102.836182,114.631836 C98.8908691,114.631836 95.8825684,115.601725 93.8112793,117.541504 C91.7399902,119.481283 90.7043457,122.489583 90.7043457,126.566406 L90.7043457,239.205078 C90.7043457,243.281901 91.7399902,246.290202 93.8112793,248.22998 C95.8825684,250.169759 98.8908691,251.139648 102.836182,251.139648 L254.297119,251.139648 L253.902588,272.641602 C253.902588,273.496419 253.935465,274.334798 254.001221,275.156738 C254.066976,275.978678 254.165609,276.78418 254.297119,277.573242 L100.074463,277.573242 Z"/><path id="d" d="M271.796143,303.134766 L272.979736,227.582031 C272.979736,225.214844 273.949626,223.636719 275.889404,222.847656 C277.829183,222.058594 279.65389,222.51888 281.363525,224.228516 L334.13208,277.588867 C335.907471,279.430013 336.33488,281.38623 335.414307,283.45752 C334.493734,285.528809 332.784098,286.531576 330.2854,286.46582 L311.742432,286.46582 L327.326416,321.973633 C327.852458,323.157227 328.016846,324.521647 327.81958,326.066895 C327.622314,327.612142 326.635986,328.746419 324.860596,329.469727 L314.997314,333.119141 C313.287679,333.776693 311.808187,333.710938 310.558838,332.921875 C309.309489,332.132813 308.388916,330.982096 307.797119,329.469727 L293.298096,293.863281 L280.870361,306.685547 C279.226481,308.592448 277.286702,309.151367 275.051025,308.362305 C272.815348,307.573242 271.730387,305.830729 271.796143,303.134766 Z"/></defs><g fill="none" fill-rule="evenodd"><rect width="365" height="365"/><g fill-rule="nonzero" opacity=".8"><use xlink:href="#a" fill="#000" filter="url(#b)"/><use xlink:href="#a" fill="#2E2E2E"/><use xlink:href="#a" fill="url(#c)"/></g><g fill-rule="nonzero"><use xlink:href="#d" fill="#000" filter="url(#e)"/><use xlink:href="#d" fill="#2E2E2E"/><use xlink:href="#d" fill="url(#f)"/></g></g></svg>