<svg xmlns="http://www.w3.org/2000/svg" xmlns:xlink="http://www.w3.org/1999/xlink" width="365" height="365" viewBox="0 0 365 365"><defs><linearGradient id="c" x1="50%" x2="50%" y1="0%" y2="100%"><stop offset="0%" stop-color="#D8D8D8"/><stop offset="81.272%" stop-color="silver"/><stop offset="100%" stop-color="#767777"/></linearGradient><filter id="b" width="106.2%" height="106.2%" x="-3.1%" y="-3.1%" filterUnits="objectBoundingBox"><feOffset in="SourceAlpha" result="shadowOffsetOuter1"/><feGaussianBlur in="shadowOffsetOuter1" result="shadowBlurOuter1" stdDeviation="2"/><feColorMatrix in="shadowBlurOuter1" values="0 0 0 0 0.552677763 0 0 0 0 0.552677763 0 0 0 0 0.552677763 0 0 0 0.5 0"/></filter><path id="a" d="M43.7929688,58.5878906 C43.7929688,60.4290365 44.4505208,61.9907227 45.765625,63.2729492 C47.0807292,64.5551758 48.6588542,65.1962891 50.5,65.1962891 L142.623047,65.1962891 C144.464193,65.1962891 146.042318,64.5551758 147.357422,63.2729492 C148.672526,61.9907227 149.330078,60.4290365 149.330078,58.5878906 C149.330078,56.7467448 148.672526,55.1686198 147.357422,53.8535156 C146.042318,52.5384115 144.464193,51.8808594 142.623047,51.8808594 L50.5,51.8808594 C48.6588542,51.8808594 47.0807292,52.5384115 45.765625,53.8535156 C44.4505208,55.1686198 43.7929688,56.7467448 43.7929688,58.5878906 Z M43.7929688,96.4628906 C43.7929688,98.3040365 44.4505208,99.8657227 45.765625,101.147949 C47.0807292,102.430176 48.6588542,103.071289 50.5,103.071289 L142.623047,103.071289 C144.464193,103.071289 146.042318,102.430176 147.357422,101.147949 C148.672526,99.8657227 149.330078,98.3040365 149.330078,96.4628906 C149.330078,94.6217448 148.672526,93.0436198 147.357422,91.7285156 C146.042318,90.4134115 144.464193,89.7558594 142.623047,89.7558594 L50.5,89.7558594 C48.6588542,89.7558594 47.0807292,90.4134115 45.765625,91.7285156 C44.4505208,93.0436198 43.7929688,94.6217448 43.7929688,96.4628906 Z M43.7929688,134.337891 C43.7929688,136.179036 44.4505208,137.757161 45.765625,139.072266 C47.0807292,140.38737 48.6588542,141.044922 50.5,141.044922 L111.060547,141.044922 C112.901693,141.044922 114.479818,140.38737 115.794922,139.072266 C117.110026,137.757161 117.767578,136.179036 117.767578,134.337891 C117.767578,132.496745 117.110026,130.935059 115.794922,129.652832 C114.479818,128.370605 112.901693,127.729492 111.060547,127.729492 L50.5,127.729492 C48.6588542,127.729492 47.0807292,128.370605 45.765625,129.652832 C44.4505208,130.935059 43.7929688,132.496745 43.7929688,134.337891 Z M7.890625,62.7304688 C13.2167969,62.7304688 15.8798828,60.0345052 15.8798828,54.6425781 L15.8798828,31.3652344 C15.8798828,26.2363281 17.194987,22.3732096 19.8251953,19.7758789 C22.4554036,17.1785482 26.2363281,15.8798828 31.1679688,15.8798828 L55.0371094,15.8798828 C60.4290365,15.8798828 63.125,13.2167969 63.125,7.890625 C63.125,2.63020833 60.4290365,0 55.0371094,0 L30.9707031,0 C20.6471354,0 12.9044596,2.54801432 7.74267578,7.64404297 C2.58089193,12.7400716 0,20.351237 0,30.4775391 L0,54.6425781 C0,60.0345052 2.63020833,62.7304688 7.890625,62.7304688 Z M185.133789,62.7304688 C190.459961,62.7304688 193.123047,60.0345052 193.123047,54.6425781 L193.123047,30.4775391 C193.123047,20.351237 190.542155,12.7400716 185.380371,7.64404297 C180.218587,2.54801432 172.475911,0 162.152344,0 L137.987305,0 C132.661133,0 129.998047,2.63020833 129.998047,7.890625 C129.998047,13.2167969 132.661133,15.8798828 137.987305,15.8798828 L161.856445,15.8798828 C166.722331,15.8798828 170.503255,17.1785482 173.199219,19.7758789 C175.895182,22.3732096 177.243164,26.2363281 177.243164,31.3652344 L177.243164,54.6425781 C177.243164,60.0345052 179.873372,62.7304688 185.133789,62.7304688 Z M30.9707031,193.024414 L55.0371094,193.024414 C60.4290365,193.024414 63.125,190.394206 63.125,185.133789 C63.125,179.807617 60.4290365,177.144531 55.0371094,177.144531 L31.1679688,177.144531 C26.2363281,177.144531 22.4554036,175.845866 19.8251953,173.248535 C17.194987,170.651204 15.8798828,166.788086 15.8798828,161.65918 L15.8798828,138.381836 C15.8798828,132.989909 13.2167969,130.293945 7.890625,130.293945 C2.63020833,130.293945 0,132.989909 0,138.381836 L0,162.448242 C0,172.640299 2.58089193,180.284342 7.74267578,185.380371 C12.9044596,190.4764 20.6471354,193.024414 30.9707031,193.024414 Z M137.987305,193.024414 L162.152344,193.024414 C172.475911,193.024414 180.218587,190.4764 185.380371,185.380371 C190.542155,180.284342 193.123047,172.640299 193.123047,162.448242 L193.123047,138.381836 C193.123047,132.989909 190.459961,130.293945 185.133789,130.293945 C179.873372,130.293945 177.243164,132.989909 177.243164,138.381836 L177.243164,161.65918 C177.243164,166.788086 175.895182,170.651204 173.199219,173.248535 C170.503255,175.845866 166.722331,177.144531 161.856445,177.144531 L137.987305,177.144531 C132.661133,177.144531 129.998047,179.807617 129.998047,185.133789 C129.998047,190.394206 132.661133,193.024414 137.987305,193.024414 Z"/></defs><g fill="none" fill-rule="evenodd"><rect width="365" height="365"/><g fill-rule="nonzero" transform="translate(86.439 86.423)"><use xlink:href="#a" fill="#000" filter="url(#b)"/><use xlink:href="#a" fill="#2E2E2E"/><use xlink:href="#a" fill="url(#c)"/></g></g></svg>