<svg xmlns="http://www.w3.org/2000/svg" xmlns:xlink="http://www.w3.org/1999/xlink" width="365" height="365" viewBox="0 0 365 365"><defs><filter id="a" width="115.7%" height="119.8%" x="-7.8%" y="-9.9%" filterUnits="objectBoundingBox"><feGaussianBlur in="SourceGraphic" stdDeviation="4"/></filter><filter id="c" width="117.6%" height="122.3%" x="-8.8%" y="-11.2%" filterUnits="objectBoundingBox"><feOffset in="SourceAlpha" result="shadowOffsetOuter1"/><feGaussianBlur in="shadowOffsetOuter1" result="shadowBlurOuter1" stdDeviation="2"/><feColorMatrix in="shadowBlurOuter1" values="0 0 0 0 0.552677763 0 0 0 0 0.552677763 0 0 0 0 0.552677763 0 0 0 0.5 0"/></filter><filter id="f" width="105.9%" height="107.4%" x="-2.9%" y="-3.7%" filterUnits="objectBoundingBox"><feOffset in="SourceAlpha" result="shadowOffsetOuter1"/><feGaussianBlur in="shadowOffsetOuter1" result="shadowBlurOuter1" stdDeviation="2"/><feColorMatrix in="shadowBlurOuter1" values="0 0 0 0 0.552677763 0 0 0 0 0.552677763 0 0 0 0 0.552677763 0 0 0 0.5 0"/></filter><path id="b" d="M51.30513,181.397186 L193.012741,181.397186 C203.2798,181.397186 211.067169,178.759786 216.374847,173.484985 C221.682526,168.210185 224.336365,160.493195 224.336365,150.334015 L224.336365,50.9645386 C224.336365,40.817688 221.682526,33.1202189 216.374847,27.8721313 C211.067169,22.6240438 203.2798,20 193.012741,20 L51.30513,20 C40.9846446,20 33.1870015,22.6240438 27.9122009,27.8721313 C22.6374003,33.1202189 20,40.817688 20,50.9645386 L20,150.334015 C20,160.546621 22.6374003,168.276967 27.9122009,173.525055 C33.1870015,178.773142 40.9846446,181.397186 51.30513,181.397186 Z"/><path id="e" d="M31.30513,161.397186 L173.012741,161.397186 C183.2798,161.397186 191.067169,158.759786 196.374847,153.484985 C201.682526,148.210185 204.336365,140.493195 204.336365,130.334015 L204.336365,30.9645386 C204.336365,20.817688 201.682526,13.1202189 196.374847,7.87213135 C191.067169,2.62404378 183.2798,0 173.012741,0 L31.30513,0 C20.9846446,0 13.1870015,2.62404378 7.91220093,7.87213135 C2.63740031,13.1202189 0,20.817688 0,30.9645386 L0,130.334015 C0,140.546621 2.63740031,148.276967 7.91220093,153.525055 C13.1870015,158.773142 20.9846446,161.397186 31.30513,161.397186 Z"/><linearGradient id="d" x1="50%" x2="50%" y1="0%" y2="100%"><stop offset="0%" stop-color="#D8D8D8"/><stop offset="81.272%" stop-color="silver"/><stop offset="100%" stop-color="#767777"/></linearGradient></defs><g fill="none" fill-rule="evenodd"><rect width="365" height="365"/><g fill-rule="nonzero" transform="translate(70.832 90.318)"><g filter="url(#a)"><use xlink:href="#b" fill="#000" filter="url(#c)"/><use xlink:href="#b" fill="#2E2E2E"/><use xlink:href="#b" fill="url(#d)"/></g><use xlink:href="#e" fill="#000" filter="url(#f)"/><use xlink:href="#e" fill="#4B4C4D"/></g></g></svg>