<svg xmlns="http://www.w3.org/2000/svg" xmlns:xlink="http://www.w3.org/1999/xlink" width="365" height="365" viewBox="0 0 365 365"><defs><linearGradient id="c" x1="50%" x2="50%" y1="0%" y2="100%"><stop offset="0%" stop-color="#D8D8D8"/><stop offset="81.272%" stop-color="silver"/><stop offset="100%" stop-color="#767777"/></linearGradient><linearGradient id="f" x1="50%" x2="50%" y1="0%" y2="100%"><stop offset="0%" stop-color="#D8D8D8"/><stop offset="81.272%" stop-color="silver"/><stop offset="100%" stop-color="#767777"/></linearGradient><linearGradient id="i" x1="50%" x2="50%" y1="0%" y2="100%"><stop offset="0%" stop-color="#D8D8D8"/><stop offset="81.272%" stop-color="silver"/><stop offset="100%" stop-color="#767777"/></linearGradient><filter id="b" width="105.1%" height="106.3%" x="-2.5%" y="-3.2%" filterUnits="objectBoundingBox"><feOffset in="SourceAlpha" result="shadowOffsetOuter1"/><feGaussianBlur in="shadowOffsetOuter1" result="shadowBlurOuter1" stdDeviation="2"/><feColorMatrix in="shadowBlurOuter1" values="0 0 0 0 0.552677763 0 0 0 0 0.552677763 0 0 0 0 0.552677763 0 0 0 0.5 0"/></filter><filter id="e" width="107.9%" height="111.5%" x="-3.9%" y="-5.8%" filterUnits="objectBoundingBox"><feOffset in="SourceAlpha" result="shadowOffsetOuter1"/><feGaussianBlur in="shadowOffsetOuter1" result="shadowBlurOuter1" stdDeviation="2"/><feColorMatrix in="shadowBlurOuter1" values="0 0 0 0 0.552677763 0 0 0 0 0.552677763 0 0 0 0 0.552677763 0 0 0 0.5 0"/></filter><filter id="h" width="118.7%" height="110.8%" x="-9.4%" y="-5.4%" filterUnits="objectBoundingBox"><feOffset in="SourceAlpha" result="shadowOffsetOuter1"/><feGaussianBlur in="shadowOffsetOuter1" result="shadowBlurOuter1" stdDeviation="2"/><feColorMatrix in="shadowBlurOuter1" values="0 0 0 0 0.552677763 0 0 0 0 0.552677763 0 0 0 0 0.552677763 0 0 0 0.5 0"/></filter><path id="a" d="M100.074463,277.573242 C88.8303223,277.573242 80.21639,274.548503 74.232666,268.499023 C68.2489421,262.449544 65.2570801,253.802734 65.2570801,242.558594 L65.2570801,123.311523 C65.2570801,112.001628 68.2489421,103.338379 74.232666,97.3217773 C80.21639,91.3051758 88.8303223,88.296875 100.074463,88.296875 L265.876221,88.296875 C277.186117,88.296875 285.816488,91.3051758 291.767334,97.3217773 C297.71818,103.338379 300.693604,112.001628 300.693604,123.311523 L300.693604,222.536133 L275.246338,196.003906 L275.246338,126.566406 C275.246338,122.489583 274.210693,119.481283 272.139404,117.541504 C270.068115,115.601725 267.059814,114.631836 263.114502,114.631836 L102.836182,114.631836 C98.8908691,114.631836 95.8825684,115.601725 93.8112793,117.541504 C91.7399902,119.481283 90.7043457,122.489583 90.7043457,126.566406 L90.7043457,239.205078 C90.7043457,243.281901 91.7399902,246.290202 93.8112793,248.22998 C95.8825684,250.169759 98.8908691,251.139648 102.836182,251.139648 L228.297119,251.139648 L227.902588,272.641602 C227.902588,273.496419 227.935465,274.334798 228.001221,275.156738 C228.066976,275.978678 228.165609,276.78418 228.297119,277.573242 L100.074463,277.573242 Z"/><path id="d" d="M112.896729,234.865234 C108.819906,234.865234 106.781494,232.826823 106.781494,228.75 L106.781494,137.021484 C106.781494,132.944661 108.819906,130.90625 112.896729,130.90625 L253.053955,130.90625 C257.196533,130.90625 259.267822,132.944661 259.267822,137.021484 L259.267822,181.603516 L257.196533,179.729492 C253.185465,177.55957 249.026449,176.967773 244.719482,177.954102 C240.412516,178.94043 236.746663,181.12679 233.721924,184.513184 C230.697184,187.899577 229.119059,192.157227 228.987549,197.286133 L228.593018,234.865234 L112.896729,234.865234 Z"/><path id="g" d="M242.796143,273.134766 L243.979736,197.582031 C243.979736,195.214844 244.949626,193.636719 246.889404,192.847656 C248.829183,192.058594 250.65389,192.51888 252.363525,194.228516 L305.13208,247.588867 C306.907471,249.430013 307.33488,251.38623 306.414307,253.45752 C305.493734,255.528809 303.784098,256.531576 301.2854,256.46582 L282.742432,256.46582 L298.326416,291.973633 C298.852458,293.157227 299.016846,294.521647 298.81958,296.066895 C298.622314,297.612142 297.635986,298.746419 295.860596,299.469727 L285.997314,303.119141 C284.287679,303.776693 282.808187,303.710938 281.558838,302.921875 C280.309489,302.132813 279.388916,300.982096 278.797119,299.469727 L264.298096,263.863281 L251.870361,276.685547 C250.226481,278.592448 248.286702,279.151367 246.051025,278.362305 C243.815348,277.573242 242.730387,275.830729 242.796143,273.134766 Z"/></defs><g fill="none" fill-rule="evenodd"><rect width="365" height="365"/><g fill-rule="nonzero" opacity=".3"><use xlink:href="#a" fill="#000" filter="url(#b)"/><use xlink:href="#a" fill="#2E2E2E"/><use xlink:href="#a" fill="url(#c)"/></g><g fill-rule="nonzero"><use xlink:href="#d" fill="#000" filter="url(#e)"/><use xlink:href="#d" fill="#2E2E2E"/><use xlink:href="#d" fill="url(#f)"/></g><g fill-rule="nonzero"><use xlink:href="#g" fill="#000" filter="url(#h)"/><use xlink:href="#g" fill="#2E2E2E"/><use xlink:href="#g" fill="url(#i)"/></g></g></svg>