<svg xmlns="http://www.w3.org/2000/svg" xmlns:xlink="http://www.w3.org/1999/xlink" width="365" height="365" viewBox="0 0 365 365"><defs><linearGradient id="c" x1="50%" x2="50%" y1="0%" y2="100%"><stop offset="0%" stop-color="#D8D8D8"/><stop offset="81.272%" stop-color="silver"/><stop offset="100%" stop-color="#767777"/></linearGradient><filter id="b" width="104.4%" height="106.6%" x="-2.2%" y="-3.3%" filterUnits="objectBoundingBox"><feOffset in="SourceAlpha" result="shadowOffsetOuter1"/><feGaussianBlur in="shadowOffsetOuter1" result="shadowBlurOuter1" stdDeviation="2"/><feColorMatrix in="shadowBlurOuter1" values="0 0 0 0 0.552677763 0 0 0 0 0.552677763 0 0 0 0 0.552677763 0 0 0 0.5 0"/></filter><path id="a" d="M135.521484,178.722656 C144.595703,178.722656 153.308268,177.98291 161.65918,176.503418 C170.010091,175.023926 177.966471,173.001953 185.52832,170.4375 L169.845703,154.65625 C164.453776,156.16862 158.9139,157.385091 153.226074,158.305664 C147.538249,159.226237 141.636719,159.686523 135.521484,159.686523 C125.000651,159.686523 114.923665,158.404297 105.290527,155.839844 C95.6573893,153.275391 86.632487,149.85612 78.2158203,145.582031 C69.7991536,141.307943 62.1879883,136.655762 55.3823242,131.625488 C48.5766602,126.595215 42.7080078,121.597819 37.7763672,116.633301 C32.8447266,111.668783 29.0473633,107.115234 26.3842773,102.972656 C23.7211914,98.8300781 22.3896484,95.6080729 22.3896484,93.3066406 C22.3896484,91.6627604 23.4088542,89.2133789 25.4472656,85.9584961 C27.4856771,82.7036133 30.4117839,78.9720052 34.2255859,74.7636719 C38.039388,70.5553385 42.6258138,66.199056 47.9848633,61.6948242 C53.3439128,57.1905924 59.4098307,52.8671875 66.1826172,48.7246094 L51.2890625,33.8310547 C43.2669271,38.9599609 36.0667318,44.3683268 29.6884766,50.0561523 C23.3102214,55.7439779 17.9182943,61.3331706 13.5126953,66.8237305 C9.10709635,72.3142904 5.75358073,77.3774414 3.45214844,82.0131836 C1.15071615,86.6489258 0,90.4134115 0,93.3066406 C0,96.6601563 1.49593099,101.082194 4.48779297,106.572754 C7.47965495,112.063314 11.7866211,118.01416 17.4086914,124.425293 C23.0307617,130.836426 29.8364258,137.23112 37.8256836,143.609375 C45.8149414,149.98763 54.8398437,155.823405 64.9003906,161.116699 C74.9609375,166.409993 85.9256185,170.667643 97.7944336,173.889648 C109.663249,177.111654 122.238932,178.722656 135.521484,178.722656 Z M135.521484,7.98925781 C126.907552,7.98925781 118.688151,8.6796875 110.863281,10.0605469 C103.038411,11.4414062 95.5094401,13.3154297 88.2763672,15.6826172 L104.057617,31.4638672 C109.055013,30.0830078 114.151042,28.9816081 119.345703,28.159668 C124.540365,27.3377279 129.932292,26.9267578 135.521484,26.9267578 C146.042318,26.9267578 156.119303,28.2747396 165.752441,30.9707031 C175.385579,33.6666667 184.410482,37.2010091 192.827148,41.5737305 C201.243815,45.9464518 208.85498,50.6972656 215.660645,55.8261719 C222.466309,60.9550781 228.334961,66.034668 233.266602,71.0649414 C238.198242,76.0952148 241.995605,80.5830078 244.658691,84.5283203 C247.321777,88.4736328 248.65332,91.3997396 248.65332,93.3066406 C248.65332,95.2792969 247.683431,97.9095052 245.743652,101.197266 C243.803874,104.485026 241.025716,108.150879 237.40918,112.194824 C233.792643,116.23877 229.452799,120.397786 224.389648,124.671875 C219.326497,128.945964 213.638672,133.088542 207.326172,137.099609 L222.022461,151.795898 C229.71582,146.732747 236.603678,141.390137 242.686035,135.768066 C248.768392,130.145996 253.913737,124.655436 258.12207,119.296387 C262.330404,113.937337 265.53597,108.989258 267.73877,104.452148 C269.941569,99.9150391 271.042969,96.1998698 271.042969,93.3066406 C271.042969,89.953125 269.579915,85.547526 266.653809,80.0898438 C263.727702,74.6321615 259.470052,68.6977539 253.880859,62.2866211 C248.291667,55.8754883 241.535319,49.4807943 233.611816,43.1025391 C225.688314,36.7242839 216.696289,30.8885091 206.635742,25.5952148 C196.575195,20.3019206 185.577637,16.0442708 173.643066,12.8222656 C161.708496,9.60026042 149.001302,7.98925781 135.521484,7.98925781 Z M135.521484,146.469727 C139.335286,146.469727 143.034017,146.025879 146.617676,145.138184 C150.201335,144.250488 153.604167,143.083333 156.826172,141.636719 L87.0927734,71.8046875 C85.5146484,75.0924479 84.3146159,78.5445964 83.4926758,82.1611328 C82.6707357,85.7776693 82.2597656,89.4928385 82.2597656,93.3066406 C82.2597656,100.539714 83.6241862,107.361816 86.3530273,113.772949 C89.0818685,120.184082 92.8792318,125.83903 97.7451172,130.737793 C102.611003,135.636556 108.265951,139.483236 114.709961,142.277832 C121.153971,145.072428 128.091146,146.469727 135.521484,146.469727 Z M184.739258,112.342773 C186.054362,109.449544 187.057129,106.391927 187.747559,103.169922 C188.437988,99.9479167 188.783203,96.6601563 188.783203,93.3066406 C188.783203,85.9420573 187.402344,79.0377604 184.640625,72.59375 C181.878906,66.1497396 178.065104,60.5112305 173.199219,55.6782227 C168.333333,50.8452148 162.678385,47.0642904 156.234375,44.3354492 C149.790365,41.6066081 142.918945,40.2421875 135.620117,40.2421875 C132.200846,40.2421875 128.880208,40.5709635 125.658203,41.2285156 C122.436198,41.8860677 119.378581,42.8395182 116.485352,44.0888672 L184.739258,112.342773 Z M213.342773,180.399414 C214.855143,181.977539 216.696289,182.78304 218.866211,182.816885 C221.036133,182.848796 222.877279,182.043294 224.389648,180.399414 C226.033529,178.755534 226.83903,176.88151 226.807119,174.777344 C226.773275,172.673177 225.967773,170.832031 224.389648,169.253906 L57.3056641,2.26855469 C55.8590495,0.756184896 54.0179036,0 51.7822266,0 C49.5465495,0 47.672526,0.756184896 46.1601562,2.26855469 C44.6477865,3.78092448 43.8916016,5.63850911 43.8916016,7.84130859 C43.8916016,10.0441081 44.6477865,11.9016927 46.1601562,13.4140625 L213.342773,180.399414 Z"/></defs><g fill="none" fill-rule="evenodd"><rect width="365" height="365"/><g fill-rule="nonzero" transform="translate(47.477 89.58)"><use xlink:href="#a" fill="#000" filter="url(#b)"/><use xlink:href="#a" fill="#2E2E2E"/><use xlink:href="#a" fill="url(#c)"/></g></g></svg>