<svg xmlns="http://www.w3.org/2000/svg" xmlns:xlink="http://www.w3.org/1999/xlink" width="365" height="365" viewBox="0 0 365 365"><defs><filter id="b" width="105.9%" height="107.5%" x="-2.9%" y="-3.7%" filterUnits="objectBoundingBox"><feOffset in="SourceAlpha" result="shadowOffsetOuter1"/><feGaussianBlur in="shadowOffsetOuter1" result="shadowBlurOuter1" stdDeviation="2"/><feColorMatrix in="shadowBlurOuter1" values="0 0 0 0 0.552677763 0 0 0 0 0.552677763 0 0 0 0 0.552677763 0 0 0 0.5 0"/></filter><filter id="d" width="114.7%" height="118.6%" x="-7.4%" y="-9.3%" filterUnits="objectBoundingBox"><feMorphology in="SourceAlpha" radius="18" result="shadowSpreadInner1"/><feGaussianBlur in="shadowSpreadInner1" result="shadowBlurInner1" stdDeviation="6"/><feOffset in="shadowBlurInner1" result="shadowOffsetInner1"/><feComposite in="shadowOffsetInner1" in2="SourceAlpha" k2="-1" k3="1" operator="arithmetic" result="shadowInnerInner1"/><feColorMatrix in="shadowInnerInner1" values="0 0 0 0 1 0 0 0 0 1 0 0 0 0 1 0 0 0 1 0"/></filter><path id="a" d="M111.753598,263 L253.227939,263 C263.478098,263 271.252647,260.36909 276.551588,255.10727 C281.850529,249.845451 284.5,242.147451 284.5,232.013273 L284.5,132.888337 C284.5,122.766457 281.850529,115.087931 276.551588,109.852759 C271.252647,104.617586 263.478098,102 253.227939,102 L111.753598,102 C101.450101,102 93.665294,104.617586 88.3991764,109.852759 C83.1330588,115.087931 80.5,122.766457 80.5,132.888337 L80.5,232.013273 C80.5,242.200746 83.1330588,249.912069 88.3991764,255.147241 C93.665294,260.382414 101.450101,263 111.753598,263 Z"/><path id="c" d="M111.753598,263 L253.227939,263 C263.478098,263 271.252647,260.36909 276.551588,255.10727 C281.850529,249.845451 284.5,242.147451 284.5,232.013273 L284.5,132.888337 C284.5,122.766457 281.850529,115.087931 276.551588,109.852759 C271.252647,104.617586 263.478098,102 253.227939,102 L111.753598,102 C101.450101,102 93.665294,104.617586 88.3991764,109.852759 C83.1330588,115.087931 80.5,122.766457 80.5,132.888337 L80.5,232.013273 C80.5,242.200746 83.1330588,249.912069 88.3991764,255.147241 C93.665294,260.382414 101.450101,263 111.753598,263 Z"/></defs><g fill="none" fill-rule="evenodd"><rect width="365" height="365"/><g fill-rule="nonzero"><use xlink:href="#a" fill="#000" filter="url(#b)"/><use xlink:href="#a" fill="#4B4C4D"/></g><use xlink:href="#c" fill="#000" fill-rule="nonzero" filter="url(#d)"/></g></svg>