<svg xmlns="http://www.w3.org/2000/svg" xmlns:xlink="http://www.w3.org/1999/xlink" width="365" height="365" viewBox="0 0 365 365"><defs><linearGradient id="c" x1="50%" x2="50%" y1="0%" y2="100%"><stop offset="0%" stop-color="#D8D8D8"/><stop offset="81.272%" stop-color="silver"/><stop offset="100%" stop-color="#767777"/></linearGradient><filter id="b" width="105.7%" height="105.7%" x="-2.8%" y="-2.8%" filterUnits="objectBoundingBox"><feOffset in="SourceAlpha" result="shadowOffsetOuter1"/><feGaussianBlur in="shadowOffsetOuter1" result="shadowBlurOuter1" stdDeviation="2"/><feColorMatrix in="shadowBlurOuter1" values="0 0 0 0 0.552677763 0 0 0 0 0.552677763 0 0 0 0 0.552677763 0 0 0 0.5 0"/></filter><path id="a" d="M132.645721,89.5142656 L87.5905609,134.606413 C85.9240774,136.219471 84.1456045,137.185764 82.2551422,137.505293 C80.36468,137.824823 78.6550446,137.160592 77.126236,135.512602 C75.4957123,133.697142 74.8101629,131.930742 75.0695877,130.2134 C75.3290126,128.496059 76.3520711,126.71733 78.1387634,124.877211 L122.935013,79.6602312 L112.680283,69.6120134 L34.4305573,147.897185 C28.0749054,154.253864 23.2788849,159.469074 20.0424957,163.542815 C16.8061066,167.616555 14.4784749,171.036083 13.0596008,173.801398 C11.6407267,176.566713 10.5406113,179.140156 9.75925446,181.521727 C8.97789764,183.903299 7.92966715,186.525801 6.61456299,189.389235 C5.29945882,192.252669 3.09460449,195.844033 0,200.163329 L10.0528412,210.780226 C14.2108307,207.673293 17.7531357,205.516214 20.6797562,204.308989 C23.6063766,203.101765 26.3380432,202.172972 28.8747559,201.522612 C31.4114685,200.872252 34.1505839,199.900565 37.0921021,198.60755 C40.0336202,197.314536 43.6147105,195.084509 47.8353729,191.917471 C52.0560354,188.750434 57.3863169,183.979842 63.8262177,177.605696 L142.442734,99.4992967 L132.645721,89.5142656 Z M158.526047,109.592207 L161.559006,106.335784 C164.245722,103.595641 165.599355,100.66414 165.619904,97.5412813 C165.640452,94.4184226 164.242126,91.4422289 161.424927,88.6127001 L158.646255,85.8972154 C162.604925,82.4049974 166.575152,79.5770097 170.556938,77.4132524 C174.538724,75.2494951 178.435491,73.3487586 182.247238,71.7110429 C186.058985,70.0733273 189.662936,68.3320985 193.05909,66.4873567 C196.455243,64.6426149 199.514145,62.3332201 202.235794,59.5591722 C207.348262,54.4220466 210.465469,48.7794278 211.587418,42.6313158 C212.709366,36.4832038 212.345144,30.5290183 210.494751,24.7687593 C208.644358,19.0085003 205.766027,14.1896196 201.859756,10.3121172 C198.018214,6.39351772 193.241201,3.51929592 187.528717,1.68945176 C181.816233,-0.140392398 175.866414,-0.483809248 169.67926,0.65920121 C163.492106,1.80221167 157.803253,4.87652451 152.612701,9.88213975 C149.771871,12.6150906 147.442698,15.6796429 145.625183,19.0757967 C143.807668,22.4719504 142.066696,26.0759009 140.402267,29.8876482 C138.737839,33.6993954 136.83402,37.6097754 134.690811,41.6187883 C132.547602,45.6278012 129.730403,49.5787645 126.239212,53.4716783 L123.577667,50.6930071 C120.796427,47.887109 117.845662,46.4946911 114.725372,46.5157533 C111.605082,46.5368155 108.635824,47.8963559 105.817596,50.5943742 L102.605865,53.5903459 C99.3109131,56.7126909 97.8036804,59.7366599 98.0841675,62.662253 C98.3646545,65.587846 99.9499715,68.5106137 102.840118,71.4305559 L140.741318,109.296309 C143.684891,112.161798 146.604319,113.737868 149.499603,114.02452 C152.394887,114.311171 155.403702,112.833734 158.526047,109.592207 Z"/></defs><g fill="none" fill-rule="evenodd"><rect width="365" height="365"/><g fill-rule="nonzero" transform="translate(76.894 79.893)"><use xlink:href="#a" fill="#000" filter="url(#b)"/><use xlink:href="#a" fill="#2E2E2E"/><use xlink:href="#a" fill="url(#c)"/></g></g></svg>