<svg xmlns="http://www.w3.org/2000/svg" xmlns:xlink="http://www.w3.org/1999/xlink" width="365" height="365" viewBox="0 0 365 365"><defs><linearGradient id="c" x1="50%" x2="50%" y1="0%" y2="100%"><stop offset="0%" stop-color="#D8D8D8"/><stop offset="81.272%" stop-color="silver"/><stop offset="100%" stop-color="#767777"/></linearGradient><linearGradient id="f" x1="50%" x2="50%" y1="0%" y2="100%"><stop offset="0%" stop-color="#D8D8D8"/><stop offset="81.272%" stop-color="silver"/><stop offset="100%" stop-color="#767777"/></linearGradient><filter id="b" width="106.6%" height="106%" x="-3.3%" y="-3%" filterUnits="objectBoundingBox"><feOffset in="SourceAlpha" result="shadowOffsetOuter1"/><feGaussianBlur in="shadowOffsetOuter1" result="shadowBlurOuter1" stdDeviation="2"/><feColorMatrix in="shadowBlurOuter1" values="0 0 0 0 0.552677763 0 0 0 0 0.552677763 0 0 0 0 0.552677763 0 0 0 0.5 0"/></filter><filter id="e" width="123.8%" height="113.8%" x="-11.9%" y="-6.9%" filterUnits="objectBoundingBox"><feOffset in="SourceAlpha" result="shadowOffsetOuter1"/><feGaussianBlur in="shadowOffsetOuter1" result="shadowBlurOuter1" stdDeviation="2"/><feColorMatrix in="shadowBlurOuter1" values="0 0 0 0 0.552677763 0 0 0 0 0.552677763 0 0 0 0 0.552677763 0 0 0 0.5 0"/></filter><path id="a" d="M258.95632,182.78788 C258.95632,186.160917 260.159948,189.051064 262.567205,191.458321 C264.974463,193.865578 267.865123,195.069206 271.239187,195.069206 C274.612224,195.069206 277.502371,193.865578 279.909628,191.458321 C282.316885,189.051064 283.520514,186.160917 283.520514,182.78788 C283.520514,179.413816 282.316885,176.523412 279.909628,174.116669 C277.502371,171.709925 274.612224,170.506554 271.239187,170.506554 C267.865123,170.506554 264.974463,171.709925 262.567205,174.116669 C260.159948,176.523412 258.95632,179.413816 258.95632,182.78788 Z M233.157675,245.227074 C233.157675,248.60011 234.361303,251.490257 236.76856,253.897514 C239.175817,256.304771 242.065964,257.5084 245.439001,257.5084 C248.812038,257.5084 251.702185,256.304771 254.109442,253.897514 C256.516699,251.490257 257.720327,248.60011 257.720327,245.227074 C257.720327,241.854037 256.516699,238.96389 254.109442,236.556633 C251.702185,234.149376 248.812038,232.945747 245.439001,232.945747 C242.065964,232.945747 239.175817,234.149376 236.76856,236.556633 C234.361303,238.96389 233.157675,241.854037 233.157675,245.227074 Z M170.718481,271.025719 C170.718481,274.398755 171.92211,277.288902 174.329367,279.696159 C176.736624,282.103416 179.626771,283.307045 182.999807,283.307045 C186.372844,283.307045 189.262991,282.103416 191.670248,279.696159 C194.077505,277.288902 195.281134,274.398755 195.281134,271.025719 C195.281134,267.652682 194.077505,264.762535 191.670248,262.355278 C189.262991,259.948021 186.372844,258.744392 182.999807,258.744392 C179.626771,258.744392 176.736624,259.948021 174.329367,262.355278 C171.92211,264.762535 170.718481,267.652682 170.718481,271.025719 Z M147.862695,262.297287 L145.435964,267.784634 C135.534563,263.405828 126.46004,257.349069 118.63369,249.865064 L106.669693,258.161383 L101.266062,220.534255 L134.609943,238.787627 L123.673828,246.370953 C130.790337,252.986169 138.969337,258.364279 147.862695,262.297287 Z M170.718481,94.5485001 C170.718481,97.9215368 171.92211,100.811684 174.329367,103.218941 C176.736624,105.626198 179.626771,106.829826 182.999807,106.829826 C186.372844,106.829826 189.262991,105.626198 191.670248,103.218941 C194.077505,100.811684 195.281134,97.9215368 195.281134,94.5485001 C195.281134,91.1754634 194.077505,88.2853165 191.670248,85.8780594 C189.262991,83.4708023 186.372844,82.2671738 182.999807,82.2671738 C179.626771,82.2671738 176.736624,83.4708023 174.329367,85.8780594 C171.92211,88.2853165 170.718481,91.1754634 170.718481,94.5485001 Z M233.157675,120.347145 C233.157675,123.721209 234.361303,126.61187 236.76856,129.019127 C239.175817,131.426384 242.065964,132.630013 245.439001,132.630013 C248.812038,132.630013 251.702185,131.426384 254.109442,129.019127 C256.516699,126.61187 257.720327,123.721209 257.720327,120.347145 C257.720327,116.974108 256.516699,114.083961 254.109442,111.676704 C251.702185,109.269447 248.812038,108.065819 245.439001,108.065819 C242.065964,108.065819 239.175817,109.269447 236.76856,111.676704 C234.361303,114.083961 233.157675,116.974108 233.157675,120.347145 Z"/><path id="d" d="M82.4791012,182.78788 C82.4791012,186.160917 83.6827297,189.051064 86.0899868,191.458321 C88.4972439,193.865578 91.3873908,195.069206 94.7604275,195.069206 C98.1344916,195.069206 101.025152,193.865578 103.432409,191.458321 C105.839666,189.051064 107.043295,186.160917 107.043295,182.78788 C107.043295,179.413816 105.839666,176.523412 103.432409,174.116669 C101.025152,171.709925 98.1344916,170.506554 94.7604275,170.506554 C91.3873908,170.506554 88.4972439,171.709925 86.0899868,174.116669 C83.6827297,176.523412 82.4791012,179.413816 82.4791012,182.78788 Z M108.279287,120.347145 C108.279287,123.721209 109.485741,126.61187 111.898649,129.019127 C114.311557,131.426384 117.198879,132.630013 120.560614,132.630013 C123.93365,132.630013 126.823797,131.426384 129.231054,129.019127 C131.638311,126.61187 132.84194,123.721209 132.84194,120.347145 C132.84194,116.974108 131.638311,114.083961 129.231054,111.676704 C126.823797,109.269447 123.93365,108.065819 120.560614,108.065819 C117.198879,108.065819 114.311557,109.269447 111.898649,111.676704 C109.485741,114.083961 108.279287,116.974108 108.279287,120.347145 Z"/></defs><g fill="none" fill-rule="evenodd"><rect width="365" height="365"/><g fill-rule="nonzero"><use xlink:href="#a" fill="#000" filter="url(#b)"/><use xlink:href="#a" fill="#2E2E2E"/><use xlink:href="#a" fill="url(#c)"/></g><g fill-rule="nonzero" opacity=".2"><use xlink:href="#d" fill="#000" filter="url(#e)"/><use xlink:href="#d" fill="url(#f)"/></g></g></svg>