<svg xmlns="http://www.w3.org/2000/svg" xmlns:xlink="http://www.w3.org/1999/xlink" width="365" height="365" viewBox="0 0 365 365"><defs><filter id="b" width="105.3%" height="119%" x="-2.7%" y="-9.5%" filterUnits="objectBoundingBox"><feOffset in="SourceAlpha" result="shadowOffsetOuter1"/><feGaussianBlur in="shadowOffsetOuter1" result="shadowBlurOuter1" stdDeviation="2"/><feColorMatrix in="shadowBlurOuter1" values="0 0 0 0 0.552677763 0 0 0 0 0.552677763 0 0 0 0 0.552677763 0 0 0 0.5 0"/></filter><filter id="e" width="104.6%" height="120%" x="-2.3%" y="-10%" filterUnits="objectBoundingBox"><feOffset in="SourceAlpha" result="shadowOffsetOuter1"/><feGaussianBlur in="shadowOffsetOuter1" result="shadowBlurOuter1" stdDeviation="1.5"/><feColorMatrix in="shadowBlurOuter1" values="0 0 0 0 0.552677763 0 0 0 0 0.552677763 0 0 0 0 0.552677763 0 0 0 0.5 0"/></filter><filter id="h" width="104.6%" height="120%" x="-2.3%" y="-10%" filterUnits="objectBoundingBox"><feOffset in="SourceAlpha" result="shadowOffsetOuter1"/><feGaussianBlur in="shadowOffsetOuter1" result="shadowBlurOuter1" stdDeviation="1.5"/><feColorMatrix in="shadowBlurOuter1" values="0 0 0 0 0.552677763 0 0 0 0 0.552677763 0 0 0 0 0.552677763 0 0 0 0.5 0"/></filter><path id="a" d="M93.9600677,97 L271.038391,97.1697261 C278.716339,97.1697261 284.629428,99.2379246 288.777657,103.374322 C292.925886,107.510719 295,113.350231 295,120.89286 L295,136.25825 C295,143.867069 292.925886,149.726232 288.777657,153.835739 C284.629428,157.945246 278.716339,160 271.038391,160 L93.9600677,159.830274 C86.3355459,159.830274 80.4360708,157.77552 76.2616425,153.666013 C72.0872142,149.556506 70,143.697343 70,136.088524 L70,120.723134 C70,113.180505 72.0872142,107.340992 76.2616425,103.204595 C80.4360708,99.0681985 86.3355459,97 93.9600677,97 Z M94.3019771,109.054136 C93.1417224,108.959846 92.1193328,109.354964 91.2348085,110.239488 C90.3276041,111.146692 89.9154442,112.17472 89.9983288,113.323569 C90.0812135,114.472419 90.6472834,115.571472 91.6965386,116.620727 L101.37934,126.303528 C102.550912,127.475101 102.550912,129.374596 101.37934,130.546168 L91.4915416,140.433966 C90.5162968,141.409211 89.9961793,142.465361 89.9311889,143.602417 C89.8661986,144.739472 90.3013062,145.775603 91.236512,146.710809 C92.1489078,147.623204 93.1679635,148.052577 94.2936789,147.998927 C95.4193943,147.945277 96.4925545,147.408149 97.5131595,146.387544 L111.461427,132.439276 C112.686153,131.21455 113.307942,129.91987 113.326793,128.555234 C113.345645,127.190599 112.704988,125.858199 111.404824,124.558035 L97.5820272,110.735238 C96.5555818,109.708793 95.4622318,109.148425 94.3019771,109.054136 Z"/><path id="d" d="M165.025892,214 L274.97282,214 C281.39007,214 286.332246,212.265131 289.799348,208.795393 C293.266449,205.325656 295,200.378649 295,193.954373 L295,192.029909 C295,185.661519 293.266449,180.731104 289.799348,177.238662 C286.332246,173.746221 281.39007,172 274.97282,172 L165.025892,172 C158.653295,172 153.722497,173.746221 150.233498,177.238662 C146.744499,180.731104 145,185.661519 145,192.029909 L145,193.954373 C145,200.378649 146.744499,205.325656 150.233498,208.795393 C153.722497,212.265131 158.653295,214 165.025892,214 Z M113.215097,169 C114.45491,169 115.580717,169.512338 116.592518,170.537014 L126.0835,180.044542 C126.511022,180.483689 126.838789,180.974069 127.0668,181.515684 C127.294812,182.057298 127.408818,182.613551 127.408818,183.184442 C127.408818,184.443329 127.024048,185.453367 126.254509,186.214555 C125.48497,186.975742 124.530171,187.356336 123.390114,187.356336 C122.706079,187.356336 122.100423,187.220933 121.573146,186.950125 C121.121195,186.718005 120.711123,186.397159 120.342931,185.987587 L119.200401,184.633626 L117.238024,182.092645 L117,182.091 L117,186.534555 C117,188.736935 118.780326,190.524984 120.982685,190.534517 L133.017315,190.586612 C135.226433,190.596175 137.009525,192.394771 137.000038,194.603889 C136.9904,196.813008 135.191804,198.5961 132.982685,198.586613 L120.948056,198.534442 C114.340977,198.505842 109,193.141695 109,186.534555 L108.999,182.298 L107.208417,184.633626 L106.246493,185.775408 C105.833222,186.287746 105.362948,186.679318 104.835671,186.950125 C104.308395,187.220933 103.702739,187.356336 103.018704,187.356336 C101.878646,187.356336 100.923848,186.975742 100.154309,186.214555 C99.3847695,185.453367 99,184.443329 99,183.184442 C99,182.013384 99.4417724,180.96675 100.325317,180.044542 L109.816299,170.537014 C110.828101,169.512338 111.961033,169 113.215097,169 Z"/><path id="g" d="M165.025892,268 L274.97282,268 C281.39007,268 286.332246,266.265131 289.799348,262.795393 C293.266449,259.325656 295,254.378649 295,247.954373 L295,246.029909 C295,239.661519 293.266449,234.731104 289.799348,231.238662 C286.332246,227.746221 281.39007,226 274.97282,226 L165.025892,226 C158.653295,226 153.722497,227.746221 150.233498,231.238662 C146.744499,234.731104 145,239.661519 145,246.029909 L145,247.954373 C145,254.378649 146.744499,259.325656 150.233498,262.795393 C153.722497,266.265131 158.653295,268 165.025892,268 Z M113.215097,223 C114.45491,223 115.580717,223.512338 116.592518,224.537014 L126.0835,234.044542 C126.511022,234.483689 126.838789,234.974069 127.0668,235.515684 C127.294812,236.057298 127.408818,236.613551 127.408818,237.184442 C127.408818,238.443329 127.024048,239.453367 126.254509,240.214555 C125.48497,240.975742 124.530171,241.356336 123.390114,241.356336 C122.706079,241.356336 122.100423,241.220933 121.573146,240.950125 C121.121195,240.718005 120.711123,240.397159 120.342931,239.987587 L119.200401,238.633626 L117.238024,236.092645 L117,236.091 L117,240.534555 C117,242.736935 118.780326,244.524984 120.982685,244.534517 L133.017315,244.586612 C135.226433,244.596175 137.009525,246.394771 137.000038,248.603889 C136.9904,250.813008 135.191804,252.5961 132.982685,252.586613 L120.948056,252.534442 C114.340977,252.505842 109,247.141695 109,240.534555 L108.999,236.298 L107.208417,238.633626 L106.246493,239.775408 C105.833222,240.287746 105.362948,240.679318 104.835671,240.950125 C104.308395,241.220933 103.702739,241.356336 103.018704,241.356336 C101.878646,241.356336 100.923848,240.975742 100.154309,240.214555 C99.3847695,239.453367 99,238.443329 99,237.184442 C99,236.013384 99.4417724,234.96675 100.325317,234.044542 L109.816299,224.537014 C110.828101,223.512338 111.961033,223 113.215097,223 Z"/><linearGradient id="c" x1="50%" x2="50%" y1="0%" y2="100%"><stop offset="0%" stop-color="#D8D8D8"/><stop offset="100%" stop-color="silver"/></linearGradient><linearGradient id="f" x1="50%" x2="50%" y1="0%" y2="100%"><stop offset="0%" stop-color="#D8D8D8"/><stop offset="100%" stop-color="silver"/></linearGradient></defs><g fill="none" fill-rule="evenodd"><rect width="365" height="365"/><g fill-rule="nonzero"><use xlink:href="#a" fill="#000" filter="url(#b)"/><use xlink:href="#a" fill="url(#c)"/></g><g fill-rule="nonzero" opacity=".7"><use xlink:href="#d" fill="#000" filter="url(#e)"/><use xlink:href="#d" fill="url(#f)"/></g><g fill-rule="nonzero" opacity=".5"><use xlink:href="#g" fill="#000" filter="url(#h)"/><use xlink:href="#g" fill="url(#f)"/></g></g></svg>