<svg xmlns="http://www.w3.org/2000/svg" xmlns:xlink="http://www.w3.org/1999/xlink" width="365" height="365" viewBox="0 0 365 365"><defs><linearGradient id="c" x1="50%" x2="50%" y1="0%" y2="100%"><stop offset="0%" stop-color="#D8D8D8"/><stop offset="81.272%" stop-color="silver"/><stop offset="100%" stop-color="#767777"/></linearGradient><linearGradient id="f" x1="50%" x2="50%" y1="0%" y2="100%"><stop offset="0%" stop-color="#D8D8D8"/><stop offset="81.272%" stop-color="silver"/><stop offset="100%" stop-color="#767777"/></linearGradient><filter id="b" width="105.5%" height="105.5%" x="-2.7%" y="-2.7%" filterUnits="objectBoundingBox"><feOffset in="SourceAlpha" result="shadowOffsetOuter1"/><feGaussianBlur in="shadowOffsetOuter1" result="shadowBlurOuter1" stdDeviation="2"/><feColorMatrix in="shadowBlurOuter1" values="0 0 0 0 0.552677763 0 0 0 0 0.552677763 0 0 0 0 0.552677763 0 0 0 0.5 0"/></filter><filter id="e" width="105.8%" height="105.8%" x="-2.9%" y="-2.9%" filterUnits="objectBoundingBox"><feOffset in="SourceAlpha" result="shadowOffsetOuter1"/><feGaussianBlur in="shadowOffsetOuter1" result="shadowBlurOuter1" stdDeviation="2"/><feColorMatrix in="shadowBlurOuter1" values="0 0 0 0 0.552677763 0 0 0 0 0.552677763 0 0 0 0 0.552677763 0 0 0 0.5 0"/></filter><path id="a" d="M50.8254026,109.135362 L32.7998273,127.130719 C15.4726626,144.417216 15.3726929,168.849035 32.7805462,186.287025 C50.0580501,203.494128 74.5197627,203.434179 91.8768211,186.137151 L124.413964,153.629173 L137.657115,166.872324 L104.306604,200.26091 C79.3951898,225.14235 44.0382372,225.362705 18.8765745,200.13048 C-6.32533286,174.998711 -6.22556487,139.48192 18.7761187,114.700936 L48.5668487,84.9700746 C46.5419356,92.9336259 47.715405,102.021634 50.8254026,109.135362 Z M83.6645607,112.87977 C85.7838537,117.521799 88.885021,121.948335 92.9299865,125.98682 C96.1226982,129.228139 99.9627016,131.851331 104.539921,133.75513 L114.522309,143.737519 L105.821542,152.467451 C93.7020379,150.740259 85.1965114,146.171141 78.9561008,139.900756 C64.3537994,125.316034 58.2895915,107.291512 60.6672341,89.8826866 L83.6645607,112.87977 Z M199.989119,18.8578544 C225.160584,43.9892993 225.060938,79.4360951 200.089575,104.28756 L170.268789,134.018422 C172.293297,126.05487 171.120233,116.966862 168.040129,109.853945 L186.035486,91.8577769 C203.322793,74.5711996 203.422438,50.1394617 186.054929,32.7016337 C168.777344,15.4241298 144.315551,15.5542363 126.988548,32.8512642 L93.6372277,66.1437694 L80.4094692,52.9155249 L114.558765,18.7274239 C139.370534,-6.15421017 174.7974,-6.37417593 199.989119,18.8578544 Z M139.909268,79.0877403 C154.828573,94.0491712 160.824325,112.629441 157.944322,130.450621 L136.323645,108.829944 C134.236757,103.201179 130.75807,97.8243644 125.935383,93.0016766 C122.152898,89.2200024 117.522211,86.2792403 111.858611,84.3649095 L103.494857,76.0010743 L113.013852,66.4504026 C125.134167,68.2479941 133.639693,72.8176791 139.909268,79.0877403 Z"/><path id="d" d="M209.813533,199.796707 C212.815054,202.798229 212.815054,207.671955 209.813533,210.674287 C206.811201,213.675808 201.937475,213.675808 198.935953,210.674287 L9.02696582,20.7655421 C6.02512014,17.7636965 6.02512014,12.8894846 9.02696582,9.88771991 C12.0287305,6.88587422 16.9029424,6.88587422 19.9047881,9.88771991 L209.813533,199.796707 Z"/></defs><g fill="none" fill-rule="evenodd"><rect width="365" height="365"/><g fill-rule="nonzero" transform="translate(74.08 72.22)"><g opacity=".6"><use xlink:href="#a" fill="#000" filter="url(#b)"/><use xlink:href="#a" fill="#2E2E2E"/><use xlink:href="#a" fill="url(#c)"/></g><use xlink:href="#d" fill="#000" filter="url(#e)"/><use xlink:href="#d" fill="#2E2E2E"/><use xlink:href="#d" fill="url(#f)"/></g></g></svg>