<svg xmlns="http://www.w3.org/2000/svg" xmlns:xlink="http://www.w3.org/1999/xlink" width="365" height="365" viewBox="0 0 365 365"><defs><linearGradient id="c" x1="50%" x2="50%" y1="0%" y2="100%"><stop offset="0%" stop-color="#D8D8D8"/><stop offset="81.272%" stop-color="silver"/><stop offset="100%" stop-color="#767777"/></linearGradient><linearGradient id="f" x1="50%" x2="50%" y1="0%" y2="100%"><stop offset="0%" stop-color="#D8D8D8"/><stop offset="81.272%" stop-color="silver"/><stop offset="100%" stop-color="#767777"/></linearGradient><linearGradient id="i" x1="50%" x2="50%" y1="0%" y2="100%"><stop offset="0%" stop-color="#D8D8D8"/><stop offset="81.272%" stop-color="silver"/><stop offset="100%" stop-color="#767777"/></linearGradient><filter id="b" width="105.5%" height="105.5%" x="-2.7%" y="-2.7%" filterUnits="objectBoundingBox"><feOffset in="SourceAlpha" result="shadowOffsetOuter1"/><feGaussianBlur in="shadowOffsetOuter1" result="shadowBlurOuter1" stdDeviation="2"/><feColorMatrix in="shadowBlurOuter1" values="0 0 0 0 0.552677763 0 0 0 0 0.552677763 0 0 0 0 0.552677763 0 0 0 0.5 0"/></filter><filter id="e" width="109.3%" height="109.2%" x="-4.6%" y="-4.6%" filterUnits="objectBoundingBox"><feOffset in="SourceAlpha" result="shadowOffsetOuter1"/><feGaussianBlur in="shadowOffsetOuter1" result="shadowBlurOuter1" stdDeviation="2"/><feColorMatrix in="shadowBlurOuter1" values="0 0 0 0 0.552677763 0 0 0 0 0.552677763 0 0 0 0 0.552677763 0 0 0 0.5 0"/></filter><filter id="h" width="110.7%" height="110.7%" x="-5.4%" y="-5.4%" filterUnits="objectBoundingBox"><feOffset in="SourceAlpha" result="shadowOffsetOuter1"/><feGaussianBlur in="shadowOffsetOuter1" result="shadowBlurOuter1" stdDeviation="2"/><feColorMatrix in="shadowBlurOuter1" values="0 0 0 0 0.552677763 0 0 0 0 0.552677763 0 0 0 0 0.552677763 0 0 0 0.5 0"/></filter><path id="a" d="M122.646721,157.189193 C120.621808,165.152744 121.795277,174.240752 124.905275,181.35448 L106.8797,199.349838 C89.552535,216.636334 89.4525653,241.068153 106.860419,258.506143 C124.137922,275.713247 148.599635,275.653297 165.956693,258.356269 L185.885679,238.443135 C184.652091,243.762722 184,249.305209 184,255 C184,258.749218 184.28264,262.432421 184.827776,266.029465 L178.386477,272.480029 C153.475062,297.361468 118.11811,297.581823 92.9564469,272.349598 C67.7545395,247.217829 67.8543075,211.701038 92.8559911,186.920055 L122.646721,157.189193 Z M134.747106,162.101805 L157.744433,185.098888 C159.863726,189.740918 162.964893,194.167453 167.009859,198.205938 C170.202571,201.447257 174.042574,204.070449 178.619793,205.974249 L188.602182,215.956637 L179.901415,224.686569 C168.002265,222.990781 159.58687,218.55547 153.378614,212.460201 L153.035973,212.119874 C138.433672,197.535152 132.369464,179.51063 134.747106,162.101805 Z M187.093725,138.669521 C199.214039,140.467112 207.719566,145.036797 213.989141,151.306859 C224.37223,161.719266 230.43323,173.884445 232.188251,186.32668 C228.255331,187.746083 224.480384,189.495036 220.895435,191.539001 L210.403517,181.049062 C208.316629,175.420298 204.837943,170.043483 200.015255,165.220795 C196.232771,161.439121 191.602083,158.498359 185.938483,156.584028 L177.574729,148.220193 L187.093725,138.669521 Z M274.068991,91.0769727 C299.240456,116.208418 299.140811,151.655213 274.169447,176.506678 L267.855037,182.801557 C264.313379,182.27358 260.688638,182 257,182 C252.09379,182 247.300624,182.484 242.665644,183.406857 C242.491765,182.955725 242.309492,182.510656 242.120001,182.073063 L260.115359,164.076895 C277.402665,146.790318 277.502311,122.35858 260.134802,104.920752 C242.857217,87.6432481 218.395423,87.7733546 201.068421,105.070382 L167.7171,138.362888 L154.489342,125.134643 L188.638637,90.9465422 C213.450406,66.0649081 248.877273,65.8449423 274.068991,91.0769727 Z"/><path id="d" d="M93.9846604,82.1068382 L210.555253,198.677879 C206.591482,201.950248 202.979016,205.632967 199.7829,209.660992 L83.1068382,92.9846604 C80.1049925,89.9828147 80.1049925,85.1086028 83.1068382,82.1068382 C86.1086028,79.1049925 90.9828147,79.1049925 93.9846604,82.1068382 Z"/><path id="g" d="M201,255 C201,285.927946 226.072054,311 257,311 C287.927946,311 313,285.927946 313,255 C313,224.072054 287.927946,199 257,199 C226.072054,199 201,224.072054 201,255 Z M225.805369,234.306695 C225.805369,231.899817 226.537608,229.923716 228.002085,228.37839 C229.466562,226.833065 231.423636,226.060403 233.873306,226.060403 L245.230076,226.060403 C249.303985,226.060403 253.018431,226.81939 256.373415,228.337364 C259.728399,229.855338 262.62407,231.961357 265.060427,234.655419 C267.496784,237.349482 269.373977,240.501672 270.692007,244.111989 C272.010036,247.722306 272.669051,251.606132 272.669051,255.763467 L272.669051,257.568626 L272.168809,267.06419 L275.864274,262.245627 L277.661586,260.112258 C278.433765,259.154977 279.312451,258.423341 280.297645,257.917349 C281.282839,257.411358 282.41448,257.158362 283.692569,257.158362 C285.822717,257.158362 287.606717,257.869485 289.044567,259.291732 C290.482417,260.713978 291.201342,262.601189 291.201342,264.953365 C291.201342,267.141436 290.37591,269.097025 288.725045,270.820131 L270.991559,288.584533 C269.101052,290.499095 266.984217,291.456376 264.641054,291.456376 C262.324517,291.456376 260.220996,290.499095 258.330489,288.584533 L240.597003,270.820131 C239.798198,269.999604 239.18578,269.083349 238.75975,268.071367 C238.333721,267.059384 238.120706,266.02005 238.120706,264.953365 C238.120706,262.601189 238.839631,260.713978 240.277481,259.291732 C241.715331,257.869485 243.499331,257.158362 245.629479,257.158362 C246.907568,257.158362 248.03921,257.411358 249.024403,257.917349 C249.900131,258.36712 250.691705,258.995177 251.399124,259.801522 L253.457775,262.245627 L257.12439,266.99334 L256.652997,257.568626 L256.652997,255.722441 C256.652997,253.315563 256.173714,251.113816 255.215147,249.117201 C254.25658,247.120586 252.925237,245.520559 251.221119,244.31712 C249.517,243.113681 247.519986,242.511962 245.230076,242.511962 L233.833366,242.511962 C231.410322,242.511962 229.466562,241.746137 228.002085,240.214487 C226.537608,238.682837 225.805369,236.713574 225.805369,234.306695 Z"/></defs><g fill="none" fill-rule="evenodd"><rect width="365" height="365"/><g fill-rule="nonzero" opacity=".6"><use xlink:href="#a" fill="#000" filter="url(#b)"/><use xlink:href="#a" fill="#2E2E2E"/><use xlink:href="#a" fill="url(#c)"/></g><g fill-rule="nonzero"><use xlink:href="#d" fill="#000" filter="url(#e)"/><use xlink:href="#d" fill="#2E2E2E"/><use xlink:href="#d" fill="url(#f)"/></g><g fill-rule="nonzero"><use xlink:href="#g" fill="#000" filter="url(#h)"/><use xlink:href="#g" fill="#2E2E2E"/><use xlink:href="#g" fill="url(#i)"/></g></g></svg>