<svg xmlns="http://www.w3.org/2000/svg" xmlns:xlink="http://www.w3.org/1999/xlink" width="365" height="365" viewBox="0 0 365 365"><defs><linearGradient id="c" x1="50%" x2="50%" y1="0%" y2="100%"><stop offset="0%" stop-color="#D8D8D8"/><stop offset="100%" stop-color="silver"/></linearGradient><linearGradient id="f" x1="50%" x2="50%" y1="0%" y2="100%"><stop offset="0%" stop-color="#D8D8D8"/><stop offset="100%" stop-color="silver"/></linearGradient><linearGradient id="i" x1="50%" x2="50%" y1="0%" y2="100%"><stop offset="0%" stop-color="#D8D8D8"/><stop offset="100%" stop-color="silver"/></linearGradient><filter id="b" width="105.3%" height="119%" x="-2.7%" y="-9.5%" filterUnits="objectBoundingBox"><feOffset in="SourceAlpha" result="shadowOffsetOuter1"/><feGaussianBlur in="shadowOffsetOuter1" result="shadowBlurOuter1" stdDeviation="2"/><feColorMatrix in="shadowBlurOuter1" values="0 0 0 0 0.552677763 0 0 0 0 0.552677763 0 0 0 0 0.552677763 0 0 0 0.5 0"/></filter><filter id="e" width="104.6%" height="121.4%" x="-2.3%" y="-10.7%" filterUnits="objectBoundingBox"><feOffset in="SourceAlpha" result="shadowOffsetOuter1"/><feGaussianBlur in="shadowOffsetOuter1" result="shadowBlurOuter1" stdDeviation="1.5"/><feColorMatrix in="shadowBlurOuter1" values="0 0 0 0 0.552677763 0 0 0 0 0.552677763 0 0 0 0 0.552677763 0 0 0 0.5 0"/></filter><filter id="h" width="104.6%" height="120.9%" x="-2.3%" y="-10.5%" filterUnits="objectBoundingBox"><feOffset in="SourceAlpha" result="shadowOffsetOuter1"/><feGaussianBlur in="shadowOffsetOuter1" result="shadowBlurOuter1" stdDeviation="1.5"/><feColorMatrix in="shadowBlurOuter1" values="0 0 0 0 0.552677763 0 0 0 0 0.552677763 0 0 0 0 0.552677763 0 0 0 0.5 0"/></filter><path id="a" d="M93.9600677,97 L271.038391,97.1697261 C278.716339,97.1697261 284.629428,99.2379246 288.777657,103.374322 C292.925886,107.510719 295,113.350231 295,120.89286 L295,136.25825 C295,143.867069 292.925886,149.726232 288.777657,153.835739 C284.629428,157.945246 278.716339,160 271.038391,160 L93.9600677,159.830274 C86.3355459,159.830274 80.4360708,157.77552 76.2616425,153.666013 C72.0872142,149.556506 70,143.697343 70,136.088524 L70,120.723134 C70,113.180505 72.0872142,107.340992 76.2616425,103.204595 C80.4360708,99.0681985 86.3355459,97 93.9600677,97 Z M86.3975833,116.931189 C85.2605278,116.866199 84.2243972,117.301306 83.2891914,118.236512 C82.3767956,119.148908 81.9474228,120.167963 82.0010731,121.293679 C82.0547234,122.419394 82.5918511,123.492555 83.612456,124.513159 L97.5607238,138.461427 C98.7854497,139.686153 100.08013,140.307942 101.444766,140.326793 C102.809401,140.345645 104.141801,139.704988 105.441965,138.404824 L119.264762,124.582027 C120.291207,123.555582 120.851575,122.462232 120.945864,121.301977 C121.040154,120.141722 120.645036,119.119333 119.760512,118.234809 C118.853308,117.327604 117.82528,116.915444 116.676431,116.998329 C115.527581,117.081213 114.428528,117.647283 113.379273,118.696539 L103.696472,128.37934 C102.524899,129.550912 100.625404,129.550912 99.4538316,128.37934 L89.5660336,118.491542 C88.5907889,117.516297 87.5346388,116.996179 86.3975833,116.931189 Z"/><path id="d" d="M165.025892,214 L274.97282,214 C281.39007,214 286.332246,212.265131 289.799348,208.795393 C293.266449,205.325656 295,200.378649 295,193.954373 L295,192.029909 C295,185.661519 293.266449,180.731104 289.799348,177.238662 C286.332246,173.746221 281.39007,172 274.97282,172 L165.025892,172 C158.653295,172 153.722497,173.746221 150.233498,177.238662 C146.744499,180.731104 145,185.661519 145,192.029909 L145,193.954373 C145,200.378649 146.744499,205.325656 150.233498,208.795393 C153.722497,212.265131 158.653295,214 165.025892,214 Z M101.913425,172 C103.201589,172 104.255542,172.391895 105.075282,173.175685 C105.895023,173.959475 106.304893,174.999777 106.304893,176.296593 L106.304893,182.396126 C106.304893,183.621688 106.626934,184.690492 107.271016,185.602538 C107.915098,186.514585 108.771435,187.227121 109.840025,187.740147 C110.908616,188.253173 112.086993,188.509686 113.375157,188.509686 L114.363237,188.509686 L119.407355,188.761976 L116.866374,186.799599 L115.724592,185.837675 C115.212254,185.424404 114.820682,184.95413 114.549875,184.426854 C114.279067,183.899577 114.143664,183.293921 114.143664,182.609886 C114.143664,181.469829 114.524258,180.51503 115.285445,179.745491 C116.046633,178.975952 117.056671,178.591182 118.315558,178.591182 C118.886449,178.591182 119.442702,178.705188 119.984316,178.9332 C120.525931,179.161211 121.016311,179.488978 121.455458,179.9165 L130.962986,189.407482 C131.987662,190.419283 132.5,191.54509 132.5,192.784903 C132.5,194.038967 131.987662,195.171899 130.962986,196.183701 L121.455458,205.674683 C120.53325,206.558228 119.486616,207 118.315558,207 C117.056671,207 116.046633,206.61523 115.285445,205.845691 C114.524258,205.076152 114.143664,204.121354 114.143664,202.981296 C114.143664,202.297261 114.279067,201.691605 114.549875,201.164329 C114.820682,200.637052 115.212254,200.166778 115.724592,199.753507 L116.866374,198.791583 L119.445274,196.813766 L114.363237,197.081496 L113.397114,197.081496 C111.172104,197.081496 109.093476,196.728791 107.16123,196.02338 C105.228984,195.317969 103.541928,194.313293 102.100063,193.009352 C100.658197,191.705411 99.531054,190.155645 98.7186324,188.360053 C97.9062108,186.564462 97.5,184.576486 97.5,182.396126 L97.5,176.317969 C97.5,175.006903 97.9135299,173.959475 98.7405897,173.175685 C99.5676495,172.391895 100.625261,172 101.913425,172 Z"/><path id="g" d="M165.025892,268 L274.97282,268 C281.39007,268 286.332246,266.265131 289.799348,262.795393 C293.266449,259.325656 295,254.378649 295,247.954373 L295,246.029909 C295,239.661519 293.266449,234.731104 289.799348,231.238662 C286.332246,227.746221 281.39007,226 274.97282,226 L165.025892,226 C158.653295,226 153.722497,227.746221 150.233498,231.238662 C146.744499,234.731104 145,239.661519 145,246.029909 L145,247.954373 C145,254.378649 146.744499,259.325656 150.233498,262.795393 C153.722497,266.265131 158.653295,268 165.025892,268 Z M101.913425,225 C103.201589,225 104.255542,225.391895 105.075282,226.175685 C105.895023,226.959475 106.304893,227.999777 106.304893,229.296593 L106.304893,236.396126 C106.304893,237.621688 106.626934,238.690492 107.271016,239.602538 C107.915098,240.514585 108.771435,241.227121 109.840025,241.740147 C110.908616,242.253173 112.086993,242.509686 113.375157,242.509686 L114.363237,242.509686 L119.407355,242.761976 L116.866374,240.799599 L115.724592,239.837675 C115.212254,239.424404 114.820682,238.95413 114.549875,238.426854 C114.279067,237.899577 114.143664,237.293921 114.143664,236.609886 C114.143664,235.469829 114.524258,234.51503 115.285445,233.745491 C116.046633,232.975952 117.056671,232.591182 118.315558,232.591182 C118.886449,232.591182 119.442702,232.705188 119.984316,232.9332 C120.525931,233.161211 121.016311,233.488978 121.455458,233.9165 L130.962986,243.407482 C131.987662,244.419283 132.5,245.54509 132.5,246.784903 C132.5,248.038967 131.987662,249.171899 130.962986,250.183701 L121.455458,259.674683 C120.53325,260.558228 119.486616,261 118.315558,261 C117.056671,261 116.046633,260.61523 115.285445,259.845691 C114.524258,259.076152 114.143664,258.121354 114.143664,256.981296 C114.143664,256.297261 114.279067,255.691605 114.549875,255.164329 C114.820682,254.637052 115.212254,254.166778 115.724592,253.753507 L116.866374,252.791583 L119.445274,250.813766 L114.363237,251.081496 L113.397114,251.081496 C111.172104,251.081496 109.093476,250.728791 107.16123,250.02338 C105.228984,249.317969 103.541928,248.313293 102.100063,247.009352 C100.658197,245.705411 99.531054,244.155645 98.7186324,242.360053 C97.9062108,240.564462 97.5,238.576486 97.5,236.396126 L97.5,229.317969 C97.5,228.006903 97.9135299,226.959475 98.7405897,226.175685 C99.5676495,225.391895 100.625261,225 101.913425,225 Z"/></defs><g fill="none" fill-rule="evenodd"><rect width="365" height="365"/><g fill-rule="nonzero" opacity=".6"><use xlink:href="#a" fill="#000" filter="url(#b)"/><use xlink:href="#a" fill="url(#c)"/></g><g fill-rule="nonzero" opacity=".9"><use xlink:href="#d" fill="#000" filter="url(#e)"/><use xlink:href="#d" fill="url(#f)"/></g><g fill-rule="nonzero"><use xlink:href="#g" fill="#000" filter="url(#h)"/><use xlink:href="#g" fill="url(#i)"/></g></g></svg>