<svg xmlns="http://www.w3.org/2000/svg" xmlns:xlink="http://www.w3.org/1999/xlink" width="365" height="365" viewBox="0 0 365 365"><defs><linearGradient id="c" x1="50%" x2="50%" y1="0%" y2="100%"><stop offset="0%" stop-color="#D8D8D8"/><stop offset="81.272%" stop-color="silver"/><stop offset="100%" stop-color="#767777"/></linearGradient><filter id="b" width="105.2%" height="106.6%" x="-2.6%" y="-3.3%" filterUnits="objectBoundingBox"><feOffset in="SourceAlpha" result="shadowOffsetOuter1"/><feGaussianBlur in="shadowOffsetOuter1" result="shadowBlurOuter1" stdDeviation="2"/><feColorMatrix in="shadowBlurOuter1" values="0 0 0 0 0.552677763 0 0 0 0 0.552677763 0 0 0 0 0.552677763 0 0 0 0.5 0"/></filter><path id="a" d="M97.6826172,273.726562 L268.317383,273.726562 C278.706706,273.726562 286.46582,271.178548 291.594727,266.08252 C296.723633,260.986491 299.288086,253.342448 299.288086,243.150391 L299.288086,122.719727 C299.288086,112.527669 296.723633,104.883626 291.594727,99.7875977 C286.46582,94.691569 278.706706,92.1435547 268.317383,92.1435547 L97.6826172,92.1435547 C87.3590495,92.1435547 79.6163737,94.691569 74.4545898,99.7875977 C69.292806,104.883626 66.7119141,112.527669 66.7119141,122.719727 L66.7119141,243.150391 C66.7119141,253.342448 69.292806,260.986491 74.4545898,266.08252 C79.6163737,271.178548 87.3590495,273.726562 97.6826172,273.726562 Z M97.8798828,257.84668 C92.9482422,257.84668 89.1673177,256.548014 86.5371094,253.950684 C83.906901,251.353353 82.5917969,247.490234 82.5917969,242.361328 L82.5917969,123.508789 C82.5917969,118.379883 83.906901,114.516764 86.5371094,111.919434 C89.1673177,109.322103 92.9482422,108.023438 97.8798828,108.023438 L268.120117,108.023438 C272.986003,108.023438 276.750488,109.322103 279.413574,111.919434 C282.07666,114.516764 283.408203,118.379883 283.408203,123.508789 L283.408203,242.361328 C283.408203,247.490234 282.07666,251.353353 279.413574,253.950684 C276.750488,256.548014 272.986003,257.84668 268.120117,257.84668 L97.8798828,257.84668 Z M141.870117,260.904297 L157.355469,260.904297 L157.355469,105.064453 L141.870117,105.064453 L141.870117,260.904297 Z M122.932617,144.616211 C124.379232,144.616211 125.677897,144.040853 126.828613,142.890137 C127.979329,141.739421 128.554688,140.473633 128.554688,139.092773 C128.554688,137.580404 127.979329,136.281738 126.828613,135.196777 C125.677897,134.111816 124.379232,133.569336 122.932617,133.569336 L101.726562,133.569336 C100.279948,133.569336 98.9977214,134.111816 97.8798828,135.196777 C96.7620443,136.281738 96.203125,137.580404 96.203125,139.092773 C96.203125,140.473633 96.7620443,141.739421 97.8798828,142.890137 C98.9977214,144.040853 100.279948,144.616211 101.726562,144.616211 L122.932617,144.616211 Z M122.932617,170.162109 C124.379232,170.162109 125.677897,169.60319 126.828613,168.485352 C127.979329,167.367513 128.554688,166.052409 128.554688,164.540039 C128.554688,163.093424 127.979329,161.827637 126.828613,160.742676 C125.677897,159.657715 124.379232,159.115234 122.932617,159.115234 L101.726562,159.115234 C100.279948,159.115234 98.9977214,159.657715 97.8798828,160.742676 C96.7620443,161.827637 96.203125,163.093424 96.203125,164.540039 C96.203125,166.052409 96.7620443,167.367513 97.8798828,168.485352 C98.9977214,169.60319 100.279948,170.162109 101.726562,170.162109 L122.932617,170.162109 Z M218.894043,157.44043 C222.930501,157.44043 226.739909,157.924805 230.322266,158.893555 C233.904622,159.862305 237.219564,161.14388 240.26709,162.738281 C243.314616,164.332682 246.049316,166.088542 248.471191,168.005859 C250.893066,169.923177 252.956706,171.850586 254.662109,173.788086 C256.367513,175.725586 257.669271,177.516764 258.567383,179.161621 C259.465495,180.806478 259.914551,182.143555 259.914551,183.172852 C259.914551,184.202148 259.465495,185.539225 258.567383,187.184082 C257.669271,188.828939 256.367513,190.620117 254.662109,192.557617 C252.956706,194.495117 250.898112,196.422526 248.486328,198.339844 C246.074544,200.257161 243.344889,202.013021 240.297363,203.607422 C237.249837,205.201823 233.92985,206.483398 230.337402,207.452148 C226.744954,208.420898 222.930501,208.905273 218.894043,208.905273 C214.897949,208.905273 211.11377,208.420898 207.541504,207.452148 C203.969238,206.483398 200.659342,205.201823 197.611816,203.607422 C194.56429,202.013021 191.824544,200.257161 189.392578,198.339844 C186.960612,196.422526 184.881836,194.495117 183.15625,192.557617 C181.430664,190.620117 180.11377,188.828939 179.205566,187.184082 C178.297363,185.539225 177.843262,184.202148 177.843262,183.172852 C177.843262,182.143555 178.297363,180.806478 179.205566,179.161621 C180.11377,177.516764 181.430664,175.725586 183.15625,173.788086 C184.881836,171.850586 186.960612,169.923177 189.392578,168.005859 C191.824544,166.088542 194.56429,164.332682 197.611816,162.738281 C200.659342,161.14388 203.969238,159.862305 207.541504,158.893555 C211.11377,157.924805 214.897949,157.44043 218.894043,157.44043 Z M218.894043,166.310547 C216.532715,166.310547 214.322754,166.739421 212.26416,167.597168 C210.205566,168.454915 208.404297,169.655762 206.860352,171.199707 C205.316406,172.743652 204.105469,174.534831 203.227539,176.573242 C202.349609,178.611654 201.920736,180.811523 201.940918,183.172852 C201.9611,185.473633 202.405111,187.638184 203.272949,189.666504 C204.140788,191.694824 205.34668,193.491048 206.890625,195.055176 C208.43457,196.619303 210.230794,197.840332 212.279297,198.718262 C214.327799,199.596191 216.532715,200.035156 218.894043,200.035156 C221.235189,200.035156 223.430013,199.596191 225.478516,198.718262 C227.527018,197.840332 229.323242,196.619303 230.867188,195.055176 C232.411133,193.491048 233.62207,191.694824 234.5,189.666504 C235.37793,187.638184 235.816895,185.473633 235.816895,183.172852 C235.816895,180.811523 235.37793,178.611654 234.5,176.573242 C233.62207,174.534831 232.411133,172.743652 230.867188,171.199707 C229.323242,169.655762 227.527018,168.454915 225.478516,167.597168 C223.430013,166.739421 221.235189,166.310547 218.894043,166.310547 Z M122.932617,184.661133 C124.379232,184.661133 125.677897,185.203613 126.828613,186.288574 C127.979329,187.373535 128.554688,188.672201 128.554688,190.18457 C128.554688,191.631185 127.979329,192.896973 126.828613,193.981934 C125.677897,195.066895 124.379232,195.609375 122.932617,195.609375 L101.726562,195.609375 C100.279948,195.609375 98.9977214,195.066895 97.8798828,193.981934 C96.7620443,192.896973 96.203125,191.631185 96.203125,190.18457 C96.203125,188.672201 96.7620443,187.373535 97.8798828,186.288574 C98.9977214,185.203613 100.279948,184.661133 101.726562,184.661133 Z M218.894043,177.057617 C220.569173,177.057617 222.012207,177.65804 223.223145,178.858887 C224.434082,180.059733 225.039551,181.497721 225.039551,183.172852 C225.039551,184.827799 224.434082,186.255697 223.223145,187.456543 C222.012207,188.657389 220.569173,189.257812 218.894043,189.257812 C217.19873,189.257812 215.745605,188.657389 214.534668,187.456543 C213.32373,186.255697 212.718262,184.827799 212.718262,183.172852 C212.718262,181.497721 213.32373,180.059733 214.534668,178.858887 C215.745605,177.65804 217.19873,177.057617 218.894043,177.057617 Z"/></defs><g fill="none" fill-rule="evenodd"><rect width="365" height="365"/><g fill-rule="nonzero"><use xlink:href="#a" fill="#000" filter="url(#b)"/><use xlink:href="#a" fill="#2E2E2E"/><use xlink:href="#a" fill="url(#c)"/></g></g></svg>