<svg xmlns="http://www.w3.org/2000/svg" xmlns:xlink="http://www.w3.org/1999/xlink" width="365" height="365" viewBox="0 0 365 365"><defs><linearGradient id="c" x1="50%" x2="50%" y1="0%" y2="100%"><stop offset="0%" stop-color="#D8D8D8"/><stop offset="81.272%" stop-color="silver"/><stop offset="100%" stop-color="#767777"/></linearGradient><filter id="b" width="197.3%" height="227%" x="-48.6%" y="-63.5%" filterUnits="objectBoundingBox"><feOffset in="SourceAlpha" result="shadowOffsetOuter1"/><feGaussianBlur in="shadowOffsetOuter1" result="shadowBlurOuter1" stdDeviation="50"/><feColorMatrix in="shadowBlurOuter1" values="0 0 0 0 0.552677763 0 0 0 0 0.552677763 0 0 0 0 0.552677763 0 0 0 0.5 0"/></filter><path id="a" d="M256.639301,123.882686 C259.940246,123.882686 262.5263,126.077453 263.33347,129.35681 L265.919524,140.143759 C267.419347,140.697735 268.920282,141.113773 270.698055,142.060426 L280.255117,136.054574 C282.977924,134.414896 286.25552,134.946623 288.588084,137.279328 L295.260016,143.676744 C297.56812,145.87151 297.869419,149.404495 296.091645,152.268927 L290.226882,161.9457 C290.759436,163.193814 291.45209,164.440815 292.143631,166.335233 L302.761354,168.944925 C306.03895,169.777001 308.347054,172.200922 308.347054,175.481391 L308.347054,184.7666 C308.347054,188.161647 306.179038,190.771339 302.761354,191.464364 L292.004656,194.051808 C291.45209,195.552437 291.035163,196.915128 290.087907,198.416868 L295.674719,207.840015 C297.591468,210.981434 297.313517,214.099493 295.005413,216.546775 L288.588084,222.992024 C286.117657,225.578356 282.977924,225.578356 280.116142,223.799627 L270.698055,218.187566 C269.197121,218.880591 267.419347,219.573617 265.919524,219.989655 L263.33347,230.752131 C262.5263,234.170538 259.940246,236.226255 256.639301,236.226255 L247.291258,236.226255 C243.898034,236.226255 241.174116,234.031488 240.481462,230.752131 L238.034383,219.989655 C236.533448,219.573617 235.033626,219.018529 233.370368,218.187566 L223.814417,223.799627 C220.951524,225.554995 217.672815,225.578356 215.226848,222.992024 L208.947382,216.546775 C206.639278,214.237431 206.362439,210.981434 208.139101,207.979065 L213.725913,198.416868 C213.056608,196.915128 212.50293,195.552437 211.810276,194.051808 L201.168094,191.464364 C197.889386,190.771339 195.720257,188.161647 195.720257,184.7666 L195.720257,175.481391 C195.720257,172.339972 197.889386,169.777001 201.168094,168.944925 L211.694648,166.335233 C212.363954,164.695554 213.056608,163.193814 213.586938,161.9457 L207.585423,152.268927 C205.807649,149.404495 206.639278,146.009448 208.832867,143.676744 L215.226848,137.279328 C217.672815,134.946623 221.089387,134.530585 223.675442,136.054574 L233.093529,142.060426 C234.617811,141.113773 236.118746,140.697735 238.034383,140.004709 L240.481462,129.35681 C241.174116,126.21539 243.898034,123.882686 247.291258,123.882686 Z M221.922645,0.0915429169 C244.68166,0.0915429169 255.994439,11.446422 255.994439,33.8039865 L255.994,105.882543 L247.291258,105.882686 L246.901311,105.885654 C243.963424,105.930408 241.142096,106.480087 238.525081,107.457106 L238.525916,34.6564317 C238.525916,23.3543072 232.397976,17.6680044 221.64572,17.6680044 L34.3489419,17.6680044 C23.5023759,17.6680044 17.4685231,23.3543072 17.4685231,34.6564317 L17.4685231,165.435283 C17.4685231,176.622236 23.5023759,182.423043 34.3489419,182.423043 L177.72,182.422543 L177.720257,184.7666 L177.723199,185.158708 C177.807146,190.748852 179.683926,195.888213 182.864211,200.000309 L34.0716832,200 C11.4276638,200 0,188.691872 0,166.286839 L0,33.8039865 C0,11.3995086 11.4276638,0.0915429169 34.0716832,0.0915429169 L221.922645,0.0915429169 Z M252.364791,161.944223 L252.046441,161.9457 C241.820074,162.08475 233.90181,170.169678 233.90181,180.123439 C233.90181,190.217363 241.820074,198.163241 252.046441,198.163241 C261.718019,198.163241 270.052098,190.217363 270.052098,180.123439 C270.052098,170.169678 261.718019,161.807762 252.046441,161.9457 Z M72.4563912,32.3765744 C79.3475995,32.3765744 82.0577953,35.2004936 82.0577953,42.2041511 L82.0577953,157.888008 C82.0577953,164.77605 79.3475995,167.715362 72.4563912,167.715362 L41.784436,167.715362 C35.008335,167.715362 32.2982505,164.77605 32.2982505,157.888008 L32.2982505,42.2041511 C32.2982505,35.2004936 35.008335,32.3765744 41.784436,32.3765744 L72.4563912,32.3765744 Z M143.277266,32.3765744 C150.168474,32.3765744 152.87867,35.2004936 152.87867,42.2041511 L152.87867,157.888008 C152.87867,164.77605 150.168474,167.715362 143.277266,167.715362 L112.605311,167.715362 C105.82921,167.715362 103.119125,164.77605 103.119125,157.888008 L103.119125,42.2041511 C103.119125,35.2004936 105.82921,32.3765744 112.605311,32.3765744 L143.277266,32.3765744 Z M214.098141,32.3765744 C220.989349,32.3765744 223.699545,35.2004936 223.699545,42.2041511 L223.69964,117.376853 C216.240812,116.357305 208.515921,118.80605 202.80409,124.253389 L202.647993,124.402257 L202.495508,124.554824 L196.101527,130.95224 L195.907738,131.146134 L195.719942,131.345839 L195.45389,131.632888 C189.826927,137.792604 187.330446,146.241654 189.209738,154.345305 L189.293257,154.691686 L189.154984,154.779339 C184.541149,157.717819 181.008912,162.038935 179.158825,167.170254 C175.485176,166.038764 173.94,163.089085 173.94,157.888008 L173.94,42.2041511 C173.94,35.2004936 176.650084,32.3765744 183.426185,32.3765744 L214.098141,32.3765744 Z"/></defs><g fill="none" fill-rule="evenodd"><rect width="365" height="365"/><g fill-rule="nonzero" transform="translate(28 82)"><rect width="256" height="200" fill="#000" opacity="0"/><use xlink:href="#a" fill="#000" filter="url(#b)"/><use xlink:href="#a" fill="#2E2E2E"/><use xlink:href="#a" fill="url(#c)"/><path fill="#FFF" fill-opacity=".85" d="M247.291258,236.226255 L256.639301,236.226255 C259.940246,236.226255 262.5263,234.170538 263.33347,230.752131 L265.919524,219.989655 C267.419347,219.573617 269.197121,218.880591 270.698055,218.187566 L280.116142,223.799627 C282.977924,225.578356 286.117657,225.578356 288.588084,222.992024 L295.005413,216.546775 C297.313517,214.099493 297.591468,210.981434 295.674719,207.840015 L290.087907,198.416868 C291.035163,196.915128 291.45209,195.552437 292.004656,194.051808 L302.761354,191.464364 C306.179038,190.771339 308.347054,188.161647 308.347054,184.7666 L308.347054,175.481391 C308.347054,172.200922 306.03895,169.777001 302.761354,168.944925 L292.143631,166.335233 C291.45209,164.440815 290.759436,163.193814 290.226882,161.9457 L296.091645,152.268927 C297.869419,149.404495 297.56812,145.87151 295.260016,143.676744 L288.588084,137.279328 C286.25552,134.946623 282.977924,134.414896 280.255117,136.054574 L270.698055,142.060426 C268.920282,141.113773 267.419347,140.697735 265.919524,140.143759 L263.33347,129.35681 C262.5263,126.077453 259.940246,123.882686 256.639301,123.882686 L247.291258,123.882686 C243.898034,123.882686 241.174116,126.21539 240.481462,129.35681 L238.034383,140.004709 C236.118746,140.697735 234.617811,141.113773 233.093529,142.060426 L223.675442,136.054574 C221.089387,134.530585 217.672815,134.946623 215.226848,137.279328 L208.832867,143.676744 C206.639278,146.009448 205.807649,149.404495 207.585423,152.268927 L213.586938,161.9457 C213.056608,163.193814 212.363954,164.695554 211.694648,166.335233 L201.168094,168.944925 C197.889386,169.777001 195.720257,172.339972 195.720257,175.481391 L195.720257,184.7666 C195.720257,188.161647 197.889386,190.771339 201.168094,191.464364 L211.810276,194.051808 C212.50293,195.552437 213.056608,196.915128 213.725913,198.416868 L208.139101,207.979065 C206.362439,210.981434 206.639278,214.237431 208.947382,216.546775 L215.226848,222.992024 C217.672815,225.578356 220.951524,225.554995 223.814417,223.799627 L233.370368,218.187566 C235.033626,219.018529 236.533448,219.573617 238.034383,219.989655 L240.481462,230.752131 C241.174116,234.031488 243.898034,236.226255 247.291258,236.226255 Z M252.046441,198.163241 C241.820074,198.163241 233.90181,190.217363 233.90181,180.123439 C233.90181,170.169678 241.820074,162.08475 252.046441,161.9457 C261.718019,161.807762 270.052098,170.169678 270.052098,180.123439 C270.052098,190.217363 261.718019,198.163241 252.046441,198.163241 Z"/></g></g></svg>