<svg xmlns="http://www.w3.org/2000/svg" xmlns:xlink="http://www.w3.org/1999/xlink" width="365" height="365" viewBox="0 0 365 365"><defs><linearGradient id="c" x1="50%" x2="50%" y1="0%" y2="100%"><stop offset="0%" stop-color="#D8D8D8"/><stop offset="81.272%" stop-color="silver"/><stop offset="100%" stop-color="#767777"/></linearGradient><filter id="b" width="217.2%" height="250.1%" x="-58.6%" y="-75%" filterUnits="objectBoundingBox"><feOffset in="SourceAlpha" result="shadowOffsetOuter1"/><feGaussianBlur in="shadowOffsetOuter1" result="shadowBlurOuter1" stdDeviation="50"/><feColorMatrix in="shadowBlurOuter1" values="0 0 0 0 0.552677763 0 0 0 0 0.552677763 0 0 0 0 0.552677763 0 0 0 0.5 0"/></filter><path id="a" d="M275.922645,82.0915429 C298.68166,82.0915429 309.994439,93.446422 309.994439,115.803987 L309.994439,248.286839 C309.994439,270.645181 298.68166,282 275.922645,282 L88.0716832,282 C65.4276638,282 54,270.691872 54,248.286839 L54,115.803987 C54,93.3995086 65.4276638,82.0915429 88.0716832,82.0915429 Z M275.64572,99.6680044 L88.3489419,99.6680044 C77.5023759,99.6680044 71.4685231,105.354307 71.4685231,116.656432 L71.4685231,247.435283 C71.4685231,258.622236 77.5023759,264.423043 88.3489419,264.423043 L275.64572,264.423043 C286.397976,264.423043 292.525916,258.622236 292.525916,247.435283 L292.525916,116.656432 C292.525916,105.354307 286.397976,99.6680044 275.64572,99.6680044 Z M126.456391,114.376574 C133.3476,114.376574 136.057795,117.200494 136.057795,124.204151 L136.057795,239.888008 C136.057795,246.77605 133.3476,249.715362 126.456391,249.715362 L95.784436,249.715362 C89.008335,249.715362 86.2982505,246.77605 86.2982505,239.888008 L86.2982505,124.204151 C86.2982505,117.200494 89.008335,114.376574 95.784436,114.376574 Z M268.098141,114.376574 C274.989349,114.376574 277.699545,117.200494 277.699545,124.204151 L277.699545,239.888008 C277.699545,246.77605 274.989349,249.715362 268.098141,249.715362 L237.426185,249.715362 C230.650084,249.715362 227.94,246.77605 227.94,239.888008 L227.94,124.204151 C227.94,117.200494 230.650084,114.376574 237.426185,114.376574 Z M197.277266,114.376574 C204.168474,114.376574 206.87867,117.200494 206.87867,124.204151 L206.87867,239.888008 C206.87867,246.77605 204.168474,249.715362 197.277266,249.715362 L166.605311,249.715362 C159.82921,249.715362 157.119125,246.77605 157.119125,239.888008 L157.119125,124.204151 C157.119125,117.200494 159.82921,114.376574 166.605311,114.376574 Z"/></defs><g fill="none" fill-rule="evenodd"><rect width="365" height="365"/><g fill-rule="nonzero"><use xlink:href="#a" fill="#000" filter="url(#b)"/><use xlink:href="#a" fill="#2E2E2E"/><use xlink:href="#a" fill="url(#c)"/></g></g></svg>