<svg xmlns="http://www.w3.org/2000/svg" xmlns:xlink="http://www.w3.org/1999/xlink" width="365" height="365" viewBox="0 0 365 365"><defs><linearGradient id="c" x1="50%" x2="50%" y1="0%" y2="100%"><stop offset="0%" stop-color="#D8D8D8"/><stop offset="81.272%" stop-color="silver"/><stop offset="100%" stop-color="#767777"/></linearGradient><filter id="b" width="106.2%" height="106.1%" x="-3.1%" y="-3.1%" filterUnits="objectBoundingBox"><feOffset in="SourceAlpha" result="shadowOffsetOuter1"/><feGaussianBlur in="shadowOffsetOuter1" result="shadowBlurOuter1" stdDeviation="2"/><feColorMatrix in="shadowBlurOuter1" values="0 0 0 0 0.552677763 0 0 0 0 0.552677763 0 0 0 0 0.552677763 0 0 0 0.5 0"/></filter><path id="a" d="M10.7016602,79.5874329 C7.77555339,79.5874329 5.26041667,78.5230204 3.15625,76.3941956 C1.05208333,74.2653707 0,71.7065684 0,68.7177887 C0,65.6992137 1.05208333,63.1239726 3.15625,60.9920654 C5.26041667,58.8601583 7.77555339,57.7942047 10.7016602,57.7942047 C13.6277669,57.7942047 16.1429036,58.8601583 18.2470703,60.9920654 C20.351237,63.1239726 21.4033203,65.6992137 21.4033203,68.7177887 C21.4033203,71.7065684 20.351237,74.2653707 18.2470703,76.3941956 C16.1429036,78.5230204 13.6277669,79.5874329 10.7016602,79.5874329 Z M10.7016602,50.667984 C7.77555339,50.667984 5.26041667,49.6110204 3.15625,47.4970932 C1.05208333,45.383166 0,42.7989349 0,39.7444 C0,36.7556203 1.05208333,34.196818 3.15625,32.0679932 C5.26041667,29.9391683 7.77555339,28.8747559 10.7016602,28.8747559 C13.6277669,28.8747559 16.1429036,29.9391683 18.2470703,32.0679932 C20.351237,34.196818 21.4033203,36.7556203 21.4033203,39.7444 C21.4033203,42.7989349 20.351237,45.383166 18.2470703,47.4970932 C16.1429036,49.6110204 13.6277669,50.667984 10.7016602,50.667984 Z M10.7016602,21.7932281 C7.77555339,21.7932281 5.26041667,20.7198257 3.15625,18.5730209 C1.05208333,16.4262161 0,13.8584239 0,10.8696442 C0,7.88086446 1.05208333,5.32206217 3.15625,3.1932373 C5.26041667,1.06441243 7.77555339,0 10.7016602,0 C13.6277669,0 16.1429036,1.06441243 18.2470703,3.1932373 C20.351237,5.32206217 21.4033203,7.88086446 21.4033203,10.8696442 C21.4033203,13.8584239 20.351237,16.4262161 18.2470703,18.5730209 C16.1429036,20.7198257 13.6277669,21.7932281 10.7016602,21.7932281 Z M39.5024414,21.7932281 C36.543457,21.7932281 34.0201009,20.7198257 31.932373,18.5730209 C29.8446452,16.4262161 28.8007812,13.8584239 28.8007812,10.8696442 C28.8007812,7.88086446 29.8446452,5.32206217 31.932373,3.1932373 C34.0201009,1.06441243 36.543457,0 39.5024414,0 C42.4285482,0 44.9436849,1.06441243 47.0478516,3.1932373 C49.1520182,5.32206217 50.2041016,7.88086446 50.2041016,10.8696442 C50.2041016,13.8584239 49.1520182,16.4262161 47.0478516,18.5730209 C44.9436849,20.7198257 42.4285482,21.7932281 39.5024414,21.7932281 Z M68.2539062,21.7932281 C65.3277995,21.7932281 62.8126628,20.7198257 60.7084961,18.5730209 C58.6043294,16.4262161 57.5522461,13.8584239 57.5522461,10.8696442 C57.5522461,7.88086446 58.6043294,5.32206217 60.7084961,3.1932373 C62.8126628,1.06441243 65.3277995,0 68.2539062,0 C71.180013,0 73.6951497,1.06441243 75.7993164,3.1932373 C77.9034831,5.32206217 78.9555664,7.88086446 78.9555664,10.8696442 C78.9555664,13.8584239 77.9034831,16.4262161 75.7993164,18.5730209 C73.6951497,20.7198257 71.180013,21.7932281 68.2539062,21.7932281 Z M97.0546875,21.7932281 C94.0957031,21.7932281 91.5805664,20.7198257 89.5092773,18.5730209 C87.4379883,16.4262161 86.4023438,13.8584239 86.4023438,10.8696442 C86.4023438,7.88086446 87.4379883,5.32206217 89.5092773,3.1932373 C91.5805664,1.06441243 94.0957031,0 97.0546875,0 C99.9807943,0 102.495931,1.06441243 104.600098,3.1932373 C106.704264,5.32206217 107.756348,7.88086446 107.756348,10.8696442 C107.756348,13.8584239 106.704264,16.4262161 104.600098,18.5730209 C102.495931,20.7198257 99.9807943,21.7932281 97.0546875,21.7932281 Z M125.855469,21.7932281 C122.896484,21.7932281 120.373128,20.7198257 118.2854,18.5730209 C116.197673,16.4262161 115.153809,13.8584239 115.153809,10.8696442 C115.153809,7.88086446 116.197673,5.32206217 118.2854,3.1932373 C120.373128,1.06441243 122.896484,0 125.855469,0 C128.814453,0 131.32959,1.06441243 133.400879,3.1932373 C135.472168,5.32206217 136.507812,7.88086446 136.507812,10.8696442 C136.507812,13.8584239 135.472168,16.4262161 133.400879,18.5730209 C131.32959,20.7198257 128.814453,21.7932281 125.855469,21.7932281 Z M154.65625,21.7932281 C151.697266,21.7932281 149.17391,20.7198257 147.086182,18.5730209 C144.998454,16.4262161 143.95459,13.8584239 143.95459,10.8696442 C143.95459,7.88086446 144.998454,5.32206217 147.086182,3.1932373 C149.17391,1.06441243 151.697266,0 154.65625,0 C157.582357,0 160.089274,1.06441243 162.177002,3.1932373 C164.26473,5.32206217 165.308594,7.88086446 165.308594,10.8696442 C165.308594,13.8584239 164.26473,16.4262161 162.177002,18.5730209 C160.089274,20.7198257 157.582357,21.7932281 154.65625,21.7932281 Z M183.407715,21.7932281 C180.481608,21.7932281 177.966471,20.7198257 175.862305,18.5730209 C173.758138,16.4262161 172.706055,13.8584239 172.706055,10.8696442 C172.706055,7.88086446 173.758138,5.32206217 175.862305,3.1932373 C177.966471,1.06441243 180.481608,0 183.407715,0 C186.333822,0 188.848958,1.06441243 190.953125,3.1932373 C193.057292,5.32206217 194.109375,7.88086446 194.109375,10.8696442 C194.109375,13.8584239 193.057292,16.4262161 190.953125,18.5730209 C188.848958,20.7198257 186.333822,21.7932281 183.407715,21.7932281 Z M183.407715,50.667984 C180.481608,50.667984 177.966471,49.6110204 175.862305,47.4970932 C173.758138,45.383166 172.706055,42.7989349 172.706055,39.7444 C172.706055,36.7556203 173.758138,34.196818 175.862305,32.0679932 C177.966471,29.9391683 180.481608,28.8747559 183.407715,28.8747559 C186.333822,28.8747559 188.848958,29.9391683 190.953125,32.0679932 C193.057292,34.196818 194.109375,36.7556203 194.109375,39.7444 C194.109375,42.7989349 193.057292,45.383166 190.953125,47.4970932 C188.848958,49.6110204 186.333822,50.667984 183.407715,50.667984 Z M183.407715,79.5874329 C180.481608,79.5874329 177.966471,78.5230204 175.862305,76.3941956 C173.758138,74.2653707 172.706055,71.7065684 172.706055,68.7177887 C172.706055,65.6992137 173.758138,63.1239726 175.862305,60.9920654 C177.966471,58.8601583 180.481608,57.7942047 183.407715,57.7942047 C186.333822,57.7942047 188.848958,58.8601583 190.953125,60.9920654 C193.057292,63.1239726 194.109375,65.6992137 194.109375,68.7177887 C194.109375,71.7065684 193.057292,74.2653707 190.953125,76.3941956 C188.848958,78.5230204 186.333822,79.5874329 183.407715,79.5874329 Z M183.407715,108.516129 C180.481608,108.516129 177.966471,107.450175 175.862305,105.318268 C173.758138,103.186361 172.706055,100.61112 172.706055,97.5925446 C172.706055,94.6037649 173.758138,92.0359726 175.862305,89.8891678 C177.966471,87.742363 180.481608,86.6689606 183.407715,86.6689606 C186.333822,86.6689606 188.848958,87.742363 190.953125,89.8891678 C193.057292,92.0359726 194.109375,94.6037649 194.109375,97.5925446 C194.109375,100.61112 193.057292,103.186361 190.953125,105.318268 C188.848958,107.450175 186.333822,108.516129 183.407715,108.516129 Z M183.407715,137.435577 C180.481608,137.435577 177.966471,136.362175 175.862305,134.21537 C173.758138,132.068565 172.706055,129.500773 172.706055,126.511993 C172.706055,123.523214 173.758138,120.955421 175.862305,118.808617 C177.966471,116.661812 180.481608,115.588409 183.407715,115.588409 C186.333822,115.588409 188.848958,116.661812 190.953125,118.808617 C193.057292,120.955421 194.109375,123.523214 194.109375,126.511993 C194.109375,129.500773 193.057292,132.068565 190.953125,134.21537 C188.848958,136.362175 186.333822,137.435577 183.407715,137.435577 Z M183.407715,166.310333 C180.481608,166.310333 177.966471,165.244123 175.862305,163.111702 C173.758138,160.979281 172.706055,158.404297 172.706055,155.386749 C172.706055,152.39797 173.758138,149.830177 175.862305,147.683372 C177.966471,145.536568 180.481608,144.463165 183.407715,144.463165 C186.333822,144.463165 188.848958,145.536568 190.953125,147.683372 C193.057292,149.830177 194.109375,152.39797 194.109375,155.386749 C194.109375,158.404297 193.057292,160.979281 190.953125,163.111702 C188.848958,165.244123 186.333822,166.310333 183.407715,166.310333 Z M183.407715,195.229782 C180.481608,195.229782 177.966471,194.16537 175.862305,192.036545 C173.758138,189.90772 172.706055,187.330938 172.706055,184.306198 C172.706055,181.317418 173.758138,178.758616 175.862305,176.629791 C177.966471,174.500966 180.481608,173.436554 183.407715,173.436554 C186.333822,173.436554 188.848958,174.500966 190.953125,176.629791 C193.057292,178.758616 194.109375,181.317418 194.109375,184.306198 C194.109375,187.330938 193.057292,189.90772 190.953125,192.036545 C188.848958,194.16537 186.333822,195.229782 183.407715,195.229782 Z M140.79834,195.229782 C137.839355,195.229782 135.315999,194.16537 133.228271,192.036545 C131.140544,189.90772 130.09668,187.330938 130.09668,184.306198 C130.09668,181.317418 131.140544,178.758616 133.228271,176.629791 C135.315999,174.500966 137.839355,173.436554 140.79834,173.436554 C143.724447,173.436554 146.239583,174.500966 148.34375,176.629791 C150.447917,178.758616 151.5,181.317418 151.5,184.306198 C151.5,187.330938 150.447917,189.90772 148.34375,192.036545 C146.239583,194.16537 143.724447,195.229782 140.79834,195.229782 Z M139.664062,195.229782 C136.737956,195.229782 134.222819,194.16537 132.118652,192.036545 C130.014486,189.90772 128.962402,187.330938 128.962402,184.306198 C128.962402,181.317418 130.014486,178.758616 132.118652,176.629791 C134.222819,174.500966 136.737956,173.436554 139.664062,173.436554 C142.590169,173.436554 145.105306,174.500966 147.209473,176.629791 C149.313639,178.758616 150.365723,181.317418 150.365723,184.306198 C150.365723,187.330938 149.313639,189.90772 147.209473,192.036545 C145.105306,194.16537 142.590169,195.229782 139.664062,195.229782 Z M78.6103516,114.877945 C77.2623698,113.332698 76.5883789,111.573746 76.5883789,109.601089 C76.5883789,107.628433 77.2788086,105.941915 78.659668,104.541534 L114.660645,69.3635254 L106.917969,61.7980804 C105.011068,59.8583018 104.460368,57.7328161 105.265869,55.4216232 C106.07137,53.1104304 107.85498,51.6707509 110.616699,51.1025848 L141.587402,44.7099457 C144.053223,44.1417796 146.157389,44.7035243 147.899902,46.3951797 C149.642415,48.0868352 150.234212,50.1835531 149.675293,52.6853333 L143.017578,83.6760712 C142.458659,86.3812815 140.995605,88.1332982 138.628418,88.9321213 C136.26123,89.7309443 134.157064,89.1933441 132.315918,87.3193207 L124.819824,79.8093567 L88.9667969,114.877945 C87.4873047,116.351273 85.7447917,117.086138 83.7392578,117.082556 C81.733724,117.078946 80.0240885,116.344081 78.6103516,114.877945 Z M9.51806641,195.05101 C6.65771484,195.05101 4.35628255,194.172562 2.61376953,192.415665 C0.87125651,190.658768 0,188.325485 0,185.415817 L0,98.6574707 C0,95.7837626 0.87125651,93.4684601 2.61376953,91.7115631 C4.35628255,89.9546661 6.65771484,89.0762177 9.51806641,89.0762177 L74.6650391,89.0762177 L69.0429687,94.608902 C67.0045573,96.6904653 65.5004069,99.0676702 64.5305176,101.740517 C63.5606283,104.413363 63.125,107.117289 63.2236328,109.852295 L22.8828125,109.852295 C21.0416667,109.852295 20.1210937,110.751806 20.1210937,112.550827 L20.1210937,171.522461 C20.1210937,173.321482 21.0416667,174.220993 22.8828125,174.220993 L82.6542969,174.220993 C84.4625651,174.220993 85.3666992,173.321482 85.3666992,171.522461 L85.3666992,130.74704 C87.7338867,130.678202 90.0517578,130.148308 92.3203125,129.157356 C94.5888672,128.166405 96.6601563,126.732376 98.5341797,124.85527 L105.487793,117.989502 L105.487793,185.415817 C105.487793,188.325485 104.624756,190.658768 102.898682,192.415665 C101.172607,194.172562 98.8958333,195.05101 96.0683594,195.05101 L9.51806641,195.05101 Z"/></defs><g fill="none" fill-rule="evenodd"><rect width="365" height="365"/><g fill-rule="nonzero" transform="matrix(-1 0 0 1 280.055 85.195)"><use xlink:href="#a" fill="#000" filter="url(#b)"/><use xlink:href="#a" fill="#2E2E2E"/><use xlink:href="#a" fill="url(#c)"/></g></g></svg>