<svg xmlns="http://www.w3.org/2000/svg" width="365" height="365" viewBox="0 0 365 365"><defs><linearGradient id="a" x1="50%" x2="50%" y1="0%" y2="100%"><stop offset="0%" stop-color="#D8D8D8"/><stop offset="81.272%" stop-color="silver"/><stop offset="100%" stop-color="#767777"/></linearGradient><linearGradient id="b" x1="50%" x2="50%" y1="0%" y2="100%"><stop offset="0%" stop-color="#D8D8D8"/><stop offset="81.272%" stop-color="silver"/><stop offset="100%" stop-color="#767777"/></linearGradient></defs><g fill="none" fill-rule="evenodd"><rect width="365" height="365"/><path fill="url(#a)" d="M140,117 L140,136 L226,136 L226,117 L242,117 L242,136 L266,136 L266,152 L242,152 L242,190 L266,190 L266,206 L242,206 L242,225 L226,225 L226,206 L140,206 L140,225 L124,225 L124,206 L100,206 L100,190 L124,190 L124,152 L100,152 L100,136 L124,136 L124,117 L140,117 Z M226,190 L226,152 L140,152 L140,190 L226,190 Z" opacity=".3"/><path fill="url(#b)" d="M184,81 C190.627417,81 196,86.372583 196,93 L196,99 L246.134835,99.00093 L247.304959,99.0085317 C259.353303,99.128471 263.984947,100.510657 268.652686,103.006991 C273.541574,105.621597 277.378403,109.458426 279.993009,114.347314 L280.336859,115.004561 C282.729515,119.687557 284,124.684278 284,137.458278 L284,225 L289,225 C293.970563,225 298,229.029437 298,234 C298,238.970563 293.970563,243 289,243 L248.096,243 L264.274685,285.147409 C266.055975,289.787829 263.738193,294.993654 259.097773,296.774944 C254.457353,298.556235 249.251528,296.238452 247.470237,291.598032 L240.331,273 L125.668,273 L118.529759,291.598032 C116.748469,296.238452 111.542644,298.556235 106.902224,296.774944 C102.261804,294.993654 99.9440212,289.787829 101.725312,285.147409 L117.903,243 L77,243 C72.0294373,243 68,238.970563 68,234 C68,229.029437 72.0294373,225 77,225 L82,225 L82,137.458278 C82,124.085497 83.3923842,119.236203 86.0069906,114.347314 C88.6215969,109.458426 92.4584256,105.621597 97.3473144,103.006991 L97.7919903,102.772618 C102.464948,100.347173 107.338408,99.0405773 119.865165,99.00093 L172,99 L172,93 C172,86.372583 177.372583,81 184,81 Z M233.421,255 L228.814,243 L137.184,243 L132.577,255 L233.421,255 Z M250.616689,117 L115.383311,117 L114.566548,117.004619 C109.829974,117.059981 107.991557,117.611998 106.138926,118.602796 C104.18337,119.648639 102.648639,121.18337 101.602796,123.138926 L101.441736,123.448065 C100.49987,125.308106 100,127.315731 100,132.383311 L100,225 L266,225 L266,132.383311 L265.995381,131.566548 C265.940019,126.829974 265.388002,124.991557 264.397204,123.138926 C263.351361,121.18337 261.81663,119.648639 259.861074,118.602796 L259.551935,118.441736 C257.691894,117.49987 255.684269,117 250.616689,117 Z"/><path fill="#ECECEC" d="M161.3,306 L173.720492,306 C177.199886,306 180.020492,308.820606 180.020492,312.3 L180.020492,318.242553 C180.020492,321.721947 177.199886,324.542553 173.720492,324.542553 L161.3,324.542553 C157.820606,324.542553 155,321.721947 155,318.242553 L155,312.3 C155,308.820606 157.820606,306 161.3,306 Z M161.3,329.457447 L173.720492,329.457447 C177.199886,329.457447 180.020492,332.278053 180.020492,335.757447 L180.020492,341.7 C180.020492,345.179394 177.199886,348 173.720492,348 L161.3,348 C157.820606,348 155,345.179394 155,341.7 L155,335.757447 C155,332.278053 157.820606,329.457447 161.3,329.457447 Z M191.279508,306 L203.7,306 C207.179394,306 210,308.820606 210,312.3 L210,318.242553 C210,321.721947 207.179394,324.542553 203.7,324.542553 L191.279508,324.542553 C187.800114,324.542553 184.979508,321.721947 184.979508,318.242553 L184.979508,312.3 C184.979508,308.820606 187.800114,306 191.279508,306 Z M191.279508,329.457447 L203.7,329.457447 C207.179394,329.457447 210,332.278053 210,335.757447 L210,341.7 C210,345.179394 207.179394,348 203.7,348 L191.279508,348 C187.800114,348 184.979508,345.179394 184.979508,341.7 L184.979508,335.757447 C184.979508,332.278053 187.800114,329.457447 191.279508,329.457447 Z" opacity=".2"/></g></svg>