<svg xmlns="http://www.w3.org/2000/svg" xmlns:xlink="http://www.w3.org/1999/xlink" width="365" height="365" viewBox="0 0 365 365"><defs><linearGradient id="b" x1="50%" x2="50%" y1="0%" y2="100%"><stop offset="0%" stop-color="#D8D8D8"/><stop offset="81.272%" stop-color="silver"/><stop offset="100%" stop-color="#767777"/></linearGradient><rect id="a" width="238" height="182" x="66" y="91" rx="32"/><path id="c" d="M76,181 C81.5228475,181 86,176.522847 86,171 L86,125 C86,117.268014 92.2680135,111 100,111 L147,111 C152.522847,111 157,106.522847 157,101 C157,95.4771525 152.522847,91 147,91 L98,91 C80.326888,91 66,105.326888 66,123 L66,171 C66,176.522847 70.4771525,181 76,181 Z M294,183 C288.477153,183 284,187.477153 284,193 L284,239 C284,246.731986 277.731986,253 270,253 L223,253 C217.477153,253 213,257.477153 213,263 C213,268.522847 217.477153,273 223,273 L272,273 C289.673112,273 304,258.673112 304,241 L304,193 C304,187.477153 299.522847,183 294,183 Z"/></defs><g fill="none" fill-rule="evenodd"><rect width="365" height="365"/><use xlink:href="#a" fill="url(#b)" opacity=".2"/><use xlink:href="#c" fill="url(#b)" opacity=".6"/></g></svg>