<svg xmlns="http://www.w3.org/2000/svg" xmlns:xlink="http://www.w3.org/1999/xlink" width="365" height="365" viewBox="0 0 365 365"><defs><linearGradient id="b" x1="50%" x2="50%" y1="0%" y2="100%"><stop offset="0%" stop-color="#D8D8D8"/><stop offset="81.272%" stop-color="silver"/><stop offset="100%" stop-color="#767777"/></linearGradient><linearGradient id="d" x1="50%" x2="50%" y1="0%" y2="100%"><stop offset="0%" stop-color="#D8D8D8"/><stop offset="81.272%" stop-color="silver"/><stop offset="100%" stop-color="#767777"/></linearGradient><linearGradient id="f" x1="50%" x2="50%" y1="0%" y2="100%"><stop offset="0%" stop-color="#D8D8D8"/><stop offset="81.272%" stop-color="silver"/><stop offset="100%" stop-color="#767777"/></linearGradient><path id="a" d="M264,164 L277.163889,191.524495 C282.142907,201.93517 278.231516,214.42372 268.203386,220.134183 L214,251 L264,164 Z"/><path id="c" d="M213.808657,112.628222 L239.538284,127.483229 C249.952243,133.495731 253.590905,146.736712 247.77565,157.209428 L247.518414,157.660295 L214,214 L213.808657,112.628222 Z"/><path id="e" d="M174,92 C186.150264,92 196,101.849736 196,114 L196,230 C196,259.823376 171.823376,284 142,284 C112.176624,284 88,259.823376 88,230 L88,114 C88,101.849736 97.8497355,92 110,92 L174,92 Z M142,206 C128.745166,206 118,216.745166 118,230 C118,243.254834 128.745166,254 142,254 C155.254834,254 166,243.254834 166,230 C166,216.745166 155.254834,206 142,206 Z"/></defs><g fill="none" fill-rule="evenodd"><rect width="365" height="365"/><use xlink:href="#a" fill="url(#b)" opacity=".4"/><use xlink:href="#c" fill="url(#d)" opacity=".6"/><use xlink:href="#e" fill="url(#f)"/><path fill="#ECECEC" d="M161.3,306 L173.720492,306 C177.199886,306 180.020492,308.820606 180.020492,312.3 L180.020492,318.242553 C180.020492,321.721947 177.199886,324.542553 173.720492,324.542553 L161.3,324.542553 C157.820606,324.542553 155,321.721947 155,318.242553 L155,312.3 C155,308.820606 157.820606,306 161.3,306 Z M161.3,329.457447 L173.720492,329.457447 C177.199886,329.457447 180.020492,332.278053 180.020492,335.757447 L180.020492,341.7 C180.020492,345.179394 177.199886,348 173.720492,348 L161.3,348 C157.820606,348 155,345.179394 155,341.7 L155,335.757447 C155,332.278053 157.820606,329.457447 161.3,329.457447 Z M191.279508,306 L203.7,306 C207.179394,306 210,308.820606 210,312.3 L210,318.242553 C210,321.721947 207.179394,324.542553 203.7,324.542553 L191.279508,324.542553 C187.800114,324.542553 184.979508,321.721947 184.979508,318.242553 L184.979508,312.3 C184.979508,308.820606 187.800114,306 191.279508,306 Z M191.279508,329.457447 L203.7,329.457447 C207.179394,329.457447 210,332.278053 210,335.757447 L210,341.7 C210,345.179394 207.179394,348 203.7,348 L191.279508,348 C187.800114,348 184.979508,345.179394 184.979508,341.7 L184.979508,335.757447 C184.979508,332.278053 187.800114,329.457447 191.279508,329.457447 Z" opacity=".2"/></g></svg>