<svg xmlns="http://www.w3.org/2000/svg" xmlns:xlink="http://www.w3.org/1999/xlink" width="365" height="365" viewBox="0 0 365 365"><defs><linearGradient id="b" x1="50%" x2="50%" y1="0%" y2="100%"><stop offset="0%" stop-color="#D8D8D8"/><stop offset="81.272%" stop-color="silver"/><stop offset="100%" stop-color="#767777"/></linearGradient><linearGradient id="d" x1="50%" x2="50%" y1="0%" y2="100%"><stop offset="0%" stop-color="#D8D8D8"/><stop offset="81.272%" stop-color="silver"/><stop offset="100%" stop-color="#767777"/></linearGradient><path id="a" d="M160.344444,105.853351 L174.418978,105.853351 C178.394587,105.853351 181.766994,108.772788 182.336477,112.707398 L190.52971,169.315194 C190.687934,170.408372 191.702395,171.166303 192.795574,171.00808 C193.653826,170.883859 194.334241,170.220693 194.480453,169.365913 L204.206744,112.504521 C204.863931,108.662504 208.194397,105.853351 212.092215,105.853351 L213.325946,105.853351 C216.890263,105.853351 220.024646,108.211386 221.012535,111.636066 L232.284826,150.713343 C232.590969,151.77464 233.699498,152.386813 234.760795,152.080669 C235.445811,151.883069 235.973843,151.335753 236.146758,150.644093 L245.829515,111.913066 C246.719849,108.35173 249.919714,105.853351 253.590655,105.853351 L268.344444,105.853351 C274.971861,105.853351 280.344444,111.225934 280.344444,117.853351 L280.344444,199.853351 C280.344444,200.957921 279.449013,201.853351 278.344444,201.853351 L150.344444,201.853351 C149.239874,201.853351 148.344444,200.957921 148.344444,199.853351 L148.344444,117.853351 C148.344444,111.225934 153.717027,105.853351 160.344444,105.853351 Z"/><path id="c" d="M108.278427,194.865545 C100.467941,187.055059 100.467941,174.391759 108.278427,166.581273 L120.607622,154.252078 C121.238021,153.62168 121.532256,153.458719 121.885974,153.351509 C122.239692,153.244298 122.601432,153.244298 122.95515,153.351509 C123.281659,153.450472 123.557485,153.596939 124.093813,154.114712 L213.945717,243.964292 C214.576116,244.594691 214.739076,244.888927 214.846287,245.242645 C214.953497,245.596363 214.953497,245.958103 214.846287,246.311821 C214.747323,246.63833 214.600857,246.914156 214.083083,247.450484 L201.616522,259.919369 C193.806036,267.729854 181.142736,267.729854 173.33225,259.919369 L162.018542,248.60566 C156.971365,249.982163 152.51134,252.968312 149.315913,257.110533 L128.766598,283.748534 C120.947922,293.883854 108.165026,298.863839 95.5505046,296.688921 C83.2568936,294.569333 73.6284621,284.940902 71.508874,272.647291 C69.3339565,260.032769 74.3139408,247.249873 84.4492615,239.431197 L111.087262,218.881883 C115.229483,215.686455 118.215632,211.22643 119.592135,206.179253 L108.278427,194.865545 Z"/></defs><g fill="none" fill-rule="evenodd"><rect width="365" height="365"/><use xlink:href="#a" fill="url(#b)" transform="rotate(45 214.344 153.853)"/><use xlink:href="#c" fill="url(#d)" opacity=".5"/><path fill="#ECECEC" d="M161.3,306 L173.720492,306 C177.199886,306 180.020492,308.820606 180.020492,312.3 L180.020492,318.242553 C180.020492,321.721947 177.199886,324.542553 173.720492,324.542553 L161.3,324.542553 C157.820606,324.542553 155,321.721947 155,318.242553 L155,312.3 C155,308.820606 157.820606,306 161.3,306 Z M161.3,329.457447 L173.720492,329.457447 C177.199886,329.457447 180.020492,332.278053 180.020492,335.757447 L180.020492,341.7 C180.020492,345.179394 177.199886,348 173.720492,348 L161.3,348 C157.820606,348 155,345.179394 155,341.7 L155,335.757447 C155,332.278053 157.820606,329.457447 161.3,329.457447 Z M191.279508,306 L203.7,306 C207.179394,306 210,308.820606 210,312.3 L210,318.242553 C210,321.721947 207.179394,324.542553 203.7,324.542553 L191.279508,324.542553 C187.800114,324.542553 184.979508,321.721947 184.979508,318.242553 L184.979508,312.3 C184.979508,308.820606 187.800114,306 191.279508,306 Z M191.279508,329.457447 L203.7,329.457447 C207.179394,329.457447 210,332.278053 210,335.757447 L210,341.7 C210,345.179394 207.179394,348 203.7,348 L191.279508,348 C187.800114,348 184.979508,345.179394 184.979508,341.7 L184.979508,335.757447 C184.979508,332.278053 187.800114,329.457447 191.279508,329.457447 Z" opacity=".2"/></g></svg>