<svg xmlns="http://www.w3.org/2000/svg" xmlns:xlink="http://www.w3.org/1999/xlink" width="365" height="365" viewBox="0 0 365 365"><defs><linearGradient id="c" x1="50%" x2="50%" y1="0%" y2="100%"><stop offset="0%" stop-color="#D8D8D8"/><stop offset="81.272%" stop-color="silver"/><stop offset="100%" stop-color="#767777"/></linearGradient><filter id="b" width="108%" height="107.2%" x="-4%" y="-3.6%" filterUnits="objectBoundingBox"><feOffset in="SourceAlpha" result="shadowOffsetOuter1"/><feGaussianBlur in="shadowOffsetOuter1" result="shadowBlurOuter1" stdDeviation="2"/><feColorMatrix in="shadowBlurOuter1" values="0 0 0 0 0.552677763 0 0 0 0 0.552677763 0 0 0 0 0.552677763 0 0 0 0.5 0"/></filter><path id="a" d="M11.8359375,166.985352 C13.8085938,166.985352 15.6826172,166.640137 17.4580078,165.949707 C19.2333984,165.259277 21.1074219,164.322266 23.0800781,163.138672 L138.085938,96.6601563 C142.228516,94.2272135 145.105306,92.0737305 146.716309,90.199707 C148.327311,88.3256836 149.132812,86.0735677 149.132812,83.4433594 C149.132812,80.813151 148.327311,78.5610352 146.716309,76.6870117 C145.105306,74.8129883 142.228516,72.6923828 138.085938,70.3251953 L23.0800781,3.74804687 C21.1074219,2.63020833 19.2333984,1.72607422 17.4580078,1.03564453 C15.6826172,0.345214844 13.8085938,0 11.8359375,0 C8.21940104,0 5.34261068,1.28222656 3.20556641,3.84667969 C1.06852214,6.41113281 0,9.83040365 0,14.1044922 L0,152.782227 C0,157.056315 1.06852214,160.492025 3.20556641,163.089355 C5.34261068,165.686686 8.21940104,166.985352 11.8359375,166.985352 Z"/></defs><g fill="none" fill-rule="evenodd"><rect width="365" height="365"/><g fill-rule="nonzero" transform="translate(119.727 109.442)"><use xlink:href="#a" fill="#000" filter="url(#b)"/><use xlink:href="#a" fill="#2E2E2E"/><use xlink:href="#a" fill="url(#c)"/></g></g></svg>