<svg xmlns="http://www.w3.org/2000/svg" xmlns:xlink="http://www.w3.org/1999/xlink" width="365" height="365" viewBox="0 0 365 365"><defs><linearGradient id="c" x1="50%" x2="50%" y1="0%" y2="100%"><stop offset="0%" stop-color="#D8D8D8"/><stop offset="81.272%" stop-color="silver"/><stop offset="100%" stop-color="#767777"/></linearGradient><filter id="b" width="106.7%" height="105.3%" x="-3.4%" y="-2.7%" filterUnits="objectBoundingBox"><feOffset in="SourceAlpha" result="shadowOffsetOuter1"/><feGaussianBlur in="shadowOffsetOuter1" result="shadowBlurOuter1" stdDeviation="2"/><feColorMatrix in="shadowBlurOuter1" values="0 0 0 0 0.552677763 0 0 0 0 0.552677763 0 0 0 0 0.552677763 0 0 0 0.5 0"/></filter><path id="a" d="M32.3808441,225.725815 L145.928787,225.725815 C156.601679,225.725815 164.66671,223.010587 170.123878,217.580132 C175.581047,212.149676 178.309631,204.178141 178.309631,193.665527 L178.309631,96.6046753 C178.309631,86.0930888 175.581047,78.1220678 170.123878,72.6916122 C164.66671,67.2611567 156.601679,64.545929 145.928787,64.545929 L119.188507,64.545929 L119.188507,83.9349823 L144.711288,83.9349823 C149.239151,83.9349823 152.739588,85.1324463 155.212601,87.5273743 C157.685613,89.9223022 158.922119,93.5152079 158.922119,98.3060913 L158.922119,191.964111 C158.922119,196.743693 157.685613,200.33403 155.212601,202.735123 C152.739588,205.136215 149.239151,206.336761 144.711288,206.336761 L33.5182037,206.336761 C28.9369151,206.336761 25.4364777,205.136215 23.0168915,202.735123 C20.5973053,200.33403 19.3875122,196.743693 19.3875122,191.964111 L19.3875122,98.3060913 C19.3875122,93.5152079 20.5973053,89.9223022 23.0168915,87.5273743 C25.4364777,85.1324463 28.9369151,83.9349823 33.5182037,83.9349823 L59.3029785,83.9349823 L59.3029785,64.545929 L32.3808441,64.545929 C21.720281,64.545929 13.6583328,67.2478002 8.19499969,72.6515427 C2.73166656,78.0552851 0,86.0396627 0,96.6046753 L0,193.665527 C0,204.231567 2.73166656,212.216459 8.19499969,217.620201 C13.6583328,223.023944 21.720281,225.725815 32.3808441,225.725815 Z M89.1147461,147.103134 C91.6709798,147.103134 93.842186,146.214411 95.6283646,144.436966 C97.4145432,142.65952 98.3076324,140.544052 98.3076324,138.090561 L98.3076324,38.7287903 L97.5709686,24.0602417 L103.636887,31.2989655 L117.508667,46.0661469 C119.117615,47.8610586 121.151917,48.7585144 123.611572,48.7585144 C125.84314,48.7585144 127.763911,48.0164566 129.373886,46.532341 C130.983861,45.0482254 131.788849,43.1482595 131.788849,40.8324432 C131.788849,38.7262217 130.915024,36.7936351 129.167374,35.0346832 L96.0467834,3.15162659 C94.8796285,1.98447164 93.7407277,1.1674118 92.6300812,0.700447083 C91.5194346,0.233482361 90.3476562,0 89.1147461,0 C87.935262,0 86.793279,0.233482361 85.688797,0.700447083 C84.584315,1.1674118 83.4156189,1.98447164 82.1827087,3.15162659 L49.0621185,35.0346832 C47.3689219,36.7936351 46.5223236,38.7262217 46.5223236,40.8324432 C46.5223236,43.1482595 47.3003413,45.0482254 48.8563766,46.532341 C50.412412,48.0164566 52.3329264,48.7585144 54.6179199,48.7585144 C57.1310018,48.7585144 59.1925303,47.8610586 60.8025055,46.0661469 L74.5926056,31.2989655 L80.7386627,24.0602417 L80.0019989,38.7287903 L80.0019989,138.090561 C80.0019989,140.544052 80.8984273,142.65952 82.6912842,144.436966 C84.484141,146.214411 86.625295,147.103134 89.1147461,147.103134 Z"/></defs><g fill="none" fill-rule="evenodd"><rect width="365" height="365"/><g fill-rule="nonzero" transform="translate(93.845 61.752)"><use xlink:href="#a" fill="#000" filter="url(#b)"/><use xlink:href="#a" fill="#2E2E2E"/><use xlink:href="#a" fill="url(#c)"/></g></g></svg>