<svg xmlns="http://www.w3.org/2000/svg" xmlns:xlink="http://www.w3.org/1999/xlink" width="365" height="365" viewBox="0 0 365 365"><defs><linearGradient id="c" x1="50%" x2="50%" y1="0%" y2="100%"><stop offset="0%" stop-color="#D8D8D8"/><stop offset="81.272%" stop-color="silver"/><stop offset="100%" stop-color="#767777"/></linearGradient><filter id="b" width="107.7%" height="105.9%" x="-3.8%" y="-2.9%" filterUnits="objectBoundingBox"><feOffset in="SourceAlpha" result="shadowOffsetOuter1"/><feGaussianBlur in="shadowOffsetOuter1" result="shadowBlurOuter1" stdDeviation="2"/><feColorMatrix in="shadowBlurOuter1" values="0 0 0 0 0.552677763 0 0 0 0 0.552677763 0 0 0 0 0.552677763 0 0 0 0.5 0"/></filter><path id="a" d="M78.2728424,204.675415 C81.4034068,204.675415 84.015892,203.640284 86.1102982,201.570023 C88.2047043,199.499761 90.6928711,196.512522 93.5747986,192.608307 L152.007034,114.648315 C153.526596,112.554423 154.679624,110.502398 155.466118,108.492241 C156.252612,106.482084 156.645859,104.430573 156.645859,102.337708 C156.645859,100.244843 156.252612,98.1799749 155.466118,96.1431046 C154.679624,94.1062342 153.526596,92.0675659 152.007034,90.0270996 L93.5747986,11.986969 C90.6928711,8.1238505 88.2047043,5.16024272 86.1102982,3.09614563 C84.015892,1.03204854 81.4034068,0 78.2728424,0 C75.1556346,0 72.5631841,1.03204854 70.495491,3.09614563 C68.427798,5.16024272 65.9468231,8.1238505 63.0525665,11.986969 L4.63882446,90.0270996 C3.06480916,92.0675659 1.89816793,94.1062342 1.13890076,96.1431046 C0.379633586,98.1799749 0,100.244843 0,102.337708 C0,104.430573 0.379633586,106.482084 1.13890076,108.492241 C1.89816793,110.502398 3.06480916,112.554423 4.63882446,114.648315 L63.0525665,192.608307 C65.9468231,196.512522 68.427798,199.499761 70.495491,201.570023 C72.5631841,203.640284 75.1556346,204.675415 78.2728424,204.675415 Z"/></defs><g fill="none" fill-rule="evenodd"><rect width="365" height="365"/><g fill-rule="nonzero" transform="translate(104.677 80.45)"><use xlink:href="#a" fill="#000" filter="url(#b)"/><use xlink:href="#a" fill="#2E2E2E"/><use xlink:href="#a" fill="url(#c)"/></g><path fill="#ECECEC" d="M162.3,306 L174.720492,306 C178.199886,306 181.020492,308.820606 181.020492,312.3 L181.020492,318.242553 C181.020492,321.721947 178.199886,324.542553 174.720492,324.542553 L162.3,324.542553 C158.820606,324.542553 156,321.721947 156,318.242553 L156,312.3 C156,308.820606 158.820606,306 162.3,306 Z M162.3,329.457447 L174.720492,329.457447 C178.199886,329.457447 181.020492,332.278053 181.020492,335.757447 L181.020492,341.7 C181.020492,345.179394 178.199886,348 174.720492,348 L162.3,348 C158.820606,348 156,345.179394 156,341.7 L156,335.757447 C156,332.278053 158.820606,329.457447 162.3,329.457447 Z M192.279508,306 L204.7,306 C208.179394,306 211,308.820606 211,312.3 L211,318.242553 C211,321.721947 208.179394,324.542553 204.7,324.542553 L192.279508,324.542553 C188.800114,324.542553 185.979508,321.721947 185.979508,318.242553 L185.979508,312.3 C185.979508,308.820606 188.800114,306 192.279508,306 Z M192.279508,329.457447 L204.7,329.457447 C208.179394,329.457447 211,332.278053 211,335.757447 L211,341.7 C211,345.179394 208.179394,348 204.7,348 L192.279508,348 C188.800114,348 185.979508,345.179394 185.979508,341.7 L185.979508,335.757447 C185.979508,332.278053 188.800114,329.457447 192.279508,329.457447 Z" opacity=".2"/></g></svg>