<svg xmlns="http://www.w3.org/2000/svg" xmlns:xlink="http://www.w3.org/1999/xlink" width="365" height="365" viewBox="0 0 365 365"><defs><linearGradient id="c" x1="50%" x2="50%" y1="0%" y2="100%"><stop offset="0%" stop-color="#D8D8D8"/><stop offset="81.272%" stop-color="silver"/><stop offset="100%" stop-color="#767777"/></linearGradient><filter id="b" width="105.3%" height="108.2%" x="-2.7%" y="-4.1%" filterUnits="objectBoundingBox"><feOffset in="SourceAlpha" result="shadowOffsetOuter1"/><feGaussianBlur in="shadowOffsetOuter1" result="shadowBlurOuter1" stdDeviation="2"/><feColorMatrix in="shadowBlurOuter1" values="0 0 0 0 0.552677763 0 0 0 0 0.552677763 0 0 0 0 0.552677763 0 0 0 0.5 0"/></filter><path id="a" d="M174.086914,146.371094 C179.150065,146.371094 184.015951,145.499837 188.68457,143.757324 C193.35319,142.014811 197.495768,139.56543 201.112305,136.40918 C204.728841,133.25293 207.556315,129.53776 209.594727,125.263672 L209.989258,125.263672 L209.989258,138.283203 C209.989258,140.781901 210.745443,142.770996 212.257812,144.250488 C213.770182,145.72998 215.677083,146.469727 217.978516,146.469727 C220.345703,146.469727 222.285482,145.713542 223.797852,144.201172 C225.310221,142.688802 226.066406,140.584635 226.066406,137.888672 L226.066406,72.1005859 C226.066406,64.9332682 224.406087,58.7029622 221.085449,53.409668 C217.764811,48.1163737 213.046875,44.0066732 206.931641,41.0805664 C200.816406,38.1544596 193.583333,36.6914062 185.232422,36.6914062 C175.960937,36.6914062 167.741536,38.5818685 160.574219,42.362793 C153.406901,46.1437174 148.409505,51.2233073 145.582031,57.6015625 C144.990234,58.7851562 144.529948,59.96875 144.201172,61.1523437 C143.872396,62.3359375 143.708008,63.453776 143.708008,64.5058594 C143.708008,66.6757812 144.414876,68.4182943 145.828613,69.7333984 C147.24235,71.0485026 149.03418,71.7060547 151.204102,71.7060547 C152.716471,71.7060547 154.064453,71.3937174 155.248047,70.769043 C156.431641,70.1443685 157.385091,69.1416016 158.108398,67.7607422 C160.870117,62.0400391 164.40446,57.8152669 168.711426,55.0864258 C173.018392,52.3575846 178.39388,50.9931641 184.837891,50.9931641 C192.53125,50.9931641 198.547852,52.9986979 202.887695,57.0097656 C207.227539,61.0208333 209.397461,66.4785156 209.397461,73.3828125 L209.397461,81.8652344 L177.539062,83.640625 C165.045573,84.2981771 155.445313,87.3722331 148.738281,92.862793 C142.03125,98.3533529 138.677734,105.701497 138.677734,114.907227 C138.677734,121.219727 140.173665,126.726725 143.165527,131.428223 C146.157389,136.12972 150.316406,139.795573 155.642578,142.425781 C160.96875,145.05599 167.116862,146.371094 174.086914,146.371094 Z M178.130859,132.661133 C171.423828,132.661133 166.015462,130.984375 161.905762,127.630859 C157.796061,124.277344 155.741211,119.904622 155.741211,114.512695 C155.741211,109.252279 157.779622,104.994629 161.856445,101.739746 C165.933268,98.4848633 171.851237,96.594401 179.610352,96.0683594 L209.397461,94.1943359 L209.397461,104.649414 C209.397461,109.909831 208.000163,114.644206 205.205566,118.852539 C202.41097,123.060872 198.646484,126.414388 193.912109,128.913086 C189.177734,131.411784 183.917318,132.661133 178.130859,132.661133 Z M8.28515625,145.680664 C10.9153646,145.680664 12.953776,145.121745 14.4003906,144.003906 C15.8470052,142.886068 17.030599,140.946289 17.9511719,138.18457 L30.6748047,103.367187 L88.8681641,103.367187 L101.591797,138.18457 C102.51237,140.946289 103.695964,142.886068 105.142578,144.003906 C106.589193,145.121745 108.594727,145.680664 111.15918,145.680664 C113.789388,145.680664 115.877116,144.957357 117.422363,143.510742 C118.967611,142.064128 119.740234,140.091471 119.740234,137.592773 C119.740234,136.080404 119.378581,134.305013 118.655273,132.266602 L72.3964844,9.07421875 C71.2128906,6.04947917 69.601888,3.78092448 67.5634766,2.26855469 C65.5250651,0.756184896 62.9277344,0 59.7714844,0 C53.65625,0 49.5136719,2.99186198 47.34375,8.97558594 L1.08496094,132.365234 C0.361653646,134.403646 0,136.179036 0,137.691406 C0,140.190104 0.739746094,142.146322 2.21923828,143.560059 C3.69873047,144.973796 5.72070312,145.680664 8.28515625,145.680664 Z M35.5078125,88.375 L59.4755859,21.9951172 L59.96875,21.9951172 L83.9365234,88.375 L35.5078125,88.375 Z"/></defs><g fill="none" fill-rule="evenodd"><rect width="365" height="365"/><g fill-rule="nonzero" transform="translate(69.967 109.897)"><use xlink:href="#a" fill="#000" filter="url(#b)"/><use xlink:href="#a" fill="#2E2E2E"/><use xlink:href="#a" fill="url(#c)"/></g><path fill="#ECECEC" d="M161.3,306 L173.720492,306 C177.199886,306 180.020492,308.820606 180.020492,312.3 L180.020492,318.242553 C180.020492,321.721947 177.199886,324.542553 173.720492,324.542553 L161.3,324.542553 C157.820606,324.542553 155,321.721947 155,318.242553 L155,312.3 C155,308.820606 157.820606,306 161.3,306 Z M161.3,329.457447 L173.720492,329.457447 C177.199886,329.457447 180.020492,332.278053 180.020492,335.757447 L180.020492,341.7 C180.020492,345.179394 177.199886,348 173.720492,348 L161.3,348 C157.820606,348 155,345.179394 155,341.7 L155,335.757447 C155,332.278053 157.820606,329.457447 161.3,329.457447 Z M191.279508,306 L203.7,306 C207.179394,306 210,308.820606 210,312.3 L210,318.242553 C210,321.721947 207.179394,324.542553 203.7,324.542553 L191.279508,324.542553 C187.800114,324.542553 184.979508,321.721947 184.979508,318.242553 L184.979508,312.3 C184.979508,308.820606 187.800114,306 191.279508,306 Z M191.279508,329.457447 L203.7,329.457447 C207.179394,329.457447 210,332.278053 210,335.757447 L210,341.7 C210,345.179394 207.179394,348 203.7,348 L191.279508,348 C187.800114,348 184.979508,345.179394 184.979508,341.7 L184.979508,335.757447 C184.979508,332.278053 187.800114,329.457447 191.279508,329.457447 Z" opacity=".2"/></g></svg>