<svg xmlns="http://www.w3.org/2000/svg" xmlns:xlink="http://www.w3.org/1999/xlink" width="365" height="365" viewBox="0 0 365 365"><defs><linearGradient id="c" x1="50%" x2="50%" y1="0%" y2="100%"><stop offset="0%" stop-color="#D8D8D8"/><stop offset="81.272%" stop-color="silver"/><stop offset="100%" stop-color="#767777"/></linearGradient><filter id="b" width="105.9%" height="105.4%" x="-2.9%" y="-2.7%" filterUnits="objectBoundingBox"><feOffset in="SourceAlpha" result="shadowOffsetOuter1"/><feGaussianBlur in="shadowOffsetOuter1" result="shadowBlurOuter1" stdDeviation="2"/><feColorMatrix in="shadowBlurOuter1" values="0 0 0 0 0.552677763 0 0 0 0 0.552677763 0 0 0 0 0.552677763 0 0 0 0.5 0"/></filter><path id="a" d="M102.086502,0 C104.179367,0 106.288928,0.370900472 108.415184,1.11270142 C110.54144,1.85450236 112.896556,2.97593689 115.48053,4.477005 L192.105896,48.9126282 C196.31012,51.3887227 199.37236,53.7620748 201.292618,56.0326843 C203.212875,58.3032939 204.173004,61.0038808 204.173004,64.1344452 C204.173004,67.3174082 203.212875,70.0472768 201.292618,72.3240509 C199.37236,74.600825 196.31012,76.9710948 192.105896,79.4348602 L176.335,88.579 L192.105896,97.7481995 C196.31012,100.211965 199.37236,102.595591 201.292618,104.899078 C203.212875,107.202566 204.173004,109.919078 204.173004,113.048615 C204.173004,116.16685 203.212875,118.877968 201.292618,121.181969 C199.37236,123.48597 196.31012,125.84879 192.105896,128.270432 L178.763,136.021 L192.105896,143.814346 C196.141951,146.179561 199.125554,148.45861 201.056705,150.651494 L201.292618,150.925156 C203.212875,153.20193 204.173004,155.905085 204.173004,159.034622 C204.173004,162.206284 203.212875,164.930501 201.292618,167.207275 C199.37236,169.484049 196.31012,171.860484 192.105896,174.336578 L115.48053,218.772202 C112.896556,220.27327 110.54144,221.394961 108.415184,222.137276 C106.288928,222.87959 104.179367,223.250748 102.086502,223.250748 C99.940211,223.250748 97.8172938,222.87959 95.7177505,222.137276 C93.6182073,221.394961 91.2764486,220.27327 88.6924744,218.772202 L11.986969,174.336578 C7.83719889,171.860484 4.8019282,169.484049 2.88115692,167.207275 C0.96038564,164.930501 0,162.206284 0,159.034622 C0,155.905085 0.96038564,153.20193 2.88115692,150.925156 C4.8019282,148.648382 7.83719889,146.278112 11.986969,143.814346 L25.385,136.046 L11.986969,128.270432 C8.01010598,125.949692 5.05680232,123.682973 3.12705802,121.470275 L2.88115692,121.181969 C0.96038564,118.877968 0,116.16685 0,113.048615 C0,109.919078 0.96038564,107.202566 2.88115692,104.899078 C4.8019282,102.595591 7.83719889,100.211965 11.986969,97.7481995 L27.832,88.614 L11.986969,79.4348602 C7.83719889,76.9710948 4.8019282,74.600825 2.88115692,72.3240509 C0.96038564,70.0472768 0,67.3174082 0,64.1344452 C0,61.0038808 0.96038564,58.3032939 2.88115692,56.0326843 C4.8019282,53.7620748 7.83719889,51.3887227 11.986969,48.9126282 L88.6924744,4.477005 C91.2764486,2.97593689 93.6182073,1.85450236 95.7177505,1.11270142 C97.8172938,0.370900472 99.940211,0 102.086502,0 Z M159.47,147.23 L115.48053,172.786194 C112.896556,174.288289 110.54144,175.410238 108.415184,176.152039 C106.288928,176.89384 104.179367,177.26474 102.086502,177.26474 C99.940211,177.26474 97.8172938,176.89384 95.7177505,176.152039 C93.6182073,175.410238 91.2764486,174.288289 88.6924744,172.786194 L44.669,147.238 L25.4642181,158.146927 C25.0760798,158.370677 24.8604473,158.629335 24.8173208,158.922899 L24.8092346,159.034622 C24.8092346,159.417852 25.0275625,159.734812 25.4642181,159.985504 L98.0101929,201.380463 C99.545166,202.228088 100.903936,202.651901 102.086502,202.651901 C103.215642,202.651901 104.547699,202.228088 106.082672,201.380463 L178.628647,159.985504 C179.118729,159.734812 179.36377,159.417852 179.36377,159.034622 C179.36377,158.694544 179.118729,158.398646 178.628647,158.146927 L159.47,147.23 Z M47.062,99.754 L25.4642181,112.08078 C25.0275625,112.331472 24.8092346,112.654083 24.8092346,113.048615 C24.8092346,113.431844 25.0275625,113.748805 25.4642181,113.999496 L98.0101929,155.312775 C99.545166,156.161428 100.903936,156.585754 102.086502,156.585754 C103.215642,156.585754 104.547699,156.161428 106.082672,155.312775 L178.628647,113.999496 C179.118729,113.748805 179.36377,113.431844 179.36377,113.048615 C179.36377,112.654083 179.118729,112.331472 178.628647,112.08078 L157.014,99.784 L115.48053,123.870483 C112.896556,125.372579 110.54144,126.494527 108.415184,127.236328 C106.288928,127.978129 104.179367,128.34903 102.086502,128.34903 C99.940211,128.34903 97.8172938,127.978129 95.7177505,127.236328 C93.6182073,126.494527 91.2764486,125.372579 88.6924744,123.870483 L47.062,99.754 Z M102.086719,26.7523193 C99.2263672,26.7523193 96.7687663,27.6836802 94.7139161,29.546402 C92.6590658,31.4091237 91.6316407,33.8333333 91.6316407,36.8190308 L91.6316407,55.9676666 L92.5686524,69.8748932 L86.453418,63.4206085 L81.225879,58.3595123 C80.4039388,57.3834585 79.3847331,56.5805257 78.1682618,55.9507141 C76.9517904,55.3209025 75.7188803,55.0059967 74.4695313,55.0059967 C71.839323,55.0059967 69.6529623,55.8641535 67.9104493,57.5804672 C66.1679362,59.2967809 65.2966797,61.430486 65.2966797,63.9815826 C65.2966797,65.4610748 65.5514812,66.7638499 66.061084,67.8899078 C66.5706869,69.0159658 67.4008464,70.1034953 68.5515625,71.1524963 L93.7522461,93.7101288 C95.0673503,94.9492035 96.3742351,95.8941778 97.6729004,96.5450516 C98.9715658,97.1959254 100.442839,97.5213623 102.086719,97.5213623 C103.730599,97.5213623 105.210091,97.1959254 106.525195,96.5450516 C107.8403,95.8941778 109.138965,94.9492035 110.421191,93.7101288 L135.621875,71.1524963 C136.772591,70.1034953 137.602751,69.0159658 138.112354,67.8899078 C138.621956,66.7638499 138.876758,65.4610748 138.876758,63.9815826 C138.876758,61.430486 138.005501,59.2967809 136.262988,57.5804672 C134.520475,55.8641535 132.350553,55.0059967 129.753223,55.0059967 C128.470996,55.0059967 127.205208,55.3209025 125.955859,55.9507141 C124.70651,56.5805257 123.703744,57.3834585 122.947559,58.3595123 L117.769336,63.4206085 L111.604785,69.8748932 L112.541797,55.9676666 L112.541797,36.8190308 C112.541797,33.8333333 111.522591,31.4091237 109.48418,29.546402 C107.445768,27.6836802 104.979948,26.7523193 102.086719,26.7523193 Z"/></defs><g fill="none" fill-rule="evenodd"><rect width="365" height="365"/><g fill-rule="nonzero" transform="translate(80.913 73.006)"><use xlink:href="#a" fill="#000" filter="url(#b)"/><use xlink:href="#a" fill="#2E2E2E"/><use xlink:href="#a" fill="url(#c)"/></g></g></svg>