<svg xmlns="http://www.w3.org/2000/svg" width="365" height="365" viewBox="0 0 365 365"><g fill="none" fill-rule="evenodd"><rect width="365" height="365"/><path fill="#D8D8D8" d="M205,145 C216.045695,145 225,153.954305 225,165 L225,220 L160,220 C148.954305,220 140,211.045695 140,200 L140,145 L205,145 Z"/><path fill="#D8D8D8" d="M276 70C286.49341 70 295 78.5065898 295 89L295 201C295 211.49341 286.49341 220 276 220L245 220 245 165C245 143.129524 227.447771 125.35859 205.661473 125.005359L205 125 140 125 140 89C140 78.5065898 148.50659 70 159 70L276 70ZM120 145 120 200C120 222.09139 137.90861 240 160 240L225 240 225 275C225 286.045695 216.045695 295 205 295L90 295C78.954305 295 70 286.045695 70 275L70 165C70 153.954305 78.954305 145 90 145L120 145Z" opacity=".5"/></g></svg>