<svg xmlns="http://www.w3.org/2000/svg" xmlns:xlink="http://www.w3.org/1999/xlink" width="365" height="365" viewBox="0 0 365 365"><defs><linearGradient id="c" x1="50%" x2="50%" y1="0%" y2="100%"><stop offset="0%" stop-color="#D8D8D8"/><stop offset="81.272%" stop-color="silver"/><stop offset="100%" stop-color="#767777"/></linearGradient><filter id="b" width="105%" height="105.3%" x="-2.5%" y="-2.7%" filterUnits="objectBoundingBox"><feOffset in="SourceAlpha" result="shadowOffsetOuter1"/><feGaussianBlur in="shadowOffsetOuter1" result="shadowBlurOuter1" stdDeviation="2"/><feColorMatrix in="shadowBlurOuter1" values="0 0 0 0 0.552677763 0 0 0 0 0.552677763 0 0 0 0 0.552677763 0 0 0 0.5 0"/></filter><path id="a" d="M0,153.463409 C0,158.046753 1.12323252,162.223236 3.36969757,165.992859 C5.61616262,169.762482 8.61085002,172.760251 12.3537598,174.986168 C16.0966695,177.212084 20.2597961,178.325043 24.8431396,178.325043 C29.4901835,178.325043 33.742953,177.109599 37.6014481,174.678711 C41.4599431,172.247823 44.4274038,169.121368 46.50383,165.299347 L193.217056,208.218491 C194.701686,213.26623 197.612638,217.4422 201.949913,220.746399 C206.287188,224.050598 211.249395,225.702698 216.836533,225.702698 C221.354121,225.702698 225.484113,224.589739 229.226509,222.363823 C232.968905,220.137906 235.963593,217.140394 238.210571,213.371284 C240.45755,209.602175 241.581039,205.452662 241.581039,200.922745 C241.581039,195.909938 240.220215,191.391836 237.498566,187.368439 C234.776917,183.345042 231.292918,180.373215 227.04657,178.452957 L222.968719,81.815918 C227.423635,80.0436096 231.063802,77.1175028 233.889221,73.0375977 C236.71464,68.9576925 238.12735,64.3430125 238.12735,59.1935577 C238.12735,54.6759694 237.014392,50.5326207 234.788475,46.7635117 C232.562558,42.9944026 229.581228,39.999972 225.844482,37.78022 C222.107737,35.560468 217.974406,34.450592 213.444489,34.450592 C209.006012,34.450592 204.954875,35.5031891 201.291077,37.6083832 C197.627279,39.7135773 194.682165,42.4645081 192.455734,45.8611755 L113.640411,23.627182 C113.454447,19.2174733 112.225904,15.2315776 109.954781,11.6694946 C107.683657,8.1074117 104.720563,5.2719752 101.065498,3.16318512 C97.4104335,1.05439504 93.3929443,0 89.013031,0 C84.4296875,0 80.2534612,1.12348938 76.4843521,3.37046814 C72.715243,5.6174469 69.7205556,8.60905202 67.5002899,12.3452835 C65.2800242,16.081515 64.1698914,20.2413025 64.1698914,24.824646 C64.1698914,28.2161764 64.8379745,31.4263662 66.1741409,34.4552155 C67.5103073,37.4840647 69.3023936,40.1142731 71.5503998,42.3458405 L26.4890747,129.096481 C25.4914449,128.90538 24.4963837,128.828323 23.503891,128.865311 C19.1383616,129.057439 15.1866277,130.278534 11.6486893,132.528595 C8.11075083,134.778656 5.28481801,137.737127 3.17089081,141.404007 C1.0569636,145.070887 0,149.090688 0,153.463409 Z M43.0270233,136.771347 L87.9326935,49.3456879 C90.5700938,49.590215 93.1188787,49.3716304 95.5790482,48.6899338 C98.0392176,48.0082372 100.311368,46.9695104 102.3955,45.5737534 C104.479632,44.1779963 106.245519,42.478892 107.693161,40.4764404 L189.367294,63.5750122 C189.936488,67.9693095 191.681826,71.909228 194.60331,75.3947678 C197.524793,78.8803075 201.105113,81.2996368 205.344269,82.6527557 L208.742477,177.509781 C205.544103,178.539261 202.67322,180.207799 200.129829,182.515396 C197.586438,184.822993 195.668493,187.50971 194.375992,190.575546 L48.6244354,147.730377 C48.2114105,145.626211 47.5502625,143.67436 46.6409912,141.874825 C45.73172,140.075289 44.527064,138.37413 43.0270233,136.771347 Z"/></defs><g fill="none" fill-rule="evenodd"><rect width="365" height="365"/><g fill-rule="nonzero" transform="translate(53.21 66.115)"><use xlink:href="#a" fill="#000" filter="url(#b)"/><use xlink:href="#a" fill="#2E2E2E"/><use xlink:href="#a" fill="url(#c)"/></g></g></svg>