<svg xmlns="http://www.w3.org/2000/svg" xmlns:xlink="http://www.w3.org/1999/xlink" width="365" height="365" viewBox="0 0 365 365"><defs><linearGradient id="a" x1="50%" x2="50%" y1="0%" y2="100%"><stop offset="0%" stop-color="#D8D8D8"/><stop offset="81.272%" stop-color="silver"/><stop offset="100%" stop-color="#767777"/></linearGradient><linearGradient id="b" x1="50%" x2="50%" y1="0%" y2="100%"><stop offset="0%" stop-color="#D8D8D8"/><stop offset="81.272%" stop-color="silver"/><stop offset="100%" stop-color="#767777"/></linearGradient><linearGradient id="e" x1="50%" x2="50%" y1="0%" y2="100%"><stop offset="0%" stop-color="#D8D8D8"/><stop offset="81.272%" stop-color="silver"/><stop offset="100%" stop-color="#767777"/></linearGradient><filter id="d" width="112.6%" height="110.7%" x="-6.3%" y="-5.4%" filterUnits="objectBoundingBox"><feOffset in="SourceAlpha" result="shadowOffsetOuter1"/><feGaussianBlur in="shadowOffsetOuter1" result="shadowBlurOuter1" stdDeviation="2"/><feColorMatrix in="shadowBlurOuter1" values="0 0 0 0 0.552677763 0 0 0 0 0.552677763 0 0 0 0 0.552677763 0 0 0 0.5 0"/></filter><path id="c" d="M77.107362,0 C78.7781186,0 80.424591,0.0451609224 82.0467791,0.135482767 C83.6689673,0.225804612 85.2960123,0.402342764 86.9279141,0.665097221 C88.1324131,0.863987749 89.3611963,1.29187608 90.6142638,1.94876223 C91.8673313,2.60564837 92.9115542,3.54764135 93.7469325,4.77474116 C94.5823108,6.00184098 95,7.58156092 95,9.51390099 C95,12.059943 94.2277607,14.0750021 92.6832822,15.5590782 C91.1388037,17.0431543 89.1329243,17.7851924 86.6656442,17.7851924 C85.4417178,17.7851924 84.067229,17.738967 82.5421779,17.6465164 C81.0171268,17.5540658 79.2638037,17.5078404 77.2822086,17.5078404 C72.1339468,17.5078404 67.932771,18.1740021 64.678681,19.5063253 C61.424591,20.8386485 59.0301636,23.001507 57.4953988,25.9949007 C55.9606339,28.9882943 55.1932515,33.0121781 55.1932515,38.0665521 L55.2515337,70.8442584 L54.6687117,84.8313715 L63.2070552,75.5181857 L79.5260736,59.3533125 C80.2837423,58.5437612 81.1628323,57.8775996 82.1633436,57.3548277 C83.1638548,56.8320558 84.295501,56.5706698 85.5582822,56.5706698 C87.8312883,56.5706698 89.7351738,57.3677525 91.2699387,58.9619179 C92.8047035,60.5560832 93.5720859,62.6511243 93.5720859,65.247041 C93.5720859,66.3120481 93.3535276,67.3700605 92.916411,68.4210784 C92.4792945,69.4720962 91.8236196,70.4501267 90.9493865,71.3551698 L53.0368098,109.349647 C52.2597137,110.16893 51.3126278,110.815476 50.1955521,111.289286 C49.0784765,111.763095 47.9468303,112 46.8006135,112 C45.6543967,112 44.5276074,111.763095 43.4202454,111.289286 C42.3128834,110.815476 41.3609407,110.16893 40.5644172,109.349647 L2.62269939,71.3551698 C1.74846626,70.4501267 1.09279141,69.4720962 0.655674847,68.4210784 C0.218558282,67.3700605 0,66.3120481 0,65.247041 C0,62.6511243 0.767382413,60.5560832 2.30214724,58.9619179 C3.83691207,57.3677525 5.74079755,56.5706698 8.01380368,56.5706698 C9.27658487,56.5706698 10.4033742,56.8320558 11.3941718,57.3548277 C12.3849693,57.8775996 13.2689162,58.5437612 14.0460123,59.3533125 L30.3941718,75.5181857 L38.8742331,84.8049136 L38.3496933,70.8442584 L38.3496933,36.6743184 C38.3496933,23.9666126 41.6329243,14.6772998 48.1993865,8.80637988 C54.7658487,2.93545996 64.4018405,0 77.107362,0 Z"/></defs><g fill="none" fill-rule="evenodd"><rect width="365" height="365"/><path fill="url(#a)" fill-rule="nonzero" d="M48.5009642,153.241722 C48.5009642,139.844598 55.5860344,132.960746 68.6376353,132.960746 L89.8930369,132.960746 L89.8930369,116.49323 L68.264757,116.49323 C44.1193096,116.49323 32,128.494721 32,152.310983 L32,171.847939 L48.5009642,171.847939 L48.5009642,153.241722 Z M48.5009642,181.523057 L32,181.523057 L32,236.970459 L48.5009642,236.970459 L48.5009642,181.523057 Z M87.1895258,285.533246 L68.6376353,285.533246 C55.5860344,285.533246 48.5009642,278.648917 48.5009642,265.25227 L48.5009642,246.645767 L32,246.645767 L32,266.182533 C32,289.905816 44.1193096,302 68.264757,302 L87.1895258,302 L87.1895258,285.533246 Z M270.563855,266.182533 L270.563855,248.506484 L254.063082,248.506484 L254.063082,265.25227 C254.063082,278.648917 246.977821,285.533246 233.926124,285.533246 L215.281253,285.533246 L215.281253,302 L234.205831,302 C258.351278,302 270.563855,289.905816 270.563855,266.182533 Z M205.586034,285.533246 L156.08276,285.533246 L156.08276,302 L205.586034,302 L205.586034,285.533246 Z M146.387541,285.533246 L96.8850308,285.533246 L96.8850308,302 L146.387541,302 L146.387541,285.533246 Z" opacity=".5"/><path fill="url(#b)" fill-rule="nonzero" d="M126.157794,248.506484 L292.192899,248.506484 C316.244792,248.506484 328.550923,236.319227 328.550923,212.688732 L328.550923,98.817467 C328.550923,75.1872576 316.244792,63 292.192899,63 L126.157794,63 C102.012347,63 89.8930369,75.0942789 89.8930369,98.817467 L89.8930369,212.688732 C89.8930369,236.504994 102.012347,248.506484 126.157794,248.506484 Z M126.4375,232.039921 C113.479167,232.039921 106.394001,225.155116 106.394001,211.851352 L106.394001,99.7478254 C106.394001,86.3511781 113.479167,79.4667541 126.4375,79.4667541 L291.913192,79.4667541 C304.685182,79.4667541 311.956596,86.3511781 311.956596,99.7478254 L311.956596,211.851352 C311.956596,225.155116 304.685182,232.039921 291.913192,232.039921 L126.4375,232.039921 Z" opacity=".9"/><g fill-rule="nonzero" transform="translate(157 100)"><use xlink:href="#c" fill="#000" filter="url(#d)"/><use xlink:href="#c" fill="#2E2E2E"/><use xlink:href="#c" fill="url(#e)"/></g></g></svg>