<svg xmlns="http://www.w3.org/2000/svg" xmlns:xlink="http://www.w3.org/1999/xlink" width="365" height="365" viewBox="0 0 365 365"><defs><linearGradient id="c" x1="50%" x2="50%" y1="0%" y2="100%"><stop offset="0%" stop-color="#D8D8D8"/><stop offset="81.272%" stop-color="silver"/><stop offset="100%" stop-color="#767777"/></linearGradient><linearGradient id="f" x1="50%" x2="50%" y1="0%" y2="100%"><stop offset="0%" stop-color="#D8D8D8"/><stop offset="81.272%" stop-color="silver"/><stop offset="100%" stop-color="#767777"/></linearGradient><filter id="b" width="104.8%" height="105.7%" x="-2.4%" y="-2.9%" filterUnits="objectBoundingBox"><feOffset in="SourceAlpha" result="shadowOffsetOuter1"/><feGaussianBlur in="shadowOffsetOuter1" result="shadowBlurOuter1" stdDeviation="2"/><feColorMatrix in="shadowBlurOuter1" values="0 0 0 0 0.552677763 0 0 0 0 0.552677763 0 0 0 0 0.552677763 0 0 0 0.5 0"/></filter><filter id="e" width="104.8%" height="105.9%" x="-2.4%" y="-3%" filterUnits="objectBoundingBox"><feOffset in="SourceAlpha" result="shadowOffsetOuter1"/><feGaussianBlur in="shadowOffsetOuter1" result="shadowBlurOuter1" stdDeviation="1"/><feColorMatrix in="shadowBlurOuter1" values="0 0 0 0 0.552677763 0 0 0 0 0.552677763 0 0 0 0 0.552677763 0 0 0 0.5 0"/></filter><path id="a" d="M32.3808441,102.448669 L103.213074,102.448669 C113.885966,102.448669 121.950996,99.7334417 127.408165,94.3029861 C132.865334,88.8725306 135.593918,80.9015096 135.593918,70.3899231 L135.593918,31.9786072 C135.593918,21.4659932 132.865334,13.5080719 127.408165,8.10484314 C121.950996,2.70161438 113.885966,0 103.213074,0 L32.3808441,0 C21.720281,0 13.6583328,2.68825785 8.19499969,8.06477356 C2.73166656,13.4412893 0,21.4125671 0,31.9786072 L0,70.3899231 C0,80.9549357 2.73166656,88.9393133 8.19499969,94.3430557 C13.6583328,99.7467982 21.720281,102.448669 32.3808441,102.448669 Z M33.5182037,83.0596161 C28.9369151,83.0596161 25.4364777,81.8590698 23.0168915,79.4579773 C20.5973053,77.0568848 19.3875122,73.4665476 19.3875122,68.6869659 L19.3875122,33.6800232 C19.3875122,28.9004415 20.5973053,25.3234609 23.0168915,22.9490814 C25.4364777,20.5747019 28.9369151,19.3875122 33.5182037,19.3875122 L102.075714,19.3875122 C106.603577,19.3875122 110.090658,20.5747019 112.536957,22.9490814 C114.983256,25.3234609 116.206406,28.9004415 116.206406,33.6800232 L116.206406,68.6869659 C116.206406,73.4665476 114.983256,77.0568848 112.536957,79.4579773 C110.090658,81.8590698 106.603577,83.0596161 102.075714,83.0596161 L33.5182037,83.0596161 Z M216.998352,112.06691 C218.534353,114.194707 220.222155,115.242167 222.06176,115.21004 C223.901365,115.176412 225.595332,114.128952 227.143661,112.06691 L246.429459,86.1357269 C248.589106,83.2948964 249.209671,80.6243617 248.291153,78.1241226 C247.372635,75.6238836 245.020859,74.373764 241.235825,74.373764 L228.46904,74.373764 L228.46904,71.217514 C228.46904,61.5679372 226.418043,53.0852585 222.316048,45.7694778 C218.214053,38.4536972 212.491552,32.749176 205.148544,28.6559143 C197.805537,24.5626526 189.293833,22.5160217 179.613434,22.5160217 L164.023285,22.5160217 C162.102,22.5160217 160.439883,23.2146708 159.036934,24.611969 C157.633985,26.0092672 156.93251,27.6952718 156.93251,29.6699829 C156.93251,31.5912679 157.633985,33.2536418 159.036934,34.6571045 C160.439883,36.0605672 162.102,36.7622986 164.023285,36.7622986 L179.533295,36.7622986 C186.497182,36.7622986 192.654027,38.1863098 198.00383,41.0343323 C203.353633,43.8823547 207.548096,47.887001 210.587219,53.0482712 C213.626343,58.2095413 215.145905,64.2567088 215.145905,71.1897736 L215.145905,74.373764 L202.950882,74.373764 C199.255234,74.373764 196.951233,75.6238836 196.038879,78.1241226 C195.126526,80.6243617 195.744008,83.2948964 197.891327,86.1357269 L216.998352,112.06691 Z M91.5744019,210.208099 L107.183044,210.208099 C109.157756,210.208099 110.846842,209.506368 112.250305,208.102905 C113.653768,206.699443 114.355499,205.01652 114.355499,203.054138 C114.355499,201.132853 113.653768,199.470479 112.250305,198.067017 C110.846842,196.663554 109.157756,195.961823 107.183044,195.961823 L91.654541,195.961823 C84.7029826,195.961823 78.552302,194.537811 73.2024994,191.689789 C67.8526967,188.841766 63.6551514,184.83712 60.6098633,179.67585 C57.5645752,174.51458 56.0419312,168.440699 56.0419312,161.454208 L56.0419312,158.350357 L68.318634,158.350357 C72.0255839,158.350357 74.3218791,157.097155 75.2075195,154.590752 C76.09316,152.084348 75.4895477,149.390182 73.3966827,146.508255 L54.2079773,120.638718 C52.6596476,118.523249 50.9687627,117.481954 49.1353226,117.514077 C47.3018824,117.547709 45.6109975,118.589005 44.0626678,120.638718 L24.8570099,146.508255 C22.6439362,149.402512 21.993576,152.099759 22.9059296,154.599998 C23.8182831,157.100238 26.1731415,158.350357 29.9705048,158.350357 L42.7372894,158.350357 L42.7372894,161.426468 C42.7372894,171.076045 44.8019002,179.555641 48.9311218,186.865257 C53.0603434,194.174873 58.7828445,199.892751 66.0986252,204.01889 C73.4144058,208.14503 81.9063314,210.208099 91.5744019,210.208099 Z"/><path id="d" d="M0,28.126152 L18.1872203,28.126152 L18.1872203,22.8492965 C18.1872203,21.1415763 18.5714574,19.9376335 19.3399315,19.2374682 C20.1084055,18.5373029 21.2781939,18.1872203 22.8492965,18.1872203 L28.126152,18.1872203 L28.126152,0 L20.0827897,0 C13.7642249,0 8.83745212,1.75895182 5.30247127,5.27685547 C1.76749042,8.79475911 0,13.7300705 0,20.0827897 L0,28.126152 Z M0,63.7833501 L18.1872203,63.7833501 L18.1872203,37.757694 L0,37.757694 L0,63.7833501 Z M20.0827897,101.592276 L28.126152,101.592276 L28.126152,83.4050554 L22.8492965,83.4050554 C21.2781939,83.4050554 20.1084055,83.0464341 19.3399315,82.3291916 C18.5714574,81.6119491 18.1872203,80.3994678 18.1872203,78.6917476 L18.1872203,73.4148921 L0,73.4148921 L0,81.5094859 C0,87.8280507 1.76749042,92.7548236 5.30247127,96.2898044 C8.83745212,99.8247853 13.7642249,101.592276 20.0827897,101.592276 Z M37.757694,101.592276 L57.0720096,101.592276 L57.0720096,83.4050554 L37.757694,83.4050554 L37.757694,101.592276 Z M66.7035517,101.592276 L86.0178673,101.592276 L86.0178673,83.4050554 L66.7035517,83.4050554 L66.7035517,101.592276 Z M103.692772,101.592276 C110.011336,101.592276 114.938109,99.8247853 118.47309,96.2898044 C122.008071,92.7548236 123.775561,87.8280507 123.775561,81.5094859 L123.775561,73.4148921 L105.588341,73.4148921 L105.588341,78.6917476 C105.588341,80.3994678 105.204104,81.6119491 104.43563,82.3291916 C103.667156,83.0464341 102.497367,83.4050554 100.926265,83.4050554 L95.6494093,83.4050554 L95.6494093,101.592276 L103.692772,101.592276 Z M123.775561,28.126152 L123.775561,20.0827897 C123.775561,13.7300705 122.008071,8.79475911 118.47309,5.27685547 C114.938109,1.75895182 110.011336,0 103.692772,0 L95.6494093,0 L95.6494093,18.1872203 L100.926265,18.1872203 C102.497367,18.1872203 103.667156,18.5373029 104.43563,19.2374682 C105.204104,19.9376335 105.588341,21.1415763 105.588341,22.8492965 L105.588341,28.126152 L123.775561,28.126152 Z M123.775561,63.7833501 L123.775561,37.757694 L105.588341,37.757694 L105.588341,63.7833501 L123.775561,63.7833501 Z M37.757694,18.1872203 L57.0720096,18.1872203 L57.0720096,0 L37.757694,0 L37.757694,18.1872203 Z M66.7035517,18.1872203 L86.0178673,18.1872203 L86.0178673,0 L66.7035517,0 L66.7035517,18.1872203 Z"/></defs><g fill="none" fill-rule="evenodd"><rect width="365" height="365"/><g fill-rule="nonzero" transform="translate(47.357 66.425)"><use xlink:href="#a" fill="#000" filter="url(#b)"/><use xlink:href="#a" fill="#2E2E2E"/><use xlink:href="#a" fill="url(#c)"/></g><g fill-rule="nonzero" transform="translate(191.112 197.292)"><use xlink:href="#d" fill="#000" filter="url(#e)"/><use xlink:href="#d" fill="#2E2E2E"/><use xlink:href="#d" fill="url(#f)"/></g></g></svg>