<svg xmlns="http://www.w3.org/2000/svg" xmlns:xlink="http://www.w3.org/1999/xlink" width="512" height="512" viewBox="0 0 512 512"><defs><linearGradient id="c" x1="0%" x2="0%" y1="100%" y2="0%"><stop offset="0%" stop-color="#FFF"/><stop offset="100%" stop-color="#FFF"/></linearGradient><linearGradient id="g" x1="50%" x2="50%" y1="6.988%" y2="100%"><stop offset="0%" stop-color="#FFCB00"/><stop offset="5.093%" stop-color="#FFE581"/><stop offset="15.762%" stop-color="#FFEFB4"/><stop offset="36.91%" stop-color="#FFCA00"/><stop offset="67.256%" stop-color="#FFAE00"/><stop offset="95.711%" stop-color="#FF7900"/><stop offset="100%" stop-color="#BA3800"/></linearGradient><linearGradient id="i" x1="50%" x2="50%" y1="0%" y2="100%"><stop offset="0%" stop-color="#FC0"/><stop offset="6.191%" stop-color="#FFBD00"/><stop offset="15.734%" stop-color="#FFE589" stop-opacity="0"/><stop offset="52.088%" stop-color="#FFD740" stop-opacity="0"/><stop offset="71.992%" stop-color="#EF5B00" stop-opacity=".5"/><stop offset="100%" stop-color="#9F2800" stop-opacity=".5"/></linearGradient><filter id="b" width="114.6%" height="114.6%" x="-7.3%" y="-7.3%" filterUnits="objectBoundingBox"><feMorphology in="SourceAlpha" radius="10" result="shadowSpreadOuter1"/><feOffset in="shadowSpreadOuter1" result="shadowOffsetOuter1"/><feGaussianBlur in="shadowOffsetOuter1" result="shadowBlurOuter1" stdDeviation="20"/><feColorMatrix in="shadowBlurOuter1" values="0 0 0 0 1 0 0 0 0 1 0 0 0 0 1 0 0 0 0.5 0"/></filter><filter id="d" width="111.7%" height="111.7%" x="-5.8%" y="-5.8%" filterUnits="objectBoundingBox"><feMorphology in="SourceAlpha" operator="dilate" radius="1" result="shadowSpreadInner1"/><feGaussianBlur in="shadowSpreadInner1" result="shadowBlurInner1" stdDeviation="1.5"/><feOffset dx="-1" dy="-2" in="shadowBlurInner1" result="shadowOffsetInner1"/><feComposite in="shadowOffsetInner1" in2="SourceAlpha" k2="-1" k3="1" operator="arithmetic" result="shadowInnerInner1"/><feColorMatrix in="shadowInnerInner1" result="shadowMatrixInner1" values="0 0 0 0 0 0 0 0 0 0 0 0 0 0 0 0 0 0 0.1 0"/><feMorphology in="SourceAlpha" radius="4" result="shadowSpreadInner2"/><feGaussianBlur in="shadowSpreadInner2" result="shadowBlurInner2" stdDeviation="2"/><feOffset in="shadowBlurInner2" result="shadowOffsetInner2"/><feComposite in="shadowOffsetInner2" in2="SourceAlpha" k2="-1" k3="1" operator="arithmetic" result="shadowInnerInner2"/><feColorMatrix in="shadowInnerInner2" result="shadowMatrixInner2" values="0 0 0 0 0 0 0 0 0 0 0 0 0 0 0 0 0 0 0.1 0"/><feMerge><feMergeNode in="shadowMatrixInner1"/><feMergeNode in="shadowMatrixInner2"/></feMerge></filter><filter id="f" width="192.9%" height="208%" x="-46.4%" y="-35.7%" filterUnits="objectBoundingBox"><feOffset dy="40" in="SourceAlpha" result="shadowOffsetOuter1"/><feGaussianBlur in="shadowOffsetOuter1" result="shadowBlurOuter1" stdDeviation="30"/><feComposite in="shadowBlurOuter1" in2="SourceAlpha" operator="out" result="shadowBlurOuter1"/><feColorMatrix in="shadowBlurOuter1" result="shadowMatrixOuter1" values="0 0 0 0 0 0 0 0 0 0 0 0 0 0 0 0 0 0 0.25 0"/><feMorphology in="SourceAlpha" operator="dilate" radius="2" result="shadowSpreadOuter2"/><feOffset in="shadowSpreadOuter2" result="shadowOffsetOuter2"/><feGaussianBlur in="shadowOffsetOuter2" result="shadowBlurOuter2" stdDeviation="10"/><feComposite in="shadowBlurOuter2" in2="SourceAlpha" operator="out" result="shadowBlurOuter2"/><feColorMatrix in="shadowBlurOuter2" result="shadowMatrixOuter2" values="0 0 0 0 1 0 0 0 0 1 0 0 0 0 1 0 0 0 1 0"/><feMerge><feMergeNode in="shadowMatrixOuter1"/><feMergeNode in="shadowMatrixOuter2"/></feMerge></filter><path id="a" d="M165.374834,50 L346.625166,50 C386.743509,50 401.29139,54.1771525 415.958057,62.0209717 C430.624723,69.8647908 442.135209,81.3752767 449.979028,96.0419433 C457.822847,110.70861 462,125.256491 462,165.374834 L462,346.625166 C462,386.743509 457.822847,401.29139 449.979028,415.958057 C442.135209,430.624723 430.624723,442.135209 415.958057,449.979028 C401.29139,457.822847 386.743509,462 346.625166,462 L165.374834,462 C125.256491,462 110.70861,457.822847 96.0419433,449.979028 C81.3752767,442.135209 69.8647908,430.624723 62.0209717,415.958057 C54.1771525,401.29139 50,386.743509 50,346.625166 L50,165.374834 C50,125.256491 54.1771525,110.70861 62.0209717,96.0419433 C69.8647908,81.3752767 81.3752767,69.8647908 96.0419433,62.0209717 C110.70861,54.1771525 125.256491,50 165.374834,50 Z"/><path id="e" d="M111.216797,207.366211 C107.892578,207.366211 104.785156,206.661621 101.894531,205.252441 C99.0039063,203.843262 95.96875,201.621094 92.7890625,198.585938 L6.50390625,118.154297 C4.26367188,116.130859 2.61962891,113.800293 1.57177734,111.162598 C0.523925781,108.524902 0,106.049805 0,103.737305 C0,101.208008 0.505859375,98.6606445 1.51757812,96.0952148 C2.52929687,93.5297852 4.15527344,91.2353516 6.39550781,89.2119141 L92.7890625,9.21386719 C96.3300781,5.81738281 99.4555664,3.43261719 102.165527,2.05957031 C104.875488,0.686523438 107.856445,0 111.108398,0 C116.239258,0 120.50293,1.78857422 123.899414,5.36572266 C127.295898,8.94287109 128.994141,13.296875 128.994141,18.4277344 L128.994141,53.1152344 L130.945313,53.1152344 C148.505859,53.1152344 163.898437,55.8251953 177.123047,61.2451172 C190.347656,66.6650391 201.38623,74.5961914 210.23877,85.0385742 C219.091309,95.480957 225.739746,108.181641 230.184082,123.140625 C234.628418,138.099609 236.850586,155.045898 236.850586,173.979492 C236.850586,184.674805 235.333008,192.678223 232.297852,197.989746 C229.262695,203.30127 225.143555,205.957031 219.94043,205.957031 C216.254883,205.957031 212.930664,205.053711 209.967773,203.24707 C207.004883,201.44043 204.258789,198.152344 201.729492,193.382812 C197.032227,185 191.467773,177.954102 185.036133,172.245117 C178.604492,166.536133 170.980469,162.218262 162.164063,159.291504 C153.347656,156.364746 142.941406,154.901367 130.945313,154.901367 L128.994141,154.901367 L128.994141,189.263672 C128.994141,194.394531 127.295898,198.694336 123.899414,202.163086 C120.50293,205.631836 116.275391,207.366211 111.216797,207.366211 Z"/><radialGradient id="h" cx="85.077%" cy="28.762%" r="83.15%" fx="85.077%" fy="28.762%" gradientTransform="matrix(.8755 0 0 1 .106 0)"><stop offset="0%" stop-color="#FF9E00" stop-opacity="0"/><stop offset="22.457%" stop-color="#FF9E00" stop-opacity="0"/><stop offset="66.429%" stop-color="#DE5200" stop-opacity=".4"/><stop offset="88.259%" stop-color="#DA4D00" stop-opacity=".9"/><stop offset="100%" stop-color="#9F2800"/></radialGradient></defs><g fill="none" fill-rule="evenodd"><rect width="512" height="512"/><g fill-rule="nonzero"><use xlink:href="#a" fill="#000" filter="url(#b)"/><use xlink:href="#a" fill="url(#c)"/><use xlink:href="#a" fill="#000" filter="url(#d)"/></g><path fill="#DBDBDB" d="M178,50 L178,179 L462,179 L462,187 L178,187 L178,462 L170,462 L170,50 L178,50 Z"/><g fill-rule="nonzero" transform="translate(132.317 153.107)"><use xlink:href="#e" fill="#000" filter="url(#f)"/><use xlink:href="#e" fill="#2E2E2E"/><use xlink:href="#e" fill="url(#g)"/><path fill="url(#h)" fill-opacity=".8" fill-rule="evenodd" stroke="url(#i)" stroke-linejoin="square" stroke-width="3" d="M111.108398,1.5 C115.799739,1.5 119.704,3.12561743 122.811641,6.39855805 C125.939559,9.6928553 127.494141,13.7051331 127.494141,18.4277344 L127.494141,54.6152344 L130.945313,54.6152344 C148.287813,54.6152344 163.492508,57.2799177 176.554212,62.6330749 C189.547888,67.958352 200.396243,75.7480513 209.094592,86.008552 C217.82045,96.3015037 224.365832,108.824142 228.746201,123.567822 C233.153191,138.401106 235.350586,155.205646 235.350586,173.979492 C235.350586,184.330318 233.936567,192.098647 230.995487,197.245538 C229.613321,199.664327 227.997516,201.493577 226.119316,202.704521 C224.299179,203.878031 222.237979,204.457031 219.94043,204.457031 C216.544853,204.457031 213.479565,203.631547 210.748685,201.966376 C207.966189,200.269732 205.42486,197.149531 203.054685,192.680059 C198.253659,184.111251 192.582467,176.93786 186.031896,171.123308 C179.452707,165.283354 171.655977,160.862016 162.636653,157.867897 C153.686784,154.896833 143.124214,153.401367 130.945313,153.401367 L127.494141,153.401367 L127.494141,189.263672 C127.494141,193.973246 125.94781,197.9271 122.827648,201.113649 C119.71819,204.289266 115.844787,205.866211 111.216797,205.866211 C108.12738,205.866211 105.238645,205.213947 102.551835,203.904127 C99.7769485,202.55137 96.8699931,200.408584 93.8183915,197.494809 L7.51792413,117.048896 C5.45194644,115.184997 3.93172203,113.040251 2.96580547,110.608806 C1.99610461,108.167835 1.5,105.878619 1.5,103.737305 C1.5,101.389573 1.97412203,99.0262118 2.91298752,96.6455171 C3.84380822,94.2852218 5.34628853,92.1792374 7.40771225,90.3189513 L93.8179249,10.3054797 C97.2294382,7.03215664 100.232142,4.72069932 102.843475,3.39762398 C105.347997,2.12866596 108.103931,1.5 111.108398,1.5 Z"/></g></g></svg>