<svg xmlns="http://www.w3.org/2000/svg" xmlns:xlink="http://www.w3.org/1999/xlink" width="512" height="512" viewBox="0 0 512 512"><defs><linearGradient id="c" x1="0%" x2="0%" y1="100%" y2="0%"><stop offset="0%" stop-color="#FFF"/><stop offset="100%" stop-color="#FFF"/></linearGradient><linearGradient id="g" x1="50%" x2="50%" y1="6.988%" y2="100%"><stop offset="0%" stop-color="#FFCB00"/><stop offset="5.093%" stop-color="#FFE581"/><stop offset="15.762%" stop-color="#FFEFB4"/><stop offset="36.91%" stop-color="#FFCA00"/><stop offset="67.256%" stop-color="#FFAE00"/><stop offset="95.711%" stop-color="#FF7900"/><stop offset="100%" stop-color="#BA3800"/></linearGradient><linearGradient id="i" x1="50%" x2="50%" y1="0%" y2="100%"><stop offset="0%" stop-color="#FC0"/><stop offset="6.191%" stop-color="#FFBD00"/><stop offset="15.734%" stop-color="#FFE589" stop-opacity="0"/><stop offset="52.088%" stop-color="#FFD740" stop-opacity="0"/><stop offset="71.992%" stop-color="#EF5B00" stop-opacity=".5"/><stop offset="100%" stop-color="#9F2800" stop-opacity=".5"/></linearGradient><filter id="b" width="114.6%" height="114.6%" x="-7.3%" y="-7.3%" filterUnits="objectBoundingBox"><feMorphology in="SourceAlpha" radius="10" result="shadowSpreadOuter1"/><feOffset in="shadowSpreadOuter1" result="shadowOffsetOuter1"/><feGaussianBlur in="shadowOffsetOuter1" result="shadowBlurOuter1" stdDeviation="20"/><feColorMatrix in="shadowBlurOuter1" values="0 0 0 0 1 0 0 0 0 1 0 0 0 0 1 0 0 0 0.5 0"/></filter><filter id="d" width="111.7%" height="111.7%" x="-5.8%" y="-5.8%" filterUnits="objectBoundingBox"><feMorphology in="SourceAlpha" operator="dilate" radius="1" result="shadowSpreadInner1"/><feGaussianBlur in="shadowSpreadInner1" result="shadowBlurInner1" stdDeviation="1.5"/><feOffset dx="-1" dy="-2" in="shadowBlurInner1" result="shadowOffsetInner1"/><feComposite in="shadowOffsetInner1" in2="SourceAlpha" k2="-1" k3="1" operator="arithmetic" result="shadowInnerInner1"/><feColorMatrix in="shadowInnerInner1" result="shadowMatrixInner1" values="0 0 0 0 0 0 0 0 0 0 0 0 0 0 0 0 0 0 0.1 0"/><feMorphology in="SourceAlpha" radius="4" result="shadowSpreadInner2"/><feGaussianBlur in="shadowSpreadInner2" result="shadowBlurInner2" stdDeviation="2"/><feOffset in="shadowBlurInner2" result="shadowOffsetInner2"/><feComposite in="shadowOffsetInner2" in2="SourceAlpha" k2="-1" k3="1" operator="arithmetic" result="shadowInnerInner2"/><feColorMatrix in="shadowInnerInner2" result="shadowMatrixInner2" values="0 0 0 0 0 0 0 0 0 0 0 0 0 0 0 0 0 0 0.1 0"/><feMerge><feMergeNode in="shadowMatrixInner1"/><feMergeNode in="shadowMatrixInner2"/></feMerge></filter><filter id="f" width="185%" height="207.7%" x="-42.5%" y="-35.6%" filterUnits="objectBoundingBox"><feOffset dy="40" in="SourceAlpha" result="shadowOffsetOuter1"/><feGaussianBlur in="shadowOffsetOuter1" result="shadowBlurOuter1" stdDeviation="30"/><feComposite in="shadowBlurOuter1" in2="SourceAlpha" operator="out" result="shadowBlurOuter1"/><feColorMatrix in="shadowBlurOuter1" result="shadowMatrixOuter1" values="0 0 0 0 0 0 0 0 0 0 0 0 0 0 0 0 0 0 0.25 0"/><feMorphology in="SourceAlpha" operator="dilate" radius="2" result="shadowSpreadOuter2"/><feOffset in="shadowSpreadOuter2" result="shadowOffsetOuter2"/><feGaussianBlur in="shadowOffsetOuter2" result="shadowBlurOuter2" stdDeviation="10"/><feComposite in="shadowBlurOuter2" in2="SourceAlpha" operator="out" result="shadowBlurOuter2"/><feColorMatrix in="shadowBlurOuter2" result="shadowMatrixOuter2" values="0 0 0 0 1 0 0 0 0 1 0 0 0 0 1 0 0 0 1 0"/><feMerge><feMergeNode in="shadowMatrixOuter1"/><feMergeNode in="shadowMatrixOuter2"/></feMerge></filter><path id="a" d="M165.374834,50 L346.625166,50 C386.743509,50 401.29139,54.1771525 415.958057,62.0209717 C430.624723,69.8647908 442.135209,81.3752767 449.979028,96.0419433 C457.822847,110.70861 462,125.256491 462,165.374834 L462,346.625166 C462,386.743509 457.822847,401.29139 449.979028,415.958057 C442.135209,430.624723 430.624723,442.135209 415.958057,449.979028 C401.29139,457.822847 386.743509,462 346.625166,462 L165.374834,462 C125.256491,462 110.70861,457.822847 96.0419433,449.979028 C81.3752767,442.135209 69.8647908,430.624723 62.0209717,415.958057 C54.1771525,401.29139 50,386.743509 50,346.625166 L50,165.374834 C50,125.256491 54.1771525,110.70861 62.0209717,96.0419433 C69.8647908,81.3752767 81.3752767,69.8647908 96.0419433,62.0209717 C110.70861,54.1771525 125.256491,50 165.374834,50 Z"/><path id="e" d="M178.98291,248.589508 C176.562012,248.589508 174.827637,248.059372 173.779785,246.9991 C172.731934,245.938828 172.208008,244.210663 172.208008,241.814606 L172.208008,206.461472 C172.208008,204.104935 172.731934,202.39653 173.779785,201.336258 C174.827637,200.275986 176.562012,199.74585 178.98291,199.74585 L241.041016,199.74585 C243.461914,199.74585 245.205322,200.275986 246.27124,201.336258 C247.337158,202.39653 247.870117,204.104935 247.870117,206.461472 L247.870117,241.814606 C247.870117,244.210663 247.337158,245.938828 246.27124,246.9991 C245.205322,248.059372 243.461914,248.589508 241.041016,248.589508 L178.98291,248.589508 Z M178.98291,313.943604 C176.562012,313.943604 174.827637,313.413467 173.779785,312.353195 C172.731934,311.292923 172.208008,309.584518 172.208008,307.227982 L172.208008,271.874847 C172.208008,269.518311 172.731934,267.809906 173.779785,266.749634 C174.827637,265.689362 176.562012,265.159225 178.98291,265.159225 L241.041016,265.159225 C243.461914,265.159225 245.205322,265.689362 246.27124,266.749634 C247.337158,267.809906 247.870117,269.518311 247.870117,271.874847 L247.870117,307.227982 C247.870117,309.584518 247.337158,311.292923 246.27124,312.353195 C245.205322,313.413467 243.461914,313.943604 241.041016,313.943604 L178.98291,313.943604 Z M270.958984,248.589508 C268.538086,248.589508 266.794678,248.059372 265.72876,246.9991 C264.662842,245.938828 264.129883,244.210663 264.129883,241.814606 L264.129883,206.461472 C264.129883,204.104935 264.662842,202.39653 265.72876,201.336258 C266.794678,200.275986 268.538086,199.74585 270.958984,199.74585 L333.01709,199.74585 C335.437988,199.74585 337.181396,200.275986 338.247314,201.336258 C339.313232,202.39653 339.846191,204.104935 339.846191,206.461472 L339.846191,241.814606 C339.846191,244.210663 339.313232,245.938828 338.247314,246.9991 C337.181396,248.059372 335.437988,248.589508 333.01709,248.589508 L270.958984,248.589508 Z M270.958984,313.943604 C268.538086,313.943604 266.794678,313.413467 265.72876,312.353195 C264.662842,311.292923 264.129883,309.584518 264.129883,307.227982 L264.129883,271.874847 C264.129883,269.518311 264.662842,267.809906 265.72876,266.749634 C266.794678,265.689362 268.538086,265.159225 270.958984,265.159225 L333.01709,265.159225 C335.437988,265.159225 337.181396,265.689362 338.247314,266.749634 C339.313232,267.809906 339.846191,269.518311 339.846191,271.874847 L339.846191,307.227982 C339.846191,309.584518 339.313232,311.292923 338.247314,312.353195 C337.181396,313.413467 335.437988,313.943604 333.01709,313.943604 L270.958984,313.943604 Z M164.891113,360.86319 C152.533691,360.86319 143.066895,357.54631 136.490723,350.912552 C129.914551,344.278793 126.626465,334.781509 126.626465,322.4207 L126.626465,191.328033 C126.626465,178.894958 129.914551,169.371422 136.490723,162.757423 C143.066895,156.143425 152.533691,152.836426 164.891113,152.836426 L347.108887,152.836426 C359.502441,152.836426 368.978271,156.151611 375.536377,162.781982 C382.094482,169.412354 385.373535,178.927704 385.373535,191.328033 L385.373535,322.4207 C385.373535,334.781509 382.094482,344.278793 375.536377,350.912552 C368.978271,357.54631 359.502441,360.86319 347.108887,360.86319 L164.891113,360.86319 Z M167.92627,331.846283 L344.07373,331.846283 C348.409668,331.846283 351.71582,330.786575 353.992188,328.66716 C356.268555,326.547745 357.406738,323.226349 357.406738,318.702972 L357.406738,194.986481 C357.406738,190.463104 356.268555,187.143684 353.992188,185.028221 C351.71582,182.912758 348.409668,181.855026 344.07373,181.855026 L167.92627,181.855026 C163.554199,181.855026 160.239014,182.912758 157.980713,185.028221 C155.722412,187.143684 154.593262,190.463104 154.593262,194.986481 L154.593262,318.702972 C154.593262,323.226349 155.722412,326.547745 157.980713,328.66716 C160.239014,330.786575 163.554199,331.846283 167.92627,331.846283 Z"/><radialGradient id="h" cx="50%" cy="16.687%" r="102.352%" fx="50%" fy="16.687%" gradientTransform="matrix(.804 0 0 1 .098 0)"><stop offset="0%" stop-color="#FF9E00" stop-opacity="0"/><stop offset="22.457%" stop-color="#FF9E00" stop-opacity="0"/><stop offset="66.429%" stop-color="#DE5200" stop-opacity=".4"/><stop offset="88.259%" stop-color="#DA4D00" stop-opacity=".9"/><stop offset="100%" stop-color="#9F2800"/></radialGradient></defs><g fill="none" fill-rule="evenodd"><rect width="512" height="512"/><g fill-rule="nonzero"><use xlink:href="#a" fill="#000" filter="url(#b)"/><use xlink:href="#a" fill="url(#c)"/><use xlink:href="#a" fill="#000" filter="url(#d)"/></g><path fill="#DBDBDB" d="M178,50 L178,179 L462,179 L462,187 L178,187 L178,462 L170,462 L170,50 L178,50 Z"/><g fill-rule="nonzero"><use xlink:href="#e" fill="#000" filter="url(#f)"/><use xlink:href="#e" fill="#2E2E2E"/><use xlink:href="#e" fill="url(#g)"/><path fill="url(#h)" fill-opacity=".8" fill-rule="evenodd" stroke="url(#i)" stroke-linejoin="square" stroke-width="3" d="M347.108887,154.336426 C359.014035,154.336426 368.157843,157.455182 374.469921,163.836815 C380.785692,170.222181 383.873535,179.408365 383.873535,191.328033 L383.873535,322.4207 C383.873535,334.301884 380.785024,343.469766 374.469652,349.857992 C368.157635,356.242822 359.013916,359.36319 347.108887,359.36319 L164.891113,359.36319 C153.020147,359.36319 143.885502,356.241458 137.555996,349.856526 C131.223565,343.468642 128.126465,334.301237 128.126465,322.4207 L128.126465,191.328033 C128.126465,179.378119 131.221682,170.184202 137.55442,163.815037 C143.884291,157.448757 153.019452,154.336426 164.891113,154.336426 L347.108887,154.336426 Z M344.07373,180.355026 L167.92627,180.355026 C163.078639,180.355026 159.44639,181.59992 156.955238,183.933506 C154.448682,186.281523 153.093262,189.929513 153.093262,194.986481 L153.093262,318.702972 C153.093262,323.758977 154.448027,327.408858 156.954219,329.76092 C159.445602,332.099083 163.078161,333.346283 167.92627,333.346283 L344.07373,333.346283 C348.879872,333.346283 352.503369,332.102821 355.014325,329.764992 C357.541498,327.412064 358.906738,323.760954 358.906738,318.702972 L358.906738,194.986481 C358.906738,189.927536 357.540842,186.27832 355.013303,183.929439 C352.502581,181.596186 348.879398,180.355026 344.07373,180.355026 Z M241.041016,266.659225 C242.931673,266.659225 244.36307,266.96728 245.2134,267.813107 C246.058142,268.653374 246.370117,270.046134 246.370117,271.874847 L246.370117,307.227982 C246.370117,309.056695 246.058142,310.449455 245.2134,311.289722 C244.36307,312.135549 242.931673,312.443604 241.041016,312.443604 L178.98291,312.443604 C177.101381,312.443604 175.679668,312.141668 174.846676,311.298803 C174.014395,310.456656 173.708008,309.061444 173.708008,307.227982 L173.708008,271.874847 C173.708008,270.041385 174.014395,268.646172 174.846676,267.804026 C175.679668,266.961161 177.101381,266.659225 178.98291,266.659225 L241.041016,266.659225 Z M333.01709,266.659225 C334.907747,266.659225 336.339144,266.96728 337.189474,267.813107 C338.034216,268.653374 338.346191,270.046134 338.346191,271.874847 L338.346191,307.227982 C338.346191,309.056695 338.034216,310.449455 337.189474,311.289722 C336.339144,312.135549 334.907747,312.443604 333.01709,312.443604 L270.958984,312.443604 C269.068327,312.443604 267.63693,312.135549 266.7866,311.289722 C265.941858,310.449455 265.629883,309.056695 265.629883,307.227982 L265.629883,271.874847 C265.629883,270.046134 265.941858,268.653374 266.7866,267.813107 C267.63693,266.96728 269.068327,266.659225 270.958984,266.659225 L333.01709,266.659225 Z M241.041016,201.24585 C242.931673,201.24585 244.36307,201.553904 245.2134,202.399731 C246.058142,203.239998 246.370117,204.632758 246.370117,206.461472 L246.370117,241.814606 C246.370117,243.678672 246.060671,245.092844 245.2134,245.935627 C244.36307,246.781454 242.931673,247.089508 241.041016,247.089508 L178.98291,247.089508 C177.101381,247.089508 175.679668,246.787572 174.846676,245.944707 C174.01193,245.100067 173.708008,243.683495 173.708008,241.814606 L173.708008,206.461472 C173.708008,204.62801 174.014395,203.232797 174.846676,202.390651 C175.679668,201.547785 177.101381,201.24585 178.98291,201.24585 L241.041016,201.24585 Z M333.01709,201.24585 C334.907747,201.24585 336.339144,201.553904 337.189474,202.399731 C338.034216,203.239998 338.346191,204.632758 338.346191,206.461472 L338.346191,241.814606 C338.346191,243.678672 338.036745,245.092844 337.189474,245.935627 C336.339144,246.781454 334.907747,247.089508 333.01709,247.089508 L270.958984,247.089508 C269.068327,247.089508 267.63693,246.781454 266.7866,245.935627 C265.939329,245.092844 265.629883,243.678672 265.629883,241.814606 L265.629883,206.461472 C265.629883,204.632758 265.941858,203.239998 266.7866,202.399731 C267.63693,201.553904 269.068327,201.24585 270.958984,201.24585 L333.01709,201.24585 Z"/></g></g></svg>