<svg xmlns="http://www.w3.org/2000/svg" xmlns:xlink="http://www.w3.org/1999/xlink" width="512" height="512" viewBox="0 0 512 512"><defs><linearGradient id="c" x1="0%" x2="0%" y1="100%" y2="0%"><stop offset="0%" stop-color="#FFF"/><stop offset="100%" stop-color="#FFF"/></linearGradient><linearGradient id="g" x1="50%" x2="50%" y1="0%" y2="104.131%"><stop offset="0%" stop-color="#FFCB00"/><stop offset="5.093%" stop-color="#FFE581"/><stop offset="19.172%" stop-color="#FFEFB4"/><stop offset="36.91%" stop-color="#FFCA00"/><stop offset="67.256%" stop-color="#FFAE00"/><stop offset="95.711%" stop-color="#FF7900"/><stop offset="100%" stop-color="#BA3800"/></linearGradient><linearGradient id="i" x1="50%" x2="50%" y1="-9.366%" y2="115.335%"><stop offset="0%" stop-color="#FC0"/><stop offset="6.191%" stop-color="#FFBD00"/><stop offset="15.734%" stop-color="#FFE589" stop-opacity="0"/><stop offset="52.088%" stop-color="#FFD740" stop-opacity="0"/><stop offset="71.992%" stop-color="#EF5B00" stop-opacity=".5"/><stop offset="100%" stop-color="#9F2800" stop-opacity=".5"/></linearGradient><linearGradient id="l" x1="50%" x2="50%" y1="-15.267%" y2="117.241%"><stop offset="0%" stop-color="#FFCB00"/><stop offset="5.093%" stop-color="#FFE581"/><stop offset="11.073%" stop-color="#FFEFB4"/><stop offset="18.308%" stop-color="#FFEFB4"/><stop offset="36.91%" stop-color="#FFCA00"/><stop offset="67.256%" stop-color="#FFAE00"/><stop offset="95.711%" stop-color="#FF7900"/><stop offset="100%" stop-color="#BA3800"/></linearGradient><filter id="b" width="114.6%" height="114.6%" x="-7.3%" y="-7.3%" filterUnits="objectBoundingBox"><feMorphology in="SourceAlpha" radius="10" result="shadowSpreadOuter1"/><feOffset in="shadowSpreadOuter1" result="shadowOffsetOuter1"/><feGaussianBlur in="shadowOffsetOuter1" result="shadowBlurOuter1" stdDeviation="20"/><feColorMatrix in="shadowBlurOuter1" values="0 0 0 0 1 0 0 0 0 1 0 0 0 0 1 0 0 0 0.5 0"/></filter><filter id="d" width="111.7%" height="111.7%" x="-5.8%" y="-5.8%" filterUnits="objectBoundingBox"><feMorphology in="SourceAlpha" operator="dilate" radius="1" result="shadowSpreadInner1"/><feGaussianBlur in="shadowSpreadInner1" result="shadowBlurInner1" stdDeviation="1.5"/><feOffset dx="-1" dy="-2" in="shadowBlurInner1" result="shadowOffsetInner1"/><feComposite in="shadowOffsetInner1" in2="SourceAlpha" k2="-1" k3="1" operator="arithmetic" result="shadowInnerInner1"/><feColorMatrix in="shadowInnerInner1" result="shadowMatrixInner1" values="0 0 0 0 0 0 0 0 0 0 0 0 0 0 0 0 0 0 0.1 0"/><feMorphology in="SourceAlpha" radius="4" result="shadowSpreadInner2"/><feGaussianBlur in="shadowSpreadInner2" result="shadowBlurInner2" stdDeviation="2"/><feOffset in="shadowBlurInner2" result="shadowOffsetInner2"/><feComposite in="shadowOffsetInner2" in2="SourceAlpha" k2="-1" k3="1" operator="arithmetic" result="shadowInnerInner2"/><feColorMatrix in="shadowInnerInner2" result="shadowMatrixInner2" values="0 0 0 0 0 0 0 0 0 0 0 0 0 0 0 0 0 0 0.1 0"/><feMerge><feMergeNode in="shadowMatrixInner1"/><feMergeNode in="shadowMatrixInner2"/></feMerge></filter><filter id="f" width="188.7%" height="190.3%" x="-44.3%" y="-29.8%" filterUnits="objectBoundingBox"><feOffset dy="40" in="SourceAlpha" result="shadowOffsetOuter1"/><feGaussianBlur in="shadowOffsetOuter1" result="shadowBlurOuter1" stdDeviation="30"/><feComposite in="shadowBlurOuter1" in2="SourceAlpha" operator="out" result="shadowBlurOuter1"/><feColorMatrix in="shadowBlurOuter1" result="shadowMatrixOuter1" values="0 0 0 0 0 0 0 0 0 0 0 0 0 0 0 0 0 0 0.25 0"/><feMorphology in="SourceAlpha" operator="dilate" radius="2" result="shadowSpreadOuter2"/><feOffset in="shadowSpreadOuter2" result="shadowOffsetOuter2"/><feGaussianBlur in="shadowOffsetOuter2" result="shadowBlurOuter2" stdDeviation="10"/><feComposite in="shadowBlurOuter2" in2="SourceAlpha" operator="out" result="shadowBlurOuter2"/><feColorMatrix in="shadowBlurOuter2" result="shadowMatrixOuter2" values="0 0 0 0 1 0 0 0 0 1 0 0 0 0 1 0 0 0 1 0"/><feMerge><feMergeNode in="shadowMatrixOuter1"/><feMergeNode in="shadowMatrixOuter2"/></feMerge></filter><filter id="k" width="293.8%" height="296.1%" x="-96.9%" y="-62.4%" filterUnits="objectBoundingBox"><feOffset dy="40" in="SourceAlpha" result="shadowOffsetOuter1"/><feGaussianBlur in="shadowOffsetOuter1" result="shadowBlurOuter1" stdDeviation="30"/><feColorMatrix in="shadowBlurOuter1" result="shadowMatrixOuter1" values="0 0 0 0 0 0 0 0 0 0 0 0 0 0 0 0 0 0 0.33 0"/><feOffset in="SourceAlpha" result="shadowOffsetOuter2"/><feGaussianBlur in="shadowOffsetOuter2" result="shadowBlurOuter2" stdDeviation="1"/><feColorMatrix in="shadowBlurOuter2" result="shadowMatrixOuter2" values="0 0 0 0 1 0 0 0 0 1 0 0 0 0 1 0 0 0 0.376038024 0"/><feMerge><feMergeNode in="shadowMatrixOuter1"/><feMergeNode in="shadowMatrixOuter2"/></feMerge></filter><path id="a" d="M165.374834,50 L346.625166,50 C386.743509,50 401.29139,54.1771525 415.958057,62.0209717 C430.624723,69.8647908 442.135209,81.3752767 449.979028,96.0419433 C457.822847,110.70861 462,125.256491 462,165.374834 L462,346.625166 C462,386.743509 457.822847,401.29139 449.979028,415.958057 C442.135209,430.624723 430.624723,442.135209 415.958057,449.979028 C401.29139,457.822847 386.743509,462 346.625166,462 L165.374834,462 C125.256491,462 110.70861,457.822847 96.0419433,449.979028 C81.3752767,442.135209 69.8647908,430.624723 62.0209717,415.958057 C54.1771525,401.29139 50,386.743509 50,346.625166 L50,165.374834 C50,125.256491 54.1771525,110.70861 62.0209717,96.0419433 C69.8647908,81.3752767 81.3752767,69.8647908 96.0419433,62.0209717 C110.70861,54.1771525 125.256491,50 165.374834,50 Z"/><path id="e" d="M198.02843,364.376767 C194.90023,369.240853 190.828091,373.161 185.812012,376.137207 C180.39209,379.353027 174.35791,380.960938 167.709473,380.960938 C161.133301,380.960938 155.135254,379.353027 149.715332,376.137207 C144.29541,372.921387 139.977539,368.603516 136.761719,363.183594 C133.545898,357.763672 131.937988,351.729492 131.937988,345.081055 C131.937988,338.432617 133.545898,332.398438 136.761719,326.978516 C139.737785,321.962674 143.657701,317.906156 148.521467,314.808962 L148.522159,198.927355 C143.658072,195.799156 139.737926,191.727017 136.761719,186.710938 C133.545898,181.291016 131.937988,175.256836 131.937988,168.608398 C131.937988,162.032227 133.545898,156.03418 136.761719,150.614258 C139.977539,145.194336 144.29541,140.876465 149.715332,137.660645 C155.135254,134.444824 161.133301,132.836914 167.709473,132.836914 C174.35791,132.836914 180.39209,134.444824 185.812012,137.660645 C190.828091,140.636851 194.90023,144.556998 198.02843,149.421085 L313.97157,149.421085 C317.09977,144.556998 321.171909,140.636851 326.187988,137.660645 C331.60791,134.444824 337.605957,132.836914 344.182129,132.836914 C350.830566,132.836914 356.864746,134.444824 362.284668,137.660645 C367.70459,140.876465 372.022461,145.194336 375.238281,150.614258 C378.454102,156.03418 380.062012,162.032227 380.062012,168.608398 C380.062012,175.256836 378.454102,181.291016 375.238281,186.710938 C372.262074,191.727017 368.341928,195.799156 363.477841,198.927355 L363.478533,314.808962 C368.342299,317.906156 372.262215,321.962674 375.238281,326.978516 C378.454102,332.398438 380.062012,338.432617 380.062012,345.081055 C380.062012,351.729492 378.454102,357.763672 375.238281,363.183594 C372.022461,368.603516 367.70459,372.921387 362.284668,376.137207 C356.864746,379.353027 350.830566,380.960938 344.182129,380.960938 C337.605957,380.960938 331.60791,379.353027 326.187988,376.137207 C321.171909,373.161 317.09977,369.240853 313.97157,364.376767 Z M311.24249,182.808707 L200.75751,182.808707 C200.181439,184.143027 199.517478,185.44377 198.765625,186.710938 C195.549805,192.130859 191.231934,196.44873 185.812012,199.664551 C184.544845,200.416403 183.244101,201.080365 181.909781,201.656436 L181.909781,312.109597 C183.244101,312.679195 184.544845,313.335697 185.812012,314.079102 C191.231934,317.258789 195.549805,321.558594 198.765625,326.978516 C199.51729,328.245367 200.181108,329.545777 200.757079,330.879747 L311.242921,330.879747 C311.818892,329.545777 312.48271,328.245367 313.234375,326.978516 C316.450195,321.558594 320.768066,317.258789 326.187988,314.079102 C327.457134,313.334536 328.75798,312.677145 330.090526,312.106929 L330.090526,201.659134 C328.75798,201.082439 327.457134,200.417577 326.187988,199.664551 C320.768066,196.44873 316.450195,192.130859 313.234375,186.710938 C312.482522,185.44377 311.818561,184.143027 311.24249,182.808707 Z"/><path id="j" d="M273.614746,200.802734 C277.950684,200.802734 281.365234,202.049316 283.858398,204.54248 C286.351562,207.035645 287.598145,210.414063 287.598145,214.677734 L287.597816,226.275734 L298.97998,226.276367 C303.315918,226.276367 306.712402,227.504883 309.169434,229.961914 C311.626465,232.418945 312.85498,235.779297 312.85498,240.042969 L312.85498,299.011719 C312.85498,303.275391 311.626465,306.671875 309.169434,309.201172 C306.712402,311.730469 303.315918,312.995117 298.97998,312.995117 L238.493652,312.995117 C234.22998,312.995117 230.851562,311.730469 228.358398,309.201172 C225.865234,306.671875 224.618652,303.275391 224.618652,299.011719 L224.617816,287.412734 L213.128418,287.413086 C209.011769,287.413086 205.737217,286.267835 203.304761,283.977332 L203.047363,283.727539 C200.590332,281.270508 199.361816,277.910156 199.361816,273.646484 L199.361816,214.677734 C199.361816,210.414063 200.590332,207.035645 203.047363,204.54248 C205.504395,202.049316 208.864746,200.802734 213.128418,200.802734 Z M292.584473,244.920898 L244.780762,244.920898 C243.841309,244.920898 243.371582,245.426758 243.371582,246.438477 L243.371582,292.724609 C243.371582,293.808594 243.841309,294.350586 244.780762,294.350586 L292.584473,294.350586 C293.668457,294.350586 294.210449,293.808594 294.210449,292.724609 L294.210449,246.438477 C294.210449,245.426758 293.668457,244.920898 292.584473,244.920898 Z M267.491573,219.45195 L267.327637,219.447266 L219.523926,219.447266 C218.512207,219.447266 218.006348,219.953125 218.006348,220.964844 L218.006348,267.250977 C218.006348,268.334961 218.512207,268.876953 219.523926,268.876953 L224.617816,268.876734 L224.618652,240.042969 C224.618652,235.779297 225.865234,232.418945 228.358398,229.961914 C230.851562,227.504883 234.22998,226.276367 238.493652,226.276367 L268.844816,226.275734 L268.845215,220.964844 C268.845215,220.009332 268.394001,219.505034 267.491573,219.45195 Z"/><radialGradient id="h" cx="50%" cy="14.056%" r="62.093%" fx="50%" fy="14.056%" gradientTransform="matrix(1 0 0 1.8376 0 -.118)"><stop offset="0%" stop-color="#FF9E00" stop-opacity="0"/><stop offset="22.457%" stop-color="#FF9E00" stop-opacity="0"/><stop offset="66.429%" stop-color="#DE5200" stop-opacity=".4"/><stop offset="80.052%" stop-color="#DA4D00" stop-opacity=".9"/><stop offset="100%" stop-color="#9F2800"/></radialGradient><radialGradient id="m" cx="65.957%" cy="36.15%" r="208.674%" fx="65.957%" fy="36.15%" gradientTransform="matrix(.9885 0 0 1 .008 0)"><stop offset="0%" stop-color="#FF9E00" stop-opacity="0"/><stop offset="22.457%" stop-color="#FF9E00" stop-opacity="0"/><stop offset="66.429%" stop-color="#DE5200" stop-opacity=".4"/><stop offset="88.259%" stop-color="#DA4D00" stop-opacity=".9"/><stop offset="100%" stop-color="#9F2800"/></radialGradient></defs><g fill="none" fill-rule="evenodd" transform="translate(2)"><rect width="512" height="512"/><g fill-rule="nonzero"><use xlink:href="#a" fill="#000" filter="url(#b)"/><use xlink:href="#a" fill="url(#c)"/><use xlink:href="#a" fill="#000" filter="url(#d)"/></g><path fill="#DBDBDB" d="M178,50 L178,179 L462,179 L462,187 L178,187 L178,462 L170,462 L170,50 L178,50 Z"/><g fill-rule="nonzero"><use xlink:href="#e" fill="#000" filter="url(#f)"/><use xlink:href="#e" fill="#2E2E2E"/><use xlink:href="#e" fill="url(#g)"/><path fill="url(#h)" fill-opacity=".8" fill-rule="evenodd" stroke="url(#i)" stroke-linejoin="square" stroke-width="3" d="M344.182129,134.336914 C350.548324,134.336914 356.3285,135.870813 361.519257,138.950663 C366.719678,142.036246 370.86268,146.179248 373.948263,151.379669 C377.027293,156.569045 378.562012,162.312852 378.562012,168.608398 C378.562012,174.974593 377.028112,180.75477 373.948263,185.945527 C370.953957,190.992111 366.964218,195.043329 361.977836,198.098008 L361.978538,315.642941 C366.96501,318.663834 370.954366,322.698033 373.948263,327.743926 C377.028112,332.934683 378.562012,338.71486 378.562012,345.081055 C378.562012,351.44725 377.028112,357.227426 373.948263,362.418183 C370.86268,367.618604 366.719678,371.761606 361.519257,374.847189 C356.3285,377.927038 350.548324,379.460937 344.182129,379.460938 C337.886583,379.460938 332.142775,377.926219 326.953399,374.847189 C321.906817,371.852883 317.8556,367.863147 314.800921,362.876767 L197.199079,362.876767 C194.1444,367.863147 190.093183,371.852883 185.046601,374.847189 C179.855844,377.927038 174.075668,379.460938 167.709473,379.460938 C161.413927,379.460938 155.670119,377.926219 150.480743,374.847189 C145.280322,371.761606 141.13732,367.618604 138.051737,362.418183 C134.971888,357.227426 133.437988,351.44725 133.437988,345.081055 C133.437988,338.71486 134.971888,332.934683 138.051737,327.743926 C141.045634,322.698033 145.03499,318.663834 150.021462,315.642941 L150.022164,198.098008 C145.035782,195.043329 141.046043,190.992111 138.051737,185.945527 C134.971888,180.75477 133.437988,174.974593 133.437988,168.608398 C133.437988,162.312852 134.972707,156.569045 138.051737,151.379669 C141.13732,146.179248 145.280322,142.036246 150.480743,138.950663 C155.670119,135.871632 161.413927,134.336914 167.709473,134.336914 C174.075668,134.336914 179.855844,135.870813 185.046601,138.950663 C190.093183,141.944968 194.1444,145.934705 197.199079,150.921085 L314.800921,150.921085 C317.8556,145.934705 321.906817,141.944968 326.953399,138.950663 C332.142775,135.871632 337.886583,134.336914 344.182129,134.336914 Z M312.244974,181.308707 L199.755026,181.308707 C199.12351,182.903336 198.363609,184.448894 197.475607,185.945527 C194.390024,191.145948 190.247022,195.28895 185.046601,198.374533 C183.549968,199.262535 182.00441,200.022436 180.409781,200.653951 L180.409781,313.1165 C182.006657,313.741471 183.55435,314.493687 185.05299,315.372889 C190.250842,318.422296 194.391573,322.546117 197.475607,327.743926 C198.363424,329.240246 199.123193,330.785472 199.75463,332.379747 L312.24537,332.379747 C312.876807,330.785472 313.636576,329.240246 314.524393,327.743926 C317.608427,322.546117 321.749158,318.422296 326.94701,315.372889 C328.448482,314.492025 329.99627,313.738568 331.590526,313.112822 L331.590526,200.657666 C329.99851,200.025366 328.452858,199.264212 326.953399,198.374533 C321.752978,195.28895 317.609976,191.145948 314.524393,185.945527 C313.636391,184.448894 312.87649,182.903336 312.244974,181.308707 Z"/></g><g fill-rule="nonzero"><use xlink:href="#j" fill="#000" filter="url(#k)"/><use xlink:href="#j" fill="#2E2E2E"/><use xlink:href="#j" fill="url(#l)"/><use xlink:href="#j" fill="url(#m)" fill-opacity=".8"/></g></g></svg>