<svg xmlns="http://www.w3.org/2000/svg" xmlns:xlink="http://www.w3.org/1999/xlink" width="512" height="512" viewBox="0 0 512 512"><defs><linearGradient id="c" x1="0%" x2="0%" y1="100%" y2="0%"><stop offset="0%" stop-color="#FFF"/><stop offset="100%" stop-color="#FFF"/></linearGradient><linearGradient id="g" x1="50%" x2="50%" y1="6.988%" y2="100%"><stop offset="0%" stop-color="#FFCB00"/><stop offset="5.093%" stop-color="#FFE581"/><stop offset="15.762%" stop-color="#FFEFB4"/><stop offset="36.91%" stop-color="#FFCA00"/><stop offset="67.256%" stop-color="#FFAE00"/><stop offset="95.711%" stop-color="#FF7900"/><stop offset="100%" stop-color="#BA3800"/></linearGradient><linearGradient id="i" x1="50%" x2="50%" y1="0%" y2="100%"><stop offset="0%" stop-color="#FC0"/><stop offset="6.191%" stop-color="#FFBD00"/><stop offset="15.734%" stop-color="#FFE589" stop-opacity="0"/><stop offset="52.088%" stop-color="#FFD740" stop-opacity="0"/><stop offset="71.992%" stop-color="#EF5B00" stop-opacity=".5"/><stop offset="100%" stop-color="#9F2800" stop-opacity=".5"/></linearGradient><filter id="b" width="114.6%" height="114.6%" x="-7.3%" y="-7.3%" filterUnits="objectBoundingBox"><feMorphology in="SourceAlpha" radius="10" result="shadowSpreadOuter1"/><feOffset in="shadowSpreadOuter1" result="shadowOffsetOuter1"/><feGaussianBlur in="shadowOffsetOuter1" result="shadowBlurOuter1" stdDeviation="20"/><feColorMatrix in="shadowBlurOuter1" values="0 0 0 0 1 0 0 0 0 1 0 0 0 0 1 0 0 0 0.5 0"/></filter><filter id="d" width="111.7%" height="111.7%" x="-5.8%" y="-5.8%" filterUnits="objectBoundingBox"><feMorphology in="SourceAlpha" operator="dilate" radius="1" result="shadowSpreadInner1"/><feGaussianBlur in="shadowSpreadInner1" result="shadowBlurInner1" stdDeviation="1.5"/><feOffset dx="-1" dy="-2" in="shadowBlurInner1" result="shadowOffsetInner1"/><feComposite in="shadowOffsetInner1" in2="SourceAlpha" k2="-1" k3="1" operator="arithmetic" result="shadowInnerInner1"/><feColorMatrix in="shadowInnerInner1" result="shadowMatrixInner1" values="0 0 0 0 0 0 0 0 0 0 0 0 0 0 0 0 0 0 0.1 0"/><feMorphology in="SourceAlpha" radius="4" result="shadowSpreadInner2"/><feGaussianBlur in="shadowSpreadInner2" result="shadowBlurInner2" stdDeviation="2"/><feOffset in="shadowBlurInner2" result="shadowOffsetInner2"/><feComposite in="shadowOffsetInner2" in2="SourceAlpha" k2="-1" k3="1" operator="arithmetic" result="shadowInnerInner2"/><feColorMatrix in="shadowInnerInner2" result="shadowMatrixInner2" values="0 0 0 0 0 0 0 0 0 0 0 0 0 0 0 0 0 0 0.1 0"/><feMerge><feMergeNode in="shadowMatrixInner1"/><feMergeNode in="shadowMatrixInner2"/></feMerge></filter><filter id="f" width="180.1%" height="186.2%" x="-40%" y="-27.4%" filterUnits="objectBoundingBox"><feOffset dy="40" in="SourceAlpha" result="shadowOffsetOuter1"/><feGaussianBlur in="shadowOffsetOuter1" result="shadowBlurOuter1" stdDeviation="30"/><feComposite in="shadowBlurOuter1" in2="SourceAlpha" operator="out" result="shadowBlurOuter1"/><feColorMatrix in="shadowBlurOuter1" result="shadowMatrixOuter1" values="0 0 0 0 0 0 0 0 0 0 0 0 0 0 0 0 0 0 0.25 0"/><feOffset in="SourceAlpha" result="shadowOffsetOuter2"/><feGaussianBlur in="shadowOffsetOuter2" result="shadowBlurOuter2" stdDeviation="1"/><feComposite in="shadowBlurOuter2" in2="SourceAlpha" operator="out" result="shadowBlurOuter2"/><feColorMatrix in="shadowBlurOuter2" result="shadowMatrixOuter2" values="0 0 0 0 1 0 0 0 0 1 0 0 0 0 1 0 0 0 0.5 0"/><feMerge><feMergeNode in="shadowMatrixOuter1"/><feMergeNode in="shadowMatrixOuter2"/></feMerge></filter><path id="a" d="M165.374834,50 L346.625166,50 C386.743509,50 401.29139,54.1771525 415.958057,62.0209717 C430.624723,69.8647908 442.135209,81.3752767 449.979028,96.0419433 C457.822847,110.70861 462,125.256491 462,165.374834 L462,346.625166 C462,386.743509 457.822847,401.29139 449.979028,415.958057 C442.135209,430.624723 430.624723,442.135209 415.958057,449.979028 C401.29139,457.822847 386.743509,462 346.625166,462 L165.374834,462 C125.256491,462 110.70861,457.822847 96.0419433,449.979028 C81.3752767,442.135209 69.8647908,430.624723 62.0209717,415.958057 C54.1771525,401.29139 50,386.743509 50,346.625166 L50,165.374834 C50,125.256491 54.1771525,110.70861 62.0209717,96.0419433 C69.8647908,81.3752767 81.3752767,69.8647908 96.0419433,62.0209717 C110.70861,54.1771525 125.256491,50 165.374834,50 Z"/><path id="e" d="M10.8163357,232.895559 C17.3925075,239.616262 24.9623317,244.85552 33.5258083,248.613333 C42.0892849,252.371145 51.0140896,254.502981 60.3002224,255.00884 C69.5863552,255.5147 78.5834255,254.286184 87.2914333,251.323294 C95.9994411,248.360403 103.786062,243.554739 110.651297,236.906301 C117.805593,229.896536 122.557058,222.127981 124.905691,213.600637 C127.254324,205.073294 127.254324,196.564016 124.905691,188.072805 C122.557058,179.581594 117.913992,171.794973 110.976492,164.712942 C104.761648,158.281301 97.7880153,153.7647 90.0555935,151.163137 C82.3231716,148.561575 74.5726833,148.073782 66.8041286,149.699758 C59.0355739,151.325735 51.9716091,155.246145 45.6122341,161.460989 C41.8544216,165.07427 39.2167263,168.597219 37.6991482,172.029836 C36.18157,175.462454 35.1517849,178.714407 34.6097927,181.785696 C34.0678005,184.856985 33.5438747,187.621145 33.0380153,190.078176 C32.532156,192.535208 31.4481716,194.558645 29.7860622,196.148489 C27.329031,198.533254 24.5648708,199.906301 21.4935817,200.267629 C18.4222927,200.628958 15.36907,200.990286 12.3339138,201.351614 C9.29875753,201.712942 6.55266378,203.085989 4.09563253,205.470754 C0.0487575301,209.300833 -0.999094032,213.672903 0.952077843,218.586965 C2.90324972,223.501028 6.19133566,228.270559 10.8163357,232.895559 Z M124.851492,149.862356 C130.054617,155.065481 134.336355,160.629934 137.696707,166.555715 C141.057058,172.481497 143.45989,178.515676 144.905203,184.658254 C148.157156,183.935598 151.228445,182.905813 154.11907,181.568899 C157.009695,180.231985 159.828054,178.551809 162.574148,176.528372 C163.224539,176.094778 163.838797,175.625051 164.416922,175.119192 C164.995047,174.613333 165.573172,174.107473 166.151297,173.601614 C165.500906,165.507864 163.314871,157.703176 159.593191,150.187551 C155.871511,142.671926 151.047781,135.91509 145.122,129.917044 C139.196218,123.918997 132.475515,119.041067 124.95989,115.283254 C117.444265,111.525442 109.495047,109.32134 101.112234,108.67095 C100.67864,109.176809 100.22698,109.700735 99.7572536,110.242727 C99.2875271,110.784719 98.8358669,111.344778 98.4022732,111.922903 C96.2343044,114.741262 94.4457302,117.66802 93.0365505,120.703176 C91.6273708,123.738333 90.5975857,126.845754 89.947195,130.025442 C96.0897732,131.398489 102.160086,133.747122 108.158133,137.07134 C114.156179,140.395559 119.720633,144.659231 124.851492,149.862356 Z M231.515554,5.25884039 C230.648367,5.90923102 228.408133,7.48100836 224.794851,9.97417242 C221.18157,12.4673365 216.592703,15.6650904 211.02825,19.5674341 C205.463797,23.4697779 199.267019,27.8960474 192.437918,32.8462427 C185.608816,37.796438 178.454519,43.0718287 170.975027,48.6724146 C163.495535,54.2730005 156.052175,60.0361841 148.644949,65.9619654 C141.237722,71.8877466 134.246023,77.7051295 127.669851,83.4141138 C142.701101,88.8340357 155.745047,97.1084498 166.801687,108.237356 C177.858328,119.366262 186.060476,132.337942 191.408133,147.152395 C197.189383,140.576223 203.024832,133.584524 208.91448,126.177297 C214.804129,118.770071 220.549246,111.326711 226.149832,103.847219 C231.750418,96.3677271 237.043875,89.2134302 242.030203,82.3843287 C247.016531,75.5552271 251.460867,69.3584498 255.363211,63.7939966 C259.265554,58.2295435 262.445242,53.6587427 264.902273,50.0815943 C267.359304,46.5044459 268.913015,44.2461451 269.563406,43.306692 C273.032156,38.1758326 274.766531,33.0449732 274.766531,27.9141138 C274.766531,22.7832545 273.483816,18.0859888 270.918386,13.822317 C268.352957,9.55864508 264.938406,6.18022711 260.674734,3.68706305 C256.411062,1.19389899 251.731863,-0.0346166389 246.637136,0.000741898999 C241.54241,0.0376489861 236.501883,1.79009039 231.515554,5.25884039 Z"/><radialGradient id="h" cx="86.564%" cy="0%" r="126.25%" fx="86.564%" fy="0%" gradientTransform="matrix(.9285 0 0 1.0948 .062 0)"><stop offset="0%" stop-color="#FF9E00" stop-opacity="0"/><stop offset="22.457%" stop-color="#FF9E00" stop-opacity="0"/><stop offset="66.429%" stop-color="#DE5200" stop-opacity=".4"/><stop offset="88.259%" stop-color="#DA4D00" stop-opacity=".9"/><stop offset="100%" stop-color="#9F2800"/></radialGradient></defs><g fill="none" fill-rule="evenodd"><rect width="512" height="512"/><g fill-rule="nonzero"><use xlink:href="#a" fill="#000" filter="url(#b)"/><use xlink:href="#a" fill="url(#c)"/><use xlink:href="#a" fill="#000" filter="url(#d)"/></g><path fill="#DBDBDB" d="M178,50 L178,179 L462,179 L462,187 L178,187 L178,462 L170,462 L170,50 L178,50 Z"/><g fill-rule="nonzero" transform="translate(118.574 128.445)"><use xlink:href="#e" fill="#000" filter="url(#f)"/><use xlink:href="#e" fill="#2E2E2E"/><use xlink:href="#e" fill="url(#g)"/><path fill="url(#h)" fill-opacity=".8" fill-rule="evenodd" stroke="url(#i)" stroke-linejoin="square" stroke-width="3" d="M67.1114234,151.167944 C74.6178188,149.596838 82.1063169,150.071237 89.5772676,152.584828 C97.0899633,155.112464 103.860532,159.507388 109.904954,165.762612 C116.650413,172.648602 121.175847,180.214684 123.459974,188.472684 C125.735183,196.698439 125.734726,204.941655 123.45954,213.202333 C121.17777,221.486912 116.550287,229.02648 109.607787,235.828764 C102.906957,242.317989 95.3081369,247.011169 86.8082623,249.903242 C78.2824494,252.804141 69.4735755,254.006332 60.3818135,253.511061 C51.2763945,253.015046 42.5253519,250.924432 34.1285564,247.239762 C25.7419938,243.559583 18.3287474,238.428321 11.8884614,231.84649 C7.41428466,227.372188 4.22952508,222.776599 2.34620231,218.033416 C1.49792861,215.897023 1.27662382,213.877319 1.73327792,211.971969 C2.19592762,210.041603 3.34443408,208.246991 5.12670977,206.560195 C7.33937031,204.412778 9.79068701,203.164971 12.5112331,202.841096 C15.5457076,202.479849 18.5982444,202.118602 21.6688436,201.757355 C25.0576575,201.358671 28.1167391,199.859071 30.8228962,197.232452 C32.6996787,195.437268 33.9354529,193.157718 34.5072009,190.380656 C35.015611,187.911235 35.5422429,185.13315 36.086968,182.046374 C36.6098379,179.083444 37.607164,175.947543 39.0710539,172.636363 C40.5224137,169.353525 43.0601362,165.995855 46.6606335,162.53377 C52.7985086,156.535392 59.6108511,152.737832 67.1114234,151.167944 Z M101.752107,110.229522 C109.662225,110.935866 117.174552,113.067636 124.28907,116.624895 C131.657027,120.308874 138.245591,125.091071 144.054931,130.971256 C149.867147,136.854353 154.59861,143.481585 158.248975,150.853197 C161.769134,157.961866 163.884344,165.334963 164.591413,172.97336 L163.429165,173.990327 C162.899908,174.453426 162.337507,174.883357 161.742098,175.280296 C159.022599,177.282078 156.291309,178.911577 153.489404,180.207458 C151.119766,181.303416 148.624409,182.185385 146.003398,182.853634 C144.501338,177.080387 142.168539,171.400659 139.001512,165.815795 C135.576899,159.776691 131.214921,154.104465 125.919543,148.809139 C120.684191,143.500049 115.005294,139.151189 108.885254,135.75936 C103.231191,132.625782 97.5135913,130.342672 91.7346734,128.905835 C92.3607485,126.332358 93.2484537,123.808773 94.397064,121.334843 C95.7609497,118.397243 97.4929755,115.565173 99.5912091,112.837469 C100.014601,112.273132 100.444098,111.740533 100.890787,111.225123 C101.184519,110.886202 101.471213,110.554318 101.752107,110.229522 Z M246.647547,1.50070578 C251.463044,1.46728515 255.887023,2.62509335 259.917563,4.98193468 C263.961683,7.3467165 267.199847,10.5516486 269.633109,14.5956618 C272.05775,18.6253473 273.266531,23.0654974 273.266531,27.9141138 C273.266531,32.7698238 271.600171,37.6157587 268.32064,42.4665677 C267.664275,43.4147851 266.112674,45.6700374 263.665846,49.2323312 C261.210963,52.8063514 258.034044,57.3731461 254.135113,62.932733 C250.237652,68.4902235 245.798853,74.6792296 240.818764,81.499786 C235.83581,88.3242657 230.545932,95.4737175 224.949136,102.948148 C219.357196,110.416093 213.620945,117.84796 207.740388,125.243751 C202.427049,131.926172 197.157986,138.269524 191.932745,144.271128 C186.506583,130.231451 178.484124,117.867884 167.865797,107.180156 C157.241413,96.4863327 144.808374,88.3901496 130.566739,82.8926699 C136.566789,77.7277976 142.905223,72.4746834 149.581992,67.1332686 C156.976624,61.2175629 164.407324,55.4641737 171.874099,49.8731103 C179.347067,44.2774093 186.495119,39.0066125 193.318264,34.0607347 C200.14036,29.1156176 206.330768,24.6938728 211.889513,20.7955323 C217.450179,16.8958447 222.035917,13.7002597 225.646739,11.2087926 C229.271455,8.70773877 231.523909,7.12670023 232.405769,6.46683966 C237.102293,3.20742081 241.84487,1.53549727 246.647547,1.50070578 Z"/></g></g></svg>