<svg xmlns="http://www.w3.org/2000/svg" xmlns:xlink="http://www.w3.org/1999/xlink" width="512" height="512" viewBox="0 0 512 512"><defs><linearGradient id="c" x1="0%" x2="0%" y1="100%" y2="0%"><stop offset="0%" stop-color="#FFF"/><stop offset="100%" stop-color="#FFF"/></linearGradient><linearGradient id="g" x1="64.691%" x2="35.986%" y1="-51.042%" y2="117.245%"><stop offset="0%" stop-color="#FFCB00"/><stop offset="5.093%" stop-color="#FFE581"/><stop offset="15.762%" stop-color="#FFEFB4"/><stop offset="36.91%" stop-color="#FFCA00"/><stop offset="67.256%" stop-color="#FFAE00"/><stop offset="95.711%" stop-color="#FF7900"/><stop offset="100%" stop-color="#BA3800"/></linearGradient><linearGradient id="i" x1="72.539%" x2="34.193%" y1="-37.315%" y2="100%"><stop offset="0%" stop-color="#FC0"/><stop offset="6.191%" stop-color="#FFBD00"/><stop offset="15.734%" stop-color="#FFE589" stop-opacity="0"/><stop offset="52.088%" stop-color="#FFD740" stop-opacity="0"/><stop offset="71.992%" stop-color="#EF5B00" stop-opacity=".5"/><stop offset="100%" stop-color="#9F2800" stop-opacity=".5"/></linearGradient><filter id="b" width="114.6%" height="114.6%" x="-7.3%" y="-7.3%" filterUnits="objectBoundingBox"><feMorphology in="SourceAlpha" radius="10" result="shadowSpreadOuter1"/><feOffset in="shadowSpreadOuter1" result="shadowOffsetOuter1"/><feGaussianBlur in="shadowOffsetOuter1" result="shadowBlurOuter1" stdDeviation="20"/><feColorMatrix in="shadowBlurOuter1" values="0 0 0 0 1 0 0 0 0 1 0 0 0 0 1 0 0 0 0.5 0"/></filter><filter id="d" width="111.7%" height="111.7%" x="-5.8%" y="-5.8%" filterUnits="objectBoundingBox"><feMorphology in="SourceAlpha" operator="dilate" radius="1" result="shadowSpreadInner1"/><feGaussianBlur in="shadowSpreadInner1" result="shadowBlurInner1" stdDeviation="1.5"/><feOffset dx="-1" dy="-2" in="shadowBlurInner1" result="shadowOffsetInner1"/><feComposite in="shadowOffsetInner1" in2="SourceAlpha" k2="-1" k3="1" operator="arithmetic" result="shadowInnerInner1"/><feColorMatrix in="shadowInnerInner1" result="shadowMatrixInner1" values="0 0 0 0 0 0 0 0 0 0 0 0 0 0 0 0 0 0 0.1 0"/><feMorphology in="SourceAlpha" radius="4" result="shadowSpreadInner2"/><feGaussianBlur in="shadowSpreadInner2" result="shadowBlurInner2" stdDeviation="2"/><feOffset in="shadowBlurInner2" result="shadowOffsetInner2"/><feComposite in="shadowOffsetInner2" in2="SourceAlpha" k2="-1" k3="1" operator="arithmetic" result="shadowInnerInner2"/><feColorMatrix in="shadowInnerInner2" result="shadowMatrixInner2" values="0 0 0 0 0 0 0 0 0 0 0 0 0 0 0 0 0 0 0.1 0"/><feMerge><feMergeNode in="shadowMatrixInner1"/><feMergeNode in="shadowMatrixInner2"/></feMerge></filter><filter id="f" width="221.5%" height="181.6%" x="-60.8%" y="-26%" filterUnits="objectBoundingBox"><feOffset dy="40" in="SourceAlpha" result="shadowOffsetOuter1"/><feGaussianBlur in="shadowOffsetOuter1" result="shadowBlurOuter1" stdDeviation="30"/><feComposite in="shadowBlurOuter1" in2="SourceAlpha" operator="out" result="shadowBlurOuter1"/><feColorMatrix in="shadowBlurOuter1" result="shadowMatrixOuter1" values="0 0 0 0 0 0 0 0 0 0 0 0 0 0 0 0 0 0 0.25 0"/><feOffset in="SourceAlpha" result="shadowOffsetOuter2"/><feGaussianBlur in="shadowOffsetOuter2" result="shadowBlurOuter2" stdDeviation="1"/><feComposite in="shadowBlurOuter2" in2="SourceAlpha" operator="out" result="shadowBlurOuter2"/><feColorMatrix in="shadowBlurOuter2" result="shadowMatrixOuter2" values="0 0 0 0 1 0 0 0 0 1 0 0 0 0 1 0 0 0 0.5 0"/><feMerge><feMergeNode in="shadowMatrixOuter1"/><feMergeNode in="shadowMatrixOuter2"/></feMerge></filter><path id="a" d="M165.374834,50 L346.625166,50 C386.743509,50 401.29139,54.1771525 415.958057,62.0209717 C430.624723,69.8647908 442.135209,81.3752767 449.979028,96.0419433 C457.822847,110.70861 462,125.256491 462,165.374834 L462,346.625166 C462,386.743509 457.822847,401.29139 449.979028,415.958057 C442.135209,430.624723 430.624723,442.135209 415.958057,449.979028 C401.29139,457.822847 386.743509,462 346.625166,462 L165.374834,462 C125.256491,462 110.70861,457.822847 96.0419433,449.979028 C81.3752767,442.135209 69.8647908,430.624723 62.0209717,415.958057 C54.1771525,401.29139 50,386.743509 50,346.625166 L50,165.374834 C50,125.256491 54.1771525,110.70861 62.0209717,96.0419433 C69.8647908,81.3752767 81.3752767,69.8647908 96.0419433,62.0209717 C110.70861,54.1771525 125.256491,50 165.374834,50 Z"/><path id="e" d="M165.487305,278.828125 C165.487305,281.791016 166.499023,284.193848 168.522461,286.036621 C170.545898,287.879395 173.039062,288.800781 176.001953,288.800781 L245.918945,288.800781 L209.713867,382.240234 C208.34082,385.925781 208.087891,389.105469 208.955078,391.779297 C209.822266,394.453125 211.394043,396.38623 213.67041,397.578613 C215.946777,398.770996 218.494141,399.041992 221.3125,398.391602 C224.130859,397.741211 226.804688,395.93457 229.333984,392.97168 L342.935547,257.907227 C345.320313,255.088867 346.512695,252.125977 346.512695,249.018555 C346.512695,246.055664 345.519043,243.634766 343.531738,241.755859 C341.544434,239.876953 339.033203,238.9375 335.998047,238.9375 L266.081055,238.9375 L302.286133,145.498047 C303.731445,141.8125 304.002441,138.650879 303.099121,136.013184 C302.195801,133.375488 300.605957,131.460449 298.32959,130.268066 C296.053223,129.075684 293.505859,128.804687 290.6875,129.455078 C287.869141,130.105469 285.195313,131.875977 282.666016,134.766602 L169.064453,269.939453 C166.679688,272.685547 165.487305,275.648437 165.487305,278.828125 Z"/><radialGradient id="h" cx="114.939%" cy="34.043%" r="117.132%" fx="114.939%" fy="34.043%" gradientTransform="matrix(.99768 -.04571 .06808 .66984 -.02 .165)"><stop offset="0%" stop-color="#FF9E00" stop-opacity="0"/><stop offset="22.457%" stop-color="#FF9E00" stop-opacity="0"/><stop offset="66.429%" stop-color="#DE5200" stop-opacity=".4"/><stop offset="88.259%" stop-color="#DA4D00" stop-opacity=".9"/><stop offset="100%" stop-color="#9F2800"/></radialGradient></defs><g fill="none" fill-rule="evenodd"><rect width="512" height="512"/><g fill-rule="nonzero"><use xlink:href="#a" fill="#000" filter="url(#b)"/><use xlink:href="#a" fill="url(#c)"/><use xlink:href="#a" fill="#000" filter="url(#d)"/></g><path fill="#DBDBDB" d="M178,50 L178,179 L462,179 L462,187 L178,187 L178,462 L170,462 L170,50 L178,50 Z"/><g fill-rule="nonzero"><use xlink:href="#e" fill="#000" filter="url(#f)"/><use xlink:href="#e" fill="#2E2E2E"/><use xlink:href="#e" fill="#2E2E2E"/><use xlink:href="#e" fill="url(#g)"/><path fill="url(#h)" fill-opacity=".8" fill-rule="evenodd" stroke="url(#i)" stroke-linejoin="square" stroke-width="3" d="M291.024789,130.916665 C293.457881,130.355182 295.663389,130.564809 297.633579,131.596814 C299.573548,132.612988 300.911942,134.256349 301.680032,136.499173 C302.487296,138.856384 302.173935,141.675548 300.887457,144.956101 L263.891184,240.4375 L335.998047,240.4375 C338.611133,240.4375 340.785756,241.223935 342.501221,242.845829 C344.190275,244.442753 345.012695,246.50698 345.012695,249.018555 C345.012695,251.794976 343.915281,254.42717 341.787607,256.941704 L228.193138,391.997786 C225.913737,394.667941 223.523933,396.341848 220.975211,396.930015 C218.542119,397.491497 216.336611,397.281871 214.366421,396.249866 C212.432665,395.236946 211.116619,393.581887 210.381912,391.31654 C209.603228,388.915597 209.890645,386.066174 211.116127,382.772932 L248.108816,287.300781 L176.001953,287.300781 C173.443942,287.300781 171.282658,286.521542 169.532455,284.927608 C167.82032,283.368341 166.987305,281.328066 166.987305,278.828125 C166.987305,275.990268 168.07878,273.358782 170.204802,270.914008 L283.804581,135.743279 C286.084543,133.140713 288.476663,131.504694 291.024789,130.916665 Z"/></g></g></svg>