<svg xmlns="http://www.w3.org/2000/svg" xmlns:xlink="http://www.w3.org/1999/xlink" width="512" height="512" viewBox="0 0 512 512"><defs><linearGradient id="c" x1="0%" x2="0%" y1="100%" y2="0%"><stop offset="0%" stop-color="#FFF"/><stop offset="100%" stop-color="#FFF"/></linearGradient><linearGradient id="g" x1="122.596%" x2="3.494%" y1="53.494%" y2="53.494%"><stop offset="0%" stop-color="#FFCB00"/><stop offset="15.958%" stop-color="#FFE581"/><stop offset="25.213%" stop-color="#FFEFB4"/><stop offset="36.91%" stop-color="#FFCA00"/><stop offset="67.256%" stop-color="#FFAE00"/><stop offset="95.711%" stop-color="#FF7900"/><stop offset="100%" stop-color="#BA3800"/></linearGradient><linearGradient id="i" x1="108.631%" x2="0%" y1="50%" y2="50%"><stop offset="0%" stop-color="#FC0"/><stop offset="6.191%" stop-color="#FFBD00"/><stop offset="15.734%" stop-color="#FFE589" stop-opacity="0"/><stop offset="52.088%" stop-color="#FFD740" stop-opacity="0"/><stop offset="71.992%" stop-color="#EF5B00" stop-opacity=".5"/><stop offset="100%" stop-color="#9F2800" stop-opacity=".5"/></linearGradient><linearGradient id="l" x1="114.601%" x2="-69.371%" y1="54.21%" y2="49.074%"><stop offset="0%" stop-color="#FFCB00"/><stop offset="19.68%" stop-color="#FFE581"/><stop offset="30.787%" stop-color="#FFEFB4"/><stop offset="49.247%" stop-color="#FFCA00"/><stop offset="58.936%" stop-color="#FFAE00"/><stop offset="64.206%" stop-color="#FF7900"/><stop offset="100%" stop-color="#BA3800"/></linearGradient><linearGradient id="n" x1="116.64%" x2="-78.253%" y1="50%" y2="49.191%"><stop offset="0%" stop-color="#FC0"/><stop offset="6.191%" stop-color="#FFBD00"/><stop offset="15.734%" stop-color="#FFE589" stop-opacity="0"/><stop offset="52.088%" stop-color="#FFD740" stop-opacity="0"/><stop offset="71.992%" stop-color="#EF5B00" stop-opacity=".5"/><stop offset="100%" stop-color="#9F2800" stop-opacity=".5"/></linearGradient><filter id="b" width="114.6%" height="114.6%" x="-7.3%" y="-7.3%" filterUnits="objectBoundingBox"><feMorphology in="SourceAlpha" radius="10" result="shadowSpreadOuter1"/><feOffset in="shadowSpreadOuter1" result="shadowOffsetOuter1"/><feGaussianBlur in="shadowOffsetOuter1" result="shadowBlurOuter1" stdDeviation="20"/><feColorMatrix in="shadowBlurOuter1" values="0 0 0 0 1 0 0 0 0 1 0 0 0 0 1 0 0 0 0.5 0"/></filter><filter id="d" width="111.7%" height="111.7%" x="-5.8%" y="-5.8%" filterUnits="objectBoundingBox"><feMorphology in="SourceAlpha" operator="dilate" radius="1" result="shadowSpreadInner1"/><feGaussianBlur in="shadowSpreadInner1" result="shadowBlurInner1" stdDeviation="1.5"/><feOffset dx="-1" dy="-2" in="shadowBlurInner1" result="shadowOffsetInner1"/><feComposite in="shadowOffsetInner1" in2="SourceAlpha" k2="-1" k3="1" operator="arithmetic" result="shadowInnerInner1"/><feColorMatrix in="shadowInnerInner1" result="shadowMatrixInner1" values="0 0 0 0 0 0 0 0 0 0 0 0 0 0 0 0 0 0 0.1 0"/><feMorphology in="SourceAlpha" radius="4" result="shadowSpreadInner2"/><feGaussianBlur in="shadowSpreadInner2" result="shadowBlurInner2" stdDeviation="2"/><feOffset in="shadowBlurInner2" result="shadowOffsetInner2"/><feComposite in="shadowOffsetInner2" in2="SourceAlpha" k2="-1" k3="1" operator="arithmetic" result="shadowInnerInner2"/><feColorMatrix in="shadowInnerInner2" result="shadowMatrixInner2" values="0 0 0 0 0 0 0 0 0 0 0 0 0 0 0 0 0 0 0.1 0"/><feMerge><feMergeNode in="shadowMatrixInner1"/><feMergeNode in="shadowMatrixInner2"/></feMerge></filter><filter id="f" width="200%" height="198.2%" x="-67%" y="-49.1%" filterUnits="objectBoundingBox"><feOffset dx="-40" in="SourceAlpha" result="shadowOffsetOuter1"/><feGaussianBlur in="shadowOffsetOuter1" result="shadowBlurOuter1" stdDeviation="30"/><feComposite in="shadowBlurOuter1" in2="SourceAlpha" operator="out" result="shadowBlurOuter1"/><feColorMatrix in="shadowBlurOuter1" result="shadowMatrixOuter1" values="0 0 0 0 0 0 0 0 0 0 0 0 0 0 0 0 0 0 0.25 0"/><feMorphology in="SourceAlpha" operator="dilate" radius="2" result="shadowSpreadOuter2"/><feOffset in="shadowSpreadOuter2" result="shadowOffsetOuter2"/><feGaussianBlur in="shadowOffsetOuter2" result="shadowBlurOuter2" stdDeviation="10"/><feComposite in="shadowBlurOuter2" in2="SourceAlpha" operator="out" result="shadowBlurOuter2"/><feColorMatrix in="shadowBlurOuter2" result="shadowMatrixOuter2" values="0 0 0 0 1 0 0 0 0 1 0 0 0 0 1 0 0 0 1 0"/><feMerge><feMergeNode in="shadowMatrixOuter1"/><feMergeNode in="shadowMatrixOuter2"/></feMerge></filter><filter id="k" width="222.6%" height="222.6%" x="-61.3%" y="-54.8%" filterUnits="objectBoundingBox"><feOffset dy="10" in="SourceAlpha" result="shadowOffsetOuter1"/><feGaussianBlur in="shadowOffsetOuter1" result="shadowBlurOuter1" stdDeviation="30"/><feComposite in="shadowBlurOuter1" in2="SourceAlpha" operator="out" result="shadowBlurOuter1"/><feColorMatrix in="shadowBlurOuter1" result="shadowMatrixOuter1" values="0 0 0 0 0 0 0 0 0 0 0 0 0 0 0 0 0 0 0.233418925 0"/><feMorphology in="SourceAlpha" operator="dilate" radius="2" result="shadowSpreadOuter2"/><feOffset in="shadowSpreadOuter2" result="shadowOffsetOuter2"/><feGaussianBlur in="shadowOffsetOuter2" result="shadowBlurOuter2" stdDeviation="10"/><feComposite in="shadowBlurOuter2" in2="SourceAlpha" operator="out" result="shadowBlurOuter2"/><feColorMatrix in="shadowBlurOuter2" result="shadowMatrixOuter2" values="0 0 0 0 1 0 0 0 0 1 0 0 0 0 1 0 0 0 0.370875219 0"/><feMerge><feMergeNode in="shadowMatrixOuter1"/><feMergeNode in="shadowMatrixOuter2"/></feMerge></filter><path id="a" d="M165.374834,50 L346.625166,50 C386.743509,50 401.29139,54.1771525 415.958057,62.0209717 C430.624723,69.8647908 442.135209,81.3752767 449.979028,96.0419433 C457.822847,110.70861 462,125.256491 462,165.374834 L462,346.625166 C462,386.743509 457.822847,401.29139 449.979028,415.958057 C442.135209,430.624723 430.624723,442.135209 415.958057,449.979028 C401.29139,457.822847 386.743509,462 346.625166,462 L165.374834,462 C125.256491,462 110.70861,457.822847 96.0419433,449.979028 C81.3752767,442.135209 69.8647908,430.624723 62.0209717,415.958057 C54.1771525,401.29139 50,386.743509 50,346.625166 L50,165.374834 C50,125.256491 54.1771525,110.70861 62.0209717,96.0419433 C69.8647908,81.3752767 81.3752767,69.8647908 96.0419433,62.0209717 C110.70861,54.1771525 125.256491,50 165.374834,50 Z"/><path id="e" d="M145.692811,167.57487 L312.442811,207.82487 C320.013124,209.652187 325.834314,215.707695 327.361614,223.344192 L344.611614,309.594192 C345.923055,316.151397 343.870604,322.930182 339.142136,327.65865 L281.642136,385.15865 C276.913667,389.887118 270.134883,391.939569 263.577677,390.628128 L177.327677,373.378128 C169.69118,371.850829 163.635673,366.029638 161.808356,358.459325 L121.558356,191.709325 C118.049168,177.171262 131.154748,164.065683 145.692811,167.57487 Z M166.656854,201.35966 C163.53266,198.235466 158.46734,198.235466 155.343146,201.35966 C152.218951,204.483855 152.218951,209.549174 155.343146,212.673369 L216.201133,273.531168 C213.21652,278.493084 211.5,284.304342 211.5,290.516515 C211.5,308.741911 226.274603,323.516515 244.5,323.516515 C262.725397,323.516515 277.5,308.741911 277.5,290.516515 C277.5,272.291118 262.725397,257.516515 244.5,257.516515 C238.287827,257.516515 232.476569,259.233035 227.514654,262.217647 L166.656854,201.35966 Z"/><path id="j" d="M322.357864,126.857864 C330.16835,119.047379 342.83165,119.047379 350.642136,126.857864 L385.142136,161.357864 C392.952621,169.16835 392.952621,181.83165 385.142136,189.642136 L304.642136,270.142136 C296.83165,277.952621 284.16835,277.952621 276.357864,270.142136 L241.857864,235.642136 C234.047379,227.83165 234.047379,215.16835 241.857864,207.357864 L322.357864,126.857864 Z"/><radialGradient id="h" cx="123.087%" cy="47.267%" r="121.527%" fx="123.087%" fy="47.267%"><stop offset="0%" stop-color="#FF9E00" stop-opacity="0"/><stop offset="22.457%" stop-color="#FF9E00" stop-opacity="0"/><stop offset="66.429%" stop-color="#DE5200" stop-opacity=".4"/><stop offset="88.259%" stop-color="#DA4D00" stop-opacity=".9"/><stop offset="100%" stop-color="#9F2800"/></radialGradient><radialGradient id="m" cx="73.67%" cy="36.508%" r="116.507%" fx="73.67%" fy="36.508%"><stop offset="0%" stop-color="#FF9E00" stop-opacity="0"/><stop offset="22.457%" stop-color="#FF9E00" stop-opacity="0"/><stop offset="66.429%" stop-color="#DE5200" stop-opacity=".4"/><stop offset="88.259%" stop-color="#DA4D00" stop-opacity=".9"/><stop offset="100%" stop-color="#9F2800"/></radialGradient></defs><g fill="none" fill-rule="evenodd"><rect width="512" height="512"/><g fill-rule="nonzero"><use xlink:href="#a" fill="#000" filter="url(#b)"/><use xlink:href="#a" fill="url(#c)"/><use xlink:href="#a" fill="#000" filter="url(#d)"/></g><path fill="#DBDBDB" d="M178,50 L178,179 L462,179 L462,187 L178,187 L178,462 L170,462 L170,50 L178,50 Z"/><g fill-rule="nonzero" transform="rotate(-90 232.992 279.008)"><use xlink:href="#e" fill="#000" filter="url(#f)"/><use xlink:href="#e" fill="url(#g)"/><path fill="url(#h)" fill-opacity=".8" fill-rule="evenodd" stroke="url(#i)" stroke-linejoin="square" stroke-width="3" d="M145.34085,169.032994 L312.09085,209.282994 C315.59212,210.128128 318.688905,211.951031 321.086967,214.445621 C323.485028,216.94021 325.184367,220.106486 325.890743,223.638366 L343.140743,309.888366 C344.353826,315.953781 342.455308,322.224157 338.081475,326.59799 L280.581475,384.09799 C276.207642,388.471823 269.937267,390.37034 263.871851,389.157257 L177.621851,371.907257 C174.089972,371.200881 170.923696,369.501543 168.429106,367.103481 C165.934516,364.705419 164.111613,361.608634 163.266479,358.107364 L123.016479,191.357364 C121.39348,184.63351 123.612646,178.240918 127.918525,173.935039 C132.224404,169.62916 138.616996,167.409994 145.34085,169.032994 Z M161,197.516515 C158.568738,197.516515 156.137476,198.44401 154.282486,200.299 C152.427495,202.15399 151.5,204.585253 151.5,207.016515 C151.5,209.447777 152.427495,211.879039 154.282486,213.734029 L214.326041,273.777399 C211.570182,278.734823 210,284.442262 210,290.516515 C210,300.043426 213.861544,308.668426 220.104816,314.911698 C226.348088,321.15497 234.973088,325.016515 244.5,325.016515 C254.026912,325.016515 262.651912,321.15497 268.895184,314.911698 C275.138456,308.668426 279,300.043426 279,290.516515 C279,280.989603 275.138456,272.364603 268.895184,266.121331 C262.651912,259.878059 254.026912,256.016515 244.5,256.016515 C238.425748,256.016515 232.718309,257.586696 227.760885,260.342556 L167.717516,200.299002 C165.862524,198.44401 163.431262,197.516515 161,197.516515 Z"/></g><g fill-rule="nonzero" transform="rotate(-90 313.5 198.5)"><use xlink:href="#j" fill="#000" filter="url(#k)"/><use xlink:href="#j" fill="url(#l)"/><path fill="url(#m)" fill-opacity=".8" fill-rule="evenodd" stroke="url(#n)" stroke-linejoin="square" stroke-width="3" d="M336.5,122.5 C341.234563,122.5 345.969126,124.306175 349.581475,127.918525 L384.081475,162.418525 C387.693825,166.030874 389.5,170.765437 389.5,175.5 C389.5,180.234563 387.693825,184.969126 384.081475,188.581475 L303.581475,269.081475 C299.969126,272.693825 295.234563,274.5 290.5,274.5 C285.765437,274.5 281.030874,272.693825 277.418525,269.081475 L242.918525,234.581475 C239.306175,230.969126 237.5,226.234563 237.5,221.5 C237.5,216.765437 239.306175,212.030874 242.918525,208.418525 L323.418525,127.918525 C327.030874,124.306175 331.765437,122.5 336.5,122.5 Z"/></g></g></svg>