<svg xmlns="http://www.w3.org/2000/svg" xmlns:xlink="http://www.w3.org/1999/xlink" width="612" height="612" viewBox="0 0 612 612"><defs><filter id="b" width="114.6%" height="114.6%" x="-7.3%" y="-7.3%" filterUnits="objectBoundingBox"><feMorphology in="SourceAlpha" radius="10" result="shadowSpreadOuter1"/><feOffset in="shadowSpreadOuter1" result="shadowOffsetOuter1"/><feGaussianBlur in="shadowOffsetOuter1" result="shadowBlurOuter1" stdDeviation="20"/><feColorMatrix in="shadowBlurOuter1" values="0 0 0 0 1 0 0 0 0 1 0 0 0 0 1 0 0 0 0.5 0"/></filter><filter id="d" width="110.7%" height="110.7%" x="-5.3%" y="-5.3%" filterUnits="objectBoundingBox"><feMorphology in="SourceAlpha" operator="dilate" radius="1" result="shadowSpreadInner1"/><feGaussianBlur in="shadowSpreadInner1" result="shadowBlurInner1" stdDeviation="1.5"/><feOffset dx="-1" dy="-2" in="shadowBlurInner1" result="shadowOffsetInner1"/><feComposite in="shadowOffsetInner1" in2="SourceAlpha" k2="-1" k3="1" operator="arithmetic" result="shadowInnerInner1"/><feColorMatrix in="shadowInnerInner1" result="shadowMatrixInner1" values="0 0 0 0 0 0 0 0 0 0 0 0 0 0 0 0 0 0 0.1 0"/><feMorphology in="SourceAlpha" operator="dilate" radius="1" result="shadowSpreadInner2"/><feGaussianBlur in="shadowSpreadInner2" result="shadowBlurInner2" stdDeviation="1.5"/><feOffset dx="2" dy="2" in="shadowBlurInner2" result="shadowOffsetInner2"/><feComposite in="shadowOffsetInner2" in2="SourceAlpha" k2="-1" k3="1" operator="arithmetic" result="shadowInnerInner2"/><feColorMatrix in="shadowInnerInner2" result="shadowMatrixInner2" values="0 0 0 0 1 0 0 0 0 1 0 0 0 0 1 0 0 0 0.1 0"/><feMerge><feMergeNode in="shadowMatrixInner1"/><feMergeNode in="shadowMatrixInner2"/></feMerge></filter><filter id="f" width="282.3%" height="216.5%" x="-91.2%" y="-49.4%" filterUnits="objectBoundingBox"><feMorphology in="SourceAlpha" operator="dilate" radius="31" result="shadowSpreadOuter1"/><feOffset dy="20" in="shadowSpreadOuter1" result="shadowOffsetOuter1"/><feGaussianBlur in="shadowOffsetOuter1" result="shadowBlurOuter1" stdDeviation="30"/><feComposite in="shadowBlurOuter1" in2="SourceAlpha" operator="out" result="shadowBlurOuter1"/><feColorMatrix in="shadowBlurOuter1" values="0 0 0 0 0 0 0 0 0 0 0 0 0 0 0 0 0 0 0.25 0"/></filter><path id="a" d="M215.374834,120 L396.625166,120 C436.743509,120 451.29139,124.177153 465.958057,132.020972 C480.624723,139.864791 492.135209,151.375277 499.979028,166.041943 C507.822847,180.70861 512,195.256491 512,235.374834 L512,416.625166 C512,456.743509 507.822847,471.29139 499.979028,485.958057 C492.135209,500.624723 480.624723,512.135209 465.958057,519.979028 C451.29139,527.822847 436.743509,532 396.625166,532 L215.374834,532 C175.256491,532 160.70861,527.822847 146.041943,519.979028 C131.375277,512.135209 119.864791,500.624723 112.020972,485.958057 C104.177153,471.29139 100,456.743509 100,416.625166 L100,235.374834 C100,195.256491 104.177153,180.70861 112.020972,166.041943 C119.864791,151.375277 131.375277,139.864791 146.041943,132.020972 C160.70861,124.177153 175.256491,120 215.374834,120 Z"/><path id="e" d="M234.152919,336.481262 C234.152919,338.53303 234.85876,340.236244 236.270442,341.590904 C237.682124,342.945564 239.494502,343.622894 241.707576,343.622894 L298.880702,343.622894 L268.837764,424.455566 C267.803147,427.164886 267.61333,429.494316 268.268314,431.443855 C268.923297,433.393394 270.071445,434.803279 271.712757,435.673508 C273.354068,436.543737 275.201892,436.723279 277.256229,436.212135 C279.310565,435.700991 281.220292,434.365595 282.985408,432.205948 L375.15623,318.171005 C376.950115,315.928136 377.847057,313.715062 377.847057,311.531784 C377.847057,309.481043 377.144298,307.775261 375.73878,306.414436 C374.333263,305.053612 372.517803,304.373199 370.2924,304.373199 L313.119274,304.373199 L343.162212,223.540527 C344.209158,220.884633 344.402057,218.584999 343.740909,216.641624 C343.079761,214.69825 341.928531,213.291448 340.287219,212.421219 C338.645908,211.55099 336.798084,211.358091 334.743747,211.842522 C332.689411,212.326953 330.779684,213.66954 329.014568,215.870285 L236.843746,329.843582 C235.049861,332.127548 234.152919,334.340108 234.152919,336.481262 Z"/><linearGradient id="c" x1="0%" x2="0%" y1="100%" y2="0%"><stop offset="0%" stop-color="#FEFCED"/><stop offset="100%" stop-color="#FEFCED"/></linearGradient></defs><g fill="none" fill-rule="evenodd"><rect width="612" height="612"/><rect width="412" height="412" x="101" y="120"/><g fill-rule="nonzero"><use xlink:href="#a" fill="#000" filter="url(#b)"/><use xlink:href="#a" fill="url(#c)"/><use xlink:href="#a" fill="#000" filter="url(#d)"/></g><g fill-rule="nonzero"><use xlink:href="#e" fill="#000" filter="url(#f)"/><path fill="#FF5260" fill-rule="evenodd" stroke="#FFF" stroke-width="31" d="M331.186278,196.756289 C337.298597,195.31495 342.722384,196.168462 347.547946,198.726992 C352.603705,201.407573 356.356657,205.599244 358.414964,211.64942 C360.062674,216.492689 360.280161,222.279858 357.645894,229.062287 L335.416077,288.873199 L370.2924,288.873199 C377.01709,288.873199 382.332571,291.223944 386.520456,295.278662 C390.984497,299.600754 393.347057,304.980559 393.347057,311.531784 C393.347057,316.805136 391.663308,322.362844 387.232262,327.888032 L295.017446,441.977405 C290.73569,447.23111 285.897849,450.034574 280.998713,451.253538 C274.814777,452.792177 269.330182,451.954147 264.45203,449.367735 C259.38151,446.679328 255.621136,442.469354 253.575379,436.380217 C251.967492,431.594389 251.742423,425.820348 254.329491,418.999969 L276.583899,359.122894 L241.707576,359.122894 C235.038451,359.122894 229.736584,356.803126 225.538487,352.774603 C221.036993,348.454939 218.652919,343.062789 218.652919,336.481262 C218.652919,331.331163 220.291974,325.782593 224.732145,320.170522 L316.945673,206.144418 C321.296432,200.731356 326.226064,197.925952 331.186278,196.756289 Z"/></g></g></svg>