<svg xmlns="http://www.w3.org/2000/svg" xmlns:xlink="http://www.w3.org/1999/xlink" width="612" height="612" viewBox="0 0 612 612"><defs><filter id="b" width="114.6%" height="114.6%" x="-7.3%" y="-7.3%" filterUnits="objectBoundingBox"><feMorphology in="SourceAlpha" radius="10" result="shadowSpreadOuter1"/><feOffset in="shadowSpreadOuter1" result="shadowOffsetOuter1"/><feGaussianBlur in="shadowOffsetOuter1" result="shadowBlurOuter1" stdDeviation="20"/><feColorMatrix in="shadowBlurOuter1" values="0 0 0 0 1 0 0 0 0 1 0 0 0 0 1 0 0 0 0.5 0"/></filter><filter id="d" width="110.7%" height="110.7%" x="-5.3%" y="-5.3%" filterUnits="objectBoundingBox"><feMorphology in="SourceAlpha" operator="dilate" radius="1" result="shadowSpreadInner1"/><feGaussianBlur in="shadowSpreadInner1" result="shadowBlurInner1" stdDeviation="1.5"/><feOffset dx="-1" dy="-2" in="shadowBlurInner1" result="shadowOffsetInner1"/><feComposite in="shadowOffsetInner1" in2="SourceAlpha" k2="-1" k3="1" operator="arithmetic" result="shadowInnerInner1"/><feColorMatrix in="shadowInnerInner1" result="shadowMatrixInner1" values="0 0 0 0 0.0386377963 0 0 0 0 0 0 0 0 0 0.104279891 0 0 0 0.5 0"/><feMorphology in="SourceAlpha" operator="dilate" radius="1" result="shadowSpreadInner2"/><feGaussianBlur in="shadowSpreadInner2" result="shadowBlurInner2" stdDeviation="1.5"/><feOffset dx="2" dy="2" in="shadowBlurInner2" result="shadowOffsetInner2"/><feComposite in="shadowOffsetInner2" in2="SourceAlpha" k2="-1" k3="1" operator="arithmetic" result="shadowInnerInner2"/><feColorMatrix in="shadowInnerInner2" result="shadowMatrixInner2" values="0 0 0 0 0.91372549 0 0 0 0 0.862745098 0 0 0 0 1 0 0 0 0.5 0"/><feMerge><feMergeNode in="shadowMatrixInner1"/><feMergeNode in="shadowMatrixInner2"/></feMerge></filter><filter id="f" width="115.6%" height="117.1%" x="-7.8%" y="-8.5%" filterUnits="objectBoundingBox"><feMorphology in="SourceAlpha" radius="2" result="shadowSpreadOuter1"/><feOffset in="shadowSpreadOuter1" result="shadowOffsetOuter1"/><feGaussianBlur in="shadowOffsetOuter1" result="shadowBlurOuter1" stdDeviation="8"/><feColorMatrix in="shadowBlurOuter1" values="0 0 0 0 0.834727223 0 0 0 0 0.73048833 0 0 0 0 0.994423687 0 0 0 0.5 0"/></filter><filter id="h" width="111.3%" height="112.3%" x="-5.6%" y="-6.2%" filterUnits="objectBoundingBox"><feGaussianBlur in="SourceAlpha" result="shadowBlurInner1" stdDeviation=".5"/><feOffset dy="-1" in="shadowBlurInner1" result="shadowOffsetInner1"/><feComposite in="shadowOffsetInner1" in2="SourceAlpha" k2="-1" k3="1" operator="arithmetic" result="shadowInnerInner1"/><feColorMatrix in="shadowInnerInner1" result="shadowMatrixInner1" values="0 0 0 0 0.132395201 0 0 0 0 0 0 0 0 0 0.766644022 0 0 0 0.1 0"/><feGaussianBlur in="SourceAlpha" result="shadowBlurInner2" stdDeviation=".5"/><feOffset dx="1" dy="1" in="shadowBlurInner2" result="shadowOffsetInner2"/><feComposite in="shadowOffsetInner2" in2="SourceAlpha" k2="-1" k3="1" operator="arithmetic" result="shadowInnerInner2"/><feColorMatrix in="shadowInnerInner2" result="shadowMatrixInner2" values="0 0 0 0 0.522251621 0 0 0 0 0 0 0 0 0 0.781051857 0 0 0 0.1 0"/><feMerge><feMergeNode in="shadowMatrixInner1"/><feMergeNode in="shadowMatrixInner2"/></feMerge></filter><filter id="j" width="124.2%" height="124.2%" x="-12.6%" y="-12.6%" filterUnits="objectBoundingBox"><feMorphology in="SourceAlpha" radius="2" result="shadowSpreadOuter1"/><feOffset in="shadowSpreadOuter1" result="shadowOffsetOuter1"/><feGaussianBlur in="shadowOffsetOuter1" result="shadowBlurOuter1" stdDeviation="8"/><feColorMatrix in="shadowBlurOuter1" values="0 0 0 0 0.834727223 0 0 0 0 0.73048833 0 0 0 0 0.994423687 0 0 0 0.5 0"/></filter><filter id="l" width="117.2%" height="117.2%" x="-9.1%" y="-9.1%" filterUnits="objectBoundingBox"><feGaussianBlur in="SourceAlpha" result="shadowBlurInner1" stdDeviation=".5"/><feOffset dy="-1" in="shadowBlurInner1" result="shadowOffsetInner1"/><feComposite in="shadowOffsetInner1" in2="SourceAlpha" k2="-1" k3="1" operator="arithmetic" result="shadowInnerInner1"/><feColorMatrix in="shadowInnerInner1" result="shadowMatrixInner1" values="0 0 0 0 0.132395201 0 0 0 0 0 0 0 0 0 0.766644022 0 0 0 0.1 0"/><feGaussianBlur in="SourceAlpha" result="shadowBlurInner2" stdDeviation=".5"/><feOffset dx="1" dy="1" in="shadowBlurInner2" result="shadowOffsetInner2"/><feComposite in="shadowOffsetInner2" in2="SourceAlpha" k2="-1" k3="1" operator="arithmetic" result="shadowInnerInner2"/><feColorMatrix in="shadowInnerInner2" result="shadowMatrixInner2" values="0 0 0 0 0.522251621 0 0 0 0 0 0 0 0 0 0.781051857 0 0 0 0.1 0"/><feMerge><feMergeNode in="shadowMatrixInner1"/><feMergeNode in="shadowMatrixInner2"/></feMerge></filter><linearGradient id="c" x1="0%" x2="0%" y1="100%" y2="0%"><stop offset="0%" stop-color="#875AD3"/><stop offset="100%" stop-color="#471476"/></linearGradient><linearGradient id="g" x1="0%" x2="0%" y1="100%" y2="0%"><stop offset="0%" stop-color="#E0CDFF"/><stop offset="100%" stop-color="#D9C4FF"/></linearGradient><linearGradient id="k" x1="0%" x2="0%" y1="100%" y2="0%"><stop offset="0%" stop-color="#E0CDFF"/><stop offset="100%" stop-color="#D9C4FF"/></linearGradient><path id="a" d="M215.374834,120 L396.625166,120 C436.743509,120 451.29139,124.177153 465.958057,132.020972 C480.624723,139.864791 492.135209,151.375277 499.979028,166.041943 C507.822847,180.70861 512,195.256491 512,235.374834 L512,416.625166 C512,456.743509 507.822847,471.29139 499.979028,485.958057 C492.135209,500.624723 480.624723,512.135209 465.958057,519.979028 C451.29139,527.822847 436.743509,532 396.625166,532 L215.374834,532 C175.256491,532 160.70861,527.822847 146.041943,519.979028 C131.375277,512.135209 119.864791,500.624723 112.020972,485.958057 C104.177153,471.29139 100,456.743509 100,416.625166 L100,235.374834 C100,195.256491 104.177153,180.70861 112.020972,166.041943 C119.864791,151.375277 131.375277,139.864791 146.041943,132.020972 C160.70861,124.177153 175.256491,120 215.374834,120 Z"/><path id="e" d="M421.237208,259.422287 L421.237208,327.617545 C418.096822,325.517176 414.322268,324.304426 410.207341,324.304426 C406.133617,324.304426 402.343836,325.497471 399.175683,327.590674 L399.175683,293.731296 C399.175683,283.410379 393.627608,278.360537 383.804272,278.360537 L228.13034,278.360537 C218.174439,278.360537 212.869103,283.410379 212.869103,293.731296 L212.869103,395.889831 C212.869103,406.211644 218.174439,411.228346 228.13034,411.228346 L337.948008,411.228346 C341.121536,415.920811 346.273704,419.231243 352.379811,420.051686 C371.772098,422.599895 379.456459,424.171812 383.955649,433.399104 L227.620677,433.399104 C203.555431,433.399104 190.775153,420.696575 190.775153,396.787302 L190.775153,259.422287 C190.775153,235.513641 203.555431,222.811291 227.620677,222.811291 L384.390967,222.811291 C408.567282,222.811291 421.237208,235.579831 421.237208,259.422287 Z M258.997665,377.875026 L258.997665,384.50216 C258.997665,388.349104 257.788447,389.525132 253.831166,389.525132 L247.203751,389.525132 C243.323503,389.525132 242.036356,388.349104 242.036356,384.50216 L242.036356,377.875026 C242.036356,374.028082 243.323503,372.886091 247.203751,372.886091 L253.831166,372.886091 C257.788447,372.886091 258.997665,374.028082 258.997665,377.875026 Z M295.953183,377.875026 L295.953183,384.50216 C295.953183,388.349104 294.743964,389.525132 290.786684,389.525132 L284.159269,389.525132 C280.312162,389.525132 279.102943,388.349104 279.102943,384.50216 L279.102943,377.875026 C279.102943,374.028082 280.312162,372.886091 284.159269,372.886091 L290.786684,372.886091 C294.743964,372.886091 295.953183,374.028082 295.953183,377.875026 Z M332.908701,377.875026 L332.908701,384.50216 C332.908701,388.349104 331.732624,389.525132 327.853271,389.525132 L321.225856,389.525132 C317.26768,389.525132 316.058461,388.349104 316.058461,384.50216 L316.058461,377.875026 C316.058461,374.028082 317.26768,372.886091 321.225856,372.886091 L327.853271,372.886091 C331.732624,372.886091 332.908701,374.028082 332.908701,377.875026 Z M258.997665,341.497893 L258.997665,348.124131 C258.997665,351.971075 257.788447,353.113962 253.831166,353.113962 L247.203751,353.113962 C243.323503,353.113962 242.036356,351.971075 242.036356,348.124131 L242.036356,341.497893 C242.036356,337.650948 243.323503,336.474921 247.203751,336.474921 L253.831166,336.474921 C257.788447,336.474921 258.997665,337.650948 258.997665,341.497893 Z M295.953183,341.497893 L295.953183,348.124131 C295.953183,351.971075 294.743964,353.113962 290.786684,353.113962 L284.159269,353.113962 C280.312162,353.113962 279.102943,351.971075 279.102943,348.124131 L279.102943,341.497893 C279.102943,337.650948 280.312162,336.474921 284.159269,336.474921 L290.786684,336.474921 C294.743964,336.474921 295.953183,337.650948 295.953183,341.497893 Z M332.908701,341.497893 L332.908701,348.124131 C332.908701,351.971075 331.732624,353.113962 327.853271,353.113962 L321.225856,353.113962 C317.26768,353.113962 316.058461,351.971075 316.058461,348.124131 L316.058461,341.497893 C316.058461,337.650948 317.26768,336.474921 321.225856,336.474921 L327.853271,336.474921 C331.732624,336.474921 332.908701,337.650948 332.908701,341.497893 Z M369.975288,341.497893 L369.975288,348.124131 C369.975288,351.971075 368.688142,353.113962 364.808789,353.113962 L358.181374,353.113962 C354.223198,353.113962 353.047121,351.971075 353.047121,348.124131 L353.047121,341.497893 C353.047121,337.650948 354.223198,336.474921 358.181374,336.474921 L364.808789,336.474921 C368.688142,336.474921 369.975288,337.650948 369.975288,341.497893 Z M295.953183,305.086723 L295.953183,311.713857 C295.953183,315.560801 294.743964,316.735933 290.786684,316.735933 L284.159269,316.735933 C280.312162,316.735933 279.102943,315.560801 279.102943,311.713857 L279.102943,305.086723 C279.102943,301.272919 280.312162,300.096891 284.159269,300.096891 L290.786684,300.096891 C294.743964,300.096891 295.953183,301.272919 295.953183,305.086723 Z M332.908701,305.086723 L332.908701,311.713857 C332.908701,315.560801 331.732624,316.735933 327.853271,316.735933 L321.225856,316.735933 C317.26768,316.735933 316.058461,315.560801 316.058461,311.713857 L316.058461,305.086723 C316.058461,301.272919 317.26768,300.096891 321.225856,300.096891 L327.853271,300.096891 C331.732624,300.096891 332.908701,301.272919 332.908701,305.086723 Z M369.975288,305.086723 L369.975288,311.713857 C369.975288,315.560801 368.688142,316.735933 364.808789,316.735933 L358.181374,316.735933 C354.223198,316.735933 353.047121,315.560801 353.047121,311.713857 L353.047121,305.086723 C353.047121,301.272919 354.223198,300.096891 358.181374,300.096891 L364.808789,300.096891 C368.688142,300.096891 369.975288,301.272919 369.975288,305.086723 Z"/><path id="i" d="M410.207341,460.147682 C412.758345,460.147682 414.654579,458.406481 415.053173,455.844837 C421.270349,416.247734 426.072292,410.457165 466.027568,404.794679 C468.656499,404.395205 470.552733,402.499052 470.552733,399.948156 C470.552733,397.398156 468.656499,395.467966 466.027568,395.102529 C425.695194,389.772339 421.702981,383.560801 415.053173,344.008483 C414.609793,341.457587 412.713559,339.638462 410.207341,339.638462 C407.667981,339.638462 405.69382,341.457587 405.295225,344.085511 C399.223156,383.370917 394.409569,389.83862 354.387114,395.102529 C351.6919,395.467966 349.828807,397.398156 349.828807,399.948156 C349.828807,402.499052 351.6919,404.428346 354.387114,404.794679 C394.819808,410.091728 398.42328,416.414331 405.295225,455.921865 C405.738606,458.406481 407.667981,460.147682 410.207341,460.147682 Z M462.638172,482.632824 C464.612334,482.632824 465.920977,481.168388 466.331216,479.195205 C469.613125,460.419968 468.746966,459.4598 489.126334,456.444046 C491.422058,456.078609 492.631277,454.692097 492.631277,452.718915 C492.631277,450.855901 491.422058,449.358325 489.381613,448.992887 C468.713825,445.577661 469.579984,444.716913 466.331216,426.1647 C465.920977,424.112698 464.612334,422.80411 462.638172,422.80411 C460.630869,422.80411 459.244298,424.157482 458.911987,426.1647 C455.707109,444.916649 456.540127,445.844573 435.860694,448.992887 C433.854286,449.325184 432.611926,450.855901 432.611926,452.718915 C432.611926,454.504004 433.821145,456.078609 435.860694,456.444046 C456.60641,459.626396 455.673968,460.487144 458.911987,479.428082 C459.244298,481.246312 460.741938,482.632824 462.638172,482.632824 Z"/></defs><g fill="none" fill-rule="evenodd"><rect width="612" height="612"/><g fill-rule="nonzero"><use xlink:href="#a" fill="#000" filter="url(#b)"/><use xlink:href="#a" fill="url(#c)"/><use xlink:href="#a" fill="#000" filter="url(#d)"/></g><g fill-rule="nonzero"><use xlink:href="#e" fill="#000" filter="url(#f)"/><use xlink:href="#e" fill="url(#g)"/><use xlink:href="#e" fill="#000" filter="url(#h)"/></g><g fill-rule="nonzero"><use xlink:href="#i" fill="#000" filter="url(#j)"/><use xlink:href="#i" fill="url(#k)"/><use xlink:href="#i" fill="#000" filter="url(#l)"/></g></g></svg>