<svg xmlns="http://www.w3.org/2000/svg" xmlns:xlink="http://www.w3.org/1999/xlink" width="612" height="612" viewBox="0 0 612 612"><defs><filter id="b" width="114.6%" height="114.6%" x="-7.3%" y="-7.3%" filterUnits="objectBoundingBox"><feMorphology in="SourceAlpha" radius="10" result="shadowSpreadOuter1"/><feOffset in="shadowSpreadOuter1" result="shadowOffsetOuter1"/><feGaussianBlur in="shadowOffsetOuter1" result="shadowBlurOuter1" stdDeviation="20"/><feColorMatrix in="shadowBlurOuter1" values="0 0 0 0 1 0 0 0 0 1 0 0 0 0 1 0 0 0 0.5 0"/></filter><filter id="d" width="110.7%" height="110.7%" x="-5.3%" y="-5.3%" filterUnits="objectBoundingBox"><feMorphology in="SourceAlpha" operator="dilate" radius="1" result="shadowSpreadInner1"/><feGaussianBlur in="shadowSpreadInner1" result="shadowBlurInner1" stdDeviation="1.5"/><feOffset dx="-1" dy="-2" in="shadowBlurInner1" result="shadowOffsetInner1"/><feComposite in="shadowOffsetInner1" in2="SourceAlpha" k2="-1" k3="1" operator="arithmetic" result="shadowInnerInner1"/><feColorMatrix in="shadowInnerInner1" result="shadowMatrixInner1" values="0 0 0 0 0 0 0 0 0 0 0 0 0 0 0 0 0 0 0.1 0"/><feMorphology in="SourceAlpha" operator="dilate" radius="1" result="shadowSpreadInner2"/><feGaussianBlur in="shadowSpreadInner2" result="shadowBlurInner2" stdDeviation="1.5"/><feOffset dx="2" dy="2" in="shadowBlurInner2" result="shadowOffsetInner2"/><feComposite in="shadowOffsetInner2" in2="SourceAlpha" k2="-1" k3="1" operator="arithmetic" result="shadowInnerInner2"/><feColorMatrix in="shadowInnerInner2" result="shadowMatrixInner2" values="0 0 0 0 1 0 0 0 0 1 0 0 0 0 1 0 0 0 0.1 0"/><feMerge><feMergeNode in="shadowMatrixInner1"/><feMergeNode in="shadowMatrixInner2"/></feMerge></filter><filter id="f" width="231.9%" height="253.7%" x="-66%" y="-55.1%" filterUnits="objectBoundingBox"><feMorphology in="SourceAlpha" operator="dilate" radius="31" result="shadowSpreadOuter1"/><feOffset dy="40" in="shadowSpreadOuter1" result="shadowOffsetOuter1"/><feGaussianBlur in="shadowOffsetOuter1" result="shadowBlurOuter1" stdDeviation="30"/><feComposite in="shadowBlurOuter1" in2="SourceAlpha" operator="out" result="shadowBlurOuter1"/><feColorMatrix in="shadowBlurOuter1" values="0 0 0 0 0 0 0 0 0 0 0 0 0 0 0 0 0 0 0.25 0"/></filter><path id="a" d="M215.374834,120 L396.625166,120 C436.743509,120 451.29139,124.177153 465.958057,132.020972 C480.624723,139.864791 492.135209,151.375277 499.979028,166.041943 C507.822847,180.70861 512,195.256491 512,235.374834 L512,416.625166 C512,456.743509 507.822847,471.29139 499.979028,485.958057 C492.135209,500.624723 480.624723,512.135209 465.958057,519.979028 C451.29139,527.822847 436.743509,532 396.625166,532 L215.374834,532 C175.256491,532 160.70861,527.822847 146.041943,519.979028 C131.375277,512.135209 119.864791,500.624723 112.020972,485.958057 C104.177153,471.29139 100,456.743509 100,416.625166 L100,235.374834 C100,195.256491 104.177153,180.70861 112.020972,166.041943 C119.864791,151.375277 131.375277,139.864791 146.041943,132.020972 C160.70861,124.177153 175.256491,120 215.374834,120 Z"/><path id="e" d="M98.1396484,183.457031 C101.953451,183.457031 105.109701,182.207682 107.608398,179.708984 C110.107096,177.210286 111.356445,174.086914 111.356445,170.338867 L111.356445,134.732422 L113.822266,134.732422 C125.921224,134.732422 136.54069,136.014648 145.680664,138.579102 C154.820638,141.143555 162.826335,145.31901 169.697754,151.105469 C176.569173,156.891927 182.602214,164.651042 187.796875,174.382812 C189.769531,177.933594 191.923014,180.267904 194.257324,181.385742 C196.591634,182.503581 199.041016,183.0625 201.605469,183.0625 C205.02474,183.0625 207.90153,181.500814 210.23584,178.377441 C212.57015,175.254069 213.737305,170.634766 213.737305,164.519531 C213.737305,146.634115 211.731771,130.573405 207.720703,116.337402 C203.709635,102.1014 197.61084,89.953125 189.424316,79.8925781 C181.237793,69.8320313 170.864909,62.1551107 158.305664,56.8618164 C145.746419,51.5685221 130.91862,48.921875 113.822266,48.921875 L111.356445,48.921875 L111.356445,13.6113281 C111.356445,9.86328125 110.107096,6.65771484 107.608398,3.99462891 C105.109701,1.33154297 101.887695,0 97.9423828,0 C95.3121745,0 92.944987,0.575358073 90.8408203,1.72607422 C88.7366536,2.87679036 86.2708333,4.80013021 83.4433594,7.49609375 L5.32617188,80.2871094 C3.35351563,82.0625 1.97265625,83.9529622 1.18359375,85.9584961 C0.39453125,87.9640299 0,89.8873698 0,91.7285156 C0,93.5039063 0.39453125,95.4108073 1.18359375,97.4492188 C1.97265625,99.4876302 3.35351563,101.394531 5.32617188,103.169922 L83.4433594,176.552734 C86.0078125,178.985677 88.4243164,180.744629 90.6928711,181.82959 C92.9614258,182.914551 95.4436849,183.457031 98.1396484,183.457031 Z"/><linearGradient id="c" x1="0%" x2="0%" y1="100%" y2="0%"><stop offset="0%" stop-color="#FEFCED"/><stop offset="100%" stop-color="#FEFCED"/></linearGradient></defs><g fill="none" fill-rule="evenodd"><rect width="612" height="612"/><rect width="412" height="412" x="101" y="120"/><g fill-rule="nonzero"><use xlink:href="#a" fill="#000" filter="url(#b)"/><use xlink:href="#a" fill="url(#c)"/><use xlink:href="#a" fill="#000" filter="url(#d)"/></g><g fill-rule="nonzero" transform="translate(194.563 233.059)"><use xlink:href="#e" fill="#000" filter="url(#f)"/><path fill="#082FEC" fill-rule="evenodd" stroke="#FFF" stroke-width="31" d="M97.9423828,-15.5 C106.568685,-15.5 113.491188,-12.388408 118.911872,-6.61109966 C124.166247,-1.01104274 126.856445,5.71289416 126.856445,13.6113281 L126.856,33.921 L127.162902,33.945578 C140.728097,35.0427473 152.846676,37.851383 163.545272,42.253623 L164.325562,42.5785804 C179.322404,48.8992388 191.676329,58.1023501 201.446869,70.1095203 C210.892002,81.7167922 218.008614,95.6968513 222.639827,112.133862 C227.000831,127.611852 229.237305,145.068087 229.237305,164.519531 C229.237305,174.934677 226.548839,182.441776 222.651505,187.656518 C216.959053,195.273178 209.784336,198.5625 201.605469,198.5625 C196.705779,198.5625 192.02378,197.501734 187.562798,195.365489 C182.967235,193.164797 178.219035,189.059155 174.247437,181.910278 C169.965476,173.893015 165.22349,167.601458 159.71365,162.961592 C154.503841,158.574385 148.417509,155.445537 141.493436,153.502812 C137.139964,152.281334 132.397852,151.416042 127.270707,150.883614 L126.856,150.842 L126.856445,170.338867 C126.856445,178.337733 124.113235,184.954345 118.918498,190.31371 L118.568554,190.669139 C113.177592,196.060101 106.426087,198.957031 98.1396484,198.957031 C93.0138969,198.957031 88.3111356,197.871978 84.0053109,195.81267 C80.5278244,194.149525 76.7469042,191.560318 72.8050627,187.825618 L-5.18191966,114.565119 C-9.09889427,111.003821 -11.7007612,107.101625 -13.2712118,103.044627 C-14.8320548,99.0124496 -15.5,95.2279021 -15.5,91.7285156 C-15.5,88.0867734 -14.8052994,84.2615848 -13.2401785,80.2835693 C-11.6711029,76.2955021 -9.07563313,72.4248284 -5.15543081,68.8678472 L72.8149428,-3.7863646 C76.8369691,-7.61259445 80.4143154,-10.2383429 83.403729,-11.8731784 C87.7114783,-14.2289788 92.5410478,-15.5 97.9423828,-15.5 Z"/></g></g></svg>