<svg xmlns="http://www.w3.org/2000/svg" xmlns:xlink="http://www.w3.org/1999/xlink" width="612" height="612" viewBox="0 0 612 612"><defs><filter id="b" width="114.6%" height="114.6%" x="-7.3%" y="-7.3%" filterUnits="objectBoundingBox"><feMorphology in="SourceAlpha" radius="10" result="shadowSpreadOuter1"/><feOffset in="shadowSpreadOuter1" result="shadowOffsetOuter1"/><feGaussianBlur in="shadowOffsetOuter1" result="shadowBlurOuter1" stdDeviation="20"/><feColorMatrix in="shadowBlurOuter1" values="0 0 0 0 1 0 0 0 0 1 0 0 0 0 1 0 0 0 0.5 0"/></filter><filter id="d" width="110.7%" height="110.7%" x="-5.3%" y="-5.3%" filterUnits="objectBoundingBox"><feMorphology in="SourceAlpha" operator="dilate" radius="1" result="shadowSpreadInner1"/><feGaussianBlur in="shadowSpreadInner1" result="shadowBlurInner1" stdDeviation="1.5"/><feOffset dx="-1" dy="-2" in="shadowBlurInner1" result="shadowOffsetInner1"/><feComposite in="shadowOffsetInner1" in2="SourceAlpha" k2="-1" k3="1" operator="arithmetic" result="shadowInnerInner1"/><feColorMatrix in="shadowInnerInner1" result="shadowMatrixInner1" values="0 0 0 0 0 0 0 0 0 0 0 0 0 0 0 0 0 0 0.1 0"/><feMorphology in="SourceAlpha" operator="dilate" radius="1" result="shadowSpreadInner2"/><feGaussianBlur in="shadowSpreadInner2" result="shadowBlurInner2" stdDeviation="1.5"/><feOffset dx="2" dy="2" in="shadowBlurInner2" result="shadowOffsetInner2"/><feComposite in="shadowOffsetInner2" in2="SourceAlpha" k2="-1" k3="1" operator="arithmetic" result="shadowInnerInner2"/><feColorMatrix in="shadowInnerInner2" result="shadowMatrixInner2" values="0 0 0 0 1 0 0 0 0 1 0 0 0 0 1 0 0 0 0.1 0"/><feMerge><feMergeNode in="shadowMatrixInner1"/><feMergeNode in="shadowMatrixInner2"/></feMerge></filter><filter id="f" width="114.6%" height="114.6%" x="-7.3%" y="-7.3%" filterUnits="objectBoundingBox"><feMorphology in="SourceAlpha" radius="10" result="shadowSpreadOuter1"/><feOffset in="shadowSpreadOuter1" result="shadowOffsetOuter1"/><feGaussianBlur in="shadowOffsetOuter1" result="shadowBlurOuter1" stdDeviation="20"/><feColorMatrix in="shadowBlurOuter1" values="0 0 0 0 1 0 0 0 0 1 0 0 0 0 1 0 0 0 0.5 0"/></filter><filter id="h" width="110.7%" height="110.7%" x="-5.3%" y="-5.3%" filterUnits="objectBoundingBox"><feMorphology in="SourceAlpha" operator="dilate" radius="1" result="shadowSpreadInner1"/><feGaussianBlur in="shadowSpreadInner1" result="shadowBlurInner1" stdDeviation="1.5"/><feOffset dx="-1" dy="-2" in="shadowBlurInner1" result="shadowOffsetInner1"/><feComposite in="shadowOffsetInner1" in2="SourceAlpha" k2="-1" k3="1" operator="arithmetic" result="shadowInnerInner1"/><feColorMatrix in="shadowInnerInner1" result="shadowMatrixInner1" values="0 0 0 0 0 0 0 0 0 0 0 0 0 0 0 0 0 0 0.1 0"/><feMorphology in="SourceAlpha" operator="dilate" radius="1" result="shadowSpreadInner2"/><feGaussianBlur in="shadowSpreadInner2" result="shadowBlurInner2" stdDeviation="1.5"/><feOffset dx="2" dy="2" in="shadowBlurInner2" result="shadowOffsetInner2"/><feComposite in="shadowOffsetInner2" in2="SourceAlpha" k2="-1" k3="1" operator="arithmetic" result="shadowInnerInner2"/><feColorMatrix in="shadowInnerInner2" result="shadowMatrixInner2" values="0 0 0 0 1 0 0 0 0 1 0 0 0 0 1 0 0 0 0.1 0"/><feMerge><feMergeNode in="shadowMatrixInner1"/><feMergeNode in="shadowMatrixInner2"/></feMerge></filter><filter id="j" width="105.6%" height="106.5%" x="-2.8%" y="-3.3%" filterUnits="objectBoundingBox"><feOffset in="SourceAlpha" result="shadowOffsetOuter1"/><feGaussianBlur in="shadowOffsetOuter1" result="shadowBlurOuter1" stdDeviation="2"/><feColorMatrix in="shadowBlurOuter1" values="0 0 0 0 0.552677763 0 0 0 0 0.552677763 0 0 0 0 0.552677763 0 0 0 0.5 0"/></filter><linearGradient id="c" x1="0%" x2="0%" y1="100%" y2="0%"><stop offset="0%" stop-color="#D1D0D0"/><stop offset="100%" stop-color="#FFF"/></linearGradient><linearGradient id="g" x1="0%" x2="0%" y1="100%" y2="0%"><stop offset="0%" stop-color="#2F2F2F"/><stop offset="100%" stop-color="#747474"/></linearGradient><linearGradient id="k" x1="50%" x2="50%" y1="0%" y2="100%"><stop offset="0%" stop-color="#E7E7E7"/><stop offset="100%" stop-color="#888"/></linearGradient><path id="a" d="M215.374834,120 L396.625166,120 C436.743509,120 451.29139,124.177153 465.958057,132.020972 C480.624723,139.864791 492.135209,151.375277 499.979028,166.041943 C507.822847,180.70861 512,195.256491 512,235.374834 L512,416.625166 C512,456.743509 507.822847,471.29139 499.979028,485.958057 C492.135209,500.624723 480.624723,512.135209 465.958057,519.979028 C451.29139,527.822847 436.743509,532 396.625166,532 L215.374834,532 C175.256491,532 160.70861,527.822847 146.041943,519.979028 C131.375277,512.135209 119.864791,500.624723 112.020972,485.958057 C104.177153,471.29139 100,456.743509 100,416.625166 L100,235.374834 C100,195.256491 104.177153,180.70861 112.020972,166.041943 C119.864791,151.375277 131.375277,139.864791 146.041943,132.020972 C160.70861,124.177153 175.256491,120 215.374834,120 Z"/><path id="e" d="M215.374834,120 L396.625166,120 C436.743509,120 451.29139,124.177153 465.958057,132.020972 C480.624723,139.864791 492.135209,151.375277 499.979028,166.041943 C507.822847,180.70861 512,195.256491 512,235.374834 L512,416.625166 C512,456.743509 507.822847,471.29139 499.979028,485.958057 C492.135209,500.624723 480.624723,512.135209 465.958057,519.979028 C451.29139,527.822847 436.743509,532 396.625166,532 L215.374834,532 C175.256491,532 160.70861,527.822847 146.041943,519.979028 C131.375277,512.135209 119.864791,500.624723 112.020972,485.958057 C104.177153,471.29139 100,456.743509 100,416.625166 L100,235.374834 C100,195.256491 104.177153,180.70861 112.020972,166.041943 C119.864791,151.375277 131.375277,139.864791 146.041943,132.020972 C160.70861,124.177153 175.256491,120 215.374834,120 Z"/><path id="i" d="M296.702606,410.515625 C300.516409,410.515625 303.672659,409.266276 306.171356,406.767578 C308.670054,404.26888 309.919403,401.145508 309.919403,397.397461 L309.919403,361.791016 L312.385224,361.791016 C324.484182,361.791016 335.103648,363.073242 344.243622,365.637695 C353.383596,368.202148 361.389293,372.377604 368.260712,378.164063 C375.132131,383.950521 381.165172,391.709635 386.359833,401.441406 C388.332489,404.992188 390.485972,407.326497 392.820282,408.444336 C395.154592,409.562174 397.603974,410.121094 400.168427,410.121094 C403.587698,410.121094 406.464488,408.559408 408.798798,405.436035 C411.133108,402.312663 412.300263,397.693359 412.300263,391.578125 C412.300263,373.692708 410.294729,357.631999 406.283661,343.395996 C402.272593,329.159993 396.173798,317.011719 387.987274,306.951172 C379.800751,296.890625 369.427867,289.213704 356.868622,283.92041 C344.309377,278.627116 329.481578,275.980469 312.385224,275.980469 L309.919403,275.980469 L309.919403,240.669922 C309.919403,236.921875 308.670054,233.716309 306.171356,231.053223 C303.672659,228.390137 300.450653,227.058594 296.505341,227.058594 C293.875132,227.058594 291.507945,227.633952 289.403778,228.784668 C287.299612,229.935384 284.833791,231.858724 282.006317,234.554688 L203.88913,307.345703 C201.916474,309.121094 200.535614,311.011556 199.746552,313.01709 C198.957489,315.022624 198.562958,316.945964 198.562958,318.787109 C198.562958,320.5625 198.957489,322.469401 199.746552,324.507813 C200.535614,326.546224 201.916474,328.453125 203.88913,330.228516 L282.006317,403.611328 C284.570771,406.044271 286.987274,407.803223 289.255829,408.888184 C291.524384,409.973145 294.006643,410.515625 296.702606,410.515625 Z"/></defs><g fill="none" fill-rule="evenodd"><rect width="612" height="612"/><g fill-rule="nonzero"><use xlink:href="#a" fill="#000" filter="url(#b)"/><use xlink:href="#a" fill="url(#c)"/><use xlink:href="#a" fill="#000" filter="url(#d)"/></g><g fill-rule="nonzero"><use xlink:href="#e" fill="#000" filter="url(#f)"/><use xlink:href="#e" fill="url(#g)"/><use xlink:href="#e" fill="#000" filter="url(#h)"/></g><g fill-rule="nonzero"><use xlink:href="#i" fill="#000" filter="url(#j)"/><use xlink:href="#i" fill="#2E2E2E"/><use xlink:href="#i" fill="url(#k)"/></g></g></svg>