<svg xmlns="http://www.w3.org/2000/svg" xmlns:xlink="http://www.w3.org/1999/xlink" width="612" height="612" viewBox="0 0 612 612"><defs><path id="a" d="M215.374834,120 L396.625166,120 C436.743509,120 451.29139,124.177153 465.958057,132.020972 C480.624723,139.864791 492.135209,151.375277 499.979028,166.041943 C507.822847,180.70861 512,195.256491 512,235.374834 L512,416.625166 C512,456.743509 507.822847,471.29139 499.979028,485.958057 C492.135209,500.624723 480.624723,512.135209 465.958057,519.979028 C451.29139,527.822847 436.743509,532 396.625166,532 L215.374834,532 C175.256491,532 160.70861,527.822847 146.041943,519.979028 C131.375277,512.135209 119.864791,500.624723 112.020972,485.958057 C104.177153,471.29139 100,456.743509 100,416.625166 L100,235.374834 C100,195.256491 104.177153,180.70861 112.020972,166.041943 C119.864791,151.375277 131.375277,139.864791 146.041943,132.020972 C160.70861,124.177153 175.256491,120 215.374834,120 Z"/><path id="e" d="M140,0 L21,0 C9.45000001,0 0,9.45 0,21 L0,287 C0,298.55 9.45000001,308 21,308 L203,308 C214.55,308 224,298.55 224,287 L224,84 L140,0 Z"/><path id="g" d="M140,0 L21,0 C9.45000001,0 0,9.45 0,21 L0,287 C0,298.55 9.45000001,308 21,308 L203,308 C214.55,308 224,298.55 224,287 L224,84 L140,0 Z"/><path id="i" d="M140,0 L21,0 C9.45000001,0 0,9.45 0,21 L0,287 C0,298.55 9.45000001,308 21,308 L203,308 C214.55,308 224,298.55 224,287 L224,84 L140,0 Z"/><path id="l" d="M140,0 L21,0 C9.45000001,0 0,9.45 0,21 L0,287 C0,298.55 9.45000001,308 21,308 L203,308 C214.55,308 224,298.55 224,287 L224,84 L140,0 Z"/><path id="n" d="M140,0 L21,0 C9.45000001,0 0,9.45 0,21 L0,287 C0,298.55 9.45000001,308 21,308 L203,308 C214.55,308 224,298.55 224,287 L224,84 L140,0 Z"/><path id="p" d="M140,0 L21,0 C9.45000001,0 0,9.45 0,21 L0,287 C0,298.55 9.45000001,308 21,308 L203,308 C214.55,308 224,298.55 224,287 L224,84 L140,0 Z"/><path id="r" d="M140,0 L21,0 C9.45000001,0 0,9.45 0,21 L0,287 C0,298.55 9.45000001,308 21,308 L203,308 C214.55,308 224,298.55 224,287 L224,84 L140,0 Z"/><path id="u" d="M231.149934,211 L303.850066,211 C319.897404,211 325.716556,212.670861 331.583223,215.808389 C337.449889,218.945916 342.054084,223.550111 345.191611,229.416777 C348.329139,235.283444 350,241.102596 350,257.149934 L350,329.850066 C350,345.897404 348.329139,351.716556 345.191611,357.583223 C342.054084,363.449889 337.449889,368.054084 331.583223,371.191611 C325.716556,374.329139 319.897404,376 303.850066,376 L231.149934,376 C215.102596,376 209.283444,374.329139 203.416777,371.191611 C197.550111,368.054084 192.945916,363.449889 189.808389,357.583223 C186.670861,351.716556 185,345.897404 185,329.850066 L185,257.149934 C185,241.102596 186.670861,235.283444 189.808389,229.416777 C192.945916,223.550111 197.550111,218.945916 203.416777,215.808389 C209.283444,212.670861 215.102596,211 231.149934,211 Z"/><filter id="b" width="114.6%" height="114.6%" x="-7.3%" y="-7.3%" filterUnits="objectBoundingBox"><feMorphology in="SourceAlpha" radius="10" result="shadowSpreadOuter1"/><feOffset in="shadowSpreadOuter1" result="shadowOffsetOuter1"/><feGaussianBlur in="shadowOffsetOuter1" result="shadowBlurOuter1" stdDeviation="20"/><feColorMatrix in="shadowBlurOuter1" values="0 0 0 0 1 0 0 0 0 1 0 0 0 0 1 0 0 0 0.5 0"/></filter><filter id="d" width="110.7%" height="110.7%" x="-5.3%" y="-5.3%" filterUnits="objectBoundingBox"><feMorphology in="SourceAlpha" operator="dilate" radius="1" result="shadowSpreadInner1"/><feGaussianBlur in="shadowSpreadInner1" result="shadowBlurInner1" stdDeviation="1.5"/><feOffset dx="-1" dy="-2" in="shadowBlurInner1" result="shadowOffsetInner1"/><feComposite in="shadowOffsetInner1" in2="SourceAlpha" k2="-1" k3="1" operator="arithmetic" result="shadowInnerInner1"/><feColorMatrix in="shadowInnerInner1" result="shadowMatrixInner1" values="0 0 0 0 0 0 0 0 0 0 0 0 0 0 0 0 0 0 0.1 0"/><feMorphology in="SourceAlpha" operator="dilate" radius="1" result="shadowSpreadInner2"/><feGaussianBlur in="shadowSpreadInner2" result="shadowBlurInner2" stdDeviation="1.5"/><feOffset dx="2" dy="2" in="shadowBlurInner2" result="shadowOffsetInner2"/><feComposite in="shadowOffsetInner2" in2="SourceAlpha" k2="-1" k3="1" operator="arithmetic" result="shadowInnerInner2"/><feColorMatrix in="shadowInnerInner2" result="shadowMatrixInner2" values="0 0 0 0 1 0 0 0 0 1 0 0 0 0 1 0 0 0 0.1 0"/><feMerge><feMergeNode in="shadowMatrixInner1"/><feMergeNode in="shadowMatrixInner2"/></feMerge></filter><filter id="v" width="121.8%" height="121.8%" x="-10.9%" y="-10.9%" filterUnits="objectBoundingBox"><feMorphology in="SourceAlpha" radius="2" result="shadowSpreadOuter1"/><feOffset in="shadowSpreadOuter1" result="shadowOffsetOuter1"/><feGaussianBlur in="shadowOffsetOuter1" result="shadowBlurOuter1" stdDeviation="8"/><feColorMatrix in="shadowBlurOuter1" values="0 0 0 0 1 0 0 0 0 1 0 0 0 0 1 0 0 0 0.5 0"/></filter><filter id="x" width="115.8%" height="115.8%" x="-7.9%" y="-7.9%" filterUnits="objectBoundingBox"><feGaussianBlur in="SourceAlpha" result="shadowBlurInner1" stdDeviation=".5"/><feOffset dy="-1" in="shadowBlurInner1" result="shadowOffsetInner1"/><feComposite in="shadowOffsetInner1" in2="SourceAlpha" k2="-1" k3="1" operator="arithmetic" result="shadowInnerInner1"/><feColorMatrix in="shadowInnerInner1" result="shadowMatrixInner1" values="0 0 0 0 0 0 0 0 0 0 0 0 0 0 0 0 0 0 0.1 0"/><feGaussianBlur in="SourceAlpha" result="shadowBlurInner2" stdDeviation=".5"/><feOffset dx="1" dy="1" in="shadowBlurInner2" result="shadowOffsetInner2"/><feComposite in="shadowOffsetInner2" in2="SourceAlpha" k2="-1" k3="1" operator="arithmetic" result="shadowInnerInner2"/><feColorMatrix in="shadowInnerInner2" result="shadowMatrixInner2" values="0 0 0 0 1 0 0 0 0 1 0 0 0 0 1 0 0 0 0.1 0"/><feMerge><feMergeNode in="shadowMatrixInner1"/><feMergeNode in="shadowMatrixInner2"/></feMerge></filter><linearGradient id="c" x1="0%" x2="0%" y1="100%" y2="0%"><stop offset="0%" stop-color="#D1D0D0"/><stop offset="100%" stop-color="#FFF"/></linearGradient><linearGradient id="j" x1="50.005%" x2="50.005%" y1="8.586%" y2="100.014%"><stop offset="0%" stop-color="#263238" stop-opacity=".2"/><stop offset="100%" stop-color="#263238" stop-opacity=".02"/></linearGradient><linearGradient id="w" x1="0%" x2="0%" y1="100%" y2="0%"><stop offset="0%" stop-color="#262626"/><stop offset="100%" stop-color="#979797"/></linearGradient><radialGradient id="t" cx="3.168%" cy="2.717%" r="161.249%" fx="3.168%" fy="2.717%" gradientTransform="matrix(1 0 0 .7273 0 .007)"><stop offset="0%" stop-color="#FFF" stop-opacity=".1"/><stop offset="100%" stop-color="#FFF" stop-opacity="0"/></radialGradient></defs><g fill="none" fill-rule="evenodd"><rect width="612" height="612"/><g fill-rule="nonzero"><use xlink:href="#a" fill="#000" filter="url(#b)"/><use xlink:href="#a" fill="url(#c)"/><use xlink:href="#a" fill="#000" filter="url(#d)"/></g><g transform="translate(194 172)"><mask id="f" fill="#fff"><use xlink:href="#e"/></mask><path fill="#0F9D58" fill-rule="nonzero" d="M140,0 L21,0 C9.45000001,0 0,9.45 0,21 L0,287 C0,298.55 9.45000001,308 21,308 L203,308 C214.55,308 224,298.55 224,287 L224,84 L175,49 L140,0 Z" mask="url(#f)"/><mask id="h" fill="#fff"><use xlink:href="#g"/></mask><path fill="#F1F1F1" fill-rule="nonzero" d="M55.9999999,150.5 L55.9999999,252 L168,252 L168,150.5 L55.9999999,150.5 Z M105,238 L70.0000002,238 L70.0000002,220.5 L105,220.5 L105,238 Z M105,210 L70.0000002,210 L70.0000002,192.5 L105,192.5 L105,210 Z M105,182 L70.0000002,182 L70.0000002,164.5 L105,164.5 L105,182 Z M154,238 L119,238 L119,220.5 L154,220.5 L154,238 Z M154,210 L119,210 L119,192.5 L154,192.5 L154,210 Z M154,182 L119,182 L119,164.5 L154,164.5 L154,182 Z" mask="url(#h)"/><mask id="k" fill="#fff"><use xlink:href="#i"/></mask><polygon fill="url(#j)" fill-rule="nonzero" points="146.143 77.858 224 155.697 224 84" mask="url(#k)"/><mask id="m" fill="#fff"><use xlink:href="#l"/></mask><g mask="url(#m)"><path fill="#87CEAC" fill-rule="nonzero" d="M-2.10160528e-15,-2.10160528e-15 L-2.10160528e-15,63 C-2.10160528e-15,74.6025001 9.39750001,84 21,84 L84,84 L-2.10160528e-15,-2.10160528e-15 Z" transform="translate(140)"/></g><mask id="o" fill="#fff"><use xlink:href="#n"/></mask><path fill="#FFF" fill-opacity=".2" fill-rule="nonzero" d="M21,0 C9.45000001,0 0,9.45 0,21 L0,22.75 C0,11.2 9.45000001,1.75 21,1.75 L140,1.75 L140,0 L21,0 Z" mask="url(#o)"/><mask id="q" fill="#fff"><use xlink:href="#p"/></mask><path fill="#263238" fill-opacity=".2" fill-rule="nonzero" d="M203,306.25 L21,306.25 C9.45000001,306.25 0,296.8 0,285.25 L0,287 C0,298.55 9.45000001,308 21,308 L203,308 C214.55,308 224,298.55 224,287 L224,285.25 C224,296.8 214.55,306.25 203,306.25 Z" mask="url(#q)"/><mask id="s" fill="#fff"><use xlink:href="#r"/></mask><path fill="#263238" fill-opacity=".1" fill-rule="nonzero" d="M161,84 C149.3975,84 140,74.6025003 140,63 L140,64.7500002 C140,76.3525 149.3975,85.7500002 161,85.7500002 L224,85.7500002 L224,84 L161,84 Z" mask="url(#s)"/><path fill="url(#t)" fill-rule="nonzero" d="M140,0 L21,0 C9.45000001,0 0,9.45 0,21 L0,287 C0,298.55 9.45000001,308 21,308 L203,308 C214.55,308 224,298.55 224,287 L224,84 L140,0 Z"/><g fill-rule="nonzero"><use xlink:href="#u" fill="#000" filter="url(#v)"/><use xlink:href="#u" fill="url(#w)"/><use xlink:href="#u" fill="#000" filter="url(#x)"/></g><path fill="#ECECEC" fill-rule="nonzero" d="M0,50.5 C0,53.8628881 1.18078938,56.7251216 3.54236813,59.0867003 C5.90394688,61.4482791 8.76618032,62.6290685 12.1290685,62.6290685 L38.4276094,62.6290685 L38.4276094,88.9276094 C38.4276094,92.2527123 39.5989525,95.0960531 41.9416386,97.4576319 C44.2843247,99.8192106 47.1371119,101 50.5,101 C53.8628881,101 56.7251216,99.8192106 59.0867003,97.4576319 C61.4482791,95.0960531 62.6290685,92.2527123 62.6290685,88.9276094 L62.6290685,62.6290685 L88.9276094,62.6290685 C92.2527123,62.6290685 95.0960531,61.4482791 97.4576319,59.0867003 C99.8192106,56.7251216 101,53.8628881 101,50.5 C101,47.1371119 99.8192106,44.2748784 97.4576319,41.9132997 C95.0960531,39.5517209 92.2527123,38.3709315 88.9276094,38.3709315 L62.6290685,38.3709315 L62.6290685,12.1290685 C62.6290685,8.76618032 61.4482791,5.90394688 59.0867003,3.54236813 C56.7251216,1.18078938 53.8628881,0 50.5,0 C47.1371119,0 44.2843247,1.18078938 41.9416386,3.54236813 C39.5989525,5.90394688 38.4276094,8.76618032 38.4276094,12.1290685 L38.4276094,38.3709315 L12.1290685,38.3709315 C8.76618032,38.3709315 5.90394688,39.5517209 3.54236813,41.9132997 C1.18078938,44.2748784 0,47.1371119 0,50.5 Z" transform="translate(217 243)"/></g></g></svg>