<svg xmlns="http://www.w3.org/2000/svg" xmlns:xlink="http://www.w3.org/1999/xlink" width="612" height="612" viewBox="0 0 612 612"><defs><path id="a" d="M215.374834,120 L396.625166,120 C436.743509,120 451.29139,124.177153 465.958057,132.020972 C480.624723,139.864791 492.135209,151.375277 499.979028,166.041943 C507.822847,180.70861 512,195.256491 512,235.374834 L512,416.625166 C512,456.743509 507.822847,471.29139 499.979028,485.958057 C492.135209,500.624723 480.624723,512.135209 465.958057,519.979028 C451.29139,527.822847 436.743509,532 396.625166,532 L215.374834,532 C175.256491,532 160.70861,527.822847 146.041943,519.979028 C131.375277,512.135209 119.864791,500.624723 112.020972,485.958057 C104.177153,471.29139 100,456.743509 100,416.625166 L100,235.374834 C100,195.256491 104.177153,180.70861 112.020972,166.041943 C119.864791,151.375277 131.375277,139.864791 146.041943,132.020972 C160.70861,124.177153 175.256491,120 215.374834,120 Z"/><path id="e" d="M140,0 L21,0 C9.45,0 0,9.48068181 0,21.0681818 L0,287.931818 C0,299.519318 9.45,309 21,309 L203,309 C214.55,309 224,299.519318 224,287.931818 L224,84.2727271 L140,0 Z"/><path id="g" d="M140,0 L21,0 C9.45,0 0,9.48068181 0,21.0681818 L0,287.931818 C0,299.519318 9.45,309 21,309 L203,309 C214.55,309 224,299.519318 224,287.931818 L224,84.2727271 L140,0 Z"/><path id="j" d="M140,0 L21,0 C9.45,0 0,9.48068181 0,21.0681818 L0,287.931818 C0,299.519318 9.45,309 21,309 L203,309 C214.55,309 224,299.519318 224,287.931818 L224,84.2727271 L140,0 Z"/><path id="l" d="M140,0 L21,0 C9.45,0 0,9.48068181 0,21.0681818 L0,287.931818 C0,299.519318 9.45,309 21,309 L203,309 C214.55,309 224,299.519318 224,287.931818 L224,84.2727271 L140,0 Z"/><path id="n" d="M140,0 L21,0 C9.45,0 0,9.48068181 0,21.0681818 L0,287.931818 C0,299.519318 9.45,309 21,309 L203,309 C214.55,309 224,299.519318 224,287.931818 L224,84.2727271 L140,0 Z"/><path id="p" d="M140,0 L21,0 C9.45,0 0,9.48068181 0,21.0681818 L0,287.931818 C0,299.519318 9.45,309 21,309 L203,309 C214.55,309 224,299.519318 224,287.931818 L224,84.2727271 L140,0 Z"/><path id="r" d="M140,0 L21,0 C9.45,0 0,9.48068181 0,21.0681818 L0,287.931818 C0,299.519318 9.45,309 21,309 L203,309 C214.55,309 224,299.519318 224,287.931818 L224,84.2727271 L140,0 Z"/><path id="u" d="M231.149934,212 L303.850066,212 C319.897404,212 325.716556,213.670861 331.583223,216.808389 C337.449889,219.945916 342.054084,224.550111 345.191611,230.416777 C348.329139,236.283444 350,242.102596 350,258.149934 L350,330.850066 C350,346.897404 348.329139,352.716556 345.191611,358.583223 C342.054084,364.449889 337.449889,369.054084 331.583223,372.191611 C325.716556,375.329139 319.897404,377 303.850066,377 L231.149934,377 C215.102596,377 209.283444,375.329139 203.416777,372.191611 C197.550111,369.054084 192.945916,364.449889 189.808389,358.583223 C186.670861,352.716556 185,346.897404 185,330.850066 L185,258.149934 C185,242.102596 186.670861,236.283444 189.808389,230.416777 C192.945916,224.550111 197.550111,219.945916 203.416777,216.808389 C209.283444,213.670861 215.102596,212 231.149934,212 Z"/><filter id="b" width="114.6%" height="114.6%" x="-7.3%" y="-7.3%" filterUnits="objectBoundingBox"><feMorphology in="SourceAlpha" radius="10" result="shadowSpreadOuter1"/><feOffset in="shadowSpreadOuter1" result="shadowOffsetOuter1"/><feGaussianBlur in="shadowOffsetOuter1" result="shadowBlurOuter1" stdDeviation="20"/><feColorMatrix in="shadowBlurOuter1" values="0 0 0 0 1 0 0 0 0 1 0 0 0 0 1 0 0 0 0.5 0"/></filter><filter id="d" width="110.7%" height="110.7%" x="-5.3%" y="-5.3%" filterUnits="objectBoundingBox"><feMorphology in="SourceAlpha" operator="dilate" radius="1" result="shadowSpreadInner1"/><feGaussianBlur in="shadowSpreadInner1" result="shadowBlurInner1" stdDeviation="1.5"/><feOffset dx="-1" dy="-2" in="shadowBlurInner1" result="shadowOffsetInner1"/><feComposite in="shadowOffsetInner1" in2="SourceAlpha" k2="-1" k3="1" operator="arithmetic" result="shadowInnerInner1"/><feColorMatrix in="shadowInnerInner1" result="shadowMatrixInner1" values="0 0 0 0 0 0 0 0 0 0 0 0 0 0 0 0 0 0 0.1 0"/><feMorphology in="SourceAlpha" operator="dilate" radius="1" result="shadowSpreadInner2"/><feGaussianBlur in="shadowSpreadInner2" result="shadowBlurInner2" stdDeviation="1.5"/><feOffset dx="2" dy="2" in="shadowBlurInner2" result="shadowOffsetInner2"/><feComposite in="shadowOffsetInner2" in2="SourceAlpha" k2="-1" k3="1" operator="arithmetic" result="shadowInnerInner2"/><feColorMatrix in="shadowInnerInner2" result="shadowMatrixInner2" values="0 0 0 0 1 0 0 0 0 1 0 0 0 0 1 0 0 0 0.1 0"/><feMerge><feMergeNode in="shadowMatrixInner1"/><feMergeNode in="shadowMatrixInner2"/></feMerge></filter><filter id="v" width="121.8%" height="121.8%" x="-10.9%" y="-10.9%" filterUnits="objectBoundingBox"><feMorphology in="SourceAlpha" radius="2" result="shadowSpreadOuter1"/><feOffset in="shadowSpreadOuter1" result="shadowOffsetOuter1"/><feGaussianBlur in="shadowOffsetOuter1" result="shadowBlurOuter1" stdDeviation="8"/><feColorMatrix in="shadowBlurOuter1" values="0 0 0 0 1 0 0 0 0 1 0 0 0 0 1 0 0 0 0.5 0"/></filter><filter id="x" width="115.8%" height="115.8%" x="-7.9%" y="-7.9%" filterUnits="objectBoundingBox"><feGaussianBlur in="SourceAlpha" result="shadowBlurInner1" stdDeviation=".5"/><feOffset dy="-1" in="shadowBlurInner1" result="shadowOffsetInner1"/><feComposite in="shadowOffsetInner1" in2="SourceAlpha" k2="-1" k3="1" operator="arithmetic" result="shadowInnerInner1"/><feColorMatrix in="shadowInnerInner1" result="shadowMatrixInner1" values="0 0 0 0 0 0 0 0 0 0 0 0 0 0 0 0 0 0 0.1 0"/><feGaussianBlur in="SourceAlpha" result="shadowBlurInner2" stdDeviation=".5"/><feOffset dx="1" dy="1" in="shadowBlurInner2" result="shadowOffsetInner2"/><feComposite in="shadowOffsetInner2" in2="SourceAlpha" k2="-1" k3="1" operator="arithmetic" result="shadowInnerInner2"/><feColorMatrix in="shadowInnerInner2" result="shadowMatrixInner2" values="0 0 0 0 1 0 0 0 0 1 0 0 0 0 1 0 0 0 0.1 0"/><feMerge><feMergeNode in="shadowMatrixInner1"/><feMergeNode in="shadowMatrixInner2"/></feMerge></filter><linearGradient id="c" x1="0%" x2="0%" y1="100%" y2="0%"><stop offset="0%" stop-color="#D1D0D0"/><stop offset="100%" stop-color="#FFF"/></linearGradient><linearGradient id="h" x1="50.005%" x2="50.005%" y1="8.586%" y2="100.014%"><stop offset="0%" stop-color="#1A237E" stop-opacity=".2"/><stop offset="100%" stop-color="#1A237E" stop-opacity=".02"/></linearGradient><linearGradient id="w" x1="0%" x2="0%" y1="100%" y2="0%"><stop offset="0%" stop-color="#262626"/><stop offset="100%" stop-color="#979797"/></linearGradient><radialGradient id="t" cx="3.168%" cy="2.717%" r="161.249%" fx="3.168%" fy="2.717%" gradientTransform="matrix(1 0 0 .7249 0 .007)"><stop offset="0%" stop-color="#FFF" stop-opacity=".1"/><stop offset="100%" stop-color="#FFF" stop-opacity="0"/></radialGradient></defs><g fill="none" fill-rule="evenodd"><rect width="612" height="612"/><g fill-rule="nonzero"><use xlink:href="#a" fill="#000" filter="url(#b)"/><use xlink:href="#a" fill="url(#c)"/><use xlink:href="#a" fill="#000" filter="url(#d)"/></g><g transform="translate(194 171)"><mask id="f" fill="#fff"><use xlink:href="#e"/></mask><path fill="#4285F4" fill-rule="nonzero" d="M140,0 L21,0 C9.45,0 0,9.48068181 0,21.0681818 L0,287.931818 C0,299.519318 9.45,309 21,309 L203,309 C214.55,309 224,299.519318 224,287.931818 L224,84.2727271 L175,49.159091 L140,0 Z" mask="url(#f)"/><mask id="i" fill="#fff"><use xlink:href="#g"/></mask><polygon fill="url(#h)" fill-rule="nonzero" points="146.143 78.11 224 156.203 224 84.273" mask="url(#i)"/><mask id="k" fill="#fff"><use xlink:href="#j"/></mask><path fill="#F1F1F1" fill-rule="nonzero" d="M56,224.727273 L168,224.727273 L168,210.681818 L56,210.681818 L56,224.727273 Z M56,252.818182 L140,252.818182 L140,238.772727 L56,238.772727 L56,252.818182 Z M56,154.5 L56,168.545455 L168,168.545455 L168,154.5 L56,154.5 Z M56,196.636364 L168,196.636364 L168,182.590909 L56,182.590909 L56,196.636364 Z" mask="url(#k)"/><mask id="m" fill="#fff"><use xlink:href="#l"/></mask><g mask="url(#m)"><path fill="#A1C2FA" fill-rule="nonzero" d="M0,2.11113178e-15 L0,63.2045455 C0,74.8447157 9.39750002,84.2727274 21,84.2727274 L84,84.2727274 L0,2.11113178e-15 Z" transform="translate(140)"/></g><mask id="o" fill="#fff"><use xlink:href="#n"/></mask><path fill="#FFF" fill-opacity=".2" fill-rule="nonzero" d="M21,0 C9.45,0 0,9.48068181 0,21.0681818 L0,22.8238636 C0,11.2363636 9.45,1.75568182 21,1.75568182 L140,1.75568182 L140,0 L21,0 Z" mask="url(#o)"/><mask id="q" fill="#fff"><use xlink:href="#p"/></mask><path fill="#1A237E" fill-opacity=".2" fill-rule="nonzero" d="M203,307.244318 L21,307.244318 C9.45,307.244318 0,297.763636 0,286.176136 L0,287.931818 C0,299.519318 9.45,309 21,309 L203,309 C214.55,309 224,299.519318 224,287.931818 L224,286.176136 C224,297.763636 214.55,307.244318 203,307.244318 Z" mask="url(#q)"/><mask id="s" fill="#fff"><use xlink:href="#r"/></mask><path fill="#1A237E" fill-opacity=".1" fill-rule="nonzero" d="M161,84.2727271 C149.3975,84.2727271 140,74.844716 140,63.2045452 L140,64.9602271 C140,76.6003979 149.3975,86.028409 161,86.028409 L224,86.028409 L224,84.2727271 L161,84.2727271 Z" mask="url(#s)"/><path fill="url(#t)" fill-rule="nonzero" d="M140,0 L21,0 C9.45,0 0,9.48068181 0,21.0681818 L0,287.931818 C0,299.519318 9.45,309 21,309 L203,309 C214.55,309 224,299.519318 224,287.931818 L224,84.2727271 L140,0 Z"/><g fill-rule="nonzero"><use xlink:href="#u" fill="#000" filter="url(#v)"/><use xlink:href="#u" fill="url(#w)"/><use xlink:href="#u" fill="#000" filter="url(#x)"/></g><path fill="#ECECEC" fill-rule="nonzero" d="M0,50.5 C0,53.8628881 1.18078938,56.7251216 3.54236813,59.0867003 C5.90394688,61.4482791 8.76618032,62.6290685 12.1290685,62.6290685 L38.4276094,62.6290685 L38.4276094,88.9276094 C38.4276094,92.2527123 39.5989525,95.0960531 41.9416386,97.4576319 C44.2843247,99.8192106 47.1371119,101 50.5,101 C53.8628881,101 56.7251216,99.8192106 59.0867003,97.4576319 C61.4482791,95.0960531 62.6290685,92.2527123 62.6290685,88.9276094 L62.6290685,62.6290685 L88.9276094,62.6290685 C92.2527123,62.6290685 95.0960531,61.4482791 97.4576319,59.0867003 C99.8192106,56.7251216 101,53.8628881 101,50.5 C101,47.1371119 99.8192106,44.2748784 97.4576319,41.9132997 C95.0960531,39.5517209 92.2527123,38.3709315 88.9276094,38.3709315 L62.6290685,38.3709315 L62.6290685,12.1290685 C62.6290685,8.76618032 61.4482791,5.90394688 59.0867003,3.54236813 C56.7251216,1.18078938 53.8628881,0 50.5,0 C47.1371119,0 44.2843247,1.18078938 41.9416386,3.54236813 C39.5989525,5.90394688 38.4276094,8.76618032 38.4276094,12.1290685 L38.4276094,38.3709315 L12.1290685,38.3709315 C8.76618032,38.3709315 5.90394688,39.5517209 3.54236813,41.9132997 C1.18078938,44.2748784 0,47.1371119 0,50.5 Z" transform="translate(217 244)"/></g></g></svg>