<svg xmlns="http://www.w3.org/2000/svg" xmlns:xlink="http://www.w3.org/1999/xlink" width="612" height="612" viewBox="0 0 612 612"><defs><filter id="b" width="114.6%" height="114.6%" x="-7.3%" y="-7.3%" filterUnits="objectBoundingBox"><feMorphology in="SourceAlpha" radius="10" result="shadowSpreadOuter1"/><feOffset in="shadowSpreadOuter1" result="shadowOffsetOuter1"/><feGaussianBlur in="shadowOffsetOuter1" result="shadowBlurOuter1" stdDeviation="20"/><feColorMatrix in="shadowBlurOuter1" values="0 0 0 0 1 0 0 0 0 1 0 0 0 0 1 0 0 0 0.5 0"/></filter><filter id="d" width="110.7%" height="110.7%" x="-5.3%" y="-5.3%" filterUnits="objectBoundingBox"><feMorphology in="SourceAlpha" operator="dilate" radius="1" result="shadowSpreadInner1"/><feGaussianBlur in="shadowSpreadInner1" result="shadowBlurInner1" stdDeviation="1.5"/><feOffset dx="-1" dy="-2" in="shadowBlurInner1" result="shadowOffsetInner1"/><feComposite in="shadowOffsetInner1" in2="SourceAlpha" k2="-1" k3="1" operator="arithmetic" result="shadowInnerInner1"/><feColorMatrix in="shadowInnerInner1" result="shadowMatrixInner1" values="0 0 0 0 0 0 0 0 0 0 0 0 0 0 0 0 0 0 0.1 0"/><feMorphology in="SourceAlpha" operator="dilate" radius="1" result="shadowSpreadInner2"/><feGaussianBlur in="shadowSpreadInner2" result="shadowBlurInner2" stdDeviation="1.5"/><feOffset dx="2" dy="2" in="shadowBlurInner2" result="shadowOffsetInner2"/><feComposite in="shadowOffsetInner2" in2="SourceAlpha" k2="-1" k3="1" operator="arithmetic" result="shadowInnerInner2"/><feColorMatrix in="shadowInnerInner2" result="shadowMatrixInner2" values="0 0 0 0 1 0 0 0 0 1 0 0 0 0 1 0 0 0 0.1 0"/><feMerge><feMergeNode in="shadowMatrixInner1"/><feMergeNode in="shadowMatrixInner2"/></feMerge></filter><filter id="f" width="116.3%" height="110.7%" x="-8.2%" y="-5.3%" filterUnits="objectBoundingBox"><feMorphology in="SourceAlpha" operator="dilate" radius="2" result="shadowSpreadInner1"/><feGaussianBlur in="shadowSpreadInner1" result="shadowBlurInner1" stdDeviation="4"/><feOffset dy="4" in="shadowBlurInner1" result="shadowOffsetInner1"/><feComposite in="shadowOffsetInner1" in2="SourceAlpha" k2="-1" k3="1" operator="arithmetic" result="shadowInnerInner1"/><feColorMatrix in="shadowInnerInner1" result="shadowMatrixInner1" values="0 0 0 0 0 0 0 0 0 0 0 0 0 0 0 0 0 0 0.5 0"/><feMorphology in="SourceAlpha" operator="dilate" radius="8" result="shadowSpreadInner2"/><feGaussianBlur in="shadowSpreadInner2" result="shadowBlurInner2" stdDeviation="4"/><feOffset dx="-1" dy="-5" in="shadowBlurInner2" result="shadowOffsetInner2"/><feComposite in="shadowOffsetInner2" in2="SourceAlpha" k2="-1" k3="1" operator="arithmetic" result="shadowInnerInner2"/><feColorMatrix in="shadowInnerInner2" result="shadowMatrixInner2" values="0 0 0 0 1 0 0 0 0 1 0 0 0 0 1 0 0 0 1 0"/><feMerge><feMergeNode in="shadowMatrixInner1"/><feMergeNode in="shadowMatrixInner2"/></feMerge></filter><filter id="h" width="127.5%" height="111.2%" x="-13.8%" y="-5.6%" filterUnits="objectBoundingBox"><feMorphology in="SourceAlpha" operator="dilate" radius="2" result="shadowSpreadInner1"/><feGaussianBlur in="shadowSpreadInner1" result="shadowBlurInner1" stdDeviation="4"/><feOffset dy="4" in="shadowBlurInner1" result="shadowOffsetInner1"/><feComposite in="shadowOffsetInner1" in2="SourceAlpha" k2="-1" k3="1" operator="arithmetic" result="shadowInnerInner1"/><feColorMatrix in="shadowInnerInner1" result="shadowMatrixInner1" values="0 0 0 0 0 0 0 0 0 0 0 0 0 0 0 0 0 0 0.5 0"/><feMorphology in="SourceAlpha" operator="dilate" radius="8" result="shadowSpreadInner2"/><feGaussianBlur in="shadowSpreadInner2" result="shadowBlurInner2" stdDeviation="4"/><feOffset dx="-1" dy="-5" in="shadowBlurInner2" result="shadowOffsetInner2"/><feComposite in="shadowOffsetInner2" in2="SourceAlpha" k2="-1" k3="1" operator="arithmetic" result="shadowInnerInner2"/><feColorMatrix in="shadowInnerInner2" result="shadowMatrixInner2" values="0 0 0 0 1 0 0 0 0 1 0 0 0 0 1 0 0 0 1 0"/><feMerge><feMergeNode in="shadowMatrixInner1"/><feMergeNode in="shadowMatrixInner2"/></feMerge></filter><filter id="j" width="104.7%" height="104.7%" x="-2.4%" y="-2.4%" filterUnits="objectBoundingBox"><feMorphology in="SourceAlpha" operator="dilate" radius="6" result="shadowSpreadInner1"/><feGaussianBlur in="shadowSpreadInner1" result="shadowBlurInner1" stdDeviation="2"/><feOffset dx="5" dy="5" in="shadowBlurInner1" result="shadowOffsetInner1"/><feComposite in="shadowOffsetInner1" in2="SourceAlpha" k2="-1" k3="1" operator="arithmetic" result="shadowInnerInner1"/><feColorMatrix in="shadowInnerInner1" result="shadowMatrixInner1" values="0 0 0 0 0 0 0 0 0 0 0 0 0 0 0 0 0 0 0.25 0"/><feMorphology in="SourceAlpha" operator="dilate" radius="6" result="shadowSpreadInner2"/><feGaussianBlur in="shadowSpreadInner2" result="shadowBlurInner2" stdDeviation="4"/><feOffset dx="-2" dy="-2" in="shadowBlurInner2" result="shadowOffsetInner2"/><feComposite in="shadowOffsetInner2" in2="SourceAlpha" k2="-1" k3="1" operator="arithmetic" result="shadowInnerInner2"/><feColorMatrix in="shadowInnerInner2" result="shadowMatrixInner2" values="0 0 0 0 1 0 0 0 0 1 0 0 0 0 1 0 0 0 0.7 0"/><feMerge><feMergeNode in="shadowMatrixInner1"/><feMergeNode in="shadowMatrixInner2"/></feMerge></filter><filter id="l" width="103.5%" height="104.3%" x="-.9%" y="-2.2%" filterUnits="objectBoundingBox"><feMorphology in="SourceAlpha" radius="3" result="shadowSpreadOuter1"/><feOffset dx="5" in="shadowSpreadOuter1" result="shadowOffsetOuter1"/><feGaussianBlur in="shadowOffsetOuter1" result="shadowBlurOuter1" stdDeviation="2"/><feColorMatrix in="shadowBlurOuter1" values="0 0 0 0 0 0 0 0 0 0 0 0 0 0 0 0 0 0 1 0"/></filter><filter id="m" width="105.3%" height="108.7%" x="-1.8%" y="-4.3%" filterUnits="objectBoundingBox"><feMorphology in="SourceAlpha" operator="dilate" radius="6" result="shadowSpreadInner1"/><feGaussianBlur in="shadowSpreadInner1" result="shadowBlurInner1" stdDeviation="2"/><feOffset dy="5" in="shadowBlurInner1" result="shadowOffsetInner1"/><feComposite in="shadowOffsetInner1" in2="SourceAlpha" k2="-1" k3="1" operator="arithmetic" result="shadowInnerInner1"/><feColorMatrix in="shadowInnerInner1" result="shadowMatrixInner1" values="0 0 0 0 0 0 0 0 0 0 0 0 0 0 0 0 0 0 0.5 0"/><feMorphology in="SourceAlpha" operator="dilate" radius="6" result="shadowSpreadInner2"/><feGaussianBlur in="shadowSpreadInner2" result="shadowBlurInner2" stdDeviation="4"/><feOffset dy="-4" in="shadowBlurInner2" result="shadowOffsetInner2"/><feComposite in="shadowOffsetInner2" in2="SourceAlpha" k2="-1" k3="1" operator="arithmetic" result="shadowInnerInner2"/><feColorMatrix in="shadowInnerInner2" result="shadowMatrixInner2" values="0 0 0 0 1 0 0 0 0 1 0 0 0 0 1 0 0 0 0.7 0"/><feMerge><feMergeNode in="shadowMatrixInner1"/><feMergeNode in="shadowMatrixInner2"/></feMerge></filter><filter id="o" width="102.5%" height="102.2%" x="-1.3%" y="-1.1%" filterUnits="objectBoundingBox"><feMorphology in="SourceAlpha" operator="dilate" radius="4" result="shadowSpreadInner1"/><feGaussianBlur in="shadowSpreadInner1" result="shadowBlurInner1" stdDeviation="4"/><feOffset dx="2" dy="2" in="shadowBlurInner1" result="shadowOffsetInner1"/><feComposite in="shadowOffsetInner1" in2="SourceAlpha" k2="-1" k3="1" operator="arithmetic" result="shadowInnerInner1"/><feColorMatrix in="shadowInnerInner1" result="shadowMatrixInner1" values="0 0 0 0 0 0 0 0 0 0 0 0 0 0 0 0 0 0 0.5 0"/><feMorphology in="SourceAlpha" operator="dilate" radius="8" result="shadowSpreadInner2"/><feGaussianBlur in="shadowSpreadInner2" result="shadowBlurInner2" stdDeviation="4"/><feOffset dx="-1" dy="-5" in="shadowBlurInner2" result="shadowOffsetInner2"/><feComposite in="shadowOffsetInner2" in2="SourceAlpha" k2="-1" k3="1" operator="arithmetic" result="shadowInnerInner2"/><feColorMatrix in="shadowInnerInner2" result="shadowMatrixInner2" values="0 0 0 0 1 0 0 0 0 1 0 0 0 0 1 0 0 0 1 0"/><feMerge><feMergeNode in="shadowMatrixInner1"/><feMergeNode in="shadowMatrixInner2"/></feMerge></filter><filter id="q" width="111.6%" height="114.5%" x="-3.6%" y="-10.8%" filterUnits="objectBoundingBox"><feMorphology in="SourceAlpha" radius="3" result="shadowSpreadOuter1"/><feOffset dx="5" in="shadowSpreadOuter1" result="shadowOffsetOuter1"/><feGaussianBlur in="shadowOffsetOuter1" result="shadowBlurOuter1" stdDeviation="2"/><feColorMatrix in="shadowBlurOuter1" result="shadowMatrixOuter1" values="0 0 0 0 0 0 0 0 0 0 0 0 0 0 0 0 0 0 0.25 0"/><feMorphology in="SourceAlpha" radius="4" result="shadowSpreadOuter2"/><feOffset dy="-7" in="shadowSpreadOuter2" result="shadowOffsetOuter2"/><feGaussianBlur in="shadowOffsetOuter2" result="shadowBlurOuter2" stdDeviation="3"/><feColorMatrix in="shadowBlurOuter2" result="shadowMatrixOuter2" values="0 0 0 0 1 0 0 0 0 1 0 0 0 0 1 0 0 0 0.25 0"/><feMerge><feMergeNode in="shadowMatrixOuter1"/><feMergeNode in="shadowMatrixOuter2"/></feMerge></filter><filter id="r" width="113%" height="115.9%" x="-4.3%" y="-11.6%" filterUnits="objectBoundingBox"><feMorphology in="SourceAlpha" operator="dilate" radius="8" result="shadowSpreadInner1"/><feGaussianBlur in="shadowSpreadInner1" result="shadowBlurInner1" stdDeviation="4"/><feOffset dx="6" in="shadowBlurInner1" result="shadowOffsetInner1"/><feComposite in="shadowOffsetInner1" in2="SourceAlpha" k2="-1" k3="1" operator="arithmetic" result="shadowInnerInner1"/><feColorMatrix in="shadowInnerInner1" result="shadowMatrixInner1" values="0 0 0 0 0 0 0 0 0 0 0 0 0 0 0 0 0 0 0.5 0"/><feMorphology in="SourceAlpha" operator="dilate" radius="11" result="shadowSpreadInner2"/><feGaussianBlur in="shadowSpreadInner2" result="shadowBlurInner2" stdDeviation="4"/><feOffset dy="8" in="shadowBlurInner2" result="shadowOffsetInner2"/><feComposite in="shadowOffsetInner2" in2="SourceAlpha" k2="-1" k3="1" operator="arithmetic" result="shadowInnerInner2"/><feColorMatrix in="shadowInnerInner2" result="shadowMatrixInner2" values="0 0 0 0 0 0 0 0 0 0 0 0 0 0 0 0 0 0 0.3 0"/><feMorphology in="SourceAlpha" operator="dilate" radius="6" result="shadowSpreadInner3"/><feGaussianBlur in="shadowSpreadInner3" result="shadowBlurInner3" stdDeviation="4"/><feOffset dx="-1" dy="-4" in="shadowBlurInner3" result="shadowOffsetInner3"/><feComposite in="shadowOffsetInner3" in2="SourceAlpha" k2="-1" k3="1" operator="arithmetic" result="shadowInnerInner3"/><feColorMatrix in="shadowInnerInner3" result="shadowMatrixInner3" values="0 0 0 0 1 0 0 0 0 1 0 0 0 0 1 0 0 0 1 0"/><feMerge><feMergeNode in="shadowMatrixInner1"/><feMergeNode in="shadowMatrixInner2"/><feMergeNode in="shadowMatrixInner3"/></feMerge></filter><filter id="t" width="104.3%" height="103%" x="-2.2%" y="-.8%" filterUnits="objectBoundingBox"><feMorphology in="SourceAlpha" radius="3" result="shadowSpreadOuter1"/><feOffset dy="5" in="shadowSpreadOuter1" result="shadowOffsetOuter1"/><feGaussianBlur in="shadowOffsetOuter1" result="shadowBlurOuter1" stdDeviation="2"/><feColorMatrix in="shadowBlurOuter1" values="0 0 0 0 0 0 0 0 0 0 0 0 0 0 0 0 0 0 0.25 0"/></filter><filter id="u" width="114.5%" height="106.6%" x="-7.2%" y="-2.5%" filterUnits="objectBoundingBox"><feMorphology in="SourceAlpha" operator="dilate" radius="6" result="shadowSpreadInner1"/><feGaussianBlur in="shadowSpreadInner1" result="shadowBlurInner1" stdDeviation="4"/><feOffset dx="-6" dy="8" in="shadowBlurInner1" result="shadowOffsetInner1"/><feComposite in="shadowOffsetInner1" in2="SourceAlpha" k2="-1" k3="1" operator="arithmetic" result="shadowInnerInner1"/><feColorMatrix in="shadowInnerInner1" result="shadowMatrixInner1" values="0 0 0 0 0 0 0 0 0 0 0 0 0 0 0 0 0 0 0.25 0"/><feMorphology in="SourceAlpha" operator="dilate" radius="6" result="shadowSpreadInner2"/><feGaussianBlur in="shadowSpreadInner2" result="shadowBlurInner2" stdDeviation="2"/><feOffset dx="6" in="shadowBlurInner2" result="shadowOffsetInner2"/><feComposite in="shadowOffsetInner2" in2="SourceAlpha" k2="-1" k3="1" operator="arithmetic" result="shadowInnerInner2"/><feColorMatrix in="shadowInnerInner2" result="shadowMatrixInner2" values="0 0 0 0 0 0 0 0 0 0 0 0 0 0 0 0 0 0 0.25 0"/><feMorphology in="SourceAlpha" operator="dilate" radius="4" result="shadowSpreadInner3"/><feGaussianBlur in="shadowSpreadInner3" result="shadowBlurInner3" stdDeviation="4"/><feOffset dx="2" dy="-2" in="shadowBlurInner3" result="shadowOffsetInner3"/><feComposite in="shadowOffsetInner3" in2="SourceAlpha" k2="-1" k3="1" operator="arithmetic" result="shadowInnerInner3"/><feColorMatrix in="shadowInnerInner3" result="shadowMatrixInner3" values="0 0 0 0 1 0 0 0 0 1 0 0 0 0 1 0 0 0 0.5 0"/><feMerge><feMergeNode in="shadowMatrixInner1"/><feMergeNode in="shadowMatrixInner2"/><feMergeNode in="shadowMatrixInner3"/></feMerge></filter><filter id="w" width="120.2%" height="120.2%" x="-13%" y="-7.2%" filterUnits="objectBoundingBox"><feMorphology in="SourceAlpha" radius="1" result="shadowSpreadOuter1"/><feOffset dx="-2" dy="2" in="shadowSpreadOuter1" result="shadowOffsetOuter1"/><feGaussianBlur in="shadowOffsetOuter1" result="shadowBlurOuter1" stdDeviation="3"/><feColorMatrix in="shadowBlurOuter1" values="0 0 0 0 0 0 0 0 0 0 0 0 0 0 0 0 0 0 0.25 0"/></filter><filter id="x" width="126%" height="126%" x="-15.9%" y="-10.1%" filterUnits="objectBoundingBox"><feMorphology in="SourceAlpha" operator="dilate" radius="6" result="shadowSpreadInner1"/><feGaussianBlur in="shadowSpreadInner1" result="shadowBlurInner1" stdDeviation="4"/><feOffset dx="-6" dy="8" in="shadowBlurInner1" result="shadowOffsetInner1"/><feComposite in="shadowOffsetInner1" in2="SourceAlpha" k2="-1" k3="1" operator="arithmetic" result="shadowInnerInner1"/><feColorMatrix in="shadowInnerInner1" result="shadowMatrixInner1" values="0 0 0 0 0 0 0 0 0 0 0 0 0 0 0 0 0 0 0.15 0"/><feMorphology in="SourceAlpha" operator="dilate" radius="6" result="shadowSpreadInner2"/><feGaussianBlur in="shadowSpreadInner2" result="shadowBlurInner2" stdDeviation="2"/><feOffset dx="5" in="shadowBlurInner2" result="shadowOffsetInner2"/><feComposite in="shadowOffsetInner2" in2="SourceAlpha" k2="-1" k3="1" operator="arithmetic" result="shadowInnerInner2"/><feColorMatrix in="shadowInnerInner2" result="shadowMatrixInner2" values="0 0 0 0 0 0 0 0 0 0 0 0 0 0 0 0 0 0 0.5 0"/><feMorphology in="SourceAlpha" operator="dilate" radius="6" result="shadowSpreadInner3"/><feGaussianBlur in="shadowSpreadInner3" result="shadowBlurInner3" stdDeviation="4"/><feOffset dy="-4" in="shadowBlurInner3" result="shadowOffsetInner3"/><feComposite in="shadowOffsetInner3" in2="SourceAlpha" k2="-1" k3="1" operator="arithmetic" result="shadowInnerInner3"/><feColorMatrix in="shadowInnerInner3" result="shadowMatrixInner3" values="0 0 0 0 1 0 0 0 0 1 0 0 0 0 1 0 0 0 0.7 0"/><feMerge><feMergeNode in="shadowMatrixInner1"/><feMergeNode in="shadowMatrixInner2"/><feMergeNode in="shadowMatrixInner3"/></feMerge></filter><filter id="z" width="121.8%" height="121.8%" x="-10.9%" y="-10.9%" filterUnits="objectBoundingBox"><feMorphology in="SourceAlpha" radius="2" result="shadowSpreadOuter1"/><feOffset in="shadowSpreadOuter1" result="shadowOffsetOuter1"/><feGaussianBlur in="shadowOffsetOuter1" result="shadowBlurOuter1" stdDeviation="8"/><feColorMatrix in="shadowBlurOuter1" values="0 0 0 0 1 0 0 0 0 1 0 0 0 0 1 0 0 0 0.5 0"/></filter><filter id="B" width="115.8%" height="115.8%" x="-7.9%" y="-7.9%" filterUnits="objectBoundingBox"><feGaussianBlur in="SourceAlpha" result="shadowBlurInner1" stdDeviation=".5"/><feOffset dy="-1" in="shadowBlurInner1" result="shadowOffsetInner1"/><feComposite in="shadowOffsetInner1" in2="SourceAlpha" k2="-1" k3="1" operator="arithmetic" result="shadowInnerInner1"/><feColorMatrix in="shadowInnerInner1" result="shadowMatrixInner1" values="0 0 0 0 0 0 0 0 0 0 0 0 0 0 0 0 0 0 0.1 0"/><feGaussianBlur in="SourceAlpha" result="shadowBlurInner2" stdDeviation=".5"/><feOffset dx="1" dy="1" in="shadowBlurInner2" result="shadowOffsetInner2"/><feComposite in="shadowOffsetInner2" in2="SourceAlpha" k2="-1" k3="1" operator="arithmetic" result="shadowInnerInner2"/><feColorMatrix in="shadowInnerInner2" result="shadowMatrixInner2" values="0 0 0 0 1 0 0 0 0 1 0 0 0 0 1 0 0 0 0.1 0"/><feMerge><feMergeNode in="shadowMatrixInner1"/><feMergeNode in="shadowMatrixInner2"/></feMerge></filter><path id="a" d="M215.374834,120 L396.625166,120 C436.743509,120 451.29139,124.177153 465.958057,132.020972 C480.624723,139.864791 492.135209,151.375277 499.979028,166.041943 C507.822847,180.70861 512,195.256491 512,235.374834 L512,416.625166 C512,456.743509 507.822847,471.29139 499.979028,485.958057 C492.135209,500.624723 480.624723,512.135209 465.958057,519.979028 C451.29139,527.822847 436.743509,532 396.625166,532 L215.374834,532 C175.256491,532 160.70861,527.822847 146.041943,519.979028 C131.375277,512.135209 119.864791,500.624723 112.020972,485.958057 C104.177153,471.29139 100,456.743509 100,416.625166 L100,235.374834 C100,195.256491 104.177153,180.70861 112.020972,166.041943 C119.864791,151.375277 131.375277,139.864791 146.041943,132.020972 C160.70861,124.177153 175.256491,120 215.374834,120 Z"/><path id="e" d="M100.68306,188.37796 C94.93942,184.49728 90.96238,178.83102 88.79136,171.3383 L102.12408,165.84432 C103.33442,170.455 105.44704,174.02762 108.4634,176.56364 C111.46078,179.09966 115.11078,180.34796 119.37544,180.34796 C123.73646,180.34796 127.48282,179.02228 130.61306,176.37092 C133.7433,173.71956 135.3201,170.3382 135.3201,166.24728 C135.3201,162.06 133.66738,158.63922 130.3634,155.98932 C127.05942,153.33942 122.9101,152.01228 117.9534,152.01228 L110.25044,152.01228 L110.25044,138.81534 L117.165,138.81534 C121.42966,138.81534 125.02272,137.6634 127.94272,135.35806 C130.86272,133.05272 132.32272,129.90204 132.32272,125.88704 C132.32272,122.31442 131.01602,119.47034 128.40408,117.33874 C125.79214,115.20714 122.4867,114.13112 118.4717,114.13112 C114.55306,114.13112 111.44034,115.16918 109.135,117.26282 C106.82966,119.35646 105.15796,121.93044 104.10238,124.96578 L90.90544,119.4718 C92.65306,114.5151 95.86214,110.1351 100.56772,106.35078 C105.27476,102.56646 111.28704,100.66408 118.58704,100.66408 C123.98466,100.66408 128.845,101.70214 133.14908,103.79578 C137.4517,105.88942 140.83306,108.79044 143.27272,112.4784 C145.71238,116.18534 146.92272,120.33612 146.92272,124.94534 C146.92272,129.65238 145.78976,133.62796 143.52238,136.89398 C141.255,140.16 138.46932,142.6566 135.16534,144.40568 L135.16534,145.19262 C139.52636,147.01762 143.08,149.8033 145.88466,153.54966 C148.67034,157.29602 150.07194,161.77238 150.07194,166.99772 C150.07194,172.22306 148.74626,176.89068 146.0949,180.98306 C143.44354,185.07544 139.77456,188.30204 135.12592,190.64534 C130.4583,192.98864 125.21398,194.180138 119.39296,194.180138 C112.65068,194.19898 106.4267,192.25864 100.68306,188.37796 Z"/><path id="n" d="M23.05194,0 C10.31636,0 0,10.31636 0,23.05194 L0,262.84126 L34.57864,278.20922 L69.15728,262.84126 L69.15728,69.15728 L222.84126,69.15728 L238.20922,34.57864 L222.84272,0 L23.05194,0 Z"/><path id="p" d="M0,222.84272 L0,268.94806 C0,281.6851 10.31636,292 23.05194,292 L69.15728,292 L69.15728,222.84272 L0,222.84272 Z"/><path id="v" d="M292,69.15728 L292,23.05194 C292,10.3149 281.68364,0 268.94806,0 L222.84272,0 L222.84272,69.15728 L292,69.15728 Z"/><path id="y" d="M425.149934,383 L497.850066,383 C513.897404,383 519.716556,384.670861 525.583223,387.808389 C531.449889,390.945916 536.054084,395.550111 539.191611,401.416777 C542.329139,407.283444 544,413.102596 544,429.149934 L544,501.850066 C544,517.897404 542.329139,523.716556 539.191611,529.583223 C536.054084,535.449889 531.449889,540.054084 525.583223,543.191611 C519.716556,546.329139 513.897404,548 497.850066,548 L425.149934,548 C409.102596,548 403.283444,546.329139 397.416777,543.191611 C391.550111,540.054084 386.945916,535.449889 383.808389,529.583223 C380.670861,523.716556 379,517.897404 379,501.850066 L379,429.149934 C379,413.102596 380.670861,407.283444 383.808389,401.416777 C386.945916,395.550111 391.550111,390.945916 397.416777,387.808389 C403.283444,384.670861 409.102596,383 425.149934,383 Z"/><polygon id="g" points="182.5 122.218 167.938 132.803 160.619 121.7 186.88 102.758 196.947 102.758 196.947 192.105 182.5 192.105"/><polygon id="i" points="222.843 292 292 222.843 257.421 207.475 222.843 222.843 207.475 257.421"/><polygon id="k" points="53.789 257.421 69.157 292 222.841 292 222.841 222.843 69.157 222.843"/><polygon id="s" points="222.843 43.75 222.843 222.841 292 222.841 292 43.75 257.421 25.841"/><linearGradient id="c" x1="0%" x2="0%" y1="100%" y2="0%"><stop offset="0%" stop-color="#D1D0D0"/><stop offset="100%" stop-color="#FFF"/></linearGradient><linearGradient id="A" x1="0%" x2="0%" y1="100%" y2="0%"><stop offset="0%" stop-color="#262626"/><stop offset="100%" stop-color="#979797"/></linearGradient></defs><g fill="none" fill-rule="evenodd"><rect width="612" height="612"/><g fill-rule="nonzero"><use xlink:href="#a" fill="#000" filter="url(#b)"/><use xlink:href="#a" fill="url(#c)"/><use xlink:href="#a" fill="#000" filter="url(#d)"/></g><g fill-rule="nonzero" transform="translate(160 180)"><polygon fill="#FFF" points="222.843 69.157 153.685 61.473 69.159 69.157 61.473 146 69.157 222.843 146 232.448 222.843 222.843 230.527 144.08"/><use xlink:href="#e" fill="#1A73E8"/><use xlink:href="#e" fill="#000" filter="url(#f)"/><use xlink:href="#g" fill="#1A73E8"/><use xlink:href="#g" fill="#000" filter="url(#h)"/><use xlink:href="#i" fill="#EA4335"/><use xlink:href="#i" fill="#000" filter="url(#j)"/><use xlink:href="#k" fill="#000" filter="url(#l)"/><use xlink:href="#k" fill="#34A853"/><use xlink:href="#k" fill="#000" filter="url(#m)"/><use xlink:href="#n" fill="#4285F4"/><use xlink:href="#n" fill="#000" filter="url(#o)"/><use xlink:href="#p" fill="#000" filter="url(#q)"/><use xlink:href="#p" fill="#188038"/><use xlink:href="#p" fill="#000" filter="url(#r)"/><use xlink:href="#s" fill="#000" filter="url(#t)"/><use xlink:href="#s" fill="#FBBC04"/><use xlink:href="#s" fill="#000" filter="url(#u)"/><use xlink:href="#v" fill="#000" filter="url(#w)"/><use xlink:href="#v" fill="#1967D2"/><use xlink:href="#v" fill="#000" filter="url(#x)"/></g><g fill-rule="nonzero"><use xlink:href="#y" fill="#000" filter="url(#z)"/><use xlink:href="#y" fill="url(#A)"/><use xlink:href="#y" fill="#000" filter="url(#B)"/></g><path fill="#ECECEC" fill-rule="nonzero" d="M0,50.5 C0,53.8628881 1.18078938,56.7251216 3.54236813,59.0867003 C5.90394688,61.4482791 8.76618032,62.6290685 12.1290685,62.6290685 L38.4276094,62.6290685 L38.4276094,88.9276094 C38.4276094,92.2527123 39.5989525,95.0960531 41.9416386,97.4576319 C44.2843247,99.8192106 47.1371119,101 50.5,101 C53.8628881,101 56.7251216,99.8192106 59.0867003,97.4576319 C61.4482791,95.0960531 62.6290685,92.2527123 62.6290685,88.9276094 L62.6290685,62.6290685 L88.9276094,62.6290685 C92.2527123,62.6290685 95.0960531,61.4482791 97.4576319,59.0867003 C99.8192106,56.7251216 101,53.8628881 101,50.5 C101,47.1371119 99.8192106,44.2748784 97.4576319,41.9132997 C95.0960531,39.5517209 92.2527123,38.3709315 88.9276094,38.3709315 L62.6290685,38.3709315 L62.6290685,12.1290685 C62.6290685,8.76618032 61.4482791,5.90394688 59.0867003,3.54236813 C56.7251216,1.18078938 53.8628881,0 50.5,0 C47.1371119,0 44.2843247,1.18078938 41.9416386,3.54236813 C39.5989525,5.90394688 38.4276094,8.76618032 38.4276094,12.1290685 L38.4276094,38.3709315 L12.1290685,38.3709315 C8.76618032,38.3709315 5.90394688,39.5517209 3.54236813,41.9132997 C1.18078938,44.2748784 0,47.1371119 0,50.5 Z" transform="translate(411 415)"/></g></svg>