<svg xmlns="http://www.w3.org/2000/svg" xmlns:xlink="http://www.w3.org/1999/xlink" width="612" height="612" viewBox="0 0 612 612"><defs><filter id="b" width="114.6%" height="114.6%" x="-7.3%" y="-7.3%" filterUnits="objectBoundingBox"><feMorphology in="SourceAlpha" radius="10" result="shadowSpreadOuter1"/><feOffset in="shadowSpreadOuter1" result="shadowOffsetOuter1"/><feGaussianBlur in="shadowOffsetOuter1" result="shadowBlurOuter1" stdDeviation="20"/><feColorMatrix in="shadowBlurOuter1" values="0 0 0 0 1 0 0 0 0 1 0 0 0 0 1 0 0 0 0.5 0"/></filter><filter id="d" width="110.7%" height="110.7%" x="-5.3%" y="-5.3%" filterUnits="objectBoundingBox"><feMorphology in="SourceAlpha" operator="dilate" radius="1" result="shadowSpreadInner1"/><feGaussianBlur in="shadowSpreadInner1" result="shadowBlurInner1" stdDeviation="1.5"/><feOffset dx="-1" dy="-2" in="shadowBlurInner1" result="shadowOffsetInner1"/><feComposite in="shadowOffsetInner1" in2="SourceAlpha" k2="-1" k3="1" operator="arithmetic" result="shadowInnerInner1"/><feColorMatrix in="shadowInnerInner1" result="shadowMatrixInner1" values="0 0 0 0 0 0 0 0 0 0 0 0 0 0 0 0 0 0 0.5 0"/><feMorphology in="SourceAlpha" operator="dilate" radius="1" result="shadowSpreadInner2"/><feGaussianBlur in="shadowSpreadInner2" result="shadowBlurInner2" stdDeviation="1.5"/><feOffset dx="2" dy="2" in="shadowBlurInner2" result="shadowOffsetInner2"/><feComposite in="shadowOffsetInner2" in2="SourceAlpha" k2="-1" k3="1" operator="arithmetic" result="shadowInnerInner2"/><feColorMatrix in="shadowInnerInner2" result="shadowMatrixInner2" values="0 0 0 0 1 0 0 0 0 1 0 0 0 0 1 0 0 0 0.5 0"/><feMerge><feMergeNode in="shadowMatrixInner1"/><feMergeNode in="shadowMatrixInner2"/></feMerge></filter><linearGradient id="c" x1="0%" x2="0%" y1="100%" y2="1.03%"><stop offset="0%" stop-color="#C84A00"/><stop offset="100%" stop-color="#FA5D00"/></linearGradient><path id="a" d="M215.374834,120 L396.625166,120 C436.743509,120 451.29139,124.177153 465.958057,132.020972 C480.624723,139.864791 492.135209,151.375277 499.979028,166.041943 C507.822847,180.70861 512,195.256491 512,235.374834 L512,416.625166 C512,456.743509 507.822847,471.29139 499.979028,485.958057 C492.135209,500.624723 480.624723,512.135209 465.958057,519.979028 C451.29139,527.822847 436.743509,532 396.625166,532 L215.374834,532 C175.256491,532 160.70861,527.822847 146.041943,519.979028 C131.375277,512.135209 119.864791,500.624723 112.020972,485.958057 C104.177153,471.29139 100,456.743509 100,416.625166 L100,235.374834 C100,195.256491 104.177153,180.70861 112.020972,166.041943 C119.864791,151.375277 131.375277,139.864791 146.041943,132.020972 C160.70861,124.177153 175.256491,120 215.374834,120 Z"/></defs><g fill="none" fill-rule="evenodd"><rect width="612" height="612"/><g fill-rule="nonzero"><use xlink:href="#a" fill="#000" filter="url(#b)"/><use xlink:href="#a" fill="url(#c)"/><use xlink:href="#a" fill="#000" filter="url(#d)"/></g><g fill="#FFF" transform="translate(213 424)"><path d="M188 12.1275975 179.642917 12.1275975 179.642917 3.30882353 173.343188 3.30882353 173.343188 12.1275975 172.970017 12.1275975C170.349631 12.1275975 168.416667 13.9807942 168.416667 16.6657016L168.416667 18.0073302 173.343188 18.0073302 173.343188 35.7108868C173.343188 41.2704769 176.398941 44.3382353 181.95069 44.3382353L188 44.3382353 188 38.4585026 182.82306 38.4585026C180.765706 38.4585026 179.642917 37.3082995 179.642917 35.1993187L179.642917 18.0073302 182.885256 18.0073302C184.819857 18.0073302 186.004841 17.4957621 186.877211 16.5386347 187.564633 15.7712825 188 14.6837877 188 13.4065177L188 12.1275975ZM152.787109 24.8645411C150.368539 24.7374566 149.003008 23.3296249 149.003008 21.2220035 149.003008 18.601093 151.361357 16.8747249 155.14383 16.8747249 158.49337 16.8747249 160.91194 18.601093 161.346501 21.1576361L167.549172 21.1576361C167.11461 15.1500073 162.213996 11.25 155.14383 11.25 147.764427 11.25 142.92566 15.2770918 142.92566 21.4778229 142.92566 27.0398308 146.2752 30.2978141 152.105157 30.6823683L158.182504 31.0652721C160.973787 31.256724 162.339319 32.6001883 162.339319 34.8365446 162.339319 37.5218226 159.919122 39.3752751 155.825782 39.3752751 151.857766 39.3752751 149.003008 37.3947381 148.570074 34.5807252L142.305556 34.5807252C142.740117 40.9085408 148.135513 45 155.951105 45 163.579528 45 168.416667 40.9085408 168.416667 34.5807252 168.416667 28.9560003 165.005279 25.6319991 158.866084 25.2490953L152.787109 24.8645411ZM125.874567 11.25C135.380847 11.25 140.347222 18.2809062 140.347222 28.508729L140.347222 30.1707296 117.227667 30.1707296C117.840819 35.4752677 120.906582 39.2465402 126.365411 39.2465402 129.860864 39.2465402 132.926627 37.4574551 133.847161 34.5807252L139.917533 34.5807252C138.8763 40.9085408 133.53978 45 126.304257 45 116.920286 45 110.972222 37.9047264 110.972222 28.1258252 110.972222 18.0894543 117.042594 11.25 125.874567 11.25ZM125.874567 17.0018094C120.723119 17.0018094 117.105358 21.5405399 117.105358 28.1258252L117.105358 29.0847352C117.277354 28.0650681 117.665761 27.158547 118.269252 26.4698861L118.392817 26.3350897C119.250587 25.3761798 120.539656 24.8018241 122.684886 24.8018241L133.969469 24.8018241C133.111699 20.0072742 130.105481 17.0018094 125.874567 17.0018094Z"/><polygon points="97.092 37.658 88.963 12.574 82.25 12.574 93.027 44.338 100.848 44.338 111.625 12.574 105.221 12.574"/><path d="M74.0441814 12.5735294C71.4091767 12.5735294 70.3079087 13.0145251 69.449402 13.771215 68.4429877 14.7492165 67.7757962 16.0315212 67.5507195 17.426109L67.5507195 12.5735294 61.3611111 12.5735294 61.3611111 44.3382353 67.5491118 44.3382353 67.5491118 18.8141876 74.3496426 18.8141876C77.1068318 18.8141876 78.331892 18.1844262 79.188791 17.2389706 79.864021 16.4204436 80.2916667 15.3480593 80.2916667 14.1503737L80.2916667 12.5751567 74.0457891 12.5751567 74.0441814 12.5735294ZM43.9414789 11.25C51.3583664 11.25 56.1388889 15.591704 56.1388889 22.3211017L56.1388889 43.7096384 50.0715501 43.7096384 50.0715501 38.4258512C48.4163826 42.3257507 44.8004288 44.3382353 40.1405453 44.3382353 33.7659791 44.3382353 30.0277778 40.3766131 30.0277778 34.7777153 30.0277778 28.5502206 34.624929 24.5236272 41.6734652 24.5236272 45.7800177 24.5236272 49.0292289 26.1592785 50.0104263 28.6119433L50.0104263 23.0130455C50.0104263 19.3031869 47.5574327 16.9106205 43.6953753 16.9106205 39.957174 16.9106205 37.2612939 19.0514233 36.8913342 22.3844486L30.7628716 22.3844486C31.0653719 15.7221106 36.1143652 11.3401082 43.7058815 11.2513733L43.9414789 11.25ZM50.0104263 29.6823447 41.734589 29.6823447C38.3020065 29.6823447 36.1562404 31.5064127 36.1562404 34.337535 36.1562404 37.2303801 38.3631303 39.0544481 41.8568366 39.0544481 45.3505428 39.0544481 47.9869077 37.4187968 50.0104263 34.337535L50.0104263 29.6823447ZM16.2568607 11.5602206C11.3747744 11.5602206 7.78863066 13.7843493 6.242907 17.6585322L6.242907 0 0 0 0 44.3382353 6.24452895 44.3382353 6.24452895 19.0559936C8.71476729 18.0390615 10.9400903 17.5962041 13.105401 17.5962041 17.9874873 17.5962041 20.5209819 19.7547242 20.5209819 24.2013414L20.5209819 44.3382353 26.7638889 44.3382353 26.7638889 22.6775836C26.7638889 15.4983718 22.8079392 11.5602206 16.2552387 11.5602206L16.2568607 11.5602206Z"/></g><path fill="#FFF" d="M83.0431081,117.465845 L83.0431081,188 L71.0769231,188 L71.0769231,81.9635726 C71.0769231,75.4263783 76.4752483,70.2882883 83.0431081,70.2882883 L118.461538,70.2882883 L118.461538,105.555366 C118.461538,112.09256 113.303276,117.465845 106.735416,117.465845 L83.0369527,117.465845 L83.0431081,117.465845 Z M186.993845,0 L186.993845,176.134347 C186.993845,182.646939 181.601675,188 175.033815,188 L163.307692,188 L163.307692,11.6313435 C163.307692,5.1187524 168.465955,0 175.033815,0 L187,0 L186.993845,0 Z M140.58157,0 L152.307692,0 L152.307692,176.134347 C152.307692,182.646939 146.915523,188 140.58157,188 L128.615385,188 L128.615385,58.6313435 C128.615385,52.1187524 134.01371,47 140.58157,47 L140.58157,0 Z M48.1107381,188 L36.3846154,188 L36.3846154,11.6313435 C36.3846154,5.1187524 41.5428783,0 48.1107381,0 L60.0769231,0 L60.0769231,129.134347 C60.0769231,135.646939 54.6785978,141 48.1107381,141 L48.1107381,188 Z M0,188 L0,11.6313435 C0,5.1187524 5.39216979,0 11.9600296,0 L23.6923077,0 L23.6923077,176.134347 C23.6923077,182.646939 18.5278894,188 11.9600296,188 L0,188 Z" transform="translate(213 212)"/></g></svg>