<svg xmlns="http://www.w3.org/2000/svg" xmlns:xlink="http://www.w3.org/1999/xlink" width="612" height="612" viewBox="0 0 612 612"><defs><filter id="b" width="114.6%" height="114.6%" x="-7.3%" y="-7.3%" filterUnits="objectBoundingBox"><feMorphology in="SourceAlpha" radius="10" result="shadowSpreadOuter1"/><feOffset in="shadowSpreadOuter1" result="shadowOffsetOuter1"/><feGaussianBlur in="shadowOffsetOuter1" result="shadowBlurOuter1" stdDeviation="20"/><feColorMatrix in="shadowBlurOuter1" values="0 0 0 0 1 0 0 0 0 1 0 0 0 0 1 0 0 0 0.5 0"/></filter><filter id="d" width="110.7%" height="110.7%" x="-5.3%" y="-5.3%" filterUnits="objectBoundingBox"><feMorphology in="SourceAlpha" operator="dilate" radius="1" result="shadowSpreadInner1"/><feGaussianBlur in="shadowSpreadInner1" result="shadowBlurInner1" stdDeviation="1.5"/><feOffset dx="-1" dy="-2" in="shadowBlurInner1" result="shadowOffsetInner1"/><feComposite in="shadowOffsetInner1" in2="SourceAlpha" k2="-1" k3="1" operator="arithmetic" result="shadowInnerInner1"/><feColorMatrix in="shadowInnerInner1" result="shadowMatrixInner1" values="0 0 0 0 0 0 0 0 0 0 0 0 0 0 0 0 0 0 0.1 0"/><feMorphology in="SourceAlpha" operator="dilate" radius="1" result="shadowSpreadInner2"/><feGaussianBlur in="shadowSpreadInner2" result="shadowBlurInner2" stdDeviation="1.5"/><feOffset dx="2" dy="2" in="shadowBlurInner2" result="shadowOffsetInner2"/><feComposite in="shadowOffsetInner2" in2="SourceAlpha" k2="-1" k3="1" operator="arithmetic" result="shadowInnerInner2"/><feColorMatrix in="shadowInnerInner2" result="shadowMatrixInner2" values="0 0 0 0 1 0 0 0 0 1 0 0 0 0 1 0 0 0 0.1 0"/><feMerge><feMergeNode in="shadowMatrixInner1"/><feMergeNode in="shadowMatrixInner2"/></feMerge></filter><filter id="f" width="114.6%" height="114.6%" x="-7.3%" y="-7.3%" filterUnits="objectBoundingBox"><feMorphology in="SourceAlpha" radius="10" result="shadowSpreadOuter1"/><feOffset in="shadowSpreadOuter1" result="shadowOffsetOuter1"/><feGaussianBlur in="shadowOffsetOuter1" result="shadowBlurOuter1" stdDeviation="20"/><feColorMatrix in="shadowBlurOuter1" values="0 0 0 0 1 0 0 0 0 1 0 0 0 0 1 0 0 0 0.5 0"/></filter><filter id="h" width="110.7%" height="110.7%" x="-5.3%" y="-5.3%" filterUnits="objectBoundingBox"><feMorphology in="SourceAlpha" operator="dilate" radius="1" result="shadowSpreadInner1"/><feGaussianBlur in="shadowSpreadInner1" result="shadowBlurInner1" stdDeviation="1.5"/><feOffset dx="-1" dy="-2" in="shadowBlurInner1" result="shadowOffsetInner1"/><feComposite in="shadowOffsetInner1" in2="SourceAlpha" k2="-1" k3="1" operator="arithmetic" result="shadowInnerInner1"/><feColorMatrix in="shadowInnerInner1" result="shadowMatrixInner1" values="0 0 0 0 0 0 0 0 0 0 0 0 0 0 0 0 0 0 0.1 0"/><feMorphology in="SourceAlpha" operator="dilate" radius="1" result="shadowSpreadInner2"/><feGaussianBlur in="shadowSpreadInner2" result="shadowBlurInner2" stdDeviation="1.5"/><feOffset dx="2" dy="2" in="shadowBlurInner2" result="shadowOffsetInner2"/><feComposite in="shadowOffsetInner2" in2="SourceAlpha" k2="-1" k3="1" operator="arithmetic" result="shadowInnerInner2"/><feColorMatrix in="shadowInnerInner2" result="shadowMatrixInner2" values="0 0 0 0 1 0 0 0 0 1 0 0 0 0 1 0 0 0 0.1 0"/><feMerge><feMergeNode in="shadowMatrixInner1"/><feMergeNode in="shadowMatrixInner2"/></feMerge></filter><filter id="j" width="111.8%" height="113%" x="-5.9%" y="-6.5%" filterUnits="objectBoundingBox"><feMorphology in="SourceAlpha" radius="2" result="shadowSpreadOuter1"/><feOffset in="shadowSpreadOuter1" result="shadowOffsetOuter1"/><feGaussianBlur in="shadowOffsetOuter1" result="shadowBlurOuter1" stdDeviation="8"/><feColorMatrix in="shadowBlurOuter1" values="0 0 0 0 1 0 0 0 0 1 0 0 0 0 1 0 0 0 0.5 0"/></filter><filter id="k" width="108.5%" height="109.4%" x="-4.3%" y="-4.7%" filterUnits="objectBoundingBox"><feGaussianBlur in="SourceAlpha" result="shadowBlurInner1" stdDeviation=".5"/><feOffset dy="-1" in="shadowBlurInner1" result="shadowOffsetInner1"/><feComposite in="shadowOffsetInner1" in2="SourceAlpha" k2="-1" k3="1" operator="arithmetic" result="shadowInnerInner1"/><feColorMatrix in="shadowInnerInner1" result="shadowMatrixInner1" values="0 0 0 0 0 0 0 0 0 0 0 0 0 0 0 0 0 0 0.1 0"/><feGaussianBlur in="SourceAlpha" result="shadowBlurInner2" stdDeviation=".5"/><feOffset dx="1" dy="1" in="shadowBlurInner2" result="shadowOffsetInner2"/><feComposite in="shadowOffsetInner2" in2="SourceAlpha" k2="-1" k3="1" operator="arithmetic" result="shadowInnerInner2"/><feColorMatrix in="shadowInnerInner2" result="shadowMatrixInner2" values="0 0 0 0 1 0 0 0 0 1 0 0 0 0 1 0 0 0 0.1 0"/><feMerge><feMergeNode in="shadowMatrixInner1"/><feMergeNode in="shadowMatrixInner2"/></feMerge></filter><filter id="m" width="157.9%" height="163.1%" x="-28.9%" y="-25.2%" filterUnits="objectBoundingBox"><feOffset dy="20" in="SourceAlpha" result="shadowOffsetOuter1"/><feGaussianBlur in="shadowOffsetOuter1" result="shadowBlurOuter1" stdDeviation="30"/><feColorMatrix in="shadowBlurOuter1" values="0 0 0 0 0 0 0 0 0 0 0 0 0 0 0 0 0 0 0.25 0"/></filter><filter id="o" width="113.5%" height="116.9%" x="-6.8%" y="-8.4%" filterUnits="objectBoundingBox"><feMorphology in="SourceAlpha" radius="2" result="shadowSpreadOuter1"/><feOffset in="shadowSpreadOuter1" result="shadowOffsetOuter1"/><feGaussianBlur in="shadowOffsetOuter1" result="shadowBlurOuter1" stdDeviation="8"/><feColorMatrix in="shadowBlurOuter1" values="0 0 0 0 1 0 0 0 0 1 0 0 0 0 1 0 0 0 0.5 0"/></filter><filter id="p" width="109.8%" height="112.2%" x="-4.9%" y="-6.1%" filterUnits="objectBoundingBox"><feGaussianBlur in="SourceAlpha" result="shadowBlurInner1" stdDeviation=".5"/><feOffset dy="-1" in="shadowBlurInner1" result="shadowOffsetInner1"/><feComposite in="shadowOffsetInner1" in2="SourceAlpha" k2="-1" k3="1" operator="arithmetic" result="shadowInnerInner1"/><feColorMatrix in="shadowInnerInner1" result="shadowMatrixInner1" values="0 0 0 0 0 0 0 0 0 0 0 0 0 0 0 0 0 0 0.1 0"/><feGaussianBlur in="SourceAlpha" result="shadowBlurInner2" stdDeviation=".5"/><feOffset dx="1" dy="1" in="shadowBlurInner2" result="shadowOffsetInner2"/><feComposite in="shadowOffsetInner2" in2="SourceAlpha" k2="-1" k3="1" operator="arithmetic" result="shadowInnerInner2"/><feColorMatrix in="shadowInnerInner2" result="shadowMatrixInner2" values="0 0 0 0 1 0 0 0 0 1 0 0 0 0 1 0 0 0 0.1 0"/><feMerge><feMergeNode in="shadowMatrixInner1"/><feMergeNode in="shadowMatrixInner2"/></feMerge></filter><filter id="r" width="145.2%" height="116.9%" x="-22.6%" y="-8.4%" filterUnits="objectBoundingBox"><feOffset in="SourceAlpha" result="shadowOffsetOuter1"/><feGaussianBlur in="shadowOffsetOuter1" result="shadowBlurOuter1" stdDeviation="2.5"/><feColorMatrix in="shadowBlurOuter1" values="0 0 0 0 0.552677763 0 0 0 0 0.552677763 0 0 0 0 0.552677763 0 0 0 0.5 0"/></filter><filter id="t" width="126.8%" height="127.1%" x="-13.4%" y="-13.5%" filterUnits="objectBoundingBox"><feOffset in="SourceAlpha" result="shadowOffsetOuter1"/><feGaussianBlur in="shadowOffsetOuter1" result="shadowBlurOuter1" stdDeviation="2.5"/><feColorMatrix in="shadowBlurOuter1" values="0 0 0 0 0.552677763 0 0 0 0 0.552677763 0 0 0 0 0.552677763 0 0 0 0.5 0"/></filter><filter id="v" width="126.8%" height="127.1%" x="-13.4%" y="-13.5%" filterUnits="objectBoundingBox"><feOffset in="SourceAlpha" result="shadowOffsetOuter1"/><feGaussianBlur in="shadowOffsetOuter1" result="shadowBlurOuter1" stdDeviation="2.5"/><feColorMatrix in="shadowBlurOuter1" values="0 0 0 0 0.552677763 0 0 0 0 0.552677763 0 0 0 0 0.552677763 0 0 0 0.5 0"/></filter><filter id="x" width="149.8%" height="128.7%" x="-24.9%" y="-14.4%" filterUnits="objectBoundingBox"><feMorphology in="SourceAlpha" radius="2" result="shadowSpreadOuter1"/><feOffset in="shadowSpreadOuter1" result="shadowOffsetOuter1"/><feGaussianBlur in="shadowOffsetOuter1" result="shadowBlurOuter1" stdDeviation="8"/><feColorMatrix in="shadowBlurOuter1" values="0 0 0 0 1 0 0 0 0 1 0 0 0 0 1 0 0 0 0.5 0"/></filter><filter id="y" width="135.9%" height="120.7%" x="-18%" y="-10.4%" filterUnits="objectBoundingBox"><feGaussianBlur in="SourceAlpha" result="shadowBlurInner1" stdDeviation=".5"/><feOffset dy="-1" in="shadowBlurInner1" result="shadowOffsetInner1"/><feComposite in="shadowOffsetInner1" in2="SourceAlpha" k2="-1" k3="1" operator="arithmetic" result="shadowInnerInner1"/><feColorMatrix in="shadowInnerInner1" result="shadowMatrixInner1" values="0 0 0 0 0 0 0 0 0 0 0 0 0 0 0 0 0 0 0.1 0"/><feGaussianBlur in="SourceAlpha" result="shadowBlurInner2" stdDeviation=".5"/><feOffset dx="1" dy="1" in="shadowBlurInner2" result="shadowOffsetInner2"/><feComposite in="shadowOffsetInner2" in2="SourceAlpha" k2="-1" k3="1" operator="arithmetic" result="shadowInnerInner2"/><feColorMatrix in="shadowInnerInner2" result="shadowMatrixInner2" values="0 0 0 0 1 0 0 0 0 1 0 0 0 0 1 0 0 0 0.1 0"/><feMerge><feMergeNode in="shadowMatrixInner1"/><feMergeNode in="shadowMatrixInner2"/></feMerge></filter><path id="a" d="M215.374834,120 L396.625166,120 C436.743509,120 451.29139,124.177153 465.958057,132.020972 C480.624723,139.864791 492.135209,151.375277 499.979028,166.041943 C507.822847,180.70861 512,195.256491 512,235.374834 L512,416.625166 C512,456.743509 507.822847,471.29139 499.979028,485.958057 C492.135209,500.624723 480.624723,512.135209 465.958057,519.979028 C451.29139,527.822847 436.743509,532 396.625166,532 L215.374834,532 C175.256491,532 160.70861,527.822847 146.041943,519.979028 C131.375277,512.135209 119.864791,500.624723 112.020972,485.958057 C104.177153,471.29139 100,456.743509 100,416.625166 L100,235.374834 C100,195.256491 104.177153,180.70861 112.020972,166.041943 C119.864791,151.375277 131.375277,139.864791 146.041943,132.020972 C160.70861,124.177153 175.256491,120 215.374834,120 Z"/><path id="e" d="M216.374834,120 L397.625166,120 C437.743509,120 452.29139,124.177153 466.958057,132.020972 C481.624723,139.864791 493.135209,151.375277 500.979028,166.041943 C508.822847,180.70861 513,195.256491 513,235.374834 L513,416.625166 C513,456.743509 508.822847,471.29139 500.979028,485.958057 C493.135209,500.624723 481.624723,512.135209 466.958057,519.979028 C452.29139,527.822847 437.743509,532 397.625166,532 L216.374834,532 C176.256491,532 161.70861,527.822847 147.041943,519.979028 C132.375277,512.135209 120.864791,500.624723 113.020972,485.958057 C105.177153,471.29139 101,456.743509 101,416.625166 L101,235.374834 C101,195.256491 105.177153,180.70861 113.020972,166.041943 C120.864791,151.375277 132.375277,139.864791 147.041943,132.020972 C161.70861,124.177153 176.256491,120 216.374834,120 Z"/><path id="i" d="M401.112337,219.66661 C413.878575,219.66661 423.620255,223.062281 430.337374,229.853623 C437.054494,236.644965 440.413054,246.423755 440.413054,259.189994 L440.413054,371.19147 L411.689017,341.242765 L411.689017,262.863998 C411.689017,258.262215 410.520016,254.866544 408.182013,252.676985 C405.84401,250.487427 402.448339,249.392648 397.994999,249.392648 L217.078101,249.392648 C212.624762,249.392648 209.229091,250.487427 206.891088,252.676985 C204.553085,254.866544 203.384083,258.262215 203.384083,262.863998 L203.384083,390.006828 C203.384083,394.608612 204.553085,398.004283 206.891088,400.193841 C209.229091,402.383399 212.624762,403.478179 217.078101,403.478179 L388.042228,403.478179 L387.596894,427.748876 C387.596894,428.713766 387.634005,429.660101 387.708227,430.58788 C387.78245,431.515659 387.893783,432.424882 388.042228,433.31555 L213.960764,433.31555 C201.268747,433.31555 191.545624,429.901323 184.791393,423.07287 C178.037162,416.244417 174.660047,406.484182 174.660047,393.792166 L174.660047,259.189994 C174.660047,246.423755 178.037162,236.644965 184.791393,229.853623 C191.545624,223.062281 201.268747,219.66661 213.960764,219.66661 L401.112337,219.66661 Z M407.79455,462.168557 L409.130552,376.887115 C409.130552,374.215111 410.225331,372.433776 412.414889,371.543108 C414.604448,370.65244 416.664117,371.171996 418.593897,373.101777 L478.157307,433.333187 C480.161309,435.411412 480.643754,437.619526 479.604642,439.957529 C478.56553,442.295532 476.635749,443.427422 473.815301,443.3532 L452.884608,443.3532 L470.475297,483.433251 C471.069076,484.769253 471.254631,486.309366 471.031964,488.053591 C470.809297,489.797815 469.695963,491.07815 467.69196,491.894595 L456.558612,496.013934 C454.628832,496.756157 452.95883,496.681935 451.548606,495.791267 C450.138382,494.900599 449.09927,493.601709 448.431269,491.894595 L432.065248,451.703211 L418.03723,466.176563 C416.181672,468.32901 413.992113,468.959899 411.468555,468.069232 C408.944996,467.178564 407.720328,465.211672 407.79455,462.168557 Z"/><path id="l" d="M401.112337,199.66661 C418.861206,199.66661 433.74008,204.85296 444.556999,215.789403 C455.314354,226.665624 460.413054,241.51101 460.413054,259.189994 L460.413047,386.94661 L492.378081,419.27013 L492.554193,419.450476 C500.002049,427.174179 502.365262,437.990423 497.880873,448.080298 C494.842098,454.917543 489.434141,459.682152 482.900063,461.915579 L482.876047,461.92261 L488.751528,475.310482 C490.834666,479.997543 491.491419,485.014008 490.935188,490.046937 L490.87096,490.586228 C489.670638,499.988748 483.546568,507.031429 475.237898,510.416443 L474.93693,510.539059 L474.632138,510.651832 L463.49879,514.771171 L463.32079,514.837744 C455.933458,517.550322 447.858181,517.115425 440.868746,512.701045 C435.910831,509.56973 432.220659,505.049927 430.009381,499.687739 L429.908094,499.437273 L424.435047,485.99561 L424.246992,486.086427 C418.451672,488.808243 411.784915,489.271075 405.230366,487.072961 L404.812152,486.929038 C393.878796,483.070206 387.674301,473.270481 387.793318,462.090528 L387.797047,461.85461 L387.930047,453.31461 L213.960764,453.31555 C196.514584,453.31555 181.813979,448.236291 171.013833,437.578644 L170.57219,437.137516 C159.791632,426.23849 154.660047,411.407646 154.660047,393.792166 L154.660047,259.189994 C154.660047,241.490967 159.793358,226.626928 170.610565,215.750286 C181.45009,204.851203 196.295591,199.66661 213.960764,199.66661 L401.112337,199.66661 Z"/><path id="n" d="M401.112337,219.66661 C413.878575,219.66661 423.620255,223.062281 430.337374,229.853623 C437.054494,236.644965 440.413054,246.423755 440.413054,259.189994 L440.413054,371.19147 L411.689017,341.242765 L411.689017,262.863998 C411.689017,258.262215 410.520016,254.866544 408.182013,252.676985 C405.84401,250.487427 402.448339,249.392648 397.994999,249.392648 L217.078101,249.392648 C212.624762,249.392648 209.229091,250.487427 206.891088,252.676985 C204.553085,254.866544 203.384083,258.262215 203.384083,262.863998 L203.384083,390.006828 C203.384083,394.608612 204.553085,398.004283 206.891088,400.193841 C209.229091,402.383399 212.624762,403.478179 217.078101,403.478179 L388.042228,403.478179 L387.596894,427.748876 C387.596894,428.713766 387.634005,429.660101 387.708227,430.58788 C387.78245,431.515659 387.893783,432.424882 388.042228,433.31555 L213.960764,433.31555 C201.268747,433.31555 191.545624,429.901323 184.791393,423.07287 C178.037162,416.244417 174.660047,406.484182 174.660047,393.792166 L174.660047,259.189994 C174.660047,246.423755 178.037162,236.644965 184.791393,229.853623 C191.545624,223.062281 201.268747,219.66661 213.960764,219.66661 L401.112337,219.66661 Z"/><path id="w" d="M407.79455,462.168557 L409.130552,376.887115 C409.130552,374.215111 410.225331,372.433776 412.414889,371.543108 C414.604448,370.65244 416.664117,371.171996 418.593897,373.101777 L478.157307,433.333187 C480.161309,435.411412 480.643754,437.619526 479.604642,439.957529 C478.56553,442.295532 476.635749,443.427422 473.815301,443.3532 L452.884608,443.3532 L470.475297,483.433251 C471.069076,484.769253 471.254631,486.309366 471.031964,488.053591 C470.809297,489.797815 469.695963,491.07815 467.69196,491.894595 L456.558612,496.013934 C454.628832,496.756157 452.95883,496.681935 451.548606,495.791267 C450.138382,494.900599 449.09927,493.601709 448.431269,491.894595 L432.065248,451.703211 L418.03723,466.176563 C416.181672,468.32901 413.992113,468.959899 411.468555,468.069232 C408.944996,467.178564 407.720328,465.211672 407.79455,462.168557 Z"/><polygon id="q" points="324.182 283.205 308.507 372.145 290.997 372.145 306.672 283.205"/><polygon id="s" points="284.002 297.937 284.002 315.696 248.452 325.432 284.002 335.19 284.002 353.345 227.95 335.339 227.95 315.944"/><polygon id="u" points="331.126 297.937 387.179 315.944 387.179 335.339 331.126 353.345 331.126 335.587 366.667 325.853 331.126 316.092"/><linearGradient id="c" x1="0%" x2="0%" y1="100%" y2="0%"><stop offset="0%" stop-color="#D1D0D0"/><stop offset="100%" stop-color="#FFF"/></linearGradient><linearGradient id="g" x1="0%" x2="0%" y1="100%" y2="0%"><stop offset="0%" stop-color="#FEFCED"/><stop offset="100%" stop-color="#FEFCED"/></linearGradient></defs><g fill="none" fill-rule="evenodd"><rect width="612" height="612"/><g fill-rule="nonzero"><use xlink:href="#a" fill="#000" filter="url(#b)"/><use xlink:href="#a" fill="url(#c)"/><use xlink:href="#a" fill="#000" filter="url(#d)"/></g><g fill-rule="nonzero"><use xlink:href="#e" fill="#000" filter="url(#f)"/><use xlink:href="#e" fill="url(#g)"/><use xlink:href="#e" fill="#000" filter="url(#h)"/></g><g fill-rule="nonzero"><use xlink:href="#i" fill="#000" filter="url(#j)"/><use xlink:href="#i" fill="#FFF"/><use xlink:href="#i" fill="#000" filter="url(#k)"/></g><g fill-rule="nonzero"><use xlink:href="#l" fill="#000" filter="url(#m)"/><use xlink:href="#l" fill="#FFF"/></g><g fill-rule="nonzero"><use xlink:href="#n" fill="#000" filter="url(#o)"/><use xlink:href="#n" fill="#0933FE"/><use xlink:href="#n" fill="#000" filter="url(#p)"/></g><g fill-rule="nonzero"><use xlink:href="#q" fill="#000" filter="url(#r)"/><use xlink:href="#q" fill="#FF5260"/></g><g fill-rule="nonzero"><use xlink:href="#s" fill="#000" filter="url(#t)"/><use xlink:href="#s" fill="#FF5260"/></g><g fill-rule="nonzero"><use xlink:href="#u" fill="#000" filter="url(#v)"/><use xlink:href="#u" fill="#FF5260"/></g><g fill-rule="nonzero"><use xlink:href="#w" fill="#000" filter="url(#x)"/><use xlink:href="#w" fill="#2404AA"/><use xlink:href="#w" fill="#000" filter="url(#y)"/></g></g></svg>