<svg xmlns="http://www.w3.org/2000/svg" xmlns:xlink="http://www.w3.org/1999/xlink" width="612" height="612" viewBox="0 0 612 612"><defs><filter id="b" width="114.6%" height="114.6%" x="-7.3%" y="-7.3%" filterUnits="objectBoundingBox"><feMorphology in="SourceAlpha" radius="10" result="shadowSpreadOuter1"/><feOffset in="shadowSpreadOuter1" result="shadowOffsetOuter1"/><feGaussianBlur in="shadowOffsetOuter1" result="shadowBlurOuter1" stdDeviation="20"/><feColorMatrix in="shadowBlurOuter1" values="0 0 0 0 1 0 0 0 0 1 0 0 0 0 1 0 0 0 0.5 0"/></filter><filter id="d" width="110.7%" height="110.7%" x="-5.3%" y="-5.3%" filterUnits="objectBoundingBox"><feMorphology in="SourceAlpha" operator="dilate" radius="1" result="shadowSpreadInner1"/><feGaussianBlur in="shadowSpreadInner1" result="shadowBlurInner1" stdDeviation="1.5"/><feOffset dx="-1" dy="-2" in="shadowBlurInner1" result="shadowOffsetInner1"/><feComposite in="shadowOffsetInner1" in2="SourceAlpha" k2="-1" k3="1" operator="arithmetic" result="shadowInnerInner1"/><feColorMatrix in="shadowInnerInner1" result="shadowMatrixInner1" values="0 0 0 0 0 0 0 0 0 0 0 0 0 0 0 0 0 0 0.1 0"/><feMorphology in="SourceAlpha" operator="dilate" radius="1" result="shadowSpreadInner2"/><feGaussianBlur in="shadowSpreadInner2" result="shadowBlurInner2" stdDeviation="1.5"/><feOffset dx="2" dy="2" in="shadowBlurInner2" result="shadowOffsetInner2"/><feComposite in="shadowOffsetInner2" in2="SourceAlpha" k2="-1" k3="1" operator="arithmetic" result="shadowInnerInner2"/><feColorMatrix in="shadowInnerInner2" result="shadowMatrixInner2" values="0 0 0 0 1 0 0 0 0 1 0 0 0 0 1 0 0 0 0.1 0"/><feMerge><feMergeNode in="shadowMatrixInner1"/><feMergeNode in="shadowMatrixInner2"/></feMerge></filter><filter id="f" width="114.6%" height="114.6%" x="-7.3%" y="-7.3%" filterUnits="objectBoundingBox"><feMorphology in="SourceAlpha" radius="10" result="shadowSpreadOuter1"/><feOffset in="shadowSpreadOuter1" result="shadowOffsetOuter1"/><feGaussianBlur in="shadowOffsetOuter1" result="shadowBlurOuter1" stdDeviation="20"/><feColorMatrix in="shadowBlurOuter1" values="0 0 0 0 1 0 0 0 0 1 0 0 0 0 1 0 0 0 0.5 0"/></filter><filter id="h" width="110.7%" height="110.7%" x="-5.3%" y="-5.3%" filterUnits="objectBoundingBox"><feMorphology in="SourceAlpha" operator="dilate" radius="1" result="shadowSpreadInner1"/><feGaussianBlur in="shadowSpreadInner1" result="shadowBlurInner1" stdDeviation="1.5"/><feOffset dx="-1" dy="-2" in="shadowBlurInner1" result="shadowOffsetInner1"/><feComposite in="shadowOffsetInner1" in2="SourceAlpha" k2="-1" k3="1" operator="arithmetic" result="shadowInnerInner1"/><feColorMatrix in="shadowInnerInner1" result="shadowMatrixInner1" values="0 0 0 0 0 0 0 0 0 0 0 0 0 0 0 0 0 0 0.1 0"/><feMorphology in="SourceAlpha" operator="dilate" radius="1" result="shadowSpreadInner2"/><feGaussianBlur in="shadowSpreadInner2" result="shadowBlurInner2" stdDeviation="1.5"/><feOffset dx="2" dy="2" in="shadowBlurInner2" result="shadowOffsetInner2"/><feComposite in="shadowOffsetInner2" in2="SourceAlpha" k2="-1" k3="1" operator="arithmetic" result="shadowInnerInner2"/><feColorMatrix in="shadowInnerInner2" result="shadowMatrixInner2" values="0 0 0 0 1 0 0 0 0 1 0 0 0 0 1 0 0 0 0.1 0"/><feMerge><feMergeNode in="shadowMatrixInner1"/><feMergeNode in="shadowMatrixInner2"/></feMerge></filter><filter id="j" width="104.5%" height="105.7%" x="-2.2%" y="-2.8%" filterUnits="objectBoundingBox"><feOffset in="SourceAlpha" result="shadowOffsetOuter1"/><feGaussianBlur in="shadowOffsetOuter1" result="shadowBlurOuter1" stdDeviation="2"/><feColorMatrix in="shadowBlurOuter1" values="0 0 0 0 0.552677763 0 0 0 0 0.552677763 0 0 0 0 0.552677763 0 0 0 0.5 0"/></filter><filter id="l" width="164.9%" height="179.5%" x="-32.4%" y="-31.8%" filterUnits="objectBoundingBox"><feOffset dy="20" in="SourceAlpha" result="shadowOffsetOuter1"/><feGaussianBlur in="shadowOffsetOuter1" result="shadowBlurOuter1" stdDeviation="30"/><feColorMatrix in="shadowBlurOuter1" values="0 0 0 0 0 0 0 0 0 0 0 0 0 0 0 0 0 0 0.25 0"/></filter><filter id="n" width="113.4%" height="117%" x="-6.7%" y="-8.5%" filterUnits="objectBoundingBox"><feMorphology in="SourceAlpha" radius="2" result="shadowSpreadOuter1"/><feOffset in="shadowSpreadOuter1" result="shadowOffsetOuter1"/><feGaussianBlur in="shadowOffsetOuter1" result="shadowBlurOuter1" stdDeviation="8"/><feColorMatrix in="shadowBlurOuter1" values="0 0 0 0 1 0 0 0 0 1 0 0 0 0 1 0 0 0 0.5 0"/></filter><filter id="o" width="109.7%" height="112.3%" x="-4.8%" y="-6.1%" filterUnits="objectBoundingBox"><feGaussianBlur in="SourceAlpha" result="shadowBlurInner1" stdDeviation=".5"/><feOffset dy="-1" in="shadowBlurInner1" result="shadowOffsetInner1"/><feComposite in="shadowOffsetInner1" in2="SourceAlpha" k2="-1" k3="1" operator="arithmetic" result="shadowInnerInner1"/><feColorMatrix in="shadowInnerInner1" result="shadowMatrixInner1" values="0 0 0 0 0 0 0 0 0 0 0 0 0 0 0 0 0 0 0.1 0"/><feGaussianBlur in="SourceAlpha" result="shadowBlurInner2" stdDeviation=".5"/><feOffset dx="1" dy="1" in="shadowBlurInner2" result="shadowOffsetInner2"/><feComposite in="shadowOffsetInner2" in2="SourceAlpha" k2="-1" k3="1" operator="arithmetic" result="shadowInnerInner2"/><feColorMatrix in="shadowInnerInner2" result="shadowMatrixInner2" values="0 0 0 0 1 0 0 0 0 1 0 0 0 0 1 0 0 0 0.1 0"/><feMerge><feMergeNode in="shadowMatrixInner1"/><feMergeNode in="shadowMatrixInner2"/></feMerge></filter><filter id="q" width="131.5%" height="183.4%" x="-15.8%" y="-41.7%" filterUnits="objectBoundingBox"><feOffset in="SourceAlpha" result="shadowOffsetOuter1"/><feGaussianBlur in="shadowOffsetOuter1" result="shadowBlurOuter1" stdDeviation="2"/><feColorMatrix in="shadowBlurOuter1" values="0 0 0 0 0.552677763 0 0 0 0 0.552677763 0 0 0 0 0.552677763 0 0 0 0.5 0"/></filter><filter id="s" width="131.5%" height="182.8%" x="-15.8%" y="-41.4%" filterUnits="objectBoundingBox"><feOffset in="SourceAlpha" result="shadowOffsetOuter1"/><feGaussianBlur in="shadowOffsetOuter1" result="shadowBlurOuter1" stdDeviation="2"/><feColorMatrix in="shadowBlurOuter1" values="0 0 0 0 0.552677763 0 0 0 0 0.552677763 0 0 0 0 0.552677763 0 0 0 0.5 0"/></filter><filter id="u" width="131.5%" height="182.8%" x="-15.8%" y="-41.4%" filterUnits="objectBoundingBox"><feOffset in="SourceAlpha" result="shadowOffsetOuter1"/><feGaussianBlur in="shadowOffsetOuter1" result="shadowBlurOuter1" stdDeviation="2"/><feColorMatrix in="shadowBlurOuter1" values="0 0 0 0 0.552677763 0 0 0 0 0.552677763 0 0 0 0 0.552677763 0 0 0 0.5 0"/></filter><filter id="w" width="126.8%" height="108.6%" x="-13.4%" y="-4.3%" filterUnits="objectBoundingBox"><feOffset in="SourceAlpha" result="shadowOffsetOuter1"/><feGaussianBlur in="shadowOffsetOuter1" result="shadowBlurOuter1" stdDeviation="2"/><feColorMatrix in="shadowBlurOuter1" values="0 0 0 0 0.552677763 0 0 0 0 0.552677763 0 0 0 0 0.552677763 0 0 0 0.5 0"/></filter><filter id="y" width="126.8%" height="108.6%" x="-13.4%" y="-4.3%" filterUnits="objectBoundingBox"><feOffset in="SourceAlpha" result="shadowOffsetOuter1"/><feGaussianBlur in="shadowOffsetOuter1" result="shadowBlurOuter1" stdDeviation="2"/><feColorMatrix in="shadowBlurOuter1" values="0 0 0 0 0.552677763 0 0 0 0 0.552677763 0 0 0 0 0.552677763 0 0 0 0.5 0"/></filter><path id="a" d="M215.374834,120 L396.625166,120 C436.743509,120 451.29139,124.177153 465.958057,132.020972 C480.624723,139.864791 492.135209,151.375277 499.979028,166.041943 C507.822847,180.70861 512,195.256491 512,235.374834 L512,416.625166 C512,456.743509 507.822847,471.29139 499.979028,485.958057 C492.135209,500.624723 480.624723,512.135209 465.958057,519.979028 C451.29139,527.822847 436.743509,532 396.625166,532 L215.374834,532 C175.256491,532 160.70861,527.822847 146.041943,519.979028 C131.375277,512.135209 119.864791,500.624723 112.020972,485.958057 C104.177153,471.29139 100,456.743509 100,416.625166 L100,235.374834 C100,195.256491 104.177153,180.70861 112.020972,166.041943 C119.864791,151.375277 131.375277,139.864791 146.041943,132.020972 C160.70861,124.177153 175.256491,120 215.374834,120 Z"/><path id="e" d="M216.374834,120 L397.625166,120 C437.743509,120 452.29139,124.177153 466.958057,132.020972 C481.624723,139.864791 493.135209,151.375277 500.979028,166.041943 C508.822847,180.70861 513,195.256491 513,235.374834 L513,416.625166 C513,456.743509 508.822847,471.29139 500.979028,485.958057 C493.135209,500.624723 481.624723,512.135209 466.958057,519.979028 C452.29139,527.822847 437.743509,532 397.625166,532 L216.374834,532 C176.256491,532 161.70861,527.822847 147.041943,519.979028 C132.375277,512.135209 120.864791,500.624723 113.020972,485.958057 C105.177153,471.29139 101,456.743509 101,416.625166 L101,235.374834 C101,195.256491 105.177153,180.70861 113.020972,166.041943 C120.864791,151.375277 132.375277,139.864791 147.041943,132.020972 C161.70861,124.177153 176.256491,120 216.374834,120 Z"/><path id="i" d="M231.09375,0 C243.403646,0 252.692708,3.09635417 258.960938,9.2890625 C265.229167,15.4817708 268.363281,24.6575521 268.363281,36.8164062 L268.363281,174.679688 C268.363281,186.763021 265.229167,195.919922 258.960938,202.150391 C252.692708,208.380859 243.403646,211.496094 231.09375,211.496094 L37.15625,211.496094 C24.921875,211.496094 15.6705729,208.380859 9.40234375,202.150391 C3.13411458,195.919922 3.63797881e-12,186.763021 3.63797881e-12,174.679688 L3.63797881e-12,36.8164062 C3.63797881e-12,24.6575521 3.13411458,15.4817708 9.40234375,9.2890625 C15.6705729,3.09635417 24.921875,0 37.15625,0 L231.09375,0 Z"/><path id="k" d="M231.09375,-20 C248.274563,-20 262.608043,-15.2221735 273.017105,-4.93852174 C283.477535,5.39587843 288.363281,19.6999321 288.363281,36.8164063 L288.363281,174.679687 C288.363281,191.709418 283.479272,205.978963 273.060283,216.335187 C262.650686,226.682076 248.29616,231.496094 231.09375,231.496094 L37.15625,231.496094 C20.0242708,231.496094 5.70465323,226.674182 -4.69700204,216.335187 C-15.1159908,205.978963 -20,191.709418 -20,174.679687 L-20,36.8164063 C-20,19.6999321 -15.1142533,5.39587843 -4.65382382,-4.93852174 C5.74730361,-15.2143344 20.0459387,-20 37.15625,-20 L231.09375,-20 Z"/><path id="m" d="M231.09375,0 C243.403646,0 252.692708,3.09635417 258.960938,9.2890625 C265.229167,15.4817708 268.363281,24.6575521 268.363281,36.8164062 L268.363281,174.679688 C268.363281,186.763021 265.229167,195.919922 258.960938,202.150391 C252.692708,208.380859 243.403646,211.496094 231.09375,211.496094 L37.15625,211.496094 C24.921875,211.496094 15.6705729,208.380859 9.40234375,202.150391 C3.13411458,195.919922 0,186.763021 0,174.679688 L0,36.8164062 C0,24.6575521 3.13411458,15.4817708 9.40234375,9.2890625 C15.6705729,3.09635417 24.921875,0 37.15625,0 L231.09375,0 Z M90.058,22.316 L38.515625,22.316 C33.2291667,22.316 29.2076823,23.6757813 26.4511719,26.3945313 C23.6946615,29.1132812 22.3164062,33.1914063 22.3164062,38.6289063 L22.3164062,172.753906 C22.3164062,178.266927 23.6946615,182.382813 26.4511719,185.101563 C29.2076823,187.820313 33.2291667,189.179688 38.515625,189.179688 L90.058,189.179688 L90.058,22.316 Z M229.847656,22.316 L111.242,22.316 L111.242,189.179688 L229.847656,189.179688 C235.058594,189.179688 239.061198,187.820313 241.855469,185.101563 C244.64974,182.382813 246.046875,178.266927 246.046875,172.753906 L246.046875,38.6289063 C246.046875,33.1914063 244.64974,29.1132812 241.855469,26.3945313 C239.061198,23.6757813 235.058594,22.316 229.847656,22.316 Z"/><path id="p" d="M67.8554688,109.996094 C69.8945313,109.996094 71.6503906,110.713542 73.1230469,112.148438 C74.5957031,113.583333 75.3320313,115.282552 75.3320313,117.246094 C75.3320313,119.134115 74.5957031,120.795573 73.1230469,122.230469 C71.6503906,123.665365 69.8945313,124.382812 67.8554688,124.382812 L44.6328125,124.382812 C42.6692708,124.382812 40.9511719,123.665365 39.4785156,122.230469 C38.0058594,120.795573 37.2695313,119.134115 37.2695313,117.246094 C37.2695313,115.282552 38.0058594,113.583333 39.4785156,112.148438 C40.9511719,110.713542 42.6692708,109.996094 44.6328125,109.996094 L67.8554688,109.996094 Z"/><path id="r" d="M67.8554688,79.6367188 C69.8945313,79.6367188 71.6503906,80.3541667 73.1230469,81.7890625 C74.5957031,83.2239583 75.3320313,84.8854167 75.3320313,86.7734375 C75.3320313,88.7369792 74.5957031,90.4550781 73.1230469,91.9277344 C71.6503906,93.4003906 69.8945313,94.1367188 67.8554688,94.1367188 L44.6328125,94.1367188 C42.6692708,94.1367188 40.9511719,93.4003906 39.4785156,91.9277344 C38.0058594,90.4550781 37.2695313,88.7369792 37.2695313,86.7734375 C37.2695313,84.8854167 38.0058594,83.2239583 39.4785156,81.7890625 C40.9511719,80.3541667 42.6692708,79.6367188 44.6328125,79.6367188 L67.8554688,79.6367188 Z"/><path id="t" d="M67.8554688,49.2773438 C69.8945313,49.2773438 71.6503906,49.9947917 73.1230469,51.4296875 C74.5957031,52.8645833 75.3320313,54.5638021 75.3320313,56.5273438 C75.3320313,58.3398438 74.5957031,60.0013021 73.1230469,61.5117188 C71.6503906,63.0221354 69.8945313,63.7773438 67.8554688,63.7773438 L44.6328125,63.7773438 C42.6692708,63.7773438 40.9511719,63.0221354 39.4785156,61.5117188 C38.0058594,60.0013021 37.2695313,58.3398438 37.2695313,56.5273438 C37.2695313,54.5638021 38.0058594,52.8645833 39.4785156,51.4296875 C40.9511719,49.9947917 42.6692708,49.2773438 44.6328125,49.2773438 L67.8554688,49.2773438 Z"/><path id="v" d="M161.319066,36.3671875 C168.210275,36.3671875 170.920471,39.1911067 170.920471,46.1947641 L170.920471,165.878621 C170.920471,172.766663 168.210275,175.705976 161.319066,175.705976 L135.647111,175.705976 C128.87101,175.705976 126.160926,172.766663 126.160926,165.878621 L126.160926,46.1947641 C126.160926,39.1911067 128.87101,36.3671875 135.647111,36.3671875 L161.319066,36.3671875 Z"/><path id="x" d="M221.319066,36.3671875 C228.210275,36.3671875 230.920471,39.1911067 230.920471,46.1947641 L230.920471,165.878621 C230.920471,172.766663 228.210275,175.705976 221.319066,175.705976 L195.647111,175.705976 C188.87101,175.705976 186.160926,172.766663 186.160926,165.878621 L186.160926,46.1947641 C186.160926,39.1911067 188.87101,36.3671875 195.647111,36.3671875 L221.319066,36.3671875 Z"/><linearGradient id="c" x1="0%" x2="0%" y1="100%" y2="0%"><stop offset="0%" stop-color="#D1D0D0"/><stop offset="100%" stop-color="#FFF"/></linearGradient><linearGradient id="g" x1="0%" x2="0%" y1="100%" y2="0%"><stop offset="0%" stop-color="#FEFCED"/><stop offset="100%" stop-color="#FEFCED"/></linearGradient></defs><g fill="none" fill-rule="evenodd"><rect width="612" height="612"/><g fill-rule="nonzero"><use xlink:href="#a" fill="#000" filter="url(#b)"/><use xlink:href="#a" fill="url(#c)"/><use xlink:href="#a" fill="#000" filter="url(#d)"/></g><g fill-rule="nonzero"><use xlink:href="#e" fill="#000" filter="url(#f)"/><use xlink:href="#e" fill="url(#g)"/><use xlink:href="#e" fill="#000" filter="url(#h)"/></g><g fill-rule="nonzero" transform="translate(171.84 220.633)"><use xlink:href="#i" fill="#000" filter="url(#j)"/><use xlink:href="#i" fill="#FFF"/><use xlink:href="#k" fill="#000" filter="url(#l)"/><use xlink:href="#k" fill="#FFF"/><use xlink:href="#m" fill="#000" filter="url(#n)"/><use xlink:href="#m" fill="#0933FE"/><use xlink:href="#m" fill="#000" filter="url(#o)"/><use xlink:href="#p" fill="#000" filter="url(#q)"/><use xlink:href="#p" fill="#2404AA"/><use xlink:href="#r" fill="#000" filter="url(#s)"/><use xlink:href="#r" fill="#2404AA"/><use xlink:href="#t" fill="#000" filter="url(#u)"/><use xlink:href="#t" fill="#2404AA"/><use xlink:href="#v" fill="#000" filter="url(#w)"/><use xlink:href="#v" fill="#FF5260"/><use xlink:href="#x" fill="#000" filter="url(#y)"/><use xlink:href="#x" fill="#FF5260"/></g></g></svg>