<svg xmlns="http://www.w3.org/2000/svg" xmlns:xlink="http://www.w3.org/1999/xlink" width="612" height="612" viewBox="0 0 612 612"><defs><filter id="b" width="114.6%" height="114.6%" x="-7.3%" y="-7.3%" filterUnits="objectBoundingBox"><feMorphology in="SourceAlpha" radius="10" result="shadowSpreadOuter1"/><feOffset in="shadowSpreadOuter1" result="shadowOffsetOuter1"/><feGaussianBlur in="shadowOffsetOuter1" result="shadowBlurOuter1" stdDeviation="20"/><feColorMatrix in="shadowBlurOuter1" values="0 0 0 0 1 0 0 0 0 1 0 0 0 0 1 0 0 0 0.5 0"/></filter><filter id="d" width="110.7%" height="110.7%" x="-5.3%" y="-5.3%" filterUnits="objectBoundingBox"><feMorphology in="SourceAlpha" operator="dilate" radius="1" result="shadowSpreadInner1"/><feGaussianBlur in="shadowSpreadInner1" result="shadowBlurInner1" stdDeviation="1.5"/><feOffset dx="-1" dy="-2" in="shadowBlurInner1" result="shadowOffsetInner1"/><feComposite in="shadowOffsetInner1" in2="SourceAlpha" k2="-1" k3="1" operator="arithmetic" result="shadowInnerInner1"/><feColorMatrix in="shadowInnerInner1" result="shadowMatrixInner1" values="0 0 0 0 0 0 0 0 0 0 0 0 0 0 0 0 0 0 0.1 0"/><feMorphology in="SourceAlpha" operator="dilate" radius="1" result="shadowSpreadInner2"/><feGaussianBlur in="shadowSpreadInner2" result="shadowBlurInner2" stdDeviation="1.5"/><feOffset dx="2" dy="2" in="shadowBlurInner2" result="shadowOffsetInner2"/><feComposite in="shadowOffsetInner2" in2="SourceAlpha" k2="-1" k3="1" operator="arithmetic" result="shadowInnerInner2"/><feColorMatrix in="shadowInnerInner2" result="shadowMatrixInner2" values="0 0 0 0 1 0 0 0 0 1 0 0 0 0 1 0 0 0 0.1 0"/><feMerge><feMergeNode in="shadowMatrixInner1"/><feMergeNode in="shadowMatrixInner2"/></feMerge></filter><filter id="f" width="160.9%" height="173.4%" x="-30.5%" y="-29.4%" filterUnits="objectBoundingBox"><feOffset dy="20" in="SourceAlpha" result="shadowOffsetOuter1"/><feGaussianBlur in="shadowOffsetOuter1" result="shadowBlurOuter1" stdDeviation="30"/><feColorMatrix in="shadowBlurOuter1" values="0 0 0 0 0 0 0 0 0 0 0 0 0 0 0 0 0 0 0.25 0"/></filter><filter id="h" width="113.4%" height="117%" x="-6.7%" y="-8.5%" filterUnits="objectBoundingBox"><feMorphology in="SourceAlpha" radius="2" result="shadowSpreadOuter1"/><feOffset in="shadowSpreadOuter1" result="shadowOffsetOuter1"/><feGaussianBlur in="shadowOffsetOuter1" result="shadowBlurOuter1" stdDeviation="8"/><feColorMatrix in="shadowBlurOuter1" values="0 0 0 0 1 0 0 0 0 1 0 0 0 0 1 0 0 0 0.5 0"/></filter><filter id="i" width="109.7%" height="112.3%" x="-4.8%" y="-6.1%" filterUnits="objectBoundingBox"><feGaussianBlur in="SourceAlpha" result="shadowBlurInner1" stdDeviation=".5"/><feOffset dy="-1" in="shadowBlurInner1" result="shadowOffsetInner1"/><feComposite in="shadowOffsetInner1" in2="SourceAlpha" k2="-1" k3="1" operator="arithmetic" result="shadowInnerInner1"/><feColorMatrix in="shadowInnerInner1" result="shadowMatrixInner1" values="0 0 0 0 0 0 0 0 0 0 0 0 0 0 0 0 0 0 0.1 0"/><feGaussianBlur in="SourceAlpha" result="shadowBlurInner2" stdDeviation=".5"/><feOffset dx="1" dy="1" in="shadowBlurInner2" result="shadowOffsetInner2"/><feComposite in="shadowOffsetInner2" in2="SourceAlpha" k2="-1" k3="1" operator="arithmetic" result="shadowInnerInner2"/><feColorMatrix in="shadowInnerInner2" result="shadowMatrixInner2" values="0 0 0 0 1 0 0 0 0 1 0 0 0 0 1 0 0 0 0.1 0"/><feMerge><feMergeNode in="shadowMatrixInner1"/><feMergeNode in="shadowMatrixInner2"/></feMerge></filter><filter id="k" width="108.4%" height="122.6%" x="-4.2%" y="-11.3%" filterUnits="objectBoundingBox"><feOffset in="SourceAlpha" result="shadowOffsetOuter1"/><feGaussianBlur in="shadowOffsetOuter1" result="shadowBlurOuter1" stdDeviation="2"/><feColorMatrix in="shadowBlurOuter1" values="0 0 0 0 0.552677763 0 0 0 0 0.552677763 0 0 0 0 0.552677763 0 0 0 0.5 0"/></filter><filter id="m" width="114.1%" height="114.1%" x="-7.1%" y="-7.1%" filterUnits="objectBoundingBox"><feOffset in="SourceAlpha" result="shadowOffsetOuter1"/><feGaussianBlur in="shadowOffsetOuter1" result="shadowBlurOuter1" stdDeviation="2"/><feColorMatrix in="shadowBlurOuter1" values="0 0 0 0 0.552677763 0 0 0 0 0.552677763 0 0 0 0 0.552677763 0 0 0 0.5 0"/></filter><path id="a" d="M215.374834,120 L396.625166,120 C436.743509,120 451.29139,124.177153 465.958057,132.020972 C480.624723,139.864791 492.135209,151.375277 499.979028,166.041943 C507.822847,180.70861 512,195.256491 512,235.374834 L512,416.625166 C512,456.743509 507.822847,471.29139 499.979028,485.958057 C492.135209,500.624723 480.624723,512.135209 465.958057,519.979028 C451.29139,527.822847 436.743509,532 396.625166,532 L215.374834,532 C175.256491,532 160.70861,527.822847 146.041943,519.979028 C131.375277,512.135209 119.864791,500.624723 112.020972,485.958057 C104.177153,471.29139 100,456.743509 100,416.625166 L100,235.374834 C100,195.256491 104.177153,180.70861 112.020972,166.041943 C119.864791,151.375277 131.375277,139.864791 146.041943,132.020972 C160.70861,124.177153 175.256491,120 215.374834,120 Z"/><path id="e" d="M406.13092,199 C423.570912,199 438.162619,203.881383 448.759943,214.413619 C459.374102,224.962587 464.3231,239.498305 464.3231,256.819946 L464.32477,363.811634 C469.714392,369.407894 473.995588,375.854423 477.107864,383.046892 C480.479222,390.838098 482.160926,399.171753 482.160926,407.868958 C482.160926,416.566162 480.479222,424.899817 477.107864,432.691023 C473.848053,440.224444 469.305874,446.939528 463.550834,452.716395 C457.762816,458.526365 451.011393,463.097308 443.423023,466.356433 C435.636936,469.700476 427.317965,471.368958 418.641475,471.368958 C409.987816,471.368958 401.681792,469.699134 393.898829,466.356433 C386.320186,463.101486 379.571246,458.53878 373.776248,452.741129 L373.537,452.499 L212.18988,452.499634 C194.81788,452.499634 180.250812,447.61254 169.636686,437.103207 C158.978523,426.550273 154,412.003717 154,394.679688 L154,256.819946 C154,239.479545 158.978865,224.926371 169.645195,214.377386 C180.25921,203.88014 194.822145,199 212.18988,199 L406.13092,199 Z"/><path id="g" d="M406.13092,220 C418.437276,220 427.712474,223.102844 433.956512,229.308533 C440.200551,235.514221 443.3231,244.684692 443.3231,256.819946 L443.3231,352.607334 C436.478303,349.547995 428.961013,347.723017 421.054259,347.41543 L421.053955,278.713318 L197.266846,278.713318 L197.266846,392.796387 C197.266846,398.299967 198.656311,402.415263 201.435242,405.142273 C204.214172,407.869283 208.234477,409.232788 213.496155,409.232788 L358.176002,409.2331 C358.350485,417.119902 360.034204,424.634527 362.949775,431.499634 L212.18988,431.499634 C199.946065,431.499634 190.686798,428.39325 184.412079,422.180481 C178.13736,415.967712 175,406.800781 175,394.679688 L175,256.819946 C175,244.684692 178.13736,235.514221 184.412079,229.308533 C190.686798,223.102844 199.946065,220 212.18988,220 L406.13092,220 Z M214.213013,238.817078 C211.29366,238.817078 208.807373,239.871419 206.75415,241.980103 C204.700928,244.088786 203.674316,246.540853 203.674316,249.336304 C203.674316,252.131755 204.700928,254.587067 206.75415,256.70224 C208.807373,258.817413 211.29366,259.875 214.213013,259.875 C217.131185,259.875 219.628977,258.817413 221.70639,256.70224 C223.783803,254.587067 224.82251,252.131755 224.82251,249.336304 C224.82251,246.540853 223.783803,244.088786 221.70639,241.980103 C219.628977,239.871419 217.131185,238.817078 214.213013,238.817078 Z M247.616821,238.817078 C244.684489,238.817078 242.194956,239.871419 240.148224,241.980103 C238.101491,244.088786 237.078125,246.540853 237.078125,249.336304 C237.078125,252.193115 238.101491,254.663767 240.148224,256.74826 C242.194956,258.832753 244.684489,259.875 247.616821,259.875 C250.522013,259.875 253.016856,258.832753 255.101349,256.74826 C257.185842,254.663767 258.228088,252.193115 258.228088,249.336304 C258.228088,246.540853 257.185842,244.088786 255.101349,241.980103 C253.016856,239.871419 250.522013,238.817078 247.616821,238.817078 Z M281.00116,238.817078 C278.082987,238.817078 275.596995,239.871419 273.543182,241.980103 C271.48937,244.088786 270.462463,246.540853 270.462463,249.336304 C270.462463,252.193115 271.48937,254.663767 273.543182,256.74826 C275.596995,258.832753 278.082987,259.875 281.00116,259.875 C283.920512,259.875 286.403554,258.832753 288.450287,256.74826 C290.497019,254.663767 291.520386,252.193115 291.520386,249.336304 C291.520386,246.540853 290.497019,244.088786 288.450287,241.980103 C286.403554,239.871419 283.920512,238.817078 281.00116,238.817078 Z"/><path id="j" d="M280.881657,327.356339 C283.315892,327.356339 285.44696,327.888616 287.274861,328.953171 C289.102762,330.017726 290.530209,331.500181 291.557202,333.400536 C292.584195,335.300891 293.097691,337.514648 293.097691,340.041809 L293.097691,365.368958 L280.966039,365.368958 L280.966039,343.164444 C280.966039,341.856003 280.767191,340.764834 280.369496,339.890938 C279.971801,339.017042 279.38772,338.355433 278.617253,337.906113 C277.846786,337.456792 276.884948,337.232132 275.73174,337.232132 C274.648671,337.232132 273.70419,337.481893 272.898297,337.981415 C272.092404,338.480937 271.474322,339.179573 271.044049,340.077324 C270.613777,340.975075 270.39864,342.040609 270.39864,343.273926 L270.39864,365.368958 L258.817601,365.368958 L258.817601,343.039474 C258.817601,341.778386 258.616172,340.717214 258.213315,339.855957 C257.810457,338.9947 257.225041,338.342082 256.457066,337.898102 C255.689092,337.454122 254.747904,337.232132 253.633504,337.232132 C252.550435,337.232132 251.604619,337.487144 250.796056,337.997169 C249.987492,338.507195 249.361043,339.219449 248.916707,340.133934 C248.472371,341.048419 248.250203,342.119115 248.250203,343.346024 L248.250203,365.368958 L236.119084,365.368958 L236.119084,328.145142 L248.250203,328.145142 L248.250203,334.834213 L248.492131,334.834213 C249.202072,332.555567 250.494491,330.739594 252.369389,329.386292 C254.244288,328.03299 256.452082,327.356339 258.992772,327.356339 C260.767979,327.356339 262.354398,327.667783 263.752026,328.290672 C265.149655,328.913562 266.313901,329.814962 267.244763,330.994873 C268.175626,332.174784 268.813023,333.616206 269.156957,335.319138 L269.398351,335.319138 C269.884699,333.709132 270.675994,332.309723 271.772237,331.120911 C272.868479,329.932098 274.196858,329.007467 275.757375,328.347015 C277.317891,327.686564 279.025985,327.356339 280.881657,327.356339 Z M313.713549,328.145142 L313.713549,365.368958 L301.581896,365.368958 L301.581896,328.145142 L313.713549,328.145142 Z M346.019443,327.356339 C350.108188,327.356339 353.264202,328.592326 355.487484,331.064301 C357.710766,333.536275 358.822407,336.983795 358.822407,341.40686 L358.822407,365.368958 L346.690754,365.368958 L346.690754,344.012527 C346.690754,341.887334 346.191944,340.22597 345.194324,339.028435 C344.196705,337.8309 342.706328,337.232132 340.723194,337.232132 C339.448576,337.232132 338.343344,337.530047 337.407497,338.125877 C336.47165,338.721708 335.748714,339.544512 335.238689,340.594292 C334.728664,341.644071 334.473652,342.859675 334.473652,344.241104 L334.473652,365.368958 L322.342533,365.368958 L322.342533,328.145142 L334.473652,328.145142 L334.473652,334.697495 L334.71558,334.697495 C335.654809,332.352626 337.070863,330.542882 338.963741,329.268265 C340.856619,327.993647 343.20852,327.356339 346.019443,327.356339 Z M379.412101,328.145142 L379.412101,365.368958 L367.280448,365.368958 L367.280448,328.145142 L379.412101,328.145142 Z M307.647722,312.188568 C309.394447,312.188568 310.862571,312.774607 312.052095,313.946686 C313.24162,315.118764 313.836382,316.525828 313.836382,318.167877 C313.836382,319.78714 313.24162,321.188507 312.052095,322.371979 C310.862571,323.55545 309.394447,324.147186 307.647722,324.147186 C305.905982,324.147186 304.439015,323.55545 303.24682,322.371979 C302.054626,321.188507 301.458529,319.78714 301.458529,318.167877 C301.458529,316.525828 302.054626,315.118764 303.24682,313.946686 C304.439015,312.774607 305.905982,312.188568 307.647722,312.188568 Z M373.346275,312.188568 C375.092999,312.188568 376.561124,312.774607 377.750648,313.946686 C378.940172,315.118764 379.534934,316.525828 379.534934,318.167877 C379.534934,319.78714 378.940172,321.188507 377.750648,322.371979 C376.561124,323.55545 375.092999,324.147186 373.346275,324.147186 C371.604535,324.147186 370.137568,323.55545 368.945373,322.371979 C367.753178,321.188507 367.157081,319.78714 367.157081,318.167877 C367.157081,316.525828 367.753178,315.118764 368.945373,313.946686 C370.137568,312.774607 371.604535,312.188568 373.346275,312.188568 Z"/><path id="l" d="M418.641475,365.368958 C424.50265,365.368958 430.000743,366.471674 435.135754,368.677108 C440.270766,370.882541 444.783351,373.937715 448.673512,377.84263 C452.563672,381.747544 455.617448,386.262196 457.834839,391.386586 C460.05223,396.510975 461.160926,402.005099 461.160926,407.868958 C461.160926,413.732816 460.05223,419.22694 457.834839,424.351329 C455.617448,429.475719 452.563672,433.990371 448.673512,437.895285 C444.783351,441.8002 440.270766,444.855374 435.135754,447.060807 C430.000743,449.266241 424.50265,450.368958 418.641475,450.368958 C412.806235,450.368958 407.321109,449.266241 402.186097,447.060807 C397.051086,444.855374 392.532017,441.8002 388.628889,437.895285 C384.725762,433.990371 381.671986,429.475719 379.467562,424.351329 C377.263138,419.22694 376.160926,413.732816 376.160926,407.868958 C376.160926,402.005099 377.263138,396.510975 379.467562,391.386586 C381.671986,386.262196 384.725762,381.747544 388.628889,377.84263 C392.532017,373.937715 397.051086,370.882541 402.186097,368.677108 C407.321109,366.471674 412.806235,365.368958 418.641475,365.368958 Z M418.641475,388.642767 C417.007608,388.642767 415.633085,389.181152 414.517905,390.257923 C413.402726,391.334693 412.845136,392.677413 412.845136,394.286082 L412.845136,402.031045 L405.142619,402.031045 C403.534686,402.031045 402.192581,402.582404 401.116303,403.685121 C400.040026,404.787837 399.501887,406.169476 399.501887,407.830038 C399.501887,409.464653 400.040026,410.839806 401.116303,411.955496 C402.192581,413.071186 403.534686,413.629031 405.142619,413.629031 L412.845136,413.629031 L412.845136,421.373994 C412.845136,422.956717 413.402726,424.286464 414.517905,425.363234 C415.633085,426.440005 417.007608,426.97839 418.641475,426.97839 C420.301277,426.97839 421.682284,426.440005 422.784496,425.363234 C423.886708,424.286464 424.437814,422.956717 424.437814,421.373994 L424.437814,413.629031 L432.179233,413.629031 C433.787165,413.629031 435.129271,413.071186 436.205548,411.955496 C437.281826,410.839806 437.819965,409.464653 437.819965,407.830038 C437.819965,406.169476 437.281826,404.787837 436.205548,403.685121 C435.129271,402.582404 433.787165,402.031045 432.179233,402.031045 L424.437814,402.031045 L424.437814,394.286082 C424.437814,392.677413 423.886708,391.334693 422.784496,390.257923 C421.682284,389.181152 420.301277,388.642767 418.641475,388.642767 Z"/><linearGradient id="c" x1="0%" x2="0%" y1="100%" y2="0%"><stop offset="0%" stop-color="#FEFCED"/><stop offset="100%" stop-color="#FEFCED"/></linearGradient></defs><g fill="none" fill-rule="evenodd"><rect width="612" height="612"/><g fill-rule="nonzero"><use xlink:href="#a" fill="#000" filter="url(#b)"/><use xlink:href="#a" fill="url(#c)"/><use xlink:href="#a" fill="#000" filter="url(#d)"/></g><g fill-rule="nonzero"><use xlink:href="#e" fill="#000" filter="url(#f)"/><use xlink:href="#e" fill="#FFF"/></g><g fill-rule="nonzero"><use xlink:href="#g" fill="#000" filter="url(#h)"/><use xlink:href="#g" fill="#0933FE"/><use xlink:href="#g" fill="#000" filter="url(#i)"/></g><g fill-rule="nonzero"><use xlink:href="#j" fill="#000" filter="url(#k)"/><use xlink:href="#j" fill="#FF5260"/></g><g fill-rule="nonzero"><use xlink:href="#l" fill="#000" filter="url(#m)"/><use xlink:href="#l" fill="#2404AA"/></g></g></svg>