<svg xmlns="http://www.w3.org/2000/svg" xmlns:xlink="http://www.w3.org/1999/xlink" width="612" height="612" viewBox="0 0 612 612"><defs><filter id="b" width="114.6%" height="114.6%" x="-7.3%" y="-7.3%" filterUnits="objectBoundingBox"><feMorphology in="SourceAlpha" radius="10" result="shadowSpreadOuter1"/><feOffset in="shadowSpreadOuter1" result="shadowOffsetOuter1"/><feGaussianBlur in="shadowOffsetOuter1" result="shadowBlurOuter1" stdDeviation="20"/><feColorMatrix in="shadowBlurOuter1" values="0 0 0 0 1 0 0 0 0 1 0 0 0 0 1 0 0 0 0.5 0"/></filter><filter id="d" width="110.7%" height="110.7%" x="-5.3%" y="-5.3%" filterUnits="objectBoundingBox"><feMorphology in="SourceAlpha" operator="dilate" radius="1" result="shadowSpreadInner1"/><feGaussianBlur in="shadowSpreadInner1" result="shadowBlurInner1" stdDeviation="1.5"/><feOffset dx="-1" dy="-2" in="shadowBlurInner1" result="shadowOffsetInner1"/><feComposite in="shadowOffsetInner1" in2="SourceAlpha" k2="-1" k3="1" operator="arithmetic" result="shadowInnerInner1"/><feColorMatrix in="shadowInnerInner1" result="shadowMatrixInner1" values="0 0 0 0 0 0 0 0 0 0 0 0 0 0 0 0 0 0 0.1 0"/><feMorphology in="SourceAlpha" operator="dilate" radius="1" result="shadowSpreadInner2"/><feGaussianBlur in="shadowSpreadInner2" result="shadowBlurInner2" stdDeviation="1.5"/><feOffset dx="2" dy="2" in="shadowBlurInner2" result="shadowOffsetInner2"/><feComposite in="shadowOffsetInner2" in2="SourceAlpha" k2="-1" k3="1" operator="arithmetic" result="shadowInnerInner2"/><feColorMatrix in="shadowInnerInner2" result="shadowMatrixInner2" values="0 0 0 0 1 0 0 0 0 1 0 0 0 0 1 0 0 0 0.1 0"/><feMerge><feMergeNode in="shadowMatrixInner1"/><feMergeNode in="shadowMatrixInner2"/></feMerge></filter><filter id="f" width="112.9%" height="112.4%" x="-6.5%" y="-4.6%" filterUnits="objectBoundingBox"><feOffset dy="5" in="SourceAlpha" result="shadowOffsetOuter1"/><feGaussianBlur in="shadowOffsetOuter1" result="shadowBlurOuter1" stdDeviation="5.5"/><feColorMatrix in="shadowBlurOuter1" values="0 0 0 0 0 0 0 0 0 0 0 0 0 0 0 0 0 0 0.24456403 0"/></filter><filter id="h" width="121.8%" height="121.8%" x="-10.9%" y="-10.9%" filterUnits="objectBoundingBox"><feMorphology in="SourceAlpha" radius="2" result="shadowSpreadOuter1"/><feOffset in="shadowSpreadOuter1" result="shadowOffsetOuter1"/><feGaussianBlur in="shadowOffsetOuter1" result="shadowBlurOuter1" stdDeviation="8"/><feColorMatrix in="shadowBlurOuter1" values="0 0 0 0 1 0 0 0 0 1 0 0 0 0 1 0 0 0 0.5 0"/></filter><filter id="j" width="115.8%" height="115.8%" x="-7.9%" y="-7.9%" filterUnits="objectBoundingBox"><feGaussianBlur in="SourceAlpha" result="shadowBlurInner1" stdDeviation=".5"/><feOffset dy="-1" in="shadowBlurInner1" result="shadowOffsetInner1"/><feComposite in="shadowOffsetInner1" in2="SourceAlpha" k2="-1" k3="1" operator="arithmetic" result="shadowInnerInner1"/><feColorMatrix in="shadowInnerInner1" result="shadowMatrixInner1" values="0 0 0 0 0 0 0 0 0 0 0 0 0 0 0 0 0 0 0.1 0"/><feGaussianBlur in="SourceAlpha" result="shadowBlurInner2" stdDeviation=".5"/><feOffset dx="1" dy="1" in="shadowBlurInner2" result="shadowOffsetInner2"/><feComposite in="shadowOffsetInner2" in2="SourceAlpha" k2="-1" k3="1" operator="arithmetic" result="shadowInnerInner2"/><feColorMatrix in="shadowInnerInner2" result="shadowMatrixInner2" values="0 0 0 0 1 0 0 0 0 1 0 0 0 0 1 0 0 0 0.1 0"/><feMerge><feMergeNode in="shadowMatrixInner1"/><feMergeNode in="shadowMatrixInner2"/></feMerge></filter><path id="a" d="M215.374834,120 L396.625166,120 C436.743509,120 451.29139,124.177153 465.958057,132.020972 C480.624723,139.864791 492.135209,151.375277 499.979028,166.041943 C507.822847,180.70861 512,195.256491 512,235.374834 L512,416.625166 C512,456.743509 507.822847,471.29139 499.979028,485.958057 C492.135209,500.624723 480.624723,512.135209 465.958057,519.979028 C451.29139,527.822847 436.743509,532 396.625166,532 L215.374834,532 C175.256491,532 160.70861,527.822847 146.041943,519.979028 C131.375277,512.135209 119.864791,500.624723 112.020972,485.958057 C104.177153,471.29139 100,456.743509 100,416.625166 L100,235.374834 C100,195.256491 104.177153,180.70861 112.020972,166.041943 C119.864791,151.375277 131.375277,139.864791 146.041943,132.020972 C160.70861,124.177153 175.256491,120 215.374834,120 Z"/><path id="e" d="M180.712179,0.632583662 C203.358776,-1.31478233 212.962957,0.87363831 228.62228,12.2859351 L228.511686,12.2085724 L274.852182,44.9326109 L275.191918,45.1776482 C275.475835,45.3867498 277.229201,46.6739757 277.716786,47.0341462 C278.711248,47.7687378 279.485582,48.3510855 280.224297,48.9249883 C282.44575,50.6508196 284.212227,52.1989644 285.898442,54.0306995 C291.483006,60.0972116 294,67.2089805 294,75.519589 L294,255.57039 C294,278.679044 280.7066,293.846728 255.823069,295.616648 L86.7177369,305.885214 L86.4396494,305.90025 C68.991261,306.727708 57.4847033,302.507631 47.2801339,289.470371 L12.8909998,244.636152 C4.18095251,232.984749 0,222.673504 0,210.430388 L0,50.3864042 C0,29.6530897 12.6584395,13.3651884 35.0707324,11.4172896 L35.3382935,11.3957571 L180.712179,0.632583662 Z"/><path id="g" d="M266.149934,210 L338.850066,210 C354.897404,210 360.716556,211.670861 366.583223,214.808389 C372.449889,217.945916 377.054084,222.550111 380.191611,228.416777 C383.329139,234.283444 385,240.102596 385,256.149934 L385,328.850066 C385,344.897404 383.329139,350.716556 380.191611,356.583223 C377.054084,362.449889 372.449889,367.054084 366.583223,370.191611 C360.716556,373.329139 354.897404,375 338.850066,375 L266.149934,375 C250.102596,375 244.283444,373.329139 238.416777,370.191611 C232.550111,367.054084 227.945916,362.449889 224.808389,356.583223 C221.670861,350.716556 220,344.897404 220,328.850066 L220,256.149934 C220,240.102596 221.670861,234.283444 224.808389,228.416777 C227.945916,222.550111 232.550111,217.945916 238.416777,214.808389 C244.283444,211.670861 250.102596,210 266.149934,210 Z"/><linearGradient id="c" x1="0%" x2="0%" y1="100%" y2="0%"><stop offset="0%" stop-color="#D1D0D0"/><stop offset="100%" stop-color="#FFF"/></linearGradient><linearGradient id="i" x1="0%" x2="0%" y1="100%" y2="0%"><stop offset="0%" stop-color="#262626"/><stop offset="100%" stop-color="#979797"/></linearGradient></defs><g fill="none" fill-rule="evenodd"><rect width="612" height="612"/><rect width="612" height="612"/><g fill-rule="nonzero"><use xlink:href="#a" fill="#000" filter="url(#b)"/><use xlink:href="#a" fill="url(#c)"/><use xlink:href="#a" fill="#000" filter="url(#d)"/></g><g transform="translate(159 173)"><g fill-rule="nonzero"><use xlink:href="#e" fill="#000" filter="url(#f)"/><use xlink:href="#e" fill="#FFF"/></g><path fill="#000" d="M182.511436,21.6650259 L36.8891535,32.4480751 C25.1410489,33.4664888 21.0539507,41.1626362 21.0539507,50.3864042 L21.0539507,210.430388 C21.0539507,217.61469 23.598847,223.76211 29.7387054,231.978018 L63.9697976,276.600898 C69.5938342,283.7852 74.7073125,285.326012 85.4448274,284.814167 L254.552792,274.550878 C268.851056,273.529826 272.948681,266.854731 272.948681,255.573028 L272.948681,75.5222274 C272.948681,69.691413 270.651169,68.0107664 263.887587,63.0347863 L216.242496,29.358535 C204.997055,21.1610958 200.399398,20.1242134 182.511436,21.6623876 L182.511436,21.6650259 Z M89.2687512,72.5751596 C75.4599912,73.5065069 72.3282161,73.7175771 64.4856194,67.3247883 L44.547528,51.425925 C42.5210853,49.3679905 43.5395701,46.8008491 48.6451532,46.2890039 L188.635503,36.0336302 C200.391503,35.004663 206.512939,39.1126169 211.110596,42.7008104 L235.119995,60.1404861 C236.146375,60.6602465 238.699167,63.7286796 235.627922,63.7286796 L91.058337,72.4537943 L89.2687512,72.577798 L89.2687512,72.5751596 Z M73.1703741,254.034854 L73.1703741,101.185726 C73.1703741,94.5106308 75.2152391,91.4316442 81.3366752,90.9145222 L247.383921,81.1683554 C253.015853,80.6591485 255.560749,84.247342 255.560749,90.9118838 L255.560749,242.742598 C255.560749,249.417693 254.534369,255.063821 245.341688,255.573028 L86.44489,264.80735 C77.2522088,265.316557 73.1730058,262.248124 73.1730058,254.034854 L73.1703741,254.034854 Z M230.022307,109.380527 C231.040792,113.997688 230.022307,118.614848 225.416755,119.142524 L217.758381,120.664868 L217.758381,233.516192 C211.107964,237.104385 204.986528,239.154405 199.870418,239.154405 C191.69359,239.154405 189.651357,236.587263 183.527289,228.899031 L133.445203,149.906006 L133.445203,226.33189 L149.288301,229.927998 C149.288301,229.927998 149.288301,239.16232 136.505921,239.16232 L101.266871,241.212339 C100.240491,239.154405 101.266871,234.028037 104.838148,233.006985 L114.041356,230.447759 L114.041356,129.397897 L101.269503,128.361015 C100.243123,123.743854 102.795915,117.076674 109.954258,116.559552 L147.764522,114.008241 L199.87305,194.022318 L199.87305,123.234647 L186.590639,121.704388 C185.564258,116.050345 189.651357,111.942391 194.75694,111.4411 L230.022307,109.383165 L230.022307,109.380527 Z"/><g fill-rule="nonzero"><use xlink:href="#g" fill="#000" filter="url(#h)"/><use xlink:href="#g" fill="url(#i)"/><use xlink:href="#g" fill="#000" filter="url(#j)"/></g><path fill="#ECECEC" fill-rule="nonzero" d="M68.3260345,85.4997253 L44.4108582,85.4997253 L44.4108582,58.1918335 C44.4108582,57.1311951 44.7346115,56.2830734 45.3821182,55.6474686 C46.0296249,55.0118637 46.886673,54.6940613 47.9532623,54.6940613 L64.8282623,54.6940613 C65.888443,54.6940613 66.7364502,55.0118637 67.3722839,55.6474686 C68.0081177,56.2830734 68.3260345,57.1311951 68.3260345,58.1918335 L68.3260345,85.4997253 Z M15.371933,86.5805054 C15.371933,89.9908447 16.4412689,92.6949692 18.5799408,94.6928787 C20.7186127,96.6907883 23.5956573,97.689743 27.2110748,97.689743 L85.552597,97.689743 C89.1561127,97.689743 92.0227432,96.6907883 94.1524887,94.6928787 C96.2822342,92.6949692 97.3471069,89.9908447 97.3471069,86.5805054 L97.3471069,56.1792755 L59.2733002,24.187088 C57.3571014,22.569809 55.4411316,22.569809 53.5253906,24.187088 L15.371933,56.1792755 L15.371933,86.5805054 Z M0,46.4323425 C0,48.1137085 0.556640625,49.5022202 1.66992187,50.5978775 C2.78320312,51.6935349 4.27734375,52.2413635 6.15234375,52.2413635 C6.9960022,52.2413635 7.82798767,52.055397 8.64830017,51.6834641 C9.46861267,51.3115311 10.2362823,50.8266449 10.9513092,50.2288055 L53.8062286,14.2904663 C54.655838,13.5699463 55.52742,13.2096863 56.4209747,13.2096863 C57.3145294,13.2096863 58.1861115,13.5699463 59.0357208,14.2904663 L101.812363,50.2288055 C102.532883,50.8266449 103.303299,51.3115311 104.123611,51.6834641 C104.943924,52.055397 105.775909,52.2413635 106.619568,52.2413635 C108.418579,52.2413635 109.890862,51.7214584 111.036415,50.6816483 C112.181969,49.6418381 112.754745,48.2430267 112.754745,46.4852142 C112.754745,44.5337677 111.940155,42.8784943 110.310974,41.5193939 L64.590683,3.09333801 C62.1237946,1.03111267 59.4006729,0 56.4213181,0 C53.4419632,0 50.7188416,1.03111267 48.2519531,3.09333801 L2.4609375,41.5454865 C0.8203125,42.9398346 0,44.5687866 0,46.4323425 Z M82.2038269,21.7350769 L97.8483582,34.8218536 L97.8483582,11.4868927 C97.8483582,10.450058 97.540741,9.61956024 96.9255066,8.99539948 C96.3102722,8.37123871 95.4753113,8.05915833 94.4206238,8.05915833 L85.6583405,8.05915833 C84.6329498,8.05915833 83.8008499,8.37123871 83.1620407,8.99539948 C82.5232315,9.61956024 82.2038269,10.450058 82.2038269,11.4868927 L82.2038269,21.7350769 Z" transform="translate(247.623 243.828)"/></g></g></svg>