<svg xmlns="http://www.w3.org/2000/svg" xmlns:xlink="http://www.w3.org/1999/xlink" width="612" height="612" viewBox="0 0 612 612"><defs><filter id="b" width="114.6%" height="114.6%" x="-7.3%" y="-7.3%" filterUnits="objectBoundingBox"><feMorphology in="SourceAlpha" radius="10" result="shadowSpreadOuter1"/><feOffset in="shadowSpreadOuter1" result="shadowOffsetOuter1"/><feGaussianBlur in="shadowOffsetOuter1" result="shadowBlurOuter1" stdDeviation="20"/><feColorMatrix in="shadowBlurOuter1" values="0 0 0 0 1 0 0 0 0 1 0 0 0 0 1 0 0 0 0.5 0"/></filter><filter id="d" width="110.7%" height="110.7%" x="-5.3%" y="-5.3%" filterUnits="objectBoundingBox"><feMorphology in="SourceAlpha" operator="dilate" radius="1" result="shadowSpreadInner1"/><feGaussianBlur in="shadowSpreadInner1" result="shadowBlurInner1" stdDeviation="1.5"/><feOffset dx="-1" dy="-2" in="shadowBlurInner1" result="shadowOffsetInner1"/><feComposite in="shadowOffsetInner1" in2="SourceAlpha" k2="-1" k3="1" operator="arithmetic" result="shadowInnerInner1"/><feColorMatrix in="shadowInnerInner1" result="shadowMatrixInner1" values="0 0 0 0 0 0 0 0 0 0 0 0 0 0 0 0 0 0 0.1 0"/><feMorphology in="SourceAlpha" operator="dilate" radius="1" result="shadowSpreadInner2"/><feGaussianBlur in="shadowSpreadInner2" result="shadowBlurInner2" stdDeviation="1.5"/><feOffset dx="2" dy="2" in="shadowBlurInner2" result="shadowOffsetInner2"/><feComposite in="shadowOffsetInner2" in2="SourceAlpha" k2="-1" k3="1" operator="arithmetic" result="shadowInnerInner2"/><feColorMatrix in="shadowInnerInner2" result="shadowMatrixInner2" values="0 0 0 0 1 0 0 0 0 1 0 0 0 0 1 0 0 0 0.1 0"/><feMerge><feMergeNode in="shadowMatrixInner1"/><feMergeNode in="shadowMatrixInner2"/></feMerge></filter><filter id="f" width="228.7%" height="278.7%" x="-64.3%" y="-56.9%" filterUnits="objectBoundingBox"><feOffset dy="40" in="SourceAlpha" result="shadowOffsetOuter1"/><feGaussianBlur in="shadowOffsetOuter1" result="shadowBlurOuter1" stdDeviation="30"/><feColorMatrix in="shadowBlurOuter1" values="0 0 0 0 0 0 0 0 0 0 0 0 0 0 0 0 0 0 0.25 0"/></filter><filter id="h" width="179.4%" height="168.2%" x="-39.7%" y="-27.3%" filterUnits="objectBoundingBox"><feOffset dy="20" in="SourceAlpha" result="shadowOffsetOuter1"/><feGaussianBlur in="shadowOffsetOuter1" result="shadowBlurOuter1" stdDeviation="30"/><feColorMatrix in="shadowBlurOuter1" values="0 0 0 0 0 0 0 0 0 0 0 0 0 0 0 0 0 0 0.25 0"/></filter><path id="a" d="M215.374834,120 L396.625166,120 C436.743509,120 451.29139,124.177153 465.958057,132.020972 C480.624723,139.864791 492.135209,151.375277 499.979028,166.041943 C507.822847,180.70861 512,195.256491 512,235.374834 L512,416.625166 C512,456.743509 507.822847,471.29139 499.979028,485.958057 C492.135209,500.624723 480.624723,512.135209 465.958057,519.979028 C451.29139,527.822847 436.743509,532 396.625166,532 L215.374834,532 C175.256491,532 160.70861,527.822847 146.041943,519.979028 C131.375277,512.135209 119.864791,500.624723 112.020972,485.958057 C104.177153,471.29139 100,456.743509 100,416.625166 L100,235.374834 C100,195.256491 104.177153,180.70861 112.020972,166.041943 C119.864791,151.375277 131.375277,139.864791 146.041943,132.020972 C160.70861,124.177153 175.256491,120 215.374834,120 Z"/><path id="e" d="M251.917481,435.01033 L360.08223,435.01033 C370.259903,435.01033 378.036998,432.362399 383.413514,427.066536 C388.790029,421.770673 391.478287,414.060618 391.478287,403.936371 L391.478287,311.931992 L220.521424,311.931992 L220.521424,403.936371 C220.521424,414.114044 223.212764,421.837456 228.595444,427.106606 C233.978124,432.375755 241.752137,435.01033 251.917481,435.01033 Z M274.242402,349.455612 C271.884461,349.455612 269.964974,348.701482 268.483941,347.193222 C267.002907,345.684962 266.262391,343.719498 266.262391,341.296829 L266.262391,338.202225 C266.262391,335.779556 267.000082,333.833613 268.475464,332.364395 C269.950847,330.895177 271.873159,330.160568 274.242402,330.160568 L337.874436,330.160568 C340.243678,330.160568 342.179347,330.895177 343.681443,332.364395 C345.183538,333.833613 345.934586,335.779556 345.934586,338.202225 L345.934586,341.296829 C345.934586,343.719498 345.180713,345.684962 343.672966,347.193222 C342.16522,348.701482 340.232377,349.455612 337.874436,349.455612 L274.242402,349.455612 Z"/><path id="g" d="M334.804297,172.848805 C360.209395,172.848805 380.804297,193.443707 380.804297,218.848805 C380.804297,219.356907 380.796059,219.863085 380.779709,220.367213 L380.764297,220.733805 L381.153035,220.908135 C383.692036,222.073967 386.096528,223.535892 388.314058,225.270876 L388.786362,225.64683 L416.497315,248.086717 C431.639698,260.348777 434.23081,282.365395 422.551915,297.783899 L422.477297,297.879805 L422.478287,403.936371 C422.478287,421.569578 417.146638,437.087076 405.619782,448.701346 L405.167547,449.151871 C393.446289,460.697299 377.841676,466.01033 360.08223,466.01033 L251.917481,466.01033 C234.201804,466.01033 218.631603,460.733665 206.909999,449.259291 C195.003263,437.603689 189.521424,421.872307 189.521424,403.936371 L189.522297,308.495805 L189.320813,308.289413 C176.384716,294.756519 174.069658,273.668895 184.732319,257.460484 L185.10954,256.897073 C190.186559,249.445422 197.578444,243.875237 206.140847,241.048847 L219.979297,236.480805 L224.061877,222.491077 C230.341519,200.97135 252.714798,188.525167 274.25312,194.433072 L274.905523,194.617727 C280.983019,196.391192 286.531027,199.536617 291.14327,203.769524 L291.287297,203.904805 L291.38282,203.626164 C297.586748,185.92897 314.303896,173.175017 334.043603,172.854968 L334.804297,172.848805 Z M391.478287,311.931992 L220.521424,311.931992 L220.521424,403.936371 C220.521424,414.114044 223.212764,421.837456 228.595444,427.106606 C233.978124,432.375755 241.752137,435.01033 251.917481,435.01033 L360.08223,435.01033 C370.259903,435.01033 378.036998,432.362399 383.413514,427.066536 C388.790029,421.770673 391.478287,414.060618 391.478287,403.936371 L391.478287,311.931992 Z M337.874436,330.160568 C340.243678,330.160568 342.179347,330.895177 343.681443,332.364395 C345.183538,333.833613 345.934586,335.779556 345.934586,338.202225 L345.934586,341.296829 C345.934586,343.719498 345.180713,345.684962 343.672966,347.193222 C342.16522,348.701482 340.232377,349.455612 337.874436,349.455612 L274.242402,349.455612 C271.884461,349.455612 269.964974,348.701482 268.483941,347.193222 C267.002907,345.684962 266.262391,343.719498 266.262391,341.296829 L266.262391,338.202225 C266.262391,335.779556 267.000082,333.833613 268.475464,332.364395 C269.950847,330.895177 271.873159,330.160568 274.242402,330.160568 L337.874436,330.160568 Z M366.863036,248.677988 C364.131383,248.2736 361.589119,250.160222 361.184731,252.891876 L356.052611,287.559549 C355.929098,288.39388 356.018649,289.245898 356.31293,290.036317 C357.276423,292.624201 360.155383,293.941029 362.743267,292.977536 L395.58634,280.74975 C396.424935,280.437533 397.164376,279.905988 397.727511,279.210574 C399.465331,277.064545 399.134412,273.916062 396.988383,272.178242 L369.27743,249.738355 C368.582016,249.17522 367.748219,248.809028 366.863036,248.677988 Z M266.221631,224.376591 C260.9199,222.829501 255.367833,225.873238 253.820742,231.174969 L245.909387,258.286424 C245.448397,259.866191 244.239572,261.117966 242.676855,261.633808 L215.858019,270.48652 C213.769628,271.175883 211.966729,272.534465 210.728432,274.351941 C207.618736,278.916109 208.797819,285.137006 213.361988,288.246702 L216.634243,290.47618 L312.73258,290.494256 L329.021469,267.852815 C330.305815,266.067583 330.965836,263.908749 330.899354,261.710528 C330.7324,256.190204 326.12195,251.850441 320.601627,252.017395 L292.372359,252.87115 C290.727457,252.920897 289.163401,252.158057 288.1899,250.831228 L271.482995,228.060638 C270.182023,226.287485 268.332808,224.992651 266.221631,224.376591 Z M334.804297,202.848805 C325.967741,202.848805 318.804297,210.012249 318.804297,218.848805 C318.804297,219.585185 318.854043,220.309946 318.950358,221.019911 L318.955297,221.051805 L319.664505,221.031563 L319.961074,221.02545 C321.015361,228.278172 327.259283,233.848805 334.804297,233.848805 C342.122269,233.848805 348.216276,228.608386 349.538353,221.675511 C349.80341,221.534965 350.071737,221.39955 350.341835,221.267452 L350.642297,221.121805 L350.658236,221.019911 C350.740791,220.411369 350.789133,219.791958 350.80126,219.163676 L350.804297,218.848805 C350.804297,210.012249 343.640853,202.848805 334.804297,202.848805 Z"/><linearGradient id="c" x1="0%" x2="0%" y1="100%" y2="0%"><stop offset="0%" stop-color="#FEFCED"/><stop offset="100%" stop-color="#FEFCED"/></linearGradient></defs><g fill="none" fill-rule="evenodd"><rect width="612" height="612"/><rect width="412" height="412" x="101" y="120"/><g fill-rule="nonzero"><use xlink:href="#a" fill="#000" filter="url(#b)"/><use xlink:href="#a" fill="url(#c)"/><use xlink:href="#a" fill="#000" filter="url(#d)"/></g><g fill-rule="nonzero"><use xlink:href="#e" fill="#000" filter="url(#f)"/><use xlink:href="#e" fill="#0933FE"/></g><g fill-rule="nonzero"><use xlink:href="#g" fill="#000" filter="url(#h)"/><use xlink:href="#g" fill="#FFF"/></g><circle cx="334.804" cy="218.849" r="15" fill="#FF999A"/><path fill="#2404AA" d="M211.148129,281.17729 L208.312732,278.413461 C204.357896,274.558449 204.276973,268.227316 208.131985,264.27248 C209.667071,262.697644 211.678495,261.672772 213.854866,261.356527 L241.803521,257.29535 C243.432072,257.058707 244.8399,256.03586 245.56821,254.560143 L258.067228,229.234365 C260.511451,224.281829 266.50771,222.248439 271.460246,224.692661 C273.432372,225.665964 275.028648,227.262239 276.00195,229.234365 L288.500969,254.560143 C289.229279,256.03586 290.637107,257.058707 292.265657,257.29535 L320.214313,261.356527 C325.679761,262.150703 329.466576,267.225132 328.6724,272.69058 C328.356155,274.866951 327.331283,276.878375 325.756446,278.413461 L305.783377,297.882392 L305.783377,297.882392 L211.148129,281.17729 Z" transform="rotate(-10 267.035 254.473)"/><path fill="#FF5260" d="M373.27783,263.228845 L391.106497,293.400436 C392.511315,295.777819 391.722894,298.843898 389.345511,300.248715 C388.575128,300.703941 387.696695,300.944083 386.801865,300.944083 L351.14453,300.944083 C348.383107,300.944083 346.14453,298.705506 346.14453,295.944083 C346.14453,295.049252 346.384672,294.170819 346.839898,293.400436 L364.668565,263.228845 C366.073382,260.851462 369.139461,260.063042 371.516844,261.467859 C372.24297,261.896934 372.848756,262.50272 373.27783,263.228845 Z" transform="rotate(-141 368.973 278.444)"/></g></svg>