<svg xmlns="http://www.w3.org/2000/svg" xmlns:xlink="http://www.w3.org/1999/xlink" width="612" height="612" viewBox="0 0 612 612"><defs><filter id="b" width="114.6%" height="114.6%" x="-7.3%" y="-7.3%" filterUnits="objectBoundingBox"><feMorphology in="SourceAlpha" radius="10" result="shadowSpreadOuter1"/><feOffset in="shadowSpreadOuter1" result="shadowOffsetOuter1"/><feGaussianBlur in="shadowOffsetOuter1" result="shadowBlurOuter1" stdDeviation="20"/><feColorMatrix in="shadowBlurOuter1" values="0 0 0 0 1 0 0 0 0 1 0 0 0 0 1 0 0 0 0.5 0"/></filter><filter id="d" width="110.7%" height="110.7%" x="-5.3%" y="-5.3%" filterUnits="objectBoundingBox"><feMorphology in="SourceAlpha" operator="dilate" radius="1" result="shadowSpreadInner1"/><feGaussianBlur in="shadowSpreadInner1" result="shadowBlurInner1" stdDeviation="1.5"/><feOffset dx="-1" dy="-2" in="shadowBlurInner1" result="shadowOffsetInner1"/><feComposite in="shadowOffsetInner1" in2="SourceAlpha" k2="-1" k3="1" operator="arithmetic" result="shadowInnerInner1"/><feColorMatrix in="shadowInnerInner1" result="shadowMatrixInner1" values="0 0 0 0 0 0 0 0 0 0 0 0 0 0 0 0 0 0 0.1 0"/><feMorphology in="SourceAlpha" operator="dilate" radius="1" result="shadowSpreadInner2"/><feGaussianBlur in="shadowSpreadInner2" result="shadowBlurInner2" stdDeviation="1.5"/><feOffset dx="2" dy="2" in="shadowBlurInner2" result="shadowOffsetInner2"/><feComposite in="shadowOffsetInner2" in2="SourceAlpha" k2="-1" k3="1" operator="arithmetic" result="shadowInnerInner2"/><feColorMatrix in="shadowInnerInner2" result="shadowMatrixInner2" values="0 0 0 0 1 0 0 0 0 1 0 0 0 0 1 0 0 0 0.1 0"/><feMerge><feMergeNode in="shadowMatrixInner1"/><feMergeNode in="shadowMatrixInner2"/></feMerge></filter><filter id="f" width="109.6%" height="109.6%" x="-4.8%" y="-4.8%" filterUnits="objectBoundingBox"><feOffset in="SourceAlpha" result="shadowOffsetOuter1"/><feGaussianBlur in="shadowOffsetOuter1" result="shadowBlurOuter1" stdDeviation="4"/><feColorMatrix in="shadowBlurOuter1" values="0 0 0 0 0.266666667 0 0 0 0 0.192156863 0 0 0 0 0.611764706 0 0 0 0.5 0"/></filter><filter id="i" width="122.6%" height="122%" x="-11.3%" y="-11%" filterUnits="objectBoundingBox"><feOffset in="SourceAlpha" result="shadowOffsetOuter1"/><feGaussianBlur in="shadowOffsetOuter1" result="shadowBlurOuter1" stdDeviation="5"/><feColorMatrix in="shadowBlurOuter1" values="0 0 0 0 1 0 0 0 0 1 0 0 0 0 1 0 0 0 0.5 0"/></filter><filter id="l" width="121.8%" height="121.8%" x="-10.9%" y="-10.9%" filterUnits="objectBoundingBox"><feMorphology in="SourceAlpha" radius="2" result="shadowSpreadOuter1"/><feOffset in="shadowSpreadOuter1" result="shadowOffsetOuter1"/><feGaussianBlur in="shadowOffsetOuter1" result="shadowBlurOuter1" stdDeviation="8"/><feColorMatrix in="shadowBlurOuter1" values="0 0 0 0 1 0 0 0 0 1 0 0 0 0 1 0 0 0 0.5 0"/></filter><filter id="n" width="115.8%" height="115.8%" x="-7.9%" y="-7.9%" filterUnits="objectBoundingBox"><feGaussianBlur in="SourceAlpha" result="shadowBlurInner1" stdDeviation=".5"/><feOffset dy="-1" in="shadowBlurInner1" result="shadowOffsetInner1"/><feComposite in="shadowOffsetInner1" in2="SourceAlpha" k2="-1" k3="1" operator="arithmetic" result="shadowInnerInner1"/><feColorMatrix in="shadowInnerInner1" result="shadowMatrixInner1" values="0 0 0 0 0 0 0 0 0 0 0 0 0 0 0 0 0 0 0.1 0"/><feGaussianBlur in="SourceAlpha" result="shadowBlurInner2" stdDeviation=".5"/><feOffset dx="1" dy="1" in="shadowBlurInner2" result="shadowOffsetInner2"/><feComposite in="shadowOffsetInner2" in2="SourceAlpha" k2="-1" k3="1" operator="arithmetic" result="shadowInnerInner2"/><feColorMatrix in="shadowInnerInner2" result="shadowMatrixInner2" values="0 0 0 0 1 0 0 0 0 1 0 0 0 0 1 0 0 0 0.1 0"/><feMerge><feMergeNode in="shadowMatrixInner1"/><feMergeNode in="shadowMatrixInner2"/></feMerge></filter><linearGradient id="c" x1="0%" x2="0%" y1="100%" y2="0%"><stop offset="0%" stop-color="#D1D0D0"/><stop offset="100%" stop-color="#FFF"/></linearGradient><linearGradient id="g" x1="50%" x2="50%" y1="0%" y2="100%"><stop offset="0%" stop-color="#44319C"/><stop offset="100%" stop-color="#783AE8"/></linearGradient><linearGradient id="j" x1="50%" x2="50%" y1="0%" y2="100%"><stop offset="0%" stop-color="#FFF"/><stop offset="100%" stop-color="#CDCDCD"/></linearGradient><linearGradient id="m" x1="0%" x2="0%" y1="100%" y2="0%"><stop offset="0%" stop-color="#262626"/><stop offset="100%" stop-color="#979797"/></linearGradient><path id="a" d="M215.374834,120 L396.625166,120 C436.743509,120 451.29139,124.177153 465.958057,132.020972 C480.624723,139.864791 492.135209,151.375277 499.979028,166.041943 C507.822847,180.70861 512,195.256491 512,235.374834 L512,416.625166 C512,456.743509 507.822847,471.29139 499.979028,485.958057 C492.135209,500.624723 480.624723,512.135209 465.958057,519.979028 C451.29139,527.822847 436.743509,532 396.625166,532 L215.374834,532 C175.256491,532 160.70861,527.822847 146.041943,519.979028 C131.375277,512.135209 119.864791,500.624723 112.020972,485.958057 C104.177153,471.29139 100,456.743509 100,416.625166 L100,235.374834 C100,195.256491 104.177153,180.70861 112.020972,166.041943 C119.864791,151.375277 131.375277,139.864791 146.041943,132.020972 C160.70861,124.177153 175.256491,120 215.374834,120 Z"/><path id="h" d="M189.200571,56.8285611 C190.733509,56.8285611 191.778951,58.3821131 191.196539,59.8060892 L137.826432,189.20193 C136.824484,191.62944 134.460402,193.205419 131.838982,193.205419 L116.476305,193.205419 C113.83291,193.205419 111.448895,191.597046 110.465748,189.137595 L109.226395,186.030491 C110.465748,186.483554 110.995832,185.210448 111.221231,184.638456 L125.95936,146.210357 L159.71593,58.2097227 C160.03987,57.3785792 160.837939,56.8285611 161.733418,56.8285611 Z M90.4193095,56.8276549 C91.2803552,56.8401142 92.0967742,57.4046303 92.4143711,58.219237 L122.989761,139.289371 L120.179866,146.615848 L88.2833454,62.0421801 L65.2947173,62.0421801 L109.86023,173.522563 L108.357874,177.440422 C108.132249,178.011961 107.602845,179.284387 106.364398,178.832457 C90.4691464,139.155944 74.3557448,99.5657394 58.7697082,59.7666727 C58.2792679,58.4847318 59.2365893,56.8455509 60.7652229,56.8276549 C70.6496919,56.7882385 80.5348405,56.7800834 90.4193095,56.8276549 Z"/><path id="k" d="M244.149934,182 L316.850066,182 C332.897404,182 338.716556,183.670861 344.583223,186.808389 C350.449889,189.945916 355.054084,194.550111 358.191611,200.416777 C361.329139,206.283444 363,212.102596 363,228.149934 L363,300.850066 C363,316.897404 361.329139,322.716556 358.191611,328.583223 C355.054084,334.449889 350.449889,339.054084 344.583223,342.191611 C338.716556,345.329139 332.897404,347 316.850066,347 L244.149934,347 C228.102596,347 222.283444,345.329139 216.416777,342.191611 C210.550111,339.054084 205.945916,334.449889 202.808389,328.583223 C199.670861,322.716556 198,316.897404 198,300.850066 L198,228.149934 C198,212.102596 199.670861,206.283444 202.808389,200.416777 C205.945916,194.550111 210.550111,189.945916 216.416777,186.808389 C222.283444,183.670861 228.102596,182 244.149934,182 Z"/><rect id="e" width="250" height="250" x="0" y="0" rx="26"/></defs><g fill="none" fill-rule="evenodd"><rect width="612" height="612"/><g fill-rule="nonzero"><use xlink:href="#a" fill="#000" filter="url(#b)"/><use xlink:href="#a" fill="url(#c)"/><use xlink:href="#a" fill="#000" filter="url(#d)"/></g><g transform="translate(181 201)"><use xlink:href="#e" fill="#000" filter="url(#f)"/><use xlink:href="#e" fill="url(#g)"/><use xlink:href="#h" fill="#000" filter="url(#i)"/><use xlink:href="#h" fill="url(#j)"/><g fill-rule="nonzero"><use xlink:href="#k" fill="#000" filter="url(#l)"/><use xlink:href="#k" fill="url(#m)"/><use xlink:href="#k" fill="#000" filter="url(#n)"/></g><path fill="#ECECEC" fill-rule="nonzero" d="M244,287.660156 C244,292.042969 245.166016,295.382812 247.498047,297.679688 C249.830078,299.976562 253.210938,301.125 257.640625,301.125 L300.074219,301.125 C304.527344,301.125 307.914063,299.976562 310.234375,297.679688 C312.554688,295.382812 313.714844,292.042969 313.714844,287.660156 L313.714844,276.9375 C313.714844,276.492188 313.837891,276.240234 314.083984,276.181641 C314.330078,276.123047 314.582031,276.152344 314.839844,276.269531 C315.332031,276.457031 315.830078,276.621094 316.333984,276.761719 C316.837891,276.902344 317.359375,277.007812 317.898438,277.078125 C318.4375,277.148438 318.976562,277.183594 319.515625,277.183594 C322.046875,277.183594 324.261719,276.65625 326.160156,275.601563 C328.058594,274.546875 329.535156,273.070312 330.589844,271.171875 C331.644531,269.273438 332.171875,267.070312 332.171875,264.5625 C332.171875,262.03125 331.644531,259.816406 330.589844,257.917969 C329.535156,256.019531 328.058594,254.542969 326.160156,253.488281 C324.261719,252.433594 322.046875,251.90625 319.515625,251.90625 C318.976562,251.90625 318.4375,251.941406 317.898438,252.011719 C317.359375,252.082031 316.837891,252.1875 316.333984,252.328125 C315.830078,252.46875 315.332031,252.644531 314.839844,252.855469 C314.582031,252.949219 314.330078,252.966797 314.083984,252.908203 C313.837891,252.849609 313.714844,252.597656 313.714844,252.152344 L313.714844,241.429688 C313.714844,237.046875 312.554688,233.712891 310.234375,231.427734 C307.914063,229.142578 304.527344,228 300.074219,228 L257.640625,228 C253.210938,228 249.830078,229.142578 247.498047,231.427734 C245.166016,233.712891 244,237.058594 244,241.464844 L244,257.074219 C244,258.785156 244.509766,260.0625 245.529297,260.90625 C246.548828,261.75 247.703125,262.171875 248.992188,262.171875 C249.882812,262.171875 250.761719,261.966797 251.628906,261.556641 C252.496094,261.146484 253.234375,260.542969 253.84375,259.746094 C254.21875,259.253906 254.763672,258.65625 255.478516,257.953125 C256.193359,257.25 257.089844,256.634766 258.167969,256.107422 C259.246094,255.580078 260.535156,255.316406 262.035156,255.316406 C263.792969,255.316406 265.398438,255.755859 266.851562,256.634766 C268.304688,257.513672 269.476562,258.697266 270.367188,260.185547 C271.257812,261.673828 271.738281,263.308594 271.808594,265.089844 C271.878906,266.894531 271.46875,268.535156 270.578125,270.011719 C269.6875,271.488281 268.486328,272.666016 266.974609,273.544922 C265.462891,274.423828 263.816406,274.863281 262.035156,274.863281 C260.535156,274.863281 259.246094,274.599609 258.167969,274.072266 C257.089844,273.544922 256.193359,272.929688 255.478516,272.226562 C254.763672,271.523438 254.21875,270.925781 253.84375,270.433594 C253.234375,269.636719 252.496094,269.033203 251.628906,268.623047 C250.761719,268.212891 249.882812,268.007812 248.992188,268.007812 C247.703125,268.007812 246.548828,268.429688 245.529297,269.273438 C244.509766,270.117188 244,271.394531 244,273.105469 L244,287.660156 Z"/></g></g></svg>