<svg xmlns="http://www.w3.org/2000/svg" xmlns:xlink="http://www.w3.org/1999/xlink" width="612" height="612" viewBox="0 0 612 612"><defs><filter id="b" width="115%" height="115%" x="-7.5%" y="-7.5%" filterUnits="objectBoundingBox"><feMorphology in="SourceAlpha" radius="9" result="shadowSpreadOuter1"/><feOffset in="shadowSpreadOuter1" result="shadowOffsetOuter1"/><feGaussianBlur in="shadowOffsetOuter1" result="shadowBlurOuter1" stdDeviation="20"/><feComposite in="shadowBlurOuter1" in2="SourceAlpha" operator="out" result="shadowBlurOuter1"/><feColorMatrix in="shadowBlurOuter1" values="0 0 0 0 1 0 0 0 0 1 0 0 0 0 1 0 0 0 0.5 0"/></filter><filter id="d" width="111.2%" height="111.2%" x="-5.6%" y="-5.6%" filterUnits="objectBoundingBox"><feMorphology in="SourceAlpha" operator="dilate" radius="1" result="shadowSpreadInner1"/><feGaussianBlur in="shadowSpreadInner1" result="shadowBlurInner1" stdDeviation="1.5"/><feOffset dx="-1" dy="-2" in="shadowBlurInner1" result="shadowOffsetInner1"/><feComposite in="shadowOffsetInner1" in2="SourceAlpha" k2="-1" k3="1" operator="arithmetic" result="shadowInnerInner1"/><feColorMatrix in="shadowInnerInner1" result="shadowMatrixInner1" values="0 0 0 0 0 0 0 0 0 0 0 0 0 0 0 0 0 0 0.1 0"/><feMorphology in="SourceAlpha" operator="dilate" radius="1" result="shadowSpreadInner2"/><feGaussianBlur in="shadowSpreadInner2" result="shadowBlurInner2" stdDeviation="1.5"/><feOffset dx="2" dy="2" in="shadowBlurInner2" result="shadowOffsetInner2"/><feComposite in="shadowOffsetInner2" in2="SourceAlpha" k2="-1" k3="1" operator="arithmetic" result="shadowInnerInner2"/><feColorMatrix in="shadowInnerInner2" result="shadowMatrixInner2" values="0 0 0 0 1 0 0 0 0 1 0 0 0 0 1 0 0 0 0.1 0"/><feMerge><feMergeNode in="shadowMatrixInner1"/><feMergeNode in="shadowMatrixInner2"/></feMerge></filter><filter id="f" width="105.3%" height="105.6%" x="-2.6%" y="-2.8%" filterUnits="objectBoundingBox"><feOffset in="SourceAlpha" result="shadowOffsetOuter1"/><feGaussianBlur in="shadowOffsetOuter1" result="shadowBlurOuter1" stdDeviation="2"/><feColorMatrix in="shadowBlurOuter1" values="0 0 0 0 0.552677763 0 0 0 0 0.552677763 0 0 0 0 0.552677763 0 0 0 0.5 0"/></filter><filter id="i" width="114.5%" height="114.5%" x="-7.3%" y="-7.3%" filterUnits="objectBoundingBox"><feMorphology in="SourceAlpha" radius="4" result="shadowSpreadOuter1"/><feOffset in="shadowSpreadOuter1" result="shadowOffsetOuter1"/><feGaussianBlur in="shadowOffsetOuter1" result="shadowBlurOuter1" stdDeviation="8"/><feColorMatrix in="shadowBlurOuter1" values="0 0 0 0 1 0 0 0 0 1 0 0 0 0 1 0 0 0 0.5 0"/></filter><filter id="k" width="110.9%" height="110.9%" x="-5.5%" y="-5.5%" filterUnits="objectBoundingBox"><feGaussianBlur in="SourceAlpha" result="shadowBlurInner1" stdDeviation=".5"/><feOffset dy="-1" in="shadowBlurInner1" result="shadowOffsetInner1"/><feComposite in="shadowOffsetInner1" in2="SourceAlpha" k2="-1" k3="1" operator="arithmetic" result="shadowInnerInner1"/><feColorMatrix in="shadowInnerInner1" result="shadowMatrixInner1" values="0 0 0 0 0 0 0 0 0 0 0 0 0 0 0 0 0 0 0.1 0"/><feGaussianBlur in="SourceAlpha" result="shadowBlurInner2" stdDeviation=".5"/><feOffset dx="1" dy="1" in="shadowBlurInner2" result="shadowOffsetInner2"/><feComposite in="shadowOffsetInner2" in2="SourceAlpha" k2="-1" k3="1" operator="arithmetic" result="shadowInnerInner2"/><feColorMatrix in="shadowInnerInner2" result="shadowMatrixInner2" values="0 0 0 0 1 0 0 0 0 1 0 0 0 0 1 0 0 0 0.1 0"/><feMerge><feMergeNode in="shadowMatrixInner1"/><feMergeNode in="shadowMatrixInner2"/></feMerge></filter><filter id="m" width="107.2%" height="104.8%" x="-3.6%" y="-2.4%" filterUnits="objectBoundingBox"><feMorphology in="SourceAlpha" operator="dilate" radius="2" result="shadowSpreadInner1"/><feGaussianBlur in="shadowSpreadInner1" result="shadowBlurInner1" stdDeviation="1.5"/><feOffset dx="1" dy="1" in="shadowBlurInner1" result="shadowOffsetInner1"/><feComposite in="shadowOffsetInner1" in2="SourceAlpha" k2="-1" k3="1" operator="arithmetic" result="shadowInnerInner1"/><feColorMatrix in="shadowInnerInner1" result="shadowMatrixInner1" values="0 0 0 0 0 0 0 0 0 0 0 0 0 0 0 0 0 0 0.5 0"/><feMorphology in="SourceAlpha" operator="dilate" radius="3" result="shadowSpreadInner2"/><feGaussianBlur in="shadowSpreadInner2" result="shadowBlurInner2" stdDeviation="1.5"/><feOffset dx="-2" dy="-1" in="shadowBlurInner2" result="shadowOffsetInner2"/><feComposite in="shadowOffsetInner2" in2="SourceAlpha" k2="-1" k3="1" operator="arithmetic" result="shadowInnerInner2"/><feColorMatrix in="shadowInnerInner2" result="shadowMatrixInner2" values="0 0 0 0 1 0 0 0 0 1 0 0 0 0 1 0 0 0 1 0"/><feMerge><feMergeNode in="shadowMatrixInner1"/><feMergeNode in="shadowMatrixInner2"/></feMerge></filter><filter id="o" width="124.7%" height="107.9%" x="-12.3%" y="-3.9%" filterUnits="objectBoundingBox"><feMorphology in="SourceAlpha" radius="1" result="shadowSpreadInner1"/><feGaussianBlur in="shadowSpreadInner1" result="shadowBlurInner1" stdDeviation="1.5"/><feOffset dx="-2" dy="2" in="shadowBlurInner1" result="shadowOffsetInner1"/><feComposite in="shadowOffsetInner1" in2="SourceAlpha" k2="-1" k3="1" operator="arithmetic" result="shadowInnerInner1"/><feColorMatrix in="shadowInnerInner1" result="shadowMatrixInner1" values="0 0 0 0 0 0 0 0 0 0 0 0 0 0 0 0 0 0 0.25 0"/><feMorphology in="SourceAlpha" operator="dilate" radius="1" result="shadowSpreadInner2"/><feGaussianBlur in="shadowSpreadInner2" result="shadowBlurInner2" stdDeviation="1.5"/><feOffset dx="1" dy="-2" in="shadowBlurInner2" result="shadowOffsetInner2"/><feComposite in="shadowOffsetInner2" in2="SourceAlpha" k2="-1" k3="1" operator="arithmetic" result="shadowInnerInner2"/><feColorMatrix in="shadowInnerInner2" result="shadowMatrixInner2" values="0 0 0 0 1 0 0 0 0 1 0 0 0 0 1 0 0 0 0.675480769 0"/><feMerge><feMergeNode in="shadowMatrixInner1"/><feMergeNode in="shadowMatrixInner2"/></feMerge></filter><filter id="q" width="104.5%" height="106.2%" x="-2.3%" y="-3.1%" filterUnits="objectBoundingBox"><feMorphology in="SourceAlpha" operator="dilate" radius="2" result="shadowSpreadInner1"/><feGaussianBlur in="shadowSpreadInner1" result="shadowBlurInner1" stdDeviation="1.5"/><feOffset dy="2" in="shadowBlurInner1" result="shadowOffsetInner1"/><feComposite in="shadowOffsetInner1" in2="SourceAlpha" k2="-1" k3="1" operator="arithmetic" result="shadowInnerInner1"/><feColorMatrix in="shadowInnerInner1" result="shadowMatrixInner1" values="0 0 0 0 0 0 0 0 0 0 0 0 0 0 0 0 0 0 0.25 0"/><feMorphology in="SourceAlpha" operator="dilate" radius="2" result="shadowSpreadInner2"/><feGaussianBlur in="shadowSpreadInner2" result="shadowBlurInner2" stdDeviation="1.5"/><feOffset dx="1" dy="-2" in="shadowBlurInner2" result="shadowOffsetInner2"/><feComposite in="shadowOffsetInner2" in2="SourceAlpha" k2="-1" k3="1" operator="arithmetic" result="shadowInnerInner2"/><feColorMatrix in="shadowInnerInner2" result="shadowMatrixInner2" values="0 0 0 0 1 0 0 0 0 1 0 0 0 0 1 0 0 0 0.7 0"/><feMerge><feMergeNode in="shadowMatrixInner1"/><feMergeNode in="shadowMatrixInner2"/></feMerge></filter><filter id="s" width="103%" height="104.1%" x="-1.5%" y="-2.1%" filterUnits="objectBoundingBox"><feMorphology in="SourceAlpha" radius="1" result="shadowSpreadOuter1"/><feOffset dy="2" in="shadowSpreadOuter1" result="shadowOffsetOuter1"/><feGaussianBlur in="shadowOffsetOuter1" result="shadowBlurOuter1" stdDeviation="1"/><feColorMatrix in="shadowBlurOuter1" values="0 0 0 0 0 0 0 0 0 0 0 0 0 0 0 0 0 0 0.25 0"/></filter><filter id="t" width="106%" height="108.2%" x="-3%" y="-4.1%" filterUnits="objectBoundingBox"><feMorphology in="SourceAlpha" operator="dilate" radius="2" result="shadowSpreadInner1"/><feGaussianBlur in="shadowSpreadInner1" result="shadowBlurInner1" stdDeviation="1.5"/><feOffset dx="-2" dy="3" in="shadowBlurInner1" result="shadowOffsetInner1"/><feComposite in="shadowOffsetInner1" in2="SourceAlpha" k2="-1" k3="1" operator="arithmetic" result="shadowInnerInner1"/><feColorMatrix in="shadowInnerInner1" result="shadowMatrixInner1" values="0 0 0 0 0 0 0 0 0 0 0 0 0 0 0 0 0 0 0.25 0"/><feMorphology in="SourceAlpha" operator="dilate" radius="2" result="shadowSpreadInner2"/><feGaussianBlur in="shadowSpreadInner2" result="shadowBlurInner2" stdDeviation="1"/><feOffset dx="2" in="shadowBlurInner2" result="shadowOffsetInner2"/><feComposite in="shadowOffsetInner2" in2="SourceAlpha" k2="-1" k3="1" operator="arithmetic" result="shadowInnerInner2"/><feColorMatrix in="shadowInnerInner2" result="shadowMatrixInner2" values="0 0 0 0 0 0 0 0 0 0 0 0 0 0 0 0 0 0 0.25 0"/><feMorphology in="SourceAlpha" operator="dilate" radius="1" result="shadowSpreadInner3"/><feGaussianBlur in="shadowSpreadInner3" result="shadowBlurInner3" stdDeviation="1.5"/><feOffset dx="2" dy="-2" in="shadowBlurInner3" result="shadowOffsetInner3"/><feComposite in="shadowOffsetInner3" in2="SourceAlpha" k2="-1" k3="1" operator="arithmetic" result="shadowInnerInner3"/><feColorMatrix in="shadowInnerInner3" result="shadowMatrixInner3" values="0 0 0 0 1 0 0 0 0 1 0 0 0 0 1 0 0 0 0.353283435 0"/><feMorphology in="SourceAlpha" operator="dilate" radius="2" result="shadowSpreadInner4"/><feGaussianBlur in="shadowSpreadInner4" result="shadowBlurInner4" stdDeviation="1"/><feOffset dx="-1" dy="-1" in="shadowBlurInner4" result="shadowOffsetInner4"/><feComposite in="shadowOffsetInner4" in2="SourceAlpha" k2="-1" k3="1" operator="arithmetic" result="shadowInnerInner4"/><feColorMatrix in="shadowInnerInner4" result="shadowMatrixInner4" values="0 0 0 0 1 0 0 0 0 1 0 0 0 0 1 0 0 0 1 0"/><feMerge><feMergeNode in="shadowMatrixInner1"/><feMergeNode in="shadowMatrixInner2"/><feMergeNode in="shadowMatrixInner3"/><feMergeNode in="shadowMatrixInner4"/></feMerge></filter><filter id="v" width="114.5%" height="114.4%" x="-3.6%" y="-10.8%" filterUnits="objectBoundingBox"><feMorphology in="SourceAlpha" radius="1" result="shadowSpreadOuter1"/><feOffset dx="2" in="shadowSpreadOuter1" result="shadowOffsetOuter1"/><feGaussianBlur in="shadowOffsetOuter1" result="shadowBlurOuter1" stdDeviation="1"/><feColorMatrix in="shadowBlurOuter1" result="shadowMatrixOuter1" values="0 0 0 0 0 0 0 0 0 0 0 0 0 0 0 0 0 0 0.25 0"/><feMorphology in="SourceAlpha" radius="1.5" result="shadowSpreadOuter2"/><feOffset dy="-3" in="shadowSpreadOuter2" result="shadowOffsetOuter2"/><feGaussianBlur in="shadowOffsetOuter2" result="shadowBlurOuter2" stdDeviation="1"/><feColorMatrix in="shadowBlurOuter2" result="shadowMatrixOuter2" values="0 0 0 0 1 0 0 0 0 1 0 0 0 0 1 0 0 0 0.25 0"/><feMerge><feMergeNode in="shadowMatrixOuter1"/><feMergeNode in="shadowMatrixOuter2"/></feMerge></filter><filter id="w" width="118.1%" height="118%" x="-5.4%" y="-12.6%" filterUnits="objectBoundingBox"><feMorphology in="SourceAlpha" operator="dilate" radius="3" result="shadowSpreadInner1"/><feGaussianBlur in="shadowSpreadInner1" result="shadowBlurInner1" stdDeviation="1.5"/><feOffset dx="2" in="shadowBlurInner1" result="shadowOffsetInner1"/><feComposite in="shadowOffsetInner1" in2="SourceAlpha" k2="-1" k3="1" operator="arithmetic" result="shadowInnerInner1"/><feColorMatrix in="shadowInnerInner1" result="shadowMatrixInner1" values="0 0 0 0 0 0 0 0 0 0 0 0 0 0 0 0 0 0 0.5 0"/><feMorphology in="SourceAlpha" operator="dilate" radius="4" result="shadowSpreadInner2"/><feGaussianBlur in="shadowSpreadInner2" result="shadowBlurInner2" stdDeviation="1.5"/><feOffset dy="3" in="shadowBlurInner2" result="shadowOffsetInner2"/><feComposite in="shadowOffsetInner2" in2="SourceAlpha" k2="-1" k3="1" operator="arithmetic" result="shadowInnerInner2"/><feColorMatrix in="shadowInnerInner2" result="shadowMatrixInner2" values="0 0 0 0 0 0 0 0 0 0 0 0 0 0 0 0 0 0 0.3 0"/><feMorphology in="SourceAlpha" operator="dilate" radius="2" result="shadowSpreadInner3"/><feGaussianBlur in="shadowSpreadInner3" result="shadowBlurInner3" stdDeviation="1.5"/><feOffset dy="-2" in="shadowBlurInner3" result="shadowOffsetInner3"/><feComposite in="shadowOffsetInner3" in2="SourceAlpha" k2="-1" k3="1" operator="arithmetic" result="shadowInnerInner3"/><feColorMatrix in="shadowInnerInner3" result="shadowMatrixInner3" values="0 0 0 0 1 0 0 0 0 1 0 0 0 0 1 0 0 0 1 0"/><feMerge><feMergeNode in="shadowMatrixInner1"/><feMergeNode in="shadowMatrixInner2"/><feMergeNode in="shadowMatrixInner3"/></feMerge></filter><filter id="y" width="107.2%" height="107.2%" x="-3.6%" y="-3.6%" filterUnits="objectBoundingBox"><feMorphology in="SourceAlpha" operator="dilate" radius="2" result="shadowSpreadInner1"/><feGaussianBlur in="shadowSpreadInner1" result="shadowBlurInner1" stdDeviation="1.5"/><feOffset dx="1" dy="1" in="shadowBlurInner1" result="shadowOffsetInner1"/><feComposite in="shadowOffsetInner1" in2="SourceAlpha" k2="-1" k3="1" operator="arithmetic" result="shadowInnerInner1"/><feColorMatrix in="shadowInnerInner1" result="shadowMatrixInner1" values="0 0 0 0 0 0 0 0 0 0 0 0 0 0 0 0 0 0 0.5 0"/><feMorphology in="SourceAlpha" operator="dilate" radius="3" result="shadowSpreadInner2"/><feGaussianBlur in="shadowSpreadInner2" result="shadowBlurInner2" stdDeviation="1.5"/><feOffset dy="-2" in="shadowBlurInner2" result="shadowOffsetInner2"/><feComposite in="shadowOffsetInner2" in2="SourceAlpha" k2="-1" k3="1" operator="arithmetic" result="shadowInnerInner2"/><feColorMatrix in="shadowInnerInner2" result="shadowMatrixInner2" values="0 0 0 0 1 0 0 0 0 1 0 0 0 0 1 0 0 0 1 0"/><feMerge><feMergeNode in="shadowMatrixInner1"/><feMergeNode in="shadowMatrixInner2"/></feMerge></filter><filter id="A" width="116.5%" height="110.6%" x="-7.2%" y="-3.3%" filterUnits="objectBoundingBox"><feMorphology in="SourceAlpha" radius=".5" result="shadowSpreadOuter1"/><feOffset dy="2" in="shadowSpreadOuter1" result="shadowOffsetOuter1"/><feGaussianBlur in="shadowOffsetOuter1" result="shadowBlurOuter1" stdDeviation="1"/><feColorMatrix in="shadowBlurOuter1" values="0 0 0 0 0 0 0 0 0 0.51372549 0 0 0 0 0.176470588 0 0 0 0.294607736 0"/></filter><filter id="B" width="127.6%" height="117.2%" x="-12.8%" y="-6.6%" filterUnits="objectBoundingBox"><feMorphology in="SourceAlpha" operator="dilate" radius="2" result="shadowSpreadInner1"/><feGaussianBlur in="shadowSpreadInner1" result="shadowBlurInner1" stdDeviation="1.5"/><feOffset dx="-2" dy="5" in="shadowBlurInner1" result="shadowOffsetInner1"/><feComposite in="shadowOffsetInner1" in2="SourceAlpha" k2="-1" k3="1" operator="arithmetic" result="shadowInnerInner1"/><feColorMatrix in="shadowInnerInner1" result="shadowMatrixInner1" values="0 0 0 0 0 0 0 0 0 0 0 0 0 0 0 0 0 0 0.3 0"/><feMorphology in="SourceAlpha" operator="dilate" radius="2" result="shadowSpreadInner2"/><feGaussianBlur in="shadowSpreadInner2" result="shadowBlurInner2" stdDeviation="2"/><feOffset dy="-1" in="shadowBlurInner2" result="shadowOffsetInner2"/><feComposite in="shadowOffsetInner2" in2="SourceAlpha" k2="-1" k3="1" operator="arithmetic" result="shadowInnerInner2"/><feColorMatrix in="shadowInnerInner2" result="shadowMatrixInner2" values="0 0 0 0 1 0 0 0 0 1 0 0 0 0 1 0 0 0 1 0"/><feMerge><feMergeNode in="shadowMatrixInner1"/><feMergeNode in="shadowMatrixInner2"/></feMerge></filter><path id="a" d="M306,120 C419.770658,120 512,212.229342 512,326 C512,439.770658 419.770658,532 306,532 C192.229342,532 100,439.770658 100,326 C100,212.229342 192.229342,120 306,120 Z"/><path id="e" d="M258.458984,439.214844 C255.171224,439.214844 252.606771,438.146322 250.765625,436.009277 C248.924479,433.872233 248.003906,430.995443 248.003906,427.378906 L248.003906,399.46582 L239.02832,399.46582 C229.888346,399.46582 221.816895,397.493164 214.813965,393.547852 C207.811035,389.602539 202.320475,383.996908 198.342285,376.730957 C194.364095,369.465007 192.375,360.801758 192.375,350.741211 L192.375,272.328125 C192.375,262.333333 194.314779,253.702962 198.194336,246.437012 C202.073893,239.171061 207.61377,233.56543 214.813965,229.620117 C222.01416,225.674805 230.644531,223.702148 240.705078,223.702148 L371.294922,223.702148 C381.355469,223.702148 390.002279,225.674805 397.235352,229.620117 C404.468424,233.56543 410.008301,239.171061 413.85498,246.437012 C417.70166,253.702962 419.625,262.333333 419.625,272.328125 L419.625,350.741211 C419.625,360.801758 417.70166,369.465007 413.85498,376.730957 C410.008301,383.996908 404.468424,389.602539 397.235352,393.547852 C390.002279,397.493164 381.355469,399.46582 371.294922,399.46582 L308.958984,399.46582 L271.97168,432.310547 C269.275716,434.74349 266.908529,436.502441 264.870117,437.587402 C262.831706,438.672363 260.694661,439.214844 258.458984,439.214844 Z M243.170898,323.321289 L278.185547,323.321289 C280.421224,323.321289 282.295247,322.48291 283.807617,320.806152 C285.319987,319.129395 286.076172,317.206055 286.076172,315.036133 C286.076172,312.800456 285.319987,310.877116 283.807617,309.266113 C282.295247,307.655111 280.421224,306.849609 278.185547,306.849609 L243.170898,306.849609 C241.000977,306.849609 239.159831,307.671549 237.647461,309.31543 C236.135091,310.95931 235.378906,312.866211 235.378906,315.036133 C235.378906,317.206055 236.15153,319.129395 237.696777,320.806152 C239.242025,322.48291 241.066732,323.321289 243.170898,323.321289 Z M300.575195,323.321289 L368.927734,323.321289 C371.163411,323.321289 373.053874,322.48291 374.599121,320.806152 C376.144368,319.129395 376.916992,317.206055 376.916992,315.036133 C376.916992,312.800456 376.144368,310.877116 374.599121,309.266113 C373.053874,307.655111 371.163411,306.849609 368.927734,306.849609 L300.575195,306.849609 C298.471029,306.849609 296.66276,307.671549 295.150391,309.31543 C293.638021,310.95931 292.881836,312.866211 292.881836,315.036133 C292.881836,317.206055 293.638021,319.129395 295.150391,320.806152 C296.66276,322.48291 298.471029,323.321289 300.575195,323.321289 Z M243.170898,351.037109 L258.754883,351.037109 C260.99056,351.037109 262.881022,350.215169 264.42627,348.571289 C265.971517,346.927409 266.744141,345.053385 266.744141,342.949219 C266.744141,340.582031 265.971517,338.592936 264.42627,336.981934 C262.881022,335.370931 260.99056,334.56543 258.754883,334.56543 L243.170898,334.56543 C241.000977,334.56543 239.159831,335.38737 237.647461,337.03125 C236.135091,338.67513 235.378906,340.647786 235.378906,342.949219 C235.378906,345.053385 236.15153,346.927409 237.696777,348.571289 C239.242025,350.215169 241.066732,351.037109 243.170898,351.037109 Z M281.243164,351.037109 L327.107422,351.037109 C329.277344,351.037109 331.151367,350.215169 332.729492,348.571289 C334.307617,346.927409 335.09668,345.053385 335.09668,342.949219 C335.09668,340.582031 334.307617,338.592936 332.729492,336.981934 C331.151367,335.370931 329.277344,334.56543 327.107422,334.56543 L281.243164,334.56543 C279.073242,334.56543 277.232096,335.38737 275.719727,337.03125 C274.207357,338.67513 273.451172,340.647786 273.451172,342.949219 C273.451172,345.053385 274.207357,346.927409 275.719727,348.571289 C277.232096,350.215169 279.073242,351.037109 281.243164,351.037109 Z M349.49707,351.037109 L368.927734,351.037109 C371.097656,351.037109 372.97168,350.215169 374.549805,348.571289 C376.12793,346.927409 376.916992,345.053385 376.916992,342.949219 C376.916992,340.582031 376.12793,338.592936 374.549805,336.981934 C372.97168,335.370931 371.097656,334.56543 368.927734,334.56543 L349.49707,334.56543 C347.392904,334.56543 345.584635,335.38737 344.072266,337.03125 C342.559896,338.67513 341.803711,340.647786 341.803711,342.949219 C341.803711,345.053385 342.559896,346.927409 344.072266,348.571289 C345.584635,350.215169 347.392904,351.037109 349.49707,351.037109 Z"/><path id="h" d="M46.1499336,-7.10542736e-15 L118.850066,3.62733656e-15 C134.897404,-2.107587e-15 140.716556,1.670861 146.583223,4.80838867 C152.449889,7.94591634 157.054084,12.5501107 160.191611,18.4167773 C163.329139,24.283444 165,30.1025963 165,46.1499336 L165,118.850066 C165,134.897404 163.329139,140.716556 160.191611,146.583223 C157.054084,152.449889 152.449889,157.054084 146.583223,160.191611 C140.716556,163.329139 134.897404,165 118.850066,165 L46.1499336,165 C30.1025963,165 24.283444,163.329139 18.4167773,160.191611 C12.5501107,157.054084 7.94591634,152.449889 4.80838867,146.583223 C1.670861,140.716556 -7.10542736e-15,134.897404 -7.10542736e-15,118.850066 L0,46.1499336 C0,30.1025963 1.670861,24.283444 4.80838867,18.4167773 C7.94591634,12.5501107 12.5501107,7.94591634 18.4167773,4.80838867 C24.283444,1.670861 30.1025963,-7.10542736e-15 46.1499336,-7.10542736e-15 Z"/><path id="n" d="M111.51444,11.7322209 L93.8287358,26.2488167 L93.8287358,71.7449636 L111.595443,86.3291414 C114.255049,88.4106644 118.143204,86.5116126 118.143204,83.1257585 L118.143204,14.8680218 C118.143204,11.4416186 114.167296,9.56284132 111.51444,11.7322209 Z"/><path id="p" d="M66.8276608,48.6589806 L66.8276608,69.609375 L27.6761019,69.609375 L27.6761019,97.3179612 L85.7284133,97.3179612 C90.2038415,97.3179612 93.8287358,93.6888122 93.8287358,89.2081311 L93.8287358,71.7449636 L66.8276608,48.6589806 Z"/><path id="r" d="M85.7284133,0 L27.6761019,0 L27.6761019,27.7085862 L66.8276608,27.7085862 L66.8276608,48.6589806 L93.8287358,26.2623331 L93.8287358,8.1098301 C93.8287358,3.62914897 90.2038415,0 85.7284133,0 Z"/><path id="u" d="M0,69.609375 L0,89.2081311 C0,93.6888122 3.62489433,97.3179612 8.10032252,97.3179612 L27.6761019,97.3179612 L27.6761019,69.609375 L0,69.609375 Z"/><linearGradient id="c" x1="0%" x2="0%" y1="0%" y2="98.776%"><stop offset="0%" stop-color="#DBDBDB"/><stop offset="100%" stop-color="#B5B5B5"/></linearGradient><linearGradient id="g" x1="50%" x2="50%" y1="0%" y2="100%"><stop offset="0%" stop-color="#3A3A3A"/><stop offset="100%" stop-color="#1E1E1E"/></linearGradient><linearGradient id="j" x1="0%" x2="0%" y1="100%" y2="0%"><stop offset="0%" stop-color="#D1D0D0"/><stop offset="100%" stop-color="#FFF"/></linearGradient><polygon id="l" points="27.676 27.709 0 27.709 0 69.609 27.676 69.609"/><polygon id="x" points="27.676 0 0 27.709 27.676 27.709"/><polygon id="z" points="66.828 48.659 93.829 71.745 93.829 26.249"/></defs><g fill="none" fill-rule="evenodd"><g fill-rule="nonzero"><use xlink:href="#a" fill="#000" filter="url(#b)"/><use xlink:href="#a" fill="url(#c)"/><use xlink:href="#a" fill="#000" filter="url(#d)"/><use xlink:href="#a" stroke="#FFF" stroke-width="2"/></g><g fill-rule="nonzero"><use xlink:href="#e" fill="#000" filter="url(#f)"/><use xlink:href="#e" fill="#2E2E2E"/><use xlink:href="#e" fill="url(#g)"/></g><g fill-rule="nonzero" transform="translate(388 387)"><use xlink:href="#h" fill="#000" filter="url(#i)"/><use xlink:href="#h" fill="url(#j)"/><use xlink:href="#h" fill="#000" filter="url(#k)"/><g transform="translate(23.629 33.64)"><use xlink:href="#l" fill="#2684FC"/><use xlink:href="#l" fill="#000" filter="url(#m)"/><use xlink:href="#n" fill="#00AC47"/><use xlink:href="#n" fill="#000" filter="url(#o)"/><use xlink:href="#p" fill="#00AC47"/><use xlink:href="#p" fill="#000" filter="url(#q)"/><use xlink:href="#r" fill="#000" filter="url(#s)"/><use xlink:href="#r" fill="#FBBC04"/><use xlink:href="#r" fill="#000" filter="url(#t)"/><use xlink:href="#u" fill="#000" filter="url(#v)"/><use xlink:href="#u" fill="#0066DA"/><use xlink:href="#u" fill="#000" filter="url(#w)"/><use xlink:href="#x" fill="#EA4335"/><use xlink:href="#x" fill="#000" filter="url(#y)"/><use xlink:href="#z" fill="#000" filter="url(#A)"/><use xlink:href="#z" fill="#00832D"/><use xlink:href="#z" fill="#000" filter="url(#B)"/></g></g></g></svg>