<svg xmlns="http://www.w3.org/2000/svg" xmlns:xlink="http://www.w3.org/1999/xlink" width="612" height="612" viewBox="0 0 612 612"><defs><filter id="b" width="115%" height="115%" x="-7.5%" y="-7.5%" filterUnits="objectBoundingBox"><feMorphology in="SourceAlpha" radius="9" result="shadowSpreadOuter1"/><feOffset in="shadowSpreadOuter1" result="shadowOffsetOuter1"/><feGaussianBlur in="shadowOffsetOuter1" result="shadowBlurOuter1" stdDeviation="20"/><feComposite in="shadowBlurOuter1" in2="SourceAlpha" operator="out" result="shadowBlurOuter1"/><feColorMatrix in="shadowBlurOuter1" values="0 0 0 0 1 0 0 0 0 1 0 0 0 0 1 0 0 0 0.5 0"/></filter><filter id="d" width="111.2%" height="111.2%" x="-5.6%" y="-5.6%" filterUnits="objectBoundingBox"><feMorphology in="SourceAlpha" operator="dilate" radius="1" result="shadowSpreadInner1"/><feGaussianBlur in="shadowSpreadInner1" result="shadowBlurInner1" stdDeviation="1.5"/><feOffset dx="-1" dy="-2" in="shadowBlurInner1" result="shadowOffsetInner1"/><feComposite in="shadowOffsetInner1" in2="SourceAlpha" k2="-1" k3="1" operator="arithmetic" result="shadowInnerInner1"/><feColorMatrix in="shadowInnerInner1" result="shadowMatrixInner1" values="0 0 0 0 0 0 0 0 0 0 0 0 0 0 0 0 0 0 0.1 0"/><feMorphology in="SourceAlpha" operator="dilate" radius="1" result="shadowSpreadInner2"/><feGaussianBlur in="shadowSpreadInner2" result="shadowBlurInner2" stdDeviation="1.5"/><feOffset dx="2" dy="2" in="shadowBlurInner2" result="shadowOffsetInner2"/><feComposite in="shadowOffsetInner2" in2="SourceAlpha" k2="-1" k3="1" operator="arithmetic" result="shadowInnerInner2"/><feColorMatrix in="shadowInnerInner2" result="shadowMatrixInner2" values="0 0 0 0 1 0 0 0 0 1 0 0 0 0 1 0 0 0 0.1 0"/><feMerge><feMergeNode in="shadowMatrixInner1"/><feMergeNode in="shadowMatrixInner2"/></feMerge></filter><filter id="f" width="105.3%" height="105.7%" x="-2.6%" y="-2.8%" filterUnits="objectBoundingBox"><feOffset in="SourceAlpha" result="shadowOffsetOuter1"/><feGaussianBlur in="shadowOffsetOuter1" result="shadowBlurOuter1" stdDeviation="2"/><feColorMatrix in="shadowBlurOuter1" values="0 0 0 0 0.552677763 0 0 0 0 0.552677763 0 0 0 0 0.552677763 0 0 0 0.5 0"/></filter><filter id="i" width="114.5%" height="114.5%" x="-7.3%" y="-7.3%" filterUnits="objectBoundingBox"><feMorphology in="SourceAlpha" radius="4" result="shadowSpreadOuter1"/><feOffset in="shadowSpreadOuter1" result="shadowOffsetOuter1"/><feGaussianBlur in="shadowOffsetOuter1" result="shadowBlurOuter1" stdDeviation="8"/><feColorMatrix in="shadowBlurOuter1" values="0 0 0 0 1 0 0 0 0 1 0 0 0 0 1 0 0 0 0.5 0"/></filter><filter id="k" width="110.9%" height="110.9%" x="-5.5%" y="-5.5%" filterUnits="objectBoundingBox"><feGaussianBlur in="SourceAlpha" result="shadowBlurInner1" stdDeviation=".5"/><feOffset dy="-1" in="shadowBlurInner1" result="shadowOffsetInner1"/><feComposite in="shadowOffsetInner1" in2="SourceAlpha" k2="-1" k3="1" operator="arithmetic" result="shadowInnerInner1"/><feColorMatrix in="shadowInnerInner1" result="shadowMatrixInner1" values="0 0 0 0 0 0 0 0 0 0 0 0 0 0 0 0 0 0 0.1 0"/><feGaussianBlur in="SourceAlpha" result="shadowBlurInner2" stdDeviation=".5"/><feOffset dx="1" dy="1" in="shadowBlurInner2" result="shadowOffsetInner2"/><feComposite in="shadowOffsetInner2" in2="SourceAlpha" k2="-1" k3="1" operator="arithmetic" result="shadowInnerInner2"/><feColorMatrix in="shadowInnerInner2" result="shadowMatrixInner2" values="0 0 0 0 1 0 0 0 0 1 0 0 0 0 1 0 0 0 0.1 0"/><feMerge><feMergeNode in="shadowMatrixInner1"/><feMergeNode in="shadowMatrixInner2"/></feMerge></filter><filter id="m" width="107.2%" height="104.8%" x="-3.6%" y="-2.4%" filterUnits="objectBoundingBox"><feMorphology in="SourceAlpha" operator="dilate" radius="2" result="shadowSpreadInner1"/><feGaussianBlur in="shadowSpreadInner1" result="shadowBlurInner1" stdDeviation="1.5"/><feOffset dx="1" dy="1" in="shadowBlurInner1" result="shadowOffsetInner1"/><feComposite in="shadowOffsetInner1" in2="SourceAlpha" k2="-1" k3="1" operator="arithmetic" result="shadowInnerInner1"/><feColorMatrix in="shadowInnerInner1" result="shadowMatrixInner1" values="0 0 0 0 0 0 0 0 0 0 0 0 0 0 0 0 0 0 0.5 0"/><feMorphology in="SourceAlpha" operator="dilate" radius="3" result="shadowSpreadInner2"/><feGaussianBlur in="shadowSpreadInner2" result="shadowBlurInner2" stdDeviation="1.5"/><feOffset dx="-2" dy="-1" in="shadowBlurInner2" result="shadowOffsetInner2"/><feComposite in="shadowOffsetInner2" in2="SourceAlpha" k2="-1" k3="1" operator="arithmetic" result="shadowInnerInner2"/><feColorMatrix in="shadowInnerInner2" result="shadowMatrixInner2" values="0 0 0 0 1 0 0 0 0 1 0 0 0 0 1 0 0 0 1 0"/><feMerge><feMergeNode in="shadowMatrixInner1"/><feMergeNode in="shadowMatrixInner2"/></feMerge></filter><filter id="o" width="124.7%" height="107.9%" x="-12.3%" y="-3.9%" filterUnits="objectBoundingBox"><feMorphology in="SourceAlpha" radius="1" result="shadowSpreadInner1"/><feGaussianBlur in="shadowSpreadInner1" result="shadowBlurInner1" stdDeviation="1.5"/><feOffset dx="-2" dy="2" in="shadowBlurInner1" result="shadowOffsetInner1"/><feComposite in="shadowOffsetInner1" in2="SourceAlpha" k2="-1" k3="1" operator="arithmetic" result="shadowInnerInner1"/><feColorMatrix in="shadowInnerInner1" result="shadowMatrixInner1" values="0 0 0 0 0 0 0 0 0 0 0 0 0 0 0 0 0 0 0.25 0"/><feMorphology in="SourceAlpha" operator="dilate" radius="1" result="shadowSpreadInner2"/><feGaussianBlur in="shadowSpreadInner2" result="shadowBlurInner2" stdDeviation="1.5"/><feOffset dx="1" dy="-2" in="shadowBlurInner2" result="shadowOffsetInner2"/><feComposite in="shadowOffsetInner2" in2="SourceAlpha" k2="-1" k3="1" operator="arithmetic" result="shadowInnerInner2"/><feColorMatrix in="shadowInnerInner2" result="shadowMatrixInner2" values="0 0 0 0 1 0 0 0 0 1 0 0 0 0 1 0 0 0 0.675480769 0"/><feMerge><feMergeNode in="shadowMatrixInner1"/><feMergeNode in="shadowMatrixInner2"/></feMerge></filter><filter id="q" width="104.5%" height="106.2%" x="-2.3%" y="-3.1%" filterUnits="objectBoundingBox"><feMorphology in="SourceAlpha" operator="dilate" radius="2" result="shadowSpreadInner1"/><feGaussianBlur in="shadowSpreadInner1" result="shadowBlurInner1" stdDeviation="1.5"/><feOffset dy="2" in="shadowBlurInner1" result="shadowOffsetInner1"/><feComposite in="shadowOffsetInner1" in2="SourceAlpha" k2="-1" k3="1" operator="arithmetic" result="shadowInnerInner1"/><feColorMatrix in="shadowInnerInner1" result="shadowMatrixInner1" values="0 0 0 0 0 0 0 0 0 0 0 0 0 0 0 0 0 0 0.25 0"/><feMorphology in="SourceAlpha" operator="dilate" radius="2" result="shadowSpreadInner2"/><feGaussianBlur in="shadowSpreadInner2" result="shadowBlurInner2" stdDeviation="1.5"/><feOffset dx="1" dy="-2" in="shadowBlurInner2" result="shadowOffsetInner2"/><feComposite in="shadowOffsetInner2" in2="SourceAlpha" k2="-1" k3="1" operator="arithmetic" result="shadowInnerInner2"/><feColorMatrix in="shadowInnerInner2" result="shadowMatrixInner2" values="0 0 0 0 1 0 0 0 0 1 0 0 0 0 1 0 0 0 0.7 0"/><feMerge><feMergeNode in="shadowMatrixInner1"/><feMergeNode in="shadowMatrixInner2"/></feMerge></filter><filter id="s" width="103%" height="104.1%" x="-1.5%" y="-2.1%" filterUnits="objectBoundingBox"><feMorphology in="SourceAlpha" radius="1" result="shadowSpreadOuter1"/><feOffset dy="2" in="shadowSpreadOuter1" result="shadowOffsetOuter1"/><feGaussianBlur in="shadowOffsetOuter1" result="shadowBlurOuter1" stdDeviation="1"/><feColorMatrix in="shadowBlurOuter1" values="0 0 0 0 0 0 0 0 0 0 0 0 0 0 0 0 0 0 0.25 0"/></filter><filter id="t" width="106%" height="108.2%" x="-3%" y="-4.1%" filterUnits="objectBoundingBox"><feMorphology in="SourceAlpha" operator="dilate" radius="2" result="shadowSpreadInner1"/><feGaussianBlur in="shadowSpreadInner1" result="shadowBlurInner1" stdDeviation="1.5"/><feOffset dx="-2" dy="3" in="shadowBlurInner1" result="shadowOffsetInner1"/><feComposite in="shadowOffsetInner1" in2="SourceAlpha" k2="-1" k3="1" operator="arithmetic" result="shadowInnerInner1"/><feColorMatrix in="shadowInnerInner1" result="shadowMatrixInner1" values="0 0 0 0 0 0 0 0 0 0 0 0 0 0 0 0 0 0 0.25 0"/><feMorphology in="SourceAlpha" operator="dilate" radius="2" result="shadowSpreadInner2"/><feGaussianBlur in="shadowSpreadInner2" result="shadowBlurInner2" stdDeviation="1"/><feOffset dx="2" in="shadowBlurInner2" result="shadowOffsetInner2"/><feComposite in="shadowOffsetInner2" in2="SourceAlpha" k2="-1" k3="1" operator="arithmetic" result="shadowInnerInner2"/><feColorMatrix in="shadowInnerInner2" result="shadowMatrixInner2" values="0 0 0 0 0 0 0 0 0 0 0 0 0 0 0 0 0 0 0.25 0"/><feMorphology in="SourceAlpha" operator="dilate" radius="1" result="shadowSpreadInner3"/><feGaussianBlur in="shadowSpreadInner3" result="shadowBlurInner3" stdDeviation="1.5"/><feOffset dx="2" dy="-2" in="shadowBlurInner3" result="shadowOffsetInner3"/><feComposite in="shadowOffsetInner3" in2="SourceAlpha" k2="-1" k3="1" operator="arithmetic" result="shadowInnerInner3"/><feColorMatrix in="shadowInnerInner3" result="shadowMatrixInner3" values="0 0 0 0 1 0 0 0 0 1 0 0 0 0 1 0 0 0 0.353283435 0"/><feMorphology in="SourceAlpha" operator="dilate" radius="2" result="shadowSpreadInner4"/><feGaussianBlur in="shadowSpreadInner4" result="shadowBlurInner4" stdDeviation="1"/><feOffset dx="-1" dy="-1" in="shadowBlurInner4" result="shadowOffsetInner4"/><feComposite in="shadowOffsetInner4" in2="SourceAlpha" k2="-1" k3="1" operator="arithmetic" result="shadowInnerInner4"/><feColorMatrix in="shadowInnerInner4" result="shadowMatrixInner4" values="0 0 0 0 1 0 0 0 0 1 0 0 0 0 1 0 0 0 1 0"/><feMerge><feMergeNode in="shadowMatrixInner1"/><feMergeNode in="shadowMatrixInner2"/><feMergeNode in="shadowMatrixInner3"/><feMergeNode in="shadowMatrixInner4"/></feMerge></filter><filter id="v" width="114.5%" height="114.4%" x="-3.6%" y="-10.8%" filterUnits="objectBoundingBox"><feMorphology in="SourceAlpha" radius="1" result="shadowSpreadOuter1"/><feOffset dx="2" in="shadowSpreadOuter1" result="shadowOffsetOuter1"/><feGaussianBlur in="shadowOffsetOuter1" result="shadowBlurOuter1" stdDeviation="1"/><feColorMatrix in="shadowBlurOuter1" result="shadowMatrixOuter1" values="0 0 0 0 0 0 0 0 0 0 0 0 0 0 0 0 0 0 0.25 0"/><feMorphology in="SourceAlpha" radius="1.5" result="shadowSpreadOuter2"/><feOffset dy="-3" in="shadowSpreadOuter2" result="shadowOffsetOuter2"/><feGaussianBlur in="shadowOffsetOuter2" result="shadowBlurOuter2" stdDeviation="1"/><feColorMatrix in="shadowBlurOuter2" result="shadowMatrixOuter2" values="0 0 0 0 1 0 0 0 0 1 0 0 0 0 1 0 0 0 0.25 0"/><feMerge><feMergeNode in="shadowMatrixOuter1"/><feMergeNode in="shadowMatrixOuter2"/></feMerge></filter><filter id="w" width="118.1%" height="118%" x="-5.4%" y="-12.6%" filterUnits="objectBoundingBox"><feMorphology in="SourceAlpha" operator="dilate" radius="3" result="shadowSpreadInner1"/><feGaussianBlur in="shadowSpreadInner1" result="shadowBlurInner1" stdDeviation="1.5"/><feOffset dx="2" in="shadowBlurInner1" result="shadowOffsetInner1"/><feComposite in="shadowOffsetInner1" in2="SourceAlpha" k2="-1" k3="1" operator="arithmetic" result="shadowInnerInner1"/><feColorMatrix in="shadowInnerInner1" result="shadowMatrixInner1" values="0 0 0 0 0 0 0 0 0 0 0 0 0 0 0 0 0 0 0.5 0"/><feMorphology in="SourceAlpha" operator="dilate" radius="4" result="shadowSpreadInner2"/><feGaussianBlur in="shadowSpreadInner2" result="shadowBlurInner2" stdDeviation="1.5"/><feOffset dy="3" in="shadowBlurInner2" result="shadowOffsetInner2"/><feComposite in="shadowOffsetInner2" in2="SourceAlpha" k2="-1" k3="1" operator="arithmetic" result="shadowInnerInner2"/><feColorMatrix in="shadowInnerInner2" result="shadowMatrixInner2" values="0 0 0 0 0 0 0 0 0 0 0 0 0 0 0 0 0 0 0.3 0"/><feMorphology in="SourceAlpha" operator="dilate" radius="2" result="shadowSpreadInner3"/><feGaussianBlur in="shadowSpreadInner3" result="shadowBlurInner3" stdDeviation="1.5"/><feOffset dy="-2" in="shadowBlurInner3" result="shadowOffsetInner3"/><feComposite in="shadowOffsetInner3" in2="SourceAlpha" k2="-1" k3="1" operator="arithmetic" result="shadowInnerInner3"/><feColorMatrix in="shadowInnerInner3" result="shadowMatrixInner3" values="0 0 0 0 1 0 0 0 0 1 0 0 0 0 1 0 0 0 1 0"/><feMerge><feMergeNode in="shadowMatrixInner1"/><feMergeNode in="shadowMatrixInner2"/><feMergeNode in="shadowMatrixInner3"/></feMerge></filter><filter id="y" width="107.2%" height="107.2%" x="-3.6%" y="-3.6%" filterUnits="objectBoundingBox"><feMorphology in="SourceAlpha" operator="dilate" radius="2" result="shadowSpreadInner1"/><feGaussianBlur in="shadowSpreadInner1" result="shadowBlurInner1" stdDeviation="1.5"/><feOffset dx="1" dy="1" in="shadowBlurInner1" result="shadowOffsetInner1"/><feComposite in="shadowOffsetInner1" in2="SourceAlpha" k2="-1" k3="1" operator="arithmetic" result="shadowInnerInner1"/><feColorMatrix in="shadowInnerInner1" result="shadowMatrixInner1" values="0 0 0 0 0 0 0 0 0 0 0 0 0 0 0 0 0 0 0.5 0"/><feMorphology in="SourceAlpha" operator="dilate" radius="3" result="shadowSpreadInner2"/><feGaussianBlur in="shadowSpreadInner2" result="shadowBlurInner2" stdDeviation="1.5"/><feOffset dy="-2" in="shadowBlurInner2" result="shadowOffsetInner2"/><feComposite in="shadowOffsetInner2" in2="SourceAlpha" k2="-1" k3="1" operator="arithmetic" result="shadowInnerInner2"/><feColorMatrix in="shadowInnerInner2" result="shadowMatrixInner2" values="0 0 0 0 1 0 0 0 0 1 0 0 0 0 1 0 0 0 1 0"/><feMerge><feMergeNode in="shadowMatrixInner1"/><feMergeNode in="shadowMatrixInner2"/></feMerge></filter><filter id="A" width="116.5%" height="110.6%" x="-7.2%" y="-3.3%" filterUnits="objectBoundingBox"><feMorphology in="SourceAlpha" radius=".5" result="shadowSpreadOuter1"/><feOffset dy="2" in="shadowSpreadOuter1" result="shadowOffsetOuter1"/><feGaussianBlur in="shadowOffsetOuter1" result="shadowBlurOuter1" stdDeviation="1"/><feColorMatrix in="shadowBlurOuter1" values="0 0 0 0 0 0 0 0 0 0.51372549 0 0 0 0 0.176470588 0 0 0 0.294607736 0"/></filter><filter id="B" width="127.6%" height="117.2%" x="-12.8%" y="-6.6%" filterUnits="objectBoundingBox"><feMorphology in="SourceAlpha" operator="dilate" radius="2" result="shadowSpreadInner1"/><feGaussianBlur in="shadowSpreadInner1" result="shadowBlurInner1" stdDeviation="1.5"/><feOffset dx="-2" dy="5" in="shadowBlurInner1" result="shadowOffsetInner1"/><feComposite in="shadowOffsetInner1" in2="SourceAlpha" k2="-1" k3="1" operator="arithmetic" result="shadowInnerInner1"/><feColorMatrix in="shadowInnerInner1" result="shadowMatrixInner1" values="0 0 0 0 0 0 0 0 0 0 0 0 0 0 0 0 0 0 0.3 0"/><feMorphology in="SourceAlpha" operator="dilate" radius="2" result="shadowSpreadInner2"/><feGaussianBlur in="shadowSpreadInner2" result="shadowBlurInner2" stdDeviation="2"/><feOffset dy="-1" in="shadowBlurInner2" result="shadowOffsetInner2"/><feComposite in="shadowOffsetInner2" in2="SourceAlpha" k2="-1" k3="1" operator="arithmetic" result="shadowInnerInner2"/><feColorMatrix in="shadowInnerInner2" result="shadowMatrixInner2" values="0 0 0 0 1 0 0 0 0 1 0 0 0 0 1 0 0 0 1 0"/><feMerge><feMergeNode in="shadowMatrixInner1"/><feMergeNode in="shadowMatrixInner2"/></feMerge></filter><path id="a" d="M306,120 C419.770658,120 512,212.229342 512,326 C512,439.770658 419.770658,532 306,532 C192.229342,532 100,439.770658 100,326 C100,212.229342 192.229342,120 306,120 Z"/><path id="e" d="M231.422697,431.126953 C234.381682,431.126953 238.261239,430.420085 243.061369,429.006348 C247.8615,427.592611 253.023283,425.669271 258.546721,423.236328 C264.070158,420.803385 269.593596,418.090983 275.117033,415.099121 C280.640471,412.107259 285.604989,409.033203 290.010588,405.876953 C290.996916,405.219401 291.884611,404.759115 292.673674,404.496094 C293.462736,404.233073 294.251799,404.101562 295.040861,404.101562 C295.632658,404.167318 296.240894,404.216634 296.865569,404.249512 C297.490243,404.282389 298.032723,404.298828 298.49301,404.298828 C312.76189,404.298828 326.093759,402.819336 338.488615,399.860352 C350.883472,396.901367 362.094735,392.660156 372.122404,387.136719 C382.150074,381.613281 390.747567,375.070638 397.914885,367.508789 C405.082203,359.94694 410.589201,351.513835 414.435881,342.209473 C418.282561,332.905111 420.205901,322.959635 420.205901,312.373047 C420.205901,299.682292 417.279794,287.76416 411.42758,276.618652 C405.575367,265.473145 397.421721,255.708496 386.966643,247.324707 C376.511565,238.940918 364.36329,232.381836 350.521819,227.647461 C336.680347,222.913086 321.836109,220.545898 305.989104,220.545898 C290.142098,220.545898 275.29786,222.913086 261.456389,227.647461 C247.614917,232.381836 235.483082,238.940918 225.060881,247.324707 C214.63868,255.708496 206.485035,265.473145 200.599944,276.618652 C194.714852,287.76416 191.772307,299.682292 191.772307,312.373047 C191.772307,322.959635 193.810718,333.05306 197.887541,342.65332 C201.964364,352.253581 207.849455,361.081217 215.542815,369.13623 C223.236174,377.191243 232.474781,384.111979 243.258635,389.898438 C244.113453,390.424479 244.672372,391.049154 244.935393,391.772461 C245.198414,392.495768 245.099781,393.284831 244.639494,394.139648 C242.666838,397.295898 240.431161,400.517904 237.932463,403.805664 C235.433765,407.093424 233.0337,410.101725 230.732268,412.830566 C228.430835,415.559408 226.622567,417.745768 225.307463,419.389648 C223.137541,422.217122 222.6115,424.880208 223.729338,427.378906 C224.847177,429.877604 227.41163,431.126953 231.422697,431.126953 Z M258.349455,328.746094 C254.075367,328.746094 250.409514,327.217285 247.351897,324.159668 C244.294279,321.102051 242.765471,317.436198 242.765471,313.162109 C242.765471,308.888021 244.294279,305.222168 247.351897,302.164551 C250.409514,299.106934 254.075367,297.578125 258.349455,297.578125 C262.557789,297.578125 266.174325,299.106934 269.199065,302.164551 C272.223804,305.222168 273.736174,308.888021 273.736174,313.162109 C273.736174,317.436198 272.240243,321.102051 269.248381,324.159668 C266.256519,327.217285 262.623544,328.746094 258.349455,328.746094 Z M305.989104,328.746094 C301.715015,328.746094 298.065601,327.217285 295.040861,324.159668 C292.016122,321.102051 290.503752,317.436198 290.503752,313.162109 C290.503752,308.888021 292.016122,305.222168 295.040861,302.164551 C298.065601,299.106934 301.715015,297.578125 305.989104,297.578125 C310.263192,297.578125 313.912606,299.106934 316.937346,302.164551 C319.962085,305.222168 321.474455,308.888021 321.474455,313.162109 C321.474455,317.436198 319.962085,321.102051 316.937346,324.159668 C313.912606,327.217285 310.263192,328.746094 305.989104,328.746094 Z M353.628752,328.746094 C349.354664,328.746094 345.70525,327.217285 342.68051,324.159668 C339.65577,321.102051 338.143401,317.436198 338.143401,313.162109 C338.143401,308.888021 339.65577,305.222168 342.68051,302.164551 C345.70525,299.106934 349.354664,297.578125 353.628752,297.578125 C357.837085,297.578125 361.470061,299.106934 364.527678,302.164551 C367.585295,305.222168 369.114104,308.888021 369.114104,313.162109 C369.114104,317.436198 367.585295,321.102051 364.527678,324.159668 C361.470061,327.217285 357.837085,328.746094 353.628752,328.746094 Z"/><path id="h" d="M46.1499336,-7.10542736e-15 L118.850066,3.62733656e-15 C134.897404,-2.107587e-15 140.716556,1.670861 146.583223,4.80838867 C152.449889,7.94591634 157.054084,12.5501107 160.191611,18.4167773 C163.329139,24.283444 165,30.1025963 165,46.1499336 L165,118.850066 C165,134.897404 163.329139,140.716556 160.191611,146.583223 C157.054084,152.449889 152.449889,157.054084 146.583223,160.191611 C140.716556,163.329139 134.897404,165 118.850066,165 L46.1499336,165 C30.1025963,165 24.283444,163.329139 18.4167773,160.191611 C12.5501107,157.054084 7.94591634,152.449889 4.80838867,146.583223 C1.670861,140.716556 -7.10542736e-15,134.897404 -7.10542736e-15,118.850066 L0,46.1499336 C0,30.1025963 1.670861,24.283444 4.80838867,18.4167773 C7.94591634,12.5501107 12.5501107,7.94591634 18.4167773,4.80838867 C24.283444,1.670861 30.1025963,-7.10542736e-15 46.1499336,-7.10542736e-15 Z"/><path id="n" d="M111.51444,11.7322209 L93.8287358,26.2488167 L93.8287358,71.7449636 L111.595443,86.3291414 C114.255049,88.4106644 118.143204,86.5116126 118.143204,83.1257585 L118.143204,14.8680218 C118.143204,11.4416186 114.167296,9.56284132 111.51444,11.7322209 Z"/><path id="p" d="M66.8276608,48.6589806 L66.8276608,69.609375 L27.6761019,69.609375 L27.6761019,97.3179612 L85.7284133,97.3179612 C90.2038415,97.3179612 93.8287358,93.6888122 93.8287358,89.2081311 L93.8287358,71.7449636 L66.8276608,48.6589806 Z"/><path id="r" d="M85.7284133,0 L27.6761019,0 L27.6761019,27.7085862 L66.8276608,27.7085862 L66.8276608,48.6589806 L93.8287358,26.2623331 L93.8287358,8.1098301 C93.8287358,3.62914897 90.2038415,0 85.7284133,0 Z"/><path id="u" d="M0,69.609375 L0,89.2081311 C0,93.6888122 3.62489433,97.3179612 8.10032252,97.3179612 L27.6761019,97.3179612 L27.6761019,69.609375 L0,69.609375 Z"/><linearGradient id="c" x1="0%" x2="0%" y1="0%" y2="98.776%"><stop offset="0%" stop-color="#DBDBDB"/><stop offset="100%" stop-color="#B5B5B5"/></linearGradient><linearGradient id="g" x1="50%" x2="50%" y1="0%" y2="100%"><stop offset="0%" stop-color="#3A3A3A"/><stop offset="100%" stop-color="#1E1E1E"/></linearGradient><linearGradient id="j" x1="0%" x2="0%" y1="100%" y2="0%"><stop offset="0%" stop-color="#D1D0D0"/><stop offset="100%" stop-color="#FFF"/></linearGradient><polygon id="l" points="27.676 27.709 0 27.709 0 69.609 27.676 69.609"/><polygon id="x" points="27.676 0 0 27.709 27.676 27.709"/><polygon id="z" points="66.828 48.659 93.829 71.745 93.829 26.249"/></defs><g fill="none" fill-rule="evenodd"><g fill-rule="nonzero"><use xlink:href="#a" fill="#000" filter="url(#b)"/><use xlink:href="#a" fill="url(#c)"/><use xlink:href="#a" fill="#000" filter="url(#d)"/><use xlink:href="#a" stroke="#FFF" stroke-width="2"/></g><g fill-rule="nonzero"><use xlink:href="#e" fill="#000" filter="url(#f)"/><use xlink:href="#e" fill="#2E2E2E"/><use xlink:href="#e" fill="url(#g)"/></g><g fill-rule="nonzero" transform="translate(388 387)"><use xlink:href="#h" fill="#000" filter="url(#i)"/><use xlink:href="#h" fill="url(#j)"/><use xlink:href="#h" fill="#000" filter="url(#k)"/><g transform="translate(23.629 33.64)"><use xlink:href="#l" fill="#2684FC"/><use xlink:href="#l" fill="#000" filter="url(#m)"/><use xlink:href="#n" fill="#00AC47"/><use xlink:href="#n" fill="#000" filter="url(#o)"/><use xlink:href="#p" fill="#00AC47"/><use xlink:href="#p" fill="#000" filter="url(#q)"/><use xlink:href="#r" fill="#000" filter="url(#s)"/><use xlink:href="#r" fill="#FBBC04"/><use xlink:href="#r" fill="#000" filter="url(#t)"/><use xlink:href="#u" fill="#000" filter="url(#v)"/><use xlink:href="#u" fill="#0066DA"/><use xlink:href="#u" fill="#000" filter="url(#w)"/><use xlink:href="#x" fill="#EA4335"/><use xlink:href="#x" fill="#000" filter="url(#y)"/><use xlink:href="#z" fill="#000" filter="url(#A)"/><use xlink:href="#z" fill="#00832D"/><use xlink:href="#z" fill="#000" filter="url(#B)"/></g></g></g></svg>