<svg xmlns="http://www.w3.org/2000/svg" xmlns:xlink="http://www.w3.org/1999/xlink" width="612" height="612" viewBox="0 0 612 612"><defs><filter id="b" width="115%" height="115%" x="-7.5%" y="-7.5%" filterUnits="objectBoundingBox"><feMorphology in="SourceAlpha" radius="9" result="shadowSpreadOuter1"/><feOffset in="shadowSpreadOuter1" result="shadowOffsetOuter1"/><feGaussianBlur in="shadowOffsetOuter1" result="shadowBlurOuter1" stdDeviation="20"/><feComposite in="shadowBlurOuter1" in2="SourceAlpha" operator="out" result="shadowBlurOuter1"/><feColorMatrix in="shadowBlurOuter1" values="0 0 0 0 1 0 0 0 0 1 0 0 0 0 1 0 0 0 0.5 0"/></filter><filter id="d" width="111.2%" height="111.2%" x="-5.6%" y="-5.6%" filterUnits="objectBoundingBox"><feMorphology in="SourceAlpha" operator="dilate" radius="1" result="shadowSpreadInner1"/><feGaussianBlur in="shadowSpreadInner1" result="shadowBlurInner1" stdDeviation="1.5"/><feOffset dx="-1" dy="-2" in="shadowBlurInner1" result="shadowOffsetInner1"/><feComposite in="shadowOffsetInner1" in2="SourceAlpha" k2="-1" k3="1" operator="arithmetic" result="shadowInnerInner1"/><feColorMatrix in="shadowInnerInner1" result="shadowMatrixInner1" values="0 0 0 0 0 0 0 0 0 0 0 0 0 0 0 0 0 0 0.1 0"/><feMorphology in="SourceAlpha" operator="dilate" radius="1" result="shadowSpreadInner2"/><feGaussianBlur in="shadowSpreadInner2" result="shadowBlurInner2" stdDeviation="1.5"/><feOffset dx="2" dy="2" in="shadowBlurInner2" result="shadowOffsetInner2"/><feComposite in="shadowOffsetInner2" in2="SourceAlpha" k2="-1" k3="1" operator="arithmetic" result="shadowInnerInner2"/><feColorMatrix in="shadowInnerInner2" result="shadowMatrixInner2" values="0 0 0 0 1 0 0 0 0 1 0 0 0 0 1 0 0 0 0.1 0"/><feMerge><feMergeNode in="shadowMatrixInner1"/><feMergeNode in="shadowMatrixInner2"/></feMerge></filter><filter id="f" width="106.9%" height="105.6%" x="-3.5%" y="-2.8%" filterUnits="objectBoundingBox"><feOffset in="SourceAlpha" result="shadowOffsetOuter1"/><feGaussianBlur in="shadowOffsetOuter1" result="shadowBlurOuter1" stdDeviation="2"/><feColorMatrix in="shadowBlurOuter1" values="0 0 0 0 0.552677763 0 0 0 0 0.552677763 0 0 0 0 0.552677763 0 0 0 0.5 0"/></filter><filter id="i" width="114.5%" height="114.5%" x="-7.3%" y="-7.3%" filterUnits="objectBoundingBox"><feMorphology in="SourceAlpha" radius="4" result="shadowSpreadOuter1"/><feOffset in="shadowSpreadOuter1" result="shadowOffsetOuter1"/><feGaussianBlur in="shadowOffsetOuter1" result="shadowBlurOuter1" stdDeviation="8"/><feColorMatrix in="shadowBlurOuter1" values="0 0 0 0 1 0 0 0 0 1 0 0 0 0 1 0 0 0 0.5 0"/></filter><filter id="k" width="110.9%" height="110.9%" x="-5.5%" y="-5.5%" filterUnits="objectBoundingBox"><feGaussianBlur in="SourceAlpha" result="shadowBlurInner1" stdDeviation=".5"/><feOffset dy="-1" in="shadowBlurInner1" result="shadowOffsetInner1"/><feComposite in="shadowOffsetInner1" in2="SourceAlpha" k2="-1" k3="1" operator="arithmetic" result="shadowInnerInner1"/><feColorMatrix in="shadowInnerInner1" result="shadowMatrixInner1" values="0 0 0 0 0 0 0 0 0 0 0 0 0 0 0 0 0 0 0.1 0"/><feGaussianBlur in="SourceAlpha" result="shadowBlurInner2" stdDeviation=".5"/><feOffset dx="1" dy="1" in="shadowBlurInner2" result="shadowOffsetInner2"/><feComposite in="shadowOffsetInner2" in2="SourceAlpha" k2="-1" k3="1" operator="arithmetic" result="shadowInnerInner2"/><feColorMatrix in="shadowInnerInner2" result="shadowMatrixInner2" values="0 0 0 0 1 0 0 0 0 1 0 0 0 0 1 0 0 0 0.1 0"/><feMerge><feMergeNode in="shadowMatrixInner1"/><feMergeNode in="shadowMatrixInner2"/></feMerge></filter><filter id="m" width="107.2%" height="104.8%" x="-3.6%" y="-2.4%" filterUnits="objectBoundingBox"><feMorphology in="SourceAlpha" operator="dilate" radius="2" result="shadowSpreadInner1"/><feGaussianBlur in="shadowSpreadInner1" result="shadowBlurInner1" stdDeviation="1.5"/><feOffset dx="1" dy="1" in="shadowBlurInner1" result="shadowOffsetInner1"/><feComposite in="shadowOffsetInner1" in2="SourceAlpha" k2="-1" k3="1" operator="arithmetic" result="shadowInnerInner1"/><feColorMatrix in="shadowInnerInner1" result="shadowMatrixInner1" values="0 0 0 0 0 0 0 0 0 0 0 0 0 0 0 0 0 0 0.5 0"/><feMorphology in="SourceAlpha" operator="dilate" radius="3" result="shadowSpreadInner2"/><feGaussianBlur in="shadowSpreadInner2" result="shadowBlurInner2" stdDeviation="1.5"/><feOffset dx="-2" dy="-1" in="shadowBlurInner2" result="shadowOffsetInner2"/><feComposite in="shadowOffsetInner2" in2="SourceAlpha" k2="-1" k3="1" operator="arithmetic" result="shadowInnerInner2"/><feColorMatrix in="shadowInnerInner2" result="shadowMatrixInner2" values="0 0 0 0 1 0 0 0 0 1 0 0 0 0 1 0 0 0 1 0"/><feMerge><feMergeNode in="shadowMatrixInner1"/><feMergeNode in="shadowMatrixInner2"/></feMerge></filter><filter id="o" width="124.7%" height="107.9%" x="-12.3%" y="-3.9%" filterUnits="objectBoundingBox"><feMorphology in="SourceAlpha" radius="1" result="shadowSpreadInner1"/><feGaussianBlur in="shadowSpreadInner1" result="shadowBlurInner1" stdDeviation="1.5"/><feOffset dx="-2" dy="2" in="shadowBlurInner1" result="shadowOffsetInner1"/><feComposite in="shadowOffsetInner1" in2="SourceAlpha" k2="-1" k3="1" operator="arithmetic" result="shadowInnerInner1"/><feColorMatrix in="shadowInnerInner1" result="shadowMatrixInner1" values="0 0 0 0 0 0 0 0 0 0 0 0 0 0 0 0 0 0 0.25 0"/><feMorphology in="SourceAlpha" operator="dilate" radius="1" result="shadowSpreadInner2"/><feGaussianBlur in="shadowSpreadInner2" result="shadowBlurInner2" stdDeviation="1.5"/><feOffset dx="1" dy="-2" in="shadowBlurInner2" result="shadowOffsetInner2"/><feComposite in="shadowOffsetInner2" in2="SourceAlpha" k2="-1" k3="1" operator="arithmetic" result="shadowInnerInner2"/><feColorMatrix in="shadowInnerInner2" result="shadowMatrixInner2" values="0 0 0 0 1 0 0 0 0 1 0 0 0 0 1 0 0 0 0.675480769 0"/><feMerge><feMergeNode in="shadowMatrixInner1"/><feMergeNode in="shadowMatrixInner2"/></feMerge></filter><filter id="q" width="104.5%" height="106.2%" x="-2.3%" y="-3.1%" filterUnits="objectBoundingBox"><feMorphology in="SourceAlpha" operator="dilate" radius="2" result="shadowSpreadInner1"/><feGaussianBlur in="shadowSpreadInner1" result="shadowBlurInner1" stdDeviation="1.5"/><feOffset dy="2" in="shadowBlurInner1" result="shadowOffsetInner1"/><feComposite in="shadowOffsetInner1" in2="SourceAlpha" k2="-1" k3="1" operator="arithmetic" result="shadowInnerInner1"/><feColorMatrix in="shadowInnerInner1" result="shadowMatrixInner1" values="0 0 0 0 0 0 0 0 0 0 0 0 0 0 0 0 0 0 0.25 0"/><feMorphology in="SourceAlpha" operator="dilate" radius="2" result="shadowSpreadInner2"/><feGaussianBlur in="shadowSpreadInner2" result="shadowBlurInner2" stdDeviation="1.5"/><feOffset dx="1" dy="-2" in="shadowBlurInner2" result="shadowOffsetInner2"/><feComposite in="shadowOffsetInner2" in2="SourceAlpha" k2="-1" k3="1" operator="arithmetic" result="shadowInnerInner2"/><feColorMatrix in="shadowInnerInner2" result="shadowMatrixInner2" values="0 0 0 0 1 0 0 0 0 1 0 0 0 0 1 0 0 0 0.7 0"/><feMerge><feMergeNode in="shadowMatrixInner1"/><feMergeNode in="shadowMatrixInner2"/></feMerge></filter><filter id="s" width="103%" height="104.1%" x="-1.5%" y="-2.1%" filterUnits="objectBoundingBox"><feMorphology in="SourceAlpha" radius="1" result="shadowSpreadOuter1"/><feOffset dy="2" in="shadowSpreadOuter1" result="shadowOffsetOuter1"/><feGaussianBlur in="shadowOffsetOuter1" result="shadowBlurOuter1" stdDeviation="1"/><feColorMatrix in="shadowBlurOuter1" values="0 0 0 0 0 0 0 0 0 0 0 0 0 0 0 0 0 0 0.25 0"/></filter><filter id="t" width="106%" height="108.2%" x="-3%" y="-4.1%" filterUnits="objectBoundingBox"><feMorphology in="SourceAlpha" operator="dilate" radius="2" result="shadowSpreadInner1"/><feGaussianBlur in="shadowSpreadInner1" result="shadowBlurInner1" stdDeviation="1.5"/><feOffset dx="-2" dy="3" in="shadowBlurInner1" result="shadowOffsetInner1"/><feComposite in="shadowOffsetInner1" in2="SourceAlpha" k2="-1" k3="1" operator="arithmetic" result="shadowInnerInner1"/><feColorMatrix in="shadowInnerInner1" result="shadowMatrixInner1" values="0 0 0 0 0 0 0 0 0 0 0 0 0 0 0 0 0 0 0.25 0"/><feMorphology in="SourceAlpha" operator="dilate" radius="2" result="shadowSpreadInner2"/><feGaussianBlur in="shadowSpreadInner2" result="shadowBlurInner2" stdDeviation="1"/><feOffset dx="2" in="shadowBlurInner2" result="shadowOffsetInner2"/><feComposite in="shadowOffsetInner2" in2="SourceAlpha" k2="-1" k3="1" operator="arithmetic" result="shadowInnerInner2"/><feColorMatrix in="shadowInnerInner2" result="shadowMatrixInner2" values="0 0 0 0 0 0 0 0 0 0 0 0 0 0 0 0 0 0 0.25 0"/><feMorphology in="SourceAlpha" operator="dilate" radius="1" result="shadowSpreadInner3"/><feGaussianBlur in="shadowSpreadInner3" result="shadowBlurInner3" stdDeviation="1.5"/><feOffset dx="2" dy="-2" in="shadowBlurInner3" result="shadowOffsetInner3"/><feComposite in="shadowOffsetInner3" in2="SourceAlpha" k2="-1" k3="1" operator="arithmetic" result="shadowInnerInner3"/><feColorMatrix in="shadowInnerInner3" result="shadowMatrixInner3" values="0 0 0 0 1 0 0 0 0 1 0 0 0 0 1 0 0 0 0.353283435 0"/><feMorphology in="SourceAlpha" operator="dilate" radius="2" result="shadowSpreadInner4"/><feGaussianBlur in="shadowSpreadInner4" result="shadowBlurInner4" stdDeviation="1"/><feOffset dx="-1" dy="-1" in="shadowBlurInner4" result="shadowOffsetInner4"/><feComposite in="shadowOffsetInner4" in2="SourceAlpha" k2="-1" k3="1" operator="arithmetic" result="shadowInnerInner4"/><feColorMatrix in="shadowInnerInner4" result="shadowMatrixInner4" values="0 0 0 0 1 0 0 0 0 1 0 0 0 0 1 0 0 0 1 0"/><feMerge><feMergeNode in="shadowMatrixInner1"/><feMergeNode in="shadowMatrixInner2"/><feMergeNode in="shadowMatrixInner3"/><feMergeNode in="shadowMatrixInner4"/></feMerge></filter><filter id="v" width="114.5%" height="114.4%" x="-3.6%" y="-10.8%" filterUnits="objectBoundingBox"><feMorphology in="SourceAlpha" radius="1" result="shadowSpreadOuter1"/><feOffset dx="2" in="shadowSpreadOuter1" result="shadowOffsetOuter1"/><feGaussianBlur in="shadowOffsetOuter1" result="shadowBlurOuter1" stdDeviation="1"/><feColorMatrix in="shadowBlurOuter1" result="shadowMatrixOuter1" values="0 0 0 0 0 0 0 0 0 0 0 0 0 0 0 0 0 0 0.25 0"/><feMorphology in="SourceAlpha" radius="1.5" result="shadowSpreadOuter2"/><feOffset dy="-3" in="shadowSpreadOuter2" result="shadowOffsetOuter2"/><feGaussianBlur in="shadowOffsetOuter2" result="shadowBlurOuter2" stdDeviation="1"/><feColorMatrix in="shadowBlurOuter2" result="shadowMatrixOuter2" values="0 0 0 0 1 0 0 0 0 1 0 0 0 0 1 0 0 0 0.25 0"/><feMerge><feMergeNode in="shadowMatrixOuter1"/><feMergeNode in="shadowMatrixOuter2"/></feMerge></filter><filter id="w" width="118.1%" height="118%" x="-5.4%" y="-12.6%" filterUnits="objectBoundingBox"><feMorphology in="SourceAlpha" operator="dilate" radius="3" result="shadowSpreadInner1"/><feGaussianBlur in="shadowSpreadInner1" result="shadowBlurInner1" stdDeviation="1.5"/><feOffset dx="2" in="shadowBlurInner1" result="shadowOffsetInner1"/><feComposite in="shadowOffsetInner1" in2="SourceAlpha" k2="-1" k3="1" operator="arithmetic" result="shadowInnerInner1"/><feColorMatrix in="shadowInnerInner1" result="shadowMatrixInner1" values="0 0 0 0 0 0 0 0 0 0 0 0 0 0 0 0 0 0 0.5 0"/><feMorphology in="SourceAlpha" operator="dilate" radius="4" result="shadowSpreadInner2"/><feGaussianBlur in="shadowSpreadInner2" result="shadowBlurInner2" stdDeviation="1.5"/><feOffset dy="3" in="shadowBlurInner2" result="shadowOffsetInner2"/><feComposite in="shadowOffsetInner2" in2="SourceAlpha" k2="-1" k3="1" operator="arithmetic" result="shadowInnerInner2"/><feColorMatrix in="shadowInnerInner2" result="shadowMatrixInner2" values="0 0 0 0 0 0 0 0 0 0 0 0 0 0 0 0 0 0 0.3 0"/><feMorphology in="SourceAlpha" operator="dilate" radius="2" result="shadowSpreadInner3"/><feGaussianBlur in="shadowSpreadInner3" result="shadowBlurInner3" stdDeviation="1.5"/><feOffset dy="-2" in="shadowBlurInner3" result="shadowOffsetInner3"/><feComposite in="shadowOffsetInner3" in2="SourceAlpha" k2="-1" k3="1" operator="arithmetic" result="shadowInnerInner3"/><feColorMatrix in="shadowInnerInner3" result="shadowMatrixInner3" values="0 0 0 0 1 0 0 0 0 1 0 0 0 0 1 0 0 0 1 0"/><feMerge><feMergeNode in="shadowMatrixInner1"/><feMergeNode in="shadowMatrixInner2"/><feMergeNode in="shadowMatrixInner3"/></feMerge></filter><filter id="y" width="107.2%" height="107.2%" x="-3.6%" y="-3.6%" filterUnits="objectBoundingBox"><feMorphology in="SourceAlpha" operator="dilate" radius="2" result="shadowSpreadInner1"/><feGaussianBlur in="shadowSpreadInner1" result="shadowBlurInner1" stdDeviation="1.5"/><feOffset dx="1" dy="1" in="shadowBlurInner1" result="shadowOffsetInner1"/><feComposite in="shadowOffsetInner1" in2="SourceAlpha" k2="-1" k3="1" operator="arithmetic" result="shadowInnerInner1"/><feColorMatrix in="shadowInnerInner1" result="shadowMatrixInner1" values="0 0 0 0 0 0 0 0 0 0 0 0 0 0 0 0 0 0 0.5 0"/><feMorphology in="SourceAlpha" operator="dilate" radius="3" result="shadowSpreadInner2"/><feGaussianBlur in="shadowSpreadInner2" result="shadowBlurInner2" stdDeviation="1.5"/><feOffset dy="-2" in="shadowBlurInner2" result="shadowOffsetInner2"/><feComposite in="shadowOffsetInner2" in2="SourceAlpha" k2="-1" k3="1" operator="arithmetic" result="shadowInnerInner2"/><feColorMatrix in="shadowInnerInner2" result="shadowMatrixInner2" values="0 0 0 0 1 0 0 0 0 1 0 0 0 0 1 0 0 0 1 0"/><feMerge><feMergeNode in="shadowMatrixInner1"/><feMergeNode in="shadowMatrixInner2"/></feMerge></filter><filter id="A" width="116.5%" height="110.6%" x="-7.2%" y="-3.3%" filterUnits="objectBoundingBox"><feMorphology in="SourceAlpha" radius=".5" result="shadowSpreadOuter1"/><feOffset dy="2" in="shadowSpreadOuter1" result="shadowOffsetOuter1"/><feGaussianBlur in="shadowOffsetOuter1" result="shadowBlurOuter1" stdDeviation="1"/><feColorMatrix in="shadowBlurOuter1" values="0 0 0 0 0 0 0 0 0 0.51372549 0 0 0 0 0.176470588 0 0 0 0.294607736 0"/></filter><filter id="B" width="127.6%" height="117.2%" x="-12.8%" y="-6.6%" filterUnits="objectBoundingBox"><feMorphology in="SourceAlpha" operator="dilate" radius="2" result="shadowSpreadInner1"/><feGaussianBlur in="shadowSpreadInner1" result="shadowBlurInner1" stdDeviation="1.5"/><feOffset dx="-2" dy="5" in="shadowBlurInner1" result="shadowOffsetInner1"/><feComposite in="shadowOffsetInner1" in2="SourceAlpha" k2="-1" k3="1" operator="arithmetic" result="shadowInnerInner1"/><feColorMatrix in="shadowInnerInner1" result="shadowMatrixInner1" values="0 0 0 0 0 0 0 0 0 0 0 0 0 0 0 0 0 0 0.3 0"/><feMorphology in="SourceAlpha" operator="dilate" radius="2" result="shadowSpreadInner2"/><feGaussianBlur in="shadowSpreadInner2" result="shadowBlurInner2" stdDeviation="2"/><feOffset dy="-1" in="shadowBlurInner2" result="shadowOffsetInner2"/><feComposite in="shadowOffsetInner2" in2="SourceAlpha" k2="-1" k3="1" operator="arithmetic" result="shadowInnerInner2"/><feColorMatrix in="shadowInnerInner2" result="shadowMatrixInner2" values="0 0 0 0 1 0 0 0 0 1 0 0 0 0 1 0 0 0 1 0"/><feMerge><feMergeNode in="shadowMatrixInner1"/><feMergeNode in="shadowMatrixInner2"/></feMerge></filter><path id="a" d="M306,120 C419.770658,120 512,212.229342 512,326 C512,439.770658 419.770658,532 306,532 C192.229342,532 100,439.770658 100,326 C100,212.229342 192.229342,120 306,120 Z"/><path id="e" d="M9.07421875,105.043945 C9.07421875,118.589518 11.8688151,130.556966 17.4580078,140.946289 C23.0472005,151.335612 30.8063151,159.653646 40.7353516,165.900391 C50.664388,172.147135 62.1057943,175.895182 75.0595703,177.144531 L75.0595703,197.364258 L38.8613281,197.364258 C36.296875,197.364258 34.0940755,198.268392 32.2529297,200.07666 C30.4117839,201.884928 29.4912109,204.071289 29.4912109,206.635742 C29.4912109,209.13444 30.4117839,211.287923 32.2529297,213.096191 C34.0940755,214.90446 36.296875,215.808594 38.8613281,215.808594 L129.40625,215.808594 C131.970703,215.808594 134.173503,214.90446 136.014648,213.096191 C137.855794,211.287923 138.776367,209.13444 138.776367,206.635742 C138.776367,204.071289 137.855794,201.884928 136.014648,200.07666 C134.173503,198.268392 131.970703,197.364258 129.40625,197.364258 L93.2080078,197.364258 L93.2080078,177.144531 C99.1259766,176.61849 104.748047,175.533529 110.074219,173.889648 C115.400391,172.245768 120.332031,170.075846 124.869141,167.379883 L111.553711,154.064453 C107.608398,155.971354 103.33431,157.450846 98.7314453,158.50293 C94.1285807,159.555013 89.2626953,160.081055 84.1337891,160.081055 C72.9554036,160.081055 63.125,157.779622 54.6425781,153.176758 C46.1601562,148.573893 39.5681966,142.080566 34.8666992,133.696777 C30.1652018,125.312988 27.8144531,115.531901 27.8144531,104.353516 L27.8144531,85.5146484 C27.8144531,82.9501953 26.8938802,80.7802734 25.0527344,79.0048828 C23.2115885,77.2294922 20.9759115,76.3417969 18.3457031,76.3417969 C15.8470052,76.3417969 13.6770833,77.2294922 11.8359375,79.0048828 C9.99479167,80.7802734 9.07421875,82.9501953 9.07421875,85.5146484 L9.07421875,105.043945 Z M137.494141,122.797852 L152.289062,137.592773 C156.826172,127.795247 159.094727,116.945638 159.094727,105.043945 L159.094727,85.5146484 C159.094727,82.9501953 158.190592,80.7802734 156.382324,79.0048828 C154.574056,77.2294922 152.387695,76.3417969 149.823242,76.3417969 C147.258789,76.3417969 145.05599,77.2294922 143.214844,79.0048828 C141.373698,80.7802734 140.453125,82.9501953 140.453125,85.5146484 L140.453125,104.353516 C140.453125,110.929036 139.466797,117.077148 137.494141,122.797852 Z M84.1337891,139.664062 C88.0791016,139.664062 91.7613932,138.973633 95.1806641,137.592773 L49.4150391,91.9257812 L49.4150391,102.775391 C49.4150391,110.074219 50.9274089,116.485352 53.9521484,122.008789 C56.976888,127.532227 61.1030273,131.855632 66.3305664,134.979004 C71.5581055,138.102376 77.492513,139.664062 84.1337891,139.664062 Z M84.1337891,0 C90.7750651,0 96.7094727,1.5452474 101.937012,4.63574219 C107.164551,7.72623698 111.274251,12.0332031 114.266113,17.5566406 C117.257975,23.0800781 118.753906,29.4912109 118.753906,36.7900391 L118.753906,101.591797 C118.753906,101.986328 118.737467,102.380859 118.70459,102.775391 C118.671712,103.169922 118.589518,103.531576 118.458008,103.860352 L50.3027344,35.7050781 L50.3027344,32.4501953 C50.828776,26.0061849 52.6041667,20.351237 55.6289062,15.4853516 C58.6536458,10.6194661 62.5989583,6.82210286 67.4648438,4.09326172 C72.3307292,1.36442057 77.8870443,0 84.1337891,0 Z M159.982422,184.936523 C161.494792,186.383138 163.352376,187.122884 165.555176,187.156811 C167.757975,187.188639 169.61556,186.448893 171.12793,184.936523 C172.574544,183.358398 173.31429,181.484375 173.348217,179.314453 C173.380046,177.144531 172.640299,175.303385 171.12793,173.791016 L13.4140625,16.2744141 C11.8359375,14.7620443 9.96191406,14.0058594 7.79199219,14.0058594 C5.62207031,14.0058594 3.74804687,14.7620443 2.16992188,16.2744141 C0.723307292,17.7210286 0,19.5621745 0,21.7978516 C0,24.0335286 0.723307292,25.8746745 2.16992188,27.3212891 L159.982422,184.936523 Z"/><path id="h" d="M46.1499336,-7.10542736e-15 L118.850066,3.62733656e-15 C134.897404,-2.107587e-15 140.716556,1.670861 146.583223,4.80838867 C152.449889,7.94591634 157.054084,12.5501107 160.191611,18.4167773 C163.329139,24.283444 165,30.1025963 165,46.1499336 L165,118.850066 C165,134.897404 163.329139,140.716556 160.191611,146.583223 C157.054084,152.449889 152.449889,157.054084 146.583223,160.191611 C140.716556,163.329139 134.897404,165 118.850066,165 L46.1499336,165 C30.1025963,165 24.283444,163.329139 18.4167773,160.191611 C12.5501107,157.054084 7.94591634,152.449889 4.80838867,146.583223 C1.670861,140.716556 -7.10542736e-15,134.897404 -7.10542736e-15,118.850066 L0,46.1499336 C0,30.1025963 1.670861,24.283444 4.80838867,18.4167773 C7.94591634,12.5501107 12.5501107,7.94591634 18.4167773,4.80838867 C24.283444,1.670861 30.1025963,-7.10542736e-15 46.1499336,-7.10542736e-15 Z"/><path id="n" d="M111.51444,11.7322209 L93.8287358,26.2488167 L93.8287358,71.7449636 L111.595443,86.3291414 C114.255049,88.4106644 118.143204,86.5116126 118.143204,83.1257585 L118.143204,14.8680218 C118.143204,11.4416186 114.167296,9.56284132 111.51444,11.7322209 Z"/><path id="p" d="M66.8276608,48.6589806 L66.8276608,69.609375 L27.6761019,69.609375 L27.6761019,97.3179612 L85.7284133,97.3179612 C90.2038415,97.3179612 93.8287358,93.6888122 93.8287358,89.2081311 L93.8287358,71.7449636 L66.8276608,48.6589806 Z"/><path id="r" d="M85.7284133,0 L27.6761019,0 L27.6761019,27.7085862 L66.8276608,27.7085862 L66.8276608,48.6589806 L93.8287358,26.2623331 L93.8287358,8.1098301 C93.8287358,3.62914897 90.2038415,0 85.7284133,0 Z"/><path id="u" d="M0,69.609375 L0,89.2081311 C0,93.6888122 3.62489433,97.3179612 8.10032252,97.3179612 L27.6761019,97.3179612 L27.6761019,69.609375 L0,69.609375 Z"/><linearGradient id="c" x1="0%" x2="0%" y1="0%" y2="98.776%"><stop offset="0%" stop-color="#DBDBDB"/><stop offset="100%" stop-color="#B5B5B5"/></linearGradient><linearGradient id="g" x1="50%" x2="50%" y1="0%" y2="100%"><stop offset="0%" stop-color="#3A3A3A"/><stop offset="100%" stop-color="#1E1E1E"/></linearGradient><linearGradient id="j" x1="0%" x2="0%" y1="100%" y2="0%"><stop offset="0%" stop-color="#D1D0D0"/><stop offset="100%" stop-color="#FFF"/></linearGradient><polygon id="l" points="27.676 27.709 0 27.709 0 69.609 27.676 69.609"/><polygon id="x" points="27.676 0 0 27.709 27.676 27.709"/><polygon id="z" points="66.828 48.659 93.829 71.745 93.829 26.249"/></defs><g fill="none" fill-rule="evenodd"><g fill-rule="nonzero"><use xlink:href="#a" fill="#000" filter="url(#b)"/><use xlink:href="#a" fill="url(#c)"/><use xlink:href="#a" fill="#000" filter="url(#d)"/><use xlink:href="#a" stroke="#FFF" stroke-width="2"/></g><g fill-rule="nonzero" transform="translate(221.932 212.064)"><use xlink:href="#e" fill="#000" filter="url(#f)"/><use xlink:href="#e" fill="#2E2E2E"/><use xlink:href="#e" fill="url(#g)"/></g><g fill-rule="nonzero" transform="translate(388 387)"><use xlink:href="#h" fill="#000" filter="url(#i)"/><use xlink:href="#h" fill="url(#j)"/><use xlink:href="#h" fill="#000" filter="url(#k)"/><g transform="translate(23.629 33.64)"><use xlink:href="#l" fill="#2684FC"/><use xlink:href="#l" fill="#000" filter="url(#m)"/><use xlink:href="#n" fill="#00AC47"/><use xlink:href="#n" fill="#000" filter="url(#o)"/><use xlink:href="#p" fill="#00AC47"/><use xlink:href="#p" fill="#000" filter="url(#q)"/><use xlink:href="#r" fill="#000" filter="url(#s)"/><use xlink:href="#r" fill="#FBBC04"/><use xlink:href="#r" fill="#000" filter="url(#t)"/><use xlink:href="#u" fill="#000" filter="url(#v)"/><use xlink:href="#u" fill="#0066DA"/><use xlink:href="#u" fill="#000" filter="url(#w)"/><use xlink:href="#x" fill="#EA4335"/><use xlink:href="#x" fill="#000" filter="url(#y)"/><use xlink:href="#z" fill="#000" filter="url(#A)"/><use xlink:href="#z" fill="#00832D"/><use xlink:href="#z" fill="#000" filter="url(#B)"/></g></g></g></svg>