<svg xmlns="http://www.w3.org/2000/svg" xmlns:xlink="http://www.w3.org/1999/xlink" width="612" height="612" viewBox="0 0 612 612"><defs><filter id="b" width="115%" height="115%" x="-7.5%" y="-7.5%" filterUnits="objectBoundingBox"><feMorphology in="SourceAlpha" radius="9" result="shadowSpreadOuter1"/><feOffset in="shadowSpreadOuter1" result="shadowOffsetOuter1"/><feGaussianBlur in="shadowOffsetOuter1" result="shadowBlurOuter1" stdDeviation="20"/><feComposite in="shadowBlurOuter1" in2="SourceAlpha" operator="out" result="shadowBlurOuter1"/><feColorMatrix in="shadowBlurOuter1" values="0 0 0 0 1 0 0 0 0 1 0 0 0 0 1 0 0 0 0.5 0"/></filter><filter id="d" width="111.2%" height="111.2%" x="-5.6%" y="-5.6%" filterUnits="objectBoundingBox"><feMorphology in="SourceAlpha" operator="dilate" radius="1" result="shadowSpreadInner1"/><feGaussianBlur in="shadowSpreadInner1" result="shadowBlurInner1" stdDeviation="1.5"/><feOffset dx="-1" dy="-2" in="shadowBlurInner1" result="shadowOffsetInner1"/><feComposite in="shadowOffsetInner1" in2="SourceAlpha" k2="-1" k3="1" operator="arithmetic" result="shadowInnerInner1"/><feColorMatrix in="shadowInnerInner1" result="shadowMatrixInner1" values="0 0 0 0 0 0 0 0 0 0 0 0 0 0 0 0 0 0 0.1 0"/><feMorphology in="SourceAlpha" operator="dilate" radius="1" result="shadowSpreadInner2"/><feGaussianBlur in="shadowSpreadInner2" result="shadowBlurInner2" stdDeviation="1.5"/><feOffset dx="2" dy="2" in="shadowBlurInner2" result="shadowOffsetInner2"/><feComposite in="shadowOffsetInner2" in2="SourceAlpha" k2="-1" k3="1" operator="arithmetic" result="shadowInnerInner2"/><feColorMatrix in="shadowInnerInner2" result="shadowMatrixInner2" values="0 0 0 0 1 0 0 0 0 1 0 0 0 0 1 0 0 0 0.1 0"/><feMerge><feMergeNode in="shadowMatrixInner1"/><feMergeNode in="shadowMatrixInner2"/></feMerge></filter><filter id="f" width="107.4%" height="105.6%" x="-3.7%" y="-2.8%" filterUnits="objectBoundingBox"><feOffset in="SourceAlpha" result="shadowOffsetOuter1"/><feGaussianBlur in="shadowOffsetOuter1" result="shadowBlurOuter1" stdDeviation="2"/><feColorMatrix in="shadowBlurOuter1" values="0 0 0 0 0.552677763 0 0 0 0 0.552677763 0 0 0 0 0.552677763 0 0 0 0.5 0"/></filter><filter id="i" width="114.5%" height="114.5%" x="-7.3%" y="-7.3%" filterUnits="objectBoundingBox"><feMorphology in="SourceAlpha" radius="4" result="shadowSpreadOuter1"/><feOffset in="shadowSpreadOuter1" result="shadowOffsetOuter1"/><feGaussianBlur in="shadowOffsetOuter1" result="shadowBlurOuter1" stdDeviation="8"/><feColorMatrix in="shadowBlurOuter1" values="0 0 0 0 1 0 0 0 0 1 0 0 0 0 1 0 0 0 0.5 0"/></filter><filter id="k" width="110.9%" height="110.9%" x="-5.5%" y="-5.5%" filterUnits="objectBoundingBox"><feGaussianBlur in="SourceAlpha" result="shadowBlurInner1" stdDeviation=".5"/><feOffset dy="-1" in="shadowBlurInner1" result="shadowOffsetInner1"/><feComposite in="shadowOffsetInner1" in2="SourceAlpha" k2="-1" k3="1" operator="arithmetic" result="shadowInnerInner1"/><feColorMatrix in="shadowInnerInner1" result="shadowMatrixInner1" values="0 0 0 0 0 0 0 0 0 0 0 0 0 0 0 0 0 0 0.1 0"/><feGaussianBlur in="SourceAlpha" result="shadowBlurInner2" stdDeviation=".5"/><feOffset dx="1" dy="1" in="shadowBlurInner2" result="shadowOffsetInner2"/><feComposite in="shadowOffsetInner2" in2="SourceAlpha" k2="-1" k3="1" operator="arithmetic" result="shadowInnerInner2"/><feColorMatrix in="shadowInnerInner2" result="shadowMatrixInner2" values="0 0 0 0 1 0 0 0 0 1 0 0 0 0 1 0 0 0 0.1 0"/><feMerge><feMergeNode in="shadowMatrixInner1"/><feMergeNode in="shadowMatrixInner2"/></feMerge></filter><filter id="m" width="107.2%" height="104.8%" x="-3.6%" y="-2.4%" filterUnits="objectBoundingBox"><feMorphology in="SourceAlpha" operator="dilate" radius="2" result="shadowSpreadInner1"/><feGaussianBlur in="shadowSpreadInner1" result="shadowBlurInner1" stdDeviation="1.5"/><feOffset dx="1" dy="1" in="shadowBlurInner1" result="shadowOffsetInner1"/><feComposite in="shadowOffsetInner1" in2="SourceAlpha" k2="-1" k3="1" operator="arithmetic" result="shadowInnerInner1"/><feColorMatrix in="shadowInnerInner1" result="shadowMatrixInner1" values="0 0 0 0 0 0 0 0 0 0 0 0 0 0 0 0 0 0 0.5 0"/><feMorphology in="SourceAlpha" operator="dilate" radius="3" result="shadowSpreadInner2"/><feGaussianBlur in="shadowSpreadInner2" result="shadowBlurInner2" stdDeviation="1.5"/><feOffset dx="-2" dy="-1" in="shadowBlurInner2" result="shadowOffsetInner2"/><feComposite in="shadowOffsetInner2" in2="SourceAlpha" k2="-1" k3="1" operator="arithmetic" result="shadowInnerInner2"/><feColorMatrix in="shadowInnerInner2" result="shadowMatrixInner2" values="0 0 0 0 1 0 0 0 0 1 0 0 0 0 1 0 0 0 1 0"/><feMerge><feMergeNode in="shadowMatrixInner1"/><feMergeNode in="shadowMatrixInner2"/></feMerge></filter><filter id="o" width="124.7%" height="107.9%" x="-12.3%" y="-3.9%" filterUnits="objectBoundingBox"><feMorphology in="SourceAlpha" radius="1" result="shadowSpreadInner1"/><feGaussianBlur in="shadowSpreadInner1" result="shadowBlurInner1" stdDeviation="1.5"/><feOffset dx="-2" dy="2" in="shadowBlurInner1" result="shadowOffsetInner1"/><feComposite in="shadowOffsetInner1" in2="SourceAlpha" k2="-1" k3="1" operator="arithmetic" result="shadowInnerInner1"/><feColorMatrix in="shadowInnerInner1" result="shadowMatrixInner1" values="0 0 0 0 0 0 0 0 0 0 0 0 0 0 0 0 0 0 0.25 0"/><feMorphology in="SourceAlpha" operator="dilate" radius="1" result="shadowSpreadInner2"/><feGaussianBlur in="shadowSpreadInner2" result="shadowBlurInner2" stdDeviation="1.5"/><feOffset dx="1" dy="-2" in="shadowBlurInner2" result="shadowOffsetInner2"/><feComposite in="shadowOffsetInner2" in2="SourceAlpha" k2="-1" k3="1" operator="arithmetic" result="shadowInnerInner2"/><feColorMatrix in="shadowInnerInner2" result="shadowMatrixInner2" values="0 0 0 0 1 0 0 0 0 1 0 0 0 0 1 0 0 0 0.675480769 0"/><feMerge><feMergeNode in="shadowMatrixInner1"/><feMergeNode in="shadowMatrixInner2"/></feMerge></filter><filter id="q" width="104.5%" height="106.2%" x="-2.3%" y="-3.1%" filterUnits="objectBoundingBox"><feMorphology in="SourceAlpha" operator="dilate" radius="2" result="shadowSpreadInner1"/><feGaussianBlur in="shadowSpreadInner1" result="shadowBlurInner1" stdDeviation="1.5"/><feOffset dy="2" in="shadowBlurInner1" result="shadowOffsetInner1"/><feComposite in="shadowOffsetInner1" in2="SourceAlpha" k2="-1" k3="1" operator="arithmetic" result="shadowInnerInner1"/><feColorMatrix in="shadowInnerInner1" result="shadowMatrixInner1" values="0 0 0 0 0 0 0 0 0 0 0 0 0 0 0 0 0 0 0.25 0"/><feMorphology in="SourceAlpha" operator="dilate" radius="2" result="shadowSpreadInner2"/><feGaussianBlur in="shadowSpreadInner2" result="shadowBlurInner2" stdDeviation="1.5"/><feOffset dx="1" dy="-2" in="shadowBlurInner2" result="shadowOffsetInner2"/><feComposite in="shadowOffsetInner2" in2="SourceAlpha" k2="-1" k3="1" operator="arithmetic" result="shadowInnerInner2"/><feColorMatrix in="shadowInnerInner2" result="shadowMatrixInner2" values="0 0 0 0 1 0 0 0 0 1 0 0 0 0 1 0 0 0 0.7 0"/><feMerge><feMergeNode in="shadowMatrixInner1"/><feMergeNode in="shadowMatrixInner2"/></feMerge></filter><filter id="s" width="103%" height="104.1%" x="-1.5%" y="-2.1%" filterUnits="objectBoundingBox"><feMorphology in="SourceAlpha" radius="1" result="shadowSpreadOuter1"/><feOffset dy="2" in="shadowSpreadOuter1" result="shadowOffsetOuter1"/><feGaussianBlur in="shadowOffsetOuter1" result="shadowBlurOuter1" stdDeviation="1"/><feColorMatrix in="shadowBlurOuter1" values="0 0 0 0 0 0 0 0 0 0 0 0 0 0 0 0 0 0 0.25 0"/></filter><filter id="t" width="106%" height="108.2%" x="-3%" y="-4.1%" filterUnits="objectBoundingBox"><feMorphology in="SourceAlpha" operator="dilate" radius="2" result="shadowSpreadInner1"/><feGaussianBlur in="shadowSpreadInner1" result="shadowBlurInner1" stdDeviation="1.5"/><feOffset dx="-2" dy="3" in="shadowBlurInner1" result="shadowOffsetInner1"/><feComposite in="shadowOffsetInner1" in2="SourceAlpha" k2="-1" k3="1" operator="arithmetic" result="shadowInnerInner1"/><feColorMatrix in="shadowInnerInner1" result="shadowMatrixInner1" values="0 0 0 0 0 0 0 0 0 0 0 0 0 0 0 0 0 0 0.25 0"/><feMorphology in="SourceAlpha" operator="dilate" radius="2" result="shadowSpreadInner2"/><feGaussianBlur in="shadowSpreadInner2" result="shadowBlurInner2" stdDeviation="1"/><feOffset dx="2" in="shadowBlurInner2" result="shadowOffsetInner2"/><feComposite in="shadowOffsetInner2" in2="SourceAlpha" k2="-1" k3="1" operator="arithmetic" result="shadowInnerInner2"/><feColorMatrix in="shadowInnerInner2" result="shadowMatrixInner2" values="0 0 0 0 0 0 0 0 0 0 0 0 0 0 0 0 0 0 0.25 0"/><feMorphology in="SourceAlpha" operator="dilate" radius="1" result="shadowSpreadInner3"/><feGaussianBlur in="shadowSpreadInner3" result="shadowBlurInner3" stdDeviation="1.5"/><feOffset dx="2" dy="-2" in="shadowBlurInner3" result="shadowOffsetInner3"/><feComposite in="shadowOffsetInner3" in2="SourceAlpha" k2="-1" k3="1" operator="arithmetic" result="shadowInnerInner3"/><feColorMatrix in="shadowInnerInner3" result="shadowMatrixInner3" values="0 0 0 0 1 0 0 0 0 1 0 0 0 0 1 0 0 0 0.353283435 0"/><feMorphology in="SourceAlpha" operator="dilate" radius="2" result="shadowSpreadInner4"/><feGaussianBlur in="shadowSpreadInner4" result="shadowBlurInner4" stdDeviation="1"/><feOffset dx="-1" dy="-1" in="shadowBlurInner4" result="shadowOffsetInner4"/><feComposite in="shadowOffsetInner4" in2="SourceAlpha" k2="-1" k3="1" operator="arithmetic" result="shadowInnerInner4"/><feColorMatrix in="shadowInnerInner4" result="shadowMatrixInner4" values="0 0 0 0 1 0 0 0 0 1 0 0 0 0 1 0 0 0 1 0"/><feMerge><feMergeNode in="shadowMatrixInner1"/><feMergeNode in="shadowMatrixInner2"/><feMergeNode in="shadowMatrixInner3"/><feMergeNode in="shadowMatrixInner4"/></feMerge></filter><filter id="v" width="114.5%" height="114.4%" x="-3.6%" y="-10.8%" filterUnits="objectBoundingBox"><feMorphology in="SourceAlpha" radius="1" result="shadowSpreadOuter1"/><feOffset dx="2" in="shadowSpreadOuter1" result="shadowOffsetOuter1"/><feGaussianBlur in="shadowOffsetOuter1" result="shadowBlurOuter1" stdDeviation="1"/><feColorMatrix in="shadowBlurOuter1" result="shadowMatrixOuter1" values="0 0 0 0 0 0 0 0 0 0 0 0 0 0 0 0 0 0 0.25 0"/><feMorphology in="SourceAlpha" radius="1.5" result="shadowSpreadOuter2"/><feOffset dy="-3" in="shadowSpreadOuter2" result="shadowOffsetOuter2"/><feGaussianBlur in="shadowOffsetOuter2" result="shadowBlurOuter2" stdDeviation="1"/><feColorMatrix in="shadowBlurOuter2" result="shadowMatrixOuter2" values="0 0 0 0 1 0 0 0 0 1 0 0 0 0 1 0 0 0 0.25 0"/><feMerge><feMergeNode in="shadowMatrixOuter1"/><feMergeNode in="shadowMatrixOuter2"/></feMerge></filter><filter id="w" width="118.1%" height="118%" x="-5.4%" y="-12.6%" filterUnits="objectBoundingBox"><feMorphology in="SourceAlpha" operator="dilate" radius="3" result="shadowSpreadInner1"/><feGaussianBlur in="shadowSpreadInner1" result="shadowBlurInner1" stdDeviation="1.5"/><feOffset dx="2" in="shadowBlurInner1" result="shadowOffsetInner1"/><feComposite in="shadowOffsetInner1" in2="SourceAlpha" k2="-1" k3="1" operator="arithmetic" result="shadowInnerInner1"/><feColorMatrix in="shadowInnerInner1" result="shadowMatrixInner1" values="0 0 0 0 0 0 0 0 0 0 0 0 0 0 0 0 0 0 0.5 0"/><feMorphology in="SourceAlpha" operator="dilate" radius="4" result="shadowSpreadInner2"/><feGaussianBlur in="shadowSpreadInner2" result="shadowBlurInner2" stdDeviation="1.5"/><feOffset dy="3" in="shadowBlurInner2" result="shadowOffsetInner2"/><feComposite in="shadowOffsetInner2" in2="SourceAlpha" k2="-1" k3="1" operator="arithmetic" result="shadowInnerInner2"/><feColorMatrix in="shadowInnerInner2" result="shadowMatrixInner2" values="0 0 0 0 0 0 0 0 0 0 0 0 0 0 0 0 0 0 0.3 0"/><feMorphology in="SourceAlpha" operator="dilate" radius="2" result="shadowSpreadInner3"/><feGaussianBlur in="shadowSpreadInner3" result="shadowBlurInner3" stdDeviation="1.5"/><feOffset dy="-2" in="shadowBlurInner3" result="shadowOffsetInner3"/><feComposite in="shadowOffsetInner3" in2="SourceAlpha" k2="-1" k3="1" operator="arithmetic" result="shadowInnerInner3"/><feColorMatrix in="shadowInnerInner3" result="shadowMatrixInner3" values="0 0 0 0 1 0 0 0 0 1 0 0 0 0 1 0 0 0 1 0"/><feMerge><feMergeNode in="shadowMatrixInner1"/><feMergeNode in="shadowMatrixInner2"/><feMergeNode in="shadowMatrixInner3"/></feMerge></filter><filter id="y" width="107.2%" height="107.2%" x="-3.6%" y="-3.6%" filterUnits="objectBoundingBox"><feMorphology in="SourceAlpha" operator="dilate" radius="2" result="shadowSpreadInner1"/><feGaussianBlur in="shadowSpreadInner1" result="shadowBlurInner1" stdDeviation="1.5"/><feOffset dx="1" dy="1" in="shadowBlurInner1" result="shadowOffsetInner1"/><feComposite in="shadowOffsetInner1" in2="SourceAlpha" k2="-1" k3="1" operator="arithmetic" result="shadowInnerInner1"/><feColorMatrix in="shadowInnerInner1" result="shadowMatrixInner1" values="0 0 0 0 0 0 0 0 0 0 0 0 0 0 0 0 0 0 0.5 0"/><feMorphology in="SourceAlpha" operator="dilate" radius="3" result="shadowSpreadInner2"/><feGaussianBlur in="shadowSpreadInner2" result="shadowBlurInner2" stdDeviation="1.5"/><feOffset dy="-2" in="shadowBlurInner2" result="shadowOffsetInner2"/><feComposite in="shadowOffsetInner2" in2="SourceAlpha" k2="-1" k3="1" operator="arithmetic" result="shadowInnerInner2"/><feColorMatrix in="shadowInnerInner2" result="shadowMatrixInner2" values="0 0 0 0 1 0 0 0 0 1 0 0 0 0 1 0 0 0 1 0"/><feMerge><feMergeNode in="shadowMatrixInner1"/><feMergeNode in="shadowMatrixInner2"/></feMerge></filter><filter id="A" width="116.5%" height="110.6%" x="-7.2%" y="-3.3%" filterUnits="objectBoundingBox"><feMorphology in="SourceAlpha" radius=".5" result="shadowSpreadOuter1"/><feOffset dy="2" in="shadowSpreadOuter1" result="shadowOffsetOuter1"/><feGaussianBlur in="shadowOffsetOuter1" result="shadowBlurOuter1" stdDeviation="1"/><feColorMatrix in="shadowBlurOuter1" values="0 0 0 0 0 0 0 0 0 0.51372549 0 0 0 0 0.176470588 0 0 0 0.294607736 0"/></filter><filter id="B" width="127.6%" height="117.2%" x="-12.8%" y="-6.6%" filterUnits="objectBoundingBox"><feMorphology in="SourceAlpha" operator="dilate" radius="2" result="shadowSpreadInner1"/><feGaussianBlur in="shadowSpreadInner1" result="shadowBlurInner1" stdDeviation="1.5"/><feOffset dx="-2" dy="5" in="shadowBlurInner1" result="shadowOffsetInner1"/><feComposite in="shadowOffsetInner1" in2="SourceAlpha" k2="-1" k3="1" operator="arithmetic" result="shadowInnerInner1"/><feColorMatrix in="shadowInnerInner1" result="shadowMatrixInner1" values="0 0 0 0 0 0 0 0 0 0 0 0 0 0 0 0 0 0 0.3 0"/><feMorphology in="SourceAlpha" operator="dilate" radius="2" result="shadowSpreadInner2"/><feGaussianBlur in="shadowSpreadInner2" result="shadowBlurInner2" stdDeviation="2"/><feOffset dy="-1" in="shadowBlurInner2" result="shadowOffsetInner2"/><feComposite in="shadowOffsetInner2" in2="SourceAlpha" k2="-1" k3="1" operator="arithmetic" result="shadowInnerInner2"/><feColorMatrix in="shadowInnerInner2" result="shadowMatrixInner2" values="0 0 0 0 1 0 0 0 0 1 0 0 0 0 1 0 0 0 1 0"/><feMerge><feMergeNode in="shadowMatrixInner1"/><feMergeNode in="shadowMatrixInner2"/></feMerge></filter><path id="a" d="M306,120 C419.770658,120 512,212.229342 512,326 C512,439.770658 419.770658,532 306,532 C192.229342,532 100,439.770658 100,326 C100,212.229342 192.229342,120 306,120 Z"/><path id="e" d="M231.843717,359.870911 C231.843717,370.967102 233.586744,380.87071 237.072797,389.581734 C240.558851,398.292758 245.438093,405.689962 251.710523,411.773346 C257.982953,417.85673 265.36603,422.493243 273.859754,425.682884 C282.353478,428.872526 291.61366,430.467346 301.640302,430.467346 C316.722903,430.467346 329.333005,427.396629 339.470609,421.255196 C349.608213,415.113762 358.019742,405.895447 364.705198,393.60025 C367.0467,389.737132 369.231776,385.60714 371.260427,381.210274 C373.289078,376.813408 375.180054,372.257034 376.933355,367.541153 C378.686656,362.825272 380.334389,358.075999 381.876554,353.293335 C383.418719,348.510671 384.90078,343.828695 386.322736,339.247406 C387.297763,336.159993 388.31928,332.909734 389.387288,329.496628 C390.455297,326.083522 391.391795,322.91109 392.196782,319.979332 C393.00177,317.047574 393.452553,314.714549 393.549131,312.980255 C393.729958,310.072642 392.952197,307.649203 391.215848,305.709938 C389.4795,303.770673 387.118991,302.710627 384.134321,302.5298 C380.81471,302.313014 377.986979,303.232559 375.651128,305.288437 C373.315277,307.344315 371.069069,310.597656 368.912504,315.048462 L355.093122,344.609024 C354.483859,346.090571 353.820913,347.130068 353.104284,347.727516 C352.387655,348.324964 351.658953,348.623688 350.91818,348.623688 C349.975004,348.623688 349.21214,348.308525 348.62959,347.6782 C348.04704,347.047874 347.755765,345.932348 347.755765,344.331619 L347.755765,240.070572 C347.755765,236.912267 346.65976,234.234027 344.467748,232.035851 C342.275737,229.837674 339.600578,228.738586 336.442273,228.738586 C333.307599,228.738586 330.641431,229.8405 328.443769,232.044327 C326.246107,234.248154 325.147275,236.923569 325.147275,240.070572 L325.147275,315.852936 C323.838336,315.362854 322.50294,314.929794 321.141088,314.553757 C319.779236,314.177719 318.357023,313.85819 316.874448,313.595169 L316.874448,226.084747 C316.874448,222.871989 315.778699,220.169604 313.587201,217.977592 C311.395704,215.785581 308.720802,214.689575 305.562497,214.689575 C302.362068,214.689575 299.665848,215.785581 297.473836,217.977592 C295.281825,220.169604 294.185819,222.871989 294.185819,226.084747 L294.185819,312.527161 C292.770027,312.647369 291.32444,312.79686 289.849058,312.975632 C288.373675,313.154404 286.927574,313.363485 285.510755,313.602875 L285.510755,234.323669 C285.510755,231.188995 284.411924,228.519745 282.214261,226.315918 C280.016599,224.112091 277.34478,223.010178 274.198804,223.010178 C271.06413,223.010178 268.39488,224.112091 266.191053,226.315918 C263.987226,228.519745 262.885312,231.188995 262.885312,234.323669 L262.885312,320.363846 C261.361641,321.080989 259.902184,321.830752 258.50694,322.613136 C257.111697,323.395521 255.792997,324.177648 254.55084,324.959518 L254.55084,265.070908 C254.55084,261.911575 253.451752,259.233078 251.253576,257.035416 C249.0554,254.837753 246.389488,253.738922 243.255842,253.738922 C240.055412,253.738922 237.353284,254.837753 235.149457,257.035416 C232.94563,259.233078 231.843717,261.911575 231.843717,265.070908 L231.843717,359.870911 Z"/><path id="h" d="M46.1499336,-7.10542736e-15 L118.850066,3.62733656e-15 C134.897404,-2.107587e-15 140.716556,1.670861 146.583223,4.80838867 C152.449889,7.94591634 157.054084,12.5501107 160.191611,18.4167773 C163.329139,24.283444 165,30.1025963 165,46.1499336 L165,118.850066 C165,134.897404 163.329139,140.716556 160.191611,146.583223 C157.054084,152.449889 152.449889,157.054084 146.583223,160.191611 C140.716556,163.329139 134.897404,165 118.850066,165 L46.1499336,165 C30.1025963,165 24.283444,163.329139 18.4167773,160.191611 C12.5501107,157.054084 7.94591634,152.449889 4.80838867,146.583223 C1.670861,140.716556 -7.10542736e-15,134.897404 -7.10542736e-15,118.850066 L0,46.1499336 C0,30.1025963 1.670861,24.283444 4.80838867,18.4167773 C7.94591634,12.5501107 12.5501107,7.94591634 18.4167773,4.80838867 C24.283444,1.670861 30.1025963,-7.10542736e-15 46.1499336,-7.10542736e-15 Z"/><path id="n" d="M111.51444,11.7322209 L93.8287358,26.2488167 L93.8287358,71.7449636 L111.595443,86.3291414 C114.255049,88.4106644 118.143204,86.5116126 118.143204,83.1257585 L118.143204,14.8680218 C118.143204,11.4416186 114.167296,9.56284132 111.51444,11.7322209 Z"/><path id="p" d="M66.8276608,48.6589806 L66.8276608,69.609375 L27.6761019,69.609375 L27.6761019,97.3179612 L85.7284133,97.3179612 C90.2038415,97.3179612 93.8287358,93.6888122 93.8287358,89.2081311 L93.8287358,71.7449636 L66.8276608,48.6589806 Z"/><path id="r" d="M85.7284133,0 L27.6761019,0 L27.6761019,27.7085862 L66.8276608,27.7085862 L66.8276608,48.6589806 L93.8287358,26.2623331 L93.8287358,8.1098301 C93.8287358,3.62914897 90.2038415,0 85.7284133,0 Z"/><path id="u" d="M0,69.609375 L0,89.2081311 C0,93.6888122 3.62489433,97.3179612 8.10032252,97.3179612 L27.6761019,97.3179612 L27.6761019,69.609375 L0,69.609375 Z"/><linearGradient id="c" x1="0%" x2="0%" y1="0%" y2="98.776%"><stop offset="0%" stop-color="#DBDBDB"/><stop offset="100%" stop-color="#B5B5B5"/></linearGradient><linearGradient id="g" x1="50%" x2="50%" y1="0%" y2="100%"><stop offset="0%" stop-color="#3A3A3A"/><stop offset="100%" stop-color="#1E1E1E"/></linearGradient><linearGradient id="j" x1="0%" x2="0%" y1="100%" y2="0%"><stop offset="0%" stop-color="#D1D0D0"/><stop offset="100%" stop-color="#FFF"/></linearGradient><polygon id="l" points="27.676 27.709 0 27.709 0 69.609 27.676 69.609"/><polygon id="x" points="27.676 0 0 27.709 27.676 27.709"/><polygon id="z" points="66.828 48.659 93.829 71.745 93.829 26.249"/></defs><g fill="none" fill-rule="evenodd"><g fill-rule="nonzero"><use xlink:href="#a" fill="#000" filter="url(#b)"/><use xlink:href="#a" fill="url(#c)"/><use xlink:href="#a" fill="#000" filter="url(#d)"/><use xlink:href="#a" stroke="#FFF" stroke-width="2"/></g><g fill-rule="nonzero"><use xlink:href="#e" fill="#000" filter="url(#f)"/><use xlink:href="#e" fill="#2E2E2E"/><use xlink:href="#e" fill="url(#g)"/></g><g fill-rule="nonzero" transform="translate(388 387)"><use xlink:href="#h" fill="#000" filter="url(#i)"/><use xlink:href="#h" fill="url(#j)"/><use xlink:href="#h" fill="#000" filter="url(#k)"/><g transform="translate(23.629 33.64)"><use xlink:href="#l" fill="#2684FC"/><use xlink:href="#l" fill="#000" filter="url(#m)"/><use xlink:href="#n" fill="#00AC47"/><use xlink:href="#n" fill="#000" filter="url(#o)"/><use xlink:href="#p" fill="#00AC47"/><use xlink:href="#p" fill="#000" filter="url(#q)"/><use xlink:href="#r" fill="#000" filter="url(#s)"/><use xlink:href="#r" fill="#FBBC04"/><use xlink:href="#r" fill="#000" filter="url(#t)"/><use xlink:href="#u" fill="#000" filter="url(#v)"/><use xlink:href="#u" fill="#0066DA"/><use xlink:href="#u" fill="#000" filter="url(#w)"/><use xlink:href="#x" fill="#EA4335"/><use xlink:href="#x" fill="#000" filter="url(#y)"/><use xlink:href="#z" fill="#000" filter="url(#A)"/><use xlink:href="#z" fill="#00832D"/><use xlink:href="#z" fill="#000" filter="url(#B)"/></g></g></g></svg>