<svg xmlns="http://www.w3.org/2000/svg" xmlns:xlink="http://www.w3.org/1999/xlink" width="612" height="612" viewBox="0 0 612 612"><defs><filter id="b" width="115%" height="115%" x="-7.5%" y="-7.5%" filterUnits="objectBoundingBox"><feMorphology in="SourceAlpha" radius="9" result="shadowSpreadOuter1"/><feOffset in="shadowSpreadOuter1" result="shadowOffsetOuter1"/><feGaussianBlur in="shadowOffsetOuter1" result="shadowBlurOuter1" stdDeviation="20"/><feComposite in="shadowBlurOuter1" in2="SourceAlpha" operator="out" result="shadowBlurOuter1"/><feColorMatrix in="shadowBlurOuter1" values="0 0 0 0 1 0 0 0 0 1 0 0 0 0 1 0 0 0 0.5 0"/></filter><filter id="d" width="111.2%" height="111.2%" x="-5.6%" y="-5.6%" filterUnits="objectBoundingBox"><feMorphology in="SourceAlpha" operator="dilate" radius="1" result="shadowSpreadInner1"/><feGaussianBlur in="shadowSpreadInner1" result="shadowBlurInner1" stdDeviation="1.5"/><feOffset dx="-1" dy="-2" in="shadowBlurInner1" result="shadowOffsetInner1"/><feComposite in="shadowOffsetInner1" in2="SourceAlpha" k2="-1" k3="1" operator="arithmetic" result="shadowInnerInner1"/><feColorMatrix in="shadowInnerInner1" result="shadowMatrixInner1" values="0 0 0 0 0 0 0 0 0 0 0 0 0 0 0 0 0 0 0.1 0"/><feMorphology in="SourceAlpha" operator="dilate" radius="1" result="shadowSpreadInner2"/><feGaussianBlur in="shadowSpreadInner2" result="shadowBlurInner2" stdDeviation="1.5"/><feOffset dx="2" dy="2" in="shadowBlurInner2" result="shadowOffsetInner2"/><feComposite in="shadowOffsetInner2" in2="SourceAlpha" k2="-1" k3="1" operator="arithmetic" result="shadowInnerInner2"/><feColorMatrix in="shadowInnerInner2" result="shadowMatrixInner2" values="0 0 0 0 1 0 0 0 0 1 0 0 0 0 1 0 0 0 0.1 0"/><feMerge><feMergeNode in="shadowMatrixInner1"/><feMergeNode in="shadowMatrixInner2"/></feMerge></filter><filter id="f" width="104.6%" height="105.8%" x="-2.3%" y="-2.9%" filterUnits="objectBoundingBox"><feOffset in="SourceAlpha" result="shadowOffsetOuter1"/><feGaussianBlur in="shadowOffsetOuter1" result="shadowBlurOuter1" stdDeviation="2"/><feColorMatrix in="shadowBlurOuter1" values="0 0 0 0 0.552677763 0 0 0 0 0.552677763 0 0 0 0 0.552677763 0 0 0 0.5 0"/></filter><filter id="i" width="114.5%" height="114.5%" x="-7.3%" y="-7.3%" filterUnits="objectBoundingBox"><feMorphology in="SourceAlpha" radius="4" result="shadowSpreadOuter1"/><feOffset in="shadowSpreadOuter1" result="shadowOffsetOuter1"/><feGaussianBlur in="shadowOffsetOuter1" result="shadowBlurOuter1" stdDeviation="8"/><feColorMatrix in="shadowBlurOuter1" values="0 0 0 0 1 0 0 0 0 1 0 0 0 0 1 0 0 0 0.5 0"/></filter><filter id="k" width="110.9%" height="110.9%" x="-5.5%" y="-5.5%" filterUnits="objectBoundingBox"><feGaussianBlur in="SourceAlpha" result="shadowBlurInner1" stdDeviation=".5"/><feOffset dy="-1" in="shadowBlurInner1" result="shadowOffsetInner1"/><feComposite in="shadowOffsetInner1" in2="SourceAlpha" k2="-1" k3="1" operator="arithmetic" result="shadowInnerInner1"/><feColorMatrix in="shadowInnerInner1" result="shadowMatrixInner1" values="0 0 0 0 0 0 0 0 0 0 0 0 0 0 0 0 0 0 0.1 0"/><feGaussianBlur in="SourceAlpha" result="shadowBlurInner2" stdDeviation=".5"/><feOffset dx="1" dy="1" in="shadowBlurInner2" result="shadowOffsetInner2"/><feComposite in="shadowOffsetInner2" in2="SourceAlpha" k2="-1" k3="1" operator="arithmetic" result="shadowInnerInner2"/><feColorMatrix in="shadowInnerInner2" result="shadowMatrixInner2" values="0 0 0 0 1 0 0 0 0 1 0 0 0 0 1 0 0 0 0.1 0"/><feMerge><feMergeNode in="shadowMatrixInner1"/><feMergeNode in="shadowMatrixInner2"/></feMerge></filter><filter id="m" width="107.2%" height="104.8%" x="-3.6%" y="-2.4%" filterUnits="objectBoundingBox"><feMorphology in="SourceAlpha" operator="dilate" radius="2" result="shadowSpreadInner1"/><feGaussianBlur in="shadowSpreadInner1" result="shadowBlurInner1" stdDeviation="1.5"/><feOffset dx="1" dy="1" in="shadowBlurInner1" result="shadowOffsetInner1"/><feComposite in="shadowOffsetInner1" in2="SourceAlpha" k2="-1" k3="1" operator="arithmetic" result="shadowInnerInner1"/><feColorMatrix in="shadowInnerInner1" result="shadowMatrixInner1" values="0 0 0 0 0 0 0 0 0 0 0 0 0 0 0 0 0 0 0.5 0"/><feMorphology in="SourceAlpha" operator="dilate" radius="3" result="shadowSpreadInner2"/><feGaussianBlur in="shadowSpreadInner2" result="shadowBlurInner2" stdDeviation="1.5"/><feOffset dx="-2" dy="-1" in="shadowBlurInner2" result="shadowOffsetInner2"/><feComposite in="shadowOffsetInner2" in2="SourceAlpha" k2="-1" k3="1" operator="arithmetic" result="shadowInnerInner2"/><feColorMatrix in="shadowInnerInner2" result="shadowMatrixInner2" values="0 0 0 0 1 0 0 0 0 1 0 0 0 0 1 0 0 0 1 0"/><feMerge><feMergeNode in="shadowMatrixInner1"/><feMergeNode in="shadowMatrixInner2"/></feMerge></filter><filter id="o" width="124.7%" height="107.9%" x="-12.3%" y="-3.9%" filterUnits="objectBoundingBox"><feMorphology in="SourceAlpha" radius="1" result="shadowSpreadInner1"/><feGaussianBlur in="shadowSpreadInner1" result="shadowBlurInner1" stdDeviation="1.5"/><feOffset dx="-2" dy="2" in="shadowBlurInner1" result="shadowOffsetInner1"/><feComposite in="shadowOffsetInner1" in2="SourceAlpha" k2="-1" k3="1" operator="arithmetic" result="shadowInnerInner1"/><feColorMatrix in="shadowInnerInner1" result="shadowMatrixInner1" values="0 0 0 0 0 0 0 0 0 0 0 0 0 0 0 0 0 0 0.25 0"/><feMorphology in="SourceAlpha" operator="dilate" radius="1" result="shadowSpreadInner2"/><feGaussianBlur in="shadowSpreadInner2" result="shadowBlurInner2" stdDeviation="1.5"/><feOffset dx="1" dy="-2" in="shadowBlurInner2" result="shadowOffsetInner2"/><feComposite in="shadowOffsetInner2" in2="SourceAlpha" k2="-1" k3="1" operator="arithmetic" result="shadowInnerInner2"/><feColorMatrix in="shadowInnerInner2" result="shadowMatrixInner2" values="0 0 0 0 1 0 0 0 0 1 0 0 0 0 1 0 0 0 0.675480769 0"/><feMerge><feMergeNode in="shadowMatrixInner1"/><feMergeNode in="shadowMatrixInner2"/></feMerge></filter><filter id="q" width="104.5%" height="106.2%" x="-2.3%" y="-3.1%" filterUnits="objectBoundingBox"><feMorphology in="SourceAlpha" operator="dilate" radius="2" result="shadowSpreadInner1"/><feGaussianBlur in="shadowSpreadInner1" result="shadowBlurInner1" stdDeviation="1.5"/><feOffset dy="2" in="shadowBlurInner1" result="shadowOffsetInner1"/><feComposite in="shadowOffsetInner1" in2="SourceAlpha" k2="-1" k3="1" operator="arithmetic" result="shadowInnerInner1"/><feColorMatrix in="shadowInnerInner1" result="shadowMatrixInner1" values="0 0 0 0 0 0 0 0 0 0 0 0 0 0 0 0 0 0 0.25 0"/><feMorphology in="SourceAlpha" operator="dilate" radius="2" result="shadowSpreadInner2"/><feGaussianBlur in="shadowSpreadInner2" result="shadowBlurInner2" stdDeviation="1.5"/><feOffset dx="1" dy="-2" in="shadowBlurInner2" result="shadowOffsetInner2"/><feComposite in="shadowOffsetInner2" in2="SourceAlpha" k2="-1" k3="1" operator="arithmetic" result="shadowInnerInner2"/><feColorMatrix in="shadowInnerInner2" result="shadowMatrixInner2" values="0 0 0 0 1 0 0 0 0 1 0 0 0 0 1 0 0 0 0.7 0"/><feMerge><feMergeNode in="shadowMatrixInner1"/><feMergeNode in="shadowMatrixInner2"/></feMerge></filter><filter id="s" width="103%" height="104.1%" x="-1.5%" y="-2.1%" filterUnits="objectBoundingBox"><feMorphology in="SourceAlpha" radius="1" result="shadowSpreadOuter1"/><feOffset dy="2" in="shadowSpreadOuter1" result="shadowOffsetOuter1"/><feGaussianBlur in="shadowOffsetOuter1" result="shadowBlurOuter1" stdDeviation="1"/><feColorMatrix in="shadowBlurOuter1" values="0 0 0 0 0 0 0 0 0 0 0 0 0 0 0 0 0 0 0.25 0"/></filter><filter id="t" width="106%" height="108.2%" x="-3%" y="-4.1%" filterUnits="objectBoundingBox"><feMorphology in="SourceAlpha" operator="dilate" radius="2" result="shadowSpreadInner1"/><feGaussianBlur in="shadowSpreadInner1" result="shadowBlurInner1" stdDeviation="1.5"/><feOffset dx="-2" dy="3" in="shadowBlurInner1" result="shadowOffsetInner1"/><feComposite in="shadowOffsetInner1" in2="SourceAlpha" k2="-1" k3="1" operator="arithmetic" result="shadowInnerInner1"/><feColorMatrix in="shadowInnerInner1" result="shadowMatrixInner1" values="0 0 0 0 0 0 0 0 0 0 0 0 0 0 0 0 0 0 0.25 0"/><feMorphology in="SourceAlpha" operator="dilate" radius="2" result="shadowSpreadInner2"/><feGaussianBlur in="shadowSpreadInner2" result="shadowBlurInner2" stdDeviation="1"/><feOffset dx="2" in="shadowBlurInner2" result="shadowOffsetInner2"/><feComposite in="shadowOffsetInner2" in2="SourceAlpha" k2="-1" k3="1" operator="arithmetic" result="shadowInnerInner2"/><feColorMatrix in="shadowInnerInner2" result="shadowMatrixInner2" values="0 0 0 0 0 0 0 0 0 0 0 0 0 0 0 0 0 0 0.25 0"/><feMorphology in="SourceAlpha" operator="dilate" radius="1" result="shadowSpreadInner3"/><feGaussianBlur in="shadowSpreadInner3" result="shadowBlurInner3" stdDeviation="1.5"/><feOffset dx="2" dy="-2" in="shadowBlurInner3" result="shadowOffsetInner3"/><feComposite in="shadowOffsetInner3" in2="SourceAlpha" k2="-1" k3="1" operator="arithmetic" result="shadowInnerInner3"/><feColorMatrix in="shadowInnerInner3" result="shadowMatrixInner3" values="0 0 0 0 1 0 0 0 0 1 0 0 0 0 1 0 0 0 0.353283435 0"/><feMorphology in="SourceAlpha" operator="dilate" radius="2" result="shadowSpreadInner4"/><feGaussianBlur in="shadowSpreadInner4" result="shadowBlurInner4" stdDeviation="1"/><feOffset dx="-1" dy="-1" in="shadowBlurInner4" result="shadowOffsetInner4"/><feComposite in="shadowOffsetInner4" in2="SourceAlpha" k2="-1" k3="1" operator="arithmetic" result="shadowInnerInner4"/><feColorMatrix in="shadowInnerInner4" result="shadowMatrixInner4" values="0 0 0 0 1 0 0 0 0 1 0 0 0 0 1 0 0 0 1 0"/><feMerge><feMergeNode in="shadowMatrixInner1"/><feMergeNode in="shadowMatrixInner2"/><feMergeNode in="shadowMatrixInner3"/><feMergeNode in="shadowMatrixInner4"/></feMerge></filter><filter id="v" width="114.5%" height="114.4%" x="-3.6%" y="-10.8%" filterUnits="objectBoundingBox"><feMorphology in="SourceAlpha" radius="1" result="shadowSpreadOuter1"/><feOffset dx="2" in="shadowSpreadOuter1" result="shadowOffsetOuter1"/><feGaussianBlur in="shadowOffsetOuter1" result="shadowBlurOuter1" stdDeviation="1"/><feColorMatrix in="shadowBlurOuter1" result="shadowMatrixOuter1" values="0 0 0 0 0 0 0 0 0 0 0 0 0 0 0 0 0 0 0.25 0"/><feMorphology in="SourceAlpha" radius="1.5" result="shadowSpreadOuter2"/><feOffset dy="-3" in="shadowSpreadOuter2" result="shadowOffsetOuter2"/><feGaussianBlur in="shadowOffsetOuter2" result="shadowBlurOuter2" stdDeviation="1"/><feColorMatrix in="shadowBlurOuter2" result="shadowMatrixOuter2" values="0 0 0 0 1 0 0 0 0 1 0 0 0 0 1 0 0 0 0.25 0"/><feMerge><feMergeNode in="shadowMatrixOuter1"/><feMergeNode in="shadowMatrixOuter2"/></feMerge></filter><filter id="w" width="118.1%" height="118%" x="-5.4%" y="-12.6%" filterUnits="objectBoundingBox"><feMorphology in="SourceAlpha" operator="dilate" radius="3" result="shadowSpreadInner1"/><feGaussianBlur in="shadowSpreadInner1" result="shadowBlurInner1" stdDeviation="1.5"/><feOffset dx="2" in="shadowBlurInner1" result="shadowOffsetInner1"/><feComposite in="shadowOffsetInner1" in2="SourceAlpha" k2="-1" k3="1" operator="arithmetic" result="shadowInnerInner1"/><feColorMatrix in="shadowInnerInner1" result="shadowMatrixInner1" values="0 0 0 0 0 0 0 0 0 0 0 0 0 0 0 0 0 0 0.5 0"/><feMorphology in="SourceAlpha" operator="dilate" radius="4" result="shadowSpreadInner2"/><feGaussianBlur in="shadowSpreadInner2" result="shadowBlurInner2" stdDeviation="1.5"/><feOffset dy="3" in="shadowBlurInner2" result="shadowOffsetInner2"/><feComposite in="shadowOffsetInner2" in2="SourceAlpha" k2="-1" k3="1" operator="arithmetic" result="shadowInnerInner2"/><feColorMatrix in="shadowInnerInner2" result="shadowMatrixInner2" values="0 0 0 0 0 0 0 0 0 0 0 0 0 0 0 0 0 0 0.3 0"/><feMorphology in="SourceAlpha" operator="dilate" radius="2" result="shadowSpreadInner3"/><feGaussianBlur in="shadowSpreadInner3" result="shadowBlurInner3" stdDeviation="1.5"/><feOffset dy="-2" in="shadowBlurInner3" result="shadowOffsetInner3"/><feComposite in="shadowOffsetInner3" in2="SourceAlpha" k2="-1" k3="1" operator="arithmetic" result="shadowInnerInner3"/><feColorMatrix in="shadowInnerInner3" result="shadowMatrixInner3" values="0 0 0 0 1 0 0 0 0 1 0 0 0 0 1 0 0 0 1 0"/><feMerge><feMergeNode in="shadowMatrixInner1"/><feMergeNode in="shadowMatrixInner2"/><feMergeNode in="shadowMatrixInner3"/></feMerge></filter><filter id="y" width="107.2%" height="107.2%" x="-3.6%" y="-3.6%" filterUnits="objectBoundingBox"><feMorphology in="SourceAlpha" operator="dilate" radius="2" result="shadowSpreadInner1"/><feGaussianBlur in="shadowSpreadInner1" result="shadowBlurInner1" stdDeviation="1.5"/><feOffset dx="1" dy="1" in="shadowBlurInner1" result="shadowOffsetInner1"/><feComposite in="shadowOffsetInner1" in2="SourceAlpha" k2="-1" k3="1" operator="arithmetic" result="shadowInnerInner1"/><feColorMatrix in="shadowInnerInner1" result="shadowMatrixInner1" values="0 0 0 0 0 0 0 0 0 0 0 0 0 0 0 0 0 0 0.5 0"/><feMorphology in="SourceAlpha" operator="dilate" radius="3" result="shadowSpreadInner2"/><feGaussianBlur in="shadowSpreadInner2" result="shadowBlurInner2" stdDeviation="1.5"/><feOffset dy="-2" in="shadowBlurInner2" result="shadowOffsetInner2"/><feComposite in="shadowOffsetInner2" in2="SourceAlpha" k2="-1" k3="1" operator="arithmetic" result="shadowInnerInner2"/><feColorMatrix in="shadowInnerInner2" result="shadowMatrixInner2" values="0 0 0 0 1 0 0 0 0 1 0 0 0 0 1 0 0 0 1 0"/><feMerge><feMergeNode in="shadowMatrixInner1"/><feMergeNode in="shadowMatrixInner2"/></feMerge></filter><filter id="A" width="116.5%" height="110.6%" x="-7.2%" y="-3.3%" filterUnits="objectBoundingBox"><feMorphology in="SourceAlpha" radius=".5" result="shadowSpreadOuter1"/><feOffset dy="2" in="shadowSpreadOuter1" result="shadowOffsetOuter1"/><feGaussianBlur in="shadowOffsetOuter1" result="shadowBlurOuter1" stdDeviation="1"/><feColorMatrix in="shadowBlurOuter1" values="0 0 0 0 0 0 0 0 0 0.51372549 0 0 0 0 0.176470588 0 0 0 0.294607736 0"/></filter><filter id="B" width="127.6%" height="117.2%" x="-12.8%" y="-6.6%" filterUnits="objectBoundingBox"><feMorphology in="SourceAlpha" operator="dilate" radius="2" result="shadowSpreadInner1"/><feGaussianBlur in="shadowSpreadInner1" result="shadowBlurInner1" stdDeviation="1.5"/><feOffset dx="-2" dy="5" in="shadowBlurInner1" result="shadowOffsetInner1"/><feComposite in="shadowOffsetInner1" in2="SourceAlpha" k2="-1" k3="1" operator="arithmetic" result="shadowInnerInner1"/><feColorMatrix in="shadowInnerInner1" result="shadowMatrixInner1" values="0 0 0 0 0 0 0 0 0 0 0 0 0 0 0 0 0 0 0.3 0"/><feMorphology in="SourceAlpha" operator="dilate" radius="2" result="shadowSpreadInner2"/><feGaussianBlur in="shadowSpreadInner2" result="shadowBlurInner2" stdDeviation="2"/><feOffset dy="-1" in="shadowBlurInner2" result="shadowOffsetInner2"/><feComposite in="shadowOffsetInner2" in2="SourceAlpha" k2="-1" k3="1" operator="arithmetic" result="shadowInnerInner2"/><feColorMatrix in="shadowInnerInner2" result="shadowMatrixInner2" values="0 0 0 0 1 0 0 0 0 1 0 0 0 0 1 0 0 0 1 0"/><feMerge><feMergeNode in="shadowMatrixInner1"/><feMergeNode in="shadowMatrixInner2"/></feMerge></filter><path id="a" d="M306,120 C419.770658,120 512,212.229342 512,326 C512,439.770658 419.770658,532 306,532 C192.229342,532 100,439.770658 100,326 C100,212.229342 192.229342,120 306,120 Z"/><path id="e" d="M246.475098,420.573242 C235.230957,420.573242 226.617025,417.548503 220.633301,411.499023 C214.649577,405.449544 211.657715,396.802734 211.657715,385.558594 L211.657715,266.311523 C211.657715,255.001628 214.649577,246.338379 220.633301,240.321777 C226.617025,234.305176 235.230957,231.296875 246.475098,231.296875 L365.42627,231.296875 C376.67041,231.296875 385.284342,234.305176 391.268066,240.321777 C397.25179,246.338379 400.243652,255.001628 400.243652,266.311523 L400.243652,338.806641 L374.796387,338.806641 L374.796387,269.566406 C374.796387,265.489583 373.760742,262.497721 371.689453,260.59082 C369.618164,258.683919 366.609863,257.730469 362.664551,257.730469 L249.236816,257.730469 C245.291504,257.730469 242.283203,258.683919 240.211914,260.59082 C238.140625,262.497721 237.10498,265.489583 237.10498,269.566406 L237.10498,382.205078 C237.10498,385.690104 237.861165,388.369629 239.373535,390.243652 C240.885905,392.117676 243.121582,393.284831 246.080566,393.745117 C248.316243,388.747721 251.406738,384.210612 255.352051,380.133789 C259.297363,376.056966 263.900228,372.539063 269.160645,369.580078 C274.421061,366.621094 280.158203,364.3361 286.37207,362.725098 C292.585938,361.114095 299.112142,360.308594 305.950684,360.308594 C310.553548,360.308594 315.008464,360.686686 319.31543,361.442871 C323.622396,362.199056 327.748535,363.267578 331.693848,364.648438 C331.496582,365.766276 331.332194,366.916992 331.200684,368.100586 C331.069173,369.28418 331.003418,370.500651 331.003418,371.75 L331.003418,420.573242 L246.475098,420.573242 Z M305.950684,345.513672 C299.638184,345.513672 293.966797,343.902669 288.936523,340.680664 C283.90625,337.458659 279.911621,333.102376 276.952637,327.611816 C273.993652,322.121257 272.51416,315.923828 272.51416,309.019531 C272.51416,302.641276 273.993652,296.723307 276.952637,291.265625 C279.911621,285.807943 283.922689,281.435221 288.98584,278.147461 C294.048991,274.859701 299.703939,273.21582 305.950684,273.21582 C312.197428,273.21582 317.852376,274.859701 322.915527,278.147461 C327.978678,281.435221 331.989746,285.807943 334.94873,291.265625 C337.907715,296.723307 339.387207,302.641276 339.387207,309.019531 C339.387207,315.923828 337.924154,322.137695 334.998047,327.661133 C332.07194,333.18457 328.077311,337.557292 323.01416,340.779297 C317.951009,344.001302 312.263184,345.579427 305.950684,345.513672 Z M364.242676,437.932617 C358.456217,437.932617 353.951986,436.51888 350.72998,433.691406 C347.507975,430.863932 345.896973,426.589844 345.896973,420.869141 L345.896973,371.848633 C345.896973,366.12793 347.524414,361.689453 350.779297,358.533203 C354.03418,355.376953 358.521973,353.798828 364.242676,353.798828 L415.630371,353.798828 C421.54834,353.798828 426.052572,355.376953 429.143066,358.533203 C432.233561,361.689453 433.778809,366.12793 433.778809,371.848633 L433.778809,419.981445 C433.778809,425.702148 432.184245,430.124186 428.995117,433.247559 C425.80599,436.370931 421.285319,437.932617 415.433105,437.932617 L364.242676,437.932617 Z M439.992676,413.47168 L439.992676,378.950195 L456.464355,365.338867 C457.713704,364.221029 458.963053,363.316895 460.212402,362.626465 C461.461751,361.936035 462.743978,361.59082 464.059082,361.59082 C466.229004,361.59082 468.004395,362.297689 469.385254,363.711426 C470.766113,365.125163 471.456543,367.048503 471.456543,369.481445 L471.456543,422.94043 C471.456543,425.373372 470.766113,427.280273 469.385254,428.661133 C468.004395,430.041992 466.229004,430.732422 464.059082,430.732422 C462.743978,430.732422 461.461751,430.403646 460.212402,429.746094 C458.963053,429.088542 457.713704,428.200846 456.464355,427.083008 L439.992676,413.47168 Z"/><path id="h" d="M46.1499336,-7.10542736e-15 L118.850066,3.62733656e-15 C134.897404,-2.107587e-15 140.716556,1.670861 146.583223,4.80838867 C152.449889,7.94591634 157.054084,12.5501107 160.191611,18.4167773 C163.329139,24.283444 165,30.1025963 165,46.1499336 L165,118.850066 C165,134.897404 163.329139,140.716556 160.191611,146.583223 C157.054084,152.449889 152.449889,157.054084 146.583223,160.191611 C140.716556,163.329139 134.897404,165 118.850066,165 L46.1499336,165 C30.1025963,165 24.283444,163.329139 18.4167773,160.191611 C12.5501107,157.054084 7.94591634,152.449889 4.80838867,146.583223 C1.670861,140.716556 -7.10542736e-15,134.897404 -7.10542736e-15,118.850066 L0,46.1499336 C0,30.1025963 1.670861,24.283444 4.80838867,18.4167773 C7.94591634,12.5501107 12.5501107,7.94591634 18.4167773,4.80838867 C24.283444,1.670861 30.1025963,-7.10542736e-15 46.1499336,-7.10542736e-15 Z"/><path id="n" d="M111.51444,11.7322209 L93.8287358,26.2488167 L93.8287358,71.7449636 L111.595443,86.3291414 C114.255049,88.4106644 118.143204,86.5116126 118.143204,83.1257585 L118.143204,14.8680218 C118.143204,11.4416186 114.167296,9.56284132 111.51444,11.7322209 Z"/><path id="p" d="M66.8276608,48.6589806 L66.8276608,69.609375 L27.6761019,69.609375 L27.6761019,97.3179612 L85.7284133,97.3179612 C90.2038415,97.3179612 93.8287358,93.6888122 93.8287358,89.2081311 L93.8287358,71.7449636 L66.8276608,48.6589806 Z"/><path id="r" d="M85.7284133,0 L27.6761019,0 L27.6761019,27.7085862 L66.8276608,27.7085862 L66.8276608,48.6589806 L93.8287358,26.2623331 L93.8287358,8.1098301 C93.8287358,3.62914897 90.2038415,0 85.7284133,0 Z"/><path id="u" d="M0,69.609375 L0,89.2081311 C0,93.6888122 3.62489433,97.3179612 8.10032252,97.3179612 L27.6761019,97.3179612 L27.6761019,69.609375 L0,69.609375 Z"/><linearGradient id="c" x1="0%" x2="0%" y1="0%" y2="98.776%"><stop offset="0%" stop-color="#DBDBDB"/><stop offset="100%" stop-color="#B5B5B5"/></linearGradient><linearGradient id="g" x1="50%" x2="50%" y1="0%" y2="100%"><stop offset="0%" stop-color="#3A3A3A"/><stop offset="100%" stop-color="#1E1E1E"/></linearGradient><linearGradient id="j" x1="0%" x2="0%" y1="100%" y2="0%"><stop offset="0%" stop-color="#D1D0D0"/><stop offset="100%" stop-color="#FFF"/></linearGradient><polygon id="l" points="27.676 27.709 0 27.709 0 69.609 27.676 69.609"/><polygon id="x" points="27.676 0 0 27.709 27.676 27.709"/><polygon id="z" points="66.828 48.659 93.829 71.745 93.829 26.249"/></defs><g fill="none" fill-rule="evenodd"><g fill-rule="nonzero"><use xlink:href="#a" fill="#000" filter="url(#b)"/><use xlink:href="#a" fill="url(#c)"/><use xlink:href="#a" fill="#000" filter="url(#d)"/><use xlink:href="#a" stroke="#FFF" stroke-width="2"/></g><g fill-rule="nonzero"><use xlink:href="#e" fill="#000" filter="url(#f)"/><use xlink:href="#e" fill="#2E2E2E"/><use xlink:href="#e" fill="url(#g)"/></g><g fill-rule="nonzero" transform="translate(388 387)"><use xlink:href="#h" fill="#000" filter="url(#i)"/><use xlink:href="#h" fill="url(#j)"/><use xlink:href="#h" fill="#000" filter="url(#k)"/><g transform="translate(23.629 33.64)"><use xlink:href="#l" fill="#2684FC"/><use xlink:href="#l" fill="#000" filter="url(#m)"/><use xlink:href="#n" fill="#00AC47"/><use xlink:href="#n" fill="#000" filter="url(#o)"/><use xlink:href="#p" fill="#00AC47"/><use xlink:href="#p" fill="#000" filter="url(#q)"/><use xlink:href="#r" fill="#000" filter="url(#s)"/><use xlink:href="#r" fill="#FBBC04"/><use xlink:href="#r" fill="#000" filter="url(#t)"/><use xlink:href="#u" fill="#000" filter="url(#v)"/><use xlink:href="#u" fill="#0066DA"/><use xlink:href="#u" fill="#000" filter="url(#w)"/><use xlink:href="#x" fill="#EA4335"/><use xlink:href="#x" fill="#000" filter="url(#y)"/><use xlink:href="#z" fill="#000" filter="url(#A)"/><use xlink:href="#z" fill="#00832D"/><use xlink:href="#z" fill="#000" filter="url(#B)"/></g></g></g></svg>